G04 EAGLE Gerber X2 export*
%TF.Part,Single*%
%TF.FileFunction,Copper,L2,Bot,Mixed*%
%TF.FilePolarity,Positive*%
%TF.GenerationSoftware,Autodesk,EAGLE,8.6.0*%
%TF.CreationDate,2018-01-28T12:16:18Z*%
G75*
%MOMM*%
%FSLAX34Y34*%
%LPD*%
%AMOC8*
5,1,8,0,0,1.08239X$1,22.5*%
G01*
%ADD10C,0.355600*%
%ADD11R,1.200000X1.200000*%
%ADD12R,1.930400X1.930400*%
%ADD13C,1.930400*%
%ADD14R,1.050000X1.300000*%
%ADD15P,2.364373X8X22.500000*%
%ADD16R,1.300000X1.050000*%
%ADD17R,1.676400X1.676400*%
%ADD18P,1.814519X8X292.500000*%
%ADD19R,1.700000X2.200000*%
%ADD20C,1.676400*%
%ADD21C,1.408000*%
%ADD22P,1.814519X8X22.500000*%
%ADD23R,1.700000X1.250000*%
%ADD24R,1.250000X1.700000*%
%ADD25P,2.089446X8X22.500000*%
%ADD26R,1.000000X1.400000*%
%ADD27P,4.123906X8X112.500000*%
%ADD28P,3.247170X8X112.500000*%
%ADD29C,0.812800*%
%ADD30C,0.406400*%

G36*
X587742Y10170D02*
X587742Y10170D01*
X587812Y10168D01*
X587899Y10189D01*
X587988Y10201D01*
X588053Y10226D01*
X588121Y10243D01*
X588200Y10285D01*
X588283Y10318D01*
X588340Y10359D01*
X588402Y10392D01*
X588468Y10452D01*
X588541Y10504D01*
X588585Y10558D01*
X588637Y10606D01*
X588686Y10680D01*
X588744Y10749D01*
X588773Y10813D01*
X588812Y10871D01*
X588841Y10956D01*
X588879Y11037D01*
X588892Y11106D01*
X588915Y11172D01*
X588922Y11262D01*
X588939Y11349D01*
X588934Y11419D01*
X588940Y11489D01*
X588925Y11578D01*
X588919Y11667D01*
X588897Y11733D01*
X588885Y11803D01*
X588849Y11884D01*
X588821Y11969D01*
X588784Y12029D01*
X588755Y12092D01*
X588699Y12162D01*
X588651Y12238D01*
X588600Y12286D01*
X588556Y12341D01*
X588485Y12395D01*
X588419Y12456D01*
X588359Y12489D01*
X584041Y16808D01*
X581731Y22383D01*
X581731Y28417D01*
X584041Y33992D01*
X587251Y37202D01*
X587324Y37297D01*
X587402Y37386D01*
X587421Y37422D01*
X587446Y37454D01*
X587493Y37563D01*
X587547Y37669D01*
X587556Y37708D01*
X587572Y37746D01*
X587591Y37863D01*
X587617Y37979D01*
X587615Y38020D01*
X587622Y38060D01*
X587611Y38178D01*
X587607Y38297D01*
X587596Y38336D01*
X587592Y38376D01*
X587552Y38489D01*
X587519Y38603D01*
X587498Y38637D01*
X587484Y38676D01*
X587418Y38774D01*
X587357Y38877D01*
X587317Y38922D01*
X587306Y38939D01*
X587291Y38952D01*
X587251Y38997D01*
X584041Y42208D01*
X581731Y47783D01*
X581731Y53817D01*
X584041Y59392D01*
X588308Y63659D01*
X593883Y65969D01*
X613997Y65969D01*
X619572Y63659D01*
X619867Y63365D01*
X619946Y63304D01*
X620018Y63236D01*
X620071Y63207D01*
X620119Y63170D01*
X620210Y63130D01*
X620296Y63082D01*
X620355Y63067D01*
X620410Y63043D01*
X620508Y63028D01*
X620604Y63003D01*
X620704Y62997D01*
X620725Y62993D01*
X620737Y62995D01*
X620765Y62993D01*
X659402Y62993D01*
X659520Y63008D01*
X659639Y63015D01*
X659677Y63028D01*
X659718Y63033D01*
X659828Y63076D01*
X659941Y63113D01*
X659976Y63135D01*
X660013Y63150D01*
X660109Y63219D01*
X660210Y63283D01*
X660238Y63313D01*
X660271Y63336D01*
X660347Y63428D01*
X660428Y63515D01*
X660448Y63550D01*
X660473Y63581D01*
X660524Y63689D01*
X660582Y63793D01*
X660592Y63833D01*
X660609Y63869D01*
X660631Y63986D01*
X660661Y64101D01*
X660665Y64161D01*
X660669Y64181D01*
X660667Y64202D01*
X660671Y64262D01*
X660671Y77967D01*
X661761Y80597D01*
X661763Y80606D01*
X661768Y80614D01*
X661805Y80759D01*
X661845Y80904D01*
X661845Y80913D01*
X661847Y80922D01*
X661857Y81083D01*
X661857Y90775D01*
X663075Y93714D01*
X663077Y93723D01*
X663082Y93731D01*
X663119Y93877D01*
X663159Y94021D01*
X663159Y94030D01*
X663161Y94039D01*
X663171Y94200D01*
X663171Y99217D01*
X664409Y102205D01*
X666695Y104491D01*
X669683Y105729D01*
X671402Y105729D01*
X671520Y105744D01*
X671639Y105751D01*
X671677Y105764D01*
X671718Y105769D01*
X671828Y105812D01*
X671941Y105849D01*
X671976Y105871D01*
X672013Y105886D01*
X672109Y105955D01*
X672210Y106019D01*
X672238Y106049D01*
X672271Y106072D01*
X672347Y106164D01*
X672428Y106251D01*
X672448Y106286D01*
X672473Y106317D01*
X672524Y106425D01*
X672582Y106529D01*
X672592Y106569D01*
X672609Y106605D01*
X672631Y106722D01*
X672661Y106837D01*
X672665Y106897D01*
X672669Y106917D01*
X672667Y106938D01*
X672671Y106998D01*
X672671Y117864D01*
X672654Y118001D01*
X672641Y118140D01*
X672634Y118159D01*
X672631Y118179D01*
X672580Y118308D01*
X672533Y118440D01*
X672522Y118456D01*
X672514Y118475D01*
X672433Y118587D01*
X672355Y118703D01*
X672339Y118716D01*
X672328Y118732D01*
X672220Y118821D01*
X672116Y118913D01*
X672098Y118922D01*
X672083Y118935D01*
X671957Y118994D01*
X671833Y119058D01*
X671813Y119062D01*
X671795Y119071D01*
X671659Y119097D01*
X671523Y119127D01*
X671502Y119127D01*
X671483Y119131D01*
X671344Y119122D01*
X671205Y119118D01*
X671185Y119112D01*
X671165Y119111D01*
X671033Y119068D01*
X670899Y119029D01*
X670882Y119019D01*
X670863Y119013D01*
X670745Y118938D01*
X670625Y118868D01*
X670604Y118849D01*
X670594Y118843D01*
X670580Y118828D01*
X670505Y118761D01*
X654252Y102509D01*
X654192Y102431D01*
X654124Y102359D01*
X654095Y102306D01*
X654058Y102258D01*
X654018Y102167D01*
X653970Y102081D01*
X653955Y102022D01*
X653931Y101966D01*
X653916Y101868D01*
X653891Y101773D01*
X653885Y101673D01*
X653881Y101652D01*
X653883Y101640D01*
X653881Y101612D01*
X653881Y94235D01*
X643465Y83819D01*
X628735Y83819D01*
X618319Y94235D01*
X618319Y101612D01*
X618307Y101710D01*
X618304Y101809D01*
X618287Y101867D01*
X618279Y101927D01*
X618243Y102020D01*
X618215Y102115D01*
X618185Y102167D01*
X618162Y102223D01*
X618104Y102303D01*
X618054Y102389D01*
X617988Y102464D01*
X617976Y102480D01*
X617966Y102488D01*
X617948Y102509D01*
X558422Y162035D01*
X554813Y165643D01*
X552957Y170125D01*
X552957Y295875D01*
X552945Y295973D01*
X552942Y296072D01*
X552925Y296131D01*
X552917Y296191D01*
X552881Y296283D01*
X552853Y296378D01*
X552823Y296430D01*
X552800Y296486D01*
X552742Y296567D01*
X552692Y296652D01*
X552626Y296727D01*
X552614Y296744D01*
X552604Y296752D01*
X552586Y296773D01*
X546099Y303259D01*
X546099Y319041D01*
X557259Y330201D01*
X573041Y330201D01*
X584201Y319041D01*
X584201Y303259D01*
X577714Y296773D01*
X577654Y296694D01*
X577586Y296622D01*
X577557Y296569D01*
X577520Y296521D01*
X577480Y296430D01*
X577432Y296344D01*
X577417Y296285D01*
X577393Y296230D01*
X577378Y296132D01*
X577353Y296036D01*
X577347Y295936D01*
X577343Y295916D01*
X577345Y295903D01*
X577343Y295875D01*
X577343Y178126D01*
X577355Y178028D01*
X577358Y177929D01*
X577375Y177871D01*
X577383Y177811D01*
X577419Y177718D01*
X577447Y177623D01*
X577477Y177571D01*
X577500Y177515D01*
X577558Y177435D01*
X577608Y177349D01*
X577674Y177274D01*
X577686Y177258D01*
X577696Y177250D01*
X577714Y177229D01*
X635191Y119752D01*
X635269Y119692D01*
X635341Y119624D01*
X635394Y119595D01*
X635442Y119558D01*
X635533Y119518D01*
X635619Y119470D01*
X635678Y119455D01*
X635734Y119431D01*
X635832Y119416D01*
X635927Y119391D01*
X635989Y119387D01*
X635991Y119386D01*
X635996Y119387D01*
X636027Y119385D01*
X636048Y119381D01*
X636060Y119383D01*
X636088Y119381D01*
X636112Y119381D01*
X636210Y119393D01*
X636309Y119396D01*
X636359Y119411D01*
X636364Y119411D01*
X636371Y119413D01*
X636427Y119421D01*
X636520Y119457D01*
X636615Y119485D01*
X636667Y119515D01*
X636723Y119538D01*
X636803Y119596D01*
X636889Y119646D01*
X636964Y119712D01*
X636980Y119724D01*
X636988Y119734D01*
X637009Y119752D01*
X668918Y151661D01*
X668978Y151739D01*
X669046Y151811D01*
X669075Y151864D01*
X669112Y151912D01*
X669152Y152003D01*
X669200Y152089D01*
X669215Y152148D01*
X669239Y152204D01*
X669254Y152302D01*
X669279Y152397D01*
X669285Y152497D01*
X669289Y152518D01*
X669287Y152530D01*
X669289Y152558D01*
X669289Y156049D01*
X670527Y159037D01*
X671676Y160186D01*
X671749Y160280D01*
X671828Y160369D01*
X671846Y160405D01*
X671871Y160437D01*
X671918Y160546D01*
X671972Y160652D01*
X671981Y160692D01*
X671997Y160729D01*
X672016Y160847D01*
X672042Y160963D01*
X672041Y161003D01*
X672047Y161043D01*
X672036Y161162D01*
X672032Y161281D01*
X672021Y161319D01*
X672017Y161360D01*
X671977Y161472D01*
X671944Y161586D01*
X671924Y161621D01*
X671910Y161659D01*
X671843Y161758D01*
X671782Y161860D01*
X671743Y161905D01*
X671731Y161922D01*
X671716Y161936D01*
X671676Y161981D01*
X668935Y164722D01*
X656413Y177243D01*
X654557Y181725D01*
X654557Y186633D01*
X654554Y186662D01*
X654556Y186692D01*
X654536Y186806D01*
X654535Y186823D01*
X654532Y186832D01*
X654517Y186949D01*
X654507Y186976D01*
X654501Y187005D01*
X654448Y187124D01*
X654400Y187244D01*
X654383Y187268D01*
X654371Y187295D01*
X654290Y187396D01*
X654214Y187502D01*
X654191Y187520D01*
X654172Y187543D01*
X654069Y187621D01*
X653969Y187704D01*
X653942Y187717D01*
X653918Y187735D01*
X653774Y187806D01*
X653645Y187859D01*
X651359Y190145D01*
X651158Y190630D01*
X651133Y190673D01*
X651117Y190720D01*
X651055Y190811D01*
X651000Y190907D01*
X650966Y190942D01*
X650938Y190983D01*
X650856Y191056D01*
X650779Y191135D01*
X650737Y191161D01*
X650700Y191194D01*
X650602Y191244D01*
X650508Y191301D01*
X650460Y191316D01*
X650416Y191338D01*
X650309Y191362D01*
X650204Y191395D01*
X650154Y191397D01*
X650106Y191408D01*
X649996Y191405D01*
X649886Y191410D01*
X649838Y191400D01*
X649788Y191398D01*
X649683Y191368D01*
X649575Y191346D01*
X649530Y191324D01*
X649483Y191310D01*
X649388Y191254D01*
X649289Y191206D01*
X649251Y191174D01*
X649209Y191148D01*
X649088Y191042D01*
X643465Y185419D01*
X628735Y185419D01*
X618319Y195835D01*
X618319Y210565D01*
X628735Y220981D01*
X643465Y220981D01*
X647955Y216491D01*
X648064Y216406D01*
X648171Y216317D01*
X648190Y216309D01*
X648206Y216296D01*
X648334Y216241D01*
X648459Y216182D01*
X648479Y216178D01*
X648498Y216170D01*
X648636Y216148D01*
X648772Y216122D01*
X648792Y216123D01*
X648812Y216120D01*
X648951Y216133D01*
X649089Y216142D01*
X649108Y216148D01*
X649128Y216150D01*
X649260Y216197D01*
X649391Y216240D01*
X649409Y216251D01*
X649428Y216257D01*
X649543Y216336D01*
X649660Y216410D01*
X649674Y216425D01*
X649691Y216436D01*
X649783Y216540D01*
X649878Y216642D01*
X649888Y216659D01*
X649901Y216674D01*
X649965Y216799D01*
X650032Y216920D01*
X650037Y216940D01*
X650046Y216958D01*
X650076Y217094D01*
X650111Y217228D01*
X650113Y217256D01*
X650116Y217268D01*
X650115Y217289D01*
X650121Y217389D01*
X650121Y218367D01*
X651359Y221355D01*
X653645Y223641D01*
X656633Y224879D01*
X676867Y224879D01*
X679855Y223641D01*
X681705Y221791D01*
X681814Y221706D01*
X681921Y221617D01*
X681940Y221609D01*
X681956Y221596D01*
X682084Y221541D01*
X682209Y221482D01*
X682229Y221478D01*
X682248Y221470D01*
X682386Y221448D01*
X682522Y221422D01*
X682542Y221423D01*
X682562Y221420D01*
X682701Y221433D01*
X682839Y221442D01*
X682858Y221448D01*
X682878Y221450D01*
X683010Y221497D01*
X683141Y221540D01*
X683159Y221551D01*
X683178Y221558D01*
X683293Y221636D01*
X683410Y221710D01*
X683424Y221725D01*
X683441Y221736D01*
X683533Y221840D01*
X683628Y221942D01*
X683638Y221959D01*
X683651Y221975D01*
X683715Y222099D01*
X683782Y222220D01*
X683787Y222240D01*
X683796Y222258D01*
X683826Y222394D01*
X683861Y222528D01*
X683863Y222556D01*
X683866Y222568D01*
X683865Y222589D01*
X683871Y222689D01*
X683871Y224107D01*
X683859Y224205D01*
X683856Y224304D01*
X683839Y224363D01*
X683831Y224423D01*
X683795Y224515D01*
X683767Y224610D01*
X683737Y224662D01*
X683714Y224718D01*
X683656Y224798D01*
X683606Y224884D01*
X683540Y224959D01*
X683528Y224976D01*
X683518Y224984D01*
X683500Y225005D01*
X683109Y225395D01*
X681871Y228383D01*
X681871Y232161D01*
X681854Y232299D01*
X681841Y232438D01*
X681834Y232457D01*
X681831Y232477D01*
X681780Y232606D01*
X681733Y232738D01*
X681722Y232754D01*
X681714Y232772D01*
X681633Y232885D01*
X681554Y233001D01*
X681539Y233014D01*
X681528Y233030D01*
X681420Y233119D01*
X681316Y233211D01*
X681298Y233220D01*
X681283Y233233D01*
X681157Y233292D01*
X681032Y233355D01*
X681013Y233360D01*
X680995Y233368D01*
X680858Y233394D01*
X680722Y233425D01*
X680702Y233424D01*
X680683Y233428D01*
X680543Y233419D01*
X680404Y233415D01*
X680385Y233409D01*
X680365Y233408D01*
X680232Y233365D01*
X680099Y233326D01*
X680082Y233316D01*
X680063Y233310D01*
X679993Y233266D01*
X676867Y231971D01*
X656633Y231971D01*
X653645Y233209D01*
X651359Y235495D01*
X650270Y238124D01*
X650255Y238149D01*
X650246Y238177D01*
X650177Y238287D01*
X650113Y238400D01*
X650092Y238421D01*
X650076Y238446D01*
X649982Y238535D01*
X649891Y238628D01*
X649866Y238644D01*
X649845Y238664D01*
X649731Y238727D01*
X649620Y238795D01*
X649592Y238803D01*
X649566Y238818D01*
X649440Y238850D01*
X649316Y238888D01*
X649287Y238890D01*
X649258Y238897D01*
X649097Y238907D01*
X646679Y238907D01*
X646581Y238895D01*
X646481Y238892D01*
X646423Y238875D01*
X646363Y238867D01*
X646271Y238831D01*
X646176Y238803D01*
X646124Y238773D01*
X646068Y238750D01*
X645987Y238692D01*
X645902Y238642D01*
X645827Y238576D01*
X645810Y238564D01*
X645802Y238554D01*
X645781Y238536D01*
X643465Y236219D01*
X628735Y236219D01*
X618319Y246635D01*
X618319Y261365D01*
X628735Y271781D01*
X643465Y271781D01*
X649190Y266055D01*
X649230Y266025D01*
X649263Y265988D01*
X649355Y265928D01*
X649442Y265860D01*
X649487Y265841D01*
X649529Y265813D01*
X649632Y265778D01*
X649733Y265734D01*
X649783Y265726D01*
X649830Y265710D01*
X649939Y265702D01*
X650048Y265684D01*
X650097Y265689D01*
X650147Y265685D01*
X650255Y265704D01*
X650364Y265714D01*
X650411Y265731D01*
X650460Y265739D01*
X650560Y265785D01*
X650663Y265822D01*
X650705Y265850D01*
X650750Y265870D01*
X650836Y265939D01*
X650927Y266000D01*
X650960Y266038D01*
X650998Y266069D01*
X651064Y266156D01*
X651137Y266239D01*
X651160Y266283D01*
X651190Y266323D01*
X651260Y266467D01*
X651359Y266705D01*
X653645Y268991D01*
X656633Y270229D01*
X668110Y270229D01*
X668208Y270241D01*
X668307Y270244D01*
X668365Y270261D01*
X668425Y270269D01*
X668517Y270305D01*
X668613Y270333D01*
X668665Y270363D01*
X668721Y270386D01*
X668801Y270444D01*
X668887Y270494D01*
X668962Y270560D01*
X668978Y270572D01*
X668986Y270582D01*
X669007Y270600D01*
X680493Y282087D01*
X683841Y283473D01*
X683849Y283478D01*
X683858Y283480D01*
X683986Y283556D01*
X684117Y283630D01*
X684124Y283637D01*
X684131Y283642D01*
X684252Y283748D01*
X685395Y284891D01*
X688383Y286129D01*
X708617Y286129D01*
X711605Y284891D01*
X713891Y282605D01*
X715129Y279617D01*
X715129Y263883D01*
X713891Y260895D01*
X711605Y258609D01*
X708617Y257371D01*
X690790Y257371D01*
X690692Y257359D01*
X690593Y257356D01*
X690535Y257339D01*
X690475Y257331D01*
X690382Y257295D01*
X690287Y257267D01*
X690235Y257237D01*
X690179Y257214D01*
X690099Y257156D01*
X690013Y257106D01*
X689938Y257040D01*
X689922Y257028D01*
X689914Y257018D01*
X689893Y257000D01*
X684596Y251703D01*
X684554Y251648D01*
X684504Y251600D01*
X684457Y251523D01*
X684401Y251452D01*
X684374Y251388D01*
X684337Y251329D01*
X684311Y251243D01*
X684275Y251160D01*
X684264Y251091D01*
X684244Y251025D01*
X684239Y250935D01*
X684225Y250846D01*
X684232Y250776D01*
X684229Y250707D01*
X684247Y250619D01*
X684255Y250529D01*
X684279Y250464D01*
X684293Y250395D01*
X684332Y250315D01*
X684363Y250230D01*
X684402Y250173D01*
X684433Y250110D01*
X684491Y250041D01*
X684541Y249967D01*
X684594Y249921D01*
X684639Y249868D01*
X684712Y249816D01*
X684780Y249757D01*
X684842Y249725D01*
X684899Y249685D01*
X684983Y249653D01*
X685063Y249612D01*
X685131Y249597D01*
X685196Y249572D01*
X685286Y249562D01*
X685373Y249542D01*
X685443Y249544D01*
X685512Y249537D01*
X685601Y249549D01*
X685691Y249552D01*
X685758Y249571D01*
X685827Y249581D01*
X685980Y249633D01*
X688383Y250629D01*
X708617Y250629D01*
X711605Y249391D01*
X713891Y247105D01*
X715129Y244117D01*
X715129Y228383D01*
X713891Y225395D01*
X713500Y225005D01*
X713440Y224926D01*
X713372Y224854D01*
X713343Y224801D01*
X713306Y224753D01*
X713266Y224662D01*
X713218Y224576D01*
X713203Y224517D01*
X713179Y224462D01*
X713164Y224364D01*
X713139Y224268D01*
X713133Y224168D01*
X713129Y224147D01*
X713131Y224135D01*
X713129Y224107D01*
X713129Y214433D01*
X711891Y211445D01*
X710893Y210447D01*
X710820Y210353D01*
X710742Y210264D01*
X710723Y210228D01*
X710698Y210196D01*
X710651Y210087D01*
X710597Y209981D01*
X710588Y209942D01*
X710572Y209904D01*
X710553Y209787D01*
X710527Y209671D01*
X710528Y209630D01*
X710522Y209590D01*
X710533Y209472D01*
X710537Y209353D01*
X710548Y209314D01*
X710552Y209274D01*
X710592Y209162D01*
X710625Y209047D01*
X710646Y209012D01*
X710660Y208974D01*
X710726Y208876D01*
X710787Y208773D01*
X710827Y208728D01*
X710838Y208711D01*
X710854Y208698D01*
X710893Y208652D01*
X711891Y207655D01*
X713129Y204667D01*
X713129Y190933D01*
X711891Y187945D01*
X709755Y185809D01*
X709670Y185700D01*
X709581Y185593D01*
X709573Y185574D01*
X709560Y185558D01*
X709505Y185430D01*
X709446Y185305D01*
X709442Y185285D01*
X709434Y185266D01*
X709412Y185128D01*
X709386Y184992D01*
X709387Y184972D01*
X709384Y184952D01*
X709397Y184813D01*
X709406Y184675D01*
X709412Y184656D01*
X709414Y184636D01*
X709461Y184504D01*
X709504Y184373D01*
X709515Y184355D01*
X709522Y184336D01*
X709600Y184221D01*
X709674Y184104D01*
X709689Y184090D01*
X709700Y184073D01*
X709804Y183981D01*
X709906Y183886D01*
X709923Y183876D01*
X709939Y183863D01*
X710063Y183799D01*
X710184Y183732D01*
X710204Y183727D01*
X710222Y183718D01*
X710358Y183688D01*
X710492Y183653D01*
X710520Y183651D01*
X710532Y183648D01*
X710553Y183649D01*
X710653Y183643D01*
X711974Y183643D01*
X712072Y183655D01*
X712171Y183658D01*
X712229Y183675D01*
X712289Y183683D01*
X712381Y183719D01*
X712477Y183747D01*
X712529Y183777D01*
X712585Y183800D01*
X712665Y183858D01*
X712751Y183908D01*
X712826Y183974D01*
X712842Y183986D01*
X712850Y183996D01*
X712871Y184014D01*
X717686Y188829D01*
X717746Y188907D01*
X717814Y188979D01*
X717843Y189032D01*
X717880Y189080D01*
X717920Y189171D01*
X717968Y189258D01*
X717983Y189316D01*
X718007Y189372D01*
X718022Y189470D01*
X718047Y189565D01*
X718053Y189665D01*
X718057Y189686D01*
X718055Y189698D01*
X718057Y189726D01*
X718057Y218325D01*
X719913Y222807D01*
X751200Y254093D01*
X751260Y254171D01*
X751328Y254243D01*
X751357Y254296D01*
X751394Y254344D01*
X751434Y254435D01*
X751482Y254522D01*
X751497Y254580D01*
X751521Y254636D01*
X751536Y254734D01*
X751561Y254829D01*
X751567Y254929D01*
X751571Y254950D01*
X751569Y254962D01*
X751571Y254990D01*
X751571Y269930D01*
X764118Y282477D01*
X764136Y282500D01*
X764159Y282519D01*
X764233Y282625D01*
X764313Y282728D01*
X764325Y282755D01*
X764342Y282779D01*
X764388Y282901D01*
X764439Y283020D01*
X764444Y283049D01*
X764454Y283077D01*
X764469Y283206D01*
X764489Y283334D01*
X764486Y283364D01*
X764490Y283393D01*
X764472Y283521D01*
X764459Y283651D01*
X764449Y283679D01*
X764445Y283708D01*
X764393Y283860D01*
X764009Y284787D01*
X763960Y284873D01*
X763920Y284963D01*
X763882Y285010D01*
X763852Y285063D01*
X763783Y285134D01*
X763721Y285211D01*
X763673Y285248D01*
X763631Y285291D01*
X763546Y285343D01*
X763467Y285403D01*
X763377Y285447D01*
X763359Y285457D01*
X763348Y285461D01*
X763323Y285473D01*
X761468Y286241D01*
X758681Y289028D01*
X757173Y292669D01*
X757173Y296611D01*
X758681Y300252D01*
X761468Y303039D01*
X763323Y303807D01*
X763409Y303856D01*
X763499Y303896D01*
X763546Y303934D01*
X763599Y303964D01*
X763670Y304033D01*
X763747Y304095D01*
X763784Y304143D01*
X763827Y304185D01*
X763879Y304270D01*
X763939Y304349D01*
X763983Y304439D01*
X763993Y304457D01*
X763997Y304468D01*
X764009Y304493D01*
X764777Y306348D01*
X767564Y309135D01*
X771205Y310643D01*
X775147Y310643D01*
X778788Y309135D01*
X781575Y306348D01*
X782343Y304493D01*
X782392Y304407D01*
X782432Y304317D01*
X782470Y304270D01*
X782500Y304217D01*
X782569Y304146D01*
X782631Y304069D01*
X782679Y304032D01*
X782721Y303989D01*
X782806Y303937D01*
X782885Y303877D01*
X782975Y303833D01*
X782993Y303823D01*
X783004Y303819D01*
X783029Y303807D01*
X784884Y303039D01*
X787671Y300252D01*
X789179Y296611D01*
X789179Y292669D01*
X787671Y289028D01*
X784884Y286241D01*
X784109Y285921D01*
X784048Y285886D01*
X783984Y285860D01*
X783911Y285808D01*
X783833Y285763D01*
X783783Y285715D01*
X783726Y285674D01*
X783669Y285604D01*
X783604Y285542D01*
X783568Y285482D01*
X783523Y285429D01*
X783485Y285347D01*
X783438Y285271D01*
X783418Y285204D01*
X783388Y285141D01*
X783371Y285053D01*
X783345Y284967D01*
X783341Y284897D01*
X783328Y284828D01*
X783334Y284739D01*
X783329Y284649D01*
X783344Y284581D01*
X783348Y284511D01*
X783375Y284426D01*
X783394Y284338D01*
X783424Y284275D01*
X783446Y284209D01*
X783494Y284133D01*
X783533Y284052D01*
X783579Y283999D01*
X783616Y283940D01*
X783682Y283878D01*
X783740Y283810D01*
X783797Y283770D01*
X783848Y283722D01*
X783926Y283679D01*
X784000Y283627D01*
X784065Y283602D01*
X784126Y283568D01*
X784213Y283546D01*
X797829Y269930D01*
X797829Y254990D01*
X797841Y254892D01*
X797844Y254793D01*
X797861Y254735D01*
X797869Y254675D01*
X797905Y254583D01*
X797933Y254487D01*
X797963Y254435D01*
X797986Y254379D01*
X798044Y254299D01*
X798094Y254213D01*
X798160Y254138D01*
X798172Y254122D01*
X798182Y254114D01*
X798200Y254093D01*
X810437Y241857D01*
X812293Y237375D01*
X812293Y84768D01*
X810437Y80287D01*
X790203Y60053D01*
X790122Y59949D01*
X790037Y59848D01*
X790025Y59824D01*
X790008Y59802D01*
X789956Y59680D01*
X789898Y59562D01*
X789893Y59535D01*
X789882Y59510D01*
X789861Y59379D01*
X789835Y59250D01*
X789836Y59223D01*
X789832Y59196D01*
X789845Y59064D01*
X789851Y58932D01*
X789859Y58907D01*
X789862Y58880D01*
X789907Y58755D01*
X789946Y58629D01*
X789961Y58606D01*
X789970Y58580D01*
X790044Y58471D01*
X790114Y58358D01*
X790133Y58340D01*
X790148Y58317D01*
X790247Y58230D01*
X790343Y58138D01*
X790366Y58125D01*
X790387Y58107D01*
X790504Y58047D01*
X790620Y57981D01*
X790656Y57969D01*
X790670Y57962D01*
X790691Y57957D01*
X790772Y57930D01*
X797498Y56128D01*
X803463Y52684D01*
X808334Y47813D01*
X811778Y41848D01*
X812644Y38615D01*
X812702Y38474D01*
X812758Y38333D01*
X812762Y38327D01*
X812764Y38321D01*
X812856Y38197D01*
X812944Y38075D01*
X812950Y38071D01*
X812954Y38065D01*
X813072Y37970D01*
X813189Y37872D01*
X813196Y37869D01*
X813201Y37865D01*
X813340Y37802D01*
X813477Y37737D01*
X813484Y37736D01*
X813490Y37733D01*
X813640Y37706D01*
X813790Y37677D01*
X813796Y37677D01*
X813803Y37676D01*
X813955Y37687D01*
X814107Y37697D01*
X814113Y37699D01*
X814120Y37699D01*
X814266Y37748D01*
X814409Y37795D01*
X814415Y37798D01*
X814422Y37801D01*
X814550Y37884D01*
X814678Y37965D01*
X814683Y37970D01*
X814688Y37974D01*
X814790Y38084D01*
X814896Y38197D01*
X814899Y38203D01*
X814904Y38208D01*
X814977Y38343D01*
X815050Y38475D01*
X815051Y38482D01*
X815054Y38488D01*
X815091Y38636D01*
X815129Y38783D01*
X815130Y38792D01*
X815131Y38796D01*
X815131Y38807D01*
X815139Y38944D01*
X815139Y359920D01*
X815124Y360038D01*
X815117Y360157D01*
X815104Y360195D01*
X815099Y360236D01*
X815056Y360346D01*
X815019Y360459D01*
X814997Y360494D01*
X814982Y360531D01*
X814913Y360627D01*
X814849Y360728D01*
X814819Y360756D01*
X814796Y360789D01*
X814704Y360865D01*
X814617Y360946D01*
X814582Y360966D01*
X814551Y360991D01*
X814443Y361042D01*
X814339Y361100D01*
X814299Y361110D01*
X814263Y361127D01*
X814146Y361149D01*
X814031Y361179D01*
X813971Y361183D01*
X813951Y361187D01*
X813930Y361185D01*
X813870Y361189D01*
X52482Y361189D01*
X52338Y361171D01*
X52192Y361156D01*
X52180Y361151D01*
X52166Y361149D01*
X52031Y361096D01*
X51894Y361045D01*
X51883Y361037D01*
X51871Y361032D01*
X51753Y360947D01*
X51633Y360864D01*
X51624Y360853D01*
X51613Y360846D01*
X51521Y360734D01*
X51425Y360623D01*
X51419Y360611D01*
X51410Y360601D01*
X51349Y360469D01*
X51284Y360338D01*
X51281Y360325D01*
X51275Y360313D01*
X51248Y360170D01*
X51217Y360027D01*
X51218Y360014D01*
X51215Y360001D01*
X51224Y359856D01*
X51230Y359710D01*
X51234Y359696D01*
X51235Y359683D01*
X51280Y359545D01*
X51322Y359405D01*
X51329Y359393D01*
X51333Y359381D01*
X51411Y359258D01*
X51486Y359133D01*
X51496Y359123D01*
X51503Y359112D01*
X51609Y359012D01*
X51713Y358910D01*
X51729Y358900D01*
X51735Y358894D01*
X51750Y358886D01*
X51847Y358821D01*
X54163Y357484D01*
X59034Y352613D01*
X62478Y346648D01*
X64261Y339994D01*
X64261Y333700D01*
X64267Y333650D01*
X64265Y333601D01*
X64287Y333494D01*
X64301Y333384D01*
X64319Y333338D01*
X64329Y333289D01*
X64377Y333191D01*
X64418Y333089D01*
X64447Y333049D01*
X64469Y333004D01*
X64540Y332920D01*
X64604Y332831D01*
X64643Y332800D01*
X64675Y332762D01*
X64765Y332699D01*
X64849Y332628D01*
X64894Y332607D01*
X64935Y332579D01*
X65038Y332540D01*
X65137Y332493D01*
X65186Y332484D01*
X65232Y332466D01*
X65342Y332454D01*
X65449Y332433D01*
X65499Y332436D01*
X65548Y332431D01*
X65657Y332446D01*
X65767Y332453D01*
X65814Y332468D01*
X65863Y332475D01*
X66016Y332527D01*
X72663Y335281D01*
X79737Y335281D01*
X86272Y332574D01*
X88781Y330064D01*
X88860Y330004D01*
X88932Y329936D01*
X88985Y329907D01*
X89033Y329870D01*
X89124Y329830D01*
X89210Y329782D01*
X89269Y329767D01*
X89324Y329743D01*
X89422Y329728D01*
X89518Y329703D01*
X89618Y329697D01*
X89638Y329693D01*
X89651Y329695D01*
X89679Y329693D01*
X505425Y329693D01*
X505523Y329705D01*
X505622Y329708D01*
X505681Y329725D01*
X505741Y329733D01*
X505833Y329769D01*
X505928Y329797D01*
X505980Y329827D01*
X506036Y329850D01*
X506116Y329908D01*
X506202Y329958D01*
X506277Y330024D01*
X506294Y330036D01*
X506302Y330046D01*
X506323Y330064D01*
X506459Y330201D01*
X522241Y330201D01*
X533401Y319041D01*
X533401Y303259D01*
X522241Y292099D01*
X506459Y292099D01*
X495299Y303259D01*
X495299Y304038D01*
X495284Y304156D01*
X495277Y304275D01*
X495264Y304313D01*
X495259Y304354D01*
X495216Y304464D01*
X495179Y304577D01*
X495157Y304612D01*
X495142Y304649D01*
X495073Y304745D01*
X495009Y304846D01*
X494979Y304874D01*
X494956Y304907D01*
X494864Y304983D01*
X494777Y305064D01*
X494742Y305084D01*
X494711Y305109D01*
X494603Y305160D01*
X494499Y305218D01*
X494459Y305228D01*
X494423Y305245D01*
X494306Y305267D01*
X494191Y305297D01*
X494131Y305301D01*
X494111Y305305D01*
X494090Y305303D01*
X494030Y305307D01*
X425100Y305307D01*
X424963Y305290D01*
X424824Y305277D01*
X424805Y305270D01*
X424785Y305267D01*
X424656Y305216D01*
X424524Y305169D01*
X424508Y305158D01*
X424489Y305150D01*
X424377Y305069D01*
X424261Y304991D01*
X424248Y304975D01*
X424232Y304964D01*
X424143Y304856D01*
X424051Y304752D01*
X424042Y304734D01*
X424029Y304719D01*
X423970Y304593D01*
X423906Y304469D01*
X423902Y304449D01*
X423893Y304431D01*
X423867Y304295D01*
X423837Y304159D01*
X423837Y304138D01*
X423833Y304119D01*
X423842Y303980D01*
X423846Y303841D01*
X423852Y303821D01*
X423853Y303801D01*
X423896Y303669D01*
X423935Y303535D01*
X423945Y303518D01*
X423951Y303499D01*
X424026Y303381D01*
X424096Y303261D01*
X424115Y303240D01*
X424121Y303230D01*
X424136Y303216D01*
X424203Y303141D01*
X455191Y272152D01*
X455269Y272092D01*
X455341Y272024D01*
X455394Y271995D01*
X455442Y271958D01*
X455533Y271918D01*
X455620Y271870D01*
X455678Y271855D01*
X455734Y271831D01*
X455832Y271816D01*
X455927Y271791D01*
X456027Y271785D01*
X456048Y271781D01*
X456060Y271783D01*
X456088Y271781D01*
X463465Y271781D01*
X473881Y261365D01*
X473881Y246635D01*
X463465Y236219D01*
X456088Y236219D01*
X455990Y236207D01*
X455891Y236204D01*
X455833Y236187D01*
X455773Y236179D01*
X455681Y236143D01*
X455585Y236115D01*
X455533Y236085D01*
X455477Y236062D01*
X455397Y236004D01*
X455311Y235954D01*
X455236Y235888D01*
X455220Y235876D01*
X455212Y235866D01*
X455191Y235848D01*
X418964Y199621D01*
X418904Y199543D01*
X418836Y199471D01*
X418807Y199418D01*
X418770Y199370D01*
X418730Y199279D01*
X418682Y199192D01*
X418667Y199134D01*
X418643Y199078D01*
X418628Y198980D01*
X418603Y198885D01*
X418597Y198785D01*
X418593Y198764D01*
X418595Y198752D01*
X418593Y198724D01*
X418593Y194941D01*
X418596Y194911D01*
X418594Y194882D01*
X418616Y194754D01*
X418633Y194625D01*
X418643Y194598D01*
X418648Y194569D01*
X418702Y194450D01*
X418750Y194329D01*
X418767Y194306D01*
X418779Y194279D01*
X418860Y194177D01*
X418936Y194072D01*
X418959Y194053D01*
X418978Y194030D01*
X419081Y193952D01*
X419181Y193869D01*
X419208Y193857D01*
X419232Y193839D01*
X419376Y193768D01*
X424135Y191797D01*
X428779Y187153D01*
X431293Y181084D01*
X431293Y174516D01*
X428779Y168447D01*
X424135Y163803D01*
X418066Y161289D01*
X394734Y161289D01*
X388665Y163803D01*
X384021Y168447D01*
X381507Y174516D01*
X381507Y181084D01*
X384021Y187153D01*
X388665Y191797D01*
X393424Y193768D01*
X393449Y193783D01*
X393477Y193792D01*
X393587Y193861D01*
X393700Y193926D01*
X393721Y193946D01*
X393746Y193962D01*
X393835Y194056D01*
X393928Y194147D01*
X393944Y194172D01*
X393964Y194194D01*
X394027Y194307D01*
X394095Y194418D01*
X394103Y194446D01*
X394118Y194472D01*
X394150Y194598D01*
X394188Y194722D01*
X394190Y194751D01*
X394197Y194780D01*
X394207Y194941D01*
X394207Y206725D01*
X396063Y211207D01*
X437948Y253091D01*
X438008Y253169D01*
X438076Y253241D01*
X438105Y253294D01*
X438142Y253342D01*
X438182Y253433D01*
X438230Y253520D01*
X438245Y253578D01*
X438269Y253634D01*
X438284Y253732D01*
X438309Y253827D01*
X438313Y253889D01*
X438314Y253891D01*
X438313Y253896D01*
X438315Y253927D01*
X438319Y253948D01*
X438317Y253960D01*
X438319Y253988D01*
X438319Y254012D01*
X438307Y254110D01*
X438304Y254209D01*
X438289Y254259D01*
X438289Y254264D01*
X438287Y254271D01*
X438279Y254327D01*
X438243Y254419D01*
X438215Y254515D01*
X438185Y254567D01*
X438162Y254623D01*
X438104Y254703D01*
X438054Y254789D01*
X437988Y254864D01*
X437976Y254880D01*
X437966Y254888D01*
X437948Y254909D01*
X387921Y304936D01*
X387843Y304996D01*
X387771Y305064D01*
X387718Y305093D01*
X387670Y305130D01*
X387579Y305170D01*
X387492Y305218D01*
X387434Y305233D01*
X387378Y305257D01*
X387280Y305272D01*
X387185Y305297D01*
X387085Y305303D01*
X387064Y305307D01*
X387052Y305305D01*
X387024Y305307D01*
X89679Y305307D01*
X89581Y305295D01*
X89482Y305292D01*
X89423Y305275D01*
X89363Y305267D01*
X89271Y305231D01*
X89176Y305203D01*
X89124Y305173D01*
X89068Y305150D01*
X88988Y305092D01*
X88902Y305042D01*
X88856Y305001D01*
X88854Y305000D01*
X88851Y304997D01*
X88827Y304976D01*
X88810Y304964D01*
X88802Y304954D01*
X88781Y304936D01*
X88764Y304919D01*
X88704Y304840D01*
X88636Y304768D01*
X88611Y304723D01*
X88607Y304719D01*
X88605Y304713D01*
X88570Y304667D01*
X88530Y304576D01*
X88482Y304490D01*
X88467Y304431D01*
X88443Y304376D01*
X88428Y304278D01*
X88403Y304182D01*
X88397Y304082D01*
X88393Y304062D01*
X88395Y304049D01*
X88393Y304021D01*
X88393Y290376D01*
X88405Y290278D01*
X88408Y290179D01*
X88425Y290121D01*
X88433Y290061D01*
X88469Y289969D01*
X88497Y289873D01*
X88527Y289821D01*
X88550Y289765D01*
X88608Y289685D01*
X88658Y289599D01*
X88724Y289524D01*
X88736Y289508D01*
X88746Y289500D01*
X88764Y289479D01*
X147543Y230700D01*
X147621Y230640D01*
X147693Y230572D01*
X147746Y230543D01*
X147794Y230506D01*
X147885Y230466D01*
X147972Y230418D01*
X148030Y230403D01*
X148086Y230379D01*
X148184Y230364D01*
X148279Y230339D01*
X148379Y230333D01*
X148400Y230329D01*
X148412Y230331D01*
X148440Y230329D01*
X152417Y230329D01*
X155405Y229091D01*
X157691Y226805D01*
X158929Y223817D01*
X158929Y208583D01*
X157691Y205595D01*
X156655Y204559D01*
X156570Y204450D01*
X156481Y204343D01*
X156473Y204324D01*
X156460Y204308D01*
X156405Y204181D01*
X156346Y204055D01*
X156342Y204035D01*
X156334Y204016D01*
X156312Y203878D01*
X156286Y203742D01*
X156287Y203722D01*
X156284Y203702D01*
X156297Y203563D01*
X156306Y203425D01*
X156312Y203406D01*
X156314Y203386D01*
X156361Y203254D01*
X156404Y203123D01*
X156415Y203105D01*
X156422Y203086D01*
X156500Y202971D01*
X156574Y202854D01*
X156589Y202840D01*
X156600Y202823D01*
X156704Y202731D01*
X156806Y202636D01*
X156823Y202626D01*
X156839Y202613D01*
X156962Y202550D01*
X157084Y202482D01*
X157104Y202477D01*
X157122Y202468D01*
X157258Y202438D01*
X157392Y202403D01*
X157420Y202401D01*
X157432Y202398D01*
X157453Y202399D01*
X157553Y202393D01*
X193448Y202393D01*
X193457Y202394D01*
X193466Y202393D01*
X193615Y202414D01*
X193764Y202433D01*
X193772Y202436D01*
X193781Y202437D01*
X193934Y202489D01*
X194425Y202693D01*
X199275Y202693D01*
X203757Y200837D01*
X226237Y178357D01*
X228093Y173875D01*
X228093Y143825D01*
X228105Y143727D01*
X228108Y143628D01*
X228125Y143569D01*
X228133Y143509D01*
X228169Y143417D01*
X228197Y143322D01*
X228227Y143270D01*
X228250Y143214D01*
X228308Y143134D01*
X228358Y143048D01*
X228424Y142973D01*
X228436Y142956D01*
X228446Y142949D01*
X228464Y142927D01*
X228775Y142617D01*
X228811Y142554D01*
X228876Y142432D01*
X228889Y142417D01*
X228899Y142399D01*
X228996Y142299D01*
X229089Y142196D01*
X229106Y142185D01*
X229120Y142171D01*
X229239Y142098D01*
X229355Y142022D01*
X229374Y142015D01*
X229391Y142004D01*
X229525Y141963D01*
X229656Y141918D01*
X229676Y141917D01*
X229695Y141911D01*
X229834Y141904D01*
X229973Y141893D01*
X229993Y141897D01*
X230013Y141896D01*
X230149Y141924D01*
X230286Y141948D01*
X230305Y141956D01*
X230325Y141960D01*
X230450Y142021D01*
X230576Y142078D01*
X230592Y142091D01*
X230610Y142100D01*
X230716Y142190D01*
X230825Y142277D01*
X230837Y142293D01*
X230852Y142306D01*
X230932Y142420D01*
X231016Y142531D01*
X231028Y142556D01*
X231035Y142566D01*
X231043Y142585D01*
X231087Y142675D01*
X232259Y145505D01*
X234545Y147791D01*
X237533Y149029D01*
X257767Y149029D01*
X260022Y148095D01*
X260117Y148069D01*
X260210Y148033D01*
X260270Y148027D01*
X260329Y148011D01*
X260428Y148009D01*
X260526Y147998D01*
X260586Y148007D01*
X260647Y148006D01*
X260743Y148029D01*
X260841Y148043D01*
X260936Y148075D01*
X260956Y148080D01*
X260967Y148086D01*
X260993Y148095D01*
X263683Y149209D01*
X269717Y149209D01*
X275292Y146899D01*
X279559Y142632D01*
X281869Y137057D01*
X281869Y129600D01*
X281881Y129502D01*
X281884Y129403D01*
X281901Y129345D01*
X281909Y129285D01*
X281945Y129193D01*
X281973Y129097D01*
X282003Y129045D01*
X282026Y128989D01*
X282084Y128909D01*
X282134Y128823D01*
X282200Y128748D01*
X282212Y128732D01*
X282222Y128724D01*
X282240Y128703D01*
X296779Y114164D01*
X296857Y114104D01*
X296929Y114036D01*
X296982Y114007D01*
X297030Y113970D01*
X297121Y113930D01*
X297208Y113882D01*
X297266Y113867D01*
X297322Y113843D01*
X297420Y113828D01*
X297515Y113803D01*
X297615Y113797D01*
X297636Y113793D01*
X297648Y113795D01*
X297676Y113793D01*
X442621Y113793D01*
X442719Y113805D01*
X442818Y113808D01*
X442877Y113825D01*
X442937Y113833D01*
X443029Y113869D01*
X443124Y113897D01*
X443176Y113927D01*
X443232Y113950D01*
X443312Y114008D01*
X443398Y114058D01*
X443473Y114124D01*
X443490Y114136D01*
X443498Y114146D01*
X443519Y114164D01*
X448735Y119381D01*
X463465Y119381D01*
X473881Y108965D01*
X473881Y94235D01*
X463465Y83819D01*
X448735Y83819D01*
X443519Y89036D01*
X443440Y89096D01*
X443368Y89164D01*
X443315Y89193D01*
X443267Y89230D01*
X443176Y89270D01*
X443090Y89318D01*
X443031Y89333D01*
X442976Y89357D01*
X442878Y89372D01*
X442782Y89397D01*
X442682Y89403D01*
X442662Y89407D01*
X442649Y89405D01*
X442621Y89407D01*
X304807Y89407D01*
X304738Y89399D01*
X304668Y89400D01*
X304580Y89379D01*
X304491Y89367D01*
X304426Y89342D01*
X304359Y89325D01*
X304279Y89283D01*
X304196Y89250D01*
X304139Y89209D01*
X304077Y89177D01*
X304011Y89116D01*
X303938Y89064D01*
X303894Y89010D01*
X303842Y88963D01*
X303793Y88888D01*
X303736Y88819D01*
X303706Y88755D01*
X303667Y88697D01*
X303638Y88612D01*
X303600Y88531D01*
X303587Y88462D01*
X303564Y88396D01*
X303557Y88307D01*
X303540Y88219D01*
X303545Y88149D01*
X303539Y88079D01*
X303554Y87991D01*
X303560Y87901D01*
X303581Y87835D01*
X303593Y87766D01*
X303630Y87684D01*
X303658Y87599D01*
X303695Y87540D01*
X303724Y87476D01*
X303780Y87406D01*
X303828Y87330D01*
X303879Y87282D01*
X303923Y87228D01*
X303994Y87173D01*
X304060Y87112D01*
X304121Y87078D01*
X304177Y87036D01*
X304321Y86965D01*
X305357Y86536D01*
X328529Y63364D01*
X328607Y63304D01*
X328679Y63236D01*
X328732Y63207D01*
X328780Y63170D01*
X328871Y63130D01*
X328958Y63082D01*
X329016Y63067D01*
X329072Y63043D01*
X329170Y63028D01*
X329265Y63003D01*
X329365Y62997D01*
X329386Y62993D01*
X329398Y62995D01*
X329426Y62993D01*
X496835Y62993D01*
X496934Y63005D01*
X497032Y63008D01*
X497091Y63025D01*
X497151Y63033D01*
X497243Y63069D01*
X497338Y63097D01*
X497390Y63127D01*
X497446Y63150D01*
X497526Y63208D01*
X497612Y63258D01*
X497687Y63324D01*
X497704Y63336D01*
X497712Y63346D01*
X497733Y63365D01*
X498028Y63659D01*
X503603Y65969D01*
X523717Y65969D01*
X529292Y63659D01*
X533559Y59392D01*
X535869Y53817D01*
X535869Y47783D01*
X533559Y42208D01*
X530349Y38998D01*
X530276Y38903D01*
X530198Y38814D01*
X530179Y38778D01*
X530154Y38746D01*
X530107Y38637D01*
X530053Y38531D01*
X530044Y38492D01*
X530028Y38454D01*
X530009Y38337D01*
X529983Y38221D01*
X529985Y38180D01*
X529978Y38140D01*
X529989Y38022D01*
X529993Y37903D01*
X530004Y37864D01*
X530008Y37824D01*
X530048Y37711D01*
X530081Y37597D01*
X530102Y37563D01*
X530116Y37524D01*
X530182Y37426D01*
X530243Y37323D01*
X530282Y37279D01*
X530284Y37276D01*
X530285Y37275D01*
X530294Y37261D01*
X530309Y37248D01*
X530349Y37203D01*
X533559Y33992D01*
X535869Y28417D01*
X535869Y22383D01*
X533559Y16808D01*
X529238Y12486D01*
X529166Y12445D01*
X529116Y12397D01*
X529059Y12356D01*
X529002Y12287D01*
X528938Y12224D01*
X528901Y12164D01*
X528856Y12111D01*
X528818Y12030D01*
X528771Y11953D01*
X528751Y11886D01*
X528721Y11823D01*
X528704Y11735D01*
X528678Y11649D01*
X528674Y11579D01*
X528661Y11510D01*
X528667Y11421D01*
X528662Y11332D01*
X528677Y11263D01*
X528681Y11193D01*
X528708Y11108D01*
X528727Y11020D01*
X528757Y10957D01*
X528779Y10891D01*
X528827Y10815D01*
X528866Y10734D01*
X528912Y10681D01*
X528949Y10622D01*
X529014Y10560D01*
X529072Y10492D01*
X529130Y10452D01*
X529181Y10404D01*
X529259Y10361D01*
X529332Y10309D01*
X529398Y10284D01*
X529459Y10250D01*
X529546Y10228D01*
X529630Y10196D01*
X529699Y10188D01*
X529767Y10171D01*
X529928Y10161D01*
X587672Y10161D01*
X587742Y10170D01*
G37*
G36*
X186421Y26425D02*
X186421Y26425D01*
X186491Y26424D01*
X186578Y26445D01*
X186667Y26457D01*
X186732Y26482D01*
X186800Y26499D01*
X186879Y26541D01*
X186963Y26574D01*
X187019Y26615D01*
X187081Y26647D01*
X187148Y26708D01*
X187220Y26760D01*
X187265Y26814D01*
X187316Y26861D01*
X187366Y26936D01*
X187423Y27005D01*
X187453Y27069D01*
X187491Y27127D01*
X187520Y27212D01*
X187559Y27293D01*
X187572Y27362D01*
X187594Y27428D01*
X187601Y27517D01*
X187618Y27605D01*
X187614Y27675D01*
X187620Y27745D01*
X187604Y27833D01*
X187599Y27923D01*
X187577Y27989D01*
X187565Y28058D01*
X187528Y28140D01*
X187501Y28225D01*
X187463Y28284D01*
X187435Y28348D01*
X187379Y28418D01*
X187330Y28494D01*
X187280Y28542D01*
X187236Y28596D01*
X187164Y28651D01*
X187099Y28712D01*
X187038Y28746D01*
X186982Y28788D01*
X186837Y28859D01*
X181908Y30901D01*
X177641Y35168D01*
X175331Y40743D01*
X175331Y60857D01*
X177641Y66432D01*
X177829Y66621D01*
X177847Y66644D01*
X177870Y66663D01*
X177944Y66769D01*
X178024Y66872D01*
X178036Y66899D01*
X178053Y66923D01*
X178099Y67045D01*
X178150Y67164D01*
X178155Y67193D01*
X178165Y67221D01*
X178180Y67350D01*
X178200Y67478D01*
X178197Y67507D01*
X178201Y67537D01*
X178182Y67665D01*
X178170Y67795D01*
X178160Y67822D01*
X178156Y67852D01*
X178104Y68004D01*
X178071Y68083D01*
X178071Y84317D01*
X179309Y87305D01*
X181595Y89591D01*
X184583Y90829D01*
X192714Y90829D01*
X192851Y90846D01*
X192990Y90859D01*
X193009Y90866D01*
X193029Y90869D01*
X193158Y90920D01*
X193290Y90967D01*
X193306Y90978D01*
X193325Y90986D01*
X193437Y91067D01*
X193553Y91145D01*
X193566Y91161D01*
X193582Y91172D01*
X193671Y91280D01*
X193763Y91384D01*
X193772Y91402D01*
X193785Y91417D01*
X193845Y91543D01*
X193908Y91667D01*
X193912Y91687D01*
X193921Y91705D01*
X193947Y91841D01*
X193977Y91977D01*
X193977Y91998D01*
X193981Y92017D01*
X193972Y92156D01*
X193968Y92295D01*
X193962Y92315D01*
X193961Y92335D01*
X193918Y92467D01*
X193879Y92601D01*
X193869Y92618D01*
X193863Y92637D01*
X193788Y92755D01*
X193718Y92875D01*
X193699Y92896D01*
X193693Y92906D01*
X193678Y92920D01*
X193611Y92995D01*
X180163Y106443D01*
X178562Y110309D01*
X178558Y110317D01*
X178555Y110326D01*
X178479Y110456D01*
X178405Y110586D01*
X178398Y110592D01*
X178393Y110600D01*
X178287Y110721D01*
X177641Y111368D01*
X175331Y116943D01*
X175331Y137057D01*
X177641Y142632D01*
X177936Y142927D01*
X177996Y143006D01*
X178064Y143078D01*
X178093Y143131D01*
X178130Y143179D01*
X178170Y143270D01*
X178218Y143356D01*
X178233Y143415D01*
X178257Y143470D01*
X178272Y143568D01*
X178297Y143664D01*
X178303Y143764D01*
X178307Y143785D01*
X178305Y143797D01*
X178307Y143825D01*
X178307Y165574D01*
X178295Y165672D01*
X178292Y165771D01*
X178275Y165829D01*
X178267Y165889D01*
X178231Y165981D01*
X178203Y166077D01*
X178173Y166129D01*
X178150Y166185D01*
X178092Y166265D01*
X178042Y166351D01*
X177976Y166426D01*
X177964Y166442D01*
X177954Y166450D01*
X177936Y166471D01*
X166771Y177636D01*
X166693Y177696D01*
X166621Y177764D01*
X166568Y177793D01*
X166520Y177830D01*
X166429Y177870D01*
X166342Y177918D01*
X166284Y177933D01*
X166228Y177957D01*
X166130Y177972D01*
X166035Y177997D01*
X165935Y178003D01*
X165914Y178007D01*
X165902Y178005D01*
X165874Y178007D01*
X156629Y178007D01*
X156531Y177995D01*
X156432Y177992D01*
X156373Y177975D01*
X156313Y177967D01*
X156221Y177931D01*
X156126Y177903D01*
X156074Y177873D01*
X156018Y177850D01*
X155938Y177792D01*
X155852Y177742D01*
X155777Y177676D01*
X155760Y177664D01*
X155752Y177654D01*
X155731Y177636D01*
X155405Y177309D01*
X152417Y176071D01*
X137183Y176071D01*
X134195Y177309D01*
X133869Y177635D01*
X133790Y177696D01*
X133718Y177764D01*
X133665Y177793D01*
X133617Y177830D01*
X133527Y177870D01*
X133440Y177918D01*
X133381Y177933D01*
X133326Y177957D01*
X133228Y177972D01*
X133132Y177997D01*
X133032Y178003D01*
X133012Y178007D01*
X132999Y178005D01*
X132971Y178007D01*
X112175Y178007D01*
X107693Y179863D01*
X103259Y184297D01*
X103150Y184383D01*
X103043Y184471D01*
X103024Y184480D01*
X103008Y184492D01*
X102880Y184548D01*
X102755Y184607D01*
X102735Y184611D01*
X102716Y184619D01*
X102578Y184641D01*
X102442Y184667D01*
X102422Y184665D01*
X102402Y184669D01*
X102263Y184655D01*
X102125Y184647D01*
X102106Y184641D01*
X102086Y184639D01*
X101954Y184592D01*
X101823Y184549D01*
X101805Y184538D01*
X101786Y184531D01*
X101671Y184453D01*
X101554Y184379D01*
X101540Y184364D01*
X101523Y184353D01*
X101431Y184248D01*
X101336Y184147D01*
X101326Y184129D01*
X101313Y184114D01*
X101249Y183990D01*
X101182Y183869D01*
X101177Y183849D01*
X101168Y183831D01*
X101138Y183695D01*
X101103Y183561D01*
X101101Y183533D01*
X101098Y183521D01*
X101099Y183500D01*
X101093Y183400D01*
X101093Y153770D01*
X101105Y153671D01*
X101108Y153572D01*
X101125Y153514D01*
X101133Y153454D01*
X101169Y153362D01*
X101197Y153267D01*
X101227Y153215D01*
X101250Y153158D01*
X101308Y153078D01*
X101358Y152993D01*
X101424Y152917D01*
X101436Y152901D01*
X101446Y152893D01*
X101464Y152872D01*
X116079Y138258D01*
X116079Y115742D01*
X100158Y99821D01*
X77642Y99821D01*
X65159Y112304D01*
X65050Y112389D01*
X64943Y112478D01*
X64924Y112487D01*
X64908Y112499D01*
X64780Y112554D01*
X64655Y112613D01*
X64635Y112617D01*
X64616Y112625D01*
X64478Y112647D01*
X64342Y112673D01*
X64322Y112672D01*
X64302Y112675D01*
X64163Y112662D01*
X64025Y112653D01*
X64006Y112647D01*
X63986Y112645D01*
X63854Y112598D01*
X63723Y112555D01*
X63705Y112545D01*
X63686Y112538D01*
X63571Y112460D01*
X63454Y112385D01*
X63440Y112370D01*
X63423Y112359D01*
X63331Y112255D01*
X63236Y112154D01*
X63226Y112136D01*
X63213Y112121D01*
X63149Y111997D01*
X63082Y111875D01*
X63077Y111856D01*
X63068Y111837D01*
X63038Y111702D01*
X63003Y111567D01*
X63001Y111539D01*
X62998Y111527D01*
X62999Y111507D01*
X62993Y111407D01*
X62993Y94476D01*
X63005Y94378D01*
X63008Y94279D01*
X63025Y94221D01*
X63033Y94161D01*
X63069Y94069D01*
X63097Y93973D01*
X63127Y93921D01*
X63150Y93865D01*
X63208Y93785D01*
X63258Y93699D01*
X63324Y93624D01*
X63336Y93608D01*
X63346Y93600D01*
X63364Y93579D01*
X78593Y78350D01*
X78671Y78290D01*
X78743Y78222D01*
X78796Y78193D01*
X78844Y78156D01*
X78935Y78116D01*
X79022Y78068D01*
X79080Y78053D01*
X79136Y78029D01*
X79234Y78014D01*
X79329Y77989D01*
X79429Y77983D01*
X79450Y77979D01*
X79462Y77981D01*
X79490Y77979D01*
X100158Y77979D01*
X116079Y62058D01*
X116079Y39542D01*
X105120Y28583D01*
X105035Y28474D01*
X104946Y28367D01*
X104937Y28348D01*
X104925Y28332D01*
X104869Y28204D01*
X104811Y28079D01*
X104807Y28059D01*
X104799Y28040D01*
X104777Y27902D01*
X104751Y27766D01*
X104752Y27746D01*
X104749Y27726D01*
X104762Y27587D01*
X104771Y27449D01*
X104777Y27430D01*
X104779Y27410D01*
X104826Y27278D01*
X104869Y27147D01*
X104879Y27129D01*
X104886Y27110D01*
X104964Y26995D01*
X105039Y26878D01*
X105054Y26864D01*
X105065Y26847D01*
X105169Y26755D01*
X105270Y26660D01*
X105288Y26650D01*
X105303Y26637D01*
X105427Y26573D01*
X105549Y26506D01*
X105568Y26501D01*
X105587Y26492D01*
X105722Y26462D01*
X105857Y26427D01*
X105885Y26425D01*
X105897Y26422D01*
X105917Y26423D01*
X106017Y26417D01*
X186352Y26417D01*
X186421Y26425D01*
G37*
%LPC*%
G36*
X752294Y315717D02*
X752294Y315717D01*
X752272Y315716D01*
X752191Y315721D01*
X740513Y315721D01*
X736872Y317229D01*
X736688Y317413D01*
X736629Y317459D01*
X736577Y317512D01*
X736504Y317556D01*
X736437Y317608D01*
X736368Y317638D01*
X736305Y317676D01*
X736223Y317701D01*
X736145Y317734D01*
X736071Y317746D01*
X736000Y317767D01*
X735915Y317771D01*
X735831Y317784D01*
X735757Y317777D01*
X735682Y317780D01*
X735599Y317762D01*
X735514Y317754D01*
X735444Y317729D01*
X735371Y317714D01*
X735223Y317651D01*
X734716Y317397D01*
X734650Y317353D01*
X734580Y317318D01*
X734452Y317221D01*
X734027Y316853D01*
X732911Y316481D01*
X732903Y316477D01*
X732893Y316475D01*
X732745Y316412D01*
X731693Y315886D01*
X731133Y315846D01*
X731056Y315831D01*
X730977Y315825D01*
X730821Y315784D01*
X730288Y315607D01*
X729115Y315690D01*
X729106Y315689D01*
X729096Y315691D01*
X728935Y315690D01*
X727762Y315607D01*
X727229Y315784D01*
X727152Y315800D01*
X727077Y315824D01*
X726918Y315846D01*
X726357Y315886D01*
X725305Y316412D01*
X725296Y316415D01*
X725288Y316420D01*
X725139Y316481D01*
X724023Y316853D01*
X723599Y317221D01*
X723533Y317265D01*
X723474Y317316D01*
X723335Y317397D01*
X723334Y317397D01*
X723334Y317398D01*
X722832Y317648D01*
X722061Y318537D01*
X722054Y318543D01*
X722049Y318551D01*
X721934Y318664D01*
X721046Y319435D01*
X720794Y319937D01*
X720751Y320003D01*
X720716Y320073D01*
X720618Y320201D01*
X720250Y320626D01*
X719878Y321742D01*
X719874Y321750D01*
X719872Y321760D01*
X719809Y321908D01*
X719283Y322960D01*
X719243Y323520D01*
X719228Y323598D01*
X719222Y323676D01*
X719181Y323832D01*
X717380Y329237D01*
X717323Y329354D01*
X717273Y329474D01*
X717255Y329497D01*
X717242Y329523D01*
X717159Y329623D01*
X717080Y329726D01*
X717056Y329744D01*
X717038Y329767D01*
X716932Y329842D01*
X716830Y329923D01*
X716803Y329935D01*
X716779Y329952D01*
X716658Y329999D01*
X716539Y330052D01*
X716510Y330056D01*
X716482Y330067D01*
X716353Y330082D01*
X716225Y330104D01*
X716196Y330101D01*
X716167Y330105D01*
X716038Y330087D01*
X715908Y330076D01*
X715881Y330066D01*
X715851Y330063D01*
X715731Y330014D01*
X715608Y329971D01*
X715584Y329954D01*
X715556Y329943D01*
X715452Y329866D01*
X715344Y329794D01*
X715324Y329772D01*
X715300Y329755D01*
X715218Y329654D01*
X715132Y329557D01*
X715118Y329531D01*
X715099Y329508D01*
X715045Y329390D01*
X714985Y329275D01*
X714973Y329235D01*
X714966Y329220D01*
X714962Y329198D01*
X714939Y329121D01*
X714307Y326384D01*
X713363Y324447D01*
X713362Y324443D01*
X713303Y324302D01*
X712597Y322244D01*
X708716Y318025D01*
X703466Y315721D01*
X697733Y315721D01*
X694523Y317130D01*
X694416Y317162D01*
X694311Y317202D01*
X694263Y317207D01*
X694218Y317220D01*
X694106Y317224D01*
X693995Y317237D01*
X693948Y317230D01*
X693900Y317232D01*
X693791Y317208D01*
X693680Y317192D01*
X693611Y317169D01*
X693590Y317164D01*
X693573Y317156D01*
X693527Y317140D01*
X690102Y315721D01*
X685144Y315721D01*
X683906Y316234D01*
X683811Y316260D01*
X683718Y316295D01*
X683658Y316302D01*
X683600Y316318D01*
X683501Y316320D01*
X683402Y316331D01*
X683342Y316322D01*
X683282Y316323D01*
X683185Y316300D01*
X683087Y316286D01*
X682992Y316254D01*
X682972Y316249D01*
X682961Y316243D01*
X682935Y316234D01*
X681697Y315721D01*
X681483Y315721D01*
X681366Y315707D01*
X681249Y315700D01*
X681188Y315684D01*
X681167Y315681D01*
X681149Y315674D01*
X681093Y315660D01*
X680890Y315594D01*
X679376Y315717D01*
X679355Y315716D01*
X679274Y315721D01*
X667595Y315721D01*
X665863Y316439D01*
X665767Y316465D01*
X665675Y316500D01*
X665614Y316507D01*
X665556Y316523D01*
X665457Y316525D01*
X665358Y316536D01*
X665299Y316527D01*
X665238Y316528D01*
X665142Y316505D01*
X665044Y316491D01*
X664949Y316459D01*
X664929Y316454D01*
X664918Y316448D01*
X664891Y316439D01*
X663158Y315721D01*
X652313Y315721D01*
X649611Y316840D01*
X649559Y316855D01*
X649510Y316877D01*
X649406Y316896D01*
X649305Y316924D01*
X649251Y316925D01*
X649197Y316935D01*
X649092Y316928D01*
X648987Y316929D01*
X648934Y316917D01*
X648880Y316913D01*
X648724Y316872D01*
X644929Y315607D01*
X640998Y315886D01*
X638137Y317316D01*
X638109Y317326D01*
X638083Y317341D01*
X637960Y317379D01*
X637837Y317422D01*
X637807Y317424D01*
X637779Y317433D01*
X637649Y317438D01*
X637520Y317449D01*
X637491Y317444D01*
X637461Y317446D01*
X637334Y317418D01*
X637207Y317397D01*
X637179Y317385D01*
X637150Y317379D01*
X637002Y317316D01*
X634141Y315886D01*
X630210Y315607D01*
X626471Y316853D01*
X623494Y319435D01*
X621731Y322960D01*
X621452Y326891D01*
X623026Y331612D01*
X623050Y331734D01*
X623081Y331853D01*
X623084Y331905D01*
X623088Y331924D01*
X623086Y331945D01*
X623091Y332014D01*
X623091Y332171D01*
X623693Y333625D01*
X623699Y333645D01*
X623725Y333709D01*
X627726Y345712D01*
X627741Y345789D01*
X627766Y345864D01*
X627788Y346024D01*
X627827Y346584D01*
X628353Y347636D01*
X628357Y347645D01*
X628362Y347653D01*
X628422Y347802D01*
X628794Y348918D01*
X629162Y349343D01*
X629206Y349408D01*
X629258Y349467D01*
X629339Y349607D01*
X629590Y350109D01*
X630479Y350880D01*
X630485Y350887D01*
X630493Y350892D01*
X630606Y351007D01*
X631376Y351896D01*
X631879Y352147D01*
X631944Y352191D01*
X632015Y352226D01*
X632143Y352323D01*
X632567Y352691D01*
X633683Y353063D01*
X633692Y353067D01*
X633701Y353069D01*
X633850Y353132D01*
X634902Y353658D01*
X635462Y353698D01*
X635539Y353713D01*
X635618Y353719D01*
X635773Y353760D01*
X635774Y353760D01*
X636306Y353937D01*
X637479Y353854D01*
X637489Y353855D01*
X637498Y353853D01*
X637659Y353854D01*
X638833Y353937D01*
X639366Y353760D01*
X639443Y353745D01*
X639518Y353719D01*
X639677Y353698D01*
X640237Y353658D01*
X641289Y353132D01*
X641298Y353129D01*
X641306Y353124D01*
X641456Y353063D01*
X642572Y352691D01*
X642996Y352323D01*
X643062Y352279D01*
X643121Y352228D01*
X643260Y352147D01*
X643767Y351893D01*
X643838Y351868D01*
X643904Y351835D01*
X643987Y351816D01*
X644067Y351788D01*
X644142Y351781D01*
X644214Y351765D01*
X644299Y351767D01*
X644384Y351760D01*
X644458Y351772D01*
X644532Y351775D01*
X644614Y351798D01*
X644698Y351812D01*
X644766Y351842D01*
X644838Y351863D01*
X644911Y351906D01*
X644989Y351941D01*
X645047Y351987D01*
X645112Y352024D01*
X645232Y352131D01*
X645416Y352315D01*
X649057Y353823D01*
X663158Y353823D01*
X666723Y352346D01*
X666818Y352320D01*
X666911Y352285D01*
X666971Y352278D01*
X667029Y352262D01*
X667128Y352261D01*
X667227Y352250D01*
X667287Y352258D01*
X667347Y352257D01*
X667444Y352281D01*
X667542Y352294D01*
X667636Y352327D01*
X667657Y352332D01*
X667667Y352337D01*
X667694Y352346D01*
X671258Y353823D01*
X677495Y353823D01*
X683627Y351090D01*
X686877Y347477D01*
X686892Y347464D01*
X686904Y347448D01*
X687012Y347360D01*
X687117Y347269D01*
X687135Y347260D01*
X687151Y347247D01*
X687277Y347189D01*
X687402Y347127D01*
X687421Y347123D01*
X687440Y347115D01*
X687577Y347090D01*
X687713Y347061D01*
X687733Y347062D01*
X687752Y347058D01*
X687892Y347068D01*
X688031Y347074D01*
X688050Y347079D01*
X688070Y347081D01*
X688202Y347125D01*
X688335Y347165D01*
X688352Y347176D01*
X688371Y347182D01*
X688488Y347257D01*
X688608Y347330D01*
X688622Y347344D01*
X688638Y347355D01*
X688755Y347466D01*
X692484Y351519D01*
X697733Y353823D01*
X703466Y353823D01*
X708716Y351519D01*
X711965Y347987D01*
X711989Y347967D01*
X712008Y347943D01*
X712110Y347865D01*
X712208Y347782D01*
X712236Y347769D01*
X712261Y347750D01*
X712379Y347700D01*
X712495Y347644D01*
X712525Y347638D01*
X712554Y347625D01*
X712680Y347606D01*
X712806Y347581D01*
X712837Y347582D01*
X712868Y347578D01*
X712996Y347591D01*
X713124Y347597D01*
X713154Y347607D01*
X713185Y347610D01*
X713305Y347654D01*
X713427Y347692D01*
X713454Y347709D01*
X713483Y347720D01*
X713589Y347793D01*
X713698Y347860D01*
X713719Y347882D01*
X713745Y347900D01*
X713829Y347997D01*
X713918Y348089D01*
X713933Y348116D01*
X713954Y348140D01*
X714035Y348279D01*
X714950Y350109D01*
X717927Y352691D01*
X721666Y353937D01*
X725597Y353658D01*
X728458Y352228D01*
X728486Y352218D01*
X728511Y352203D01*
X728635Y352165D01*
X728758Y352122D01*
X728787Y352120D01*
X728816Y352111D01*
X728946Y352106D01*
X729074Y352095D01*
X729104Y352100D01*
X729134Y352098D01*
X729260Y352126D01*
X729388Y352147D01*
X729415Y352159D01*
X729445Y352165D01*
X729593Y352228D01*
X732453Y353658D01*
X736384Y353937D01*
X740231Y352655D01*
X740357Y352611D01*
X740492Y352560D01*
X740507Y352558D01*
X740522Y352553D01*
X740664Y352541D01*
X740808Y352525D01*
X740823Y352527D01*
X740838Y352526D01*
X740980Y352549D01*
X741123Y352569D01*
X741143Y352576D01*
X741152Y352578D01*
X741169Y352585D01*
X741275Y352621D01*
X744175Y353823D01*
X750412Y353823D01*
X756545Y351090D01*
X756925Y350667D01*
X756974Y350625D01*
X757015Y350577D01*
X757093Y350522D01*
X757166Y350459D01*
X757223Y350430D01*
X757275Y350394D01*
X757365Y350360D01*
X757451Y350317D01*
X757513Y350304D01*
X757573Y350281D01*
X757668Y350271D01*
X757762Y350251D01*
X757825Y350253D01*
X757889Y350246D01*
X757984Y350260D01*
X758079Y350264D01*
X758141Y350282D01*
X758204Y350291D01*
X758292Y350328D01*
X758384Y350355D01*
X758439Y350388D01*
X758498Y350413D01*
X758574Y350470D01*
X758656Y350520D01*
X758701Y350565D01*
X758752Y350604D01*
X758860Y350723D01*
X759597Y351643D01*
X759933Y351829D01*
X760013Y351886D01*
X760098Y351937D01*
X760174Y352004D01*
X760190Y352016D01*
X760198Y352025D01*
X760219Y352043D01*
X760490Y352315D01*
X761739Y352832D01*
X761751Y352839D01*
X761865Y352893D01*
X762088Y353015D01*
X763049Y353545D01*
X763431Y353587D01*
X763527Y353610D01*
X763624Y353624D01*
X763720Y353657D01*
X763740Y353661D01*
X763751Y353667D01*
X763776Y353676D01*
X764131Y353823D01*
X765483Y353823D01*
X765497Y353825D01*
X765623Y353830D01*
X766966Y353980D01*
X767335Y353873D01*
X767432Y353858D01*
X767528Y353833D01*
X767629Y353827D01*
X767649Y353823D01*
X767661Y353824D01*
X767688Y353823D01*
X768072Y353823D01*
X769321Y353305D01*
X769335Y353302D01*
X769454Y353259D01*
X770752Y352883D01*
X771051Y352643D01*
X771135Y352592D01*
X771214Y352532D01*
X771305Y352488D01*
X771323Y352477D01*
X771334Y352473D01*
X771359Y352461D01*
X771714Y352315D01*
X772669Y351359D01*
X772681Y351350D01*
X772774Y351265D01*
X778287Y346854D01*
X778329Y346829D01*
X778366Y346796D01*
X778464Y346746D01*
X778559Y346688D01*
X778606Y346674D01*
X778649Y346652D01*
X778757Y346627D01*
X778863Y346595D01*
X778912Y346593D01*
X778960Y346582D01*
X779070Y346585D01*
X779180Y346580D01*
X779229Y346590D01*
X779278Y346592D01*
X779383Y346622D01*
X779492Y346645D01*
X779536Y346666D01*
X779583Y346680D01*
X779678Y346736D01*
X779777Y346785D01*
X779815Y346817D01*
X779857Y346842D01*
X779978Y346948D01*
X780264Y347235D01*
X783905Y348743D01*
X787847Y348743D01*
X791488Y347235D01*
X794275Y344448D01*
X795043Y342593D01*
X795092Y342507D01*
X795132Y342417D01*
X795170Y342370D01*
X795200Y342317D01*
X795269Y342246D01*
X795331Y342169D01*
X795379Y342132D01*
X795421Y342089D01*
X795506Y342037D01*
X795585Y341977D01*
X795675Y341933D01*
X795693Y341923D01*
X795704Y341919D01*
X795729Y341907D01*
X797584Y341139D01*
X800371Y338352D01*
X801879Y334711D01*
X801879Y330769D01*
X800371Y327128D01*
X797584Y324341D01*
X795729Y323573D01*
X795647Y323526D01*
X795602Y323509D01*
X795592Y323501D01*
X795553Y323484D01*
X795506Y323446D01*
X795453Y323416D01*
X795390Y323355D01*
X795345Y323322D01*
X795333Y323308D01*
X795305Y323285D01*
X795268Y323237D01*
X795225Y323195D01*
X795183Y323126D01*
X795142Y323077D01*
X795132Y323056D01*
X795113Y323031D01*
X795069Y322941D01*
X795059Y322923D01*
X795055Y322912D01*
X795043Y322887D01*
X794275Y321032D01*
X791488Y318245D01*
X787847Y316737D01*
X783905Y316737D01*
X780264Y318245D01*
X779934Y318575D01*
X779840Y318648D01*
X779751Y318727D01*
X779715Y318746D01*
X779683Y318770D01*
X779574Y318818D01*
X779468Y318872D01*
X779428Y318881D01*
X779391Y318897D01*
X779273Y318915D01*
X779158Y318941D01*
X779117Y318940D01*
X779077Y318947D01*
X778959Y318935D01*
X778840Y318932D01*
X778801Y318920D01*
X778761Y318917D01*
X778649Y318876D01*
X778534Y318843D01*
X778499Y318823D01*
X778461Y318809D01*
X778363Y318742D01*
X778260Y318682D01*
X778215Y318642D01*
X778198Y318631D01*
X778185Y318615D01*
X778139Y318575D01*
X776793Y317229D01*
X773152Y315721D01*
X759051Y315721D01*
X757360Y316422D01*
X757313Y316435D01*
X757270Y316455D01*
X757160Y316476D01*
X757053Y316506D01*
X757005Y316507D01*
X756958Y316516D01*
X756846Y316509D01*
X756735Y316511D01*
X756688Y316500D01*
X756641Y316497D01*
X756484Y316457D01*
X756113Y316338D01*
X756093Y316328D01*
X756017Y316302D01*
X754614Y315721D01*
X754400Y315721D01*
X754284Y315707D01*
X754167Y315700D01*
X754105Y315684D01*
X754084Y315681D01*
X754066Y315674D01*
X754011Y315660D01*
X753807Y315594D01*
X752294Y315717D01*
G37*
%LPD*%
G36*
X490300Y26432D02*
X490300Y26432D01*
X490419Y26439D01*
X490457Y26452D01*
X490498Y26457D01*
X490608Y26500D01*
X490721Y26537D01*
X490756Y26559D01*
X490793Y26574D01*
X490889Y26643D01*
X490990Y26707D01*
X491018Y26737D01*
X491051Y26760D01*
X491127Y26852D01*
X491208Y26939D01*
X491228Y26974D01*
X491253Y27005D01*
X491304Y27113D01*
X491362Y27217D01*
X491372Y27257D01*
X491389Y27293D01*
X491411Y27410D01*
X491441Y27525D01*
X491445Y27585D01*
X491449Y27605D01*
X491447Y27626D01*
X491451Y27686D01*
X491451Y28417D01*
X493761Y33992D01*
X496209Y36441D01*
X496294Y36550D01*
X496383Y36657D01*
X496391Y36676D01*
X496404Y36692D01*
X496459Y36820D01*
X496518Y36945D01*
X496522Y36965D01*
X496530Y36984D01*
X496552Y37122D01*
X496578Y37258D01*
X496577Y37278D01*
X496580Y37298D01*
X496567Y37437D01*
X496558Y37575D01*
X496552Y37594D01*
X496550Y37614D01*
X496503Y37746D01*
X496460Y37877D01*
X496449Y37895D01*
X496442Y37914D01*
X496364Y38029D01*
X496290Y38146D01*
X496275Y38160D01*
X496264Y38177D01*
X496160Y38269D01*
X496058Y38364D01*
X496041Y38374D01*
X496025Y38387D01*
X495901Y38451D01*
X495780Y38518D01*
X495760Y38523D01*
X495742Y38532D01*
X495606Y38562D01*
X495472Y38597D01*
X495444Y38599D01*
X495432Y38602D01*
X495411Y38601D01*
X495311Y38607D01*
X321425Y38607D01*
X316943Y40463D01*
X293771Y63636D01*
X293693Y63696D01*
X293621Y63764D01*
X293568Y63793D01*
X293520Y63830D01*
X293429Y63870D01*
X293342Y63918D01*
X293284Y63933D01*
X293228Y63957D01*
X293130Y63972D01*
X293035Y63997D01*
X292935Y64003D01*
X292914Y64007D01*
X292902Y64005D01*
X292874Y64007D01*
X282464Y64007D01*
X282414Y64001D01*
X282365Y64003D01*
X282257Y63981D01*
X282148Y63967D01*
X282102Y63949D01*
X282053Y63939D01*
X281954Y63891D01*
X281852Y63850D01*
X281812Y63821D01*
X281767Y63799D01*
X281684Y63728D01*
X281595Y63664D01*
X281563Y63625D01*
X281525Y63593D01*
X281462Y63503D01*
X281392Y63419D01*
X281371Y63374D01*
X281342Y63333D01*
X281303Y63230D01*
X281257Y63131D01*
X281247Y63082D01*
X281230Y63036D01*
X281217Y62926D01*
X281197Y62819D01*
X281200Y62769D01*
X281194Y62720D01*
X281210Y62611D01*
X281217Y62501D01*
X281232Y62454D01*
X281239Y62405D01*
X281291Y62252D01*
X281869Y60857D01*
X281869Y40743D01*
X279559Y35168D01*
X279265Y34873D01*
X279204Y34794D01*
X279136Y34722D01*
X279107Y34669D01*
X279070Y34621D01*
X279030Y34530D01*
X278982Y34444D01*
X278967Y34385D01*
X278943Y34330D01*
X278928Y34232D01*
X278903Y34136D01*
X278897Y34036D01*
X278893Y34015D01*
X278895Y34003D01*
X278893Y33975D01*
X278893Y29325D01*
X278415Y28172D01*
X278402Y28124D01*
X278381Y28079D01*
X278360Y27971D01*
X278331Y27865D01*
X278330Y27815D01*
X278321Y27766D01*
X278328Y27657D01*
X278326Y27547D01*
X278338Y27499D01*
X278341Y27449D01*
X278375Y27345D01*
X278400Y27238D01*
X278424Y27194D01*
X278439Y27147D01*
X278498Y27054D01*
X278549Y26957D01*
X278582Y26920D01*
X278609Y26878D01*
X278689Y26803D01*
X278763Y26721D01*
X278804Y26694D01*
X278841Y26660D01*
X278937Y26607D01*
X279029Y26547D01*
X279076Y26530D01*
X279119Y26506D01*
X279225Y26479D01*
X279329Y26443D01*
X279379Y26439D01*
X279427Y26427D01*
X279588Y26417D01*
X490182Y26417D01*
X490300Y26432D01*
G37*
%LPC*%
G36*
X237533Y156121D02*
X237533Y156121D01*
X234545Y157359D01*
X232259Y159645D01*
X231021Y162633D01*
X231021Y187867D01*
X232259Y190855D01*
X234545Y193141D01*
X237533Y194379D01*
X257767Y194379D01*
X260755Y193141D01*
X263041Y190855D01*
X264130Y188226D01*
X264145Y188201D01*
X264154Y188173D01*
X264223Y188063D01*
X264287Y187950D01*
X264308Y187929D01*
X264324Y187904D01*
X264418Y187815D01*
X264509Y187722D01*
X264534Y187706D01*
X264555Y187686D01*
X264669Y187623D01*
X264780Y187555D01*
X264808Y187547D01*
X264834Y187532D01*
X264960Y187500D01*
X265084Y187462D01*
X265113Y187460D01*
X265142Y187453D01*
X265303Y187443D01*
X269485Y187443D01*
X269583Y187455D01*
X269683Y187458D01*
X269741Y187475D01*
X269801Y187483D01*
X269893Y187519D01*
X269988Y187547D01*
X270040Y187577D01*
X270097Y187600D01*
X270177Y187658D01*
X270262Y187708D01*
X270337Y187774D01*
X270354Y187786D01*
X270362Y187796D01*
X270383Y187814D01*
X274365Y191797D01*
X280434Y194311D01*
X303766Y194311D01*
X309835Y191797D01*
X314479Y187153D01*
X316993Y181084D01*
X316993Y174516D01*
X314479Y168447D01*
X309835Y163803D01*
X303766Y161289D01*
X280434Y161289D01*
X276399Y162961D01*
X276390Y162963D01*
X276382Y162968D01*
X276236Y163005D01*
X276092Y163045D01*
X276083Y163045D01*
X276074Y163047D01*
X275913Y163057D01*
X265303Y163057D01*
X265273Y163054D01*
X265244Y163056D01*
X265116Y163034D01*
X264987Y163017D01*
X264960Y163007D01*
X264930Y163002D01*
X264812Y162948D01*
X264691Y162900D01*
X264667Y162883D01*
X264640Y162871D01*
X264539Y162790D01*
X264434Y162714D01*
X264415Y162691D01*
X264392Y162672D01*
X264314Y162569D01*
X264231Y162469D01*
X264219Y162442D01*
X264201Y162418D01*
X264130Y162274D01*
X263041Y159645D01*
X260755Y157359D01*
X257767Y156121D01*
X237533Y156121D01*
G37*
%LPD*%
G36*
X760114Y64842D02*
X760114Y64842D01*
X760164Y64844D01*
X760269Y64874D01*
X760377Y64897D01*
X760421Y64918D01*
X760469Y64932D01*
X760564Y64988D01*
X760662Y65036D01*
X760700Y65069D01*
X760743Y65094D01*
X760864Y65200D01*
X787536Y91872D01*
X787596Y91950D01*
X787664Y92022D01*
X787693Y92075D01*
X787730Y92123D01*
X787770Y92214D01*
X787818Y92301D01*
X787833Y92359D01*
X787857Y92415D01*
X787872Y92513D01*
X787897Y92609D01*
X787903Y92709D01*
X787907Y92729D01*
X787905Y92741D01*
X787907Y92769D01*
X787907Y136184D01*
X787890Y136322D01*
X787877Y136460D01*
X787870Y136480D01*
X787867Y136500D01*
X787816Y136629D01*
X787769Y136760D01*
X787758Y136777D01*
X787750Y136795D01*
X787669Y136908D01*
X787591Y137023D01*
X787575Y137036D01*
X787564Y137053D01*
X787456Y137141D01*
X787352Y137233D01*
X787334Y137243D01*
X787319Y137255D01*
X787193Y137315D01*
X787069Y137378D01*
X787049Y137382D01*
X787031Y137391D01*
X786894Y137417D01*
X786759Y137448D01*
X786738Y137447D01*
X786719Y137451D01*
X786580Y137442D01*
X786441Y137438D01*
X786421Y137432D01*
X786401Y137431D01*
X786269Y137388D01*
X786135Y137350D01*
X786118Y137339D01*
X786099Y137333D01*
X785981Y137258D01*
X785861Y137188D01*
X785840Y137169D01*
X785830Y137163D01*
X785816Y137148D01*
X785741Y137082D01*
X784280Y135621D01*
X768936Y135621D01*
X768927Y135620D01*
X768918Y135621D01*
X768769Y135600D01*
X768621Y135581D01*
X768612Y135578D01*
X768603Y135577D01*
X768451Y135525D01*
X764425Y133857D01*
X742400Y133857D01*
X742263Y133840D01*
X742124Y133827D01*
X742105Y133820D01*
X742085Y133817D01*
X741956Y133766D01*
X741824Y133719D01*
X741808Y133708D01*
X741789Y133700D01*
X741677Y133619D01*
X741561Y133541D01*
X741548Y133525D01*
X741532Y133514D01*
X741443Y133406D01*
X741351Y133302D01*
X741342Y133284D01*
X741329Y133269D01*
X741270Y133143D01*
X741206Y133019D01*
X741202Y132999D01*
X741193Y132981D01*
X741167Y132845D01*
X741137Y132709D01*
X741137Y132688D01*
X741133Y132669D01*
X741142Y132530D01*
X741146Y132391D01*
X741152Y132371D01*
X741153Y132351D01*
X741196Y132219D01*
X741235Y132085D01*
X741245Y132068D01*
X741251Y132049D01*
X741326Y131931D01*
X741396Y131811D01*
X741415Y131790D01*
X741421Y131780D01*
X741436Y131766D01*
X741503Y131691D01*
X745443Y127750D01*
X745521Y127690D01*
X745593Y127622D01*
X745646Y127593D01*
X745694Y127556D01*
X745785Y127516D01*
X745871Y127468D01*
X745930Y127453D01*
X745986Y127429D01*
X746084Y127414D01*
X746179Y127389D01*
X746279Y127383D01*
X746300Y127379D01*
X746312Y127381D01*
X746340Y127379D01*
X753067Y127379D01*
X756055Y126141D01*
X758341Y123855D01*
X759579Y120867D01*
X759579Y105133D01*
X758341Y102145D01*
X756055Y99859D01*
X753067Y98621D01*
X739262Y98621D01*
X739125Y98604D01*
X738986Y98591D01*
X738967Y98584D01*
X738947Y98581D01*
X738818Y98530D01*
X738687Y98483D01*
X738670Y98472D01*
X738651Y98464D01*
X738539Y98383D01*
X738424Y98305D01*
X738410Y98289D01*
X738394Y98278D01*
X738305Y98170D01*
X738213Y98066D01*
X738204Y98048D01*
X738191Y98033D01*
X738132Y97907D01*
X738069Y97783D01*
X738064Y97763D01*
X738056Y97745D01*
X738029Y97609D01*
X737999Y97473D01*
X738000Y97452D01*
X737996Y97433D01*
X738004Y97294D01*
X738009Y97155D01*
X738014Y97135D01*
X738015Y97115D01*
X738058Y96983D01*
X738097Y96849D01*
X738107Y96832D01*
X738114Y96813D01*
X738188Y96695D01*
X738259Y96575D01*
X738277Y96554D01*
X738284Y96544D01*
X738299Y96530D01*
X738365Y96455D01*
X742569Y92250D01*
X742647Y92190D01*
X742719Y92122D01*
X742772Y92093D01*
X742820Y92056D01*
X742911Y92016D01*
X742998Y91968D01*
X743056Y91953D01*
X743112Y91929D01*
X743210Y91914D01*
X743306Y91889D01*
X743406Y91883D01*
X743426Y91879D01*
X743438Y91881D01*
X743466Y91879D01*
X753067Y91879D01*
X756055Y90641D01*
X758341Y88355D01*
X759579Y85367D01*
X759579Y69633D01*
X758555Y67161D01*
X758529Y67065D01*
X758493Y66973D01*
X758487Y66912D01*
X758471Y66854D01*
X758469Y66755D01*
X758458Y66657D01*
X758467Y66597D01*
X758466Y66536D01*
X758489Y66440D01*
X758503Y66342D01*
X758535Y66247D01*
X758540Y66227D01*
X758546Y66216D01*
X758555Y66189D01*
X758794Y65612D01*
X758818Y65569D01*
X758835Y65522D01*
X758897Y65431D01*
X758951Y65336D01*
X758986Y65300D01*
X759014Y65259D01*
X759096Y65186D01*
X759173Y65107D01*
X759215Y65081D01*
X759252Y65048D01*
X759350Y64998D01*
X759444Y64941D01*
X759491Y64927D01*
X759535Y64904D01*
X759643Y64880D01*
X759748Y64847D01*
X759797Y64845D01*
X759846Y64834D01*
X759956Y64838D01*
X760065Y64832D01*
X760114Y64842D01*
G37*
G36*
X71920Y26434D02*
X71920Y26434D01*
X72059Y26447D01*
X72078Y26454D01*
X72098Y26457D01*
X72227Y26508D01*
X72358Y26555D01*
X72375Y26566D01*
X72394Y26574D01*
X72506Y26655D01*
X72621Y26733D01*
X72635Y26749D01*
X72651Y26760D01*
X72740Y26868D01*
X72832Y26972D01*
X72841Y26990D01*
X72854Y27005D01*
X72913Y27131D01*
X72976Y27255D01*
X72981Y27275D01*
X72989Y27293D01*
X73016Y27429D01*
X73046Y27565D01*
X73045Y27586D01*
X73049Y27605D01*
X73041Y27744D01*
X73036Y27883D01*
X73031Y27903D01*
X73029Y27923D01*
X72987Y28055D01*
X72948Y28189D01*
X72938Y28206D01*
X72931Y28225D01*
X72857Y28343D01*
X72786Y28463D01*
X72768Y28484D01*
X72761Y28494D01*
X72746Y28508D01*
X72680Y28583D01*
X61721Y39542D01*
X61721Y60210D01*
X61709Y60308D01*
X61706Y60407D01*
X61689Y60465D01*
X61681Y60525D01*
X61645Y60617D01*
X61617Y60713D01*
X61587Y60765D01*
X61564Y60821D01*
X61506Y60901D01*
X61456Y60987D01*
X61390Y61062D01*
X61378Y61078D01*
X61368Y61086D01*
X61350Y61107D01*
X40463Y81993D01*
X38607Y86475D01*
X38607Y178817D01*
X38595Y178915D01*
X38592Y179015D01*
X38575Y179073D01*
X38567Y179133D01*
X38531Y179225D01*
X38503Y179320D01*
X38473Y179372D01*
X38450Y179429D01*
X38392Y179508D01*
X38342Y179594D01*
X38276Y179669D01*
X38264Y179686D01*
X38254Y179694D01*
X38236Y179715D01*
X37182Y180768D01*
X37127Y180811D01*
X37079Y180861D01*
X37002Y180908D01*
X36931Y180963D01*
X36867Y180991D01*
X36807Y181027D01*
X36722Y181054D01*
X36639Y181089D01*
X36570Y181100D01*
X36503Y181121D01*
X36414Y181125D01*
X36325Y181139D01*
X36255Y181133D01*
X36186Y181136D01*
X36098Y181118D01*
X36008Y181109D01*
X35943Y181086D01*
X35874Y181072D01*
X35794Y181032D01*
X35709Y181002D01*
X35651Y180963D01*
X35589Y180932D01*
X35520Y180874D01*
X35446Y180823D01*
X35400Y180771D01*
X35347Y180726D01*
X35295Y180652D01*
X35236Y180585D01*
X35204Y180523D01*
X35164Y180466D01*
X35132Y180382D01*
X35091Y180302D01*
X35076Y180234D01*
X35051Y180168D01*
X35041Y180079D01*
X35021Y179991D01*
X35023Y179922D01*
X35016Y179852D01*
X35028Y179763D01*
X35031Y179673D01*
X35050Y179606D01*
X35060Y179537D01*
X35112Y179385D01*
X35679Y178017D01*
X35679Y162283D01*
X34441Y159295D01*
X32155Y157009D01*
X29167Y155771D01*
X11430Y155771D01*
X11312Y155756D01*
X11193Y155749D01*
X11155Y155736D01*
X11114Y155731D01*
X11004Y155688D01*
X10891Y155651D01*
X10856Y155629D01*
X10819Y155614D01*
X10723Y155545D01*
X10622Y155481D01*
X10594Y155451D01*
X10561Y155428D01*
X10485Y155336D01*
X10404Y155249D01*
X10384Y155214D01*
X10359Y155183D01*
X10308Y155075D01*
X10250Y154971D01*
X10240Y154931D01*
X10223Y154895D01*
X10201Y154778D01*
X10171Y154663D01*
X10167Y154603D01*
X10163Y154583D01*
X10165Y154562D01*
X10161Y154502D01*
X10161Y150298D01*
X10176Y150180D01*
X10183Y150061D01*
X10196Y150023D01*
X10201Y149982D01*
X10244Y149872D01*
X10281Y149759D01*
X10303Y149724D01*
X10318Y149687D01*
X10387Y149591D01*
X10451Y149490D01*
X10481Y149462D01*
X10504Y149429D01*
X10596Y149353D01*
X10683Y149272D01*
X10718Y149252D01*
X10749Y149227D01*
X10857Y149176D01*
X10961Y149118D01*
X11001Y149108D01*
X11037Y149091D01*
X11154Y149069D01*
X11269Y149039D01*
X11329Y149035D01*
X11349Y149031D01*
X11370Y149033D01*
X11430Y149029D01*
X29167Y149029D01*
X32155Y147791D01*
X34441Y145505D01*
X35679Y142517D01*
X35679Y126783D01*
X34655Y124311D01*
X34629Y124215D01*
X34593Y124123D01*
X34587Y124062D01*
X34571Y124004D01*
X34569Y123905D01*
X34558Y123807D01*
X34567Y123747D01*
X34566Y123686D01*
X34589Y123590D01*
X34603Y123492D01*
X34635Y123397D01*
X34640Y123377D01*
X34646Y123366D01*
X34655Y123339D01*
X35679Y120867D01*
X35679Y105133D01*
X34441Y102145D01*
X32155Y99859D01*
X29167Y98621D01*
X11430Y98621D01*
X11312Y98606D01*
X11193Y98599D01*
X11155Y98586D01*
X11114Y98581D01*
X11004Y98538D01*
X10891Y98501D01*
X10856Y98479D01*
X10819Y98464D01*
X10723Y98395D01*
X10622Y98331D01*
X10594Y98301D01*
X10561Y98278D01*
X10485Y98186D01*
X10404Y98099D01*
X10384Y98064D01*
X10359Y98033D01*
X10308Y97925D01*
X10250Y97821D01*
X10240Y97781D01*
X10223Y97745D01*
X10201Y97628D01*
X10171Y97513D01*
X10167Y97453D01*
X10163Y97433D01*
X10165Y97412D01*
X10161Y97352D01*
X10161Y93148D01*
X10176Y93030D01*
X10183Y92911D01*
X10196Y92873D01*
X10201Y92832D01*
X10244Y92722D01*
X10281Y92609D01*
X10303Y92574D01*
X10318Y92537D01*
X10387Y92441D01*
X10451Y92340D01*
X10481Y92312D01*
X10504Y92279D01*
X10596Y92203D01*
X10683Y92122D01*
X10718Y92102D01*
X10749Y92077D01*
X10857Y92026D01*
X10961Y91968D01*
X11001Y91958D01*
X11037Y91941D01*
X11154Y91919D01*
X11269Y91889D01*
X11329Y91885D01*
X11349Y91881D01*
X11370Y91883D01*
X11430Y91879D01*
X29167Y91879D01*
X32155Y90641D01*
X34441Y88355D01*
X35679Y85367D01*
X35679Y69633D01*
X34441Y66645D01*
X32155Y64359D01*
X32026Y64306D01*
X32001Y64291D01*
X31973Y64282D01*
X31863Y64212D01*
X31750Y64148D01*
X31729Y64128D01*
X31704Y64112D01*
X31615Y64017D01*
X31522Y63927D01*
X31506Y63902D01*
X31486Y63880D01*
X31423Y63767D01*
X31355Y63656D01*
X31347Y63627D01*
X31332Y63602D01*
X31300Y63476D01*
X31262Y63352D01*
X31260Y63322D01*
X31253Y63294D01*
X31243Y63133D01*
X31243Y51550D01*
X31255Y51452D01*
X31258Y51353D01*
X31275Y51295D01*
X31283Y51235D01*
X31319Y51143D01*
X31347Y51047D01*
X31377Y50995D01*
X31400Y50939D01*
X31458Y50859D01*
X31508Y50773D01*
X31574Y50698D01*
X31586Y50682D01*
X31596Y50674D01*
X31614Y50653D01*
X55479Y26788D01*
X55557Y26728D01*
X55629Y26660D01*
X55682Y26631D01*
X55730Y26594D01*
X55821Y26554D01*
X55908Y26506D01*
X55966Y26491D01*
X56022Y26467D01*
X56120Y26452D01*
X56215Y26427D01*
X56315Y26421D01*
X56336Y26417D01*
X56348Y26419D01*
X56376Y26417D01*
X71783Y26417D01*
X71920Y26434D01*
G37*
G36*
X750420Y158258D02*
X750420Y158258D01*
X750539Y158265D01*
X750577Y158278D01*
X750618Y158283D01*
X750728Y158326D01*
X750841Y158363D01*
X750876Y158385D01*
X750913Y158400D01*
X751009Y158469D01*
X751110Y158533D01*
X751138Y158563D01*
X751171Y158586D01*
X751247Y158678D01*
X751328Y158765D01*
X751348Y158800D01*
X751373Y158831D01*
X751424Y158939D01*
X751482Y159043D01*
X751492Y159083D01*
X751509Y159119D01*
X751531Y159236D01*
X751561Y159351D01*
X751565Y159411D01*
X751569Y159431D01*
X751567Y159452D01*
X751571Y159512D01*
X751571Y168330D01*
X765120Y181879D01*
X784280Y181879D01*
X785741Y180418D01*
X785850Y180333D01*
X785957Y180245D01*
X785976Y180236D01*
X785992Y180223D01*
X786120Y180168D01*
X786245Y180109D01*
X786265Y180105D01*
X786284Y180097D01*
X786422Y180075D01*
X786558Y180049D01*
X786578Y180050D01*
X786598Y180047D01*
X786737Y180060D01*
X786875Y180069D01*
X786894Y180075D01*
X786914Y180077D01*
X787046Y180124D01*
X787177Y180167D01*
X787195Y180178D01*
X787214Y180185D01*
X787329Y180263D01*
X787446Y180337D01*
X787460Y180352D01*
X787477Y180363D01*
X787569Y180468D01*
X787664Y180569D01*
X787674Y180586D01*
X787687Y180602D01*
X787751Y180726D01*
X787818Y180847D01*
X787823Y180867D01*
X787832Y180885D01*
X787862Y181021D01*
X787897Y181155D01*
X787899Y181183D01*
X787902Y181195D01*
X787901Y181216D01*
X787907Y181316D01*
X787907Y186984D01*
X787890Y187122D01*
X787877Y187260D01*
X787870Y187280D01*
X787867Y187300D01*
X787816Y187429D01*
X787769Y187560D01*
X787758Y187577D01*
X787750Y187595D01*
X787669Y187708D01*
X787591Y187823D01*
X787575Y187836D01*
X787564Y187853D01*
X787456Y187941D01*
X787352Y188033D01*
X787334Y188043D01*
X787319Y188055D01*
X787193Y188115D01*
X787069Y188178D01*
X787049Y188182D01*
X787031Y188191D01*
X786894Y188217D01*
X786759Y188248D01*
X786738Y188247D01*
X786719Y188251D01*
X786580Y188242D01*
X786441Y188238D01*
X786421Y188232D01*
X786401Y188231D01*
X786269Y188188D01*
X786135Y188150D01*
X786118Y188139D01*
X786099Y188133D01*
X785981Y188058D01*
X785861Y187988D01*
X785840Y187969D01*
X785830Y187963D01*
X785816Y187948D01*
X785741Y187882D01*
X784280Y186421D01*
X765120Y186421D01*
X751571Y199970D01*
X751571Y216914D01*
X751554Y217051D01*
X751541Y217190D01*
X751534Y217209D01*
X751531Y217229D01*
X751480Y217358D01*
X751433Y217490D01*
X751422Y217506D01*
X751414Y217525D01*
X751333Y217638D01*
X751255Y217753D01*
X751239Y217766D01*
X751228Y217782D01*
X751120Y217871D01*
X751016Y217963D01*
X750998Y217972D01*
X750983Y217985D01*
X750857Y218045D01*
X750733Y218108D01*
X750713Y218112D01*
X750695Y218121D01*
X750559Y218147D01*
X750423Y218177D01*
X750402Y218177D01*
X750383Y218181D01*
X750244Y218172D01*
X750105Y218168D01*
X750085Y218162D01*
X750065Y218161D01*
X749933Y218118D01*
X749799Y218079D01*
X749782Y218069D01*
X749763Y218063D01*
X749645Y217988D01*
X749525Y217918D01*
X749504Y217899D01*
X749494Y217893D01*
X749480Y217878D01*
X749405Y217811D01*
X742814Y211221D01*
X742754Y211143D01*
X742686Y211071D01*
X742657Y211018D01*
X742620Y210970D01*
X742580Y210879D01*
X742532Y210792D01*
X742517Y210734D01*
X742493Y210678D01*
X742478Y210580D01*
X742453Y210485D01*
X742447Y210385D01*
X742443Y210364D01*
X742445Y210352D01*
X742443Y210324D01*
X742443Y181725D01*
X740587Y177243D01*
X724457Y161114D01*
X723421Y160685D01*
X723360Y160650D01*
X723296Y160624D01*
X723223Y160572D01*
X723145Y160527D01*
X723095Y160479D01*
X723038Y160438D01*
X722981Y160368D01*
X722917Y160306D01*
X722880Y160246D01*
X722836Y160193D01*
X722797Y160111D01*
X722750Y160035D01*
X722730Y159968D01*
X722700Y159905D01*
X722683Y159817D01*
X722657Y159731D01*
X722653Y159661D01*
X722640Y159592D01*
X722646Y159503D01*
X722641Y159413D01*
X722656Y159345D01*
X722660Y159275D01*
X722688Y159190D01*
X722706Y159102D01*
X722736Y159039D01*
X722758Y158973D01*
X722806Y158897D01*
X722846Y158816D01*
X722891Y158763D01*
X722928Y158704D01*
X722994Y158642D01*
X723052Y158574D01*
X723109Y158534D01*
X723160Y158486D01*
X723238Y158443D01*
X723312Y158391D01*
X723377Y158366D01*
X723438Y158332D01*
X723525Y158310D01*
X723609Y158278D01*
X723679Y158270D01*
X723746Y158253D01*
X723907Y158243D01*
X750302Y158243D01*
X750420Y158258D01*
G37*
G36*
X285812Y88401D02*
X285812Y88401D01*
X285882Y88400D01*
X285970Y88421D01*
X286059Y88433D01*
X286124Y88458D01*
X286191Y88475D01*
X286271Y88517D01*
X286354Y88550D01*
X286411Y88591D01*
X286473Y88623D01*
X286539Y88684D01*
X286612Y88736D01*
X286656Y88790D01*
X286708Y88837D01*
X286757Y88912D01*
X286814Y88981D01*
X286844Y89045D01*
X286883Y89103D01*
X286912Y89188D01*
X286950Y89269D01*
X286963Y89338D01*
X286986Y89404D01*
X286993Y89493D01*
X287010Y89581D01*
X287005Y89651D01*
X287011Y89721D01*
X286996Y89809D01*
X286990Y89899D01*
X286969Y89965D01*
X286957Y90034D01*
X286920Y90116D01*
X286892Y90201D01*
X286855Y90260D01*
X286826Y90324D01*
X286770Y90394D01*
X286722Y90470D01*
X286671Y90518D01*
X286627Y90572D01*
X286556Y90627D01*
X286490Y90688D01*
X286429Y90722D01*
X286373Y90764D01*
X286229Y90835D01*
X285193Y91264D01*
X271695Y104762D01*
X271671Y104780D01*
X271652Y104803D01*
X271546Y104877D01*
X271443Y104957D01*
X271416Y104969D01*
X271392Y104986D01*
X271271Y105032D01*
X271152Y105084D01*
X271122Y105088D01*
X271095Y105099D01*
X270966Y105113D01*
X270837Y105133D01*
X270808Y105131D01*
X270779Y105134D01*
X270650Y105116D01*
X270521Y105104D01*
X270493Y105094D01*
X270464Y105089D01*
X270311Y105037D01*
X269717Y104791D01*
X263683Y104791D01*
X258108Y107101D01*
X254809Y110400D01*
X254730Y110460D01*
X254658Y110528D01*
X254605Y110557D01*
X254557Y110594D01*
X254466Y110634D01*
X254380Y110682D01*
X254321Y110697D01*
X254266Y110721D01*
X254168Y110736D01*
X254072Y110761D01*
X253972Y110767D01*
X253951Y110771D01*
X253939Y110769D01*
X253911Y110771D01*
X237533Y110771D01*
X234545Y112009D01*
X232233Y114321D01*
X232219Y114346D01*
X232154Y114468D01*
X232141Y114483D01*
X232131Y114501D01*
X232034Y114601D01*
X231940Y114704D01*
X231923Y114715D01*
X231909Y114729D01*
X231791Y114802D01*
X231675Y114878D01*
X231655Y114885D01*
X231638Y114896D01*
X231505Y114937D01*
X231374Y114982D01*
X231354Y114983D01*
X231334Y114989D01*
X231195Y114996D01*
X231057Y115007D01*
X231037Y115003D01*
X231017Y115004D01*
X230880Y114976D01*
X230743Y114952D01*
X230725Y114944D01*
X230705Y114940D01*
X230580Y114879D01*
X230453Y114822D01*
X230438Y114809D01*
X230420Y114800D01*
X230314Y114710D01*
X230205Y114623D01*
X230193Y114607D01*
X230178Y114594D01*
X230098Y114481D01*
X230014Y114369D01*
X230001Y114344D01*
X229994Y114334D01*
X229987Y114315D01*
X229943Y114225D01*
X228759Y111368D01*
X227514Y110123D01*
X227454Y110044D01*
X227386Y109972D01*
X227357Y109919D01*
X227320Y109871D01*
X227280Y109780D01*
X227232Y109694D01*
X227217Y109635D01*
X227193Y109580D01*
X227178Y109482D01*
X227153Y109386D01*
X227147Y109286D01*
X227143Y109265D01*
X227145Y109253D01*
X227143Y109225D01*
X227143Y89662D01*
X227158Y89544D01*
X227165Y89425D01*
X227178Y89387D01*
X227183Y89346D01*
X227226Y89236D01*
X227263Y89123D01*
X227285Y89088D01*
X227300Y89051D01*
X227369Y88955D01*
X227433Y88854D01*
X227463Y88826D01*
X227486Y88793D01*
X227578Y88717D01*
X227665Y88636D01*
X227700Y88616D01*
X227731Y88591D01*
X227839Y88540D01*
X227943Y88482D01*
X227983Y88472D01*
X228019Y88455D01*
X228136Y88433D01*
X228251Y88403D01*
X228311Y88399D01*
X228331Y88395D01*
X228352Y88397D01*
X228412Y88393D01*
X285743Y88393D01*
X285812Y88401D01*
G37*
%LPC*%
G36*
X448735Y185419D02*
X448735Y185419D01*
X438319Y195835D01*
X438319Y210565D01*
X448735Y220981D01*
X463465Y220981D01*
X473881Y210565D01*
X473881Y195835D01*
X463465Y185419D01*
X448735Y185419D01*
G37*
%LPD*%
%LPC*%
G36*
X448735Y134619D02*
X448735Y134619D01*
X438319Y145035D01*
X438319Y159765D01*
X448735Y170181D01*
X463465Y170181D01*
X473881Y159765D01*
X473881Y145035D01*
X463465Y134619D01*
X448735Y134619D01*
G37*
%LPD*%
%LPC*%
G36*
X628735Y134619D02*
X628735Y134619D01*
X618319Y145035D01*
X618319Y159765D01*
X628735Y170181D01*
X643465Y170181D01*
X653881Y159765D01*
X653881Y145035D01*
X643465Y134619D01*
X628735Y134619D01*
G37*
%LPD*%
G36*
X702317Y10178D02*
X702317Y10178D01*
X702456Y10191D01*
X702475Y10198D01*
X702495Y10201D01*
X702624Y10252D01*
X702755Y10299D01*
X702772Y10310D01*
X702790Y10318D01*
X702903Y10399D01*
X703018Y10477D01*
X703032Y10493D01*
X703048Y10504D01*
X703137Y10612D01*
X703229Y10716D01*
X703238Y10734D01*
X703251Y10749D01*
X703310Y10875D01*
X703373Y10999D01*
X703378Y11019D01*
X703386Y11037D01*
X703412Y11173D01*
X703443Y11309D01*
X703442Y11330D01*
X703446Y11349D01*
X703437Y11488D01*
X703433Y11627D01*
X703427Y11647D01*
X703426Y11667D01*
X703383Y11799D01*
X703345Y11933D01*
X703334Y11950D01*
X703328Y11969D01*
X703254Y12087D01*
X703183Y12207D01*
X703165Y12228D01*
X703158Y12238D01*
X703143Y12252D01*
X703112Y12287D01*
X701871Y15283D01*
X701871Y35517D01*
X703109Y38505D01*
X705395Y40791D01*
X708383Y42029D01*
X724117Y42029D01*
X727105Y40791D01*
X729391Y38505D01*
X730152Y36669D01*
X730221Y36548D01*
X730286Y36425D01*
X730299Y36410D01*
X730309Y36392D01*
X730406Y36292D01*
X730499Y36190D01*
X730516Y36178D01*
X730531Y36164D01*
X730649Y36091D01*
X730765Y36015D01*
X730784Y36008D01*
X730802Y35998D01*
X730934Y35957D01*
X731066Y35912D01*
X731086Y35910D01*
X731106Y35904D01*
X731244Y35897D01*
X731383Y35886D01*
X731403Y35890D01*
X731423Y35889D01*
X731560Y35917D01*
X731696Y35941D01*
X731715Y35949D01*
X731735Y35953D01*
X731860Y36014D01*
X731986Y36071D01*
X732002Y36084D01*
X732020Y36093D01*
X732127Y36183D01*
X732235Y36270D01*
X732247Y36286D01*
X732262Y36299D01*
X732342Y36412D01*
X732426Y36524D01*
X732438Y36549D01*
X732445Y36559D01*
X732453Y36578D01*
X732497Y36669D01*
X732613Y36950D01*
X734968Y39305D01*
X735053Y39414D01*
X735142Y39521D01*
X735151Y39540D01*
X735163Y39556D01*
X735219Y39684D01*
X735278Y39809D01*
X735281Y39829D01*
X735289Y39848D01*
X735311Y39986D01*
X735337Y40122D01*
X735336Y40142D01*
X735339Y40162D01*
X735326Y40301D01*
X735318Y40439D01*
X735311Y40458D01*
X735309Y40478D01*
X735262Y40610D01*
X735220Y40741D01*
X735209Y40759D01*
X735202Y40778D01*
X735124Y40893D01*
X735049Y41010D01*
X735035Y41024D01*
X735023Y41041D01*
X734919Y41133D01*
X734818Y41228D01*
X734800Y41238D01*
X734785Y41251D01*
X734661Y41315D01*
X734539Y41382D01*
X734520Y41387D01*
X734502Y41396D01*
X734366Y41426D01*
X734231Y41461D01*
X734203Y41463D01*
X734191Y41466D01*
X734171Y41465D01*
X734071Y41471D01*
X732833Y41471D01*
X729845Y42709D01*
X727559Y44995D01*
X726321Y47983D01*
X726321Y63717D01*
X727345Y66189D01*
X727371Y66285D01*
X727407Y66377D01*
X727413Y66438D01*
X727429Y66496D01*
X727431Y66595D01*
X727442Y66693D01*
X727433Y66753D01*
X727434Y66814D01*
X727411Y66910D01*
X727397Y67008D01*
X727365Y67103D01*
X727360Y67123D01*
X727354Y67134D01*
X727345Y67161D01*
X726321Y69633D01*
X726321Y79234D01*
X726309Y79332D01*
X726306Y79431D01*
X726289Y79489D01*
X726281Y79549D01*
X726245Y79641D01*
X726217Y79736D01*
X726187Y79788D01*
X726164Y79845D01*
X726106Y79925D01*
X726056Y80010D01*
X725990Y80086D01*
X725978Y80102D01*
X725968Y80110D01*
X725950Y80131D01*
X715013Y91068D01*
X714935Y91128D01*
X714863Y91196D01*
X714810Y91225D01*
X714762Y91262D01*
X714671Y91302D01*
X714584Y91350D01*
X714526Y91365D01*
X714470Y91389D01*
X714372Y91404D01*
X714276Y91429D01*
X714176Y91435D01*
X714156Y91439D01*
X714144Y91437D01*
X714116Y91439D01*
X711012Y91439D01*
X710894Y91424D01*
X710775Y91417D01*
X710737Y91404D01*
X710696Y91399D01*
X710586Y91356D01*
X710473Y91319D01*
X710438Y91297D01*
X710401Y91282D01*
X710305Y91213D01*
X710204Y91149D01*
X710176Y91119D01*
X710143Y91096D01*
X710067Y91004D01*
X709986Y90917D01*
X709966Y90882D01*
X709941Y90851D01*
X709890Y90743D01*
X709832Y90639D01*
X709822Y90599D01*
X709805Y90563D01*
X709783Y90446D01*
X709753Y90331D01*
X709749Y90271D01*
X709745Y90251D01*
X709747Y90230D01*
X709743Y90170D01*
X709743Y81083D01*
X709744Y81073D01*
X709743Y81064D01*
X709764Y80915D01*
X709783Y80767D01*
X709786Y80758D01*
X709787Y80749D01*
X709839Y80597D01*
X710929Y77967D01*
X710929Y61733D01*
X710565Y60855D01*
X710539Y60760D01*
X710504Y60667D01*
X710497Y60607D01*
X710481Y60548D01*
X710480Y60449D01*
X710469Y60351D01*
X710477Y60291D01*
X710476Y60230D01*
X710499Y60134D01*
X710513Y60036D01*
X710545Y59941D01*
X710550Y59921D01*
X710556Y59910D01*
X710565Y59884D01*
X710693Y59575D01*
X710693Y54725D01*
X708837Y50243D01*
X699057Y40463D01*
X695128Y38836D01*
X695024Y38777D01*
X694917Y38725D01*
X694887Y38699D01*
X694851Y38679D01*
X694766Y38596D01*
X694675Y38518D01*
X694652Y38485D01*
X694623Y38457D01*
X694561Y38356D01*
X694492Y38258D01*
X694478Y38221D01*
X694457Y38186D01*
X694422Y38072D01*
X694380Y37961D01*
X694375Y37921D01*
X694363Y37882D01*
X694358Y37764D01*
X694344Y37645D01*
X694350Y37605D01*
X694348Y37565D01*
X694372Y37448D01*
X694389Y37330D01*
X694408Y37273D01*
X694412Y37253D01*
X694421Y37235D01*
X694441Y37178D01*
X695129Y35517D01*
X695129Y15283D01*
X693883Y12276D01*
X693838Y12218D01*
X693749Y12111D01*
X693741Y12092D01*
X693728Y12076D01*
X693673Y11948D01*
X693614Y11823D01*
X693610Y11803D01*
X693602Y11784D01*
X693580Y11647D01*
X693554Y11510D01*
X693555Y11490D01*
X693552Y11470D01*
X693565Y11332D01*
X693574Y11193D01*
X693580Y11174D01*
X693582Y11154D01*
X693629Y11022D01*
X693672Y10891D01*
X693683Y10874D01*
X693689Y10854D01*
X693767Y10740D01*
X693842Y10622D01*
X693857Y10608D01*
X693868Y10591D01*
X693972Y10500D01*
X694074Y10404D01*
X694091Y10394D01*
X694106Y10381D01*
X694230Y10318D01*
X694352Y10250D01*
X694372Y10245D01*
X694390Y10236D01*
X694526Y10206D01*
X694660Y10171D01*
X694688Y10169D01*
X694700Y10166D01*
X694721Y10167D01*
X694821Y10161D01*
X702179Y10161D01*
X702317Y10178D01*
G37*
G36*
X36547Y199989D02*
X36547Y199989D01*
X36597Y199990D01*
X36702Y200021D01*
X36810Y200043D01*
X36854Y200065D01*
X36902Y200079D01*
X36996Y200134D01*
X37095Y200183D01*
X37133Y200215D01*
X37176Y200240D01*
X37297Y200346D01*
X43961Y207011D01*
X52082Y207011D01*
X52219Y207028D01*
X52358Y207041D01*
X52377Y207048D01*
X52397Y207051D01*
X52526Y207102D01*
X52658Y207149D01*
X52674Y207160D01*
X52693Y207168D01*
X52805Y207249D01*
X52921Y207327D01*
X52934Y207343D01*
X52950Y207354D01*
X53039Y207462D01*
X53131Y207566D01*
X53140Y207584D01*
X53153Y207599D01*
X53212Y207725D01*
X53276Y207849D01*
X53280Y207869D01*
X53289Y207887D01*
X53315Y208023D01*
X53345Y208159D01*
X53345Y208180D01*
X53349Y208199D01*
X53340Y208338D01*
X53336Y208477D01*
X53330Y208497D01*
X53329Y208517D01*
X53286Y208649D01*
X53247Y208783D01*
X53237Y208800D01*
X53231Y208819D01*
X53156Y208937D01*
X53086Y209057D01*
X53067Y209078D01*
X53061Y209088D01*
X53046Y209102D01*
X52979Y209177D01*
X44072Y218085D01*
X40463Y221693D01*
X38607Y226175D01*
X38607Y255017D01*
X38595Y255115D01*
X38592Y255214D01*
X38575Y255273D01*
X38567Y255333D01*
X38531Y255425D01*
X38503Y255520D01*
X38473Y255572D01*
X38450Y255629D01*
X38392Y255708D01*
X38342Y255794D01*
X38276Y255869D01*
X38264Y255886D01*
X38254Y255894D01*
X38236Y255915D01*
X37846Y256305D01*
X37736Y256390D01*
X37629Y256479D01*
X37610Y256487D01*
X37594Y256500D01*
X37467Y256555D01*
X37341Y256614D01*
X37321Y256618D01*
X37302Y256626D01*
X37165Y256648D01*
X37028Y256674D01*
X37008Y256673D01*
X36988Y256676D01*
X36850Y256663D01*
X36711Y256654D01*
X36692Y256648D01*
X36672Y256646D01*
X36540Y256599D01*
X36409Y256556D01*
X36392Y256545D01*
X36372Y256539D01*
X36257Y256460D01*
X36140Y256386D01*
X36126Y256371D01*
X36109Y256360D01*
X36017Y256256D01*
X35922Y256154D01*
X35912Y256137D01*
X35899Y256122D01*
X35835Y255997D01*
X35768Y255876D01*
X35763Y255856D01*
X35754Y255838D01*
X35724Y255702D01*
X35689Y255568D01*
X35687Y255540D01*
X35684Y255528D01*
X35685Y255508D01*
X35679Y255407D01*
X35679Y241083D01*
X34655Y238611D01*
X34629Y238515D01*
X34593Y238423D01*
X34587Y238362D01*
X34571Y238304D01*
X34569Y238205D01*
X34558Y238107D01*
X34567Y238047D01*
X34566Y237986D01*
X34589Y237890D01*
X34603Y237792D01*
X34635Y237697D01*
X34640Y237677D01*
X34646Y237666D01*
X34655Y237639D01*
X35679Y235167D01*
X35679Y219433D01*
X34441Y216445D01*
X32155Y214159D01*
X29167Y212921D01*
X11430Y212921D01*
X11312Y212906D01*
X11193Y212899D01*
X11155Y212886D01*
X11114Y212881D01*
X11004Y212838D01*
X10891Y212801D01*
X10856Y212779D01*
X10819Y212764D01*
X10723Y212695D01*
X10622Y212631D01*
X10594Y212601D01*
X10561Y212578D01*
X10485Y212486D01*
X10404Y212399D01*
X10384Y212364D01*
X10359Y212333D01*
X10308Y212225D01*
X10250Y212121D01*
X10240Y212081D01*
X10223Y212045D01*
X10201Y211928D01*
X10171Y211813D01*
X10167Y211753D01*
X10163Y211733D01*
X10165Y211712D01*
X10161Y211652D01*
X10161Y207448D01*
X10176Y207330D01*
X10183Y207211D01*
X10196Y207173D01*
X10201Y207132D01*
X10244Y207022D01*
X10281Y206909D01*
X10303Y206874D01*
X10318Y206837D01*
X10387Y206741D01*
X10451Y206640D01*
X10481Y206612D01*
X10504Y206579D01*
X10596Y206503D01*
X10683Y206422D01*
X10718Y206402D01*
X10749Y206377D01*
X10857Y206326D01*
X10961Y206268D01*
X11001Y206258D01*
X11037Y206241D01*
X11154Y206219D01*
X11269Y206189D01*
X11329Y206185D01*
X11349Y206181D01*
X11370Y206183D01*
X11430Y206179D01*
X29167Y206179D01*
X32155Y204941D01*
X34441Y202655D01*
X35227Y200758D01*
X35251Y200715D01*
X35268Y200668D01*
X35330Y200577D01*
X35384Y200482D01*
X35419Y200446D01*
X35447Y200405D01*
X35529Y200333D01*
X35606Y200254D01*
X35648Y200228D01*
X35685Y200195D01*
X35783Y200145D01*
X35877Y200087D01*
X35924Y200073D01*
X35968Y200050D01*
X36076Y200026D01*
X36181Y199994D01*
X36230Y199991D01*
X36279Y199980D01*
X36389Y199984D01*
X36498Y199979D01*
X36547Y199989D01*
G37*
G36*
X64320Y141335D02*
X64320Y141335D01*
X64459Y141340D01*
X64479Y141345D01*
X64499Y141347D01*
X64631Y141389D01*
X64765Y141428D01*
X64782Y141438D01*
X64801Y141445D01*
X64919Y141519D01*
X65039Y141590D01*
X65060Y141608D01*
X65070Y141615D01*
X65084Y141630D01*
X65159Y141696D01*
X76336Y152872D01*
X76396Y152950D01*
X76464Y153022D01*
X76493Y153075D01*
X76530Y153123D01*
X76570Y153214D01*
X76618Y153301D01*
X76633Y153359D01*
X76657Y153415D01*
X76672Y153513D01*
X76697Y153609D01*
X76703Y153709D01*
X76707Y153729D01*
X76705Y153742D01*
X76707Y153770D01*
X76707Y175006D01*
X76704Y175035D01*
X76706Y175065D01*
X76684Y175193D01*
X76667Y175322D01*
X76657Y175349D01*
X76652Y175378D01*
X76598Y175497D01*
X76550Y175617D01*
X76533Y175641D01*
X76521Y175668D01*
X76440Y175770D01*
X76364Y175875D01*
X76341Y175893D01*
X76322Y175917D01*
X76219Y175995D01*
X76119Y176077D01*
X76092Y176090D01*
X76068Y176108D01*
X75924Y176179D01*
X73195Y177309D01*
X70909Y179595D01*
X69671Y182583D01*
X69671Y182957D01*
X69654Y183095D01*
X69641Y183234D01*
X69634Y183253D01*
X69631Y183273D01*
X69580Y183402D01*
X69533Y183533D01*
X69522Y183550D01*
X69514Y183569D01*
X69433Y183681D01*
X69355Y183796D01*
X69339Y183810D01*
X69328Y183826D01*
X69220Y183915D01*
X69116Y184007D01*
X69098Y184016D01*
X69083Y184029D01*
X68957Y184088D01*
X68833Y184151D01*
X68813Y184156D01*
X68795Y184164D01*
X68659Y184190D01*
X68523Y184221D01*
X68502Y184220D01*
X68483Y184224D01*
X68344Y184215D01*
X68205Y184211D01*
X68185Y184206D01*
X68165Y184204D01*
X68033Y184161D01*
X67899Y184123D01*
X67882Y184113D01*
X67863Y184106D01*
X67745Y184032D01*
X67625Y183961D01*
X67604Y183943D01*
X67594Y183936D01*
X67580Y183921D01*
X67505Y183855D01*
X63364Y179715D01*
X63304Y179637D01*
X63236Y179564D01*
X63207Y179511D01*
X63170Y179464D01*
X63130Y179373D01*
X63082Y179286D01*
X63067Y179227D01*
X63043Y179172D01*
X63028Y179074D01*
X63003Y178978D01*
X62997Y178878D01*
X62993Y178858D01*
X62995Y178845D01*
X62993Y178817D01*
X62993Y142593D01*
X63010Y142456D01*
X63023Y142317D01*
X63030Y142298D01*
X63033Y142278D01*
X63084Y142149D01*
X63131Y142018D01*
X63142Y142001D01*
X63150Y141982D01*
X63231Y141870D01*
X63309Y141755D01*
X63325Y141741D01*
X63336Y141725D01*
X63444Y141636D01*
X63548Y141544D01*
X63566Y141535D01*
X63581Y141522D01*
X63707Y141463D01*
X63831Y141400D01*
X63851Y141395D01*
X63869Y141387D01*
X64005Y141360D01*
X64141Y141330D01*
X64162Y141331D01*
X64181Y141327D01*
X64320Y141335D01*
G37*
G36*
X27158Y298841D02*
X27158Y298841D01*
X27257Y298844D01*
X27315Y298861D01*
X27375Y298869D01*
X27467Y298905D01*
X27563Y298933D01*
X27615Y298963D01*
X27671Y298986D01*
X27751Y299044D01*
X27837Y299094D01*
X27912Y299160D01*
X27928Y299172D01*
X27936Y299182D01*
X27957Y299200D01*
X36979Y308223D01*
X37065Y308332D01*
X37153Y308439D01*
X37162Y308458D01*
X37174Y308474D01*
X37230Y308602D01*
X37289Y308727D01*
X37293Y308747D01*
X37301Y308766D01*
X37323Y308904D01*
X37349Y309040D01*
X37347Y309060D01*
X37351Y309080D01*
X37337Y309219D01*
X37329Y309357D01*
X37323Y309376D01*
X37321Y309396D01*
X37274Y309528D01*
X37231Y309659D01*
X37220Y309677D01*
X37213Y309696D01*
X37135Y309811D01*
X37061Y309928D01*
X37046Y309942D01*
X37035Y309959D01*
X36930Y310051D01*
X36829Y310146D01*
X36811Y310156D01*
X36796Y310169D01*
X36672Y310233D01*
X36551Y310300D01*
X36531Y310305D01*
X36513Y310314D01*
X36377Y310344D01*
X36243Y310379D01*
X36215Y310381D01*
X36203Y310384D01*
X36182Y310383D01*
X36082Y310389D01*
X34656Y310389D01*
X28002Y312172D01*
X22037Y315616D01*
X17166Y320487D01*
X13722Y326452D01*
X12656Y330431D01*
X12599Y330571D01*
X12542Y330714D01*
X12538Y330719D01*
X12536Y330726D01*
X12445Y330848D01*
X12356Y330971D01*
X12350Y330976D01*
X12346Y330981D01*
X12228Y331076D01*
X12111Y331174D01*
X12104Y331177D01*
X12099Y331181D01*
X11961Y331245D01*
X11823Y331310D01*
X11816Y331311D01*
X11810Y331314D01*
X11660Y331341D01*
X11510Y331369D01*
X11504Y331369D01*
X11497Y331370D01*
X11344Y331359D01*
X11193Y331350D01*
X11187Y331348D01*
X11180Y331347D01*
X11034Y331298D01*
X10891Y331252D01*
X10885Y331248D01*
X10878Y331246D01*
X10750Y331163D01*
X10622Y331081D01*
X10617Y331076D01*
X10612Y331073D01*
X10508Y330961D01*
X10404Y330850D01*
X10401Y330844D01*
X10396Y330839D01*
X10323Y330704D01*
X10250Y330571D01*
X10249Y330565D01*
X10246Y330559D01*
X10209Y330410D01*
X10171Y330263D01*
X10170Y330254D01*
X10169Y330250D01*
X10169Y330239D01*
X10161Y330103D01*
X10161Y300098D01*
X10176Y299980D01*
X10183Y299861D01*
X10196Y299823D01*
X10201Y299782D01*
X10244Y299672D01*
X10281Y299559D01*
X10303Y299524D01*
X10318Y299487D01*
X10387Y299391D01*
X10451Y299290D01*
X10481Y299262D01*
X10504Y299229D01*
X10596Y299153D01*
X10683Y299072D01*
X10718Y299052D01*
X10749Y299027D01*
X10857Y298976D01*
X10961Y298918D01*
X11001Y298908D01*
X11037Y298891D01*
X11154Y298869D01*
X11269Y298839D01*
X11329Y298835D01*
X11349Y298831D01*
X11370Y298833D01*
X11430Y298829D01*
X27060Y298829D01*
X27158Y298841D01*
G37*
G36*
X725081Y110143D02*
X725081Y110143D01*
X725191Y110141D01*
X725239Y110153D01*
X725289Y110156D01*
X725393Y110190D01*
X725500Y110215D01*
X725544Y110239D01*
X725591Y110254D01*
X725684Y110313D01*
X725781Y110364D01*
X725818Y110397D01*
X725860Y110424D01*
X725935Y110504D01*
X726017Y110578D01*
X726044Y110619D01*
X726078Y110656D01*
X726131Y110752D01*
X726191Y110844D01*
X726208Y110891D01*
X726232Y110934D01*
X726259Y111040D01*
X726295Y111144D01*
X726299Y111194D01*
X726311Y111242D01*
X726321Y111403D01*
X726321Y111860D01*
X726309Y111958D01*
X726306Y112057D01*
X726289Y112115D01*
X726281Y112175D01*
X726245Y112268D01*
X726217Y112363D01*
X726187Y112415D01*
X726164Y112471D01*
X726106Y112551D01*
X726056Y112637D01*
X725990Y112712D01*
X725978Y112728D01*
X725968Y112736D01*
X725950Y112757D01*
X705221Y133486D01*
X705143Y133546D01*
X705071Y133614D01*
X705018Y133643D01*
X704970Y133680D01*
X704879Y133720D01*
X704793Y133768D01*
X704734Y133783D01*
X704678Y133807D01*
X704580Y133822D01*
X704485Y133847D01*
X704385Y133853D01*
X704364Y133857D01*
X704352Y133855D01*
X704324Y133857D01*
X702250Y133857D01*
X702221Y133854D01*
X702191Y133856D01*
X702064Y133834D01*
X701935Y133817D01*
X701907Y133807D01*
X701878Y133801D01*
X701760Y133748D01*
X701639Y133700D01*
X701615Y133683D01*
X701588Y133671D01*
X701487Y133590D01*
X701382Y133514D01*
X701363Y133491D01*
X701340Y133472D01*
X701261Y133368D01*
X701179Y133269D01*
X701166Y133242D01*
X701148Y133218D01*
X701077Y133074D01*
X701073Y133063D01*
X698787Y130777D01*
X698776Y130773D01*
X698751Y130758D01*
X698723Y130749D01*
X698613Y130679D01*
X698500Y130615D01*
X698479Y130594D01*
X698454Y130579D01*
X698365Y130484D01*
X698272Y130394D01*
X698256Y130368D01*
X698236Y130347D01*
X698173Y130233D01*
X698105Y130123D01*
X698097Y130094D01*
X698082Y130069D01*
X698050Y129943D01*
X698012Y129819D01*
X698010Y129789D01*
X698003Y129761D01*
X697993Y129600D01*
X697993Y123729D01*
X697994Y123720D01*
X697993Y123711D01*
X698014Y123562D01*
X698033Y123414D01*
X698036Y123405D01*
X698037Y123396D01*
X698089Y123243D01*
X698929Y121217D01*
X698929Y113030D01*
X698944Y112912D01*
X698951Y112793D01*
X698964Y112755D01*
X698969Y112714D01*
X699012Y112604D01*
X699049Y112491D01*
X699071Y112456D01*
X699086Y112419D01*
X699155Y112323D01*
X699219Y112222D01*
X699249Y112194D01*
X699272Y112161D01*
X699364Y112085D01*
X699451Y112004D01*
X699486Y111984D01*
X699517Y111959D01*
X699625Y111908D01*
X699729Y111850D01*
X699769Y111840D01*
X699805Y111823D01*
X699922Y111801D01*
X700037Y111771D01*
X700097Y111767D01*
X700117Y111763D01*
X700138Y111765D01*
X700198Y111761D01*
X720871Y111761D01*
X724566Y110230D01*
X724614Y110217D01*
X724659Y110196D01*
X724767Y110175D01*
X724873Y110146D01*
X724923Y110145D01*
X724972Y110136D01*
X725081Y110143D01*
G37*
G36*
X34693Y10178D02*
X34693Y10178D01*
X34832Y10191D01*
X34851Y10198D01*
X34871Y10201D01*
X35000Y10252D01*
X35132Y10299D01*
X35148Y10310D01*
X35167Y10318D01*
X35279Y10399D01*
X35395Y10477D01*
X35408Y10493D01*
X35424Y10504D01*
X35513Y10612D01*
X35605Y10716D01*
X35614Y10734D01*
X35627Y10749D01*
X35686Y10875D01*
X35750Y10999D01*
X35754Y11019D01*
X35763Y11037D01*
X35789Y11173D01*
X35819Y11309D01*
X35819Y11330D01*
X35823Y11349D01*
X35814Y11488D01*
X35810Y11627D01*
X35804Y11647D01*
X35803Y11667D01*
X35760Y11799D01*
X35721Y11933D01*
X35711Y11950D01*
X35705Y11969D01*
X35630Y12087D01*
X35560Y12207D01*
X35541Y12228D01*
X35535Y12238D01*
X35520Y12252D01*
X35453Y12327D01*
X12327Y35453D01*
X12218Y35539D01*
X12111Y35627D01*
X12092Y35636D01*
X12076Y35648D01*
X11948Y35704D01*
X11823Y35763D01*
X11803Y35767D01*
X11784Y35775D01*
X11646Y35797D01*
X11510Y35823D01*
X11490Y35821D01*
X11470Y35825D01*
X11331Y35811D01*
X11193Y35803D01*
X11174Y35797D01*
X11154Y35795D01*
X11022Y35748D01*
X10891Y35705D01*
X10873Y35694D01*
X10854Y35687D01*
X10739Y35609D01*
X10622Y35535D01*
X10608Y35520D01*
X10591Y35509D01*
X10499Y35404D01*
X10404Y35303D01*
X10394Y35285D01*
X10381Y35270D01*
X10317Y35146D01*
X10250Y35025D01*
X10245Y35005D01*
X10236Y34987D01*
X10206Y34851D01*
X10171Y34717D01*
X10169Y34689D01*
X10166Y34677D01*
X10167Y34656D01*
X10161Y34556D01*
X10161Y11430D01*
X10176Y11312D01*
X10183Y11193D01*
X10196Y11155D01*
X10201Y11114D01*
X10244Y11004D01*
X10281Y10891D01*
X10303Y10856D01*
X10318Y10819D01*
X10387Y10723D01*
X10451Y10622D01*
X10481Y10594D01*
X10504Y10561D01*
X10596Y10485D01*
X10683Y10404D01*
X10718Y10384D01*
X10749Y10359D01*
X10857Y10308D01*
X10961Y10250D01*
X11001Y10240D01*
X11037Y10223D01*
X11154Y10201D01*
X11269Y10171D01*
X11329Y10167D01*
X11349Y10163D01*
X11370Y10165D01*
X11430Y10161D01*
X34556Y10161D01*
X34693Y10178D01*
G37*
G36*
X651517Y10178D02*
X651517Y10178D01*
X651656Y10191D01*
X651675Y10198D01*
X651695Y10201D01*
X651824Y10252D01*
X651955Y10299D01*
X651972Y10310D01*
X651990Y10318D01*
X652103Y10399D01*
X652218Y10477D01*
X652232Y10493D01*
X652248Y10504D01*
X652337Y10612D01*
X652429Y10716D01*
X652438Y10734D01*
X652451Y10749D01*
X652510Y10875D01*
X652573Y10999D01*
X652578Y11019D01*
X652586Y11037D01*
X652612Y11173D01*
X652643Y11309D01*
X652642Y11330D01*
X652646Y11349D01*
X652637Y11488D01*
X652633Y11627D01*
X652627Y11647D01*
X652626Y11667D01*
X652583Y11799D01*
X652545Y11933D01*
X652534Y11950D01*
X652528Y11969D01*
X652454Y12087D01*
X652383Y12207D01*
X652365Y12228D01*
X652358Y12238D01*
X652343Y12252D01*
X652312Y12287D01*
X651071Y15283D01*
X651071Y35517D01*
X651624Y36852D01*
X651638Y36900D01*
X651659Y36945D01*
X651679Y37053D01*
X651708Y37159D01*
X651709Y37209D01*
X651718Y37258D01*
X651712Y37367D01*
X651713Y37477D01*
X651702Y37525D01*
X651699Y37575D01*
X651665Y37679D01*
X651639Y37786D01*
X651616Y37830D01*
X651601Y37877D01*
X651542Y37970D01*
X651491Y38067D01*
X651457Y38104D01*
X651431Y38146D01*
X651350Y38221D01*
X651277Y38303D01*
X651235Y38330D01*
X651199Y38364D01*
X651103Y38417D01*
X651011Y38477D01*
X650964Y38494D01*
X650920Y38518D01*
X650814Y38545D01*
X650710Y38581D01*
X650661Y38585D01*
X650612Y38597D01*
X650452Y38607D01*
X644948Y38607D01*
X644899Y38601D01*
X644849Y38603D01*
X644742Y38581D01*
X644633Y38567D01*
X644587Y38549D01*
X644538Y38539D01*
X644439Y38491D01*
X644337Y38450D01*
X644297Y38421D01*
X644252Y38399D01*
X644169Y38328D01*
X644080Y38264D01*
X644048Y38225D01*
X644010Y38193D01*
X643947Y38103D01*
X643877Y38019D01*
X643856Y37974D01*
X643827Y37933D01*
X643788Y37830D01*
X643741Y37731D01*
X643732Y37682D01*
X643714Y37636D01*
X643702Y37526D01*
X643682Y37419D01*
X643685Y37369D01*
X643679Y37320D01*
X643694Y37211D01*
X643701Y37101D01*
X643717Y37054D01*
X643724Y37005D01*
X643776Y36852D01*
X644329Y35517D01*
X644329Y15283D01*
X643083Y12276D01*
X643038Y12218D01*
X642949Y12111D01*
X642941Y12092D01*
X642928Y12076D01*
X642873Y11948D01*
X642814Y11823D01*
X642810Y11803D01*
X642802Y11784D01*
X642780Y11647D01*
X642754Y11510D01*
X642755Y11490D01*
X642752Y11470D01*
X642765Y11332D01*
X642774Y11193D01*
X642780Y11174D01*
X642782Y11154D01*
X642829Y11022D01*
X642872Y10891D01*
X642883Y10874D01*
X642889Y10854D01*
X642967Y10740D01*
X643042Y10622D01*
X643057Y10608D01*
X643068Y10591D01*
X643172Y10500D01*
X643274Y10404D01*
X643291Y10394D01*
X643306Y10381D01*
X643430Y10318D01*
X643552Y10250D01*
X643572Y10245D01*
X643590Y10236D01*
X643726Y10206D01*
X643860Y10171D01*
X643888Y10169D01*
X643900Y10166D01*
X643921Y10167D01*
X644021Y10161D01*
X651379Y10161D01*
X651517Y10178D01*
G37*
G36*
X64334Y277078D02*
X64334Y277078D01*
X64404Y277075D01*
X64491Y277093D01*
X64581Y277101D01*
X64647Y277125D01*
X64715Y277139D01*
X64796Y277178D01*
X64880Y277209D01*
X64938Y277248D01*
X65001Y277279D01*
X65069Y277337D01*
X65143Y277387D01*
X65190Y277440D01*
X65243Y277485D01*
X65294Y277558D01*
X65354Y277626D01*
X65386Y277688D01*
X65426Y277745D01*
X65458Y277829D01*
X65499Y277909D01*
X65514Y277977D01*
X65539Y278042D01*
X65549Y278132D01*
X65568Y278219D01*
X65566Y278289D01*
X65574Y278358D01*
X65561Y278447D01*
X65559Y278537D01*
X65539Y278604D01*
X65529Y278673D01*
X65477Y278826D01*
X64007Y282375D01*
X64007Y297700D01*
X63990Y297837D01*
X63977Y297976D01*
X63970Y297995D01*
X63967Y298015D01*
X63916Y298144D01*
X63869Y298276D01*
X63858Y298292D01*
X63850Y298311D01*
X63769Y298423D01*
X63691Y298539D01*
X63675Y298552D01*
X63664Y298568D01*
X63556Y298657D01*
X63452Y298749D01*
X63434Y298758D01*
X63419Y298771D01*
X63293Y298830D01*
X63169Y298894D01*
X63149Y298898D01*
X63131Y298907D01*
X62995Y298933D01*
X62859Y298963D01*
X62838Y298963D01*
X62819Y298967D01*
X62680Y298958D01*
X62541Y298954D01*
X62521Y298948D01*
X62501Y298947D01*
X62369Y298904D01*
X62235Y298865D01*
X62218Y298855D01*
X62199Y298849D01*
X62081Y298774D01*
X61961Y298704D01*
X61940Y298685D01*
X61930Y298679D01*
X61916Y298664D01*
X61841Y298597D01*
X48621Y285377D01*
X48535Y285268D01*
X48447Y285161D01*
X48438Y285142D01*
X48426Y285126D01*
X48370Y284998D01*
X48311Y284873D01*
X48307Y284853D01*
X48299Y284834D01*
X48277Y284696D01*
X48251Y284560D01*
X48253Y284540D01*
X48249Y284520D01*
X48263Y284381D01*
X48271Y284243D01*
X48277Y284224D01*
X48279Y284204D01*
X48326Y284072D01*
X48369Y283941D01*
X48380Y283923D01*
X48387Y283904D01*
X48465Y283789D01*
X48539Y283672D01*
X48554Y283658D01*
X48565Y283641D01*
X48670Y283549D01*
X48771Y283454D01*
X48789Y283444D01*
X48804Y283431D01*
X48928Y283367D01*
X49049Y283300D01*
X49069Y283295D01*
X49087Y283286D01*
X49223Y283256D01*
X49357Y283221D01*
X49385Y283219D01*
X49397Y283216D01*
X49418Y283217D01*
X49518Y283211D01*
X57639Y283211D01*
X63407Y277442D01*
X63462Y277400D01*
X63511Y277350D01*
X63587Y277303D01*
X63658Y277248D01*
X63723Y277220D01*
X63782Y277183D01*
X63868Y277157D01*
X63950Y277121D01*
X64019Y277110D01*
X64086Y277090D01*
X64175Y277085D01*
X64264Y277071D01*
X64334Y277078D01*
G37*
G36*
X132185Y202410D02*
X132185Y202410D01*
X132324Y202423D01*
X132343Y202430D01*
X132363Y202433D01*
X132492Y202484D01*
X132623Y202531D01*
X132640Y202542D01*
X132658Y202550D01*
X132771Y202631D01*
X132886Y202709D01*
X132899Y202725D01*
X132916Y202736D01*
X133004Y202844D01*
X133097Y202948D01*
X133106Y202966D01*
X133119Y202981D01*
X133178Y203107D01*
X133241Y203231D01*
X133246Y203251D01*
X133254Y203269D01*
X133280Y203406D01*
X133311Y203541D01*
X133310Y203562D01*
X133314Y203581D01*
X133305Y203720D01*
X133301Y203859D01*
X133295Y203879D01*
X133294Y203899D01*
X133251Y204031D01*
X133213Y204165D01*
X133202Y204182D01*
X133196Y204201D01*
X133122Y204319D01*
X133051Y204439D01*
X133033Y204460D01*
X133026Y204470D01*
X133011Y204484D01*
X132945Y204559D01*
X131909Y205595D01*
X130671Y208583D01*
X130671Y212560D01*
X130659Y212658D01*
X130656Y212757D01*
X130639Y212815D01*
X130631Y212875D01*
X130595Y212967D01*
X130567Y213063D01*
X130537Y213115D01*
X130514Y213171D01*
X130456Y213251D01*
X130406Y213337D01*
X130340Y213412D01*
X130328Y213428D01*
X130318Y213436D01*
X130300Y213457D01*
X122309Y221447D01*
X122200Y221533D01*
X122093Y221621D01*
X122074Y221630D01*
X122058Y221642D01*
X121930Y221698D01*
X121805Y221757D01*
X121785Y221761D01*
X121766Y221769D01*
X121628Y221791D01*
X121492Y221817D01*
X121472Y221815D01*
X121452Y221819D01*
X121313Y221805D01*
X121175Y221797D01*
X121156Y221791D01*
X121136Y221789D01*
X121004Y221742D01*
X120873Y221699D01*
X120855Y221688D01*
X120836Y221681D01*
X120721Y221603D01*
X120604Y221529D01*
X120590Y221514D01*
X120573Y221503D01*
X120481Y221398D01*
X120386Y221297D01*
X120376Y221279D01*
X120363Y221264D01*
X120299Y221140D01*
X120232Y221019D01*
X120227Y220999D01*
X120218Y220981D01*
X120188Y220845D01*
X120153Y220711D01*
X120151Y220683D01*
X120148Y220671D01*
X120149Y220650D01*
X120143Y220550D01*
X120143Y203662D01*
X120158Y203544D01*
X120165Y203425D01*
X120178Y203387D01*
X120183Y203346D01*
X120226Y203236D01*
X120263Y203123D01*
X120285Y203088D01*
X120300Y203051D01*
X120369Y202955D01*
X120433Y202854D01*
X120463Y202826D01*
X120486Y202793D01*
X120578Y202717D01*
X120665Y202636D01*
X120700Y202616D01*
X120731Y202591D01*
X120839Y202540D01*
X120943Y202482D01*
X120983Y202472D01*
X121019Y202455D01*
X121136Y202433D01*
X121251Y202403D01*
X121311Y202399D01*
X121331Y202395D01*
X121352Y202397D01*
X121412Y202393D01*
X132047Y202393D01*
X132185Y202410D01*
G37*
G36*
X33118Y261765D02*
X33118Y261765D01*
X33257Y261774D01*
X33276Y261780D01*
X33296Y261782D01*
X33428Y261829D01*
X33559Y261872D01*
X33576Y261883D01*
X33596Y261889D01*
X33710Y261967D01*
X33828Y262042D01*
X33842Y262057D01*
X33859Y262068D01*
X33950Y262172D01*
X34046Y262274D01*
X34056Y262291D01*
X34069Y262306D01*
X34132Y262430D01*
X34200Y262552D01*
X34205Y262572D01*
X34214Y262590D01*
X34244Y262726D01*
X34279Y262860D01*
X34281Y262888D01*
X34284Y262900D01*
X34283Y262921D01*
X34289Y263021D01*
X34289Y270379D01*
X34272Y270517D01*
X34271Y270521D01*
X34267Y270594D01*
X34264Y270604D01*
X34259Y270656D01*
X34252Y270675D01*
X34249Y270695D01*
X34198Y270824D01*
X34151Y270955D01*
X34140Y270972D01*
X34132Y270990D01*
X34051Y271102D01*
X33973Y271218D01*
X33957Y271232D01*
X33946Y271248D01*
X33838Y271337D01*
X33734Y271429D01*
X33716Y271438D01*
X33701Y271451D01*
X33575Y271510D01*
X33451Y271573D01*
X33431Y271578D01*
X33413Y271586D01*
X33277Y271612D01*
X33141Y271643D01*
X33120Y271642D01*
X33101Y271646D01*
X32962Y271637D01*
X32823Y271633D01*
X32803Y271627D01*
X32783Y271626D01*
X32651Y271583D01*
X32517Y271545D01*
X32500Y271534D01*
X32481Y271528D01*
X32390Y271471D01*
X32387Y271469D01*
X32378Y271463D01*
X32363Y271454D01*
X32243Y271383D01*
X32222Y271365D01*
X32212Y271358D01*
X32198Y271343D01*
X32163Y271312D01*
X29167Y270071D01*
X11430Y270071D01*
X11312Y270056D01*
X11193Y270049D01*
X11155Y270036D01*
X11114Y270031D01*
X11004Y269988D01*
X10891Y269951D01*
X10856Y269929D01*
X10819Y269914D01*
X10723Y269845D01*
X10622Y269781D01*
X10594Y269751D01*
X10561Y269728D01*
X10485Y269636D01*
X10404Y269549D01*
X10384Y269514D01*
X10359Y269483D01*
X10308Y269375D01*
X10250Y269271D01*
X10240Y269231D01*
X10223Y269195D01*
X10201Y269078D01*
X10171Y268963D01*
X10167Y268903D01*
X10163Y268883D01*
X10165Y268862D01*
X10161Y268802D01*
X10161Y264598D01*
X10176Y264480D01*
X10183Y264361D01*
X10196Y264323D01*
X10201Y264282D01*
X10244Y264172D01*
X10281Y264059D01*
X10303Y264024D01*
X10318Y263987D01*
X10387Y263891D01*
X10451Y263790D01*
X10481Y263762D01*
X10504Y263729D01*
X10596Y263653D01*
X10683Y263572D01*
X10718Y263552D01*
X10749Y263527D01*
X10857Y263476D01*
X10961Y263418D01*
X11001Y263408D01*
X11037Y263391D01*
X11154Y263369D01*
X11269Y263339D01*
X11329Y263335D01*
X11349Y263331D01*
X11370Y263333D01*
X11430Y263329D01*
X29167Y263329D01*
X32174Y262083D01*
X32232Y262038D01*
X32339Y261949D01*
X32358Y261941D01*
X32374Y261928D01*
X32502Y261873D01*
X32627Y261814D01*
X32647Y261810D01*
X32666Y261802D01*
X32803Y261780D01*
X32940Y261754D01*
X32960Y261755D01*
X32980Y261752D01*
X33118Y261765D01*
G37*
G36*
X81749Y259098D02*
X81749Y259098D01*
X81888Y259111D01*
X81907Y259118D01*
X81927Y259121D01*
X82056Y259172D01*
X82188Y259219D01*
X82204Y259230D01*
X82223Y259238D01*
X82335Y259319D01*
X82451Y259397D01*
X82464Y259413D01*
X82480Y259424D01*
X82569Y259532D01*
X82661Y259636D01*
X82670Y259654D01*
X82683Y259669D01*
X82742Y259795D01*
X82806Y259919D01*
X82810Y259939D01*
X82819Y259957D01*
X82845Y260093D01*
X82875Y260229D01*
X82875Y260250D01*
X82879Y260269D01*
X82870Y260408D01*
X82866Y260547D01*
X82860Y260567D01*
X82859Y260587D01*
X82816Y260719D01*
X82777Y260853D01*
X82767Y260870D01*
X82761Y260889D01*
X82686Y261007D01*
X82616Y261127D01*
X82597Y261148D01*
X82591Y261158D01*
X82576Y261172D01*
X82509Y261247D01*
X69477Y274279D01*
X69368Y274365D01*
X69261Y274453D01*
X69242Y274462D01*
X69226Y274474D01*
X69098Y274530D01*
X68973Y274589D01*
X68953Y274593D01*
X68934Y274601D01*
X68796Y274623D01*
X68660Y274649D01*
X68640Y274647D01*
X68620Y274651D01*
X68481Y274637D01*
X68343Y274629D01*
X68324Y274623D01*
X68304Y274621D01*
X68172Y274574D01*
X68041Y274531D01*
X68023Y274520D01*
X68004Y274513D01*
X67889Y274435D01*
X67772Y274361D01*
X67758Y274346D01*
X67741Y274335D01*
X67649Y274230D01*
X67554Y274129D01*
X67544Y274111D01*
X67531Y274096D01*
X67467Y273972D01*
X67400Y273851D01*
X67395Y273831D01*
X67386Y273813D01*
X67356Y273677D01*
X67321Y273543D01*
X67319Y273515D01*
X67316Y273503D01*
X67317Y273482D01*
X67311Y273382D01*
X67311Y260350D01*
X67326Y260232D01*
X67333Y260113D01*
X67346Y260075D01*
X67351Y260034D01*
X67394Y259924D01*
X67431Y259811D01*
X67453Y259776D01*
X67468Y259739D01*
X67537Y259643D01*
X67601Y259542D01*
X67631Y259514D01*
X67654Y259481D01*
X67746Y259405D01*
X67833Y259324D01*
X67868Y259304D01*
X67899Y259279D01*
X68007Y259228D01*
X68111Y259170D01*
X68151Y259160D01*
X68187Y259143D01*
X68304Y259121D01*
X68419Y259091D01*
X68479Y259087D01*
X68499Y259083D01*
X68520Y259085D01*
X68580Y259081D01*
X81612Y259081D01*
X81749Y259098D01*
G37*
G36*
X11501Y341740D02*
X11501Y341740D01*
X11654Y341748D01*
X11660Y341750D01*
X11667Y341750D01*
X11811Y341797D01*
X11957Y341843D01*
X11963Y341846D01*
X11969Y341848D01*
X12098Y341930D01*
X12228Y342010D01*
X12232Y342015D01*
X12238Y342019D01*
X12343Y342131D01*
X12448Y342239D01*
X12451Y342245D01*
X12456Y342250D01*
X12529Y342383D01*
X12605Y342516D01*
X12607Y342525D01*
X12610Y342529D01*
X12612Y342539D01*
X12656Y342669D01*
X13722Y346648D01*
X17166Y352613D01*
X22037Y357484D01*
X24353Y358821D01*
X24469Y358909D01*
X24587Y358994D01*
X24595Y359005D01*
X24606Y359013D01*
X24696Y359127D01*
X24790Y359239D01*
X24795Y359252D01*
X24804Y359262D01*
X24863Y359396D01*
X24925Y359527D01*
X24928Y359540D01*
X24933Y359553D01*
X24958Y359698D01*
X24985Y359840D01*
X24984Y359853D01*
X24986Y359866D01*
X24974Y360012D01*
X24965Y360157D01*
X24961Y360170D01*
X24960Y360183D01*
X24912Y360321D01*
X24867Y360459D01*
X24860Y360471D01*
X24855Y360484D01*
X24775Y360605D01*
X24697Y360728D01*
X24687Y360737D01*
X24680Y360749D01*
X24572Y360846D01*
X24465Y360946D01*
X24453Y360953D01*
X24443Y360962D01*
X24314Y361029D01*
X24187Y361100D01*
X24174Y361103D01*
X24162Y361109D01*
X24020Y361143D01*
X23879Y361179D01*
X23860Y361180D01*
X23852Y361182D01*
X23835Y361182D01*
X23718Y361189D01*
X11430Y361189D01*
X11312Y361174D01*
X11193Y361167D01*
X11155Y361154D01*
X11114Y361149D01*
X11004Y361106D01*
X10891Y361069D01*
X10856Y361047D01*
X10819Y361032D01*
X10723Y360963D01*
X10622Y360899D01*
X10594Y360869D01*
X10561Y360846D01*
X10485Y360754D01*
X10404Y360667D01*
X10384Y360632D01*
X10359Y360601D01*
X10308Y360493D01*
X10250Y360389D01*
X10240Y360349D01*
X10223Y360313D01*
X10201Y360196D01*
X10171Y360081D01*
X10167Y360021D01*
X10163Y360001D01*
X10165Y359980D01*
X10161Y359920D01*
X10161Y342997D01*
X10180Y342847D01*
X10197Y342695D01*
X10200Y342689D01*
X10201Y342682D01*
X10256Y342541D01*
X10311Y342398D01*
X10315Y342392D01*
X10318Y342386D01*
X10407Y342264D01*
X10495Y342139D01*
X10501Y342134D01*
X10504Y342129D01*
X10621Y342032D01*
X10738Y341933D01*
X10744Y341930D01*
X10749Y341926D01*
X10887Y341861D01*
X11024Y341795D01*
X11031Y341793D01*
X11037Y341790D01*
X11186Y341762D01*
X11336Y341732D01*
X11343Y341732D01*
X11349Y341731D01*
X11501Y341740D01*
G37*
G36*
X769066Y10178D02*
X769066Y10178D01*
X769205Y10191D01*
X769224Y10198D01*
X769244Y10201D01*
X769373Y10252D01*
X769504Y10299D01*
X769521Y10310D01*
X769539Y10318D01*
X769652Y10399D01*
X769767Y10477D01*
X769780Y10493D01*
X769797Y10504D01*
X769886Y10612D01*
X769977Y10716D01*
X769987Y10734D01*
X770000Y10749D01*
X770059Y10875D01*
X770122Y10999D01*
X770126Y11019D01*
X770135Y11037D01*
X770161Y11173D01*
X770192Y11309D01*
X770191Y11330D01*
X770195Y11349D01*
X770186Y11488D01*
X770182Y11627D01*
X770176Y11647D01*
X770175Y11667D01*
X770132Y11799D01*
X770094Y11933D01*
X770083Y11950D01*
X770077Y11969D01*
X770002Y12087D01*
X769932Y12207D01*
X769914Y12228D01*
X769907Y12238D01*
X769892Y12252D01*
X769826Y12327D01*
X766466Y15687D01*
X763022Y21652D01*
X762074Y25191D01*
X762017Y25331D01*
X761960Y25473D01*
X761956Y25479D01*
X761954Y25485D01*
X761863Y25608D01*
X761774Y25731D01*
X761768Y25735D01*
X761764Y25741D01*
X761646Y25836D01*
X761529Y25934D01*
X761522Y25937D01*
X761517Y25941D01*
X761379Y26004D01*
X761241Y26069D01*
X761234Y26070D01*
X761228Y26073D01*
X761078Y26100D01*
X760928Y26129D01*
X760922Y26129D01*
X760915Y26130D01*
X760762Y26119D01*
X760611Y26109D01*
X760605Y26107D01*
X760598Y26107D01*
X760452Y26058D01*
X760309Y26011D01*
X760303Y26008D01*
X760296Y26005D01*
X760168Y25922D01*
X760040Y25841D01*
X760035Y25836D01*
X760030Y25832D01*
X759926Y25720D01*
X759822Y25609D01*
X759819Y25603D01*
X759814Y25598D01*
X759741Y25463D01*
X759668Y25331D01*
X759667Y25324D01*
X759664Y25318D01*
X759627Y25170D01*
X759589Y25023D01*
X759588Y25014D01*
X759587Y25010D01*
X759587Y24999D01*
X759579Y24862D01*
X759579Y12483D01*
X759344Y11916D01*
X759331Y11868D01*
X759309Y11823D01*
X759289Y11715D01*
X759260Y11609D01*
X759259Y11559D01*
X759250Y11510D01*
X759256Y11401D01*
X759255Y11291D01*
X759266Y11243D01*
X759269Y11193D01*
X759303Y11089D01*
X759329Y10982D01*
X759352Y10938D01*
X759367Y10891D01*
X759426Y10798D01*
X759478Y10701D01*
X759511Y10664D01*
X759538Y10622D01*
X759618Y10547D01*
X759691Y10465D01*
X759733Y10438D01*
X759769Y10404D01*
X759865Y10351D01*
X759957Y10291D01*
X760004Y10274D01*
X760048Y10250D01*
X760154Y10223D01*
X760258Y10187D01*
X760308Y10183D01*
X760356Y10171D01*
X760516Y10161D01*
X768928Y10161D01*
X769066Y10178D01*
G37*
G36*
X813988Y10176D02*
X813988Y10176D01*
X814107Y10183D01*
X814145Y10196D01*
X814186Y10201D01*
X814296Y10244D01*
X814409Y10281D01*
X814444Y10303D01*
X814481Y10318D01*
X814577Y10387D01*
X814678Y10451D01*
X814706Y10481D01*
X814739Y10504D01*
X814815Y10596D01*
X814896Y10683D01*
X814916Y10718D01*
X814941Y10749D01*
X814992Y10857D01*
X815050Y10961D01*
X815060Y11001D01*
X815077Y11037D01*
X815099Y11154D01*
X815129Y11269D01*
X815133Y11329D01*
X815137Y11349D01*
X815135Y11370D01*
X815139Y11430D01*
X815139Y24556D01*
X815120Y24706D01*
X815103Y24859D01*
X815100Y24865D01*
X815099Y24872D01*
X815044Y25013D01*
X814989Y25156D01*
X814985Y25161D01*
X814982Y25167D01*
X814893Y25290D01*
X814805Y25415D01*
X814799Y25419D01*
X814796Y25425D01*
X814679Y25522D01*
X814562Y25620D01*
X814556Y25623D01*
X814551Y25628D01*
X814413Y25692D01*
X814276Y25759D01*
X814269Y25760D01*
X814263Y25763D01*
X814114Y25792D01*
X813964Y25822D01*
X813957Y25822D01*
X813951Y25823D01*
X813799Y25814D01*
X813646Y25806D01*
X813640Y25804D01*
X813633Y25803D01*
X813489Y25757D01*
X813343Y25711D01*
X813337Y25707D01*
X813331Y25705D01*
X813202Y25624D01*
X813072Y25543D01*
X813068Y25539D01*
X813062Y25535D01*
X812957Y25423D01*
X812852Y25314D01*
X812849Y25308D01*
X812844Y25303D01*
X812771Y25170D01*
X812695Y25037D01*
X812693Y25029D01*
X812690Y25025D01*
X812688Y25015D01*
X812644Y24885D01*
X811778Y21652D01*
X808334Y15687D01*
X804974Y12327D01*
X804889Y12218D01*
X804800Y12111D01*
X804792Y12092D01*
X804779Y12076D01*
X804724Y11948D01*
X804665Y11823D01*
X804661Y11803D01*
X804653Y11784D01*
X804631Y11646D01*
X804605Y11510D01*
X804606Y11490D01*
X804603Y11470D01*
X804616Y11331D01*
X804625Y11193D01*
X804631Y11174D01*
X804633Y11154D01*
X804680Y11022D01*
X804723Y10891D01*
X804734Y10873D01*
X804741Y10854D01*
X804819Y10739D01*
X804893Y10622D01*
X804908Y10608D01*
X804919Y10591D01*
X805023Y10499D01*
X805125Y10404D01*
X805142Y10394D01*
X805158Y10381D01*
X805282Y10317D01*
X805403Y10250D01*
X805423Y10245D01*
X805441Y10236D01*
X805577Y10206D01*
X805711Y10171D01*
X805739Y10169D01*
X805751Y10166D01*
X805772Y10167D01*
X805872Y10161D01*
X813870Y10161D01*
X813988Y10176D01*
G37*
G36*
X237221Y26425D02*
X237221Y26425D01*
X237291Y26424D01*
X237378Y26445D01*
X237467Y26457D01*
X237532Y26482D01*
X237600Y26499D01*
X237679Y26541D01*
X237763Y26574D01*
X237819Y26615D01*
X237881Y26647D01*
X237948Y26708D01*
X238020Y26760D01*
X238065Y26814D01*
X238116Y26861D01*
X238166Y26936D01*
X238223Y27005D01*
X238253Y27069D01*
X238291Y27127D01*
X238320Y27212D01*
X238359Y27293D01*
X238372Y27362D01*
X238394Y27428D01*
X238401Y27517D01*
X238418Y27605D01*
X238414Y27675D01*
X238420Y27745D01*
X238404Y27833D01*
X238399Y27923D01*
X238377Y27989D01*
X238365Y28058D01*
X238328Y28140D01*
X238301Y28225D01*
X238263Y28284D01*
X238235Y28348D01*
X238179Y28418D01*
X238130Y28494D01*
X238080Y28542D01*
X238036Y28596D01*
X237964Y28651D01*
X237899Y28712D01*
X237838Y28746D01*
X237782Y28788D01*
X237637Y28859D01*
X232708Y30901D01*
X229497Y34111D01*
X229403Y34184D01*
X229314Y34262D01*
X229278Y34281D01*
X229246Y34306D01*
X229137Y34353D01*
X229031Y34407D01*
X228992Y34416D01*
X228954Y34432D01*
X228837Y34451D01*
X228721Y34477D01*
X228680Y34475D01*
X228640Y34482D01*
X228522Y34471D01*
X228403Y34467D01*
X228364Y34456D01*
X228324Y34452D01*
X228211Y34412D01*
X228097Y34379D01*
X228062Y34358D01*
X228024Y34344D01*
X227926Y34277D01*
X227823Y34217D01*
X227778Y34177D01*
X227761Y34166D01*
X227748Y34151D01*
X227702Y34111D01*
X224492Y30901D01*
X219563Y28859D01*
X219502Y28824D01*
X219437Y28798D01*
X219365Y28746D01*
X219286Y28701D01*
X219236Y28653D01*
X219180Y28612D01*
X219122Y28542D01*
X219058Y28480D01*
X219022Y28420D01*
X218977Y28367D01*
X218939Y28285D01*
X218892Y28209D01*
X218871Y28142D01*
X218841Y28079D01*
X218825Y27991D01*
X218798Y27905D01*
X218795Y27835D01*
X218782Y27766D01*
X218787Y27677D01*
X218783Y27587D01*
X218797Y27519D01*
X218801Y27449D01*
X218829Y27364D01*
X218847Y27276D01*
X218878Y27213D01*
X218899Y27147D01*
X218947Y27071D01*
X218987Y26990D01*
X219032Y26937D01*
X219070Y26878D01*
X219135Y26816D01*
X219193Y26748D01*
X219250Y26708D01*
X219301Y26660D01*
X219380Y26617D01*
X219453Y26565D01*
X219519Y26540D01*
X219580Y26506D01*
X219667Y26484D01*
X219751Y26452D01*
X219820Y26444D01*
X219888Y26427D01*
X220048Y26417D01*
X237152Y26417D01*
X237221Y26425D01*
G37*
G36*
X211821Y26425D02*
X211821Y26425D01*
X211891Y26424D01*
X211978Y26445D01*
X212067Y26457D01*
X212132Y26482D01*
X212200Y26499D01*
X212279Y26541D01*
X212363Y26574D01*
X212419Y26615D01*
X212481Y26647D01*
X212548Y26708D01*
X212620Y26760D01*
X212665Y26814D01*
X212716Y26861D01*
X212766Y26936D01*
X212823Y27005D01*
X212853Y27069D01*
X212891Y27127D01*
X212920Y27212D01*
X212959Y27293D01*
X212972Y27362D01*
X212994Y27428D01*
X213001Y27517D01*
X213018Y27605D01*
X213014Y27675D01*
X213020Y27745D01*
X213004Y27833D01*
X212999Y27923D01*
X212977Y27989D01*
X212965Y28058D01*
X212928Y28140D01*
X212901Y28225D01*
X212863Y28284D01*
X212835Y28348D01*
X212779Y28418D01*
X212730Y28494D01*
X212680Y28542D01*
X212636Y28596D01*
X212564Y28651D01*
X212499Y28712D01*
X212438Y28746D01*
X212382Y28788D01*
X212237Y28859D01*
X207308Y30901D01*
X204097Y34111D01*
X204003Y34184D01*
X203914Y34262D01*
X203878Y34281D01*
X203846Y34306D01*
X203737Y34353D01*
X203631Y34407D01*
X203592Y34416D01*
X203554Y34432D01*
X203437Y34451D01*
X203321Y34477D01*
X203280Y34475D01*
X203240Y34482D01*
X203122Y34471D01*
X203003Y34467D01*
X202964Y34456D01*
X202924Y34452D01*
X202811Y34412D01*
X202697Y34379D01*
X202662Y34358D01*
X202624Y34344D01*
X202526Y34277D01*
X202423Y34217D01*
X202378Y34177D01*
X202361Y34166D01*
X202348Y34151D01*
X202302Y34111D01*
X199092Y30901D01*
X194163Y28859D01*
X194102Y28824D01*
X194037Y28798D01*
X193965Y28746D01*
X193886Y28701D01*
X193836Y28653D01*
X193780Y28612D01*
X193722Y28542D01*
X193658Y28480D01*
X193622Y28420D01*
X193577Y28367D01*
X193539Y28285D01*
X193492Y28209D01*
X193471Y28142D01*
X193441Y28079D01*
X193425Y27991D01*
X193398Y27905D01*
X193395Y27835D01*
X193382Y27766D01*
X193387Y27677D01*
X193383Y27587D01*
X193397Y27519D01*
X193401Y27449D01*
X193429Y27364D01*
X193447Y27276D01*
X193478Y27213D01*
X193499Y27147D01*
X193547Y27071D01*
X193587Y26990D01*
X193632Y26937D01*
X193670Y26878D01*
X193735Y26816D01*
X193793Y26748D01*
X193850Y26708D01*
X193901Y26660D01*
X193980Y26617D01*
X194053Y26565D01*
X194119Y26540D01*
X194180Y26506D01*
X194267Y26484D01*
X194351Y26452D01*
X194420Y26444D01*
X194488Y26427D01*
X194648Y26417D01*
X211752Y26417D01*
X211821Y26425D01*
G37*
G36*
X782201Y232696D02*
X782201Y232696D01*
X782340Y232709D01*
X782359Y232716D01*
X782379Y232719D01*
X782508Y232770D01*
X782640Y232817D01*
X782656Y232828D01*
X782675Y232836D01*
X782788Y232917D01*
X782903Y232995D01*
X782916Y233011D01*
X782932Y233022D01*
X783021Y233130D01*
X783113Y233234D01*
X783122Y233252D01*
X783135Y233267D01*
X783195Y233393D01*
X783258Y233517D01*
X783262Y233537D01*
X783271Y233555D01*
X783297Y233692D01*
X783327Y233827D01*
X783327Y233848D01*
X783331Y233867D01*
X783322Y234006D01*
X783318Y234145D01*
X783312Y234165D01*
X783311Y234185D01*
X783268Y234317D01*
X783229Y234451D01*
X783219Y234468D01*
X783213Y234487D01*
X783138Y234605D01*
X783068Y234725D01*
X783049Y234746D01*
X783043Y234756D01*
X783028Y234770D01*
X782961Y234845D01*
X780957Y236850D01*
X780879Y236910D01*
X780807Y236978D01*
X780754Y237007D01*
X780706Y237044D01*
X780615Y237084D01*
X780528Y237132D01*
X780470Y237147D01*
X780414Y237171D01*
X780316Y237186D01*
X780221Y237211D01*
X780120Y237217D01*
X780100Y237221D01*
X780088Y237219D01*
X780060Y237221D01*
X769340Y237221D01*
X769242Y237209D01*
X769143Y237206D01*
X769085Y237189D01*
X769025Y237181D01*
X768933Y237145D01*
X768837Y237117D01*
X768785Y237087D01*
X768729Y237064D01*
X768649Y237006D01*
X768563Y236956D01*
X768488Y236890D01*
X768472Y236878D01*
X768464Y236868D01*
X768443Y236850D01*
X766439Y234845D01*
X766353Y234736D01*
X766265Y234629D01*
X766256Y234610D01*
X766244Y234594D01*
X766188Y234466D01*
X766129Y234341D01*
X766125Y234321D01*
X766117Y234302D01*
X766095Y234164D01*
X766069Y234028D01*
X766071Y234008D01*
X766067Y233988D01*
X766081Y233849D01*
X766089Y233711D01*
X766095Y233692D01*
X766097Y233672D01*
X766144Y233540D01*
X766187Y233409D01*
X766198Y233391D01*
X766205Y233372D01*
X766283Y233257D01*
X766357Y233140D01*
X766372Y233126D01*
X766383Y233109D01*
X766488Y233017D01*
X766589Y232922D01*
X766607Y232912D01*
X766622Y232899D01*
X766746Y232835D01*
X766867Y232768D01*
X766887Y232763D01*
X766905Y232754D01*
X767041Y232724D01*
X767175Y232689D01*
X767203Y232687D01*
X767215Y232684D01*
X767236Y232685D01*
X767336Y232679D01*
X782064Y232679D01*
X782201Y232696D01*
G37*
G36*
X68501Y196787D02*
X68501Y196787D01*
X68639Y196796D01*
X68658Y196802D01*
X68678Y196804D01*
X68810Y196851D01*
X68941Y196894D01*
X68959Y196905D01*
X68978Y196911D01*
X69093Y196990D01*
X69210Y197064D01*
X69224Y197079D01*
X69241Y197090D01*
X69333Y197194D01*
X69428Y197296D01*
X69438Y197313D01*
X69451Y197328D01*
X69515Y197452D01*
X69582Y197574D01*
X69587Y197594D01*
X69596Y197612D01*
X69607Y197662D01*
X70909Y200805D01*
X71945Y201841D01*
X72030Y201950D01*
X72119Y202057D01*
X72127Y202076D01*
X72140Y202092D01*
X72195Y202219D01*
X72254Y202345D01*
X72258Y202365D01*
X72266Y202384D01*
X72288Y202522D01*
X72314Y202658D01*
X72313Y202678D01*
X72316Y202698D01*
X72303Y202837D01*
X72294Y202975D01*
X72288Y202994D01*
X72286Y203014D01*
X72239Y203146D01*
X72196Y203277D01*
X72185Y203295D01*
X72178Y203314D01*
X72100Y203429D01*
X72026Y203546D01*
X72011Y203560D01*
X72000Y203577D01*
X71896Y203669D01*
X71794Y203764D01*
X71777Y203774D01*
X71761Y203787D01*
X71638Y203850D01*
X71516Y203918D01*
X71496Y203923D01*
X71478Y203932D01*
X71342Y203962D01*
X71208Y203997D01*
X71180Y203999D01*
X71168Y204002D01*
X71147Y204001D01*
X71047Y204007D01*
X63707Y204007D01*
X63569Y203990D01*
X63430Y203977D01*
X63411Y203970D01*
X63391Y203967D01*
X63262Y203916D01*
X63131Y203869D01*
X63114Y203858D01*
X63095Y203850D01*
X62983Y203769D01*
X62868Y203691D01*
X62854Y203675D01*
X62838Y203664D01*
X62749Y203556D01*
X62657Y203452D01*
X62648Y203434D01*
X62635Y203419D01*
X62576Y203293D01*
X62513Y203169D01*
X62508Y203149D01*
X62500Y203131D01*
X62474Y202995D01*
X62443Y202859D01*
X62444Y202838D01*
X62440Y202819D01*
X62449Y202680D01*
X62453Y202541D01*
X62458Y202521D01*
X62460Y202501D01*
X62503Y202369D01*
X62541Y202235D01*
X62551Y202218D01*
X62558Y202199D01*
X62632Y202081D01*
X62703Y201961D01*
X62721Y201940D01*
X62728Y201930D01*
X62743Y201916D01*
X62809Y201841D01*
X67505Y197145D01*
X67614Y197060D01*
X67721Y196971D01*
X67740Y196963D01*
X67756Y196950D01*
X67884Y196895D01*
X68009Y196836D01*
X68029Y196832D01*
X68048Y196824D01*
X68186Y196802D01*
X68322Y196776D01*
X68342Y196777D01*
X68362Y196774D01*
X68501Y196787D01*
G37*
G36*
X683252Y187967D02*
X683252Y187967D01*
X683302Y187965D01*
X683409Y187987D01*
X683518Y188001D01*
X683564Y188019D01*
X683613Y188029D01*
X683712Y188077D01*
X683814Y188118D01*
X683854Y188147D01*
X683899Y188169D01*
X683982Y188240D01*
X684071Y188304D01*
X684103Y188343D01*
X684141Y188375D01*
X684204Y188465D01*
X684274Y188549D01*
X684295Y188594D01*
X684324Y188635D01*
X684363Y188738D01*
X684410Y188837D01*
X684419Y188886D01*
X684437Y188932D01*
X684449Y189042D01*
X684470Y189149D01*
X684467Y189199D01*
X684472Y189248D01*
X684457Y189357D01*
X684450Y189467D01*
X684435Y189514D01*
X684428Y189563D01*
X684376Y189716D01*
X684322Y189844D01*
X684298Y189888D01*
X684281Y189934D01*
X684219Y190025D01*
X684165Y190121D01*
X684130Y190156D01*
X684102Y190198D01*
X684020Y190270D01*
X683943Y190349D01*
X683901Y190375D01*
X683864Y190408D01*
X683766Y190458D01*
X683672Y190515D01*
X683625Y190530D01*
X683581Y190553D01*
X683473Y190577D01*
X683368Y190609D01*
X683319Y190611D01*
X683270Y190622D01*
X683161Y190619D01*
X683051Y190624D01*
X683002Y190614D01*
X682952Y190613D01*
X682847Y190582D01*
X682739Y190560D01*
X682695Y190538D01*
X682647Y190524D01*
X682552Y190468D01*
X682454Y190420D01*
X682416Y190388D01*
X682373Y190363D01*
X682252Y190256D01*
X682123Y190127D01*
X682038Y190018D01*
X681949Y189911D01*
X681941Y189892D01*
X681928Y189876D01*
X681873Y189748D01*
X681814Y189623D01*
X681810Y189603D01*
X681802Y189584D01*
X681780Y189446D01*
X681754Y189310D01*
X681755Y189290D01*
X681752Y189270D01*
X681765Y189131D01*
X681774Y188993D01*
X681780Y188974D01*
X681782Y188954D01*
X681829Y188822D01*
X681872Y188691D01*
X681883Y188673D01*
X681890Y188654D01*
X681968Y188539D01*
X682042Y188422D01*
X682057Y188408D01*
X682068Y188391D01*
X682172Y188299D01*
X682274Y188204D01*
X682291Y188194D01*
X682307Y188181D01*
X682430Y188117D01*
X682552Y188050D01*
X682572Y188045D01*
X682590Y188036D01*
X682726Y188006D01*
X682860Y187971D01*
X682888Y187969D01*
X682900Y187966D01*
X682921Y187967D01*
X683021Y187961D01*
X683203Y187961D01*
X683252Y187967D01*
G37*
D10*
X791972Y332740D02*
X779780Y332740D01*
X785876Y326644D02*
X785876Y338836D01*
X771182Y339852D02*
X766102Y343916D01*
X766102Y325628D01*
X771182Y325628D02*
X761022Y325628D01*
X747055Y343916D02*
X746922Y343914D01*
X746789Y343908D01*
X746657Y343899D01*
X746524Y343885D01*
X746392Y343868D01*
X746261Y343847D01*
X746130Y343822D01*
X746001Y343793D01*
X745872Y343760D01*
X745744Y343724D01*
X745617Y343684D01*
X745491Y343640D01*
X745367Y343593D01*
X745244Y343542D01*
X745123Y343488D01*
X745003Y343430D01*
X744885Y343368D01*
X744769Y343303D01*
X744655Y343235D01*
X744543Y343164D01*
X744433Y343089D01*
X744325Y343011D01*
X744219Y342930D01*
X744116Y342846D01*
X744016Y342759D01*
X743918Y342670D01*
X743822Y342577D01*
X743729Y342481D01*
X743640Y342383D01*
X743553Y342283D01*
X743469Y342180D01*
X743388Y342074D01*
X743310Y341966D01*
X743235Y341856D01*
X743164Y341744D01*
X743096Y341630D01*
X743031Y341514D01*
X742969Y341396D01*
X742911Y341276D01*
X742857Y341155D01*
X742806Y341032D01*
X742759Y340908D01*
X742715Y340782D01*
X742675Y340655D01*
X742639Y340527D01*
X742606Y340398D01*
X742577Y340269D01*
X742552Y340138D01*
X742531Y340007D01*
X742514Y339875D01*
X742500Y339742D01*
X742491Y339610D01*
X742485Y339477D01*
X742483Y339344D01*
X747055Y343916D02*
X747206Y343914D01*
X747356Y343908D01*
X747507Y343899D01*
X747657Y343885D01*
X747807Y343868D01*
X747956Y343846D01*
X748105Y343821D01*
X748253Y343793D01*
X748400Y343760D01*
X748546Y343724D01*
X748691Y343683D01*
X748836Y343640D01*
X748979Y343592D01*
X749120Y343541D01*
X749261Y343486D01*
X749400Y343428D01*
X749537Y343366D01*
X749673Y343300D01*
X749807Y343231D01*
X749939Y343159D01*
X750070Y343083D01*
X750198Y343004D01*
X750325Y342922D01*
X750449Y342836D01*
X750571Y342748D01*
X750690Y342656D01*
X750807Y342561D01*
X750922Y342463D01*
X751034Y342363D01*
X751144Y342259D01*
X751251Y342153D01*
X751355Y342044D01*
X751456Y341932D01*
X751555Y341818D01*
X751650Y341701D01*
X751742Y341582D01*
X751832Y341461D01*
X751918Y341337D01*
X752001Y341211D01*
X752080Y341083D01*
X752157Y340953D01*
X752230Y340821D01*
X752300Y340688D01*
X752366Y340552D01*
X752428Y340415D01*
X752487Y340276D01*
X752543Y340136D01*
X752595Y339995D01*
X752643Y339852D01*
X744007Y335788D02*
X743909Y335884D01*
X743814Y335982D01*
X743721Y336084D01*
X743632Y336187D01*
X743545Y336294D01*
X743461Y336402D01*
X743381Y336513D01*
X743303Y336626D01*
X743229Y336742D01*
X743158Y336859D01*
X743090Y336978D01*
X743026Y337099D01*
X742965Y337222D01*
X742908Y337347D01*
X742854Y337473D01*
X742803Y337600D01*
X742756Y337729D01*
X742713Y337859D01*
X742673Y337990D01*
X742637Y338123D01*
X742605Y338256D01*
X742577Y338390D01*
X742552Y338525D01*
X742531Y338661D01*
X742514Y338797D01*
X742500Y338933D01*
X742491Y339070D01*
X742485Y339207D01*
X742483Y339344D01*
X744007Y335788D02*
X752643Y325628D01*
X742483Y325628D01*
X729025Y325628D02*
X735121Y343916D01*
X722929Y343916D02*
X729025Y325628D01*
X705680Y334772D02*
X705676Y335132D01*
X705663Y335491D01*
X705641Y335850D01*
X705611Y336209D01*
X705573Y336567D01*
X705526Y336923D01*
X705470Y337279D01*
X705406Y337633D01*
X705333Y337985D01*
X705253Y338336D01*
X705163Y338684D01*
X705066Y339031D01*
X704960Y339375D01*
X704846Y339716D01*
X704724Y340054D01*
X704594Y340390D01*
X704456Y340722D01*
X704310Y341051D01*
X704156Y341376D01*
X704115Y341489D01*
X704071Y341600D01*
X704023Y341709D01*
X703972Y341817D01*
X703918Y341924D01*
X703860Y342028D01*
X703799Y342131D01*
X703734Y342232D01*
X703667Y342331D01*
X703596Y342427D01*
X703522Y342521D01*
X703446Y342613D01*
X703366Y342702D01*
X703284Y342789D01*
X703199Y342873D01*
X703111Y342954D01*
X703021Y343033D01*
X702928Y343108D01*
X702833Y343181D01*
X702736Y343250D01*
X702637Y343317D01*
X702535Y343380D01*
X702432Y343440D01*
X702326Y343496D01*
X702219Y343549D01*
X702110Y343599D01*
X702000Y343645D01*
X701889Y343688D01*
X701776Y343727D01*
X701661Y343763D01*
X701546Y343795D01*
X701430Y343823D01*
X701313Y343848D01*
X701195Y343869D01*
X701077Y343886D01*
X700958Y343899D01*
X700839Y343908D01*
X700720Y343914D01*
X700600Y343916D01*
X700480Y343914D01*
X700361Y343908D01*
X700242Y343899D01*
X700123Y343886D01*
X700005Y343869D01*
X699887Y343848D01*
X699770Y343823D01*
X699654Y343795D01*
X699539Y343763D01*
X699424Y343727D01*
X699311Y343688D01*
X699200Y343645D01*
X699090Y343599D01*
X698981Y343549D01*
X698874Y343496D01*
X698768Y343440D01*
X698665Y343380D01*
X698563Y343317D01*
X698464Y343250D01*
X698367Y343181D01*
X698272Y343108D01*
X698179Y343033D01*
X698089Y342954D01*
X698001Y342873D01*
X697916Y342789D01*
X697834Y342702D01*
X697754Y342613D01*
X697678Y342521D01*
X697604Y342427D01*
X697533Y342331D01*
X697466Y342232D01*
X697401Y342131D01*
X697340Y342028D01*
X697282Y341924D01*
X697228Y341817D01*
X697177Y341709D01*
X697129Y341600D01*
X697085Y341489D01*
X697044Y341376D01*
X697043Y341376D02*
X696889Y341051D01*
X696743Y340722D01*
X696605Y340390D01*
X696475Y340054D01*
X696353Y339716D01*
X696239Y339375D01*
X696133Y339031D01*
X696036Y338684D01*
X695946Y338336D01*
X695866Y337985D01*
X695793Y337633D01*
X695729Y337279D01*
X695673Y336923D01*
X695626Y336567D01*
X695588Y336209D01*
X695558Y335850D01*
X695536Y335491D01*
X695523Y335132D01*
X695519Y334772D01*
X705680Y334772D02*
X705676Y334412D01*
X705663Y334053D01*
X705641Y333694D01*
X705611Y333335D01*
X705573Y332977D01*
X705526Y332621D01*
X705470Y332265D01*
X705406Y331911D01*
X705333Y331559D01*
X705253Y331208D01*
X705163Y330860D01*
X705066Y330513D01*
X704960Y330169D01*
X704846Y329828D01*
X704724Y329490D01*
X704594Y329154D01*
X704456Y328822D01*
X704310Y328493D01*
X704156Y328168D01*
X704115Y328055D01*
X704071Y327944D01*
X704023Y327835D01*
X703972Y327727D01*
X703918Y327620D01*
X703860Y327516D01*
X703799Y327413D01*
X703734Y327312D01*
X703667Y327213D01*
X703596Y327117D01*
X703522Y327023D01*
X703446Y326931D01*
X703366Y326842D01*
X703284Y326755D01*
X703199Y326671D01*
X703111Y326590D01*
X703021Y326511D01*
X702928Y326436D01*
X702833Y326363D01*
X702736Y326294D01*
X702637Y326227D01*
X702535Y326164D01*
X702432Y326104D01*
X702326Y326048D01*
X702219Y325995D01*
X702110Y325945D01*
X702000Y325899D01*
X701889Y325856D01*
X701776Y325817D01*
X701661Y325781D01*
X701546Y325749D01*
X701430Y325721D01*
X701313Y325696D01*
X701195Y325675D01*
X701077Y325658D01*
X700958Y325645D01*
X700839Y325636D01*
X700720Y325630D01*
X700600Y325628D01*
X697043Y328168D02*
X696889Y328493D01*
X696743Y328822D01*
X696605Y329154D01*
X696475Y329490D01*
X696353Y329828D01*
X696239Y330169D01*
X696133Y330513D01*
X696036Y330860D01*
X695946Y331208D01*
X695866Y331559D01*
X695793Y331911D01*
X695729Y332265D01*
X695673Y332621D01*
X695626Y332977D01*
X695588Y333335D01*
X695558Y333694D01*
X695536Y334053D01*
X695523Y334412D01*
X695519Y334772D01*
X697044Y328168D02*
X697085Y328055D01*
X697129Y327944D01*
X697177Y327835D01*
X697228Y327727D01*
X697282Y327620D01*
X697340Y327516D01*
X697401Y327413D01*
X697466Y327312D01*
X697533Y327213D01*
X697604Y327117D01*
X697678Y327023D01*
X697754Y326931D01*
X697834Y326842D01*
X697916Y326755D01*
X698001Y326671D01*
X698089Y326590D01*
X698179Y326511D01*
X698272Y326436D01*
X698367Y326363D01*
X698464Y326294D01*
X698563Y326227D01*
X698665Y326164D01*
X698768Y326104D01*
X698874Y326048D01*
X698981Y325995D01*
X699090Y325945D01*
X699200Y325899D01*
X699311Y325856D01*
X699424Y325817D01*
X699539Y325781D01*
X699654Y325749D01*
X699770Y325721D01*
X699887Y325696D01*
X700005Y325675D01*
X700123Y325658D01*
X700242Y325645D01*
X700361Y325636D01*
X700480Y325630D01*
X700600Y325628D01*
X704664Y329692D02*
X696536Y339852D01*
X688131Y326644D02*
X688131Y325628D01*
X688131Y326644D02*
X687115Y326644D01*
X687115Y325628D01*
X688131Y325628D01*
X674138Y343916D02*
X674005Y343914D01*
X673872Y343908D01*
X673740Y343899D01*
X673607Y343885D01*
X673475Y343868D01*
X673344Y343847D01*
X673213Y343822D01*
X673084Y343793D01*
X672955Y343760D01*
X672827Y343724D01*
X672700Y343684D01*
X672574Y343640D01*
X672450Y343593D01*
X672327Y343542D01*
X672206Y343488D01*
X672086Y343430D01*
X671968Y343368D01*
X671852Y343303D01*
X671738Y343235D01*
X671626Y343164D01*
X671516Y343089D01*
X671408Y343011D01*
X671302Y342930D01*
X671199Y342846D01*
X671099Y342759D01*
X671001Y342670D01*
X670905Y342577D01*
X670812Y342481D01*
X670723Y342383D01*
X670636Y342283D01*
X670552Y342180D01*
X670471Y342074D01*
X670393Y341966D01*
X670318Y341856D01*
X670247Y341744D01*
X670179Y341630D01*
X670114Y341514D01*
X670052Y341396D01*
X669994Y341276D01*
X669940Y341155D01*
X669889Y341032D01*
X669842Y340908D01*
X669798Y340782D01*
X669758Y340655D01*
X669722Y340527D01*
X669689Y340398D01*
X669660Y340269D01*
X669635Y340138D01*
X669614Y340007D01*
X669597Y339875D01*
X669583Y339742D01*
X669574Y339610D01*
X669568Y339477D01*
X669566Y339344D01*
X674138Y343916D02*
X674289Y343914D01*
X674439Y343908D01*
X674590Y343899D01*
X674740Y343885D01*
X674890Y343868D01*
X675039Y343846D01*
X675188Y343821D01*
X675336Y343793D01*
X675483Y343760D01*
X675629Y343724D01*
X675774Y343683D01*
X675919Y343640D01*
X676062Y343592D01*
X676203Y343541D01*
X676344Y343486D01*
X676483Y343428D01*
X676620Y343366D01*
X676756Y343300D01*
X676890Y343231D01*
X677022Y343159D01*
X677153Y343083D01*
X677281Y343004D01*
X677408Y342922D01*
X677532Y342836D01*
X677654Y342748D01*
X677773Y342656D01*
X677890Y342561D01*
X678005Y342463D01*
X678117Y342363D01*
X678227Y342259D01*
X678334Y342153D01*
X678438Y342044D01*
X678539Y341932D01*
X678638Y341818D01*
X678733Y341701D01*
X678825Y341582D01*
X678915Y341461D01*
X679001Y341337D01*
X679084Y341211D01*
X679163Y341083D01*
X679240Y340953D01*
X679313Y340821D01*
X679383Y340688D01*
X679449Y340552D01*
X679511Y340415D01*
X679570Y340276D01*
X679626Y340136D01*
X679678Y339995D01*
X679726Y339852D01*
X671090Y335788D02*
X670992Y335884D01*
X670897Y335982D01*
X670804Y336084D01*
X670715Y336187D01*
X670628Y336294D01*
X670544Y336402D01*
X670464Y336513D01*
X670386Y336626D01*
X670312Y336742D01*
X670241Y336859D01*
X670173Y336978D01*
X670109Y337099D01*
X670048Y337222D01*
X669991Y337347D01*
X669937Y337473D01*
X669886Y337600D01*
X669839Y337729D01*
X669796Y337859D01*
X669756Y337990D01*
X669720Y338123D01*
X669688Y338256D01*
X669660Y338390D01*
X669635Y338525D01*
X669614Y338661D01*
X669597Y338797D01*
X669583Y338933D01*
X669574Y339070D01*
X669568Y339207D01*
X669566Y339344D01*
X671090Y335788D02*
X679726Y325628D01*
X669566Y325628D01*
X661188Y325628D02*
X655092Y325628D01*
X654967Y325630D01*
X654842Y325636D01*
X654717Y325645D01*
X654593Y325659D01*
X654469Y325676D01*
X654345Y325697D01*
X654223Y325722D01*
X654101Y325751D01*
X653980Y325783D01*
X653860Y325819D01*
X653741Y325859D01*
X653624Y325902D01*
X653508Y325949D01*
X653393Y326000D01*
X653281Y326054D01*
X653169Y326112D01*
X653060Y326172D01*
X652953Y326237D01*
X652847Y326304D01*
X652744Y326375D01*
X652643Y326449D01*
X652544Y326526D01*
X652448Y326606D01*
X652354Y326689D01*
X652263Y326774D01*
X652174Y326863D01*
X652089Y326954D01*
X652006Y327048D01*
X651926Y327144D01*
X651849Y327243D01*
X651775Y327344D01*
X651704Y327447D01*
X651637Y327553D01*
X651572Y327660D01*
X651512Y327769D01*
X651454Y327881D01*
X651400Y327993D01*
X651349Y328108D01*
X651302Y328224D01*
X651259Y328341D01*
X651219Y328460D01*
X651183Y328580D01*
X651151Y328701D01*
X651122Y328823D01*
X651097Y328945D01*
X651076Y329069D01*
X651059Y329193D01*
X651045Y329317D01*
X651036Y329442D01*
X651030Y329567D01*
X651028Y329692D01*
X651028Y331724D01*
X651030Y331849D01*
X651036Y331974D01*
X651045Y332099D01*
X651059Y332223D01*
X651076Y332347D01*
X651097Y332471D01*
X651122Y332593D01*
X651151Y332715D01*
X651183Y332836D01*
X651219Y332956D01*
X651259Y333075D01*
X651302Y333192D01*
X651349Y333308D01*
X651400Y333423D01*
X651454Y333535D01*
X651512Y333647D01*
X651572Y333756D01*
X651637Y333863D01*
X651704Y333969D01*
X651775Y334072D01*
X651849Y334173D01*
X651926Y334272D01*
X652006Y334368D01*
X652089Y334462D01*
X652174Y334553D01*
X652263Y334642D01*
X652354Y334727D01*
X652448Y334810D01*
X652544Y334890D01*
X652643Y334967D01*
X652744Y335041D01*
X652847Y335112D01*
X652953Y335179D01*
X653060Y335244D01*
X653169Y335304D01*
X653281Y335362D01*
X653393Y335416D01*
X653508Y335467D01*
X653624Y335514D01*
X653741Y335557D01*
X653860Y335597D01*
X653980Y335633D01*
X654101Y335665D01*
X654223Y335694D01*
X654345Y335719D01*
X654469Y335740D01*
X654593Y335757D01*
X654717Y335771D01*
X654842Y335780D01*
X654967Y335786D01*
X655092Y335788D01*
X661188Y335788D01*
X661188Y343916D01*
X651028Y343916D01*
X637569Y343916D02*
X643665Y325628D01*
X631473Y325628D02*
X637569Y343916D01*
X632997Y330200D02*
X642141Y330200D01*
X767080Y294640D02*
X779272Y294640D01*
X773176Y288544D02*
X773176Y300736D01*
D11*
X144800Y190200D03*
X144800Y216200D03*
X83800Y216200D03*
X83800Y190200D03*
D12*
X76200Y241300D03*
D13*
X76200Y317500D03*
D14*
X191450Y76200D03*
X214950Y76200D03*
D15*
X514350Y311150D03*
X565150Y311150D03*
D16*
X698500Y197800D03*
X698500Y221300D03*
D17*
X685800Y146050D03*
D18*
X685800Y171450D03*
D14*
X697550Y69850D03*
X674050Y69850D03*
D19*
X247650Y175250D03*
X247650Y129900D03*
D20*
X283718Y177800D02*
X300482Y177800D01*
X398018Y177800D02*
X414782Y177800D01*
D19*
X666750Y205750D03*
X666750Y251100D03*
D21*
X190500Y57840D02*
X190500Y43760D01*
X215900Y43760D02*
X215900Y57840D01*
X241300Y57840D02*
X241300Y43760D01*
X266700Y43760D02*
X266700Y57840D01*
X266700Y119960D02*
X266700Y134040D01*
X215900Y134040D02*
X215900Y119960D01*
X190500Y119960D02*
X190500Y134040D01*
X596900Y25400D02*
X610980Y25400D01*
X610980Y50800D02*
X596900Y50800D01*
X520700Y50800D02*
X506620Y50800D01*
X506620Y25400D02*
X520700Y25400D01*
D22*
X50800Y266700D03*
X50800Y190500D03*
D23*
X742950Y113000D03*
X742950Y77500D03*
X19050Y113000D03*
X19050Y77500D03*
X19050Y170150D03*
X19050Y134650D03*
X19050Y284450D03*
X19050Y248950D03*
X19050Y227300D03*
X19050Y191800D03*
X698500Y236250D03*
X698500Y271750D03*
D24*
X680750Y25400D03*
X716250Y25400D03*
X629950Y25400D03*
X665450Y25400D03*
D23*
X742950Y55850D03*
X742950Y20350D03*
D25*
X456100Y101600D03*
X456100Y152400D03*
X456100Y203200D03*
X456100Y254000D03*
X636100Y254000D03*
X636100Y203200D03*
X636100Y152400D03*
X636100Y101600D03*
D26*
X685800Y112600D03*
X676300Y90600D03*
X695300Y90600D03*
D27*
X88900Y50800D03*
X88900Y127000D03*
D28*
X774700Y158750D03*
X774700Y209550D03*
X774700Y260350D03*
D29*
X50800Y190500D02*
X50800Y88900D01*
X88900Y50800D01*
X144800Y216200D02*
X76200Y284800D01*
X76200Y317500D01*
X392600Y317500D02*
X456100Y254000D01*
X392600Y317500D02*
X76200Y317500D01*
X406400Y204300D02*
X406400Y177800D01*
X406400Y204300D02*
X456100Y254000D01*
X514350Y311150D02*
X508000Y317500D01*
X392600Y317500D01*
X30450Y284450D02*
X19050Y284450D01*
X63500Y317500D02*
X76200Y317500D01*
X63500Y317500D02*
X30450Y284450D01*
X76200Y241300D02*
X95250Y241300D01*
X107950Y228600D01*
X107950Y196850D01*
X114600Y190200D02*
X144800Y190200D01*
X114600Y190200D02*
X107950Y196850D01*
X323850Y50800D02*
X520700Y50800D01*
X323850Y50800D02*
X298450Y76200D01*
X234950Y76200D01*
X214950Y76200D01*
X214950Y51750D02*
X215900Y50800D01*
X214950Y51750D02*
X214950Y76200D01*
X241300Y69850D02*
X241300Y50800D01*
X241300Y69850D02*
X234950Y76200D01*
X214950Y76200D02*
X214950Y88900D01*
X214950Y126050D01*
X215900Y127000D01*
X190500Y127000D02*
X190500Y144500D01*
X215900Y127000D02*
X215900Y171450D01*
X196850Y190500D01*
X196550Y190200D01*
X171450Y190200D01*
X144800Y190200D01*
X190500Y171150D02*
X190500Y127000D01*
X190500Y171150D02*
X171450Y190200D01*
X190500Y127000D02*
X190500Y113350D01*
X214950Y88900D01*
X247650Y129900D02*
X269600Y129900D01*
X266700Y127000D01*
X292100Y101600D02*
X456100Y101600D01*
X292100Y101600D02*
X266700Y127000D01*
X247650Y175250D02*
X289550Y175250D01*
X292100Y177800D01*
X19050Y134650D02*
X19050Y113000D01*
X19050Y227300D02*
X19050Y248950D01*
X19050Y77500D02*
X19050Y45974D01*
X50800Y14224D01*
X249174Y14224D01*
X266700Y31750D01*
X266700Y50800D01*
X509524Y14224D02*
X520700Y25400D01*
X509524Y14224D02*
X249174Y14224D01*
X19050Y170150D02*
X19050Y191800D01*
X190500Y75250D02*
X190500Y50800D01*
X190500Y75250D02*
X191450Y76200D01*
X565150Y172550D02*
X565150Y311150D01*
X565150Y172550D02*
X636100Y101600D01*
X680550Y146050D01*
X685800Y146050D01*
X685800Y112600D01*
X709900Y146050D02*
X742950Y113000D01*
X709900Y146050D02*
X685800Y146050D01*
X762000Y146050D02*
X774700Y158750D01*
X762000Y146050D02*
X685800Y146050D01*
X687400Y271750D02*
X698500Y271750D01*
X687400Y271750D02*
X666750Y251100D01*
X639000Y251100D01*
X636100Y254000D01*
X698500Y236250D02*
X698500Y221300D01*
X690550Y205750D02*
X666750Y205750D01*
X690550Y205750D02*
X698500Y197800D01*
X721300Y20350D02*
X742950Y20350D01*
X721300Y20350D02*
X716250Y25400D01*
X666750Y184150D02*
X666750Y205750D01*
X666750Y184150D02*
X679450Y171450D01*
X685800Y171450D01*
X730250Y215900D02*
X774700Y260350D01*
X730250Y215900D02*
X730250Y184150D01*
X717550Y171450D01*
X685800Y171450D01*
X774700Y260350D02*
X800100Y234950D01*
X742950Y30043D02*
X742950Y20350D01*
X742950Y30043D02*
X800100Y87193D01*
X800100Y234950D01*
X692150Y50800D02*
X596900Y50800D01*
X692150Y50800D02*
X698500Y57150D01*
X697550Y58100D01*
X697550Y69850D01*
X697550Y88350D02*
X695300Y90600D01*
X697550Y88350D02*
X697550Y69850D01*
X680750Y25400D02*
X665450Y25400D01*
X629950Y25400D02*
X596900Y25400D01*
X742950Y55850D02*
X742950Y77500D01*
X674050Y69850D02*
X674050Y88350D01*
X676300Y90600D01*
D30*
X676300Y92100D01*
X685800Y101600D01*
X718850Y101600D01*
X742950Y77500D01*
D29*
X83800Y216200D02*
X63200Y216200D01*
X50800Y228600D01*
X50800Y266700D01*
X88900Y185100D02*
X88900Y127000D01*
X88900Y185100D02*
X83800Y190200D01*
M02*
