G04 EAGLE Gerber X2 export*
%TF.Part,Single*%
%TF.FileFunction,Legend,Top,1*%
%TF.FilePolarity,Positive*%
%TF.GenerationSoftware,Autodesk,EAGLE,8.6.0*%
%TF.CreationDate,2018-01-28T12:16:18Z*%
G75*
%MOMM*%
%FSLAX34Y34*%
%LPD*%
%AMOC8*
5,1,8,0,0,1.08239X$1,22.5*%
G01*
%ADD10C,0.152400*%
%ADD11C,0.304800*%
%ADD12C,0.127000*%
%ADD13R,2.540000X0.508000*%
%ADD14R,0.635000X3.556000*%
%ADD15R,1.397000X0.762000*%
%ADD16C,0.609600*%
%ADD17C,1.270000*%
%ADD18C,0.254000*%
%ADD19C,0.101600*%


D10*
X-518160Y317500D02*
X-518162Y317640D01*
X-518168Y317780D01*
X-518177Y317920D01*
X-518191Y318059D01*
X-518208Y318198D01*
X-518229Y318336D01*
X-518254Y318474D01*
X-518283Y318611D01*
X-518315Y318747D01*
X-518352Y318882D01*
X-518392Y319016D01*
X-518435Y319149D01*
X-518483Y319281D01*
X-518533Y319412D01*
X-518588Y319541D01*
X-518646Y319668D01*
X-518707Y319794D01*
X-518772Y319918D01*
X-518841Y320040D01*
X-518912Y320160D01*
X-518987Y320278D01*
X-519065Y320395D01*
X-519147Y320509D01*
X-519231Y320620D01*
X-519319Y320729D01*
X-519409Y320836D01*
X-519503Y320941D01*
X-519599Y321042D01*
X-519698Y321141D01*
X-519799Y321237D01*
X-519904Y321331D01*
X-520011Y321421D01*
X-520120Y321509D01*
X-520231Y321593D01*
X-520345Y321675D01*
X-520462Y321753D01*
X-520580Y321828D01*
X-520700Y321899D01*
X-520822Y321968D01*
X-520946Y322033D01*
X-521072Y322094D01*
X-521199Y322152D01*
X-521328Y322207D01*
X-521459Y322257D01*
X-521591Y322305D01*
X-521724Y322348D01*
X-521858Y322388D01*
X-521993Y322425D01*
X-522129Y322457D01*
X-522266Y322486D01*
X-522404Y322511D01*
X-522542Y322532D01*
X-522681Y322549D01*
X-522820Y322563D01*
X-522960Y322572D01*
X-523100Y322578D01*
X-523240Y322580D01*
X-518160Y304800D02*
X-518162Y304660D01*
X-518168Y304520D01*
X-518177Y304380D01*
X-518191Y304241D01*
X-518208Y304102D01*
X-518229Y303964D01*
X-518254Y303826D01*
X-518283Y303689D01*
X-518315Y303553D01*
X-518352Y303418D01*
X-518392Y303284D01*
X-518435Y303151D01*
X-518483Y303019D01*
X-518533Y302888D01*
X-518588Y302759D01*
X-518646Y302632D01*
X-518707Y302506D01*
X-518772Y302382D01*
X-518841Y302260D01*
X-518912Y302140D01*
X-518987Y302022D01*
X-519065Y301905D01*
X-519147Y301791D01*
X-519231Y301680D01*
X-519319Y301571D01*
X-519409Y301464D01*
X-519503Y301359D01*
X-519599Y301258D01*
X-519698Y301159D01*
X-519799Y301063D01*
X-519904Y300969D01*
X-520011Y300879D01*
X-520120Y300791D01*
X-520231Y300707D01*
X-520345Y300625D01*
X-520462Y300547D01*
X-520580Y300472D01*
X-520700Y300401D01*
X-520822Y300332D01*
X-520946Y300267D01*
X-521072Y300206D01*
X-521199Y300148D01*
X-521328Y300093D01*
X-521459Y300043D01*
X-521591Y299995D01*
X-521724Y299952D01*
X-521858Y299912D01*
X-521993Y299875D01*
X-522129Y299843D01*
X-522266Y299814D01*
X-522404Y299789D01*
X-522542Y299768D01*
X-522681Y299751D01*
X-522820Y299737D01*
X-522960Y299728D01*
X-523100Y299722D01*
X-523240Y299720D01*
X-523240Y322580D02*
X-556260Y322580D01*
X-556260Y299720D02*
X-523240Y299720D01*
X-556260Y322580D02*
X-556400Y322578D01*
X-556540Y322572D01*
X-556680Y322563D01*
X-556819Y322549D01*
X-556958Y322532D01*
X-557096Y322511D01*
X-557234Y322486D01*
X-557371Y322457D01*
X-557507Y322425D01*
X-557642Y322388D01*
X-557776Y322348D01*
X-557909Y322305D01*
X-558041Y322257D01*
X-558172Y322207D01*
X-558301Y322152D01*
X-558428Y322094D01*
X-558554Y322033D01*
X-558678Y321968D01*
X-558800Y321899D01*
X-558920Y321828D01*
X-559038Y321753D01*
X-559155Y321675D01*
X-559269Y321593D01*
X-559380Y321509D01*
X-559489Y321421D01*
X-559596Y321331D01*
X-559701Y321237D01*
X-559802Y321141D01*
X-559901Y321042D01*
X-559997Y320941D01*
X-560091Y320836D01*
X-560181Y320729D01*
X-560269Y320620D01*
X-560353Y320509D01*
X-560435Y320395D01*
X-560513Y320278D01*
X-560588Y320160D01*
X-560659Y320040D01*
X-560728Y319918D01*
X-560793Y319794D01*
X-560854Y319668D01*
X-560912Y319541D01*
X-560967Y319412D01*
X-561017Y319281D01*
X-561065Y319149D01*
X-561108Y319016D01*
X-561148Y318882D01*
X-561185Y318747D01*
X-561217Y318611D01*
X-561246Y318474D01*
X-561271Y318336D01*
X-561292Y318198D01*
X-561309Y318059D01*
X-561323Y317920D01*
X-561332Y317780D01*
X-561338Y317640D01*
X-561340Y317500D01*
X-561340Y304800D02*
X-561338Y304660D01*
X-561332Y304520D01*
X-561323Y304380D01*
X-561309Y304241D01*
X-561292Y304102D01*
X-561271Y303964D01*
X-561246Y303826D01*
X-561217Y303689D01*
X-561185Y303553D01*
X-561148Y303418D01*
X-561108Y303284D01*
X-561065Y303151D01*
X-561017Y303019D01*
X-560967Y302888D01*
X-560912Y302759D01*
X-560854Y302632D01*
X-560793Y302506D01*
X-560728Y302382D01*
X-560659Y302260D01*
X-560588Y302140D01*
X-560513Y302022D01*
X-560435Y301905D01*
X-560353Y301791D01*
X-560269Y301680D01*
X-560181Y301571D01*
X-560091Y301464D01*
X-559997Y301359D01*
X-559901Y301258D01*
X-559802Y301159D01*
X-559701Y301063D01*
X-559596Y300969D01*
X-559489Y300879D01*
X-559380Y300791D01*
X-559269Y300707D01*
X-559155Y300625D01*
X-559038Y300547D01*
X-558920Y300472D01*
X-558800Y300401D01*
X-558678Y300332D01*
X-558554Y300267D01*
X-558428Y300206D01*
X-558301Y300148D01*
X-558172Y300093D01*
X-558041Y300043D01*
X-557909Y299995D01*
X-557776Y299952D01*
X-557642Y299912D01*
X-557507Y299875D01*
X-557371Y299843D01*
X-557234Y299814D01*
X-557096Y299789D01*
X-556958Y299768D01*
X-556819Y299751D01*
X-556680Y299737D01*
X-556540Y299728D01*
X-556400Y299722D01*
X-556260Y299720D01*
D11*
X-536702Y311150D02*
X-536702Y318770D01*
X-536702Y311150D02*
X-536702Y303530D01*
X-543052Y311150D02*
X-543052Y318770D01*
X-543052Y311150D02*
X-543052Y303530D01*
D10*
X-543052Y311150D02*
X-552450Y311150D01*
X-536702Y311150D02*
X-527050Y311150D01*
D12*
X-523875Y325755D02*
X-521335Y325755D01*
X-521235Y325757D01*
X-521136Y325763D01*
X-521036Y325773D01*
X-520938Y325786D01*
X-520839Y325804D01*
X-520742Y325825D01*
X-520646Y325850D01*
X-520550Y325879D01*
X-520456Y325912D01*
X-520363Y325948D01*
X-520272Y325988D01*
X-520182Y326032D01*
X-520094Y326079D01*
X-520008Y326129D01*
X-519924Y326183D01*
X-519842Y326240D01*
X-519763Y326300D01*
X-519685Y326364D01*
X-519611Y326430D01*
X-519539Y326499D01*
X-519470Y326571D01*
X-519404Y326645D01*
X-519340Y326723D01*
X-519280Y326802D01*
X-519223Y326884D01*
X-519169Y326968D01*
X-519119Y327054D01*
X-519072Y327142D01*
X-519028Y327232D01*
X-518988Y327323D01*
X-518952Y327416D01*
X-518919Y327510D01*
X-518890Y327606D01*
X-518865Y327702D01*
X-518844Y327799D01*
X-518826Y327898D01*
X-518813Y327996D01*
X-518803Y328096D01*
X-518797Y328195D01*
X-518795Y328295D01*
X-518795Y334645D01*
X-518797Y334745D01*
X-518803Y334844D01*
X-518813Y334944D01*
X-518826Y335042D01*
X-518844Y335141D01*
X-518865Y335238D01*
X-518890Y335334D01*
X-518919Y335430D01*
X-518952Y335524D01*
X-518988Y335617D01*
X-519028Y335708D01*
X-519072Y335798D01*
X-519119Y335886D01*
X-519169Y335972D01*
X-519223Y336056D01*
X-519280Y336138D01*
X-519340Y336217D01*
X-519404Y336295D01*
X-519470Y336369D01*
X-519539Y336441D01*
X-519611Y336510D01*
X-519685Y336576D01*
X-519763Y336640D01*
X-519842Y336700D01*
X-519924Y336757D01*
X-520008Y336811D01*
X-520094Y336861D01*
X-520182Y336908D01*
X-520272Y336952D01*
X-520363Y336992D01*
X-520456Y337028D01*
X-520550Y337061D01*
X-520646Y337090D01*
X-520742Y337115D01*
X-520839Y337136D01*
X-520938Y337154D01*
X-521036Y337167D01*
X-521136Y337177D01*
X-521235Y337183D01*
X-521335Y337185D01*
X-523875Y337185D01*
X-528357Y325755D02*
X-531532Y325755D01*
X-531643Y325757D01*
X-531753Y325763D01*
X-531864Y325772D01*
X-531974Y325786D01*
X-532083Y325803D01*
X-532192Y325824D01*
X-532300Y325849D01*
X-532407Y325878D01*
X-532513Y325910D01*
X-532618Y325946D01*
X-532721Y325986D01*
X-532823Y326029D01*
X-532924Y326076D01*
X-533023Y326127D01*
X-533120Y326180D01*
X-533214Y326237D01*
X-533307Y326298D01*
X-533398Y326361D01*
X-533487Y326428D01*
X-533573Y326498D01*
X-533656Y326571D01*
X-533738Y326646D01*
X-533816Y326724D01*
X-533891Y326806D01*
X-533964Y326889D01*
X-534034Y326975D01*
X-534101Y327064D01*
X-534164Y327155D01*
X-534225Y327248D01*
X-534282Y327343D01*
X-534335Y327439D01*
X-534386Y327538D01*
X-534433Y327639D01*
X-534476Y327741D01*
X-534516Y327844D01*
X-534552Y327949D01*
X-534584Y328055D01*
X-534613Y328162D01*
X-534638Y328270D01*
X-534659Y328379D01*
X-534676Y328488D01*
X-534690Y328598D01*
X-534699Y328709D01*
X-534705Y328819D01*
X-534707Y328930D01*
X-534705Y329041D01*
X-534699Y329151D01*
X-534690Y329262D01*
X-534676Y329372D01*
X-534659Y329481D01*
X-534638Y329590D01*
X-534613Y329698D01*
X-534584Y329805D01*
X-534552Y329911D01*
X-534516Y330016D01*
X-534476Y330119D01*
X-534433Y330221D01*
X-534386Y330322D01*
X-534335Y330421D01*
X-534282Y330518D01*
X-534225Y330612D01*
X-534164Y330705D01*
X-534101Y330796D01*
X-534034Y330885D01*
X-533964Y330971D01*
X-533891Y331054D01*
X-533816Y331136D01*
X-533738Y331214D01*
X-533656Y331289D01*
X-533573Y331362D01*
X-533487Y331432D01*
X-533398Y331499D01*
X-533307Y331562D01*
X-533214Y331623D01*
X-533120Y331680D01*
X-533023Y331733D01*
X-532924Y331784D01*
X-532823Y331831D01*
X-532721Y331874D01*
X-532618Y331914D01*
X-532513Y331950D01*
X-532407Y331982D01*
X-532300Y332011D01*
X-532192Y332036D01*
X-532083Y332057D01*
X-531974Y332074D01*
X-531864Y332088D01*
X-531753Y332097D01*
X-531643Y332103D01*
X-531532Y332105D01*
X-532167Y337185D02*
X-528357Y337185D01*
X-532167Y337185D02*
X-532267Y337183D01*
X-532366Y337177D01*
X-532466Y337167D01*
X-532564Y337154D01*
X-532663Y337136D01*
X-532760Y337115D01*
X-532856Y337090D01*
X-532952Y337061D01*
X-533046Y337028D01*
X-533139Y336992D01*
X-533230Y336952D01*
X-533320Y336908D01*
X-533408Y336861D01*
X-533494Y336811D01*
X-533578Y336757D01*
X-533660Y336700D01*
X-533739Y336640D01*
X-533817Y336576D01*
X-533891Y336510D01*
X-533963Y336441D01*
X-534032Y336369D01*
X-534098Y336295D01*
X-534162Y336217D01*
X-534222Y336138D01*
X-534279Y336056D01*
X-534333Y335972D01*
X-534383Y335886D01*
X-534430Y335798D01*
X-534474Y335708D01*
X-534514Y335617D01*
X-534550Y335524D01*
X-534583Y335430D01*
X-534612Y335334D01*
X-534637Y335238D01*
X-534658Y335141D01*
X-534676Y335042D01*
X-534689Y334944D01*
X-534699Y334844D01*
X-534705Y334745D01*
X-534707Y334645D01*
X-534705Y334545D01*
X-534699Y334446D01*
X-534689Y334346D01*
X-534676Y334248D01*
X-534658Y334149D01*
X-534637Y334052D01*
X-534612Y333956D01*
X-534583Y333860D01*
X-534550Y333766D01*
X-534514Y333673D01*
X-534474Y333582D01*
X-534430Y333492D01*
X-534383Y333404D01*
X-534333Y333318D01*
X-534279Y333234D01*
X-534222Y333152D01*
X-534162Y333073D01*
X-534098Y332995D01*
X-534032Y332921D01*
X-533963Y332849D01*
X-533891Y332780D01*
X-533817Y332714D01*
X-533739Y332650D01*
X-533660Y332590D01*
X-533578Y332533D01*
X-533494Y332479D01*
X-533408Y332429D01*
X-533320Y332382D01*
X-533230Y332338D01*
X-533139Y332298D01*
X-533046Y332262D01*
X-532952Y332229D01*
X-532856Y332200D01*
X-532760Y332175D01*
X-532663Y332154D01*
X-532564Y332136D01*
X-532466Y332123D01*
X-532366Y332113D01*
X-532267Y332107D01*
X-532167Y332105D01*
X-529627Y332105D01*
D10*
X-685800Y189230D02*
X-685800Y181610D01*
X-681990Y185420D02*
X-689610Y185420D01*
X-685800Y175260D02*
X-685800Y166370D01*
X-685800Y152400D02*
X-685800Y142240D01*
X-720090Y158750D02*
X-720080Y159592D01*
X-720049Y160433D01*
X-719997Y161273D01*
X-719925Y162111D01*
X-719832Y162947D01*
X-719719Y163781D01*
X-719585Y164612D01*
X-719431Y165440D01*
X-719257Y166263D01*
X-719062Y167082D01*
X-718848Y167896D01*
X-718613Y168704D01*
X-718359Y169506D01*
X-718086Y170302D01*
X-717792Y171091D01*
X-717480Y171872D01*
X-717148Y172646D01*
X-716798Y173411D01*
X-716429Y174167D01*
X-716041Y174914D01*
X-715635Y175651D01*
X-715212Y176379D01*
X-714770Y177095D01*
X-714311Y177801D01*
X-713835Y178494D01*
X-713342Y179177D01*
X-712832Y179846D01*
X-712307Y180503D01*
X-711765Y181147D01*
X-711207Y181778D01*
X-710634Y182394D01*
X-710047Y182997D01*
X-709444Y183584D01*
X-708828Y184157D01*
X-708197Y184715D01*
X-707553Y185257D01*
X-706896Y185782D01*
X-706227Y186292D01*
X-705544Y186785D01*
X-704851Y187261D01*
X-704145Y187720D01*
X-703429Y188162D01*
X-702701Y188585D01*
X-701964Y188991D01*
X-701217Y189379D01*
X-700461Y189748D01*
X-699696Y190098D01*
X-698922Y190430D01*
X-698141Y190742D01*
X-697352Y191036D01*
X-696556Y191309D01*
X-695754Y191563D01*
X-694946Y191798D01*
X-694132Y192012D01*
X-693313Y192207D01*
X-692490Y192381D01*
X-691662Y192535D01*
X-690831Y192669D01*
X-689997Y192782D01*
X-689161Y192875D01*
X-688323Y192947D01*
X-687483Y192999D01*
X-686642Y193030D01*
X-685800Y193040D01*
X-684958Y193030D01*
X-684117Y192999D01*
X-683277Y192947D01*
X-682439Y192875D01*
X-681603Y192782D01*
X-680769Y192669D01*
X-679938Y192535D01*
X-679110Y192381D01*
X-678287Y192207D01*
X-677468Y192012D01*
X-676654Y191798D01*
X-675846Y191563D01*
X-675044Y191309D01*
X-674248Y191036D01*
X-673459Y190742D01*
X-672678Y190430D01*
X-671904Y190098D01*
X-671139Y189748D01*
X-670383Y189379D01*
X-669636Y188991D01*
X-668899Y188585D01*
X-668171Y188162D01*
X-667455Y187720D01*
X-666749Y187261D01*
X-666056Y186785D01*
X-665373Y186292D01*
X-664704Y185782D01*
X-664047Y185257D01*
X-663403Y184715D01*
X-662772Y184157D01*
X-662156Y183584D01*
X-661553Y182997D01*
X-660966Y182394D01*
X-660393Y181778D01*
X-659835Y181147D01*
X-659293Y180503D01*
X-658768Y179846D01*
X-658258Y179177D01*
X-657765Y178494D01*
X-657289Y177801D01*
X-656830Y177095D01*
X-656388Y176379D01*
X-655965Y175651D01*
X-655559Y174914D01*
X-655171Y174167D01*
X-654802Y173411D01*
X-654452Y172646D01*
X-654120Y171872D01*
X-653808Y171091D01*
X-653514Y170302D01*
X-653241Y169506D01*
X-652987Y168704D01*
X-652752Y167896D01*
X-652538Y167082D01*
X-652343Y166263D01*
X-652169Y165440D01*
X-652015Y164612D01*
X-651881Y163781D01*
X-651768Y162947D01*
X-651675Y162111D01*
X-651603Y161273D01*
X-651551Y160433D01*
X-651520Y159592D01*
X-651510Y158750D01*
X-651520Y157908D01*
X-651551Y157067D01*
X-651603Y156227D01*
X-651675Y155389D01*
X-651768Y154553D01*
X-651881Y153719D01*
X-652015Y152888D01*
X-652169Y152060D01*
X-652343Y151237D01*
X-652538Y150418D01*
X-652752Y149604D01*
X-652987Y148796D01*
X-653241Y147994D01*
X-653514Y147198D01*
X-653808Y146409D01*
X-654120Y145628D01*
X-654452Y144854D01*
X-654802Y144089D01*
X-655171Y143333D01*
X-655559Y142586D01*
X-655965Y141849D01*
X-656388Y141121D01*
X-656830Y140405D01*
X-657289Y139699D01*
X-657765Y139006D01*
X-658258Y138323D01*
X-658768Y137654D01*
X-659293Y136997D01*
X-659835Y136353D01*
X-660393Y135722D01*
X-660966Y135106D01*
X-661553Y134503D01*
X-662156Y133916D01*
X-662772Y133343D01*
X-663403Y132785D01*
X-664047Y132243D01*
X-664704Y131718D01*
X-665373Y131208D01*
X-666056Y130715D01*
X-666749Y130239D01*
X-667455Y129780D01*
X-668171Y129338D01*
X-668899Y128915D01*
X-669636Y128509D01*
X-670383Y128121D01*
X-671139Y127752D01*
X-671904Y127402D01*
X-672678Y127070D01*
X-673459Y126758D01*
X-674248Y126464D01*
X-675044Y126191D01*
X-675846Y125937D01*
X-676654Y125702D01*
X-677468Y125488D01*
X-678287Y125293D01*
X-679110Y125119D01*
X-679938Y124965D01*
X-680769Y124831D01*
X-681603Y124718D01*
X-682439Y124625D01*
X-683277Y124553D01*
X-684117Y124501D01*
X-684958Y124470D01*
X-685800Y124460D01*
X-686642Y124470D01*
X-687483Y124501D01*
X-688323Y124553D01*
X-689161Y124625D01*
X-689997Y124718D01*
X-690831Y124831D01*
X-691662Y124965D01*
X-692490Y125119D01*
X-693313Y125293D01*
X-694132Y125488D01*
X-694946Y125702D01*
X-695754Y125937D01*
X-696556Y126191D01*
X-697352Y126464D01*
X-698141Y126758D01*
X-698922Y127070D01*
X-699696Y127402D01*
X-700461Y127752D01*
X-701217Y128121D01*
X-701964Y128509D01*
X-702701Y128915D01*
X-703429Y129338D01*
X-704145Y129780D01*
X-704851Y130239D01*
X-705544Y130715D01*
X-706227Y131208D01*
X-706896Y131718D01*
X-707553Y132243D01*
X-708197Y132785D01*
X-708828Y133343D01*
X-709444Y133916D01*
X-710047Y134503D01*
X-710634Y135106D01*
X-711207Y135722D01*
X-711765Y136353D01*
X-712307Y136997D01*
X-712832Y137654D01*
X-713342Y138323D01*
X-713835Y139006D01*
X-714311Y139699D01*
X-714770Y140405D01*
X-715212Y141121D01*
X-715635Y141849D01*
X-716041Y142586D01*
X-716429Y143333D01*
X-716798Y144089D01*
X-717148Y144854D01*
X-717480Y145628D01*
X-717792Y146409D01*
X-718086Y147198D01*
X-718359Y147994D01*
X-718613Y148796D01*
X-718848Y149604D01*
X-719062Y150418D01*
X-719257Y151237D01*
X-719431Y152060D01*
X-719585Y152888D01*
X-719719Y153719D01*
X-719832Y154553D01*
X-719925Y155389D01*
X-719997Y156227D01*
X-720049Y157067D01*
X-720080Y157908D01*
X-720090Y158750D01*
D12*
X-718185Y116803D02*
X-718185Y114263D01*
X-718183Y114163D01*
X-718177Y114064D01*
X-718167Y113964D01*
X-718154Y113866D01*
X-718136Y113767D01*
X-718115Y113670D01*
X-718090Y113574D01*
X-718061Y113478D01*
X-718028Y113384D01*
X-717992Y113291D01*
X-717952Y113200D01*
X-717908Y113110D01*
X-717861Y113022D01*
X-717811Y112936D01*
X-717757Y112852D01*
X-717700Y112770D01*
X-717640Y112691D01*
X-717576Y112613D01*
X-717510Y112539D01*
X-717441Y112467D01*
X-717369Y112398D01*
X-717295Y112332D01*
X-717217Y112268D01*
X-717138Y112208D01*
X-717056Y112151D01*
X-716972Y112097D01*
X-716886Y112047D01*
X-716798Y112000D01*
X-716708Y111956D01*
X-716617Y111916D01*
X-716524Y111880D01*
X-716430Y111847D01*
X-716334Y111818D01*
X-716238Y111793D01*
X-716141Y111772D01*
X-716042Y111754D01*
X-715944Y111741D01*
X-715844Y111731D01*
X-715745Y111725D01*
X-715645Y111723D01*
X-709295Y111723D01*
X-709195Y111725D01*
X-709096Y111731D01*
X-708996Y111741D01*
X-708898Y111754D01*
X-708799Y111772D01*
X-708702Y111793D01*
X-708606Y111818D01*
X-708510Y111847D01*
X-708416Y111880D01*
X-708323Y111916D01*
X-708232Y111956D01*
X-708142Y112000D01*
X-708054Y112047D01*
X-707968Y112097D01*
X-707884Y112151D01*
X-707802Y112208D01*
X-707723Y112268D01*
X-707645Y112332D01*
X-707571Y112398D01*
X-707499Y112467D01*
X-707430Y112539D01*
X-707364Y112613D01*
X-707300Y112691D01*
X-707240Y112770D01*
X-707183Y112852D01*
X-707129Y112936D01*
X-707079Y113022D01*
X-707032Y113110D01*
X-706988Y113200D01*
X-706948Y113291D01*
X-706912Y113384D01*
X-706879Y113478D01*
X-706850Y113574D01*
X-706825Y113670D01*
X-706804Y113767D01*
X-706786Y113866D01*
X-706773Y113964D01*
X-706763Y114064D01*
X-706757Y114163D01*
X-706755Y114263D01*
X-706755Y116803D01*
X-718185Y121285D02*
X-718185Y125095D01*
X-718183Y125195D01*
X-718177Y125294D01*
X-718167Y125394D01*
X-718154Y125492D01*
X-718136Y125591D01*
X-718115Y125688D01*
X-718090Y125784D01*
X-718061Y125880D01*
X-718028Y125974D01*
X-717992Y126067D01*
X-717952Y126158D01*
X-717908Y126248D01*
X-717861Y126336D01*
X-717811Y126422D01*
X-717757Y126506D01*
X-717700Y126588D01*
X-717640Y126667D01*
X-717576Y126745D01*
X-717510Y126819D01*
X-717441Y126891D01*
X-717369Y126960D01*
X-717295Y127026D01*
X-717217Y127090D01*
X-717138Y127150D01*
X-717056Y127207D01*
X-716972Y127261D01*
X-716886Y127311D01*
X-716798Y127358D01*
X-716708Y127402D01*
X-716617Y127442D01*
X-716524Y127478D01*
X-716430Y127511D01*
X-716334Y127540D01*
X-716238Y127565D01*
X-716141Y127586D01*
X-716042Y127604D01*
X-715944Y127617D01*
X-715844Y127627D01*
X-715745Y127633D01*
X-715645Y127635D01*
X-714375Y127635D01*
X-714275Y127633D01*
X-714176Y127627D01*
X-714076Y127617D01*
X-713978Y127604D01*
X-713879Y127586D01*
X-713782Y127565D01*
X-713686Y127540D01*
X-713590Y127511D01*
X-713496Y127478D01*
X-713403Y127442D01*
X-713312Y127402D01*
X-713222Y127358D01*
X-713134Y127311D01*
X-713048Y127261D01*
X-712964Y127207D01*
X-712882Y127150D01*
X-712803Y127090D01*
X-712725Y127026D01*
X-712651Y126960D01*
X-712579Y126891D01*
X-712510Y126819D01*
X-712444Y126745D01*
X-712380Y126667D01*
X-712320Y126588D01*
X-712263Y126506D01*
X-712209Y126422D01*
X-712159Y126336D01*
X-712112Y126248D01*
X-712068Y126158D01*
X-712028Y126067D01*
X-711992Y125974D01*
X-711959Y125880D01*
X-711930Y125784D01*
X-711905Y125688D01*
X-711884Y125591D01*
X-711866Y125492D01*
X-711853Y125394D01*
X-711843Y125294D01*
X-711837Y125195D01*
X-711835Y125095D01*
X-711835Y121285D01*
X-706755Y121285D01*
X-706755Y127635D01*
D13*
X-685800Y153670D03*
D10*
X-381000Y160020D02*
X-317500Y160020D01*
X-317500Y195580D02*
X-381000Y195580D01*
X-381000Y160020D01*
X-317500Y160020D02*
X-317500Y195580D01*
D12*
X-319405Y200025D02*
X-319405Y211455D01*
X-322580Y211455D01*
X-322691Y211453D01*
X-322801Y211447D01*
X-322912Y211438D01*
X-323022Y211424D01*
X-323131Y211407D01*
X-323240Y211386D01*
X-323348Y211361D01*
X-323455Y211332D01*
X-323561Y211300D01*
X-323666Y211264D01*
X-323769Y211224D01*
X-323871Y211181D01*
X-323972Y211134D01*
X-324071Y211083D01*
X-324168Y211030D01*
X-324262Y210973D01*
X-324355Y210912D01*
X-324446Y210849D01*
X-324535Y210782D01*
X-324621Y210712D01*
X-324704Y210639D01*
X-324786Y210564D01*
X-324864Y210486D01*
X-324939Y210404D01*
X-325012Y210321D01*
X-325082Y210235D01*
X-325149Y210146D01*
X-325212Y210055D01*
X-325273Y209962D01*
X-325330Y209868D01*
X-325383Y209771D01*
X-325434Y209672D01*
X-325481Y209571D01*
X-325524Y209469D01*
X-325564Y209366D01*
X-325600Y209261D01*
X-325632Y209155D01*
X-325661Y209048D01*
X-325686Y208940D01*
X-325707Y208831D01*
X-325724Y208722D01*
X-325738Y208612D01*
X-325747Y208501D01*
X-325753Y208391D01*
X-325755Y208280D01*
X-325755Y203200D01*
X-325753Y203089D01*
X-325747Y202979D01*
X-325738Y202868D01*
X-325724Y202758D01*
X-325707Y202649D01*
X-325686Y202540D01*
X-325661Y202432D01*
X-325632Y202325D01*
X-325600Y202219D01*
X-325564Y202114D01*
X-325524Y202011D01*
X-325481Y201909D01*
X-325434Y201808D01*
X-325383Y201709D01*
X-325330Y201613D01*
X-325273Y201518D01*
X-325212Y201425D01*
X-325149Y201334D01*
X-325082Y201245D01*
X-325012Y201159D01*
X-324939Y201076D01*
X-324864Y200994D01*
X-324786Y200916D01*
X-324704Y200841D01*
X-324621Y200768D01*
X-324535Y200698D01*
X-324446Y200631D01*
X-324355Y200568D01*
X-324262Y200507D01*
X-324168Y200450D01*
X-324071Y200397D01*
X-323972Y200346D01*
X-323871Y200299D01*
X-323769Y200256D01*
X-323666Y200216D01*
X-323561Y200180D01*
X-323455Y200148D01*
X-323348Y200119D01*
X-323240Y200094D01*
X-323131Y200073D01*
X-323022Y200056D01*
X-322912Y200042D01*
X-322801Y200033D01*
X-322691Y200027D01*
X-322580Y200025D01*
X-319405Y200025D01*
X-334709Y211456D02*
X-334813Y211454D01*
X-334918Y211448D01*
X-335022Y211439D01*
X-335125Y211426D01*
X-335228Y211408D01*
X-335330Y211388D01*
X-335432Y211363D01*
X-335532Y211335D01*
X-335632Y211303D01*
X-335730Y211267D01*
X-335827Y211228D01*
X-335922Y211186D01*
X-336016Y211140D01*
X-336108Y211090D01*
X-336198Y211038D01*
X-336286Y210982D01*
X-336372Y210922D01*
X-336456Y210860D01*
X-336537Y210795D01*
X-336616Y210727D01*
X-336693Y210655D01*
X-336766Y210582D01*
X-336838Y210505D01*
X-336906Y210426D01*
X-336971Y210345D01*
X-337033Y210261D01*
X-337093Y210175D01*
X-337149Y210087D01*
X-337201Y209997D01*
X-337251Y209905D01*
X-337297Y209811D01*
X-337339Y209716D01*
X-337378Y209619D01*
X-337414Y209521D01*
X-337446Y209421D01*
X-337474Y209321D01*
X-337499Y209219D01*
X-337519Y209117D01*
X-337537Y209014D01*
X-337550Y208911D01*
X-337559Y208807D01*
X-337565Y208702D01*
X-337567Y208598D01*
X-334709Y211455D02*
X-334591Y211453D01*
X-334472Y211447D01*
X-334354Y211438D01*
X-334237Y211425D01*
X-334120Y211407D01*
X-334003Y211387D01*
X-333887Y211362D01*
X-333772Y211334D01*
X-333659Y211301D01*
X-333546Y211266D01*
X-333434Y211226D01*
X-333324Y211184D01*
X-333215Y211137D01*
X-333107Y211087D01*
X-333002Y211034D01*
X-332898Y210977D01*
X-332796Y210917D01*
X-332696Y210854D01*
X-332598Y210787D01*
X-332502Y210718D01*
X-332409Y210645D01*
X-332318Y210569D01*
X-332229Y210491D01*
X-332143Y210409D01*
X-332060Y210325D01*
X-331979Y210239D01*
X-331902Y210149D01*
X-331827Y210058D01*
X-331755Y209964D01*
X-331686Y209867D01*
X-331621Y209769D01*
X-331558Y209668D01*
X-331499Y209565D01*
X-331443Y209461D01*
X-331391Y209355D01*
X-331342Y209247D01*
X-331297Y209138D01*
X-331255Y209027D01*
X-331217Y208915D01*
X-336614Y206376D02*
X-336690Y206451D01*
X-336765Y206530D01*
X-336836Y206611D01*
X-336905Y206695D01*
X-336970Y206781D01*
X-337032Y206869D01*
X-337092Y206959D01*
X-337148Y207051D01*
X-337201Y207146D01*
X-337250Y207242D01*
X-337296Y207340D01*
X-337339Y207439D01*
X-337378Y207540D01*
X-337413Y207642D01*
X-337445Y207745D01*
X-337473Y207849D01*
X-337498Y207954D01*
X-337519Y208061D01*
X-337536Y208167D01*
X-337549Y208274D01*
X-337558Y208382D01*
X-337564Y208490D01*
X-337566Y208598D01*
X-336614Y206375D02*
X-331216Y200025D01*
X-337566Y200025D01*
D14*
X-328295Y177800D03*
D15*
X-310515Y177800D03*
X-387985Y177800D03*
D10*
X-177800Y95250D02*
X-177958Y95248D01*
X-178117Y95242D01*
X-178275Y95232D01*
X-178432Y95218D01*
X-178590Y95201D01*
X-178746Y95179D01*
X-178903Y95154D01*
X-179058Y95124D01*
X-179213Y95091D01*
X-179367Y95054D01*
X-179520Y95013D01*
X-179672Y94968D01*
X-179822Y94919D01*
X-179972Y94867D01*
X-180120Y94811D01*
X-180267Y94751D01*
X-180412Y94688D01*
X-180555Y94621D01*
X-180697Y94551D01*
X-180837Y94477D01*
X-180975Y94399D01*
X-181111Y94318D01*
X-181245Y94234D01*
X-181377Y94147D01*
X-181507Y94056D01*
X-181634Y93962D01*
X-181759Y93865D01*
X-181882Y93764D01*
X-182002Y93661D01*
X-182119Y93555D01*
X-182234Y93446D01*
X-182346Y93334D01*
X-182455Y93219D01*
X-182561Y93102D01*
X-182664Y92982D01*
X-182765Y92859D01*
X-182862Y92734D01*
X-182956Y92607D01*
X-183047Y92477D01*
X-183134Y92345D01*
X-183218Y92211D01*
X-183299Y92075D01*
X-183377Y91937D01*
X-183451Y91797D01*
X-183521Y91655D01*
X-183588Y91512D01*
X-183651Y91367D01*
X-183711Y91220D01*
X-183767Y91072D01*
X-183819Y90922D01*
X-183868Y90772D01*
X-183913Y90620D01*
X-183954Y90467D01*
X-183991Y90313D01*
X-184024Y90158D01*
X-184054Y90003D01*
X-184079Y89846D01*
X-184101Y89690D01*
X-184118Y89532D01*
X-184132Y89375D01*
X-184142Y89217D01*
X-184148Y89058D01*
X-184150Y88900D01*
X-184148Y88742D01*
X-184142Y88583D01*
X-184132Y88425D01*
X-184118Y88268D01*
X-184101Y88110D01*
X-184079Y87954D01*
X-184054Y87797D01*
X-184024Y87642D01*
X-183991Y87487D01*
X-183954Y87333D01*
X-183913Y87180D01*
X-183868Y87028D01*
X-183819Y86878D01*
X-183767Y86728D01*
X-183711Y86580D01*
X-183651Y86433D01*
X-183588Y86288D01*
X-183521Y86145D01*
X-183451Y86003D01*
X-183377Y85863D01*
X-183299Y85725D01*
X-183218Y85589D01*
X-183134Y85455D01*
X-183047Y85323D01*
X-182956Y85193D01*
X-182862Y85066D01*
X-182765Y84941D01*
X-182664Y84818D01*
X-182561Y84698D01*
X-182455Y84581D01*
X-182346Y84466D01*
X-182234Y84354D01*
X-182119Y84245D01*
X-182002Y84139D01*
X-181882Y84036D01*
X-181759Y83935D01*
X-181634Y83838D01*
X-181507Y83744D01*
X-181377Y83653D01*
X-181245Y83566D01*
X-181111Y83482D01*
X-180975Y83401D01*
X-180837Y83323D01*
X-180697Y83249D01*
X-180555Y83179D01*
X-180412Y83112D01*
X-180267Y83049D01*
X-180120Y82989D01*
X-179972Y82933D01*
X-179822Y82881D01*
X-179672Y82832D01*
X-179520Y82787D01*
X-179367Y82746D01*
X-179213Y82709D01*
X-179058Y82676D01*
X-178903Y82646D01*
X-178746Y82621D01*
X-178590Y82599D01*
X-178432Y82582D01*
X-178275Y82568D01*
X-178117Y82558D01*
X-177958Y82552D01*
X-177800Y82550D01*
X-177800Y60960D01*
X-279400Y60960D01*
X-279400Y116840D01*
X-177800Y116840D01*
X-177800Y95250D01*
D12*
X-174371Y65405D02*
X-162941Y65405D01*
X-174371Y64135D02*
X-174371Y66675D01*
X-162941Y66675D02*
X-162941Y64135D01*
X-174371Y73877D02*
X-174371Y76417D01*
X-174371Y73877D02*
X-174369Y73777D01*
X-174363Y73678D01*
X-174353Y73578D01*
X-174340Y73480D01*
X-174322Y73381D01*
X-174301Y73284D01*
X-174276Y73188D01*
X-174247Y73092D01*
X-174214Y72998D01*
X-174178Y72905D01*
X-174138Y72814D01*
X-174094Y72724D01*
X-174047Y72636D01*
X-173997Y72550D01*
X-173943Y72466D01*
X-173886Y72384D01*
X-173826Y72305D01*
X-173762Y72227D01*
X-173696Y72153D01*
X-173627Y72081D01*
X-173555Y72012D01*
X-173481Y71946D01*
X-173403Y71882D01*
X-173324Y71822D01*
X-173242Y71765D01*
X-173158Y71711D01*
X-173072Y71661D01*
X-172984Y71614D01*
X-172894Y71570D01*
X-172803Y71530D01*
X-172710Y71494D01*
X-172616Y71461D01*
X-172520Y71432D01*
X-172424Y71407D01*
X-172327Y71386D01*
X-172228Y71368D01*
X-172130Y71355D01*
X-172030Y71345D01*
X-171931Y71339D01*
X-171831Y71337D01*
X-165481Y71337D01*
X-165381Y71339D01*
X-165282Y71345D01*
X-165182Y71355D01*
X-165084Y71368D01*
X-164985Y71386D01*
X-164888Y71407D01*
X-164792Y71432D01*
X-164696Y71461D01*
X-164602Y71494D01*
X-164509Y71530D01*
X-164418Y71570D01*
X-164328Y71614D01*
X-164240Y71661D01*
X-164154Y71711D01*
X-164070Y71765D01*
X-163988Y71822D01*
X-163909Y71882D01*
X-163831Y71946D01*
X-163757Y72012D01*
X-163685Y72081D01*
X-163616Y72153D01*
X-163550Y72227D01*
X-163486Y72305D01*
X-163426Y72384D01*
X-163369Y72466D01*
X-163315Y72550D01*
X-163265Y72636D01*
X-163218Y72724D01*
X-163174Y72814D01*
X-163134Y72905D01*
X-163098Y72998D01*
X-163065Y73092D01*
X-163036Y73188D01*
X-163011Y73284D01*
X-162990Y73381D01*
X-162972Y73480D01*
X-162959Y73578D01*
X-162949Y73678D01*
X-162943Y73777D01*
X-162941Y73877D01*
X-162941Y76417D01*
X-165481Y80899D02*
X-162941Y84074D01*
X-174371Y84074D01*
X-174371Y80899D02*
X-174371Y87249D01*
D10*
X-529590Y63500D02*
X-529590Y12700D01*
X-588010Y12700D02*
X-588010Y63500D01*
X-529590Y63500D01*
X-529590Y12700D02*
X-548640Y12700D01*
X-568960Y12700D02*
X-588010Y12700D01*
X-568960Y12700D02*
X-568957Y12947D01*
X-568948Y13195D01*
X-568933Y13442D01*
X-568912Y13688D01*
X-568885Y13934D01*
X-568852Y14179D01*
X-568813Y14424D01*
X-568768Y14667D01*
X-568717Y14909D01*
X-568660Y15150D01*
X-568598Y15389D01*
X-568529Y15627D01*
X-568455Y15863D01*
X-568375Y16097D01*
X-568290Y16329D01*
X-568198Y16559D01*
X-568102Y16787D01*
X-567999Y17012D01*
X-567892Y17235D01*
X-567778Y17455D01*
X-567660Y17672D01*
X-567536Y17887D01*
X-567407Y18098D01*
X-567273Y18306D01*
X-567134Y18511D01*
X-566990Y18712D01*
X-566842Y18910D01*
X-566688Y19104D01*
X-566530Y19294D01*
X-566367Y19480D01*
X-566200Y19662D01*
X-566028Y19840D01*
X-565852Y20014D01*
X-565672Y20184D01*
X-565487Y20349D01*
X-565299Y20509D01*
X-565107Y20665D01*
X-564911Y20817D01*
X-564712Y20963D01*
X-564509Y21105D01*
X-564302Y21241D01*
X-564093Y21373D01*
X-563880Y21499D01*
X-563664Y21620D01*
X-563446Y21736D01*
X-563224Y21846D01*
X-563000Y21951D01*
X-562774Y22051D01*
X-562545Y22145D01*
X-562314Y22233D01*
X-562080Y22316D01*
X-561845Y22393D01*
X-561608Y22464D01*
X-561370Y22530D01*
X-561130Y22589D01*
X-560888Y22643D01*
X-560645Y22691D01*
X-560402Y22733D01*
X-560157Y22769D01*
X-559911Y22799D01*
X-559665Y22823D01*
X-559418Y22841D01*
X-559171Y22853D01*
X-558924Y22859D01*
X-558676Y22859D01*
X-558429Y22853D01*
X-558182Y22841D01*
X-557935Y22823D01*
X-557689Y22799D01*
X-557443Y22769D01*
X-557198Y22733D01*
X-556955Y22691D01*
X-556712Y22643D01*
X-556470Y22589D01*
X-556230Y22530D01*
X-555992Y22464D01*
X-555755Y22393D01*
X-555520Y22316D01*
X-555286Y22233D01*
X-555055Y22145D01*
X-554826Y22051D01*
X-554600Y21951D01*
X-554376Y21846D01*
X-554154Y21736D01*
X-553936Y21620D01*
X-553720Y21499D01*
X-553507Y21373D01*
X-553298Y21241D01*
X-553091Y21105D01*
X-552888Y20963D01*
X-552689Y20817D01*
X-552493Y20665D01*
X-552301Y20509D01*
X-552113Y20349D01*
X-551928Y20184D01*
X-551748Y20014D01*
X-551572Y19840D01*
X-551400Y19662D01*
X-551233Y19480D01*
X-551070Y19294D01*
X-550912Y19104D01*
X-550758Y18910D01*
X-550610Y18712D01*
X-550466Y18511D01*
X-550327Y18306D01*
X-550193Y18098D01*
X-550064Y17887D01*
X-549940Y17672D01*
X-549822Y17455D01*
X-549708Y17235D01*
X-549601Y17012D01*
X-549498Y16787D01*
X-549402Y16559D01*
X-549310Y16329D01*
X-549225Y16097D01*
X-549145Y15863D01*
X-549071Y15627D01*
X-549002Y15389D01*
X-548940Y15150D01*
X-548883Y14909D01*
X-548832Y14667D01*
X-548787Y14424D01*
X-548748Y14179D01*
X-548715Y13934D01*
X-548688Y13688D01*
X-548667Y13442D01*
X-548652Y13195D01*
X-548643Y12947D01*
X-548640Y12700D01*
D12*
X-555625Y5080D02*
X-555625Y0D01*
X-555625Y5080D02*
X-555627Y5191D01*
X-555633Y5301D01*
X-555642Y5412D01*
X-555656Y5522D01*
X-555673Y5631D01*
X-555694Y5740D01*
X-555719Y5848D01*
X-555748Y5955D01*
X-555780Y6061D01*
X-555816Y6166D01*
X-555856Y6269D01*
X-555899Y6371D01*
X-555946Y6472D01*
X-555997Y6571D01*
X-556050Y6668D01*
X-556107Y6762D01*
X-556168Y6855D01*
X-556231Y6946D01*
X-556298Y7035D01*
X-556368Y7121D01*
X-556441Y7204D01*
X-556516Y7286D01*
X-556594Y7364D01*
X-556676Y7439D01*
X-556759Y7512D01*
X-556845Y7582D01*
X-556934Y7649D01*
X-557025Y7712D01*
X-557118Y7773D01*
X-557213Y7830D01*
X-557309Y7883D01*
X-557408Y7934D01*
X-557509Y7981D01*
X-557611Y8024D01*
X-557714Y8064D01*
X-557819Y8100D01*
X-557925Y8132D01*
X-558032Y8161D01*
X-558140Y8186D01*
X-558249Y8207D01*
X-558358Y8224D01*
X-558468Y8238D01*
X-558579Y8247D01*
X-558689Y8253D01*
X-558800Y8255D01*
X-558911Y8253D01*
X-559021Y8247D01*
X-559132Y8238D01*
X-559242Y8224D01*
X-559351Y8207D01*
X-559460Y8186D01*
X-559568Y8161D01*
X-559675Y8132D01*
X-559781Y8100D01*
X-559886Y8064D01*
X-559989Y8024D01*
X-560091Y7981D01*
X-560192Y7934D01*
X-560291Y7883D01*
X-560388Y7830D01*
X-560482Y7773D01*
X-560575Y7712D01*
X-560666Y7649D01*
X-560755Y7582D01*
X-560841Y7512D01*
X-560924Y7439D01*
X-561006Y7364D01*
X-561084Y7286D01*
X-561159Y7204D01*
X-561232Y7121D01*
X-561302Y7035D01*
X-561369Y6946D01*
X-561432Y6855D01*
X-561493Y6762D01*
X-561550Y6667D01*
X-561603Y6571D01*
X-561654Y6472D01*
X-561701Y6371D01*
X-561744Y6269D01*
X-561784Y6166D01*
X-561820Y6061D01*
X-561852Y5955D01*
X-561881Y5848D01*
X-561906Y5740D01*
X-561927Y5631D01*
X-561944Y5522D01*
X-561958Y5412D01*
X-561967Y5301D01*
X-561973Y5191D01*
X-561975Y5080D01*
X-561975Y0D01*
X-561973Y-111D01*
X-561967Y-221D01*
X-561958Y-332D01*
X-561944Y-442D01*
X-561927Y-551D01*
X-561906Y-660D01*
X-561881Y-768D01*
X-561852Y-875D01*
X-561820Y-981D01*
X-561784Y-1086D01*
X-561744Y-1189D01*
X-561701Y-1291D01*
X-561654Y-1392D01*
X-561603Y-1491D01*
X-561550Y-1588D01*
X-561493Y-1682D01*
X-561432Y-1775D01*
X-561369Y-1866D01*
X-561302Y-1955D01*
X-561232Y-2041D01*
X-561159Y-2124D01*
X-561084Y-2206D01*
X-561006Y-2284D01*
X-560924Y-2359D01*
X-560841Y-2432D01*
X-560755Y-2502D01*
X-560666Y-2569D01*
X-560575Y-2632D01*
X-560482Y-2693D01*
X-560388Y-2750D01*
X-560291Y-2803D01*
X-560192Y-2854D01*
X-560091Y-2901D01*
X-559989Y-2944D01*
X-559886Y-2984D01*
X-559781Y-3020D01*
X-559675Y-3052D01*
X-559568Y-3081D01*
X-559460Y-3106D01*
X-559351Y-3127D01*
X-559242Y-3144D01*
X-559132Y-3158D01*
X-559021Y-3167D01*
X-558911Y-3173D01*
X-558800Y-3175D01*
X-558689Y-3173D01*
X-558579Y-3167D01*
X-558468Y-3158D01*
X-558358Y-3144D01*
X-558249Y-3127D01*
X-558140Y-3106D01*
X-558032Y-3081D01*
X-557925Y-3052D01*
X-557819Y-3020D01*
X-557714Y-2984D01*
X-557611Y-2944D01*
X-557509Y-2901D01*
X-557408Y-2854D01*
X-557309Y-2803D01*
X-557213Y-2750D01*
X-557118Y-2693D01*
X-557025Y-2632D01*
X-556934Y-2569D01*
X-556845Y-2502D01*
X-556759Y-2432D01*
X-556676Y-2359D01*
X-556594Y-2284D01*
X-556516Y-2206D01*
X-556441Y-2124D01*
X-556368Y-2041D01*
X-556298Y-1955D01*
X-556231Y-1866D01*
X-556168Y-1775D01*
X-556107Y-1682D01*
X-556050Y-1588D01*
X-555997Y-1491D01*
X-555946Y-1392D01*
X-555899Y-1291D01*
X-555856Y-1189D01*
X-555816Y-1086D01*
X-555780Y-981D01*
X-555748Y-875D01*
X-555719Y-768D01*
X-555694Y-660D01*
X-555673Y-551D01*
X-555656Y-442D01*
X-555642Y-332D01*
X-555633Y-221D01*
X-555627Y-111D01*
X-555625Y0D01*
X-567627Y-3175D02*
X-567627Y8255D01*
X-573977Y8255D02*
X-567627Y1270D01*
X-570167Y3810D02*
X-573977Y-3175D01*
X-578485Y5715D02*
X-581660Y8255D01*
X-581660Y-3175D01*
X-578485Y-3175D02*
X-584835Y-3175D01*
D10*
X-59780Y177928D02*
X-59780Y280941D01*
X-59780Y176259D02*
X-41820Y176259D01*
X-41820Y280941D02*
X-59780Y280941D01*
X-32840Y210640D02*
X-41820Y176259D01*
X-41820Y279272D01*
X-32840Y246560D02*
X-32840Y210640D01*
X-32840Y246560D02*
X-41820Y280941D01*
X-68760Y210640D02*
X-59780Y176259D01*
X-68760Y210640D02*
X-68760Y246560D01*
X-59780Y280941D01*
D12*
X-83185Y242018D02*
X-94615Y242018D01*
X-83185Y242018D02*
X-83185Y245193D01*
X-83187Y245304D01*
X-83193Y245414D01*
X-83202Y245525D01*
X-83216Y245635D01*
X-83233Y245744D01*
X-83254Y245853D01*
X-83279Y245961D01*
X-83308Y246068D01*
X-83340Y246174D01*
X-83376Y246279D01*
X-83416Y246382D01*
X-83459Y246484D01*
X-83506Y246585D01*
X-83557Y246684D01*
X-83610Y246781D01*
X-83667Y246875D01*
X-83728Y246968D01*
X-83791Y247059D01*
X-83858Y247148D01*
X-83928Y247234D01*
X-84001Y247317D01*
X-84076Y247399D01*
X-84154Y247477D01*
X-84236Y247552D01*
X-84319Y247625D01*
X-84405Y247695D01*
X-84494Y247762D01*
X-84585Y247825D01*
X-84678Y247886D01*
X-84773Y247943D01*
X-84869Y247996D01*
X-84968Y248047D01*
X-85069Y248094D01*
X-85171Y248137D01*
X-85274Y248177D01*
X-85379Y248213D01*
X-85485Y248245D01*
X-85592Y248274D01*
X-85700Y248299D01*
X-85809Y248320D01*
X-85918Y248337D01*
X-86028Y248351D01*
X-86139Y248360D01*
X-86249Y248366D01*
X-86360Y248368D01*
X-86471Y248366D01*
X-86581Y248360D01*
X-86692Y248351D01*
X-86802Y248337D01*
X-86911Y248320D01*
X-87020Y248299D01*
X-87128Y248274D01*
X-87235Y248245D01*
X-87341Y248213D01*
X-87446Y248177D01*
X-87549Y248137D01*
X-87651Y248094D01*
X-87752Y248047D01*
X-87851Y247996D01*
X-87948Y247943D01*
X-88042Y247886D01*
X-88135Y247825D01*
X-88226Y247762D01*
X-88315Y247695D01*
X-88401Y247625D01*
X-88484Y247552D01*
X-88566Y247477D01*
X-88644Y247399D01*
X-88719Y247317D01*
X-88792Y247234D01*
X-88862Y247148D01*
X-88929Y247059D01*
X-88992Y246968D01*
X-89053Y246875D01*
X-89110Y246781D01*
X-89163Y246684D01*
X-89214Y246585D01*
X-89261Y246484D01*
X-89304Y246382D01*
X-89344Y246279D01*
X-89380Y246174D01*
X-89412Y246068D01*
X-89441Y245961D01*
X-89466Y245853D01*
X-89487Y245744D01*
X-89504Y245635D01*
X-89518Y245525D01*
X-89527Y245414D01*
X-89533Y245304D01*
X-89535Y245193D01*
X-89535Y242018D01*
X-89535Y245828D02*
X-94615Y248368D01*
X-85725Y253365D02*
X-83185Y256540D01*
X-94615Y256540D01*
X-94615Y253365D02*
X-94615Y259715D01*
X-19504Y190808D02*
X-8074Y190808D01*
X-19504Y197158D01*
X-8074Y197158D01*
X-8074Y205032D02*
X-19504Y205032D01*
X-8074Y201857D02*
X-8074Y208207D01*
X-19504Y215027D02*
X-19504Y217567D01*
X-19504Y215027D02*
X-19502Y214927D01*
X-19496Y214828D01*
X-19486Y214728D01*
X-19473Y214630D01*
X-19455Y214531D01*
X-19434Y214434D01*
X-19409Y214338D01*
X-19380Y214242D01*
X-19347Y214148D01*
X-19311Y214055D01*
X-19271Y213964D01*
X-19227Y213874D01*
X-19180Y213786D01*
X-19130Y213700D01*
X-19076Y213616D01*
X-19019Y213534D01*
X-18959Y213455D01*
X-18895Y213377D01*
X-18829Y213303D01*
X-18760Y213231D01*
X-18688Y213162D01*
X-18614Y213096D01*
X-18536Y213032D01*
X-18457Y212972D01*
X-18375Y212915D01*
X-18291Y212861D01*
X-18205Y212811D01*
X-18117Y212764D01*
X-18027Y212720D01*
X-17936Y212680D01*
X-17843Y212644D01*
X-17749Y212611D01*
X-17653Y212582D01*
X-17557Y212557D01*
X-17460Y212536D01*
X-17361Y212518D01*
X-17263Y212505D01*
X-17163Y212495D01*
X-17064Y212489D01*
X-16964Y212487D01*
X-10614Y212487D01*
X-10514Y212489D01*
X-10415Y212495D01*
X-10315Y212505D01*
X-10217Y212518D01*
X-10118Y212536D01*
X-10021Y212557D01*
X-9925Y212582D01*
X-9829Y212611D01*
X-9735Y212644D01*
X-9642Y212680D01*
X-9551Y212720D01*
X-9461Y212764D01*
X-9373Y212811D01*
X-9287Y212861D01*
X-9203Y212915D01*
X-9121Y212972D01*
X-9042Y213032D01*
X-8964Y213096D01*
X-8890Y213162D01*
X-8818Y213231D01*
X-8749Y213303D01*
X-8683Y213377D01*
X-8619Y213455D01*
X-8559Y213534D01*
X-8502Y213616D01*
X-8448Y213700D01*
X-8398Y213786D01*
X-8351Y213874D01*
X-8307Y213964D01*
X-8267Y214055D01*
X-8231Y214148D01*
X-8198Y214242D01*
X-8169Y214338D01*
X-8144Y214434D01*
X-8123Y214531D01*
X-8105Y214630D01*
X-8092Y214728D01*
X-8082Y214828D01*
X-8076Y214927D01*
X-8074Y215027D01*
X-8074Y217567D01*
X-15059Y222177D02*
X-15059Y229797D01*
X-19504Y235385D02*
X-8074Y235385D01*
X-8074Y238560D01*
X-8076Y238671D01*
X-8082Y238781D01*
X-8091Y238892D01*
X-8105Y239002D01*
X-8122Y239111D01*
X-8143Y239220D01*
X-8168Y239328D01*
X-8197Y239435D01*
X-8229Y239541D01*
X-8265Y239646D01*
X-8305Y239749D01*
X-8348Y239851D01*
X-8395Y239952D01*
X-8446Y240051D01*
X-8499Y240148D01*
X-8556Y240242D01*
X-8617Y240335D01*
X-8680Y240426D01*
X-8747Y240515D01*
X-8817Y240601D01*
X-8890Y240684D01*
X-8965Y240766D01*
X-9043Y240844D01*
X-9125Y240919D01*
X-9208Y240992D01*
X-9294Y241062D01*
X-9383Y241129D01*
X-9474Y241192D01*
X-9567Y241253D01*
X-9662Y241310D01*
X-9758Y241363D01*
X-9857Y241414D01*
X-9958Y241461D01*
X-10060Y241504D01*
X-10163Y241544D01*
X-10268Y241580D01*
X-10374Y241612D01*
X-10481Y241641D01*
X-10589Y241666D01*
X-10698Y241687D01*
X-10807Y241704D01*
X-10917Y241718D01*
X-11028Y241727D01*
X-11138Y241733D01*
X-11249Y241735D01*
X-16329Y241735D01*
X-16440Y241733D01*
X-16550Y241727D01*
X-16661Y241718D01*
X-16771Y241704D01*
X-16880Y241687D01*
X-16989Y241666D01*
X-17097Y241641D01*
X-17204Y241612D01*
X-17310Y241580D01*
X-17415Y241544D01*
X-17518Y241504D01*
X-17620Y241461D01*
X-17721Y241414D01*
X-17820Y241363D01*
X-17917Y241310D01*
X-18011Y241253D01*
X-18104Y241192D01*
X-18195Y241129D01*
X-18284Y241062D01*
X-18370Y240992D01*
X-18453Y240919D01*
X-18535Y240844D01*
X-18613Y240766D01*
X-18688Y240684D01*
X-18761Y240601D01*
X-18831Y240515D01*
X-18898Y240426D01*
X-18961Y240335D01*
X-19022Y240242D01*
X-19079Y240148D01*
X-19132Y240051D01*
X-19183Y239952D01*
X-19230Y239851D01*
X-19273Y239749D01*
X-19313Y239646D01*
X-19349Y239541D01*
X-19381Y239435D01*
X-19410Y239328D01*
X-19435Y239220D01*
X-19456Y239111D01*
X-19473Y239002D01*
X-19487Y238892D01*
X-19496Y238781D01*
X-19502Y238671D01*
X-19504Y238560D01*
X-19504Y235385D01*
X-10614Y247196D02*
X-8074Y250371D01*
X-19504Y250371D01*
X-19504Y247196D02*
X-19504Y253546D01*
X-8074Y262118D02*
X-8076Y262222D01*
X-8082Y262327D01*
X-8091Y262431D01*
X-8104Y262534D01*
X-8122Y262637D01*
X-8142Y262739D01*
X-8167Y262841D01*
X-8195Y262941D01*
X-8227Y263041D01*
X-8263Y263139D01*
X-8302Y263236D01*
X-8344Y263331D01*
X-8390Y263425D01*
X-8440Y263517D01*
X-8492Y263607D01*
X-8548Y263695D01*
X-8608Y263781D01*
X-8670Y263865D01*
X-8735Y263946D01*
X-8803Y264025D01*
X-8875Y264102D01*
X-8948Y264175D01*
X-9025Y264247D01*
X-9104Y264315D01*
X-9185Y264380D01*
X-9269Y264442D01*
X-9355Y264502D01*
X-9443Y264558D01*
X-9533Y264610D01*
X-9625Y264660D01*
X-9719Y264706D01*
X-9814Y264748D01*
X-9911Y264787D01*
X-10009Y264823D01*
X-10109Y264855D01*
X-10209Y264883D01*
X-10311Y264908D01*
X-10413Y264928D01*
X-10516Y264946D01*
X-10619Y264959D01*
X-10723Y264968D01*
X-10828Y264974D01*
X-10932Y264976D01*
X-8075Y262118D02*
X-8077Y262000D01*
X-8083Y261881D01*
X-8092Y261763D01*
X-8105Y261646D01*
X-8123Y261529D01*
X-8143Y261412D01*
X-8168Y261296D01*
X-8196Y261181D01*
X-8229Y261068D01*
X-8264Y260955D01*
X-8304Y260843D01*
X-8346Y260733D01*
X-8393Y260624D01*
X-8443Y260516D01*
X-8496Y260411D01*
X-8553Y260307D01*
X-8613Y260205D01*
X-8676Y260105D01*
X-8743Y260007D01*
X-8812Y259911D01*
X-8885Y259818D01*
X-8961Y259727D01*
X-9039Y259638D01*
X-9121Y259552D01*
X-9205Y259469D01*
X-9291Y259388D01*
X-9381Y259311D01*
X-9472Y259236D01*
X-9566Y259164D01*
X-9663Y259095D01*
X-9761Y259030D01*
X-9862Y258967D01*
X-9965Y258908D01*
X-10069Y258852D01*
X-10175Y258800D01*
X-10283Y258751D01*
X-10392Y258706D01*
X-10503Y258664D01*
X-10615Y258626D01*
X-13154Y264023D02*
X-13079Y264099D01*
X-13000Y264174D01*
X-12919Y264245D01*
X-12835Y264314D01*
X-12749Y264379D01*
X-12661Y264441D01*
X-12571Y264501D01*
X-12479Y264557D01*
X-12384Y264610D01*
X-12288Y264659D01*
X-12190Y264705D01*
X-12091Y264748D01*
X-11990Y264787D01*
X-11888Y264822D01*
X-11785Y264854D01*
X-11681Y264882D01*
X-11576Y264907D01*
X-11469Y264928D01*
X-11363Y264945D01*
X-11256Y264958D01*
X-11148Y264967D01*
X-11040Y264973D01*
X-10932Y264975D01*
X-13154Y264023D02*
X-19504Y258626D01*
X-19504Y264976D01*
X-617900Y65350D02*
X-662200Y65350D01*
X-662399Y65346D01*
X-662599Y65347D01*
X-662798Y65353D01*
X-662997Y65364D01*
X-663196Y65380D01*
X-663395Y65400D01*
X-663593Y65425D01*
X-663790Y65455D01*
X-663986Y65490D01*
X-664182Y65530D01*
X-664376Y65574D01*
X-664570Y65623D01*
X-664762Y65676D01*
X-664952Y65734D01*
X-665142Y65797D01*
X-665330Y65865D01*
X-665516Y65936D01*
X-665700Y66013D01*
X-665882Y66093D01*
X-666063Y66179D01*
X-666241Y66268D01*
X-666417Y66362D01*
X-666591Y66460D01*
X-666762Y66562D01*
X-666931Y66668D01*
X-667097Y66778D01*
X-667261Y66893D01*
X-667421Y67011D01*
X-667579Y67133D01*
X-667734Y67259D01*
X-667885Y67388D01*
X-668034Y67522D01*
X-668179Y67658D01*
X-668321Y67798D01*
X-668460Y67942D01*
X-668595Y68089D01*
X-668726Y68239D01*
X-668854Y68392D01*
X-668978Y68548D01*
X-669098Y68708D01*
X-669214Y68870D01*
X-669326Y69034D01*
X-669435Y69202D01*
X-669539Y69372D01*
X-669639Y69545D01*
X-669735Y69719D01*
X-669827Y69897D01*
X-669914Y70076D01*
X-669997Y70257D01*
X-670075Y70441D01*
X-670150Y70626D01*
X-670219Y70813D01*
X-670284Y71001D01*
X-670345Y71191D01*
X-670401Y71383D01*
X-670452Y71576D01*
X-670498Y71770D01*
X-670540Y71965D01*
X-670578Y72161D01*
X-670610Y72357D01*
X-670638Y72555D01*
X-670660Y72753D01*
X-670678Y72952D01*
X-670692Y73151D01*
X-670700Y73350D01*
X-670700Y114150D01*
X-658350Y114150D01*
X-658192Y114148D01*
X-658033Y114142D01*
X-657875Y114132D01*
X-657718Y114118D01*
X-657560Y114101D01*
X-657404Y114079D01*
X-657247Y114054D01*
X-657092Y114024D01*
X-656937Y113991D01*
X-656783Y113954D01*
X-656630Y113913D01*
X-656478Y113868D01*
X-656328Y113819D01*
X-656178Y113767D01*
X-656030Y113711D01*
X-655883Y113651D01*
X-655738Y113588D01*
X-655595Y113521D01*
X-655453Y113451D01*
X-655313Y113377D01*
X-655175Y113299D01*
X-655039Y113218D01*
X-654905Y113134D01*
X-654773Y113047D01*
X-654643Y112956D01*
X-654516Y112862D01*
X-654391Y112765D01*
X-654268Y112664D01*
X-654148Y112561D01*
X-654031Y112455D01*
X-653916Y112346D01*
X-653804Y112234D01*
X-653695Y112119D01*
X-653589Y112002D01*
X-653486Y111882D01*
X-653385Y111759D01*
X-653288Y111634D01*
X-653194Y111507D01*
X-653103Y111377D01*
X-653016Y111245D01*
X-652932Y111111D01*
X-652851Y110975D01*
X-652773Y110837D01*
X-652699Y110697D01*
X-652629Y110555D01*
X-652562Y110412D01*
X-652499Y110267D01*
X-652439Y110120D01*
X-652383Y109972D01*
X-652331Y109822D01*
X-652282Y109672D01*
X-652237Y109520D01*
X-652196Y109367D01*
X-652159Y109213D01*
X-652126Y109058D01*
X-652096Y108903D01*
X-652071Y108746D01*
X-652049Y108590D01*
X-652032Y108432D01*
X-652018Y108275D01*
X-652008Y108117D01*
X-652002Y107958D01*
X-652000Y107800D01*
X-474300Y290250D02*
X-430000Y290250D01*
X-429801Y290254D01*
X-429601Y290253D01*
X-429402Y290247D01*
X-429203Y290236D01*
X-429004Y290220D01*
X-428805Y290200D01*
X-428607Y290175D01*
X-428410Y290145D01*
X-428214Y290110D01*
X-428018Y290070D01*
X-427824Y290026D01*
X-427630Y289977D01*
X-427438Y289924D01*
X-427248Y289866D01*
X-427058Y289803D01*
X-426870Y289735D01*
X-426684Y289664D01*
X-426500Y289587D01*
X-426318Y289507D01*
X-426137Y289421D01*
X-425959Y289332D01*
X-425783Y289238D01*
X-425609Y289140D01*
X-425438Y289038D01*
X-425269Y288932D01*
X-425103Y288822D01*
X-424939Y288707D01*
X-424779Y288589D01*
X-424621Y288467D01*
X-424466Y288341D01*
X-424315Y288212D01*
X-424166Y288078D01*
X-424021Y287942D01*
X-423879Y287802D01*
X-423740Y287658D01*
X-423605Y287511D01*
X-423474Y287361D01*
X-423346Y287208D01*
X-423222Y287052D01*
X-423102Y286892D01*
X-422986Y286730D01*
X-422874Y286566D01*
X-422765Y286398D01*
X-422661Y286228D01*
X-422561Y286055D01*
X-422465Y285881D01*
X-422373Y285703D01*
X-422286Y285524D01*
X-422203Y285343D01*
X-422125Y285159D01*
X-422050Y284974D01*
X-421981Y284787D01*
X-421916Y284599D01*
X-421855Y284409D01*
X-421799Y284217D01*
X-421748Y284024D01*
X-421702Y283830D01*
X-421660Y283635D01*
X-421622Y283439D01*
X-421590Y283243D01*
X-421562Y283045D01*
X-421540Y282847D01*
X-421522Y282648D01*
X-421508Y282449D01*
X-421500Y282250D01*
X-421500Y241450D01*
X-433850Y241450D01*
X-434008Y241452D01*
X-434167Y241458D01*
X-434325Y241468D01*
X-434482Y241482D01*
X-434640Y241499D01*
X-434796Y241521D01*
X-434953Y241546D01*
X-435108Y241576D01*
X-435263Y241609D01*
X-435417Y241646D01*
X-435570Y241687D01*
X-435722Y241732D01*
X-435872Y241781D01*
X-436022Y241833D01*
X-436170Y241889D01*
X-436317Y241949D01*
X-436462Y242012D01*
X-436605Y242079D01*
X-436747Y242149D01*
X-436887Y242223D01*
X-437025Y242301D01*
X-437161Y242382D01*
X-437295Y242466D01*
X-437427Y242553D01*
X-437557Y242644D01*
X-437684Y242738D01*
X-437809Y242835D01*
X-437932Y242936D01*
X-438052Y243039D01*
X-438169Y243145D01*
X-438284Y243254D01*
X-438396Y243366D01*
X-438505Y243481D01*
X-438611Y243598D01*
X-438714Y243718D01*
X-438815Y243841D01*
X-438912Y243966D01*
X-439006Y244093D01*
X-439097Y244223D01*
X-439184Y244355D01*
X-439268Y244489D01*
X-439349Y244625D01*
X-439427Y244763D01*
X-439501Y244903D01*
X-439571Y245045D01*
X-439638Y245188D01*
X-439701Y245333D01*
X-439761Y245480D01*
X-439817Y245628D01*
X-439869Y245778D01*
X-439918Y245928D01*
X-439963Y246080D01*
X-440004Y246233D01*
X-440041Y246387D01*
X-440074Y246542D01*
X-440104Y246697D01*
X-440129Y246854D01*
X-440151Y247010D01*
X-440168Y247168D01*
X-440182Y247325D01*
X-440192Y247483D01*
X-440198Y247642D01*
X-440200Y247800D01*
D16*
X-25400Y88900D02*
X-25400Y12700D01*
X-25400Y88900D02*
X-25400Y165100D01*
D17*
X-50800Y165100D01*
X-127000Y165100D01*
X-152400Y165100D01*
D16*
X-152400Y88900D01*
X-152400Y12700D01*
D17*
X-127000Y12700D01*
X-50800Y12700D01*
X-25400Y12700D01*
X-25400Y88900D02*
X-152400Y88900D01*
D18*
X-117298Y50800D02*
X-117289Y51497D01*
X-117264Y52193D01*
X-117221Y52889D01*
X-117161Y53583D01*
X-117084Y54276D01*
X-116991Y54967D01*
X-116880Y55655D01*
X-116752Y56340D01*
X-116608Y57022D01*
X-116447Y57700D01*
X-116269Y58374D01*
X-116075Y59044D01*
X-115865Y59708D01*
X-115638Y60367D01*
X-115395Y61020D01*
X-115136Y61667D01*
X-114862Y62308D01*
X-114571Y62942D01*
X-114266Y63568D01*
X-113945Y64187D01*
X-113609Y64797D01*
X-113258Y65399D01*
X-112892Y65993D01*
X-112512Y66577D01*
X-112118Y67152D01*
X-111709Y67717D01*
X-111287Y68271D01*
X-110852Y68816D01*
X-110403Y69349D01*
X-109942Y69871D01*
X-109467Y70382D01*
X-108980Y70880D01*
X-108482Y71367D01*
X-107971Y71842D01*
X-107449Y72303D01*
X-106916Y72752D01*
X-106371Y73187D01*
X-105817Y73609D01*
X-105252Y74018D01*
X-104677Y74412D01*
X-104093Y74792D01*
X-103499Y75158D01*
X-102897Y75509D01*
X-102287Y75845D01*
X-101668Y76166D01*
X-101042Y76471D01*
X-100408Y76762D01*
X-99767Y77036D01*
X-99120Y77295D01*
X-98467Y77538D01*
X-97808Y77765D01*
X-97144Y77975D01*
X-96474Y78169D01*
X-95800Y78347D01*
X-95122Y78508D01*
X-94440Y78652D01*
X-93755Y78780D01*
X-93067Y78891D01*
X-92376Y78984D01*
X-91683Y79061D01*
X-90989Y79121D01*
X-90293Y79164D01*
X-89597Y79189D01*
X-88900Y79198D01*
X-88203Y79189D01*
X-87507Y79164D01*
X-86811Y79121D01*
X-86117Y79061D01*
X-85424Y78984D01*
X-84733Y78891D01*
X-84045Y78780D01*
X-83360Y78652D01*
X-82678Y78508D01*
X-82000Y78347D01*
X-81326Y78169D01*
X-80656Y77975D01*
X-79992Y77765D01*
X-79333Y77538D01*
X-78680Y77295D01*
X-78033Y77036D01*
X-77392Y76762D01*
X-76758Y76471D01*
X-76132Y76166D01*
X-75513Y75845D01*
X-74903Y75509D01*
X-74301Y75158D01*
X-73707Y74792D01*
X-73123Y74412D01*
X-72548Y74018D01*
X-71983Y73609D01*
X-71429Y73187D01*
X-70884Y72752D01*
X-70351Y72303D01*
X-69829Y71842D01*
X-69318Y71367D01*
X-68820Y70880D01*
X-68333Y70382D01*
X-67858Y69871D01*
X-67397Y69349D01*
X-66948Y68816D01*
X-66513Y68271D01*
X-66091Y67717D01*
X-65682Y67152D01*
X-65288Y66577D01*
X-64908Y65993D01*
X-64542Y65399D01*
X-64191Y64797D01*
X-63855Y64187D01*
X-63534Y63568D01*
X-63229Y62942D01*
X-62938Y62308D01*
X-62664Y61667D01*
X-62405Y61020D01*
X-62162Y60367D01*
X-61935Y59708D01*
X-61725Y59044D01*
X-61531Y58374D01*
X-61353Y57700D01*
X-61192Y57022D01*
X-61048Y56340D01*
X-60920Y55655D01*
X-60809Y54967D01*
X-60716Y54276D01*
X-60639Y53583D01*
X-60579Y52889D01*
X-60536Y52193D01*
X-60511Y51497D01*
X-60502Y50800D01*
X-60511Y50103D01*
X-60536Y49407D01*
X-60579Y48711D01*
X-60639Y48017D01*
X-60716Y47324D01*
X-60809Y46633D01*
X-60920Y45945D01*
X-61048Y45260D01*
X-61192Y44578D01*
X-61353Y43900D01*
X-61531Y43226D01*
X-61725Y42556D01*
X-61935Y41892D01*
X-62162Y41233D01*
X-62405Y40580D01*
X-62664Y39933D01*
X-62938Y39292D01*
X-63229Y38658D01*
X-63534Y38032D01*
X-63855Y37413D01*
X-64191Y36803D01*
X-64542Y36201D01*
X-64908Y35607D01*
X-65288Y35023D01*
X-65682Y34448D01*
X-66091Y33883D01*
X-66513Y33329D01*
X-66948Y32784D01*
X-67397Y32251D01*
X-67858Y31729D01*
X-68333Y31218D01*
X-68820Y30720D01*
X-69318Y30233D01*
X-69829Y29758D01*
X-70351Y29297D01*
X-70884Y28848D01*
X-71429Y28413D01*
X-71983Y27991D01*
X-72548Y27582D01*
X-73123Y27188D01*
X-73707Y26808D01*
X-74301Y26442D01*
X-74903Y26091D01*
X-75513Y25755D01*
X-76132Y25434D01*
X-76758Y25129D01*
X-77392Y24838D01*
X-78033Y24564D01*
X-78680Y24305D01*
X-79333Y24062D01*
X-79992Y23835D01*
X-80656Y23625D01*
X-81326Y23431D01*
X-82000Y23253D01*
X-82678Y23092D01*
X-83360Y22948D01*
X-84045Y22820D01*
X-84733Y22709D01*
X-85424Y22616D01*
X-86117Y22539D01*
X-86811Y22479D01*
X-87507Y22436D01*
X-88203Y22411D01*
X-88900Y22402D01*
X-89597Y22411D01*
X-90293Y22436D01*
X-90989Y22479D01*
X-91683Y22539D01*
X-92376Y22616D01*
X-93067Y22709D01*
X-93755Y22820D01*
X-94440Y22948D01*
X-95122Y23092D01*
X-95800Y23253D01*
X-96474Y23431D01*
X-97144Y23625D01*
X-97808Y23835D01*
X-98467Y24062D01*
X-99120Y24305D01*
X-99767Y24564D01*
X-100408Y24838D01*
X-101042Y25129D01*
X-101668Y25434D01*
X-102287Y25755D01*
X-102897Y26091D01*
X-103499Y26442D01*
X-104093Y26808D01*
X-104677Y27188D01*
X-105252Y27582D01*
X-105817Y27991D01*
X-106371Y28413D01*
X-106916Y28848D01*
X-107449Y29297D01*
X-107971Y29758D01*
X-108482Y30233D01*
X-108980Y30720D01*
X-109467Y31218D01*
X-109942Y31729D01*
X-110403Y32251D01*
X-110852Y32784D01*
X-111287Y33329D01*
X-111709Y33883D01*
X-112118Y34448D01*
X-112512Y35023D01*
X-112892Y35607D01*
X-113258Y36201D01*
X-113609Y36803D01*
X-113945Y37413D01*
X-114266Y38032D01*
X-114571Y38658D01*
X-114862Y39292D01*
X-115136Y39933D01*
X-115395Y40580D01*
X-115638Y41233D01*
X-115865Y41892D01*
X-116075Y42556D01*
X-116269Y43226D01*
X-116447Y43900D01*
X-116608Y44578D01*
X-116752Y45260D01*
X-116880Y45945D01*
X-116991Y46633D01*
X-117084Y47324D01*
X-117161Y48017D01*
X-117221Y48711D01*
X-117264Y49407D01*
X-117289Y50103D01*
X-117298Y50800D01*
X-117298Y127000D02*
X-117289Y127697D01*
X-117264Y128393D01*
X-117221Y129089D01*
X-117161Y129783D01*
X-117084Y130476D01*
X-116991Y131167D01*
X-116880Y131855D01*
X-116752Y132540D01*
X-116608Y133222D01*
X-116447Y133900D01*
X-116269Y134574D01*
X-116075Y135244D01*
X-115865Y135908D01*
X-115638Y136567D01*
X-115395Y137220D01*
X-115136Y137867D01*
X-114862Y138508D01*
X-114571Y139142D01*
X-114266Y139768D01*
X-113945Y140387D01*
X-113609Y140997D01*
X-113258Y141599D01*
X-112892Y142193D01*
X-112512Y142777D01*
X-112118Y143352D01*
X-111709Y143917D01*
X-111287Y144471D01*
X-110852Y145016D01*
X-110403Y145549D01*
X-109942Y146071D01*
X-109467Y146582D01*
X-108980Y147080D01*
X-108482Y147567D01*
X-107971Y148042D01*
X-107449Y148503D01*
X-106916Y148952D01*
X-106371Y149387D01*
X-105817Y149809D01*
X-105252Y150218D01*
X-104677Y150612D01*
X-104093Y150992D01*
X-103499Y151358D01*
X-102897Y151709D01*
X-102287Y152045D01*
X-101668Y152366D01*
X-101042Y152671D01*
X-100408Y152962D01*
X-99767Y153236D01*
X-99120Y153495D01*
X-98467Y153738D01*
X-97808Y153965D01*
X-97144Y154175D01*
X-96474Y154369D01*
X-95800Y154547D01*
X-95122Y154708D01*
X-94440Y154852D01*
X-93755Y154980D01*
X-93067Y155091D01*
X-92376Y155184D01*
X-91683Y155261D01*
X-90989Y155321D01*
X-90293Y155364D01*
X-89597Y155389D01*
X-88900Y155398D01*
X-88203Y155389D01*
X-87507Y155364D01*
X-86811Y155321D01*
X-86117Y155261D01*
X-85424Y155184D01*
X-84733Y155091D01*
X-84045Y154980D01*
X-83360Y154852D01*
X-82678Y154708D01*
X-82000Y154547D01*
X-81326Y154369D01*
X-80656Y154175D01*
X-79992Y153965D01*
X-79333Y153738D01*
X-78680Y153495D01*
X-78033Y153236D01*
X-77392Y152962D01*
X-76758Y152671D01*
X-76132Y152366D01*
X-75513Y152045D01*
X-74903Y151709D01*
X-74301Y151358D01*
X-73707Y150992D01*
X-73123Y150612D01*
X-72548Y150218D01*
X-71983Y149809D01*
X-71429Y149387D01*
X-70884Y148952D01*
X-70351Y148503D01*
X-69829Y148042D01*
X-69318Y147567D01*
X-68820Y147080D01*
X-68333Y146582D01*
X-67858Y146071D01*
X-67397Y145549D01*
X-66948Y145016D01*
X-66513Y144471D01*
X-66091Y143917D01*
X-65682Y143352D01*
X-65288Y142777D01*
X-64908Y142193D01*
X-64542Y141599D01*
X-64191Y140997D01*
X-63855Y140387D01*
X-63534Y139768D01*
X-63229Y139142D01*
X-62938Y138508D01*
X-62664Y137867D01*
X-62405Y137220D01*
X-62162Y136567D01*
X-61935Y135908D01*
X-61725Y135244D01*
X-61531Y134574D01*
X-61353Y133900D01*
X-61192Y133222D01*
X-61048Y132540D01*
X-60920Y131855D01*
X-60809Y131167D01*
X-60716Y130476D01*
X-60639Y129783D01*
X-60579Y129089D01*
X-60536Y128393D01*
X-60511Y127697D01*
X-60502Y127000D01*
X-60511Y126303D01*
X-60536Y125607D01*
X-60579Y124911D01*
X-60639Y124217D01*
X-60716Y123524D01*
X-60809Y122833D01*
X-60920Y122145D01*
X-61048Y121460D01*
X-61192Y120778D01*
X-61353Y120100D01*
X-61531Y119426D01*
X-61725Y118756D01*
X-61935Y118092D01*
X-62162Y117433D01*
X-62405Y116780D01*
X-62664Y116133D01*
X-62938Y115492D01*
X-63229Y114858D01*
X-63534Y114232D01*
X-63855Y113613D01*
X-64191Y113003D01*
X-64542Y112401D01*
X-64908Y111807D01*
X-65288Y111223D01*
X-65682Y110648D01*
X-66091Y110083D01*
X-66513Y109529D01*
X-66948Y108984D01*
X-67397Y108451D01*
X-67858Y107929D01*
X-68333Y107418D01*
X-68820Y106920D01*
X-69318Y106433D01*
X-69829Y105958D01*
X-70351Y105497D01*
X-70884Y105048D01*
X-71429Y104613D01*
X-71983Y104191D01*
X-72548Y103782D01*
X-73123Y103388D01*
X-73707Y103008D01*
X-74301Y102642D01*
X-74903Y102291D01*
X-75513Y101955D01*
X-76132Y101634D01*
X-76758Y101329D01*
X-77392Y101038D01*
X-78033Y100764D01*
X-78680Y100505D01*
X-79333Y100262D01*
X-79992Y100035D01*
X-80656Y99825D01*
X-81326Y99631D01*
X-82000Y99453D01*
X-82678Y99292D01*
X-83360Y99148D01*
X-84045Y99020D01*
X-84733Y98909D01*
X-85424Y98816D01*
X-86117Y98739D01*
X-86811Y98679D01*
X-87507Y98636D01*
X-88203Y98611D01*
X-88900Y98602D01*
X-89597Y98611D01*
X-90293Y98636D01*
X-90989Y98679D01*
X-91683Y98739D01*
X-92376Y98816D01*
X-93067Y98909D01*
X-93755Y99020D01*
X-94440Y99148D01*
X-95122Y99292D01*
X-95800Y99453D01*
X-96474Y99631D01*
X-97144Y99825D01*
X-97808Y100035D01*
X-98467Y100262D01*
X-99120Y100505D01*
X-99767Y100764D01*
X-100408Y101038D01*
X-101042Y101329D01*
X-101668Y101634D01*
X-102287Y101955D01*
X-102897Y102291D01*
X-103499Y102642D01*
X-104093Y103008D01*
X-104677Y103388D01*
X-105252Y103782D01*
X-105817Y104191D01*
X-106371Y104613D01*
X-106916Y105048D01*
X-107449Y105497D01*
X-107971Y105958D01*
X-108482Y106433D01*
X-108980Y106920D01*
X-109467Y107418D01*
X-109942Y107929D01*
X-110403Y108451D01*
X-110852Y108984D01*
X-111287Y109529D01*
X-111709Y110083D01*
X-112118Y110648D01*
X-112512Y111223D01*
X-112892Y111807D01*
X-113258Y112401D01*
X-113609Y113003D01*
X-113945Y113613D01*
X-114266Y114232D01*
X-114571Y114858D01*
X-114862Y115492D01*
X-115136Y116133D01*
X-115395Y116780D01*
X-115638Y117433D01*
X-115865Y118092D01*
X-116075Y118756D01*
X-116269Y119426D01*
X-116447Y120100D01*
X-116608Y120778D01*
X-116752Y121460D01*
X-116880Y122145D01*
X-116991Y122833D01*
X-117084Y123524D01*
X-117161Y124217D01*
X-117221Y124911D01*
X-117264Y125607D01*
X-117289Y126303D01*
X-117298Y127000D01*
X-101600Y76200D02*
X-76200Y25400D01*
X-76200Y101600D02*
X-101600Y152400D01*
X-127000Y165100D02*
X-127000Y12700D01*
X-50800Y12700D02*
X-50800Y165100D01*
D19*
X-708058Y144936D02*
X-719742Y137147D01*
X-719742Y144936D02*
X-708058Y137147D01*
X-708058Y152796D02*
X-708060Y152903D01*
X-708066Y153009D01*
X-708076Y153115D01*
X-708089Y153221D01*
X-708107Y153327D01*
X-708128Y153431D01*
X-708153Y153535D01*
X-708182Y153638D01*
X-708214Y153739D01*
X-708251Y153839D01*
X-708291Y153938D01*
X-708334Y154036D01*
X-708381Y154132D01*
X-708432Y154226D01*
X-708486Y154318D01*
X-708543Y154408D01*
X-708603Y154496D01*
X-708667Y154581D01*
X-708734Y154664D01*
X-708804Y154745D01*
X-708876Y154823D01*
X-708952Y154899D01*
X-709030Y154971D01*
X-709111Y155041D01*
X-709194Y155108D01*
X-709279Y155172D01*
X-709367Y155232D01*
X-709457Y155289D01*
X-709549Y155343D01*
X-709643Y155394D01*
X-709739Y155441D01*
X-709837Y155484D01*
X-709936Y155524D01*
X-710036Y155561D01*
X-710137Y155593D01*
X-710240Y155622D01*
X-710344Y155647D01*
X-710448Y155668D01*
X-710554Y155686D01*
X-710660Y155699D01*
X-710766Y155709D01*
X-710872Y155715D01*
X-710979Y155717D01*
X-708058Y152796D02*
X-708060Y152675D01*
X-708066Y152554D01*
X-708076Y152434D01*
X-708089Y152313D01*
X-708107Y152194D01*
X-708128Y152074D01*
X-708153Y151956D01*
X-708182Y151839D01*
X-708215Y151722D01*
X-708251Y151607D01*
X-708292Y151493D01*
X-708335Y151380D01*
X-708383Y151268D01*
X-708434Y151159D01*
X-708489Y151051D01*
X-708547Y150944D01*
X-708608Y150840D01*
X-708673Y150738D01*
X-708741Y150638D01*
X-708812Y150540D01*
X-708886Y150444D01*
X-708963Y150351D01*
X-709044Y150261D01*
X-709127Y150173D01*
X-709213Y150088D01*
X-709302Y150005D01*
X-709393Y149926D01*
X-709487Y149849D01*
X-709583Y149776D01*
X-709681Y149706D01*
X-709782Y149639D01*
X-709885Y149575D01*
X-709990Y149515D01*
X-710097Y149457D01*
X-710205Y149404D01*
X-710315Y149354D01*
X-710427Y149308D01*
X-710540Y149265D01*
X-710655Y149226D01*
X-713251Y154743D02*
X-713173Y154822D01*
X-713093Y154898D01*
X-713010Y154971D01*
X-712924Y155041D01*
X-712837Y155108D01*
X-712746Y155172D01*
X-712654Y155232D01*
X-712560Y155290D01*
X-712463Y155344D01*
X-712365Y155394D01*
X-712265Y155441D01*
X-712164Y155485D01*
X-712061Y155525D01*
X-711956Y155561D01*
X-711851Y155593D01*
X-711744Y155622D01*
X-711637Y155647D01*
X-711528Y155669D01*
X-711419Y155686D01*
X-711310Y155700D01*
X-711200Y155709D01*
X-711089Y155715D01*
X-710979Y155717D01*
X-713251Y154744D02*
X-719742Y149226D01*
X-719742Y155717D01*
D12*
X-724700Y132050D02*
X-724700Y287050D01*
X-804700Y287050D01*
X-814700Y287050D01*
X-814700Y132050D01*
X-804700Y132050D01*
X-724700Y132050D01*
X-804700Y132050D02*
X-804700Y287050D01*
X-744700Y159550D02*
X-744698Y159691D01*
X-744692Y159832D01*
X-744682Y159972D01*
X-744668Y160112D01*
X-744650Y160252D01*
X-744629Y160391D01*
X-744603Y160530D01*
X-744574Y160668D01*
X-744540Y160804D01*
X-744503Y160940D01*
X-744462Y161075D01*
X-744417Y161209D01*
X-744368Y161341D01*
X-744316Y161472D01*
X-744260Y161601D01*
X-744200Y161728D01*
X-744137Y161854D01*
X-744071Y161978D01*
X-744000Y162101D01*
X-743927Y162221D01*
X-743850Y162339D01*
X-743770Y162455D01*
X-743686Y162568D01*
X-743600Y162679D01*
X-743510Y162788D01*
X-743417Y162894D01*
X-743322Y162997D01*
X-743223Y163098D01*
X-743122Y163196D01*
X-743018Y163291D01*
X-742911Y163383D01*
X-742802Y163472D01*
X-742690Y163557D01*
X-742576Y163640D01*
X-742460Y163720D01*
X-742341Y163796D01*
X-742220Y163868D01*
X-742098Y163938D01*
X-741973Y164003D01*
X-741847Y164066D01*
X-741719Y164124D01*
X-741589Y164179D01*
X-741458Y164231D01*
X-741325Y164278D01*
X-741191Y164322D01*
X-741056Y164363D01*
X-740920Y164399D01*
X-740783Y164431D01*
X-740645Y164460D01*
X-740507Y164485D01*
X-740367Y164505D01*
X-740227Y164522D01*
X-740087Y164535D01*
X-739946Y164544D01*
X-739806Y164549D01*
X-739665Y164550D01*
X-739524Y164547D01*
X-739383Y164540D01*
X-739243Y164529D01*
X-739103Y164514D01*
X-738963Y164495D01*
X-738824Y164473D01*
X-738686Y164446D01*
X-738548Y164416D01*
X-738412Y164381D01*
X-738276Y164343D01*
X-738142Y164301D01*
X-738008Y164255D01*
X-737876Y164206D01*
X-737746Y164152D01*
X-737617Y164095D01*
X-737490Y164035D01*
X-737364Y163971D01*
X-737241Y163903D01*
X-737119Y163832D01*
X-736999Y163758D01*
X-736882Y163680D01*
X-736767Y163599D01*
X-736654Y163515D01*
X-736543Y163428D01*
X-736435Y163337D01*
X-736330Y163244D01*
X-736227Y163147D01*
X-736127Y163048D01*
X-736030Y162946D01*
X-735936Y162841D01*
X-735845Y162734D01*
X-735757Y162624D01*
X-735672Y162512D01*
X-735590Y162397D01*
X-735511Y162280D01*
X-735436Y162161D01*
X-735364Y162040D01*
X-735296Y161917D01*
X-735231Y161792D01*
X-735169Y161665D01*
X-735112Y161536D01*
X-735057Y161406D01*
X-735007Y161275D01*
X-734960Y161142D01*
X-734917Y161008D01*
X-734878Y160872D01*
X-734843Y160736D01*
X-734811Y160599D01*
X-734784Y160461D01*
X-734760Y160322D01*
X-734740Y160182D01*
X-734724Y160042D01*
X-734712Y159902D01*
X-734704Y159761D01*
X-734700Y159620D01*
X-734700Y159480D01*
X-734704Y159339D01*
X-734712Y159198D01*
X-734724Y159058D01*
X-734740Y158918D01*
X-734760Y158778D01*
X-734784Y158639D01*
X-734811Y158501D01*
X-734843Y158364D01*
X-734878Y158228D01*
X-734917Y158092D01*
X-734960Y157958D01*
X-735007Y157825D01*
X-735057Y157694D01*
X-735112Y157564D01*
X-735169Y157435D01*
X-735231Y157308D01*
X-735296Y157183D01*
X-735364Y157060D01*
X-735436Y156939D01*
X-735511Y156820D01*
X-735590Y156703D01*
X-735672Y156588D01*
X-735757Y156476D01*
X-735845Y156366D01*
X-735936Y156259D01*
X-736030Y156154D01*
X-736127Y156052D01*
X-736227Y155953D01*
X-736330Y155856D01*
X-736435Y155763D01*
X-736543Y155672D01*
X-736654Y155585D01*
X-736767Y155501D01*
X-736882Y155420D01*
X-736999Y155342D01*
X-737119Y155268D01*
X-737241Y155197D01*
X-737364Y155129D01*
X-737490Y155065D01*
X-737617Y155005D01*
X-737746Y154948D01*
X-737876Y154894D01*
X-738008Y154845D01*
X-738142Y154799D01*
X-738276Y154757D01*
X-738412Y154719D01*
X-738548Y154684D01*
X-738686Y154654D01*
X-738824Y154627D01*
X-738963Y154605D01*
X-739103Y154586D01*
X-739243Y154571D01*
X-739383Y154560D01*
X-739524Y154553D01*
X-739665Y154550D01*
X-739806Y154551D01*
X-739946Y154556D01*
X-740087Y154565D01*
X-740227Y154578D01*
X-740367Y154595D01*
X-740507Y154615D01*
X-740645Y154640D01*
X-740783Y154669D01*
X-740920Y154701D01*
X-741056Y154737D01*
X-741191Y154778D01*
X-741325Y154822D01*
X-741458Y154869D01*
X-741589Y154921D01*
X-741719Y154976D01*
X-741847Y155034D01*
X-741973Y155097D01*
X-742098Y155162D01*
X-742220Y155232D01*
X-742341Y155304D01*
X-742460Y155380D01*
X-742576Y155460D01*
X-742690Y155543D01*
X-742802Y155628D01*
X-742911Y155717D01*
X-743018Y155809D01*
X-743122Y155904D01*
X-743223Y156002D01*
X-743322Y156103D01*
X-743417Y156206D01*
X-743510Y156312D01*
X-743600Y156421D01*
X-743686Y156532D01*
X-743770Y156645D01*
X-743850Y156761D01*
X-743927Y156879D01*
X-744000Y156999D01*
X-744071Y157122D01*
X-744137Y157246D01*
X-744200Y157372D01*
X-744260Y157499D01*
X-744316Y157628D01*
X-744368Y157759D01*
X-744417Y157891D01*
X-744462Y158025D01*
X-744503Y158160D01*
X-744540Y158296D01*
X-744574Y158432D01*
X-744603Y158570D01*
X-744629Y158709D01*
X-744650Y158848D01*
X-744668Y158988D01*
X-744682Y159128D01*
X-744692Y159268D01*
X-744698Y159409D01*
X-744700Y159550D01*
X-744700Y209550D02*
X-744698Y209691D01*
X-744692Y209832D01*
X-744682Y209972D01*
X-744668Y210112D01*
X-744650Y210252D01*
X-744629Y210391D01*
X-744603Y210530D01*
X-744574Y210668D01*
X-744540Y210804D01*
X-744503Y210940D01*
X-744462Y211075D01*
X-744417Y211209D01*
X-744368Y211341D01*
X-744316Y211472D01*
X-744260Y211601D01*
X-744200Y211728D01*
X-744137Y211854D01*
X-744071Y211978D01*
X-744000Y212101D01*
X-743927Y212221D01*
X-743850Y212339D01*
X-743770Y212455D01*
X-743686Y212568D01*
X-743600Y212679D01*
X-743510Y212788D01*
X-743417Y212894D01*
X-743322Y212997D01*
X-743223Y213098D01*
X-743122Y213196D01*
X-743018Y213291D01*
X-742911Y213383D01*
X-742802Y213472D01*
X-742690Y213557D01*
X-742576Y213640D01*
X-742460Y213720D01*
X-742341Y213796D01*
X-742220Y213868D01*
X-742098Y213938D01*
X-741973Y214003D01*
X-741847Y214066D01*
X-741719Y214124D01*
X-741589Y214179D01*
X-741458Y214231D01*
X-741325Y214278D01*
X-741191Y214322D01*
X-741056Y214363D01*
X-740920Y214399D01*
X-740783Y214431D01*
X-740645Y214460D01*
X-740507Y214485D01*
X-740367Y214505D01*
X-740227Y214522D01*
X-740087Y214535D01*
X-739946Y214544D01*
X-739806Y214549D01*
X-739665Y214550D01*
X-739524Y214547D01*
X-739383Y214540D01*
X-739243Y214529D01*
X-739103Y214514D01*
X-738963Y214495D01*
X-738824Y214473D01*
X-738686Y214446D01*
X-738548Y214416D01*
X-738412Y214381D01*
X-738276Y214343D01*
X-738142Y214301D01*
X-738008Y214255D01*
X-737876Y214206D01*
X-737746Y214152D01*
X-737617Y214095D01*
X-737490Y214035D01*
X-737364Y213971D01*
X-737241Y213903D01*
X-737119Y213832D01*
X-736999Y213758D01*
X-736882Y213680D01*
X-736767Y213599D01*
X-736654Y213515D01*
X-736543Y213428D01*
X-736435Y213337D01*
X-736330Y213244D01*
X-736227Y213147D01*
X-736127Y213048D01*
X-736030Y212946D01*
X-735936Y212841D01*
X-735845Y212734D01*
X-735757Y212624D01*
X-735672Y212512D01*
X-735590Y212397D01*
X-735511Y212280D01*
X-735436Y212161D01*
X-735364Y212040D01*
X-735296Y211917D01*
X-735231Y211792D01*
X-735169Y211665D01*
X-735112Y211536D01*
X-735057Y211406D01*
X-735007Y211275D01*
X-734960Y211142D01*
X-734917Y211008D01*
X-734878Y210872D01*
X-734843Y210736D01*
X-734811Y210599D01*
X-734784Y210461D01*
X-734760Y210322D01*
X-734740Y210182D01*
X-734724Y210042D01*
X-734712Y209902D01*
X-734704Y209761D01*
X-734700Y209620D01*
X-734700Y209480D01*
X-734704Y209339D01*
X-734712Y209198D01*
X-734724Y209058D01*
X-734740Y208918D01*
X-734760Y208778D01*
X-734784Y208639D01*
X-734811Y208501D01*
X-734843Y208364D01*
X-734878Y208228D01*
X-734917Y208092D01*
X-734960Y207958D01*
X-735007Y207825D01*
X-735057Y207694D01*
X-735112Y207564D01*
X-735169Y207435D01*
X-735231Y207308D01*
X-735296Y207183D01*
X-735364Y207060D01*
X-735436Y206939D01*
X-735511Y206820D01*
X-735590Y206703D01*
X-735672Y206588D01*
X-735757Y206476D01*
X-735845Y206366D01*
X-735936Y206259D01*
X-736030Y206154D01*
X-736127Y206052D01*
X-736227Y205953D01*
X-736330Y205856D01*
X-736435Y205763D01*
X-736543Y205672D01*
X-736654Y205585D01*
X-736767Y205501D01*
X-736882Y205420D01*
X-736999Y205342D01*
X-737119Y205268D01*
X-737241Y205197D01*
X-737364Y205129D01*
X-737490Y205065D01*
X-737617Y205005D01*
X-737746Y204948D01*
X-737876Y204894D01*
X-738008Y204845D01*
X-738142Y204799D01*
X-738276Y204757D01*
X-738412Y204719D01*
X-738548Y204684D01*
X-738686Y204654D01*
X-738824Y204627D01*
X-738963Y204605D01*
X-739103Y204586D01*
X-739243Y204571D01*
X-739383Y204560D01*
X-739524Y204553D01*
X-739665Y204550D01*
X-739806Y204551D01*
X-739946Y204556D01*
X-740087Y204565D01*
X-740227Y204578D01*
X-740367Y204595D01*
X-740507Y204615D01*
X-740645Y204640D01*
X-740783Y204669D01*
X-740920Y204701D01*
X-741056Y204737D01*
X-741191Y204778D01*
X-741325Y204822D01*
X-741458Y204869D01*
X-741589Y204921D01*
X-741719Y204976D01*
X-741847Y205034D01*
X-741973Y205097D01*
X-742098Y205162D01*
X-742220Y205232D01*
X-742341Y205304D01*
X-742460Y205380D01*
X-742576Y205460D01*
X-742690Y205543D01*
X-742802Y205628D01*
X-742911Y205717D01*
X-743018Y205809D01*
X-743122Y205904D01*
X-743223Y206002D01*
X-743322Y206103D01*
X-743417Y206206D01*
X-743510Y206312D01*
X-743600Y206421D01*
X-743686Y206532D01*
X-743770Y206645D01*
X-743850Y206761D01*
X-743927Y206879D01*
X-744000Y206999D01*
X-744071Y207122D01*
X-744137Y207246D01*
X-744200Y207372D01*
X-744260Y207499D01*
X-744316Y207628D01*
X-744368Y207759D01*
X-744417Y207891D01*
X-744462Y208025D01*
X-744503Y208160D01*
X-744540Y208296D01*
X-744574Y208432D01*
X-744603Y208570D01*
X-744629Y208709D01*
X-744650Y208848D01*
X-744668Y208988D01*
X-744682Y209128D01*
X-744692Y209268D01*
X-744698Y209409D01*
X-744700Y209550D01*
X-744700Y259550D02*
X-744698Y259691D01*
X-744692Y259832D01*
X-744682Y259972D01*
X-744668Y260112D01*
X-744650Y260252D01*
X-744629Y260391D01*
X-744603Y260530D01*
X-744574Y260668D01*
X-744540Y260804D01*
X-744503Y260940D01*
X-744462Y261075D01*
X-744417Y261209D01*
X-744368Y261341D01*
X-744316Y261472D01*
X-744260Y261601D01*
X-744200Y261728D01*
X-744137Y261854D01*
X-744071Y261978D01*
X-744000Y262101D01*
X-743927Y262221D01*
X-743850Y262339D01*
X-743770Y262455D01*
X-743686Y262568D01*
X-743600Y262679D01*
X-743510Y262788D01*
X-743417Y262894D01*
X-743322Y262997D01*
X-743223Y263098D01*
X-743122Y263196D01*
X-743018Y263291D01*
X-742911Y263383D01*
X-742802Y263472D01*
X-742690Y263557D01*
X-742576Y263640D01*
X-742460Y263720D01*
X-742341Y263796D01*
X-742220Y263868D01*
X-742098Y263938D01*
X-741973Y264003D01*
X-741847Y264066D01*
X-741719Y264124D01*
X-741589Y264179D01*
X-741458Y264231D01*
X-741325Y264278D01*
X-741191Y264322D01*
X-741056Y264363D01*
X-740920Y264399D01*
X-740783Y264431D01*
X-740645Y264460D01*
X-740507Y264485D01*
X-740367Y264505D01*
X-740227Y264522D01*
X-740087Y264535D01*
X-739946Y264544D01*
X-739806Y264549D01*
X-739665Y264550D01*
X-739524Y264547D01*
X-739383Y264540D01*
X-739243Y264529D01*
X-739103Y264514D01*
X-738963Y264495D01*
X-738824Y264473D01*
X-738686Y264446D01*
X-738548Y264416D01*
X-738412Y264381D01*
X-738276Y264343D01*
X-738142Y264301D01*
X-738008Y264255D01*
X-737876Y264206D01*
X-737746Y264152D01*
X-737617Y264095D01*
X-737490Y264035D01*
X-737364Y263971D01*
X-737241Y263903D01*
X-737119Y263832D01*
X-736999Y263758D01*
X-736882Y263680D01*
X-736767Y263599D01*
X-736654Y263515D01*
X-736543Y263428D01*
X-736435Y263337D01*
X-736330Y263244D01*
X-736227Y263147D01*
X-736127Y263048D01*
X-736030Y262946D01*
X-735936Y262841D01*
X-735845Y262734D01*
X-735757Y262624D01*
X-735672Y262512D01*
X-735590Y262397D01*
X-735511Y262280D01*
X-735436Y262161D01*
X-735364Y262040D01*
X-735296Y261917D01*
X-735231Y261792D01*
X-735169Y261665D01*
X-735112Y261536D01*
X-735057Y261406D01*
X-735007Y261275D01*
X-734960Y261142D01*
X-734917Y261008D01*
X-734878Y260872D01*
X-734843Y260736D01*
X-734811Y260599D01*
X-734784Y260461D01*
X-734760Y260322D01*
X-734740Y260182D01*
X-734724Y260042D01*
X-734712Y259902D01*
X-734704Y259761D01*
X-734700Y259620D01*
X-734700Y259480D01*
X-734704Y259339D01*
X-734712Y259198D01*
X-734724Y259058D01*
X-734740Y258918D01*
X-734760Y258778D01*
X-734784Y258639D01*
X-734811Y258501D01*
X-734843Y258364D01*
X-734878Y258228D01*
X-734917Y258092D01*
X-734960Y257958D01*
X-735007Y257825D01*
X-735057Y257694D01*
X-735112Y257564D01*
X-735169Y257435D01*
X-735231Y257308D01*
X-735296Y257183D01*
X-735364Y257060D01*
X-735436Y256939D01*
X-735511Y256820D01*
X-735590Y256703D01*
X-735672Y256588D01*
X-735757Y256476D01*
X-735845Y256366D01*
X-735936Y256259D01*
X-736030Y256154D01*
X-736127Y256052D01*
X-736227Y255953D01*
X-736330Y255856D01*
X-736435Y255763D01*
X-736543Y255672D01*
X-736654Y255585D01*
X-736767Y255501D01*
X-736882Y255420D01*
X-736999Y255342D01*
X-737119Y255268D01*
X-737241Y255197D01*
X-737364Y255129D01*
X-737490Y255065D01*
X-737617Y255005D01*
X-737746Y254948D01*
X-737876Y254894D01*
X-738008Y254845D01*
X-738142Y254799D01*
X-738276Y254757D01*
X-738412Y254719D01*
X-738548Y254684D01*
X-738686Y254654D01*
X-738824Y254627D01*
X-738963Y254605D01*
X-739103Y254586D01*
X-739243Y254571D01*
X-739383Y254560D01*
X-739524Y254553D01*
X-739665Y254550D01*
X-739806Y254551D01*
X-739946Y254556D01*
X-740087Y254565D01*
X-740227Y254578D01*
X-740367Y254595D01*
X-740507Y254615D01*
X-740645Y254640D01*
X-740783Y254669D01*
X-740920Y254701D01*
X-741056Y254737D01*
X-741191Y254778D01*
X-741325Y254822D01*
X-741458Y254869D01*
X-741589Y254921D01*
X-741719Y254976D01*
X-741847Y255034D01*
X-741973Y255097D01*
X-742098Y255162D01*
X-742220Y255232D01*
X-742341Y255304D01*
X-742460Y255380D01*
X-742576Y255460D01*
X-742690Y255543D01*
X-742802Y255628D01*
X-742911Y255717D01*
X-743018Y255809D01*
X-743122Y255904D01*
X-743223Y256002D01*
X-743322Y256103D01*
X-743417Y256206D01*
X-743510Y256312D01*
X-743600Y256421D01*
X-743686Y256532D01*
X-743770Y256645D01*
X-743850Y256761D01*
X-743927Y256879D01*
X-744000Y256999D01*
X-744071Y257122D01*
X-744137Y257246D01*
X-744200Y257372D01*
X-744260Y257499D01*
X-744316Y257628D01*
X-744368Y257759D01*
X-744417Y257891D01*
X-744462Y258025D01*
X-744503Y258160D01*
X-744540Y258296D01*
X-744574Y258432D01*
X-744603Y258570D01*
X-744629Y258709D01*
X-744650Y258848D01*
X-744668Y258988D01*
X-744682Y259128D01*
X-744692Y259268D01*
X-744698Y259409D01*
X-744700Y259550D01*
M02*
