G04 EAGLE Gerber X2 export*
%TF.Part,Single*%
%TF.FileFunction,Soldermask,Bot,1*%
%TF.FilePolarity,Negative*%
%TF.GenerationSoftware,Autodesk,EAGLE,8.6.0*%
%TF.CreationDate,2018-01-28T12:16:18Z*%
G75*
%MOMM*%
%FSLAX34Y34*%
%LPD*%
%AMOC8*
5,1,8,0,0,1.08239X$1,22.5*%
G01*
%ADD10C,3.403200*%
%ADD11R,1.403200X1.403200*%
%ADD12R,2.133600X2.133600*%
%ADD13C,2.133600*%
%ADD14R,1.253200X1.503200*%
%ADD15P,2.584314X8X22.500000*%
%ADD16R,1.503200X1.253200*%
%ADD17R,1.879600X1.879600*%
%ADD18P,2.034460X8X292.500000*%
%ADD19R,1.903200X2.403200*%
%ADD20C,1.879600*%
%ADD21C,1.611200*%
%ADD22P,2.034460X8X22.500000*%
%ADD23R,1.903200X1.453200*%
%ADD24R,1.453200X1.903200*%
%ADD25P,2.309387X8X22.500000*%
%ADD26R,1.203200X1.603200*%
%ADD27P,4.343848X8X112.500000*%
%ADD28P,3.467112X8X112.500000*%


D10*
X787400Y31750D03*
X38100Y336550D03*
D11*
X144800Y190200D03*
X144800Y216200D03*
X83800Y216200D03*
X83800Y190200D03*
D12*
X76200Y241300D03*
D13*
X76200Y317500D03*
D14*
X191450Y76200D03*
X214950Y76200D03*
D15*
X514350Y311150D03*
X565150Y311150D03*
D16*
X698500Y197800D03*
X698500Y221300D03*
D17*
X685800Y146050D03*
D18*
X685800Y171450D03*
D14*
X697550Y69850D03*
X674050Y69850D03*
D19*
X247650Y175250D03*
X247650Y129900D03*
D20*
X283718Y177800D02*
X300482Y177800D01*
X398018Y177800D02*
X414782Y177800D01*
D19*
X666750Y205750D03*
X666750Y251100D03*
D21*
X190500Y57840D02*
X190500Y43760D01*
X215900Y43760D02*
X215900Y57840D01*
X241300Y57840D02*
X241300Y43760D01*
X266700Y43760D02*
X266700Y57840D01*
X266700Y119960D02*
X266700Y134040D01*
X215900Y134040D02*
X215900Y119960D01*
X190500Y119960D02*
X190500Y134040D01*
X596900Y25400D02*
X610980Y25400D01*
X610980Y50800D02*
X596900Y50800D01*
X520700Y50800D02*
X506620Y50800D01*
X506620Y25400D02*
X520700Y25400D01*
D22*
X50800Y266700D03*
X50800Y190500D03*
D23*
X742950Y113000D03*
X742950Y77500D03*
X19050Y113000D03*
X19050Y77500D03*
X19050Y170150D03*
X19050Y134650D03*
X19050Y284450D03*
X19050Y248950D03*
X19050Y227300D03*
X19050Y191800D03*
X698500Y236250D03*
X698500Y271750D03*
D24*
X680750Y25400D03*
X716250Y25400D03*
X629950Y25400D03*
X665450Y25400D03*
D23*
X742950Y55850D03*
X742950Y20350D03*
D25*
X456100Y101600D03*
X456100Y152400D03*
X456100Y203200D03*
X456100Y254000D03*
X636100Y254000D03*
X636100Y203200D03*
X636100Y152400D03*
X636100Y101600D03*
D26*
X685800Y112600D03*
X676300Y90600D03*
X695300Y90600D03*
D27*
X88900Y50800D03*
X88900Y127000D03*
D28*
X774700Y158750D03*
X774700Y209550D03*
X774700Y260350D03*
M02*
