G04 EAGLE Gerber X2 export*
%TF.Part,Single*%
%TF.FileFunction,Copper,L1,Top,Mixed*%
%TF.FilePolarity,Positive*%
%TF.GenerationSoftware,Autodesk,EAGLE,8.6.0*%
%TF.CreationDate,2018-01-28T12:09:13Z*%
G75*
%MOMM*%
%FSLAX34Y34*%
%LPD*%
%AMOC8*
5,1,8,0,0,1.08239X$1,22.5*%
G01*
%ADD10R,1.930400X1.930400*%
%ADD11C,1.930400*%
%ADD12P,2.364373X8X22.500000*%
%ADD13R,1.676400X1.676400*%
%ADD14P,1.814519X8X292.500000*%
%ADD15C,1.676400*%
%ADD16C,1.408000*%
%ADD17P,1.814519X8X22.500000*%
%ADD18P,2.089446X8X22.500000*%
%ADD19P,4.123906X8X112.500000*%
%ADD20P,3.247170X8X112.500000*%


D10*
X76200Y241300D03*
D11*
X76200Y317500D03*
D12*
X514350Y311150D03*
X565150Y311150D03*
D13*
X685800Y146050D03*
D14*
X685800Y171450D03*
D15*
X300482Y177800D02*
X283718Y177800D01*
X398018Y177800D02*
X414782Y177800D01*
D16*
X190500Y57840D02*
X190500Y43760D01*
X215900Y43760D02*
X215900Y57840D01*
X241300Y57840D02*
X241300Y43760D01*
X266700Y43760D02*
X266700Y57840D01*
X266700Y119960D02*
X266700Y134040D01*
X215900Y134040D02*
X215900Y119960D01*
X190500Y119960D02*
X190500Y134040D01*
X596900Y25400D02*
X610980Y25400D01*
X610980Y50800D02*
X596900Y50800D01*
X520700Y50800D02*
X506620Y50800D01*
X506620Y25400D02*
X520700Y25400D01*
D17*
X50800Y266700D03*
X50800Y190500D03*
D18*
X456100Y101600D03*
X456100Y152400D03*
X456100Y203200D03*
X456100Y254000D03*
X636100Y254000D03*
X636100Y203200D03*
X636100Y152400D03*
X636100Y101600D03*
D19*
X88900Y50800D03*
X88900Y127000D03*
D20*
X774700Y158750D03*
X774700Y209550D03*
X774700Y260350D03*
M02*
