M48
;GenerationSoftware,Autodesk,EAGLE,8.6.0*%
;CreationDate,2018-01-30T03:25:42Z*%
FMAT,2
ICI,OFF
METRIC,TZ,000.000
T4C0.900
T3C1.100
T2C1.500
T1C3.200
%
G90
M71
T1
X78740Y3175
X3810Y33655
T2
X77470Y20955
X77470Y26035
X8890Y5080
X8890Y12700
X77470Y15875
T3
X51435Y31115
X56515Y31115
X29210Y17780
X40640Y17780
X45610Y10160
X45610Y15240
X45610Y20320
X45610Y25400
X63610Y25400
X63610Y20320
X63610Y15240
X63610Y10160
X5080Y26670
X5080Y19050
T4
X7620Y24130
X7620Y31750
X68580Y14605
X68580Y17145
X19050Y5080
X21590Y5080
X24130Y5080
X26670Y5080
X26670Y12700
X21590Y12700
X19050Y12700
X59690Y2540
X52070Y5080
X52070Y2540
X59690Y5080
M30