G04 EAGLE Gerber X2 export*
%TF.Part,Single*%
%TF.FileFunction,Profile,NP*%
%TF.FilePolarity,Positive*%
%TF.GenerationSoftware,Autodesk,EAGLE,8.6.0*%
%TF.CreationDate,2018-01-28T12:09:13Z*%
G75*
%MOMM*%
%FSLAX34Y34*%
%LPD*%
%AMOC8*
5,1,8,0,0,1.08239X$1,22.5*%
G01*
%ADD10C,0.254000*%


D10*
X0Y0D02*
X825300Y0D01*
X825300Y371350D01*
X0Y371350D01*
X0Y0D01*
X803400Y31226D02*
X803332Y30181D01*
X803195Y29142D01*
X802990Y28115D01*
X802719Y27103D01*
X802383Y26111D01*
X801982Y25143D01*
X801518Y24204D01*
X800995Y23296D01*
X800413Y22425D01*
X799775Y21594D01*
X799084Y20807D01*
X798343Y20066D01*
X797556Y19375D01*
X796725Y18738D01*
X795854Y18156D01*
X794946Y17632D01*
X794007Y17168D01*
X793039Y16767D01*
X792047Y16431D01*
X791035Y16160D01*
X790008Y15955D01*
X788969Y15819D01*
X787924Y15750D01*
X786876Y15750D01*
X785831Y15819D01*
X784792Y15955D01*
X783765Y16160D01*
X782753Y16431D01*
X781761Y16767D01*
X780793Y17168D01*
X779854Y17632D01*
X778946Y18156D01*
X778075Y18738D01*
X777244Y19375D01*
X776457Y20066D01*
X775716Y20807D01*
X775025Y21594D01*
X774388Y22425D01*
X773806Y23296D01*
X773282Y24204D01*
X772818Y25143D01*
X772417Y26111D01*
X772081Y27103D01*
X771810Y28115D01*
X771605Y29142D01*
X771469Y30181D01*
X771400Y31226D01*
X771400Y32274D01*
X771469Y33319D01*
X771605Y34358D01*
X771810Y35385D01*
X772081Y36397D01*
X772417Y37389D01*
X772818Y38357D01*
X773282Y39296D01*
X773806Y40204D01*
X774388Y41075D01*
X775025Y41906D01*
X775716Y42693D01*
X776457Y43434D01*
X777244Y44125D01*
X778075Y44763D01*
X778946Y45345D01*
X779854Y45868D01*
X780793Y46332D01*
X781761Y46733D01*
X782753Y47069D01*
X783765Y47340D01*
X784792Y47545D01*
X785831Y47682D01*
X786876Y47750D01*
X787924Y47750D01*
X788969Y47682D01*
X790008Y47545D01*
X791035Y47340D01*
X792047Y47069D01*
X793039Y46733D01*
X794007Y46332D01*
X794946Y45868D01*
X795854Y45345D01*
X796725Y44763D01*
X797556Y44125D01*
X798343Y43434D01*
X799084Y42693D01*
X799775Y41906D01*
X800413Y41075D01*
X800995Y40204D01*
X801518Y39296D01*
X801982Y38357D01*
X802383Y37389D01*
X802719Y36397D01*
X802990Y35385D01*
X803195Y34358D01*
X803332Y33319D01*
X803400Y32274D01*
X803400Y31226D01*
X54100Y336026D02*
X54032Y334981D01*
X53895Y333942D01*
X53690Y332915D01*
X53419Y331903D01*
X53083Y330911D01*
X52682Y329943D01*
X52218Y329004D01*
X51695Y328096D01*
X51113Y327225D01*
X50475Y326394D01*
X49784Y325607D01*
X49043Y324866D01*
X48256Y324175D01*
X47425Y323538D01*
X46554Y322956D01*
X45646Y322432D01*
X44707Y321968D01*
X43739Y321567D01*
X42747Y321231D01*
X41735Y320960D01*
X40708Y320755D01*
X39669Y320619D01*
X38624Y320550D01*
X37576Y320550D01*
X36531Y320619D01*
X35492Y320755D01*
X34465Y320960D01*
X33453Y321231D01*
X32461Y321567D01*
X31493Y321968D01*
X30554Y322432D01*
X29646Y322956D01*
X28775Y323538D01*
X27944Y324175D01*
X27157Y324866D01*
X26416Y325607D01*
X25725Y326394D01*
X25088Y327225D01*
X24506Y328096D01*
X23982Y329004D01*
X23518Y329943D01*
X23117Y330911D01*
X22781Y331903D01*
X22510Y332915D01*
X22305Y333942D01*
X22169Y334981D01*
X22100Y336026D01*
X22100Y337074D01*
X22169Y338119D01*
X22305Y339158D01*
X22510Y340185D01*
X22781Y341197D01*
X23117Y342189D01*
X23518Y343157D01*
X23982Y344096D01*
X24506Y345004D01*
X25088Y345875D01*
X25725Y346706D01*
X26416Y347493D01*
X27157Y348234D01*
X27944Y348925D01*
X28775Y349563D01*
X29646Y350145D01*
X30554Y350668D01*
X31493Y351132D01*
X32461Y351533D01*
X33453Y351869D01*
X34465Y352140D01*
X35492Y352345D01*
X36531Y352482D01*
X37576Y352550D01*
X38624Y352550D01*
X39669Y352482D01*
X40708Y352345D01*
X41735Y352140D01*
X42747Y351869D01*
X43739Y351533D01*
X44707Y351132D01*
X45646Y350668D01*
X46554Y350145D01*
X47425Y349563D01*
X48256Y348925D01*
X49043Y348234D01*
X49784Y347493D01*
X50475Y346706D01*
X51113Y345875D01*
X51695Y345004D01*
X52218Y344096D01*
X52682Y343157D01*
X53083Y342189D01*
X53419Y341197D01*
X53690Y340185D01*
X53895Y339158D01*
X54032Y338119D01*
X54100Y337074D01*
X54100Y336026D01*
X803400Y31226D02*
X803332Y30181D01*
X803195Y29142D01*
X802990Y28115D01*
X802719Y27103D01*
X802383Y26111D01*
X801982Y25143D01*
X801518Y24204D01*
X800995Y23296D01*
X800413Y22425D01*
X799775Y21594D01*
X799084Y20807D01*
X798343Y20066D01*
X797556Y19375D01*
X796725Y18738D01*
X795854Y18156D01*
X794946Y17632D01*
X794007Y17168D01*
X793039Y16767D01*
X792047Y16431D01*
X791035Y16160D01*
X790008Y15955D01*
X788969Y15819D01*
X787924Y15750D01*
X786876Y15750D01*
X785831Y15819D01*
X784792Y15955D01*
X783765Y16160D01*
X782753Y16431D01*
X781761Y16767D01*
X780793Y17168D01*
X779854Y17632D01*
X778946Y18156D01*
X778075Y18738D01*
X777244Y19375D01*
X776457Y20066D01*
X775716Y20807D01*
X775025Y21594D01*
X774388Y22425D01*
X773806Y23296D01*
X773282Y24204D01*
X772818Y25143D01*
X772417Y26111D01*
X772081Y27103D01*
X771810Y28115D01*
X771605Y29142D01*
X771469Y30181D01*
X771400Y31226D01*
X771400Y32274D01*
X771469Y33319D01*
X771605Y34358D01*
X771810Y35385D01*
X772081Y36397D01*
X772417Y37389D01*
X772818Y38357D01*
X773282Y39296D01*
X773806Y40204D01*
X774388Y41075D01*
X775025Y41906D01*
X775716Y42693D01*
X776457Y43434D01*
X777244Y44125D01*
X778075Y44763D01*
X778946Y45345D01*
X779854Y45868D01*
X780793Y46332D01*
X781761Y46733D01*
X782753Y47069D01*
X783765Y47340D01*
X784792Y47545D01*
X785831Y47682D01*
X786876Y47750D01*
X787924Y47750D01*
X788969Y47682D01*
X790008Y47545D01*
X791035Y47340D01*
X792047Y47069D01*
X793039Y46733D01*
X794007Y46332D01*
X794946Y45868D01*
X795854Y45345D01*
X796725Y44763D01*
X797556Y44125D01*
X798343Y43434D01*
X799084Y42693D01*
X799775Y41906D01*
X800413Y41075D01*
X800995Y40204D01*
X801518Y39296D01*
X801982Y38357D01*
X802383Y37389D01*
X802719Y36397D01*
X802990Y35385D01*
X803195Y34358D01*
X803332Y33319D01*
X803400Y32274D01*
X803400Y31226D01*
X54100Y336026D02*
X54032Y334981D01*
X53895Y333942D01*
X53690Y332915D01*
X53419Y331903D01*
X53083Y330911D01*
X52682Y329943D01*
X52218Y329004D01*
X51695Y328096D01*
X51113Y327225D01*
X50475Y326394D01*
X49784Y325607D01*
X49043Y324866D01*
X48256Y324175D01*
X47425Y323538D01*
X46554Y322956D01*
X45646Y322432D01*
X44707Y321968D01*
X43739Y321567D01*
X42747Y321231D01*
X41735Y320960D01*
X40708Y320755D01*
X39669Y320619D01*
X38624Y320550D01*
X37576Y320550D01*
X36531Y320619D01*
X35492Y320755D01*
X34465Y320960D01*
X33453Y321231D01*
X32461Y321567D01*
X31493Y321968D01*
X30554Y322432D01*
X29646Y322956D01*
X28775Y323538D01*
X27944Y324175D01*
X27157Y324866D01*
X26416Y325607D01*
X25725Y326394D01*
X25088Y327225D01*
X24506Y328096D01*
X23982Y329004D01*
X23518Y329943D01*
X23117Y330911D01*
X22781Y331903D01*
X22510Y332915D01*
X22305Y333942D01*
X22169Y334981D01*
X22100Y336026D01*
X22100Y337074D01*
X22169Y338119D01*
X22305Y339158D01*
X22510Y340185D01*
X22781Y341197D01*
X23117Y342189D01*
X23518Y343157D01*
X23982Y344096D01*
X24506Y345004D01*
X25088Y345875D01*
X25725Y346706D01*
X26416Y347493D01*
X27157Y348234D01*
X27944Y348925D01*
X28775Y349563D01*
X29646Y350145D01*
X30554Y350668D01*
X31493Y351132D01*
X32461Y351533D01*
X33453Y351869D01*
X34465Y352140D01*
X35492Y352345D01*
X36531Y352482D01*
X37576Y352550D01*
X38624Y352550D01*
X39669Y352482D01*
X40708Y352345D01*
X41735Y352140D01*
X42747Y351869D01*
X43739Y351533D01*
X44707Y351132D01*
X45646Y350668D01*
X46554Y350145D01*
X47425Y349563D01*
X48256Y348925D01*
X49043Y348234D01*
X49784Y347493D01*
X50475Y346706D01*
X51113Y345875D01*
X51695Y345004D01*
X52218Y344096D01*
X52682Y343157D01*
X53083Y342189D01*
X53419Y341197D01*
X53690Y340185D01*
X53895Y339158D01*
X54032Y338119D01*
X54100Y337074D01*
X54100Y336026D01*
M02*
