G04 EAGLE Gerber X2 export*
%TF.Part,Single*%
%TF.FileFunction,Legend,Bot,1*%
%TF.FilePolarity,Positive*%
%TF.GenerationSoftware,Autodesk,EAGLE,8.6.0*%
%TF.CreationDate,2018-01-28T12:09:13Z*%
G75*
%MOMM*%
%FSLAX34Y34*%
%LPD*%
%AMOC8*
5,1,8,0,0,1.08239X$1,22.5*%
G01*
%ADD10C,0.203200*%
%ADD11C,0.101600*%
%ADD12R,0.300000X4.100000*%
%ADD13C,0.152400*%
%ADD14C,0.177800*%
%ADD15R,3.810000X0.635000*%
%ADD16C,0.304800*%
%ADD17C,0.609600*%
%ADD18C,0.254000*%
%ADD19C,0.127000*%
%ADD20R,2.100000X0.300000*%
%ADD21R,1.905000X7.620000*%
%ADD22R,1.905000X5.334000*%


D10*
X134300Y179700D02*
X134300Y226700D01*
X94300Y226700D01*
X94300Y179700D01*
X134300Y179700D01*
D11*
X124000Y184150D02*
X124000Y190500D01*
X127000Y215900D02*
X120650Y215900D01*
X123750Y212750D02*
X123750Y219100D01*
X101550Y187200D02*
X101616Y187142D01*
X101679Y187081D01*
X101739Y187018D01*
X101797Y186952D01*
X101851Y186883D01*
X101903Y186812D01*
X101951Y186739D01*
X101996Y186664D01*
X102037Y186587D01*
X102075Y186508D01*
X102109Y186427D01*
X102140Y186345D01*
X102167Y186262D01*
X102190Y186177D01*
X102209Y186092D01*
X102225Y186005D01*
X102237Y185919D01*
X102245Y185831D01*
X102249Y185744D01*
X102249Y185656D01*
X102245Y185569D01*
X102237Y185481D01*
X102225Y185395D01*
X102209Y185308D01*
X102190Y185223D01*
X102167Y185138D01*
X102140Y185055D01*
X102109Y184973D01*
X102075Y184892D01*
X102037Y184813D01*
X101996Y184736D01*
X101951Y184661D01*
X101903Y184588D01*
X101851Y184517D01*
X101797Y184448D01*
X101739Y184382D01*
X101679Y184319D01*
X101616Y184258D01*
X101550Y184200D01*
X101550Y187200D02*
X101484Y187258D01*
X101421Y187319D01*
X101361Y187382D01*
X101303Y187448D01*
X101249Y187517D01*
X101197Y187588D01*
X101149Y187661D01*
X101104Y187736D01*
X101063Y187813D01*
X101025Y187892D01*
X100991Y187973D01*
X100960Y188055D01*
X100933Y188138D01*
X100910Y188223D01*
X100891Y188308D01*
X100875Y188395D01*
X100863Y188481D01*
X100855Y188569D01*
X100851Y188656D01*
X100851Y188744D01*
X100855Y188831D01*
X100863Y188919D01*
X100875Y189005D01*
X100891Y189092D01*
X100910Y189177D01*
X100933Y189262D01*
X100960Y189345D01*
X100991Y189427D01*
X101025Y189508D01*
X101063Y189587D01*
X101104Y189664D01*
X101149Y189739D01*
X101197Y189812D01*
X101249Y189883D01*
X101303Y189952D01*
X101361Y190018D01*
X101421Y190081D01*
X101484Y190142D01*
X101550Y190200D01*
X101550Y215950D02*
X101616Y216008D01*
X101679Y216069D01*
X101739Y216132D01*
X101797Y216198D01*
X101851Y216267D01*
X101903Y216338D01*
X101951Y216411D01*
X101996Y216486D01*
X102037Y216563D01*
X102075Y216642D01*
X102109Y216723D01*
X102140Y216805D01*
X102167Y216888D01*
X102190Y216973D01*
X102209Y217058D01*
X102225Y217145D01*
X102237Y217231D01*
X102245Y217319D01*
X102249Y217406D01*
X102249Y217494D01*
X102245Y217581D01*
X102237Y217669D01*
X102225Y217755D01*
X102209Y217842D01*
X102190Y217927D01*
X102167Y218012D01*
X102140Y218095D01*
X102109Y218177D01*
X102075Y218258D01*
X102037Y218337D01*
X101996Y218414D01*
X101951Y218489D01*
X101903Y218562D01*
X101851Y218633D01*
X101797Y218702D01*
X101739Y218768D01*
X101679Y218831D01*
X101616Y218892D01*
X101550Y218950D01*
X101484Y219008D01*
X101421Y219069D01*
X101361Y219132D01*
X101303Y219198D01*
X101249Y219267D01*
X101197Y219338D01*
X101149Y219411D01*
X101104Y219486D01*
X101063Y219563D01*
X101025Y219642D01*
X100991Y219723D01*
X100960Y219805D01*
X100933Y219888D01*
X100910Y219973D01*
X100891Y220058D01*
X100875Y220145D01*
X100863Y220231D01*
X100855Y220319D01*
X100851Y220406D01*
X100851Y220494D01*
X100855Y220581D01*
X100863Y220669D01*
X100875Y220755D01*
X100891Y220842D01*
X100910Y220927D01*
X100933Y221012D01*
X100960Y221095D01*
X100991Y221177D01*
X101025Y221258D01*
X101063Y221337D01*
X101104Y221414D01*
X101149Y221489D01*
X101197Y221562D01*
X101249Y221633D01*
X101303Y221702D01*
X101361Y221768D01*
X101421Y221831D01*
X101484Y221892D01*
X101550Y221950D01*
X109883Y172099D02*
X113129Y172099D01*
X109883Y172100D02*
X109770Y172098D01*
X109657Y172092D01*
X109544Y172082D01*
X109431Y172068D01*
X109319Y172051D01*
X109208Y172029D01*
X109098Y172004D01*
X108988Y171974D01*
X108880Y171941D01*
X108773Y171904D01*
X108667Y171864D01*
X108563Y171819D01*
X108460Y171771D01*
X108359Y171720D01*
X108260Y171665D01*
X108163Y171607D01*
X108068Y171545D01*
X107975Y171480D01*
X107885Y171412D01*
X107797Y171341D01*
X107711Y171266D01*
X107628Y171189D01*
X107548Y171109D01*
X107471Y171026D01*
X107396Y170940D01*
X107325Y170852D01*
X107257Y170762D01*
X107192Y170669D01*
X107130Y170574D01*
X107072Y170477D01*
X107017Y170378D01*
X106966Y170277D01*
X106918Y170174D01*
X106873Y170070D01*
X106833Y169964D01*
X106796Y169857D01*
X106763Y169749D01*
X106733Y169639D01*
X106708Y169529D01*
X106686Y169418D01*
X106669Y169306D01*
X106655Y169193D01*
X106645Y169080D01*
X106639Y168967D01*
X106637Y168854D01*
X106639Y168741D01*
X106645Y168628D01*
X106655Y168515D01*
X106669Y168402D01*
X106686Y168290D01*
X106708Y168179D01*
X106733Y168069D01*
X106763Y167959D01*
X106796Y167851D01*
X106833Y167744D01*
X106873Y167638D01*
X106918Y167534D01*
X106966Y167431D01*
X107017Y167330D01*
X107072Y167231D01*
X107130Y167134D01*
X107192Y167039D01*
X107257Y166946D01*
X107325Y166856D01*
X107396Y166768D01*
X107471Y166682D01*
X107548Y166599D01*
X107628Y166519D01*
X107711Y166442D01*
X107797Y166367D01*
X107885Y166296D01*
X107975Y166228D01*
X108068Y166163D01*
X108163Y166101D01*
X108260Y166043D01*
X108359Y165988D01*
X108460Y165937D01*
X108563Y165889D01*
X108667Y165844D01*
X108773Y165804D01*
X108880Y165767D01*
X108988Y165734D01*
X109098Y165704D01*
X109208Y165679D01*
X109319Y165657D01*
X109431Y165640D01*
X109544Y165626D01*
X109657Y165616D01*
X109770Y165610D01*
X109883Y165608D01*
X113129Y165608D01*
X113129Y177292D01*
X109883Y177292D01*
X109782Y177290D01*
X109682Y177284D01*
X109582Y177274D01*
X109482Y177261D01*
X109383Y177243D01*
X109284Y177222D01*
X109187Y177197D01*
X109090Y177168D01*
X108995Y177135D01*
X108901Y177099D01*
X108809Y177059D01*
X108718Y177016D01*
X108629Y176969D01*
X108542Y176919D01*
X108456Y176865D01*
X108373Y176808D01*
X108293Y176748D01*
X108214Y176685D01*
X108138Y176618D01*
X108065Y176549D01*
X107995Y176477D01*
X107927Y176403D01*
X107862Y176326D01*
X107801Y176246D01*
X107742Y176164D01*
X107687Y176080D01*
X107635Y175994D01*
X107586Y175906D01*
X107541Y175816D01*
X107499Y175724D01*
X107461Y175631D01*
X107427Y175536D01*
X107396Y175441D01*
X107369Y175344D01*
X107346Y175246D01*
X107326Y175147D01*
X107311Y175047D01*
X107299Y174947D01*
X107291Y174847D01*
X107287Y174746D01*
X107287Y174646D01*
X107291Y174545D01*
X107299Y174445D01*
X107311Y174345D01*
X107326Y174245D01*
X107346Y174146D01*
X107369Y174048D01*
X107396Y173951D01*
X107427Y173856D01*
X107461Y173761D01*
X107499Y173668D01*
X107541Y173576D01*
X107586Y173486D01*
X107635Y173398D01*
X107687Y173312D01*
X107742Y173228D01*
X107801Y173146D01*
X107862Y173066D01*
X107927Y172989D01*
X107995Y172915D01*
X108065Y172843D01*
X108138Y172774D01*
X108214Y172707D01*
X108293Y172644D01*
X108373Y172584D01*
X108456Y172527D01*
X108542Y172473D01*
X108629Y172423D01*
X108718Y172376D01*
X108809Y172333D01*
X108901Y172293D01*
X108995Y172257D01*
X109090Y172224D01*
X109187Y172195D01*
X109284Y172170D01*
X109383Y172149D01*
X109482Y172131D01*
X109582Y172118D01*
X109682Y172108D01*
X109782Y172102D01*
X109883Y172100D01*
X102249Y174696D02*
X99004Y177292D01*
X99004Y165608D01*
X102249Y165608D02*
X95758Y165608D01*
D12*
X130800Y203200D03*
D13*
X76200Y259080D02*
X76200Y273050D01*
X76200Y288290D02*
X76200Y299720D01*
X76200Y288290D02*
X57150Y288290D01*
X95250Y288290D02*
X95250Y281940D01*
X57150Y281940D01*
X57150Y288290D01*
X76200Y288290D02*
X95250Y288290D01*
X76200Y339090D02*
X76200Y354330D01*
X83820Y346710D02*
X68580Y346710D01*
D14*
X33909Y311923D02*
X33909Y308367D01*
X33911Y308251D01*
X33917Y308134D01*
X33926Y308018D01*
X33939Y307903D01*
X33956Y307788D01*
X33977Y307673D01*
X34002Y307560D01*
X34030Y307447D01*
X34062Y307335D01*
X34098Y307224D01*
X34137Y307114D01*
X34180Y307006D01*
X34226Y306899D01*
X34276Y306794D01*
X34329Y306691D01*
X34385Y306589D01*
X34445Y306489D01*
X34508Y306391D01*
X34575Y306296D01*
X34644Y306202D01*
X34716Y306111D01*
X34791Y306022D01*
X34870Y305936D01*
X34951Y305853D01*
X35034Y305772D01*
X35120Y305693D01*
X35209Y305618D01*
X35300Y305546D01*
X35394Y305477D01*
X35489Y305410D01*
X35587Y305347D01*
X35687Y305287D01*
X35789Y305231D01*
X35892Y305178D01*
X35997Y305128D01*
X36104Y305082D01*
X36212Y305039D01*
X36322Y305000D01*
X36433Y304964D01*
X36545Y304932D01*
X36658Y304904D01*
X36771Y304879D01*
X36886Y304858D01*
X37001Y304841D01*
X37116Y304828D01*
X37232Y304819D01*
X37349Y304813D01*
X37465Y304811D01*
X46355Y304811D01*
X46471Y304813D01*
X46588Y304819D01*
X46704Y304828D01*
X46819Y304841D01*
X46934Y304858D01*
X47049Y304879D01*
X47162Y304904D01*
X47275Y304932D01*
X47387Y304964D01*
X47498Y305000D01*
X47608Y305039D01*
X47716Y305082D01*
X47823Y305128D01*
X47928Y305178D01*
X48031Y305231D01*
X48133Y305287D01*
X48233Y305347D01*
X48331Y305410D01*
X48426Y305477D01*
X48520Y305546D01*
X48611Y305618D01*
X48700Y305693D01*
X48786Y305772D01*
X48869Y305853D01*
X48950Y305936D01*
X49029Y306022D01*
X49104Y306111D01*
X49176Y306202D01*
X49245Y306296D01*
X49312Y306391D01*
X49375Y306489D01*
X49435Y306589D01*
X49491Y306691D01*
X49544Y306794D01*
X49594Y306899D01*
X49640Y307006D01*
X49683Y307114D01*
X49722Y307224D01*
X49758Y307335D01*
X49790Y307447D01*
X49818Y307560D01*
X49843Y307673D01*
X49864Y307788D01*
X49881Y307903D01*
X49894Y308018D01*
X49903Y308134D01*
X49909Y308251D01*
X49911Y308367D01*
X49911Y311923D01*
X46355Y317881D02*
X49911Y322326D01*
X33909Y322326D01*
X33909Y317881D02*
X33909Y326771D01*
D15*
X76200Y273685D03*
D16*
X101600Y317500D02*
X101600Y351950D01*
X101603Y352192D01*
X101612Y352433D01*
X101626Y352674D01*
X101647Y352915D01*
X101673Y353155D01*
X101705Y353395D01*
X101743Y353634D01*
X101786Y353871D01*
X101836Y354108D01*
X101891Y354343D01*
X101951Y354577D01*
X102018Y354809D01*
X102089Y355040D01*
X102167Y355269D01*
X102250Y355496D01*
X102338Y355721D01*
X102432Y355944D01*
X102531Y356164D01*
X102636Y356382D01*
X102745Y356597D01*
X102860Y356810D01*
X102980Y357020D01*
X103105Y357226D01*
X103235Y357430D01*
X103370Y357631D01*
X103510Y357828D01*
X103654Y358022D01*
X103803Y358212D01*
X103957Y358398D01*
X104115Y358581D01*
X104277Y358760D01*
X104444Y358935D01*
X104615Y359106D01*
X104790Y359273D01*
X104969Y359435D01*
X105152Y359593D01*
X105338Y359747D01*
X105528Y359896D01*
X105722Y360040D01*
X105919Y360180D01*
X106120Y360315D01*
X106324Y360445D01*
X106530Y360570D01*
X106740Y360690D01*
X106953Y360805D01*
X107168Y360914D01*
X107386Y361019D01*
X107606Y361118D01*
X107829Y361212D01*
X108054Y361300D01*
X108281Y361383D01*
X108510Y361461D01*
X108741Y361532D01*
X108973Y361599D01*
X109207Y361659D01*
X109442Y361714D01*
X109679Y361764D01*
X109916Y361807D01*
X110155Y361845D01*
X110395Y361877D01*
X110635Y361903D01*
X110876Y361924D01*
X111117Y361938D01*
X111358Y361947D01*
X111600Y361950D01*
X409100Y361950D01*
X409342Y361947D01*
X409583Y361938D01*
X409824Y361924D01*
X410065Y361903D01*
X410305Y361877D01*
X410545Y361845D01*
X410784Y361807D01*
X411021Y361764D01*
X411258Y361714D01*
X411493Y361659D01*
X411727Y361599D01*
X411959Y361532D01*
X412190Y361461D01*
X412419Y361383D01*
X412646Y361300D01*
X412871Y361212D01*
X413094Y361118D01*
X413314Y361019D01*
X413532Y360914D01*
X413747Y360805D01*
X413960Y360690D01*
X414170Y360570D01*
X414376Y360445D01*
X414580Y360315D01*
X414781Y360180D01*
X414978Y360040D01*
X415172Y359896D01*
X415362Y359747D01*
X415548Y359593D01*
X415731Y359435D01*
X415910Y359273D01*
X416085Y359106D01*
X416256Y358935D01*
X416423Y358760D01*
X416585Y358581D01*
X416743Y358398D01*
X416897Y358212D01*
X417046Y358022D01*
X417190Y357828D01*
X417330Y357631D01*
X417465Y357430D01*
X417595Y357226D01*
X417720Y357020D01*
X417840Y356810D01*
X417955Y356597D01*
X418064Y356382D01*
X418169Y356164D01*
X418268Y355944D01*
X418362Y355721D01*
X418450Y355496D01*
X418533Y355269D01*
X418611Y355040D01*
X418682Y354809D01*
X418749Y354577D01*
X418809Y354343D01*
X418864Y354108D01*
X418914Y353871D01*
X418957Y353634D01*
X418995Y353395D01*
X419027Y353155D01*
X419053Y352915D01*
X419074Y352674D01*
X419088Y352433D01*
X419097Y352192D01*
X419100Y351950D01*
X419100Y228600D01*
X419100Y206850D01*
X419097Y206608D01*
X419088Y206367D01*
X419074Y206126D01*
X419053Y205885D01*
X419027Y205645D01*
X418995Y205405D01*
X418957Y205166D01*
X418914Y204929D01*
X418864Y204692D01*
X418809Y204457D01*
X418749Y204223D01*
X418682Y203991D01*
X418611Y203760D01*
X418533Y203531D01*
X418450Y203304D01*
X418362Y203079D01*
X418268Y202856D01*
X418169Y202636D01*
X418064Y202418D01*
X417955Y202203D01*
X417840Y201990D01*
X417720Y201780D01*
X417595Y201574D01*
X417465Y201370D01*
X417330Y201169D01*
X417190Y200972D01*
X417046Y200778D01*
X416897Y200588D01*
X416743Y200402D01*
X416585Y200219D01*
X416423Y200040D01*
X416256Y199865D01*
X416085Y199694D01*
X415910Y199527D01*
X415731Y199365D01*
X415548Y199207D01*
X415362Y199053D01*
X415172Y198904D01*
X414978Y198760D01*
X414781Y198620D01*
X414580Y198485D01*
X414376Y198355D01*
X414170Y198230D01*
X413960Y198110D01*
X413747Y197995D01*
X413532Y197886D01*
X413314Y197781D01*
X413094Y197682D01*
X412871Y197588D01*
X412646Y197500D01*
X412419Y197417D01*
X412190Y197339D01*
X411959Y197268D01*
X411727Y197201D01*
X411493Y197141D01*
X411258Y197086D01*
X411021Y197036D01*
X410784Y196993D01*
X410545Y196955D01*
X410305Y196923D01*
X410065Y196897D01*
X409824Y196876D01*
X409583Y196862D01*
X409342Y196853D01*
X409100Y196850D01*
X111600Y196850D01*
X111358Y196853D01*
X111117Y196862D01*
X110876Y196876D01*
X110635Y196897D01*
X110395Y196923D01*
X110155Y196955D01*
X109916Y196993D01*
X109679Y197036D01*
X109442Y197086D01*
X109207Y197141D01*
X108973Y197201D01*
X108741Y197268D01*
X108510Y197339D01*
X108281Y197417D01*
X108054Y197500D01*
X107829Y197588D01*
X107606Y197682D01*
X107386Y197781D01*
X107168Y197886D01*
X106953Y197995D01*
X106740Y198110D01*
X106530Y198230D01*
X106324Y198355D01*
X106120Y198485D01*
X105919Y198620D01*
X105722Y198760D01*
X105528Y198904D01*
X105338Y199053D01*
X105152Y199207D01*
X104969Y199365D01*
X104790Y199527D01*
X104615Y199694D01*
X104444Y199865D01*
X104277Y200040D01*
X104115Y200219D01*
X103957Y200402D01*
X103803Y200588D01*
X103654Y200778D01*
X103510Y200972D01*
X103370Y201169D01*
X103235Y201370D01*
X103105Y201574D01*
X102980Y201780D01*
X102860Y201990D01*
X102745Y202203D01*
X102636Y202418D01*
X102531Y202636D01*
X102432Y202856D01*
X102338Y203079D01*
X102250Y203304D01*
X102167Y203531D01*
X102089Y203760D01*
X102018Y203991D01*
X101951Y204223D01*
X101891Y204457D01*
X101836Y204692D01*
X101786Y204929D01*
X101743Y205166D01*
X101705Y205405D01*
X101673Y205645D01*
X101647Y205885D01*
X101626Y206126D01*
X101612Y206367D01*
X101603Y206608D01*
X101600Y206850D01*
X101600Y228600D01*
X101600Y241300D01*
X101600Y317500D01*
D17*
X76200Y317500D01*
X76200Y241300D02*
X101600Y241300D01*
D16*
X101600Y228600D02*
X419100Y228600D01*
D11*
X204461Y51308D02*
X201864Y51308D01*
X204461Y51308D02*
X204560Y51310D01*
X204660Y51316D01*
X204759Y51325D01*
X204857Y51338D01*
X204955Y51355D01*
X205053Y51376D01*
X205149Y51401D01*
X205244Y51429D01*
X205338Y51461D01*
X205431Y51496D01*
X205523Y51535D01*
X205613Y51578D01*
X205701Y51623D01*
X205788Y51673D01*
X205872Y51725D01*
X205955Y51781D01*
X206035Y51839D01*
X206113Y51901D01*
X206188Y51966D01*
X206261Y52034D01*
X206331Y52104D01*
X206399Y52177D01*
X206464Y52252D01*
X206526Y52330D01*
X206584Y52410D01*
X206640Y52493D01*
X206692Y52577D01*
X206742Y52664D01*
X206787Y52752D01*
X206830Y52842D01*
X206869Y52934D01*
X206904Y53027D01*
X206936Y53121D01*
X206964Y53216D01*
X206989Y53312D01*
X207010Y53410D01*
X207027Y53508D01*
X207040Y53606D01*
X207049Y53705D01*
X207055Y53805D01*
X207057Y53904D01*
X207057Y60396D01*
X207055Y60495D01*
X207049Y60595D01*
X207040Y60694D01*
X207027Y60792D01*
X207010Y60890D01*
X206989Y60988D01*
X206964Y61084D01*
X206936Y61179D01*
X206904Y61273D01*
X206869Y61366D01*
X206830Y61458D01*
X206787Y61548D01*
X206742Y61636D01*
X206692Y61723D01*
X206640Y61807D01*
X206584Y61890D01*
X206526Y61970D01*
X206464Y62048D01*
X206399Y62123D01*
X206331Y62196D01*
X206261Y62266D01*
X206188Y62334D01*
X206113Y62399D01*
X206035Y62461D01*
X205955Y62519D01*
X205872Y62575D01*
X205788Y62627D01*
X205701Y62677D01*
X205613Y62722D01*
X205523Y62765D01*
X205431Y62804D01*
X205338Y62839D01*
X205244Y62871D01*
X205149Y62899D01*
X205053Y62924D01*
X204955Y62945D01*
X204857Y62962D01*
X204759Y62975D01*
X204660Y62984D01*
X204560Y62990D01*
X204461Y62992D01*
X201864Y62992D01*
X193929Y62992D02*
X193822Y62990D01*
X193716Y62984D01*
X193610Y62974D01*
X193504Y62961D01*
X193398Y62943D01*
X193294Y62922D01*
X193190Y62897D01*
X193087Y62868D01*
X192986Y62836D01*
X192886Y62799D01*
X192787Y62759D01*
X192689Y62716D01*
X192593Y62669D01*
X192499Y62618D01*
X192407Y62564D01*
X192317Y62507D01*
X192229Y62447D01*
X192144Y62383D01*
X192061Y62316D01*
X191980Y62246D01*
X191902Y62174D01*
X191826Y62098D01*
X191754Y62020D01*
X191684Y61939D01*
X191617Y61856D01*
X191553Y61771D01*
X191493Y61683D01*
X191436Y61593D01*
X191382Y61501D01*
X191331Y61407D01*
X191284Y61311D01*
X191241Y61213D01*
X191201Y61114D01*
X191164Y61014D01*
X191132Y60913D01*
X191103Y60810D01*
X191078Y60706D01*
X191057Y60602D01*
X191039Y60496D01*
X191026Y60390D01*
X191016Y60284D01*
X191010Y60178D01*
X191008Y60071D01*
X193929Y62992D02*
X194050Y62990D01*
X194171Y62984D01*
X194291Y62974D01*
X194412Y62961D01*
X194531Y62943D01*
X194651Y62922D01*
X194769Y62897D01*
X194886Y62868D01*
X195003Y62835D01*
X195118Y62799D01*
X195232Y62758D01*
X195345Y62715D01*
X195457Y62667D01*
X195566Y62616D01*
X195674Y62561D01*
X195781Y62503D01*
X195885Y62442D01*
X195987Y62377D01*
X196087Y62309D01*
X196185Y62238D01*
X196281Y62164D01*
X196374Y62087D01*
X196464Y62006D01*
X196552Y61923D01*
X196637Y61837D01*
X196720Y61748D01*
X196799Y61657D01*
X196876Y61563D01*
X196949Y61467D01*
X197019Y61369D01*
X197086Y61268D01*
X197150Y61165D01*
X197211Y61060D01*
X197268Y60953D01*
X197321Y60845D01*
X197371Y60735D01*
X197417Y60623D01*
X197460Y60510D01*
X197499Y60395D01*
X191982Y57799D02*
X191903Y57877D01*
X191827Y57957D01*
X191754Y58040D01*
X191684Y58126D01*
X191617Y58213D01*
X191553Y58304D01*
X191493Y58396D01*
X191435Y58490D01*
X191381Y58587D01*
X191331Y58685D01*
X191284Y58785D01*
X191240Y58886D01*
X191200Y58989D01*
X191164Y59094D01*
X191132Y59199D01*
X191103Y59306D01*
X191078Y59413D01*
X191056Y59522D01*
X191039Y59631D01*
X191025Y59740D01*
X191016Y59850D01*
X191010Y59961D01*
X191008Y60071D01*
X191982Y57799D02*
X197499Y51308D01*
X191008Y51308D01*
X711708Y199954D02*
X711708Y202551D01*
X711708Y199954D02*
X711710Y199855D01*
X711716Y199755D01*
X711725Y199656D01*
X711738Y199558D01*
X711755Y199460D01*
X711776Y199362D01*
X711801Y199266D01*
X711829Y199171D01*
X711861Y199077D01*
X711896Y198984D01*
X711935Y198892D01*
X711978Y198802D01*
X712023Y198714D01*
X712073Y198627D01*
X712125Y198543D01*
X712181Y198460D01*
X712239Y198380D01*
X712301Y198302D01*
X712366Y198227D01*
X712434Y198154D01*
X712504Y198084D01*
X712577Y198016D01*
X712652Y197951D01*
X712730Y197889D01*
X712810Y197831D01*
X712893Y197775D01*
X712977Y197723D01*
X713064Y197673D01*
X713152Y197628D01*
X713242Y197585D01*
X713334Y197546D01*
X713427Y197511D01*
X713521Y197479D01*
X713616Y197451D01*
X713712Y197426D01*
X713810Y197405D01*
X713908Y197388D01*
X714006Y197375D01*
X714105Y197366D01*
X714205Y197360D01*
X714304Y197358D01*
X720796Y197358D01*
X720895Y197360D01*
X720995Y197366D01*
X721094Y197375D01*
X721192Y197388D01*
X721290Y197405D01*
X721388Y197426D01*
X721484Y197451D01*
X721579Y197479D01*
X721673Y197511D01*
X721766Y197546D01*
X721858Y197585D01*
X721948Y197628D01*
X722036Y197673D01*
X722123Y197723D01*
X722207Y197775D01*
X722290Y197831D01*
X722370Y197889D01*
X722448Y197951D01*
X722523Y198016D01*
X722596Y198084D01*
X722666Y198154D01*
X722734Y198227D01*
X722799Y198302D01*
X722861Y198380D01*
X722919Y198460D01*
X722975Y198543D01*
X723027Y198627D01*
X723077Y198714D01*
X723122Y198802D01*
X723165Y198892D01*
X723204Y198984D01*
X723239Y199076D01*
X723271Y199171D01*
X723299Y199266D01*
X723324Y199362D01*
X723345Y199460D01*
X723362Y199558D01*
X723375Y199656D01*
X723384Y199755D01*
X723390Y199855D01*
X723392Y199954D01*
X723392Y202551D01*
X723392Y209513D02*
X714304Y206916D01*
X714304Y213407D01*
X716901Y211460D02*
X711708Y211460D01*
X695396Y83058D02*
X692799Y83058D01*
X695396Y83058D02*
X695495Y83060D01*
X695595Y83066D01*
X695694Y83075D01*
X695792Y83088D01*
X695890Y83105D01*
X695988Y83126D01*
X696084Y83151D01*
X696179Y83179D01*
X696273Y83211D01*
X696366Y83246D01*
X696458Y83285D01*
X696548Y83328D01*
X696636Y83373D01*
X696723Y83423D01*
X696807Y83475D01*
X696890Y83531D01*
X696970Y83589D01*
X697048Y83651D01*
X697123Y83716D01*
X697196Y83784D01*
X697266Y83854D01*
X697334Y83927D01*
X697399Y84002D01*
X697461Y84080D01*
X697519Y84160D01*
X697575Y84243D01*
X697627Y84327D01*
X697677Y84414D01*
X697722Y84502D01*
X697765Y84592D01*
X697804Y84684D01*
X697839Y84777D01*
X697871Y84871D01*
X697899Y84966D01*
X697924Y85062D01*
X697945Y85160D01*
X697962Y85258D01*
X697975Y85356D01*
X697984Y85455D01*
X697990Y85555D01*
X697992Y85654D01*
X697992Y92146D01*
X697990Y92245D01*
X697984Y92345D01*
X697975Y92444D01*
X697962Y92542D01*
X697945Y92640D01*
X697924Y92738D01*
X697899Y92834D01*
X697871Y92929D01*
X697839Y93023D01*
X697804Y93116D01*
X697765Y93208D01*
X697722Y93298D01*
X697677Y93386D01*
X697627Y93473D01*
X697575Y93557D01*
X697519Y93640D01*
X697461Y93720D01*
X697399Y93798D01*
X697334Y93873D01*
X697266Y93946D01*
X697196Y94016D01*
X697123Y94084D01*
X697048Y94149D01*
X696970Y94211D01*
X696890Y94269D01*
X696807Y94325D01*
X696723Y94377D01*
X696636Y94427D01*
X696548Y94472D01*
X696458Y94515D01*
X696366Y94554D01*
X696273Y94589D01*
X696179Y94621D01*
X696084Y94649D01*
X695988Y94674D01*
X695890Y94695D01*
X695792Y94712D01*
X695694Y94725D01*
X695595Y94734D01*
X695495Y94740D01*
X695396Y94742D01*
X692799Y94742D01*
X688434Y89549D02*
X684539Y89549D01*
X684440Y89547D01*
X684340Y89541D01*
X684241Y89532D01*
X684143Y89519D01*
X684045Y89502D01*
X683947Y89481D01*
X683851Y89456D01*
X683756Y89428D01*
X683662Y89396D01*
X683569Y89361D01*
X683477Y89322D01*
X683387Y89279D01*
X683299Y89234D01*
X683212Y89184D01*
X683128Y89132D01*
X683045Y89076D01*
X682965Y89018D01*
X682887Y88956D01*
X682812Y88891D01*
X682739Y88823D01*
X682669Y88753D01*
X682601Y88680D01*
X682536Y88605D01*
X682474Y88527D01*
X682416Y88447D01*
X682360Y88364D01*
X682308Y88280D01*
X682258Y88193D01*
X682213Y88105D01*
X682170Y88015D01*
X682131Y87923D01*
X682096Y87830D01*
X682064Y87736D01*
X682036Y87641D01*
X682011Y87545D01*
X681990Y87447D01*
X681973Y87349D01*
X681960Y87251D01*
X681951Y87152D01*
X681945Y87052D01*
X681943Y86953D01*
X681943Y86304D01*
X681942Y86304D02*
X681944Y86191D01*
X681950Y86078D01*
X681960Y85965D01*
X681974Y85852D01*
X681991Y85740D01*
X682013Y85629D01*
X682038Y85519D01*
X682068Y85409D01*
X682101Y85301D01*
X682138Y85194D01*
X682178Y85088D01*
X682223Y84984D01*
X682271Y84881D01*
X682322Y84780D01*
X682377Y84681D01*
X682435Y84584D01*
X682497Y84489D01*
X682562Y84396D01*
X682630Y84306D01*
X682701Y84218D01*
X682776Y84132D01*
X682853Y84049D01*
X682933Y83969D01*
X683016Y83892D01*
X683102Y83817D01*
X683190Y83746D01*
X683280Y83678D01*
X683373Y83613D01*
X683468Y83551D01*
X683565Y83493D01*
X683664Y83438D01*
X683765Y83387D01*
X683868Y83339D01*
X683972Y83294D01*
X684078Y83254D01*
X684185Y83217D01*
X684293Y83184D01*
X684403Y83154D01*
X684513Y83129D01*
X684624Y83107D01*
X684736Y83090D01*
X684849Y83076D01*
X684962Y83066D01*
X685075Y83060D01*
X685188Y83058D01*
X685301Y83060D01*
X685414Y83066D01*
X685527Y83076D01*
X685640Y83090D01*
X685752Y83107D01*
X685863Y83129D01*
X685973Y83154D01*
X686083Y83184D01*
X686191Y83217D01*
X686298Y83254D01*
X686404Y83294D01*
X686508Y83339D01*
X686611Y83387D01*
X686712Y83438D01*
X686811Y83493D01*
X686908Y83551D01*
X687003Y83613D01*
X687096Y83678D01*
X687186Y83746D01*
X687274Y83817D01*
X687360Y83892D01*
X687443Y83969D01*
X687523Y84049D01*
X687600Y84132D01*
X687675Y84218D01*
X687746Y84306D01*
X687814Y84396D01*
X687879Y84489D01*
X687941Y84584D01*
X687999Y84681D01*
X688054Y84780D01*
X688105Y84881D01*
X688153Y84984D01*
X688198Y85088D01*
X688238Y85194D01*
X688275Y85301D01*
X688308Y85409D01*
X688338Y85519D01*
X688363Y85629D01*
X688385Y85740D01*
X688402Y85852D01*
X688416Y85965D01*
X688426Y86078D01*
X688432Y86191D01*
X688434Y86304D01*
X688434Y89549D01*
X688432Y89692D01*
X688426Y89835D01*
X688416Y89978D01*
X688402Y90120D01*
X688385Y90262D01*
X688363Y90404D01*
X688338Y90545D01*
X688308Y90685D01*
X688275Y90824D01*
X688238Y90962D01*
X688197Y91099D01*
X688153Y91235D01*
X688104Y91370D01*
X688052Y91503D01*
X687997Y91635D01*
X687937Y91765D01*
X687874Y91894D01*
X687808Y92021D01*
X687738Y92146D01*
X687665Y92268D01*
X687588Y92389D01*
X687508Y92508D01*
X687425Y92624D01*
X687339Y92739D01*
X687250Y92850D01*
X687157Y92960D01*
X687062Y93066D01*
X686963Y93170D01*
X686862Y93271D01*
X686758Y93370D01*
X686652Y93465D01*
X686542Y93558D01*
X686431Y93647D01*
X686316Y93733D01*
X686200Y93816D01*
X686081Y93896D01*
X685960Y93973D01*
X685838Y94046D01*
X685713Y94116D01*
X685586Y94182D01*
X685457Y94245D01*
X685327Y94305D01*
X685195Y94360D01*
X685062Y94412D01*
X684927Y94461D01*
X684791Y94505D01*
X684654Y94546D01*
X684516Y94583D01*
X684377Y94616D01*
X684237Y94646D01*
X684096Y94671D01*
X683954Y94693D01*
X683812Y94710D01*
X683670Y94724D01*
X683527Y94734D01*
X683384Y94740D01*
X683241Y94742D01*
D18*
X247650Y160400D02*
X240150Y149900D01*
X254650Y149900D01*
X247650Y160400D01*
D19*
X234155Y160004D02*
X222725Y160004D01*
X234155Y160004D02*
X234155Y163179D01*
X234153Y163290D01*
X234147Y163400D01*
X234138Y163511D01*
X234124Y163621D01*
X234107Y163730D01*
X234086Y163839D01*
X234061Y163947D01*
X234032Y164054D01*
X234000Y164160D01*
X233964Y164265D01*
X233924Y164368D01*
X233881Y164470D01*
X233834Y164571D01*
X233783Y164670D01*
X233730Y164767D01*
X233673Y164861D01*
X233612Y164954D01*
X233549Y165045D01*
X233482Y165134D01*
X233412Y165220D01*
X233339Y165303D01*
X233264Y165385D01*
X233186Y165463D01*
X233104Y165538D01*
X233021Y165611D01*
X232935Y165681D01*
X232846Y165748D01*
X232755Y165811D01*
X232662Y165872D01*
X232568Y165929D01*
X232471Y165982D01*
X232372Y166033D01*
X232271Y166080D01*
X232169Y166123D01*
X232066Y166163D01*
X231961Y166199D01*
X231855Y166231D01*
X231748Y166260D01*
X231640Y166285D01*
X231531Y166306D01*
X231422Y166323D01*
X231312Y166337D01*
X231201Y166346D01*
X231091Y166352D01*
X230980Y166354D01*
X225900Y166354D01*
X225789Y166352D01*
X225679Y166346D01*
X225568Y166337D01*
X225458Y166323D01*
X225349Y166306D01*
X225240Y166285D01*
X225132Y166260D01*
X225025Y166231D01*
X224919Y166199D01*
X224814Y166163D01*
X224711Y166123D01*
X224609Y166080D01*
X224508Y166033D01*
X224409Y165982D01*
X224313Y165929D01*
X224218Y165872D01*
X224125Y165811D01*
X224034Y165748D01*
X223945Y165681D01*
X223859Y165611D01*
X223776Y165538D01*
X223694Y165463D01*
X223616Y165385D01*
X223541Y165303D01*
X223468Y165220D01*
X223398Y165134D01*
X223331Y165045D01*
X223268Y164954D01*
X223207Y164861D01*
X223150Y164767D01*
X223097Y164670D01*
X223046Y164571D01*
X222999Y164470D01*
X222956Y164368D01*
X222916Y164265D01*
X222880Y164160D01*
X222848Y164054D01*
X222819Y163947D01*
X222794Y163839D01*
X222773Y163730D01*
X222756Y163621D01*
X222742Y163511D01*
X222733Y163400D01*
X222727Y163290D01*
X222725Y163179D01*
X222725Y160004D01*
X231615Y171815D02*
X234155Y174990D01*
X222725Y174990D01*
X222725Y171815D02*
X222725Y178165D01*
D20*
X247650Y160900D03*
D18*
X666750Y220600D02*
X674250Y231100D01*
X659750Y231100D01*
X666750Y220600D01*
D19*
X680245Y202835D02*
X691675Y202835D01*
X691675Y206010D01*
X691673Y206121D01*
X691667Y206231D01*
X691658Y206342D01*
X691644Y206452D01*
X691627Y206561D01*
X691606Y206670D01*
X691581Y206778D01*
X691552Y206885D01*
X691520Y206991D01*
X691484Y207096D01*
X691444Y207199D01*
X691401Y207301D01*
X691354Y207402D01*
X691303Y207501D01*
X691250Y207598D01*
X691193Y207692D01*
X691132Y207785D01*
X691069Y207876D01*
X691002Y207965D01*
X690932Y208051D01*
X690859Y208134D01*
X690784Y208216D01*
X690706Y208294D01*
X690624Y208369D01*
X690541Y208442D01*
X690455Y208512D01*
X690366Y208579D01*
X690275Y208642D01*
X690182Y208703D01*
X690088Y208760D01*
X689991Y208813D01*
X689892Y208864D01*
X689791Y208911D01*
X689689Y208954D01*
X689586Y208994D01*
X689481Y209030D01*
X689375Y209062D01*
X689268Y209091D01*
X689160Y209116D01*
X689051Y209137D01*
X688942Y209154D01*
X688832Y209168D01*
X688721Y209177D01*
X688611Y209183D01*
X688500Y209185D01*
X683420Y209185D01*
X683309Y209183D01*
X683199Y209177D01*
X683088Y209168D01*
X682978Y209154D01*
X682869Y209137D01*
X682760Y209116D01*
X682652Y209091D01*
X682545Y209062D01*
X682439Y209030D01*
X682334Y208994D01*
X682231Y208954D01*
X682129Y208911D01*
X682028Y208864D01*
X681929Y208813D01*
X681833Y208760D01*
X681738Y208703D01*
X681645Y208642D01*
X681554Y208579D01*
X681465Y208512D01*
X681379Y208442D01*
X681296Y208369D01*
X681214Y208294D01*
X681136Y208216D01*
X681061Y208134D01*
X680988Y208051D01*
X680918Y207965D01*
X680851Y207876D01*
X680788Y207785D01*
X680727Y207692D01*
X680670Y207598D01*
X680617Y207501D01*
X680566Y207402D01*
X680519Y207301D01*
X680476Y207199D01*
X680436Y207096D01*
X680400Y206991D01*
X680368Y206885D01*
X680339Y206778D01*
X680314Y206670D01*
X680293Y206561D01*
X680276Y206452D01*
X680262Y206342D01*
X680253Y206231D01*
X680247Y206121D01*
X680245Y206010D01*
X680245Y202835D01*
X680245Y214646D02*
X680245Y217821D01*
X680247Y217932D01*
X680253Y218042D01*
X680262Y218153D01*
X680276Y218263D01*
X680293Y218372D01*
X680314Y218481D01*
X680339Y218589D01*
X680368Y218696D01*
X680400Y218802D01*
X680436Y218907D01*
X680476Y219010D01*
X680519Y219112D01*
X680566Y219213D01*
X680617Y219312D01*
X680670Y219409D01*
X680727Y219503D01*
X680788Y219596D01*
X680851Y219687D01*
X680918Y219776D01*
X680988Y219862D01*
X681061Y219945D01*
X681136Y220027D01*
X681214Y220105D01*
X681296Y220180D01*
X681379Y220253D01*
X681465Y220323D01*
X681554Y220390D01*
X681645Y220453D01*
X681738Y220514D01*
X681833Y220571D01*
X681929Y220624D01*
X682028Y220675D01*
X682129Y220722D01*
X682231Y220765D01*
X682334Y220805D01*
X682439Y220841D01*
X682545Y220873D01*
X682652Y220902D01*
X682760Y220927D01*
X682869Y220948D01*
X682978Y220965D01*
X683088Y220979D01*
X683199Y220988D01*
X683309Y220994D01*
X683420Y220996D01*
X683531Y220994D01*
X683641Y220988D01*
X683752Y220979D01*
X683862Y220965D01*
X683971Y220948D01*
X684080Y220927D01*
X684188Y220902D01*
X684295Y220873D01*
X684401Y220841D01*
X684506Y220805D01*
X684609Y220765D01*
X684711Y220722D01*
X684812Y220675D01*
X684911Y220624D01*
X685008Y220571D01*
X685102Y220514D01*
X685195Y220453D01*
X685286Y220390D01*
X685375Y220323D01*
X685461Y220253D01*
X685544Y220180D01*
X685626Y220105D01*
X685704Y220027D01*
X685779Y219945D01*
X685852Y219862D01*
X685922Y219776D01*
X685989Y219687D01*
X686052Y219596D01*
X686113Y219503D01*
X686170Y219409D01*
X686223Y219312D01*
X686274Y219213D01*
X686321Y219112D01*
X686364Y219010D01*
X686404Y218907D01*
X686440Y218802D01*
X686472Y218696D01*
X686501Y218589D01*
X686526Y218481D01*
X686547Y218372D01*
X686564Y218263D01*
X686578Y218153D01*
X686587Y218042D01*
X686593Y217932D01*
X686595Y217821D01*
X691675Y218456D02*
X691675Y214646D01*
X691675Y218456D02*
X691673Y218556D01*
X691667Y218655D01*
X691657Y218755D01*
X691644Y218853D01*
X691626Y218952D01*
X691605Y219049D01*
X691580Y219145D01*
X691551Y219241D01*
X691518Y219335D01*
X691482Y219428D01*
X691442Y219519D01*
X691398Y219609D01*
X691351Y219697D01*
X691301Y219783D01*
X691247Y219867D01*
X691190Y219949D01*
X691130Y220028D01*
X691066Y220106D01*
X691000Y220180D01*
X690931Y220252D01*
X690859Y220321D01*
X690785Y220387D01*
X690707Y220451D01*
X690628Y220511D01*
X690546Y220568D01*
X690462Y220622D01*
X690376Y220672D01*
X690288Y220719D01*
X690198Y220763D01*
X690107Y220803D01*
X690014Y220839D01*
X689920Y220872D01*
X689824Y220901D01*
X689728Y220926D01*
X689631Y220947D01*
X689532Y220965D01*
X689434Y220978D01*
X689334Y220988D01*
X689235Y220994D01*
X689135Y220996D01*
X689035Y220994D01*
X688936Y220988D01*
X688836Y220978D01*
X688738Y220965D01*
X688639Y220947D01*
X688542Y220926D01*
X688446Y220901D01*
X688350Y220872D01*
X688256Y220839D01*
X688163Y220803D01*
X688072Y220763D01*
X687982Y220719D01*
X687894Y220672D01*
X687808Y220622D01*
X687724Y220568D01*
X687642Y220511D01*
X687563Y220451D01*
X687485Y220387D01*
X687411Y220321D01*
X687339Y220252D01*
X687270Y220180D01*
X687204Y220106D01*
X687140Y220028D01*
X687080Y219949D01*
X687023Y219867D01*
X686969Y219783D01*
X686919Y219697D01*
X686872Y219609D01*
X686828Y219519D01*
X686788Y219428D01*
X686752Y219335D01*
X686719Y219241D01*
X686690Y219145D01*
X686665Y219049D01*
X686644Y218952D01*
X686626Y218853D01*
X686613Y218755D01*
X686603Y218655D01*
X686597Y218556D01*
X686595Y218456D01*
X686595Y215916D01*
D20*
X666750Y220100D03*
D11*
X756158Y83058D02*
X767842Y83058D01*
X767842Y86304D01*
X767840Y86417D01*
X767834Y86530D01*
X767824Y86643D01*
X767810Y86756D01*
X767793Y86868D01*
X767771Y86979D01*
X767746Y87089D01*
X767716Y87199D01*
X767683Y87307D01*
X767646Y87414D01*
X767606Y87520D01*
X767561Y87624D01*
X767513Y87727D01*
X767462Y87828D01*
X767407Y87927D01*
X767349Y88024D01*
X767287Y88119D01*
X767222Y88212D01*
X767154Y88302D01*
X767083Y88390D01*
X767008Y88476D01*
X766931Y88559D01*
X766851Y88639D01*
X766768Y88716D01*
X766682Y88791D01*
X766594Y88862D01*
X766504Y88930D01*
X766411Y88995D01*
X766316Y89057D01*
X766219Y89115D01*
X766120Y89170D01*
X766019Y89221D01*
X765916Y89269D01*
X765812Y89314D01*
X765706Y89354D01*
X765599Y89391D01*
X765491Y89424D01*
X765381Y89454D01*
X765271Y89479D01*
X765160Y89501D01*
X765048Y89518D01*
X764935Y89532D01*
X764822Y89542D01*
X764709Y89548D01*
X764596Y89550D01*
X764483Y89548D01*
X764370Y89542D01*
X764257Y89532D01*
X764144Y89518D01*
X764032Y89501D01*
X763921Y89479D01*
X763811Y89454D01*
X763701Y89424D01*
X763593Y89391D01*
X763486Y89354D01*
X763380Y89314D01*
X763276Y89269D01*
X763173Y89221D01*
X763072Y89170D01*
X762973Y89115D01*
X762876Y89057D01*
X762781Y88995D01*
X762688Y88930D01*
X762598Y88862D01*
X762510Y88791D01*
X762424Y88716D01*
X762341Y88639D01*
X762261Y88559D01*
X762184Y88476D01*
X762109Y88390D01*
X762038Y88302D01*
X761970Y88212D01*
X761905Y88119D01*
X761843Y88024D01*
X761785Y87927D01*
X761730Y87828D01*
X761679Y87727D01*
X761631Y87624D01*
X761586Y87520D01*
X761546Y87414D01*
X761509Y87307D01*
X761476Y87199D01*
X761446Y87089D01*
X761421Y86979D01*
X761399Y86868D01*
X761382Y86756D01*
X761368Y86643D01*
X761358Y86530D01*
X761352Y86417D01*
X761350Y86304D01*
X761351Y86304D02*
X761351Y83058D01*
X761351Y86953D02*
X756158Y89549D01*
X765246Y94414D02*
X767842Y97660D01*
X756158Y97660D01*
X756158Y100905D02*
X756158Y94414D01*
X762000Y105845D02*
X762230Y105848D01*
X762460Y105856D01*
X762689Y105870D01*
X762918Y105889D01*
X763147Y105914D01*
X763374Y105944D01*
X763602Y105979D01*
X763828Y106020D01*
X764053Y106066D01*
X764277Y106118D01*
X764499Y106175D01*
X764721Y106237D01*
X764940Y106305D01*
X765158Y106378D01*
X765375Y106456D01*
X765589Y106539D01*
X765801Y106627D01*
X766011Y106720D01*
X766219Y106819D01*
X766219Y106818D02*
X766309Y106851D01*
X766398Y106887D01*
X766486Y106927D01*
X766571Y106971D01*
X766655Y107018D01*
X766737Y107068D01*
X766817Y107122D01*
X766894Y107178D01*
X766970Y107238D01*
X767043Y107301D01*
X767113Y107366D01*
X767181Y107435D01*
X767245Y107506D01*
X767307Y107579D01*
X767366Y107655D01*
X767422Y107733D01*
X767475Y107814D01*
X767524Y107896D01*
X767570Y107980D01*
X767613Y108067D01*
X767652Y108154D01*
X767688Y108244D01*
X767720Y108334D01*
X767748Y108426D01*
X767773Y108519D01*
X767794Y108613D01*
X767811Y108707D01*
X767825Y108802D01*
X767834Y108898D01*
X767840Y108994D01*
X767842Y109090D01*
X767840Y109186D01*
X767834Y109282D01*
X767825Y109378D01*
X767811Y109473D01*
X767794Y109567D01*
X767773Y109661D01*
X767748Y109754D01*
X767720Y109846D01*
X767688Y109936D01*
X767652Y110026D01*
X767613Y110113D01*
X767570Y110200D01*
X767524Y110284D01*
X767475Y110366D01*
X767422Y110447D01*
X767366Y110525D01*
X767307Y110601D01*
X767245Y110674D01*
X767181Y110745D01*
X767113Y110814D01*
X767043Y110879D01*
X766970Y110942D01*
X766894Y111002D01*
X766817Y111058D01*
X766737Y111112D01*
X766655Y111162D01*
X766571Y111209D01*
X766486Y111253D01*
X766398Y111293D01*
X766309Y111329D01*
X766219Y111362D01*
X766012Y111461D01*
X765802Y111554D01*
X765589Y111642D01*
X765375Y111725D01*
X765159Y111803D01*
X764941Y111876D01*
X764721Y111944D01*
X764500Y112006D01*
X764277Y112063D01*
X764053Y112115D01*
X763828Y112161D01*
X763602Y112202D01*
X763375Y112237D01*
X763147Y112267D01*
X762918Y112292D01*
X762689Y112311D01*
X762460Y112325D01*
X762230Y112333D01*
X762000Y112336D01*
X762000Y105844D02*
X761770Y105847D01*
X761540Y105855D01*
X761311Y105869D01*
X761082Y105888D01*
X760853Y105913D01*
X760625Y105943D01*
X760398Y105978D01*
X760172Y106019D01*
X759947Y106065D01*
X759723Y106117D01*
X759500Y106174D01*
X759279Y106236D01*
X759059Y106304D01*
X758841Y106377D01*
X758625Y106455D01*
X758411Y106538D01*
X758199Y106626D01*
X757988Y106719D01*
X757781Y106818D01*
X757691Y106851D01*
X757602Y106887D01*
X757514Y106928D01*
X757429Y106971D01*
X757345Y107018D01*
X757263Y107068D01*
X757183Y107122D01*
X757106Y107178D01*
X757030Y107238D01*
X756957Y107301D01*
X756887Y107366D01*
X756819Y107435D01*
X756755Y107506D01*
X756693Y107579D01*
X756634Y107655D01*
X756578Y107733D01*
X756525Y107814D01*
X756476Y107896D01*
X756430Y107980D01*
X756387Y108067D01*
X756348Y108154D01*
X756312Y108244D01*
X756280Y108334D01*
X756252Y108426D01*
X756227Y108519D01*
X756206Y108613D01*
X756189Y108707D01*
X756175Y108802D01*
X756166Y108898D01*
X756160Y108994D01*
X756158Y109090D01*
X757781Y111362D02*
X757988Y111461D01*
X758199Y111554D01*
X758411Y111642D01*
X758625Y111725D01*
X758841Y111803D01*
X759059Y111876D01*
X759279Y111944D01*
X759500Y112006D01*
X759723Y112063D01*
X759947Y112115D01*
X760172Y112161D01*
X760398Y112202D01*
X760625Y112237D01*
X760853Y112267D01*
X761082Y112292D01*
X761311Y112311D01*
X761540Y112325D01*
X761770Y112333D01*
X762000Y112336D01*
X757781Y111362D02*
X757691Y111329D01*
X757602Y111293D01*
X757514Y111253D01*
X757429Y111209D01*
X757345Y111162D01*
X757263Y111112D01*
X757183Y111058D01*
X757106Y111002D01*
X757030Y110942D01*
X756957Y110879D01*
X756887Y110814D01*
X756819Y110745D01*
X756755Y110674D01*
X756693Y110601D01*
X756634Y110525D01*
X756578Y110447D01*
X756525Y110366D01*
X756476Y110284D01*
X756430Y110200D01*
X756387Y110113D01*
X756348Y110026D01*
X756312Y109936D01*
X756280Y109846D01*
X756252Y109754D01*
X756227Y109661D01*
X756206Y109567D01*
X756189Y109473D01*
X756175Y109378D01*
X756166Y109282D01*
X756160Y109186D01*
X756158Y109090D01*
X758754Y106493D02*
X765246Y111686D01*
X43942Y83058D02*
X32258Y83058D01*
X43942Y83058D02*
X43942Y86304D01*
X43940Y86417D01*
X43934Y86530D01*
X43924Y86643D01*
X43910Y86756D01*
X43893Y86868D01*
X43871Y86979D01*
X43846Y87089D01*
X43816Y87199D01*
X43783Y87307D01*
X43746Y87414D01*
X43706Y87520D01*
X43661Y87624D01*
X43613Y87727D01*
X43562Y87828D01*
X43507Y87927D01*
X43449Y88024D01*
X43387Y88119D01*
X43322Y88212D01*
X43254Y88302D01*
X43183Y88390D01*
X43108Y88476D01*
X43031Y88559D01*
X42951Y88639D01*
X42868Y88716D01*
X42782Y88791D01*
X42694Y88862D01*
X42604Y88930D01*
X42511Y88995D01*
X42416Y89057D01*
X42319Y89115D01*
X42220Y89170D01*
X42119Y89221D01*
X42016Y89269D01*
X41912Y89314D01*
X41806Y89354D01*
X41699Y89391D01*
X41591Y89424D01*
X41481Y89454D01*
X41371Y89479D01*
X41260Y89501D01*
X41148Y89518D01*
X41035Y89532D01*
X40922Y89542D01*
X40809Y89548D01*
X40696Y89550D01*
X40583Y89548D01*
X40470Y89542D01*
X40357Y89532D01*
X40244Y89518D01*
X40132Y89501D01*
X40021Y89479D01*
X39911Y89454D01*
X39801Y89424D01*
X39693Y89391D01*
X39586Y89354D01*
X39480Y89314D01*
X39376Y89269D01*
X39273Y89221D01*
X39172Y89170D01*
X39073Y89115D01*
X38976Y89057D01*
X38881Y88995D01*
X38788Y88930D01*
X38698Y88862D01*
X38610Y88791D01*
X38524Y88716D01*
X38441Y88639D01*
X38361Y88559D01*
X38284Y88476D01*
X38209Y88390D01*
X38138Y88302D01*
X38070Y88212D01*
X38005Y88119D01*
X37943Y88024D01*
X37885Y87927D01*
X37830Y87828D01*
X37779Y87727D01*
X37731Y87624D01*
X37686Y87520D01*
X37646Y87414D01*
X37609Y87307D01*
X37576Y87199D01*
X37546Y87089D01*
X37521Y86979D01*
X37499Y86868D01*
X37482Y86756D01*
X37468Y86643D01*
X37458Y86530D01*
X37452Y86417D01*
X37450Y86304D01*
X37451Y86304D02*
X37451Y83058D01*
X37451Y86953D02*
X32258Y89549D01*
X41021Y100905D02*
X41128Y100903D01*
X41234Y100897D01*
X41340Y100887D01*
X41446Y100874D01*
X41552Y100856D01*
X41656Y100835D01*
X41760Y100810D01*
X41863Y100781D01*
X41964Y100749D01*
X42064Y100712D01*
X42163Y100672D01*
X42261Y100629D01*
X42357Y100582D01*
X42451Y100531D01*
X42543Y100477D01*
X42633Y100420D01*
X42721Y100360D01*
X42806Y100296D01*
X42889Y100229D01*
X42970Y100159D01*
X43048Y100087D01*
X43124Y100011D01*
X43196Y99933D01*
X43266Y99852D01*
X43333Y99769D01*
X43397Y99684D01*
X43457Y99596D01*
X43514Y99506D01*
X43568Y99414D01*
X43619Y99320D01*
X43666Y99224D01*
X43709Y99126D01*
X43749Y99027D01*
X43786Y98927D01*
X43818Y98826D01*
X43847Y98723D01*
X43872Y98619D01*
X43893Y98515D01*
X43911Y98409D01*
X43924Y98303D01*
X43934Y98197D01*
X43940Y98091D01*
X43942Y97984D01*
X43940Y97863D01*
X43934Y97742D01*
X43924Y97622D01*
X43911Y97501D01*
X43893Y97382D01*
X43872Y97262D01*
X43847Y97144D01*
X43818Y97027D01*
X43785Y96910D01*
X43749Y96795D01*
X43708Y96681D01*
X43665Y96568D01*
X43617Y96456D01*
X43566Y96347D01*
X43511Y96239D01*
X43453Y96132D01*
X43392Y96028D01*
X43327Y95926D01*
X43259Y95826D01*
X43188Y95728D01*
X43114Y95632D01*
X43037Y95539D01*
X42956Y95449D01*
X42873Y95361D01*
X42787Y95276D01*
X42698Y95193D01*
X42607Y95114D01*
X42513Y95037D01*
X42417Y94964D01*
X42319Y94894D01*
X42218Y94827D01*
X42115Y94763D01*
X42010Y94703D01*
X41903Y94646D01*
X41795Y94592D01*
X41685Y94542D01*
X41573Y94496D01*
X41460Y94453D01*
X41345Y94414D01*
X38749Y99932D02*
X38826Y100011D01*
X38907Y100087D01*
X38990Y100160D01*
X39075Y100230D01*
X39163Y100297D01*
X39253Y100361D01*
X39345Y100421D01*
X39440Y100478D01*
X39536Y100532D01*
X39634Y100583D01*
X39734Y100630D01*
X39836Y100674D01*
X39939Y100714D01*
X40043Y100750D01*
X40149Y100782D01*
X40255Y100811D01*
X40363Y100836D01*
X40471Y100858D01*
X40581Y100875D01*
X40690Y100889D01*
X40800Y100898D01*
X40911Y100904D01*
X41021Y100906D01*
X38749Y99932D02*
X32258Y94414D01*
X32258Y100905D01*
X32258Y140208D02*
X43942Y140208D01*
X43942Y143454D01*
X43940Y143567D01*
X43934Y143680D01*
X43924Y143793D01*
X43910Y143906D01*
X43893Y144018D01*
X43871Y144129D01*
X43846Y144239D01*
X43816Y144349D01*
X43783Y144457D01*
X43746Y144564D01*
X43706Y144670D01*
X43661Y144774D01*
X43613Y144877D01*
X43562Y144978D01*
X43507Y145077D01*
X43449Y145174D01*
X43387Y145269D01*
X43322Y145362D01*
X43254Y145452D01*
X43183Y145540D01*
X43108Y145626D01*
X43031Y145709D01*
X42951Y145789D01*
X42868Y145866D01*
X42782Y145941D01*
X42694Y146012D01*
X42604Y146080D01*
X42511Y146145D01*
X42416Y146207D01*
X42319Y146265D01*
X42220Y146320D01*
X42119Y146371D01*
X42016Y146419D01*
X41912Y146464D01*
X41806Y146504D01*
X41699Y146541D01*
X41591Y146574D01*
X41481Y146604D01*
X41371Y146629D01*
X41260Y146651D01*
X41148Y146668D01*
X41035Y146682D01*
X40922Y146692D01*
X40809Y146698D01*
X40696Y146700D01*
X40583Y146698D01*
X40470Y146692D01*
X40357Y146682D01*
X40244Y146668D01*
X40132Y146651D01*
X40021Y146629D01*
X39911Y146604D01*
X39801Y146574D01*
X39693Y146541D01*
X39586Y146504D01*
X39480Y146464D01*
X39376Y146419D01*
X39273Y146371D01*
X39172Y146320D01*
X39073Y146265D01*
X38976Y146207D01*
X38881Y146145D01*
X38788Y146080D01*
X38698Y146012D01*
X38610Y145941D01*
X38524Y145866D01*
X38441Y145789D01*
X38361Y145709D01*
X38284Y145626D01*
X38209Y145540D01*
X38138Y145452D01*
X38070Y145362D01*
X38005Y145269D01*
X37943Y145174D01*
X37885Y145077D01*
X37830Y144978D01*
X37779Y144877D01*
X37731Y144774D01*
X37686Y144670D01*
X37646Y144564D01*
X37609Y144457D01*
X37576Y144349D01*
X37546Y144239D01*
X37521Y144129D01*
X37499Y144018D01*
X37482Y143906D01*
X37468Y143793D01*
X37458Y143680D01*
X37452Y143567D01*
X37450Y143454D01*
X37451Y143454D02*
X37451Y140208D01*
X37451Y144103D02*
X32258Y146699D01*
X32258Y151564D02*
X32258Y154810D01*
X32260Y154923D01*
X32266Y155036D01*
X32276Y155149D01*
X32290Y155262D01*
X32307Y155374D01*
X32329Y155485D01*
X32354Y155595D01*
X32384Y155705D01*
X32417Y155813D01*
X32454Y155920D01*
X32494Y156026D01*
X32539Y156130D01*
X32587Y156233D01*
X32638Y156334D01*
X32693Y156433D01*
X32751Y156530D01*
X32813Y156625D01*
X32878Y156718D01*
X32946Y156808D01*
X33017Y156896D01*
X33092Y156982D01*
X33169Y157065D01*
X33249Y157145D01*
X33332Y157222D01*
X33418Y157297D01*
X33506Y157368D01*
X33596Y157436D01*
X33689Y157501D01*
X33784Y157563D01*
X33881Y157621D01*
X33980Y157676D01*
X34081Y157727D01*
X34184Y157775D01*
X34288Y157820D01*
X34394Y157860D01*
X34501Y157897D01*
X34609Y157930D01*
X34719Y157960D01*
X34829Y157985D01*
X34940Y158007D01*
X35052Y158024D01*
X35165Y158038D01*
X35278Y158048D01*
X35391Y158054D01*
X35504Y158056D01*
X35617Y158054D01*
X35730Y158048D01*
X35843Y158038D01*
X35956Y158024D01*
X36068Y158007D01*
X36179Y157985D01*
X36289Y157960D01*
X36399Y157930D01*
X36507Y157897D01*
X36614Y157860D01*
X36720Y157820D01*
X36824Y157775D01*
X36927Y157727D01*
X37028Y157676D01*
X37127Y157621D01*
X37224Y157563D01*
X37319Y157501D01*
X37412Y157436D01*
X37502Y157368D01*
X37590Y157297D01*
X37676Y157222D01*
X37759Y157145D01*
X37839Y157065D01*
X37916Y156982D01*
X37991Y156896D01*
X38062Y156808D01*
X38130Y156718D01*
X38195Y156625D01*
X38257Y156530D01*
X38315Y156433D01*
X38370Y156334D01*
X38421Y156233D01*
X38469Y156130D01*
X38514Y156026D01*
X38554Y155920D01*
X38591Y155813D01*
X38624Y155705D01*
X38654Y155595D01*
X38679Y155485D01*
X38701Y155374D01*
X38718Y155262D01*
X38732Y155149D01*
X38742Y155036D01*
X38748Y154923D01*
X38750Y154810D01*
X43942Y155459D02*
X43942Y151564D01*
X43942Y155459D02*
X43940Y155560D01*
X43934Y155660D01*
X43924Y155760D01*
X43911Y155860D01*
X43893Y155959D01*
X43872Y156058D01*
X43847Y156155D01*
X43818Y156252D01*
X43785Y156347D01*
X43749Y156441D01*
X43709Y156533D01*
X43666Y156624D01*
X43619Y156713D01*
X43569Y156800D01*
X43515Y156886D01*
X43458Y156969D01*
X43398Y157049D01*
X43335Y157128D01*
X43268Y157204D01*
X43199Y157277D01*
X43127Y157347D01*
X43053Y157415D01*
X42976Y157480D01*
X42896Y157541D01*
X42814Y157600D01*
X42730Y157655D01*
X42644Y157707D01*
X42556Y157756D01*
X42466Y157801D01*
X42374Y157843D01*
X42281Y157881D01*
X42186Y157915D01*
X42091Y157946D01*
X41994Y157973D01*
X41896Y157996D01*
X41797Y158016D01*
X41697Y158031D01*
X41597Y158043D01*
X41497Y158051D01*
X41396Y158055D01*
X41296Y158055D01*
X41195Y158051D01*
X41095Y158043D01*
X40995Y158031D01*
X40895Y158016D01*
X40796Y157996D01*
X40698Y157973D01*
X40601Y157946D01*
X40506Y157915D01*
X40411Y157881D01*
X40318Y157843D01*
X40226Y157801D01*
X40136Y157756D01*
X40048Y157707D01*
X39962Y157655D01*
X39878Y157600D01*
X39796Y157541D01*
X39716Y157480D01*
X39639Y157415D01*
X39565Y157347D01*
X39493Y157277D01*
X39424Y157204D01*
X39357Y157128D01*
X39294Y157049D01*
X39234Y156969D01*
X39177Y156886D01*
X39123Y156800D01*
X39073Y156713D01*
X39026Y156624D01*
X38983Y156533D01*
X38943Y156441D01*
X38907Y156347D01*
X38874Y156252D01*
X38845Y156155D01*
X38820Y156058D01*
X38799Y155959D01*
X38781Y155860D01*
X38768Y155760D01*
X38758Y155660D01*
X38752Y155560D01*
X38750Y155459D01*
X38749Y155459D02*
X38749Y152863D01*
X43942Y254508D02*
X32258Y254508D01*
X43942Y254508D02*
X43942Y257754D01*
X43940Y257867D01*
X43934Y257980D01*
X43924Y258093D01*
X43910Y258206D01*
X43893Y258318D01*
X43871Y258429D01*
X43846Y258539D01*
X43816Y258649D01*
X43783Y258757D01*
X43746Y258864D01*
X43706Y258970D01*
X43661Y259074D01*
X43613Y259177D01*
X43562Y259278D01*
X43507Y259377D01*
X43449Y259474D01*
X43387Y259569D01*
X43322Y259662D01*
X43254Y259752D01*
X43183Y259840D01*
X43108Y259926D01*
X43031Y260009D01*
X42951Y260089D01*
X42868Y260166D01*
X42782Y260241D01*
X42694Y260312D01*
X42604Y260380D01*
X42511Y260445D01*
X42416Y260507D01*
X42319Y260565D01*
X42220Y260620D01*
X42119Y260671D01*
X42016Y260719D01*
X41912Y260764D01*
X41806Y260804D01*
X41699Y260841D01*
X41591Y260874D01*
X41481Y260904D01*
X41371Y260929D01*
X41260Y260951D01*
X41148Y260968D01*
X41035Y260982D01*
X40922Y260992D01*
X40809Y260998D01*
X40696Y261000D01*
X40583Y260998D01*
X40470Y260992D01*
X40357Y260982D01*
X40244Y260968D01*
X40132Y260951D01*
X40021Y260929D01*
X39911Y260904D01*
X39801Y260874D01*
X39693Y260841D01*
X39586Y260804D01*
X39480Y260764D01*
X39376Y260719D01*
X39273Y260671D01*
X39172Y260620D01*
X39073Y260565D01*
X38976Y260507D01*
X38881Y260445D01*
X38788Y260380D01*
X38698Y260312D01*
X38610Y260241D01*
X38524Y260166D01*
X38441Y260089D01*
X38361Y260009D01*
X38284Y259926D01*
X38209Y259840D01*
X38138Y259752D01*
X38070Y259662D01*
X38005Y259569D01*
X37943Y259474D01*
X37885Y259377D01*
X37830Y259278D01*
X37779Y259177D01*
X37731Y259074D01*
X37686Y258970D01*
X37646Y258864D01*
X37609Y258757D01*
X37576Y258649D01*
X37546Y258539D01*
X37521Y258429D01*
X37499Y258318D01*
X37482Y258206D01*
X37468Y258093D01*
X37458Y257980D01*
X37452Y257867D01*
X37450Y257754D01*
X37451Y257754D02*
X37451Y254508D01*
X37451Y258403D02*
X32258Y260999D01*
X34854Y265864D02*
X43942Y268461D01*
X34854Y265864D02*
X34854Y272355D01*
X37451Y270408D02*
X32258Y270408D01*
X32258Y197358D02*
X43942Y197358D01*
X43942Y200604D01*
X43940Y200717D01*
X43934Y200830D01*
X43924Y200943D01*
X43910Y201056D01*
X43893Y201168D01*
X43871Y201279D01*
X43846Y201389D01*
X43816Y201499D01*
X43783Y201607D01*
X43746Y201714D01*
X43706Y201820D01*
X43661Y201924D01*
X43613Y202027D01*
X43562Y202128D01*
X43507Y202227D01*
X43449Y202324D01*
X43387Y202419D01*
X43322Y202512D01*
X43254Y202602D01*
X43183Y202690D01*
X43108Y202776D01*
X43031Y202859D01*
X42951Y202939D01*
X42868Y203016D01*
X42782Y203091D01*
X42694Y203162D01*
X42604Y203230D01*
X42511Y203295D01*
X42416Y203357D01*
X42319Y203415D01*
X42220Y203470D01*
X42119Y203521D01*
X42016Y203569D01*
X41912Y203614D01*
X41806Y203654D01*
X41699Y203691D01*
X41591Y203724D01*
X41481Y203754D01*
X41371Y203779D01*
X41260Y203801D01*
X41148Y203818D01*
X41035Y203832D01*
X40922Y203842D01*
X40809Y203848D01*
X40696Y203850D01*
X40583Y203848D01*
X40470Y203842D01*
X40357Y203832D01*
X40244Y203818D01*
X40132Y203801D01*
X40021Y203779D01*
X39911Y203754D01*
X39801Y203724D01*
X39693Y203691D01*
X39586Y203654D01*
X39480Y203614D01*
X39376Y203569D01*
X39273Y203521D01*
X39172Y203470D01*
X39073Y203415D01*
X38976Y203357D01*
X38881Y203295D01*
X38788Y203230D01*
X38698Y203162D01*
X38610Y203091D01*
X38524Y203016D01*
X38441Y202939D01*
X38361Y202859D01*
X38284Y202776D01*
X38209Y202690D01*
X38138Y202602D01*
X38070Y202512D01*
X38005Y202419D01*
X37943Y202324D01*
X37885Y202227D01*
X37830Y202128D01*
X37779Y202027D01*
X37731Y201924D01*
X37686Y201820D01*
X37646Y201714D01*
X37609Y201607D01*
X37576Y201499D01*
X37546Y201389D01*
X37521Y201279D01*
X37499Y201168D01*
X37482Y201056D01*
X37468Y200943D01*
X37458Y200830D01*
X37452Y200717D01*
X37450Y200604D01*
X37451Y200604D02*
X37451Y197358D01*
X37451Y201253D02*
X32258Y203849D01*
X32258Y208714D02*
X32258Y212609D01*
X32260Y212708D01*
X32266Y212808D01*
X32275Y212907D01*
X32288Y213005D01*
X32305Y213103D01*
X32326Y213201D01*
X32351Y213297D01*
X32379Y213392D01*
X32411Y213486D01*
X32446Y213579D01*
X32485Y213671D01*
X32528Y213761D01*
X32573Y213849D01*
X32623Y213936D01*
X32675Y214020D01*
X32731Y214103D01*
X32789Y214183D01*
X32851Y214261D01*
X32916Y214336D01*
X32984Y214409D01*
X33054Y214479D01*
X33127Y214547D01*
X33202Y214612D01*
X33280Y214674D01*
X33360Y214732D01*
X33443Y214788D01*
X33527Y214840D01*
X33614Y214890D01*
X33702Y214935D01*
X33792Y214978D01*
X33884Y215017D01*
X33977Y215052D01*
X34071Y215084D01*
X34166Y215112D01*
X34262Y215137D01*
X34360Y215158D01*
X34458Y215175D01*
X34556Y215188D01*
X34655Y215197D01*
X34755Y215203D01*
X34854Y215205D01*
X36153Y215205D01*
X36252Y215203D01*
X36352Y215197D01*
X36451Y215188D01*
X36549Y215175D01*
X36647Y215158D01*
X36745Y215137D01*
X36841Y215112D01*
X36936Y215084D01*
X37030Y215052D01*
X37123Y215017D01*
X37215Y214978D01*
X37305Y214935D01*
X37393Y214890D01*
X37480Y214840D01*
X37564Y214788D01*
X37647Y214732D01*
X37727Y214674D01*
X37805Y214612D01*
X37880Y214547D01*
X37953Y214479D01*
X38023Y214409D01*
X38091Y214336D01*
X38156Y214261D01*
X38218Y214183D01*
X38276Y214103D01*
X38332Y214020D01*
X38384Y213936D01*
X38434Y213849D01*
X38479Y213761D01*
X38522Y213671D01*
X38561Y213579D01*
X38596Y213486D01*
X38628Y213392D01*
X38656Y213297D01*
X38681Y213201D01*
X38702Y213103D01*
X38719Y213005D01*
X38732Y212907D01*
X38741Y212808D01*
X38747Y212708D01*
X38749Y212609D01*
X38749Y208714D01*
X43942Y208714D01*
X43942Y215205D01*
X673608Y248345D02*
X685292Y248345D01*
X685292Y251590D01*
X685290Y251703D01*
X685284Y251816D01*
X685274Y251929D01*
X685260Y252042D01*
X685243Y252154D01*
X685221Y252265D01*
X685196Y252375D01*
X685166Y252485D01*
X685133Y252593D01*
X685096Y252700D01*
X685056Y252806D01*
X685011Y252910D01*
X684963Y253013D01*
X684912Y253114D01*
X684857Y253213D01*
X684799Y253310D01*
X684737Y253405D01*
X684672Y253498D01*
X684604Y253588D01*
X684533Y253676D01*
X684458Y253762D01*
X684381Y253845D01*
X684301Y253925D01*
X684218Y254002D01*
X684132Y254077D01*
X684044Y254148D01*
X683954Y254216D01*
X683861Y254281D01*
X683766Y254343D01*
X683669Y254401D01*
X683570Y254456D01*
X683469Y254507D01*
X683366Y254555D01*
X683262Y254600D01*
X683156Y254640D01*
X683049Y254677D01*
X682941Y254710D01*
X682831Y254740D01*
X682721Y254765D01*
X682610Y254787D01*
X682498Y254804D01*
X682385Y254818D01*
X682272Y254828D01*
X682159Y254834D01*
X682046Y254836D01*
X681933Y254834D01*
X681820Y254828D01*
X681707Y254818D01*
X681594Y254804D01*
X681482Y254787D01*
X681371Y254765D01*
X681261Y254740D01*
X681151Y254710D01*
X681043Y254677D01*
X680936Y254640D01*
X680830Y254600D01*
X680726Y254555D01*
X680623Y254507D01*
X680522Y254456D01*
X680423Y254401D01*
X680326Y254343D01*
X680231Y254281D01*
X680138Y254216D01*
X680048Y254148D01*
X679960Y254077D01*
X679874Y254002D01*
X679791Y253925D01*
X679711Y253845D01*
X679634Y253762D01*
X679559Y253676D01*
X679488Y253588D01*
X679420Y253498D01*
X679355Y253405D01*
X679293Y253310D01*
X679235Y253213D01*
X679180Y253114D01*
X679129Y253013D01*
X679081Y252910D01*
X679036Y252806D01*
X678996Y252700D01*
X678959Y252593D01*
X678926Y252485D01*
X678896Y252375D01*
X678871Y252265D01*
X678849Y252154D01*
X678832Y252042D01*
X678818Y251929D01*
X678808Y251816D01*
X678802Y251703D01*
X678800Y251590D01*
X678801Y251590D02*
X678801Y248345D01*
X678801Y252239D02*
X673608Y254836D01*
X680099Y259701D02*
X680099Y263596D01*
X680097Y263695D01*
X680091Y263795D01*
X680082Y263894D01*
X680069Y263992D01*
X680052Y264090D01*
X680031Y264188D01*
X680006Y264284D01*
X679978Y264379D01*
X679946Y264473D01*
X679911Y264566D01*
X679872Y264658D01*
X679829Y264748D01*
X679784Y264836D01*
X679734Y264923D01*
X679682Y265007D01*
X679626Y265090D01*
X679568Y265170D01*
X679506Y265248D01*
X679441Y265323D01*
X679373Y265396D01*
X679303Y265466D01*
X679230Y265534D01*
X679155Y265599D01*
X679077Y265661D01*
X678997Y265719D01*
X678914Y265775D01*
X678830Y265827D01*
X678743Y265877D01*
X678655Y265922D01*
X678565Y265965D01*
X678473Y266004D01*
X678380Y266039D01*
X678286Y266071D01*
X678191Y266099D01*
X678095Y266124D01*
X677997Y266145D01*
X677899Y266162D01*
X677801Y266175D01*
X677702Y266184D01*
X677602Y266190D01*
X677503Y266192D01*
X676854Y266192D01*
X676741Y266190D01*
X676628Y266184D01*
X676515Y266174D01*
X676402Y266160D01*
X676290Y266143D01*
X676179Y266121D01*
X676069Y266096D01*
X675959Y266066D01*
X675851Y266033D01*
X675744Y265996D01*
X675638Y265956D01*
X675534Y265911D01*
X675431Y265863D01*
X675330Y265812D01*
X675231Y265757D01*
X675134Y265699D01*
X675039Y265637D01*
X674946Y265572D01*
X674856Y265504D01*
X674768Y265433D01*
X674682Y265358D01*
X674599Y265281D01*
X674519Y265201D01*
X674442Y265118D01*
X674367Y265032D01*
X674296Y264944D01*
X674228Y264854D01*
X674163Y264761D01*
X674101Y264666D01*
X674043Y264569D01*
X673988Y264470D01*
X673937Y264369D01*
X673889Y264266D01*
X673844Y264162D01*
X673804Y264056D01*
X673767Y263949D01*
X673734Y263841D01*
X673704Y263731D01*
X673679Y263621D01*
X673657Y263510D01*
X673640Y263398D01*
X673626Y263285D01*
X673616Y263172D01*
X673610Y263059D01*
X673608Y262946D01*
X673610Y262833D01*
X673616Y262720D01*
X673626Y262607D01*
X673640Y262494D01*
X673657Y262382D01*
X673679Y262271D01*
X673704Y262161D01*
X673734Y262051D01*
X673767Y261943D01*
X673804Y261836D01*
X673844Y261730D01*
X673889Y261626D01*
X673937Y261523D01*
X673988Y261422D01*
X674043Y261323D01*
X674101Y261226D01*
X674163Y261131D01*
X674228Y261038D01*
X674296Y260948D01*
X674367Y260860D01*
X674442Y260774D01*
X674519Y260691D01*
X674599Y260611D01*
X674682Y260534D01*
X674768Y260459D01*
X674856Y260388D01*
X674946Y260320D01*
X675039Y260255D01*
X675134Y260193D01*
X675231Y260135D01*
X675330Y260080D01*
X675431Y260029D01*
X675534Y259981D01*
X675638Y259936D01*
X675744Y259896D01*
X675851Y259859D01*
X675959Y259826D01*
X676069Y259796D01*
X676179Y259771D01*
X676290Y259749D01*
X676402Y259732D01*
X676515Y259718D01*
X676628Y259708D01*
X676741Y259702D01*
X676854Y259700D01*
X676854Y259701D02*
X680099Y259701D01*
X680242Y259703D01*
X680385Y259709D01*
X680528Y259719D01*
X680670Y259733D01*
X680812Y259750D01*
X680954Y259772D01*
X681095Y259797D01*
X681235Y259827D01*
X681374Y259860D01*
X681512Y259897D01*
X681649Y259938D01*
X681785Y259982D01*
X681920Y260031D01*
X682053Y260083D01*
X682185Y260138D01*
X682315Y260198D01*
X682444Y260261D01*
X682571Y260327D01*
X682695Y260397D01*
X682818Y260470D01*
X682939Y260547D01*
X683058Y260627D01*
X683174Y260710D01*
X683289Y260796D01*
X683400Y260885D01*
X683510Y260978D01*
X683616Y261073D01*
X683720Y261172D01*
X683821Y261273D01*
X683920Y261377D01*
X684015Y261483D01*
X684108Y261593D01*
X684197Y261704D01*
X684283Y261819D01*
X684366Y261935D01*
X684446Y262054D01*
X684523Y262175D01*
X684596Y262297D01*
X684666Y262422D01*
X684732Y262549D01*
X684795Y262678D01*
X684855Y262808D01*
X684910Y262940D01*
X684962Y263073D01*
X685011Y263208D01*
X685055Y263344D01*
X685096Y263481D01*
X685133Y263619D01*
X685166Y263758D01*
X685196Y263898D01*
X685221Y264039D01*
X685243Y264181D01*
X685260Y264323D01*
X685274Y264465D01*
X685284Y264608D01*
X685290Y264751D01*
X685292Y264894D01*
X710692Y50292D02*
X710692Y38608D01*
X710692Y50292D02*
X707446Y50292D01*
X707333Y50290D01*
X707220Y50284D01*
X707107Y50274D01*
X706994Y50260D01*
X706882Y50243D01*
X706771Y50221D01*
X706661Y50196D01*
X706551Y50166D01*
X706443Y50133D01*
X706336Y50096D01*
X706230Y50056D01*
X706126Y50011D01*
X706023Y49963D01*
X705922Y49912D01*
X705823Y49857D01*
X705726Y49799D01*
X705631Y49737D01*
X705538Y49672D01*
X705448Y49604D01*
X705360Y49533D01*
X705274Y49458D01*
X705191Y49381D01*
X705111Y49301D01*
X705034Y49218D01*
X704959Y49132D01*
X704888Y49044D01*
X704820Y48954D01*
X704755Y48861D01*
X704693Y48766D01*
X704635Y48669D01*
X704580Y48570D01*
X704529Y48469D01*
X704481Y48366D01*
X704436Y48262D01*
X704396Y48156D01*
X704359Y48049D01*
X704326Y47941D01*
X704296Y47831D01*
X704271Y47721D01*
X704249Y47610D01*
X704232Y47498D01*
X704218Y47385D01*
X704208Y47272D01*
X704202Y47159D01*
X704200Y47046D01*
X704202Y46933D01*
X704208Y46820D01*
X704218Y46707D01*
X704232Y46594D01*
X704249Y46482D01*
X704271Y46371D01*
X704296Y46261D01*
X704326Y46151D01*
X704359Y46043D01*
X704396Y45936D01*
X704436Y45830D01*
X704481Y45726D01*
X704529Y45623D01*
X704580Y45522D01*
X704635Y45423D01*
X704693Y45326D01*
X704755Y45231D01*
X704820Y45138D01*
X704888Y45048D01*
X704959Y44960D01*
X705034Y44874D01*
X705111Y44791D01*
X705191Y44711D01*
X705274Y44634D01*
X705360Y44559D01*
X705448Y44488D01*
X705538Y44420D01*
X705631Y44355D01*
X705726Y44293D01*
X705823Y44235D01*
X705922Y44180D01*
X706023Y44129D01*
X706126Y44081D01*
X706230Y44036D01*
X706336Y43996D01*
X706443Y43959D01*
X706551Y43926D01*
X706661Y43896D01*
X706771Y43871D01*
X706882Y43849D01*
X706994Y43832D01*
X707107Y43818D01*
X707220Y43808D01*
X707333Y43802D01*
X707446Y43800D01*
X707446Y43801D02*
X710692Y43801D01*
X706797Y43801D02*
X704201Y38608D01*
X699336Y48994D02*
X699336Y50292D01*
X692845Y50292D01*
X696090Y38608D01*
X659892Y38608D02*
X659892Y50292D01*
X656646Y50292D01*
X656533Y50290D01*
X656420Y50284D01*
X656307Y50274D01*
X656194Y50260D01*
X656082Y50243D01*
X655971Y50221D01*
X655861Y50196D01*
X655751Y50166D01*
X655643Y50133D01*
X655536Y50096D01*
X655430Y50056D01*
X655326Y50011D01*
X655223Y49963D01*
X655122Y49912D01*
X655023Y49857D01*
X654926Y49799D01*
X654831Y49737D01*
X654738Y49672D01*
X654648Y49604D01*
X654560Y49533D01*
X654474Y49458D01*
X654391Y49381D01*
X654311Y49301D01*
X654234Y49218D01*
X654159Y49132D01*
X654088Y49044D01*
X654020Y48954D01*
X653955Y48861D01*
X653893Y48766D01*
X653835Y48669D01*
X653780Y48570D01*
X653729Y48469D01*
X653681Y48366D01*
X653636Y48262D01*
X653596Y48156D01*
X653559Y48049D01*
X653526Y47941D01*
X653496Y47831D01*
X653471Y47721D01*
X653449Y47610D01*
X653432Y47498D01*
X653418Y47385D01*
X653408Y47272D01*
X653402Y47159D01*
X653400Y47046D01*
X653402Y46933D01*
X653408Y46820D01*
X653418Y46707D01*
X653432Y46594D01*
X653449Y46482D01*
X653471Y46371D01*
X653496Y46261D01*
X653526Y46151D01*
X653559Y46043D01*
X653596Y45936D01*
X653636Y45830D01*
X653681Y45726D01*
X653729Y45623D01*
X653780Y45522D01*
X653835Y45423D01*
X653893Y45326D01*
X653955Y45231D01*
X654020Y45138D01*
X654088Y45048D01*
X654159Y44960D01*
X654234Y44874D01*
X654311Y44791D01*
X654391Y44711D01*
X654474Y44634D01*
X654560Y44559D01*
X654648Y44488D01*
X654738Y44420D01*
X654831Y44355D01*
X654926Y44293D01*
X655023Y44235D01*
X655122Y44180D01*
X655223Y44129D01*
X655326Y44081D01*
X655430Y44036D01*
X655536Y43996D01*
X655643Y43959D01*
X655751Y43926D01*
X655861Y43896D01*
X655971Y43871D01*
X656082Y43849D01*
X656194Y43832D01*
X656307Y43818D01*
X656420Y43808D01*
X656533Y43802D01*
X656646Y43800D01*
X656646Y43801D02*
X659892Y43801D01*
X655997Y43801D02*
X653401Y38608D01*
X648536Y41854D02*
X648534Y41967D01*
X648528Y42080D01*
X648518Y42193D01*
X648504Y42306D01*
X648487Y42418D01*
X648465Y42529D01*
X648440Y42639D01*
X648410Y42749D01*
X648377Y42857D01*
X648340Y42964D01*
X648300Y43070D01*
X648255Y43174D01*
X648207Y43277D01*
X648156Y43378D01*
X648101Y43477D01*
X648043Y43574D01*
X647981Y43669D01*
X647916Y43762D01*
X647848Y43852D01*
X647777Y43940D01*
X647702Y44026D01*
X647625Y44109D01*
X647545Y44189D01*
X647462Y44266D01*
X647376Y44341D01*
X647288Y44412D01*
X647198Y44480D01*
X647105Y44545D01*
X647010Y44607D01*
X646913Y44665D01*
X646814Y44720D01*
X646713Y44771D01*
X646610Y44819D01*
X646506Y44864D01*
X646400Y44904D01*
X646293Y44941D01*
X646185Y44974D01*
X646075Y45004D01*
X645965Y45029D01*
X645854Y45051D01*
X645742Y45068D01*
X645629Y45082D01*
X645516Y45092D01*
X645403Y45098D01*
X645290Y45100D01*
X645177Y45098D01*
X645064Y45092D01*
X644951Y45082D01*
X644838Y45068D01*
X644726Y45051D01*
X644615Y45029D01*
X644505Y45004D01*
X644395Y44974D01*
X644287Y44941D01*
X644180Y44904D01*
X644074Y44864D01*
X643970Y44819D01*
X643867Y44771D01*
X643766Y44720D01*
X643667Y44665D01*
X643570Y44607D01*
X643475Y44545D01*
X643382Y44480D01*
X643292Y44412D01*
X643204Y44341D01*
X643118Y44266D01*
X643035Y44189D01*
X642955Y44109D01*
X642878Y44026D01*
X642803Y43940D01*
X642732Y43852D01*
X642664Y43762D01*
X642599Y43669D01*
X642537Y43574D01*
X642479Y43477D01*
X642424Y43378D01*
X642373Y43277D01*
X642325Y43174D01*
X642280Y43070D01*
X642240Y42964D01*
X642203Y42857D01*
X642170Y42749D01*
X642140Y42639D01*
X642115Y42529D01*
X642093Y42418D01*
X642076Y42306D01*
X642062Y42193D01*
X642052Y42080D01*
X642046Y41967D01*
X642044Y41854D01*
X642046Y41741D01*
X642052Y41628D01*
X642062Y41515D01*
X642076Y41402D01*
X642093Y41290D01*
X642115Y41179D01*
X642140Y41069D01*
X642170Y40959D01*
X642203Y40851D01*
X642240Y40744D01*
X642280Y40638D01*
X642325Y40534D01*
X642373Y40431D01*
X642424Y40330D01*
X642479Y40231D01*
X642537Y40134D01*
X642599Y40039D01*
X642664Y39946D01*
X642732Y39856D01*
X642803Y39768D01*
X642878Y39682D01*
X642955Y39599D01*
X643035Y39519D01*
X643118Y39442D01*
X643204Y39367D01*
X643292Y39296D01*
X643382Y39228D01*
X643475Y39163D01*
X643570Y39101D01*
X643667Y39043D01*
X643766Y38988D01*
X643867Y38937D01*
X643970Y38889D01*
X644074Y38844D01*
X644180Y38804D01*
X644287Y38767D01*
X644395Y38734D01*
X644505Y38704D01*
X644615Y38679D01*
X644726Y38657D01*
X644838Y38640D01*
X644951Y38626D01*
X645064Y38616D01*
X645177Y38610D01*
X645290Y38608D01*
X645403Y38610D01*
X645516Y38616D01*
X645629Y38626D01*
X645742Y38640D01*
X645854Y38657D01*
X645965Y38679D01*
X646075Y38704D01*
X646185Y38734D01*
X646293Y38767D01*
X646400Y38804D01*
X646506Y38844D01*
X646610Y38889D01*
X646713Y38937D01*
X646814Y38988D01*
X646913Y39043D01*
X647010Y39101D01*
X647105Y39163D01*
X647198Y39228D01*
X647288Y39296D01*
X647376Y39367D01*
X647462Y39442D01*
X647545Y39519D01*
X647625Y39599D01*
X647702Y39682D01*
X647777Y39768D01*
X647848Y39856D01*
X647916Y39946D01*
X647981Y40039D01*
X648043Y40134D01*
X648101Y40231D01*
X648156Y40330D01*
X648207Y40431D01*
X648255Y40534D01*
X648300Y40638D01*
X648340Y40744D01*
X648377Y40851D01*
X648410Y40959D01*
X648440Y41069D01*
X648465Y41179D01*
X648487Y41290D01*
X648504Y41402D01*
X648518Y41515D01*
X648528Y41628D01*
X648534Y41741D01*
X648536Y41854D01*
X647886Y47696D02*
X647884Y47797D01*
X647878Y47897D01*
X647868Y47997D01*
X647855Y48097D01*
X647837Y48196D01*
X647816Y48295D01*
X647791Y48392D01*
X647762Y48489D01*
X647729Y48584D01*
X647693Y48678D01*
X647653Y48770D01*
X647610Y48861D01*
X647563Y48950D01*
X647513Y49037D01*
X647459Y49123D01*
X647402Y49206D01*
X647342Y49286D01*
X647279Y49365D01*
X647212Y49441D01*
X647143Y49514D01*
X647071Y49584D01*
X646997Y49652D01*
X646920Y49717D01*
X646840Y49778D01*
X646758Y49837D01*
X646674Y49892D01*
X646588Y49944D01*
X646500Y49993D01*
X646410Y50038D01*
X646318Y50080D01*
X646225Y50118D01*
X646130Y50152D01*
X646035Y50183D01*
X645938Y50210D01*
X645840Y50233D01*
X645741Y50253D01*
X645641Y50268D01*
X645541Y50280D01*
X645441Y50288D01*
X645340Y50292D01*
X645240Y50292D01*
X645139Y50288D01*
X645039Y50280D01*
X644939Y50268D01*
X644839Y50253D01*
X644740Y50233D01*
X644642Y50210D01*
X644545Y50183D01*
X644450Y50152D01*
X644355Y50118D01*
X644262Y50080D01*
X644170Y50038D01*
X644080Y49993D01*
X643992Y49944D01*
X643906Y49892D01*
X643822Y49837D01*
X643740Y49778D01*
X643660Y49717D01*
X643583Y49652D01*
X643509Y49584D01*
X643437Y49514D01*
X643368Y49441D01*
X643301Y49365D01*
X643238Y49286D01*
X643178Y49206D01*
X643121Y49123D01*
X643067Y49037D01*
X643017Y48950D01*
X642970Y48861D01*
X642927Y48770D01*
X642887Y48678D01*
X642851Y48584D01*
X642818Y48489D01*
X642789Y48392D01*
X642764Y48295D01*
X642743Y48196D01*
X642725Y48097D01*
X642712Y47997D01*
X642702Y47897D01*
X642696Y47797D01*
X642694Y47696D01*
X642696Y47595D01*
X642702Y47495D01*
X642712Y47395D01*
X642725Y47295D01*
X642743Y47196D01*
X642764Y47097D01*
X642789Y47000D01*
X642818Y46903D01*
X642851Y46808D01*
X642887Y46714D01*
X642927Y46622D01*
X642970Y46531D01*
X643017Y46442D01*
X643067Y46355D01*
X643121Y46269D01*
X643178Y46186D01*
X643238Y46106D01*
X643301Y46027D01*
X643368Y45951D01*
X643437Y45878D01*
X643509Y45808D01*
X643583Y45740D01*
X643660Y45675D01*
X643740Y45614D01*
X643822Y45555D01*
X643906Y45500D01*
X643992Y45448D01*
X644080Y45399D01*
X644170Y45354D01*
X644262Y45312D01*
X644355Y45274D01*
X644450Y45240D01*
X644545Y45209D01*
X644642Y45182D01*
X644740Y45159D01*
X644839Y45139D01*
X644939Y45124D01*
X645039Y45112D01*
X645139Y45104D01*
X645240Y45100D01*
X645340Y45100D01*
X645441Y45104D01*
X645541Y45112D01*
X645641Y45124D01*
X645741Y45139D01*
X645840Y45159D01*
X645938Y45182D01*
X646035Y45209D01*
X646130Y45240D01*
X646225Y45274D01*
X646318Y45312D01*
X646410Y45354D01*
X646500Y45399D01*
X646588Y45448D01*
X646674Y45500D01*
X646758Y45555D01*
X646840Y45614D01*
X646920Y45675D01*
X646997Y45740D01*
X647071Y45808D01*
X647143Y45878D01*
X647212Y45951D01*
X647279Y46027D01*
X647342Y46106D01*
X647402Y46186D01*
X647459Y46269D01*
X647513Y46355D01*
X647563Y46442D01*
X647610Y46531D01*
X647653Y46622D01*
X647693Y46714D01*
X647729Y46808D01*
X647762Y46903D01*
X647791Y47000D01*
X647816Y47097D01*
X647837Y47196D01*
X647855Y47295D01*
X647868Y47395D01*
X647878Y47495D01*
X647884Y47595D01*
X647886Y47696D01*
X756158Y25908D02*
X767842Y25908D01*
X767842Y29154D01*
X767840Y29267D01*
X767834Y29380D01*
X767824Y29493D01*
X767810Y29606D01*
X767793Y29718D01*
X767771Y29829D01*
X767746Y29939D01*
X767716Y30049D01*
X767683Y30157D01*
X767646Y30264D01*
X767606Y30370D01*
X767561Y30474D01*
X767513Y30577D01*
X767462Y30678D01*
X767407Y30777D01*
X767349Y30874D01*
X767287Y30969D01*
X767222Y31062D01*
X767154Y31152D01*
X767083Y31240D01*
X767008Y31326D01*
X766931Y31409D01*
X766851Y31489D01*
X766768Y31566D01*
X766682Y31641D01*
X766594Y31712D01*
X766504Y31780D01*
X766411Y31845D01*
X766316Y31907D01*
X766219Y31965D01*
X766120Y32020D01*
X766019Y32071D01*
X765916Y32119D01*
X765812Y32164D01*
X765706Y32204D01*
X765599Y32241D01*
X765491Y32274D01*
X765381Y32304D01*
X765271Y32329D01*
X765160Y32351D01*
X765048Y32368D01*
X764935Y32382D01*
X764822Y32392D01*
X764709Y32398D01*
X764596Y32400D01*
X764483Y32398D01*
X764370Y32392D01*
X764257Y32382D01*
X764144Y32368D01*
X764032Y32351D01*
X763921Y32329D01*
X763811Y32304D01*
X763701Y32274D01*
X763593Y32241D01*
X763486Y32204D01*
X763380Y32164D01*
X763276Y32119D01*
X763173Y32071D01*
X763072Y32020D01*
X762973Y31965D01*
X762876Y31907D01*
X762781Y31845D01*
X762688Y31780D01*
X762598Y31712D01*
X762510Y31641D01*
X762424Y31566D01*
X762341Y31489D01*
X762261Y31409D01*
X762184Y31326D01*
X762109Y31240D01*
X762038Y31152D01*
X761970Y31062D01*
X761905Y30969D01*
X761843Y30874D01*
X761785Y30777D01*
X761730Y30678D01*
X761679Y30577D01*
X761631Y30474D01*
X761586Y30370D01*
X761546Y30264D01*
X761509Y30157D01*
X761476Y30049D01*
X761446Y29939D01*
X761421Y29829D01*
X761399Y29718D01*
X761382Y29606D01*
X761368Y29493D01*
X761358Y29380D01*
X761352Y29267D01*
X761350Y29154D01*
X761351Y29154D02*
X761351Y25908D01*
X761351Y29803D02*
X756158Y32399D01*
X761351Y39861D02*
X761351Y43755D01*
X761351Y39861D02*
X761353Y39762D01*
X761359Y39662D01*
X761368Y39563D01*
X761381Y39465D01*
X761398Y39367D01*
X761419Y39269D01*
X761444Y39173D01*
X761472Y39078D01*
X761504Y38984D01*
X761539Y38891D01*
X761578Y38799D01*
X761621Y38709D01*
X761666Y38621D01*
X761716Y38534D01*
X761768Y38450D01*
X761824Y38367D01*
X761882Y38287D01*
X761944Y38209D01*
X762009Y38134D01*
X762077Y38061D01*
X762147Y37991D01*
X762220Y37923D01*
X762295Y37858D01*
X762373Y37796D01*
X762453Y37738D01*
X762536Y37682D01*
X762620Y37630D01*
X762707Y37580D01*
X762795Y37535D01*
X762885Y37492D01*
X762977Y37453D01*
X763070Y37418D01*
X763164Y37386D01*
X763259Y37358D01*
X763355Y37333D01*
X763453Y37312D01*
X763551Y37295D01*
X763649Y37282D01*
X763748Y37273D01*
X763848Y37267D01*
X763947Y37265D01*
X763947Y37264D02*
X764596Y37264D01*
X764709Y37266D01*
X764822Y37272D01*
X764935Y37282D01*
X765048Y37296D01*
X765160Y37313D01*
X765271Y37335D01*
X765381Y37360D01*
X765491Y37390D01*
X765599Y37423D01*
X765706Y37460D01*
X765812Y37500D01*
X765916Y37545D01*
X766019Y37593D01*
X766120Y37644D01*
X766219Y37699D01*
X766316Y37757D01*
X766411Y37819D01*
X766504Y37884D01*
X766594Y37952D01*
X766682Y38023D01*
X766768Y38098D01*
X766851Y38175D01*
X766931Y38255D01*
X767008Y38338D01*
X767083Y38424D01*
X767154Y38512D01*
X767222Y38602D01*
X767287Y38695D01*
X767349Y38790D01*
X767407Y38887D01*
X767462Y38986D01*
X767513Y39087D01*
X767561Y39190D01*
X767606Y39294D01*
X767646Y39400D01*
X767683Y39507D01*
X767716Y39615D01*
X767746Y39725D01*
X767771Y39835D01*
X767793Y39946D01*
X767810Y40058D01*
X767824Y40171D01*
X767834Y40284D01*
X767840Y40397D01*
X767842Y40510D01*
X767840Y40623D01*
X767834Y40736D01*
X767824Y40849D01*
X767810Y40962D01*
X767793Y41074D01*
X767771Y41185D01*
X767746Y41295D01*
X767716Y41405D01*
X767683Y41513D01*
X767646Y41620D01*
X767606Y41726D01*
X767561Y41830D01*
X767513Y41933D01*
X767462Y42034D01*
X767407Y42133D01*
X767349Y42230D01*
X767287Y42325D01*
X767222Y42418D01*
X767154Y42508D01*
X767083Y42596D01*
X767008Y42682D01*
X766931Y42765D01*
X766851Y42845D01*
X766768Y42922D01*
X766682Y42997D01*
X766594Y43068D01*
X766504Y43136D01*
X766411Y43201D01*
X766316Y43263D01*
X766219Y43321D01*
X766120Y43376D01*
X766019Y43427D01*
X765916Y43475D01*
X765812Y43520D01*
X765706Y43560D01*
X765599Y43597D01*
X765491Y43630D01*
X765381Y43660D01*
X765271Y43685D01*
X765160Y43707D01*
X765048Y43724D01*
X764935Y43738D01*
X764822Y43748D01*
X764709Y43754D01*
X764596Y43756D01*
X764596Y43755D02*
X761351Y43755D01*
X761351Y43756D02*
X761208Y43754D01*
X761065Y43748D01*
X760922Y43738D01*
X760780Y43724D01*
X760638Y43707D01*
X760496Y43685D01*
X760355Y43660D01*
X760215Y43630D01*
X760076Y43597D01*
X759938Y43560D01*
X759801Y43519D01*
X759665Y43475D01*
X759530Y43426D01*
X759397Y43374D01*
X759265Y43319D01*
X759135Y43259D01*
X759006Y43196D01*
X758879Y43130D01*
X758755Y43060D01*
X758632Y42987D01*
X758511Y42910D01*
X758392Y42830D01*
X758276Y42747D01*
X758161Y42661D01*
X758050Y42572D01*
X757940Y42479D01*
X757834Y42384D01*
X757730Y42285D01*
X757629Y42184D01*
X757530Y42080D01*
X757435Y41974D01*
X757342Y41864D01*
X757253Y41753D01*
X757167Y41638D01*
X757084Y41522D01*
X757004Y41403D01*
X756927Y41282D01*
X756854Y41160D01*
X756784Y41035D01*
X756718Y40908D01*
X756655Y40779D01*
X756595Y40649D01*
X756540Y40517D01*
X756488Y40384D01*
X756439Y40249D01*
X756395Y40113D01*
X756354Y39976D01*
X756317Y39838D01*
X756284Y39699D01*
X756254Y39559D01*
X756229Y39418D01*
X756207Y39276D01*
X756190Y39134D01*
X756176Y38992D01*
X756166Y38849D01*
X756160Y38706D01*
X756158Y38563D01*
D18*
X514350Y139700D02*
X514350Y215900D01*
X533400Y215900D02*
X533400Y139700D01*
X533400Y215900D02*
X514350Y215900D01*
X546100Y241300D02*
X546100Y114300D01*
X533400Y139700D02*
X514350Y139700D01*
X558800Y149860D02*
X558800Y203200D01*
X577850Y203200D01*
X577850Y149860D02*
X558800Y149860D01*
X577850Y149860D02*
X577850Y203200D01*
D14*
X526823Y97711D02*
X526823Y81709D01*
X531268Y97711D02*
X522378Y97711D01*
X516679Y94155D02*
X512234Y97711D01*
X512234Y81709D01*
X516679Y81709D02*
X507789Y81709D01*
X556649Y229729D02*
X563761Y229729D01*
X563761Y245731D01*
X556649Y245731D01*
X558427Y238619D02*
X563761Y238619D01*
X550213Y245731D02*
X550213Y229729D01*
X550213Y245731D02*
X543101Y245731D01*
X543101Y238619D02*
X550213Y238619D01*
X532331Y245732D02*
X532205Y245730D01*
X532080Y245724D01*
X531954Y245714D01*
X531830Y245700D01*
X531705Y245683D01*
X531581Y245661D01*
X531458Y245636D01*
X531336Y245606D01*
X531215Y245573D01*
X531095Y245536D01*
X530976Y245495D01*
X530858Y245451D01*
X530742Y245403D01*
X530627Y245351D01*
X530515Y245296D01*
X530404Y245237D01*
X530294Y245175D01*
X530187Y245109D01*
X530082Y245040D01*
X529979Y244968D01*
X529879Y244892D01*
X529781Y244814D01*
X529685Y244732D01*
X529592Y244648D01*
X529502Y244560D01*
X529414Y244470D01*
X529330Y244377D01*
X529248Y244281D01*
X529170Y244183D01*
X529094Y244083D01*
X529022Y243980D01*
X528953Y243875D01*
X528887Y243768D01*
X528825Y243658D01*
X528766Y243547D01*
X528711Y243435D01*
X528659Y243320D01*
X528611Y243204D01*
X528567Y243086D01*
X528526Y242967D01*
X528489Y242847D01*
X528456Y242726D01*
X528426Y242604D01*
X528401Y242481D01*
X528379Y242357D01*
X528362Y242232D01*
X528348Y242108D01*
X528338Y241982D01*
X528332Y241857D01*
X528330Y241731D01*
X532331Y245731D02*
X532472Y245729D01*
X532612Y245723D01*
X532752Y245714D01*
X532892Y245700D01*
X533031Y245683D01*
X533170Y245662D01*
X533309Y245637D01*
X533446Y245609D01*
X533583Y245576D01*
X533719Y245540D01*
X533854Y245500D01*
X533987Y245457D01*
X534120Y245410D01*
X534251Y245359D01*
X534380Y245305D01*
X534508Y245247D01*
X534635Y245186D01*
X534760Y245121D01*
X534882Y245053D01*
X535003Y244982D01*
X535123Y244907D01*
X535239Y244829D01*
X535354Y244748D01*
X535467Y244664D01*
X535577Y244576D01*
X535685Y244486D01*
X535790Y244393D01*
X535892Y244297D01*
X535992Y244198D01*
X536090Y244097D01*
X536184Y243993D01*
X536276Y243886D01*
X536364Y243777D01*
X536450Y243666D01*
X536532Y243552D01*
X536612Y243436D01*
X536688Y243318D01*
X536761Y243198D01*
X536830Y243076D01*
X536897Y242952D01*
X536960Y242826D01*
X537019Y242699D01*
X537075Y242570D01*
X537127Y242440D01*
X537176Y242308D01*
X537221Y242175D01*
X529664Y238619D02*
X529572Y238710D01*
X529482Y238803D01*
X529396Y238898D01*
X529312Y238996D01*
X529232Y239097D01*
X529154Y239200D01*
X529080Y239305D01*
X529009Y239413D01*
X528941Y239522D01*
X528877Y239634D01*
X528815Y239747D01*
X528758Y239862D01*
X528703Y239979D01*
X528652Y240098D01*
X528605Y240218D01*
X528562Y240339D01*
X528522Y240461D01*
X528486Y240585D01*
X528453Y240710D01*
X528424Y240835D01*
X528399Y240962D01*
X528378Y241089D01*
X528361Y241217D01*
X528347Y241345D01*
X528338Y241473D01*
X528332Y241602D01*
X528330Y241731D01*
X529664Y238619D02*
X537220Y229729D01*
X528330Y229729D01*
X521589Y237730D02*
X521585Y238045D01*
X521574Y238359D01*
X521555Y238674D01*
X521529Y238987D01*
X521495Y239300D01*
X521454Y239612D01*
X521405Y239923D01*
X521349Y240233D01*
X521286Y240542D01*
X521215Y240848D01*
X521137Y241153D01*
X521052Y241456D01*
X520959Y241757D01*
X520859Y242056D01*
X520752Y242352D01*
X520639Y242646D01*
X520518Y242936D01*
X520390Y243224D01*
X520255Y243509D01*
X520217Y243615D01*
X520174Y243720D01*
X520129Y243824D01*
X520079Y243926D01*
X520026Y244026D01*
X519970Y244125D01*
X519910Y244221D01*
X519847Y244315D01*
X519781Y244407D01*
X519712Y244497D01*
X519640Y244584D01*
X519564Y244669D01*
X519486Y244751D01*
X519405Y244830D01*
X519322Y244907D01*
X519235Y244980D01*
X519147Y245051D01*
X519056Y245118D01*
X518962Y245183D01*
X518867Y245244D01*
X518769Y245301D01*
X518670Y245356D01*
X518569Y245406D01*
X518466Y245454D01*
X518361Y245498D01*
X518255Y245538D01*
X518148Y245574D01*
X518039Y245607D01*
X517930Y245636D01*
X517819Y245661D01*
X517708Y245682D01*
X517596Y245700D01*
X517483Y245713D01*
X517370Y245723D01*
X517257Y245729D01*
X517144Y245731D01*
X517031Y245729D01*
X516918Y245723D01*
X516805Y245713D01*
X516692Y245700D01*
X516580Y245682D01*
X516469Y245661D01*
X516358Y245636D01*
X516249Y245607D01*
X516140Y245574D01*
X516033Y245538D01*
X515927Y245498D01*
X515822Y245454D01*
X515719Y245406D01*
X515618Y245356D01*
X515519Y245301D01*
X515421Y245244D01*
X515326Y245183D01*
X515232Y245118D01*
X515141Y245051D01*
X515053Y244980D01*
X514966Y244907D01*
X514883Y244830D01*
X514802Y244751D01*
X514724Y244669D01*
X514648Y244584D01*
X514576Y244497D01*
X514507Y244407D01*
X514441Y244315D01*
X514378Y244221D01*
X514318Y244125D01*
X514262Y244026D01*
X514209Y243926D01*
X514159Y243824D01*
X514114Y243720D01*
X514071Y243615D01*
X514033Y243509D01*
X513898Y243224D01*
X513770Y242936D01*
X513649Y242646D01*
X513536Y242352D01*
X513429Y242056D01*
X513329Y241757D01*
X513236Y241456D01*
X513151Y241153D01*
X513073Y240848D01*
X513002Y240542D01*
X512939Y240233D01*
X512883Y239923D01*
X512834Y239612D01*
X512793Y239300D01*
X512759Y238987D01*
X512733Y238674D01*
X512714Y238359D01*
X512703Y238045D01*
X512699Y237730D01*
X521589Y237730D02*
X521585Y237415D01*
X521574Y237101D01*
X521555Y236786D01*
X521529Y236473D01*
X521495Y236160D01*
X521454Y235848D01*
X521405Y235537D01*
X521349Y235227D01*
X521286Y234918D01*
X521215Y234612D01*
X521137Y234307D01*
X521052Y234004D01*
X520959Y233703D01*
X520859Y233404D01*
X520752Y233108D01*
X520639Y232814D01*
X520518Y232524D01*
X520390Y232236D01*
X520255Y231951D01*
X520217Y231845D01*
X520174Y231740D01*
X520129Y231636D01*
X520079Y231534D01*
X520026Y231434D01*
X519970Y231335D01*
X519910Y231239D01*
X519847Y231145D01*
X519781Y231053D01*
X519712Y230963D01*
X519640Y230876D01*
X519564Y230791D01*
X519486Y230709D01*
X519405Y230630D01*
X519322Y230553D01*
X519235Y230480D01*
X519147Y230409D01*
X519056Y230342D01*
X518962Y230277D01*
X518867Y230216D01*
X518769Y230159D01*
X518670Y230104D01*
X518569Y230054D01*
X518466Y230006D01*
X518361Y229962D01*
X518255Y229922D01*
X518148Y229886D01*
X518039Y229853D01*
X517930Y229824D01*
X517819Y229799D01*
X517708Y229778D01*
X517596Y229760D01*
X517483Y229747D01*
X517370Y229737D01*
X517257Y229731D01*
X517144Y229729D01*
X514033Y231951D02*
X513898Y232236D01*
X513770Y232524D01*
X513649Y232814D01*
X513536Y233108D01*
X513429Y233404D01*
X513329Y233703D01*
X513236Y234004D01*
X513151Y234307D01*
X513073Y234612D01*
X513002Y234918D01*
X512939Y235227D01*
X512883Y235537D01*
X512834Y235848D01*
X512793Y236160D01*
X512759Y236473D01*
X512733Y236786D01*
X512714Y237101D01*
X512703Y237415D01*
X512699Y237730D01*
X514033Y231951D02*
X514071Y231845D01*
X514114Y231740D01*
X514159Y231636D01*
X514209Y231534D01*
X514262Y231434D01*
X514318Y231335D01*
X514378Y231239D01*
X514441Y231145D01*
X514507Y231053D01*
X514576Y230963D01*
X514648Y230876D01*
X514724Y230791D01*
X514802Y230709D01*
X514883Y230630D01*
X514966Y230553D01*
X515053Y230480D01*
X515141Y230409D01*
X515232Y230342D01*
X515326Y230277D01*
X515421Y230216D01*
X515519Y230159D01*
X515618Y230104D01*
X515719Y230054D01*
X515822Y230006D01*
X515927Y229962D01*
X516033Y229922D01*
X516140Y229886D01*
X516249Y229853D01*
X516358Y229824D01*
X516469Y229799D01*
X516580Y229778D01*
X516692Y229760D01*
X516805Y229747D01*
X516918Y229737D01*
X517031Y229731D01*
X517144Y229729D01*
X520700Y233285D02*
X513588Y242175D01*
D19*
X491010Y118665D02*
X494185Y116125D01*
X491010Y118665D02*
X491010Y107235D01*
X494185Y107235D02*
X487835Y107235D01*
X489185Y229475D02*
X486645Y238365D01*
X489185Y229475D02*
X482835Y229475D01*
X484740Y232015D02*
X484740Y226935D01*
X601825Y226935D02*
X605635Y226935D01*
X601825Y226935D02*
X601725Y226937D01*
X601626Y226943D01*
X601526Y226953D01*
X601428Y226966D01*
X601329Y226984D01*
X601232Y227005D01*
X601136Y227030D01*
X601040Y227059D01*
X600946Y227092D01*
X600853Y227128D01*
X600762Y227168D01*
X600672Y227212D01*
X600584Y227259D01*
X600498Y227309D01*
X600414Y227363D01*
X600332Y227420D01*
X600253Y227480D01*
X600175Y227544D01*
X600101Y227610D01*
X600029Y227679D01*
X599960Y227751D01*
X599894Y227825D01*
X599830Y227903D01*
X599770Y227982D01*
X599713Y228064D01*
X599659Y228148D01*
X599609Y228234D01*
X599562Y228322D01*
X599518Y228412D01*
X599478Y228503D01*
X599442Y228596D01*
X599409Y228690D01*
X599380Y228786D01*
X599355Y228882D01*
X599334Y228979D01*
X599316Y229078D01*
X599303Y229176D01*
X599293Y229276D01*
X599287Y229375D01*
X599285Y229475D01*
X599285Y230745D01*
X599287Y230845D01*
X599293Y230944D01*
X599303Y231044D01*
X599316Y231142D01*
X599334Y231241D01*
X599355Y231338D01*
X599380Y231434D01*
X599409Y231530D01*
X599442Y231624D01*
X599478Y231717D01*
X599518Y231808D01*
X599562Y231898D01*
X599609Y231986D01*
X599659Y232072D01*
X599713Y232156D01*
X599770Y232238D01*
X599830Y232317D01*
X599894Y232395D01*
X599960Y232469D01*
X600029Y232541D01*
X600101Y232610D01*
X600175Y232676D01*
X600253Y232740D01*
X600332Y232800D01*
X600414Y232857D01*
X600498Y232911D01*
X600584Y232961D01*
X600672Y233008D01*
X600762Y233052D01*
X600853Y233092D01*
X600946Y233128D01*
X601040Y233161D01*
X601136Y233190D01*
X601232Y233215D01*
X601329Y233236D01*
X601428Y233254D01*
X601526Y233267D01*
X601626Y233277D01*
X601725Y233283D01*
X601825Y233285D01*
X605635Y233285D01*
X605635Y238365D01*
X599285Y238365D01*
X595635Y110410D02*
X595633Y110521D01*
X595627Y110631D01*
X595618Y110742D01*
X595604Y110852D01*
X595587Y110961D01*
X595566Y111070D01*
X595541Y111178D01*
X595512Y111285D01*
X595480Y111391D01*
X595444Y111496D01*
X595404Y111599D01*
X595361Y111701D01*
X595314Y111802D01*
X595263Y111901D01*
X595210Y111998D01*
X595153Y112092D01*
X595092Y112185D01*
X595029Y112276D01*
X594962Y112365D01*
X594892Y112451D01*
X594819Y112534D01*
X594744Y112616D01*
X594666Y112694D01*
X594584Y112769D01*
X594501Y112842D01*
X594415Y112912D01*
X594326Y112979D01*
X594235Y113042D01*
X594142Y113103D01*
X594048Y113160D01*
X593951Y113213D01*
X593852Y113264D01*
X593751Y113311D01*
X593649Y113354D01*
X593546Y113394D01*
X593441Y113430D01*
X593335Y113462D01*
X593228Y113491D01*
X593120Y113516D01*
X593011Y113537D01*
X592902Y113554D01*
X592792Y113568D01*
X592681Y113577D01*
X592571Y113583D01*
X592460Y113585D01*
X592349Y113583D01*
X592239Y113577D01*
X592128Y113568D01*
X592018Y113554D01*
X591909Y113537D01*
X591800Y113516D01*
X591692Y113491D01*
X591585Y113462D01*
X591479Y113430D01*
X591374Y113394D01*
X591271Y113354D01*
X591169Y113311D01*
X591068Y113264D01*
X590969Y113213D01*
X590873Y113160D01*
X590778Y113103D01*
X590685Y113042D01*
X590594Y112979D01*
X590505Y112912D01*
X590419Y112842D01*
X590336Y112769D01*
X590254Y112694D01*
X590176Y112616D01*
X590101Y112534D01*
X590028Y112451D01*
X589958Y112365D01*
X589891Y112276D01*
X589828Y112185D01*
X589767Y112092D01*
X589710Y111997D01*
X589657Y111901D01*
X589606Y111802D01*
X589559Y111701D01*
X589516Y111599D01*
X589476Y111496D01*
X589440Y111391D01*
X589408Y111285D01*
X589379Y111178D01*
X589354Y111070D01*
X589333Y110961D01*
X589316Y110852D01*
X589302Y110742D01*
X589293Y110631D01*
X589287Y110521D01*
X589285Y110410D01*
X589287Y110299D01*
X589293Y110189D01*
X589302Y110078D01*
X589316Y109968D01*
X589333Y109859D01*
X589354Y109750D01*
X589379Y109642D01*
X589408Y109535D01*
X589440Y109429D01*
X589476Y109324D01*
X589516Y109221D01*
X589559Y109119D01*
X589606Y109018D01*
X589657Y108919D01*
X589710Y108823D01*
X589767Y108728D01*
X589828Y108635D01*
X589891Y108544D01*
X589958Y108455D01*
X590028Y108369D01*
X590101Y108286D01*
X590176Y108204D01*
X590254Y108126D01*
X590336Y108051D01*
X590419Y107978D01*
X590505Y107908D01*
X590594Y107841D01*
X590685Y107778D01*
X590778Y107717D01*
X590873Y107660D01*
X590969Y107607D01*
X591068Y107556D01*
X591169Y107509D01*
X591271Y107466D01*
X591374Y107426D01*
X591479Y107390D01*
X591585Y107358D01*
X591692Y107329D01*
X591800Y107304D01*
X591909Y107283D01*
X592018Y107266D01*
X592128Y107252D01*
X592239Y107243D01*
X592349Y107237D01*
X592460Y107235D01*
X592571Y107237D01*
X592681Y107243D01*
X592792Y107252D01*
X592902Y107266D01*
X593011Y107283D01*
X593120Y107304D01*
X593228Y107329D01*
X593335Y107358D01*
X593441Y107390D01*
X593546Y107426D01*
X593649Y107466D01*
X593751Y107509D01*
X593852Y107556D01*
X593951Y107607D01*
X594048Y107660D01*
X594142Y107717D01*
X594235Y107778D01*
X594326Y107841D01*
X594415Y107908D01*
X594501Y107978D01*
X594584Y108051D01*
X594666Y108126D01*
X594744Y108204D01*
X594819Y108286D01*
X594892Y108369D01*
X594962Y108455D01*
X595029Y108544D01*
X595092Y108635D01*
X595153Y108728D01*
X595210Y108822D01*
X595263Y108919D01*
X595314Y109018D01*
X595361Y109119D01*
X595404Y109221D01*
X595444Y109324D01*
X595480Y109429D01*
X595512Y109535D01*
X595541Y109642D01*
X595566Y109750D01*
X595587Y109859D01*
X595604Y109968D01*
X595618Y110078D01*
X595627Y110189D01*
X595633Y110299D01*
X595635Y110410D01*
X595000Y116125D02*
X594998Y116225D01*
X594992Y116324D01*
X594982Y116424D01*
X594969Y116522D01*
X594951Y116621D01*
X594930Y116718D01*
X594905Y116814D01*
X594876Y116910D01*
X594843Y117004D01*
X594807Y117097D01*
X594767Y117188D01*
X594723Y117278D01*
X594676Y117366D01*
X594626Y117452D01*
X594572Y117536D01*
X594515Y117618D01*
X594455Y117697D01*
X594391Y117775D01*
X594325Y117849D01*
X594256Y117921D01*
X594184Y117990D01*
X594110Y118056D01*
X594032Y118120D01*
X593953Y118180D01*
X593871Y118237D01*
X593787Y118291D01*
X593701Y118341D01*
X593613Y118388D01*
X593523Y118432D01*
X593432Y118472D01*
X593339Y118508D01*
X593245Y118541D01*
X593149Y118570D01*
X593053Y118595D01*
X592956Y118616D01*
X592857Y118634D01*
X592759Y118647D01*
X592659Y118657D01*
X592560Y118663D01*
X592460Y118665D01*
X592360Y118663D01*
X592261Y118657D01*
X592161Y118647D01*
X592063Y118634D01*
X591964Y118616D01*
X591867Y118595D01*
X591771Y118570D01*
X591675Y118541D01*
X591581Y118508D01*
X591488Y118472D01*
X591397Y118432D01*
X591307Y118388D01*
X591219Y118341D01*
X591133Y118291D01*
X591049Y118237D01*
X590967Y118180D01*
X590888Y118120D01*
X590810Y118056D01*
X590736Y117990D01*
X590664Y117921D01*
X590595Y117849D01*
X590529Y117775D01*
X590465Y117697D01*
X590405Y117618D01*
X590348Y117536D01*
X590294Y117452D01*
X590244Y117366D01*
X590197Y117278D01*
X590153Y117188D01*
X590113Y117097D01*
X590077Y117004D01*
X590044Y116910D01*
X590015Y116814D01*
X589990Y116718D01*
X589969Y116621D01*
X589951Y116522D01*
X589938Y116424D01*
X589928Y116324D01*
X589922Y116225D01*
X589920Y116125D01*
X589922Y116025D01*
X589928Y115926D01*
X589938Y115826D01*
X589951Y115728D01*
X589969Y115629D01*
X589990Y115532D01*
X590015Y115436D01*
X590044Y115340D01*
X590077Y115246D01*
X590113Y115153D01*
X590153Y115062D01*
X590197Y114972D01*
X590244Y114884D01*
X590294Y114798D01*
X590348Y114714D01*
X590405Y114632D01*
X590465Y114553D01*
X590529Y114475D01*
X590595Y114401D01*
X590664Y114329D01*
X590736Y114260D01*
X590810Y114194D01*
X590888Y114130D01*
X590967Y114070D01*
X591049Y114013D01*
X591133Y113959D01*
X591219Y113909D01*
X591307Y113862D01*
X591397Y113818D01*
X591488Y113778D01*
X591581Y113742D01*
X591675Y113709D01*
X591771Y113680D01*
X591867Y113655D01*
X591964Y113634D01*
X592063Y113616D01*
X592161Y113603D01*
X592261Y113593D01*
X592360Y113587D01*
X592460Y113585D01*
X592560Y113587D01*
X592659Y113593D01*
X592759Y113603D01*
X592857Y113616D01*
X592956Y113634D01*
X593053Y113655D01*
X593149Y113680D01*
X593245Y113709D01*
X593339Y113742D01*
X593432Y113778D01*
X593523Y113818D01*
X593613Y113862D01*
X593701Y113909D01*
X593787Y113959D01*
X593871Y114013D01*
X593953Y114070D01*
X594032Y114130D01*
X594110Y114194D01*
X594184Y114260D01*
X594256Y114329D01*
X594325Y114401D01*
X594391Y114475D01*
X594455Y114553D01*
X594515Y114632D01*
X594572Y114714D01*
X594626Y114798D01*
X594676Y114884D01*
X594723Y114972D01*
X594767Y115062D01*
X594807Y115153D01*
X594843Y115246D01*
X594876Y115340D01*
X594905Y115436D01*
X594930Y115532D01*
X594951Y115629D01*
X594969Y115728D01*
X594982Y115826D01*
X594992Y115926D01*
X594998Y116025D01*
X595000Y116125D01*
D21*
X523875Y177800D03*
D22*
X568325Y176530D03*
D19*
X440150Y252000D02*
X440083Y252858D01*
X440036Y253718D01*
X440011Y254578D01*
X440007Y255439D01*
X440024Y256299D01*
X440062Y257159D01*
X440121Y258018D01*
X440202Y258875D01*
X440303Y259729D01*
X440425Y260581D01*
X440568Y261430D01*
X440732Y262275D01*
X440917Y263116D01*
X441122Y263951D01*
X441348Y264782D01*
X441594Y265607D01*
X441860Y266425D01*
X442146Y267237D01*
X442452Y268042D01*
X442777Y268838D01*
X443122Y269627D01*
X443487Y270407D01*
X443870Y271177D01*
X444272Y271938D01*
X444693Y272689D01*
X445132Y273430D01*
X445589Y274159D01*
X446063Y274877D01*
X446556Y275583D01*
X447065Y276277D01*
X447591Y276958D01*
X448134Y277626D01*
X448693Y278280D01*
X449268Y278921D01*
X449859Y279547D01*
X450465Y280158D01*
X451085Y280755D01*
X451720Y281336D01*
X452369Y281901D01*
X453032Y282450D01*
X453708Y282983D01*
X454397Y283499D01*
X455098Y283998D01*
X455811Y284479D01*
X456536Y284943D01*
X457272Y285389D01*
X458019Y285817D01*
X458776Y286226D01*
X459543Y286617D01*
X460320Y286989D01*
X461105Y287341D01*
X461899Y287674D01*
X462700Y287988D01*
X463509Y288282D01*
X464325Y288556D01*
X465147Y288809D01*
X465976Y289043D01*
X466810Y289256D01*
X467649Y289449D01*
X468492Y289621D01*
X469339Y289772D01*
X470190Y289902D01*
X471044Y290012D01*
X471900Y290100D01*
X620300Y290100D01*
X621143Y290013D01*
X621984Y289906D01*
X622821Y289778D01*
X623656Y289631D01*
X624487Y289463D01*
X625313Y289275D01*
X626135Y289067D01*
X626951Y288839D01*
X627761Y288592D01*
X628566Y288325D01*
X629364Y288039D01*
X630154Y287734D01*
X630937Y287410D01*
X631712Y287066D01*
X632478Y286705D01*
X633236Y286324D01*
X633984Y285926D01*
X634722Y285510D01*
X635450Y285076D01*
X636167Y284624D01*
X636873Y284155D01*
X637567Y283670D01*
X638250Y283167D01*
X638920Y282649D01*
X639578Y282114D01*
X640222Y281564D01*
X640853Y280998D01*
X641470Y280417D01*
X642073Y279821D01*
X642661Y279211D01*
X643234Y278587D01*
X643793Y277950D01*
X644335Y277298D01*
X644862Y276635D01*
X645372Y275958D01*
X645866Y275269D01*
X646343Y274569D01*
X646803Y273857D01*
X647246Y273135D01*
X647671Y272402D01*
X648079Y271659D01*
X648468Y270906D01*
X648839Y270144D01*
X649191Y269373D01*
X649525Y268594D01*
X649840Y267807D01*
X650136Y267013D01*
X650412Y266212D01*
X650669Y265404D01*
X650906Y264591D01*
X651124Y263772D01*
X651322Y262948D01*
X651500Y262119D01*
X651657Y261287D01*
X651795Y260450D01*
X651912Y259611D01*
X652009Y258769D01*
X652086Y257925D01*
X652142Y257080D01*
X652178Y256233D01*
X652193Y255386D01*
X652188Y254538D01*
X652163Y253691D01*
X652117Y252845D01*
X652050Y252000D01*
X652050Y90900D01*
X652043Y90286D01*
X652020Y89673D01*
X651983Y89060D01*
X651931Y88449D01*
X651865Y87838D01*
X651783Y87230D01*
X651687Y86624D01*
X651577Y86020D01*
X651452Y85419D01*
X651312Y84821D01*
X651158Y84227D01*
X650989Y83637D01*
X650807Y83051D01*
X650610Y82470D01*
X650399Y81893D01*
X650175Y81322D01*
X649937Y80756D01*
X649685Y80196D01*
X649419Y79643D01*
X649141Y79096D01*
X648849Y78556D01*
X648544Y78023D01*
X648226Y77498D01*
X647896Y76980D01*
X647554Y76471D01*
X647199Y75970D01*
X646832Y75478D01*
X646454Y74995D01*
X646064Y74521D01*
X645662Y74057D01*
X645250Y73602D01*
X644826Y73158D01*
X644392Y72724D01*
X643948Y72300D01*
X643493Y71888D01*
X643029Y71486D01*
X642555Y71096D01*
X642072Y70718D01*
X641580Y70351D01*
X641079Y69996D01*
X640570Y69654D01*
X640052Y69324D01*
X639527Y69006D01*
X638994Y68701D01*
X638454Y68409D01*
X637907Y68131D01*
X637354Y67865D01*
X636794Y67613D01*
X636228Y67375D01*
X635657Y67151D01*
X635080Y66940D01*
X634499Y66743D01*
X633913Y66561D01*
X633323Y66392D01*
X632729Y66238D01*
X632131Y66098D01*
X631530Y65973D01*
X630926Y65863D01*
X630320Y65767D01*
X629712Y65685D01*
X629101Y65619D01*
X628490Y65567D01*
X627877Y65530D01*
X627264Y65507D01*
X626650Y65500D01*
X465550Y65500D01*
X465012Y65429D01*
X464473Y65372D01*
X463932Y65328D01*
X463390Y65297D01*
X462848Y65279D01*
X462305Y65274D01*
X461763Y65282D01*
X461221Y65304D01*
X460679Y65338D01*
X460139Y65386D01*
X459600Y65446D01*
X459062Y65520D01*
X458527Y65606D01*
X457993Y65706D01*
X457463Y65818D01*
X456935Y65943D01*
X456410Y66081D01*
X455889Y66231D01*
X455371Y66394D01*
X454858Y66570D01*
X454349Y66758D01*
X453844Y66958D01*
X453345Y67170D01*
X452851Y67394D01*
X452363Y67630D01*
X451880Y67878D01*
X451403Y68137D01*
X450933Y68408D01*
X450470Y68690D01*
X450013Y68984D01*
X449564Y69288D01*
X449122Y69603D01*
X448688Y69928D01*
X448262Y70264D01*
X447845Y70610D01*
X447435Y70966D01*
X447035Y71332D01*
X446643Y71708D01*
X446261Y72093D01*
X445888Y72487D01*
X445524Y72889D01*
X445171Y73301D01*
X444827Y73721D01*
X444494Y74149D01*
X444171Y74585D01*
X443859Y75029D01*
X443557Y75480D01*
X443267Y75938D01*
X442988Y76403D01*
X442720Y76875D01*
X442463Y77353D01*
X442219Y77837D01*
X441986Y78327D01*
X441764Y78823D01*
X441555Y79323D01*
X441358Y79829D01*
X441174Y80339D01*
X441001Y80853D01*
X440842Y81372D01*
X440694Y81894D01*
X440560Y82420D01*
X440438Y82948D01*
X440329Y83480D01*
X440233Y84014D01*
X440150Y84550D01*
X440150Y252000D01*
X469900Y228600D02*
X469900Y127000D01*
X469900Y228600D02*
X469907Y229214D01*
X469930Y229827D01*
X469967Y230440D01*
X470019Y231051D01*
X470085Y231662D01*
X470167Y232270D01*
X470263Y232876D01*
X470373Y233480D01*
X470498Y234081D01*
X470638Y234679D01*
X470792Y235273D01*
X470961Y235863D01*
X471143Y236449D01*
X471340Y237030D01*
X471551Y237607D01*
X471775Y238178D01*
X472013Y238744D01*
X472265Y239304D01*
X472531Y239857D01*
X472809Y240404D01*
X473101Y240944D01*
X473406Y241477D01*
X473724Y242002D01*
X474054Y242520D01*
X474396Y243029D01*
X474751Y243530D01*
X475118Y244022D01*
X475496Y244505D01*
X475886Y244979D01*
X476288Y245443D01*
X476700Y245898D01*
X477124Y246342D01*
X477558Y246776D01*
X478002Y247200D01*
X478457Y247612D01*
X478921Y248014D01*
X479395Y248404D01*
X479878Y248782D01*
X480370Y249149D01*
X480871Y249504D01*
X481380Y249846D01*
X481898Y250176D01*
X482423Y250494D01*
X482956Y250799D01*
X483496Y251091D01*
X484043Y251369D01*
X484596Y251635D01*
X485156Y251887D01*
X485722Y252125D01*
X486293Y252349D01*
X486870Y252560D01*
X487451Y252757D01*
X488037Y252939D01*
X488627Y253108D01*
X489221Y253262D01*
X489819Y253402D01*
X490420Y253527D01*
X491024Y253637D01*
X491630Y253733D01*
X492238Y253815D01*
X492849Y253881D01*
X493460Y253933D01*
X494073Y253970D01*
X494686Y253993D01*
X495300Y254000D01*
X596900Y254000D01*
X597514Y253993D01*
X598127Y253970D01*
X598740Y253933D01*
X599351Y253881D01*
X599962Y253815D01*
X600570Y253733D01*
X601176Y253637D01*
X601780Y253527D01*
X602381Y253402D01*
X602979Y253262D01*
X603573Y253108D01*
X604163Y252939D01*
X604749Y252757D01*
X605330Y252560D01*
X605907Y252349D01*
X606478Y252125D01*
X607044Y251887D01*
X607604Y251635D01*
X608157Y251369D01*
X608704Y251091D01*
X609244Y250799D01*
X609777Y250494D01*
X610302Y250176D01*
X610820Y249846D01*
X611329Y249504D01*
X611830Y249149D01*
X612322Y248782D01*
X612805Y248404D01*
X613279Y248014D01*
X613743Y247612D01*
X614198Y247200D01*
X614642Y246776D01*
X615076Y246342D01*
X615500Y245898D01*
X615912Y245443D01*
X616314Y244979D01*
X616704Y244505D01*
X617082Y244022D01*
X617449Y243530D01*
X617804Y243029D01*
X618146Y242520D01*
X618476Y242002D01*
X618794Y241477D01*
X619099Y240944D01*
X619391Y240404D01*
X619669Y239857D01*
X619935Y239304D01*
X620187Y238744D01*
X620425Y238178D01*
X620649Y237607D01*
X620860Y237030D01*
X621057Y236449D01*
X621239Y235863D01*
X621408Y235273D01*
X621562Y234679D01*
X621702Y234081D01*
X621827Y233480D01*
X621937Y232876D01*
X622033Y232270D01*
X622115Y231662D01*
X622181Y231051D01*
X622233Y230440D01*
X622270Y229827D01*
X622293Y229214D01*
X622300Y228600D01*
X622300Y127000D01*
X622293Y126386D01*
X622270Y125773D01*
X622233Y125160D01*
X622181Y124549D01*
X622115Y123938D01*
X622033Y123330D01*
X621937Y122724D01*
X621827Y122120D01*
X621702Y121519D01*
X621562Y120921D01*
X621408Y120327D01*
X621239Y119737D01*
X621057Y119151D01*
X620860Y118570D01*
X620649Y117993D01*
X620425Y117422D01*
X620187Y116856D01*
X619935Y116296D01*
X619669Y115743D01*
X619391Y115196D01*
X619099Y114656D01*
X618794Y114123D01*
X618476Y113598D01*
X618146Y113080D01*
X617804Y112571D01*
X617449Y112070D01*
X617082Y111578D01*
X616704Y111095D01*
X616314Y110621D01*
X615912Y110157D01*
X615500Y109702D01*
X615076Y109258D01*
X614642Y108824D01*
X614198Y108400D01*
X613743Y107988D01*
X613279Y107586D01*
X612805Y107196D01*
X612322Y106818D01*
X611830Y106451D01*
X611329Y106096D01*
X610820Y105754D01*
X610302Y105424D01*
X609777Y105106D01*
X609244Y104801D01*
X608704Y104509D01*
X608157Y104231D01*
X607604Y103965D01*
X607044Y103713D01*
X606478Y103475D01*
X605907Y103251D01*
X605330Y103040D01*
X604749Y102843D01*
X604163Y102661D01*
X603573Y102492D01*
X602979Y102338D01*
X602381Y102198D01*
X601780Y102073D01*
X601176Y101963D01*
X600570Y101867D01*
X599962Y101785D01*
X599351Y101719D01*
X598740Y101667D01*
X598127Y101630D01*
X597514Y101607D01*
X596900Y101600D01*
X495300Y101600D01*
X494686Y101607D01*
X494073Y101630D01*
X493460Y101667D01*
X492849Y101719D01*
X492238Y101785D01*
X491630Y101867D01*
X491024Y101963D01*
X490420Y102073D01*
X489819Y102198D01*
X489221Y102338D01*
X488627Y102492D01*
X488037Y102661D01*
X487451Y102843D01*
X486870Y103040D01*
X486293Y103251D01*
X485722Y103475D01*
X485156Y103713D01*
X484596Y103965D01*
X484043Y104231D01*
X483496Y104509D01*
X482956Y104801D01*
X482423Y105106D01*
X481898Y105424D01*
X481380Y105754D01*
X480871Y106096D01*
X480370Y106451D01*
X479878Y106818D01*
X479395Y107196D01*
X478921Y107586D01*
X478457Y107988D01*
X478002Y108400D01*
X477558Y108824D01*
X477124Y109258D01*
X476700Y109702D01*
X476288Y110157D01*
X475886Y110621D01*
X475496Y111095D01*
X475118Y111578D01*
X474751Y112070D01*
X474396Y112571D01*
X474054Y113080D01*
X473724Y113598D01*
X473406Y114123D01*
X473101Y114656D01*
X472809Y115196D01*
X472531Y115743D01*
X472265Y116296D01*
X472013Y116856D01*
X471775Y117422D01*
X471551Y117993D01*
X471340Y118570D01*
X471143Y119151D01*
X470961Y119737D01*
X470792Y120327D01*
X470638Y120921D01*
X470498Y121519D01*
X470373Y122120D01*
X470263Y122724D01*
X470167Y123330D01*
X470085Y123938D01*
X470019Y124549D01*
X469967Y125160D01*
X469930Y125773D01*
X469907Y126386D01*
X469900Y127000D01*
X617900Y290250D02*
X662200Y290250D01*
X662399Y290254D01*
X662599Y290253D01*
X662798Y290247D01*
X662997Y290236D01*
X663196Y290220D01*
X663395Y290200D01*
X663593Y290175D01*
X663790Y290145D01*
X663986Y290110D01*
X664182Y290070D01*
X664376Y290026D01*
X664570Y289977D01*
X664762Y289924D01*
X664952Y289866D01*
X665142Y289803D01*
X665330Y289735D01*
X665516Y289664D01*
X665700Y289587D01*
X665882Y289507D01*
X666063Y289421D01*
X666241Y289332D01*
X666417Y289238D01*
X666591Y289140D01*
X666762Y289038D01*
X666931Y288932D01*
X667097Y288822D01*
X667261Y288707D01*
X667421Y288589D01*
X667579Y288467D01*
X667734Y288341D01*
X667885Y288212D01*
X668034Y288078D01*
X668179Y287942D01*
X668321Y287802D01*
X668460Y287658D01*
X668595Y287511D01*
X668726Y287361D01*
X668854Y287208D01*
X668978Y287052D01*
X669098Y286892D01*
X669214Y286730D01*
X669326Y286566D01*
X669435Y286398D01*
X669539Y286228D01*
X669639Y286055D01*
X669735Y285881D01*
X669827Y285703D01*
X669914Y285524D01*
X669997Y285343D01*
X670075Y285159D01*
X670150Y284974D01*
X670219Y284787D01*
X670284Y284599D01*
X670345Y284409D01*
X670401Y284217D01*
X670452Y284024D01*
X670498Y283830D01*
X670540Y283635D01*
X670578Y283439D01*
X670610Y283243D01*
X670638Y283045D01*
X670660Y282847D01*
X670678Y282648D01*
X670692Y282449D01*
X670700Y282250D01*
X670700Y241450D01*
X658350Y241450D01*
X658192Y241452D01*
X658033Y241458D01*
X657875Y241468D01*
X657718Y241482D01*
X657560Y241499D01*
X657404Y241521D01*
X657247Y241546D01*
X657092Y241576D01*
X656937Y241609D01*
X656783Y241646D01*
X656630Y241687D01*
X656478Y241732D01*
X656328Y241781D01*
X656178Y241833D01*
X656030Y241889D01*
X655883Y241949D01*
X655738Y242012D01*
X655595Y242079D01*
X655453Y242149D01*
X655313Y242223D01*
X655175Y242301D01*
X655039Y242382D01*
X654905Y242466D01*
X654773Y242553D01*
X654643Y242644D01*
X654516Y242738D01*
X654391Y242835D01*
X654268Y242936D01*
X654148Y243039D01*
X654031Y243145D01*
X653916Y243254D01*
X653804Y243366D01*
X653695Y243481D01*
X653589Y243598D01*
X653486Y243718D01*
X653385Y243841D01*
X653288Y243966D01*
X653194Y244093D01*
X653103Y244223D01*
X653016Y244355D01*
X652932Y244489D01*
X652851Y244625D01*
X652773Y244763D01*
X652699Y244903D01*
X652629Y245045D01*
X652562Y245188D01*
X652499Y245333D01*
X652439Y245480D01*
X652383Y245628D01*
X652331Y245778D01*
X652282Y245928D01*
X652237Y246080D01*
X652196Y246233D01*
X652159Y246387D01*
X652126Y246542D01*
X652096Y246697D01*
X652071Y246854D01*
X652049Y247010D01*
X652032Y247168D01*
X652018Y247325D01*
X652008Y247483D01*
X652002Y247642D01*
X652000Y247800D01*
X474300Y65350D02*
X430000Y65350D01*
X429801Y65346D01*
X429601Y65347D01*
X429402Y65353D01*
X429203Y65364D01*
X429004Y65380D01*
X428805Y65400D01*
X428607Y65425D01*
X428410Y65455D01*
X428214Y65490D01*
X428018Y65530D01*
X427824Y65574D01*
X427630Y65623D01*
X427438Y65676D01*
X427248Y65734D01*
X427058Y65797D01*
X426870Y65865D01*
X426684Y65936D01*
X426500Y66013D01*
X426318Y66093D01*
X426137Y66179D01*
X425959Y66268D01*
X425783Y66362D01*
X425609Y66460D01*
X425438Y66562D01*
X425269Y66668D01*
X425103Y66778D01*
X424939Y66893D01*
X424779Y67011D01*
X424621Y67133D01*
X424466Y67259D01*
X424315Y67388D01*
X424166Y67522D01*
X424021Y67658D01*
X423879Y67798D01*
X423740Y67942D01*
X423605Y68089D01*
X423474Y68239D01*
X423346Y68392D01*
X423222Y68548D01*
X423102Y68708D01*
X422986Y68870D01*
X422874Y69034D01*
X422765Y69202D01*
X422661Y69372D01*
X422561Y69545D01*
X422465Y69719D01*
X422373Y69897D01*
X422286Y70076D01*
X422203Y70257D01*
X422125Y70441D01*
X422050Y70626D01*
X421981Y70813D01*
X421916Y71001D01*
X421855Y71191D01*
X421799Y71383D01*
X421748Y71576D01*
X421702Y71770D01*
X421660Y71965D01*
X421622Y72161D01*
X421590Y72357D01*
X421562Y72555D01*
X421540Y72753D01*
X421522Y72952D01*
X421508Y73151D01*
X421500Y73350D01*
X421500Y114150D01*
X433850Y114150D01*
X434008Y114148D01*
X434167Y114142D01*
X434325Y114132D01*
X434482Y114118D01*
X434640Y114101D01*
X434796Y114079D01*
X434953Y114054D01*
X435108Y114024D01*
X435263Y113991D01*
X435417Y113954D01*
X435570Y113913D01*
X435722Y113868D01*
X435872Y113819D01*
X436022Y113767D01*
X436170Y113711D01*
X436317Y113651D01*
X436462Y113588D01*
X436605Y113521D01*
X436747Y113451D01*
X436887Y113377D01*
X437025Y113299D01*
X437161Y113218D01*
X437295Y113134D01*
X437427Y113047D01*
X437557Y112956D01*
X437684Y112862D01*
X437809Y112765D01*
X437932Y112664D01*
X438052Y112561D01*
X438169Y112455D01*
X438284Y112346D01*
X438396Y112234D01*
X438505Y112119D01*
X438611Y112002D01*
X438714Y111882D01*
X438815Y111759D01*
X438912Y111634D01*
X439006Y111507D01*
X439097Y111377D01*
X439184Y111245D01*
X439268Y111111D01*
X439349Y110975D01*
X439427Y110837D01*
X439501Y110697D01*
X439571Y110555D01*
X439638Y110412D01*
X439701Y110267D01*
X439761Y110120D01*
X439817Y109972D01*
X439869Y109822D01*
X439918Y109672D01*
X439963Y109520D01*
X440004Y109367D01*
X440041Y109213D01*
X440074Y109058D01*
X440104Y108903D01*
X440129Y108746D01*
X440151Y108590D01*
X440168Y108432D01*
X440182Y108275D01*
X440192Y108117D01*
X440198Y107958D01*
X440200Y107800D01*
D11*
X701096Y121158D02*
X701096Y132842D01*
X697851Y132842D02*
X704342Y132842D01*
X693270Y132842D02*
X693270Y121158D01*
X688078Y121158D01*
X683768Y130246D02*
X680523Y132842D01*
X680523Y121158D01*
X683768Y121158D02*
X677277Y121158D01*
M02*
