G04 EAGLE Gerber X2 export*
%TF.Part,Single*%
%TF.FileFunction,Legend,Top,1*%
%TF.FilePolarity,Positive*%
%TF.GenerationSoftware,Autodesk,EAGLE,8.6.0*%
%TF.CreationDate,2018-01-28T12:09:13Z*%
G75*
%MOMM*%
%FSLAX34Y34*%
%LPD*%
%AMOC8*
5,1,8,0,0,1.08239X$1,22.5*%
G01*
%ADD10C,0.152400*%
%ADD11C,0.304800*%
%ADD12C,0.127000*%
%ADD13R,2.540000X0.508000*%
%ADD14R,0.635000X3.556000*%
%ADD15R,1.397000X0.762000*%
%ADD16C,0.609600*%
%ADD17C,1.270000*%
%ADD18C,0.254000*%
%ADD19C,0.101600*%


D10*
X523240Y322580D02*
X523100Y322578D01*
X522960Y322572D01*
X522820Y322563D01*
X522681Y322549D01*
X522542Y322532D01*
X522404Y322511D01*
X522266Y322486D01*
X522129Y322457D01*
X521993Y322425D01*
X521858Y322388D01*
X521724Y322348D01*
X521591Y322305D01*
X521459Y322257D01*
X521328Y322207D01*
X521199Y322152D01*
X521072Y322094D01*
X520946Y322033D01*
X520822Y321968D01*
X520700Y321899D01*
X520580Y321828D01*
X520462Y321753D01*
X520345Y321675D01*
X520231Y321593D01*
X520120Y321509D01*
X520011Y321421D01*
X519904Y321331D01*
X519799Y321237D01*
X519698Y321141D01*
X519599Y321042D01*
X519503Y320941D01*
X519409Y320836D01*
X519319Y320729D01*
X519231Y320620D01*
X519147Y320509D01*
X519065Y320395D01*
X518987Y320278D01*
X518912Y320160D01*
X518841Y320040D01*
X518772Y319918D01*
X518707Y319794D01*
X518646Y319668D01*
X518588Y319541D01*
X518533Y319412D01*
X518483Y319281D01*
X518435Y319149D01*
X518392Y319016D01*
X518352Y318882D01*
X518315Y318747D01*
X518283Y318611D01*
X518254Y318474D01*
X518229Y318336D01*
X518208Y318198D01*
X518191Y318059D01*
X518177Y317920D01*
X518168Y317780D01*
X518162Y317640D01*
X518160Y317500D01*
X518160Y304800D02*
X518162Y304660D01*
X518168Y304520D01*
X518177Y304380D01*
X518191Y304241D01*
X518208Y304102D01*
X518229Y303964D01*
X518254Y303826D01*
X518283Y303689D01*
X518315Y303553D01*
X518352Y303418D01*
X518392Y303284D01*
X518435Y303151D01*
X518483Y303019D01*
X518533Y302888D01*
X518588Y302759D01*
X518646Y302632D01*
X518707Y302506D01*
X518772Y302382D01*
X518841Y302260D01*
X518912Y302140D01*
X518987Y302022D01*
X519065Y301905D01*
X519147Y301791D01*
X519231Y301680D01*
X519319Y301571D01*
X519409Y301464D01*
X519503Y301359D01*
X519599Y301258D01*
X519698Y301159D01*
X519799Y301063D01*
X519904Y300969D01*
X520011Y300879D01*
X520120Y300791D01*
X520231Y300707D01*
X520345Y300625D01*
X520462Y300547D01*
X520580Y300472D01*
X520700Y300401D01*
X520822Y300332D01*
X520946Y300267D01*
X521072Y300206D01*
X521199Y300148D01*
X521328Y300093D01*
X521459Y300043D01*
X521591Y299995D01*
X521724Y299952D01*
X521858Y299912D01*
X521993Y299875D01*
X522129Y299843D01*
X522266Y299814D01*
X522404Y299789D01*
X522542Y299768D01*
X522681Y299751D01*
X522820Y299737D01*
X522960Y299728D01*
X523100Y299722D01*
X523240Y299720D01*
X523240Y322580D02*
X556260Y322580D01*
X556260Y299720D02*
X523240Y299720D01*
X556260Y322580D02*
X556400Y322578D01*
X556540Y322572D01*
X556680Y322563D01*
X556819Y322549D01*
X556958Y322532D01*
X557096Y322511D01*
X557234Y322486D01*
X557371Y322457D01*
X557507Y322425D01*
X557642Y322388D01*
X557776Y322348D01*
X557909Y322305D01*
X558041Y322257D01*
X558172Y322207D01*
X558301Y322152D01*
X558428Y322094D01*
X558554Y322033D01*
X558678Y321968D01*
X558800Y321899D01*
X558920Y321828D01*
X559038Y321753D01*
X559155Y321675D01*
X559269Y321593D01*
X559380Y321509D01*
X559489Y321421D01*
X559596Y321331D01*
X559701Y321237D01*
X559802Y321141D01*
X559901Y321042D01*
X559997Y320941D01*
X560091Y320836D01*
X560181Y320729D01*
X560269Y320620D01*
X560353Y320509D01*
X560435Y320395D01*
X560513Y320278D01*
X560588Y320160D01*
X560659Y320040D01*
X560728Y319918D01*
X560793Y319794D01*
X560854Y319668D01*
X560912Y319541D01*
X560967Y319412D01*
X561017Y319281D01*
X561065Y319149D01*
X561108Y319016D01*
X561148Y318882D01*
X561185Y318747D01*
X561217Y318611D01*
X561246Y318474D01*
X561271Y318336D01*
X561292Y318198D01*
X561309Y318059D01*
X561323Y317920D01*
X561332Y317780D01*
X561338Y317640D01*
X561340Y317500D01*
X561340Y304800D02*
X561338Y304660D01*
X561332Y304520D01*
X561323Y304380D01*
X561309Y304241D01*
X561292Y304102D01*
X561271Y303964D01*
X561246Y303826D01*
X561217Y303689D01*
X561185Y303553D01*
X561148Y303418D01*
X561108Y303284D01*
X561065Y303151D01*
X561017Y303019D01*
X560967Y302888D01*
X560912Y302759D01*
X560854Y302632D01*
X560793Y302506D01*
X560728Y302382D01*
X560659Y302260D01*
X560588Y302140D01*
X560513Y302022D01*
X560435Y301905D01*
X560353Y301791D01*
X560269Y301680D01*
X560181Y301571D01*
X560091Y301464D01*
X559997Y301359D01*
X559901Y301258D01*
X559802Y301159D01*
X559701Y301063D01*
X559596Y300969D01*
X559489Y300879D01*
X559380Y300791D01*
X559269Y300707D01*
X559155Y300625D01*
X559038Y300547D01*
X558920Y300472D01*
X558800Y300401D01*
X558678Y300332D01*
X558554Y300267D01*
X558428Y300206D01*
X558301Y300148D01*
X558172Y300093D01*
X558041Y300043D01*
X557909Y299995D01*
X557776Y299952D01*
X557642Y299912D01*
X557507Y299875D01*
X557371Y299843D01*
X557234Y299814D01*
X557096Y299789D01*
X556958Y299768D01*
X556819Y299751D01*
X556680Y299737D01*
X556540Y299728D01*
X556400Y299722D01*
X556260Y299720D01*
D11*
X536702Y311150D02*
X536702Y318770D01*
X536702Y311150D02*
X536702Y303530D01*
X543052Y311150D02*
X543052Y318770D01*
X543052Y311150D02*
X543052Y303530D01*
D10*
X543052Y311150D02*
X552450Y311150D01*
X536702Y311150D02*
X527050Y311150D01*
D12*
X523875Y325755D02*
X521335Y325755D01*
X521235Y325757D01*
X521136Y325763D01*
X521036Y325773D01*
X520938Y325786D01*
X520839Y325804D01*
X520742Y325825D01*
X520646Y325850D01*
X520550Y325879D01*
X520456Y325912D01*
X520363Y325948D01*
X520272Y325988D01*
X520182Y326032D01*
X520094Y326079D01*
X520008Y326129D01*
X519924Y326183D01*
X519842Y326240D01*
X519763Y326300D01*
X519685Y326364D01*
X519611Y326430D01*
X519539Y326499D01*
X519470Y326571D01*
X519404Y326645D01*
X519340Y326723D01*
X519280Y326802D01*
X519223Y326884D01*
X519169Y326968D01*
X519119Y327054D01*
X519072Y327142D01*
X519028Y327232D01*
X518988Y327323D01*
X518952Y327416D01*
X518919Y327510D01*
X518890Y327606D01*
X518865Y327702D01*
X518844Y327799D01*
X518826Y327898D01*
X518813Y327996D01*
X518803Y328096D01*
X518797Y328195D01*
X518795Y328295D01*
X518795Y334645D01*
X518797Y334745D01*
X518803Y334844D01*
X518813Y334944D01*
X518826Y335042D01*
X518844Y335141D01*
X518865Y335238D01*
X518890Y335334D01*
X518919Y335430D01*
X518952Y335524D01*
X518988Y335617D01*
X519028Y335708D01*
X519072Y335798D01*
X519119Y335886D01*
X519169Y335972D01*
X519223Y336056D01*
X519280Y336138D01*
X519340Y336217D01*
X519404Y336295D01*
X519470Y336369D01*
X519539Y336441D01*
X519611Y336510D01*
X519685Y336576D01*
X519763Y336640D01*
X519842Y336700D01*
X519924Y336757D01*
X520008Y336811D01*
X520094Y336861D01*
X520182Y336908D01*
X520272Y336952D01*
X520363Y336992D01*
X520456Y337028D01*
X520550Y337061D01*
X520646Y337090D01*
X520742Y337115D01*
X520839Y337136D01*
X520938Y337154D01*
X521036Y337167D01*
X521136Y337177D01*
X521235Y337183D01*
X521335Y337185D01*
X523875Y337185D01*
X528357Y325755D02*
X531532Y325755D01*
X531643Y325757D01*
X531753Y325763D01*
X531864Y325772D01*
X531974Y325786D01*
X532083Y325803D01*
X532192Y325824D01*
X532300Y325849D01*
X532407Y325878D01*
X532513Y325910D01*
X532618Y325946D01*
X532721Y325986D01*
X532823Y326029D01*
X532924Y326076D01*
X533023Y326127D01*
X533120Y326180D01*
X533214Y326237D01*
X533307Y326298D01*
X533398Y326361D01*
X533487Y326428D01*
X533573Y326498D01*
X533656Y326571D01*
X533738Y326646D01*
X533816Y326724D01*
X533891Y326806D01*
X533964Y326889D01*
X534034Y326975D01*
X534101Y327064D01*
X534164Y327155D01*
X534225Y327248D01*
X534282Y327342D01*
X534335Y327439D01*
X534386Y327538D01*
X534433Y327639D01*
X534476Y327741D01*
X534516Y327844D01*
X534552Y327949D01*
X534584Y328055D01*
X534613Y328162D01*
X534638Y328270D01*
X534659Y328379D01*
X534676Y328488D01*
X534690Y328598D01*
X534699Y328709D01*
X534705Y328819D01*
X534707Y328930D01*
X534705Y329041D01*
X534699Y329151D01*
X534690Y329262D01*
X534676Y329372D01*
X534659Y329481D01*
X534638Y329590D01*
X534613Y329698D01*
X534584Y329805D01*
X534552Y329911D01*
X534516Y330016D01*
X534476Y330119D01*
X534433Y330221D01*
X534386Y330322D01*
X534335Y330421D01*
X534282Y330517D01*
X534225Y330612D01*
X534164Y330705D01*
X534101Y330796D01*
X534034Y330885D01*
X533964Y330971D01*
X533891Y331054D01*
X533816Y331136D01*
X533738Y331214D01*
X533656Y331289D01*
X533573Y331362D01*
X533487Y331432D01*
X533398Y331499D01*
X533307Y331562D01*
X533214Y331623D01*
X533120Y331680D01*
X533023Y331733D01*
X532924Y331784D01*
X532823Y331831D01*
X532721Y331874D01*
X532618Y331914D01*
X532513Y331950D01*
X532407Y331982D01*
X532300Y332011D01*
X532192Y332036D01*
X532083Y332057D01*
X531974Y332074D01*
X531864Y332088D01*
X531753Y332097D01*
X531643Y332103D01*
X531532Y332105D01*
X532167Y337185D02*
X528357Y337185D01*
X532167Y337185D02*
X532267Y337183D01*
X532366Y337177D01*
X532466Y337167D01*
X532564Y337154D01*
X532663Y337136D01*
X532760Y337115D01*
X532856Y337090D01*
X532952Y337061D01*
X533046Y337028D01*
X533139Y336992D01*
X533230Y336952D01*
X533320Y336908D01*
X533408Y336861D01*
X533494Y336811D01*
X533578Y336757D01*
X533660Y336700D01*
X533739Y336640D01*
X533817Y336576D01*
X533891Y336510D01*
X533963Y336441D01*
X534032Y336369D01*
X534098Y336295D01*
X534162Y336217D01*
X534222Y336138D01*
X534279Y336056D01*
X534333Y335972D01*
X534383Y335886D01*
X534430Y335798D01*
X534474Y335708D01*
X534514Y335617D01*
X534550Y335524D01*
X534583Y335430D01*
X534612Y335334D01*
X534637Y335238D01*
X534658Y335141D01*
X534676Y335042D01*
X534689Y334944D01*
X534699Y334844D01*
X534705Y334745D01*
X534707Y334645D01*
X534705Y334545D01*
X534699Y334446D01*
X534689Y334346D01*
X534676Y334248D01*
X534658Y334149D01*
X534637Y334052D01*
X534612Y333956D01*
X534583Y333860D01*
X534550Y333766D01*
X534514Y333673D01*
X534474Y333582D01*
X534430Y333492D01*
X534383Y333404D01*
X534333Y333318D01*
X534279Y333234D01*
X534222Y333152D01*
X534162Y333073D01*
X534098Y332995D01*
X534032Y332921D01*
X533963Y332849D01*
X533891Y332780D01*
X533817Y332714D01*
X533739Y332650D01*
X533660Y332590D01*
X533578Y332533D01*
X533494Y332479D01*
X533408Y332429D01*
X533320Y332382D01*
X533230Y332338D01*
X533139Y332298D01*
X533046Y332262D01*
X532952Y332229D01*
X532856Y332200D01*
X532760Y332175D01*
X532663Y332154D01*
X532564Y332136D01*
X532466Y332123D01*
X532366Y332113D01*
X532267Y332107D01*
X532167Y332105D01*
X529627Y332105D01*
D10*
X685800Y189230D02*
X685800Y181610D01*
X681990Y185420D02*
X689610Y185420D01*
X685800Y175260D02*
X685800Y166370D01*
X685800Y152400D02*
X685800Y142240D01*
X651510Y158750D02*
X651520Y159592D01*
X651551Y160433D01*
X651603Y161273D01*
X651675Y162111D01*
X651768Y162947D01*
X651881Y163781D01*
X652015Y164612D01*
X652169Y165440D01*
X652343Y166263D01*
X652538Y167082D01*
X652752Y167896D01*
X652987Y168704D01*
X653241Y169506D01*
X653514Y170302D01*
X653808Y171091D01*
X654120Y171872D01*
X654452Y172646D01*
X654802Y173411D01*
X655171Y174167D01*
X655559Y174914D01*
X655965Y175651D01*
X656388Y176379D01*
X656830Y177095D01*
X657289Y177801D01*
X657765Y178494D01*
X658258Y179177D01*
X658768Y179846D01*
X659293Y180503D01*
X659835Y181147D01*
X660393Y181778D01*
X660966Y182394D01*
X661553Y182997D01*
X662156Y183584D01*
X662772Y184157D01*
X663403Y184715D01*
X664047Y185257D01*
X664704Y185782D01*
X665373Y186292D01*
X666056Y186785D01*
X666749Y187261D01*
X667455Y187720D01*
X668171Y188162D01*
X668899Y188585D01*
X669636Y188991D01*
X670383Y189379D01*
X671139Y189748D01*
X671904Y190098D01*
X672678Y190430D01*
X673459Y190742D01*
X674248Y191036D01*
X675044Y191309D01*
X675846Y191563D01*
X676654Y191798D01*
X677468Y192012D01*
X678287Y192207D01*
X679110Y192381D01*
X679938Y192535D01*
X680769Y192669D01*
X681603Y192782D01*
X682439Y192875D01*
X683277Y192947D01*
X684117Y192999D01*
X684958Y193030D01*
X685800Y193040D01*
X686642Y193030D01*
X687483Y192999D01*
X688323Y192947D01*
X689161Y192875D01*
X689997Y192782D01*
X690831Y192669D01*
X691662Y192535D01*
X692490Y192381D01*
X693313Y192207D01*
X694132Y192012D01*
X694946Y191798D01*
X695754Y191563D01*
X696556Y191309D01*
X697352Y191036D01*
X698141Y190742D01*
X698922Y190430D01*
X699696Y190098D01*
X700461Y189748D01*
X701217Y189379D01*
X701964Y188991D01*
X702701Y188585D01*
X703429Y188162D01*
X704145Y187720D01*
X704851Y187261D01*
X705544Y186785D01*
X706227Y186292D01*
X706896Y185782D01*
X707553Y185257D01*
X708197Y184715D01*
X708828Y184157D01*
X709444Y183584D01*
X710047Y182997D01*
X710634Y182394D01*
X711207Y181778D01*
X711765Y181147D01*
X712307Y180503D01*
X712832Y179846D01*
X713342Y179177D01*
X713835Y178494D01*
X714311Y177801D01*
X714770Y177095D01*
X715212Y176379D01*
X715635Y175651D01*
X716041Y174914D01*
X716429Y174167D01*
X716798Y173411D01*
X717148Y172646D01*
X717480Y171872D01*
X717792Y171091D01*
X718086Y170302D01*
X718359Y169506D01*
X718613Y168704D01*
X718848Y167896D01*
X719062Y167082D01*
X719257Y166263D01*
X719431Y165440D01*
X719585Y164612D01*
X719719Y163781D01*
X719832Y162947D01*
X719925Y162111D01*
X719997Y161273D01*
X720049Y160433D01*
X720080Y159592D01*
X720090Y158750D01*
X720080Y157908D01*
X720049Y157067D01*
X719997Y156227D01*
X719925Y155389D01*
X719832Y154553D01*
X719719Y153719D01*
X719585Y152888D01*
X719431Y152060D01*
X719257Y151237D01*
X719062Y150418D01*
X718848Y149604D01*
X718613Y148796D01*
X718359Y147994D01*
X718086Y147198D01*
X717792Y146409D01*
X717480Y145628D01*
X717148Y144854D01*
X716798Y144089D01*
X716429Y143333D01*
X716041Y142586D01*
X715635Y141849D01*
X715212Y141121D01*
X714770Y140405D01*
X714311Y139699D01*
X713835Y139006D01*
X713342Y138323D01*
X712832Y137654D01*
X712307Y136997D01*
X711765Y136353D01*
X711207Y135722D01*
X710634Y135106D01*
X710047Y134503D01*
X709444Y133916D01*
X708828Y133343D01*
X708197Y132785D01*
X707553Y132243D01*
X706896Y131718D01*
X706227Y131208D01*
X705544Y130715D01*
X704851Y130239D01*
X704145Y129780D01*
X703429Y129338D01*
X702701Y128915D01*
X701964Y128509D01*
X701217Y128121D01*
X700461Y127752D01*
X699696Y127402D01*
X698922Y127070D01*
X698141Y126758D01*
X697352Y126464D01*
X696556Y126191D01*
X695754Y125937D01*
X694946Y125702D01*
X694132Y125488D01*
X693313Y125293D01*
X692490Y125119D01*
X691662Y124965D01*
X690831Y124831D01*
X689997Y124718D01*
X689161Y124625D01*
X688323Y124553D01*
X687483Y124501D01*
X686642Y124470D01*
X685800Y124460D01*
X684958Y124470D01*
X684117Y124501D01*
X683277Y124553D01*
X682439Y124625D01*
X681603Y124718D01*
X680769Y124831D01*
X679938Y124965D01*
X679110Y125119D01*
X678287Y125293D01*
X677468Y125488D01*
X676654Y125702D01*
X675846Y125937D01*
X675044Y126191D01*
X674248Y126464D01*
X673459Y126758D01*
X672678Y127070D01*
X671904Y127402D01*
X671139Y127752D01*
X670383Y128121D01*
X669636Y128509D01*
X668899Y128915D01*
X668171Y129338D01*
X667455Y129780D01*
X666749Y130239D01*
X666056Y130715D01*
X665373Y131208D01*
X664704Y131718D01*
X664047Y132243D01*
X663403Y132785D01*
X662772Y133343D01*
X662156Y133916D01*
X661553Y134503D01*
X660966Y135106D01*
X660393Y135722D01*
X659835Y136353D01*
X659293Y136997D01*
X658768Y137654D01*
X658258Y138323D01*
X657765Y139006D01*
X657289Y139699D01*
X656830Y140405D01*
X656388Y141121D01*
X655965Y141849D01*
X655559Y142586D01*
X655171Y143333D01*
X654802Y144089D01*
X654452Y144854D01*
X654120Y145628D01*
X653808Y146409D01*
X653514Y147198D01*
X653241Y147994D01*
X652987Y148796D01*
X652752Y149604D01*
X652538Y150418D01*
X652343Y151237D01*
X652169Y152060D01*
X652015Y152888D01*
X651881Y153719D01*
X651768Y154553D01*
X651675Y155389D01*
X651603Y156227D01*
X651551Y157067D01*
X651520Y157908D01*
X651510Y158750D01*
D12*
X718185Y116803D02*
X718185Y114263D01*
X718183Y114163D01*
X718177Y114064D01*
X718167Y113964D01*
X718154Y113866D01*
X718136Y113767D01*
X718115Y113670D01*
X718090Y113574D01*
X718061Y113478D01*
X718028Y113384D01*
X717992Y113291D01*
X717952Y113200D01*
X717908Y113110D01*
X717861Y113022D01*
X717811Y112936D01*
X717757Y112852D01*
X717700Y112770D01*
X717640Y112691D01*
X717576Y112613D01*
X717510Y112539D01*
X717441Y112467D01*
X717369Y112398D01*
X717295Y112332D01*
X717217Y112268D01*
X717138Y112208D01*
X717056Y112151D01*
X716972Y112097D01*
X716886Y112047D01*
X716798Y112000D01*
X716708Y111956D01*
X716617Y111916D01*
X716524Y111880D01*
X716430Y111847D01*
X716334Y111818D01*
X716238Y111793D01*
X716141Y111772D01*
X716042Y111754D01*
X715944Y111741D01*
X715844Y111731D01*
X715745Y111725D01*
X715645Y111723D01*
X709295Y111723D01*
X709195Y111725D01*
X709096Y111731D01*
X708996Y111741D01*
X708898Y111754D01*
X708799Y111772D01*
X708702Y111793D01*
X708606Y111818D01*
X708510Y111847D01*
X708416Y111880D01*
X708323Y111916D01*
X708232Y111956D01*
X708142Y112000D01*
X708054Y112047D01*
X707968Y112097D01*
X707884Y112151D01*
X707802Y112208D01*
X707723Y112268D01*
X707645Y112332D01*
X707571Y112398D01*
X707499Y112467D01*
X707430Y112539D01*
X707364Y112613D01*
X707300Y112691D01*
X707240Y112770D01*
X707183Y112852D01*
X707129Y112936D01*
X707079Y113022D01*
X707032Y113110D01*
X706988Y113200D01*
X706948Y113291D01*
X706912Y113384D01*
X706879Y113478D01*
X706850Y113574D01*
X706825Y113670D01*
X706804Y113767D01*
X706786Y113866D01*
X706773Y113964D01*
X706763Y114064D01*
X706757Y114163D01*
X706755Y114263D01*
X706755Y116803D01*
X718185Y121285D02*
X718185Y125095D01*
X718183Y125195D01*
X718177Y125294D01*
X718167Y125394D01*
X718154Y125492D01*
X718136Y125591D01*
X718115Y125688D01*
X718090Y125784D01*
X718061Y125880D01*
X718028Y125974D01*
X717992Y126067D01*
X717952Y126158D01*
X717908Y126248D01*
X717861Y126336D01*
X717811Y126422D01*
X717757Y126506D01*
X717700Y126588D01*
X717640Y126667D01*
X717576Y126745D01*
X717510Y126819D01*
X717441Y126891D01*
X717369Y126960D01*
X717295Y127026D01*
X717217Y127090D01*
X717138Y127150D01*
X717056Y127207D01*
X716972Y127261D01*
X716886Y127311D01*
X716798Y127358D01*
X716708Y127402D01*
X716617Y127442D01*
X716524Y127478D01*
X716430Y127511D01*
X716334Y127540D01*
X716238Y127565D01*
X716141Y127586D01*
X716042Y127604D01*
X715944Y127617D01*
X715844Y127627D01*
X715745Y127633D01*
X715645Y127635D01*
X714375Y127635D01*
X714275Y127633D01*
X714176Y127627D01*
X714076Y127617D01*
X713978Y127604D01*
X713879Y127586D01*
X713782Y127565D01*
X713686Y127540D01*
X713590Y127511D01*
X713496Y127478D01*
X713403Y127442D01*
X713312Y127402D01*
X713222Y127358D01*
X713134Y127311D01*
X713048Y127261D01*
X712964Y127207D01*
X712882Y127150D01*
X712803Y127090D01*
X712725Y127026D01*
X712651Y126960D01*
X712579Y126891D01*
X712510Y126819D01*
X712444Y126745D01*
X712380Y126667D01*
X712320Y126588D01*
X712263Y126506D01*
X712209Y126422D01*
X712159Y126336D01*
X712112Y126248D01*
X712068Y126158D01*
X712028Y126067D01*
X711992Y125974D01*
X711959Y125880D01*
X711930Y125784D01*
X711905Y125688D01*
X711884Y125591D01*
X711866Y125492D01*
X711853Y125394D01*
X711843Y125294D01*
X711837Y125195D01*
X711835Y125095D01*
X711835Y121285D01*
X706755Y121285D01*
X706755Y127635D01*
D13*
X685800Y153670D03*
D10*
X381000Y160020D02*
X317500Y160020D01*
X317500Y195580D02*
X381000Y195580D01*
X381000Y160020D01*
X317500Y160020D02*
X317500Y195580D01*
D12*
X319405Y200025D02*
X319405Y211455D01*
X322580Y211455D01*
X322691Y211453D01*
X322801Y211447D01*
X322912Y211438D01*
X323022Y211424D01*
X323131Y211407D01*
X323240Y211386D01*
X323348Y211361D01*
X323455Y211332D01*
X323561Y211300D01*
X323666Y211264D01*
X323769Y211224D01*
X323871Y211181D01*
X323972Y211134D01*
X324071Y211083D01*
X324168Y211030D01*
X324262Y210973D01*
X324355Y210912D01*
X324446Y210849D01*
X324535Y210782D01*
X324621Y210712D01*
X324704Y210639D01*
X324786Y210564D01*
X324864Y210486D01*
X324939Y210404D01*
X325012Y210321D01*
X325082Y210235D01*
X325149Y210146D01*
X325212Y210055D01*
X325273Y209962D01*
X325330Y209868D01*
X325383Y209771D01*
X325434Y209672D01*
X325481Y209571D01*
X325524Y209469D01*
X325564Y209366D01*
X325600Y209261D01*
X325632Y209155D01*
X325661Y209048D01*
X325686Y208940D01*
X325707Y208831D01*
X325724Y208722D01*
X325738Y208612D01*
X325747Y208501D01*
X325753Y208391D01*
X325755Y208280D01*
X325755Y203200D01*
X325753Y203089D01*
X325747Y202979D01*
X325738Y202868D01*
X325724Y202758D01*
X325707Y202649D01*
X325686Y202540D01*
X325661Y202432D01*
X325632Y202325D01*
X325600Y202219D01*
X325564Y202114D01*
X325524Y202011D01*
X325481Y201909D01*
X325434Y201808D01*
X325383Y201709D01*
X325330Y201612D01*
X325273Y201518D01*
X325212Y201425D01*
X325149Y201334D01*
X325082Y201245D01*
X325012Y201159D01*
X324939Y201076D01*
X324864Y200994D01*
X324786Y200916D01*
X324704Y200841D01*
X324621Y200768D01*
X324535Y200698D01*
X324446Y200631D01*
X324355Y200568D01*
X324262Y200507D01*
X324168Y200450D01*
X324071Y200397D01*
X323972Y200346D01*
X323871Y200299D01*
X323769Y200256D01*
X323666Y200216D01*
X323561Y200180D01*
X323455Y200148D01*
X323348Y200119D01*
X323240Y200094D01*
X323131Y200073D01*
X323022Y200056D01*
X322912Y200042D01*
X322801Y200033D01*
X322691Y200027D01*
X322580Y200025D01*
X319405Y200025D01*
X334709Y211456D02*
X334813Y211454D01*
X334918Y211448D01*
X335022Y211439D01*
X335125Y211426D01*
X335228Y211408D01*
X335330Y211388D01*
X335432Y211363D01*
X335532Y211335D01*
X335632Y211303D01*
X335730Y211267D01*
X335827Y211228D01*
X335922Y211186D01*
X336016Y211140D01*
X336108Y211090D01*
X336198Y211038D01*
X336286Y210982D01*
X336372Y210922D01*
X336456Y210860D01*
X336537Y210795D01*
X336616Y210727D01*
X336693Y210655D01*
X336766Y210582D01*
X336838Y210505D01*
X336906Y210426D01*
X336971Y210345D01*
X337033Y210261D01*
X337093Y210175D01*
X337149Y210087D01*
X337201Y209997D01*
X337251Y209905D01*
X337297Y209811D01*
X337339Y209716D01*
X337378Y209619D01*
X337414Y209521D01*
X337446Y209421D01*
X337474Y209321D01*
X337499Y209219D01*
X337519Y209117D01*
X337537Y209014D01*
X337550Y208911D01*
X337559Y208807D01*
X337565Y208702D01*
X337567Y208598D01*
X334709Y211455D02*
X334591Y211453D01*
X334472Y211447D01*
X334354Y211438D01*
X334237Y211425D01*
X334120Y211407D01*
X334003Y211387D01*
X333887Y211362D01*
X333772Y211334D01*
X333659Y211301D01*
X333546Y211266D01*
X333434Y211226D01*
X333324Y211184D01*
X333215Y211137D01*
X333107Y211087D01*
X333002Y211034D01*
X332898Y210977D01*
X332796Y210917D01*
X332696Y210854D01*
X332598Y210787D01*
X332502Y210718D01*
X332409Y210645D01*
X332318Y210569D01*
X332229Y210491D01*
X332143Y210409D01*
X332060Y210325D01*
X331979Y210239D01*
X331902Y210149D01*
X331827Y210058D01*
X331755Y209964D01*
X331686Y209867D01*
X331621Y209769D01*
X331558Y209668D01*
X331499Y209565D01*
X331443Y209461D01*
X331391Y209355D01*
X331342Y209247D01*
X331297Y209138D01*
X331255Y209027D01*
X331217Y208915D01*
X336614Y206376D02*
X336690Y206451D01*
X336765Y206530D01*
X336836Y206611D01*
X336905Y206695D01*
X336970Y206781D01*
X337032Y206869D01*
X337092Y206959D01*
X337148Y207051D01*
X337201Y207146D01*
X337250Y207242D01*
X337296Y207340D01*
X337339Y207439D01*
X337378Y207540D01*
X337413Y207642D01*
X337445Y207745D01*
X337473Y207849D01*
X337498Y207954D01*
X337519Y208061D01*
X337536Y208167D01*
X337549Y208274D01*
X337558Y208382D01*
X337564Y208490D01*
X337566Y208598D01*
X336614Y206375D02*
X331216Y200025D01*
X337566Y200025D01*
D14*
X328295Y177800D03*
D15*
X310515Y177800D03*
X387985Y177800D03*
D10*
X177800Y95250D02*
X177958Y95248D01*
X178117Y95242D01*
X178275Y95232D01*
X178432Y95218D01*
X178590Y95201D01*
X178746Y95179D01*
X178903Y95154D01*
X179058Y95124D01*
X179213Y95091D01*
X179367Y95054D01*
X179520Y95013D01*
X179672Y94968D01*
X179822Y94919D01*
X179972Y94867D01*
X180120Y94811D01*
X180267Y94751D01*
X180412Y94688D01*
X180555Y94621D01*
X180697Y94551D01*
X180837Y94477D01*
X180975Y94399D01*
X181111Y94318D01*
X181245Y94234D01*
X181377Y94147D01*
X181507Y94056D01*
X181634Y93962D01*
X181759Y93865D01*
X181882Y93764D01*
X182002Y93661D01*
X182119Y93555D01*
X182234Y93446D01*
X182346Y93334D01*
X182455Y93219D01*
X182561Y93102D01*
X182664Y92982D01*
X182765Y92859D01*
X182862Y92734D01*
X182956Y92607D01*
X183047Y92477D01*
X183134Y92345D01*
X183218Y92211D01*
X183299Y92075D01*
X183377Y91937D01*
X183451Y91797D01*
X183521Y91655D01*
X183588Y91512D01*
X183651Y91367D01*
X183711Y91220D01*
X183767Y91072D01*
X183819Y90922D01*
X183868Y90772D01*
X183913Y90620D01*
X183954Y90467D01*
X183991Y90313D01*
X184024Y90158D01*
X184054Y90003D01*
X184079Y89846D01*
X184101Y89690D01*
X184118Y89532D01*
X184132Y89375D01*
X184142Y89217D01*
X184148Y89058D01*
X184150Y88900D01*
X184148Y88742D01*
X184142Y88583D01*
X184132Y88425D01*
X184118Y88268D01*
X184101Y88110D01*
X184079Y87954D01*
X184054Y87797D01*
X184024Y87642D01*
X183991Y87487D01*
X183954Y87333D01*
X183913Y87180D01*
X183868Y87028D01*
X183819Y86878D01*
X183767Y86728D01*
X183711Y86580D01*
X183651Y86433D01*
X183588Y86288D01*
X183521Y86145D01*
X183451Y86003D01*
X183377Y85863D01*
X183299Y85725D01*
X183218Y85589D01*
X183134Y85455D01*
X183047Y85323D01*
X182956Y85193D01*
X182862Y85066D01*
X182765Y84941D01*
X182664Y84818D01*
X182561Y84698D01*
X182455Y84581D01*
X182346Y84466D01*
X182234Y84354D01*
X182119Y84245D01*
X182002Y84139D01*
X181882Y84036D01*
X181759Y83935D01*
X181634Y83838D01*
X181507Y83744D01*
X181377Y83653D01*
X181245Y83566D01*
X181111Y83482D01*
X180975Y83401D01*
X180837Y83323D01*
X180697Y83249D01*
X180555Y83179D01*
X180412Y83112D01*
X180267Y83049D01*
X180120Y82989D01*
X179972Y82933D01*
X179822Y82881D01*
X179672Y82832D01*
X179520Y82787D01*
X179367Y82746D01*
X179213Y82709D01*
X179058Y82676D01*
X178903Y82646D01*
X178746Y82621D01*
X178590Y82599D01*
X178432Y82582D01*
X178275Y82568D01*
X178117Y82558D01*
X177958Y82552D01*
X177800Y82550D01*
X177800Y60960D01*
X279400Y60960D01*
X279400Y116840D01*
X177800Y116840D01*
X177800Y95250D01*
D12*
X174371Y65405D02*
X162941Y65405D01*
X174371Y64135D02*
X174371Y66675D01*
X162941Y66675D02*
X162941Y64135D01*
X174371Y73877D02*
X174371Y76417D01*
X174371Y73877D02*
X174369Y73777D01*
X174363Y73678D01*
X174353Y73578D01*
X174340Y73480D01*
X174322Y73381D01*
X174301Y73284D01*
X174276Y73188D01*
X174247Y73092D01*
X174214Y72998D01*
X174178Y72905D01*
X174138Y72814D01*
X174094Y72724D01*
X174047Y72636D01*
X173997Y72550D01*
X173943Y72466D01*
X173886Y72384D01*
X173826Y72305D01*
X173762Y72227D01*
X173696Y72153D01*
X173627Y72081D01*
X173555Y72012D01*
X173481Y71946D01*
X173403Y71882D01*
X173324Y71822D01*
X173242Y71765D01*
X173158Y71711D01*
X173072Y71661D01*
X172984Y71614D01*
X172894Y71570D01*
X172803Y71530D01*
X172710Y71494D01*
X172616Y71461D01*
X172520Y71432D01*
X172424Y71407D01*
X172327Y71386D01*
X172228Y71368D01*
X172130Y71355D01*
X172030Y71345D01*
X171931Y71339D01*
X171831Y71337D01*
X165481Y71337D01*
X165381Y71339D01*
X165282Y71345D01*
X165182Y71355D01*
X165084Y71368D01*
X164985Y71386D01*
X164888Y71407D01*
X164792Y71432D01*
X164696Y71461D01*
X164602Y71494D01*
X164509Y71530D01*
X164418Y71570D01*
X164328Y71614D01*
X164240Y71661D01*
X164154Y71711D01*
X164070Y71765D01*
X163988Y71822D01*
X163909Y71882D01*
X163831Y71946D01*
X163757Y72012D01*
X163685Y72081D01*
X163616Y72153D01*
X163550Y72227D01*
X163486Y72305D01*
X163426Y72384D01*
X163369Y72466D01*
X163315Y72550D01*
X163265Y72636D01*
X163218Y72724D01*
X163174Y72814D01*
X163134Y72905D01*
X163098Y72998D01*
X163065Y73092D01*
X163036Y73188D01*
X163011Y73284D01*
X162990Y73381D01*
X162972Y73480D01*
X162959Y73578D01*
X162949Y73678D01*
X162943Y73777D01*
X162941Y73877D01*
X162941Y76417D01*
X165481Y80899D02*
X162941Y84074D01*
X174371Y84074D01*
X174371Y80899D02*
X174371Y87249D01*
D10*
X529590Y63500D02*
X529590Y12700D01*
X588010Y12700D02*
X588010Y63500D01*
X529590Y63500D01*
X529590Y12700D02*
X548640Y12700D01*
X568960Y12700D02*
X588010Y12700D01*
X568960Y12700D02*
X568957Y12947D01*
X568948Y13195D01*
X568933Y13442D01*
X568912Y13688D01*
X568885Y13934D01*
X568852Y14179D01*
X568813Y14424D01*
X568768Y14667D01*
X568717Y14909D01*
X568660Y15150D01*
X568598Y15389D01*
X568529Y15627D01*
X568455Y15863D01*
X568375Y16097D01*
X568290Y16329D01*
X568198Y16559D01*
X568102Y16787D01*
X567999Y17012D01*
X567892Y17235D01*
X567778Y17455D01*
X567660Y17672D01*
X567536Y17887D01*
X567407Y18098D01*
X567273Y18306D01*
X567134Y18511D01*
X566990Y18712D01*
X566842Y18910D01*
X566688Y19104D01*
X566530Y19294D01*
X566367Y19480D01*
X566200Y19662D01*
X566028Y19840D01*
X565852Y20014D01*
X565672Y20184D01*
X565487Y20349D01*
X565299Y20509D01*
X565107Y20665D01*
X564911Y20817D01*
X564712Y20963D01*
X564509Y21105D01*
X564302Y21241D01*
X564093Y21373D01*
X563880Y21499D01*
X563664Y21620D01*
X563446Y21736D01*
X563224Y21846D01*
X563000Y21951D01*
X562774Y22051D01*
X562545Y22145D01*
X562314Y22233D01*
X562080Y22316D01*
X561845Y22393D01*
X561608Y22464D01*
X561370Y22530D01*
X561130Y22589D01*
X560888Y22643D01*
X560645Y22691D01*
X560402Y22733D01*
X560157Y22769D01*
X559911Y22799D01*
X559665Y22823D01*
X559418Y22841D01*
X559171Y22853D01*
X558924Y22859D01*
X558676Y22859D01*
X558429Y22853D01*
X558182Y22841D01*
X557935Y22823D01*
X557689Y22799D01*
X557443Y22769D01*
X557198Y22733D01*
X556955Y22691D01*
X556712Y22643D01*
X556470Y22589D01*
X556230Y22530D01*
X555992Y22464D01*
X555755Y22393D01*
X555520Y22316D01*
X555286Y22233D01*
X555055Y22145D01*
X554826Y22051D01*
X554600Y21951D01*
X554376Y21846D01*
X554154Y21736D01*
X553936Y21620D01*
X553720Y21499D01*
X553507Y21373D01*
X553298Y21241D01*
X553091Y21105D01*
X552888Y20963D01*
X552689Y20817D01*
X552493Y20665D01*
X552301Y20509D01*
X552113Y20349D01*
X551928Y20184D01*
X551748Y20014D01*
X551572Y19840D01*
X551400Y19662D01*
X551233Y19480D01*
X551070Y19294D01*
X550912Y19104D01*
X550758Y18910D01*
X550610Y18712D01*
X550466Y18511D01*
X550327Y18306D01*
X550193Y18098D01*
X550064Y17887D01*
X549940Y17672D01*
X549822Y17455D01*
X549708Y17235D01*
X549601Y17012D01*
X549498Y16787D01*
X549402Y16559D01*
X549310Y16329D01*
X549225Y16097D01*
X549145Y15863D01*
X549071Y15627D01*
X549002Y15389D01*
X548940Y15150D01*
X548883Y14909D01*
X548832Y14667D01*
X548787Y14424D01*
X548748Y14179D01*
X548715Y13934D01*
X548688Y13688D01*
X548667Y13442D01*
X548652Y13195D01*
X548643Y12947D01*
X548640Y12700D01*
D12*
X555625Y5080D02*
X555625Y0D01*
X555625Y5080D02*
X555627Y5191D01*
X555633Y5301D01*
X555642Y5412D01*
X555656Y5522D01*
X555673Y5631D01*
X555694Y5740D01*
X555719Y5848D01*
X555748Y5955D01*
X555780Y6061D01*
X555816Y6166D01*
X555856Y6269D01*
X555899Y6371D01*
X555946Y6472D01*
X555997Y6571D01*
X556050Y6667D01*
X556107Y6762D01*
X556168Y6855D01*
X556231Y6946D01*
X556298Y7035D01*
X556368Y7121D01*
X556441Y7204D01*
X556516Y7286D01*
X556594Y7364D01*
X556676Y7439D01*
X556759Y7512D01*
X556845Y7582D01*
X556934Y7649D01*
X557025Y7712D01*
X557118Y7773D01*
X557213Y7830D01*
X557309Y7883D01*
X557408Y7934D01*
X557509Y7981D01*
X557611Y8024D01*
X557714Y8064D01*
X557819Y8100D01*
X557925Y8132D01*
X558032Y8161D01*
X558140Y8186D01*
X558249Y8207D01*
X558358Y8224D01*
X558468Y8238D01*
X558579Y8247D01*
X558689Y8253D01*
X558800Y8255D01*
X558911Y8253D01*
X559021Y8247D01*
X559132Y8238D01*
X559242Y8224D01*
X559351Y8207D01*
X559460Y8186D01*
X559568Y8161D01*
X559675Y8132D01*
X559781Y8100D01*
X559886Y8064D01*
X559989Y8024D01*
X560091Y7981D01*
X560192Y7934D01*
X560291Y7883D01*
X560388Y7830D01*
X560482Y7773D01*
X560575Y7712D01*
X560666Y7649D01*
X560755Y7582D01*
X560841Y7512D01*
X560924Y7439D01*
X561006Y7364D01*
X561084Y7286D01*
X561159Y7204D01*
X561232Y7121D01*
X561302Y7035D01*
X561369Y6946D01*
X561432Y6855D01*
X561493Y6762D01*
X561550Y6668D01*
X561603Y6571D01*
X561654Y6472D01*
X561701Y6371D01*
X561744Y6269D01*
X561784Y6166D01*
X561820Y6061D01*
X561852Y5955D01*
X561881Y5848D01*
X561906Y5740D01*
X561927Y5631D01*
X561944Y5522D01*
X561958Y5412D01*
X561967Y5301D01*
X561973Y5191D01*
X561975Y5080D01*
X561975Y0D01*
X561973Y-111D01*
X561967Y-221D01*
X561958Y-332D01*
X561944Y-442D01*
X561927Y-551D01*
X561906Y-660D01*
X561881Y-768D01*
X561852Y-875D01*
X561820Y-981D01*
X561784Y-1086D01*
X561744Y-1189D01*
X561701Y-1291D01*
X561654Y-1392D01*
X561603Y-1491D01*
X561550Y-1588D01*
X561493Y-1682D01*
X561432Y-1775D01*
X561369Y-1866D01*
X561302Y-1955D01*
X561232Y-2041D01*
X561159Y-2124D01*
X561084Y-2206D01*
X561006Y-2284D01*
X560924Y-2359D01*
X560841Y-2432D01*
X560755Y-2502D01*
X560666Y-2569D01*
X560575Y-2632D01*
X560482Y-2693D01*
X560388Y-2750D01*
X560291Y-2803D01*
X560192Y-2854D01*
X560091Y-2901D01*
X559989Y-2944D01*
X559886Y-2984D01*
X559781Y-3020D01*
X559675Y-3052D01*
X559568Y-3081D01*
X559460Y-3106D01*
X559351Y-3127D01*
X559242Y-3144D01*
X559132Y-3158D01*
X559021Y-3167D01*
X558911Y-3173D01*
X558800Y-3175D01*
X558689Y-3173D01*
X558579Y-3167D01*
X558468Y-3158D01*
X558358Y-3144D01*
X558249Y-3127D01*
X558140Y-3106D01*
X558032Y-3081D01*
X557925Y-3052D01*
X557819Y-3020D01*
X557714Y-2984D01*
X557611Y-2944D01*
X557509Y-2901D01*
X557408Y-2854D01*
X557309Y-2803D01*
X557213Y-2750D01*
X557118Y-2693D01*
X557025Y-2632D01*
X556934Y-2569D01*
X556845Y-2502D01*
X556759Y-2432D01*
X556676Y-2359D01*
X556594Y-2284D01*
X556516Y-2206D01*
X556441Y-2124D01*
X556368Y-2041D01*
X556298Y-1955D01*
X556231Y-1866D01*
X556168Y-1775D01*
X556107Y-1682D01*
X556050Y-1588D01*
X555997Y-1491D01*
X555946Y-1392D01*
X555899Y-1291D01*
X555856Y-1189D01*
X555816Y-1086D01*
X555780Y-981D01*
X555748Y-875D01*
X555719Y-768D01*
X555694Y-660D01*
X555673Y-551D01*
X555656Y-442D01*
X555642Y-332D01*
X555633Y-221D01*
X555627Y-111D01*
X555625Y0D01*
X567627Y-3175D02*
X567627Y8255D01*
X573977Y8255D02*
X567627Y1270D01*
X570167Y3810D02*
X573977Y-3175D01*
X578485Y5715D02*
X581660Y8255D01*
X581660Y-3175D01*
X578485Y-3175D02*
X584835Y-3175D01*
D10*
X59780Y177928D02*
X59780Y280941D01*
X59780Y176259D02*
X41820Y176259D01*
X41820Y280941D02*
X59780Y280941D01*
X32840Y210640D02*
X41820Y176259D01*
X41820Y279272D01*
X32840Y246560D02*
X32840Y210640D01*
X32840Y246560D02*
X41820Y280941D01*
X68760Y210640D02*
X59780Y176259D01*
X68760Y210640D02*
X68760Y246560D01*
X59780Y280941D01*
D12*
X83185Y242018D02*
X94615Y242018D01*
X83185Y242018D02*
X83185Y245193D01*
X83187Y245304D01*
X83193Y245414D01*
X83202Y245525D01*
X83216Y245635D01*
X83233Y245744D01*
X83254Y245853D01*
X83279Y245961D01*
X83308Y246068D01*
X83340Y246174D01*
X83376Y246279D01*
X83416Y246382D01*
X83459Y246484D01*
X83506Y246585D01*
X83557Y246684D01*
X83610Y246781D01*
X83667Y246875D01*
X83728Y246968D01*
X83791Y247059D01*
X83858Y247148D01*
X83928Y247234D01*
X84001Y247317D01*
X84076Y247399D01*
X84154Y247477D01*
X84236Y247552D01*
X84319Y247625D01*
X84405Y247695D01*
X84494Y247762D01*
X84585Y247825D01*
X84678Y247886D01*
X84773Y247943D01*
X84869Y247996D01*
X84968Y248047D01*
X85069Y248094D01*
X85171Y248137D01*
X85274Y248177D01*
X85379Y248213D01*
X85485Y248245D01*
X85592Y248274D01*
X85700Y248299D01*
X85809Y248320D01*
X85918Y248337D01*
X86028Y248351D01*
X86139Y248360D01*
X86249Y248366D01*
X86360Y248368D01*
X86471Y248366D01*
X86581Y248360D01*
X86692Y248351D01*
X86802Y248337D01*
X86911Y248320D01*
X87020Y248299D01*
X87128Y248274D01*
X87235Y248245D01*
X87341Y248213D01*
X87446Y248177D01*
X87549Y248137D01*
X87651Y248094D01*
X87752Y248047D01*
X87851Y247996D01*
X87948Y247943D01*
X88042Y247886D01*
X88135Y247825D01*
X88226Y247762D01*
X88315Y247695D01*
X88401Y247625D01*
X88484Y247552D01*
X88566Y247477D01*
X88644Y247399D01*
X88719Y247317D01*
X88792Y247234D01*
X88862Y247148D01*
X88929Y247059D01*
X88992Y246968D01*
X89053Y246875D01*
X89110Y246781D01*
X89163Y246684D01*
X89214Y246585D01*
X89261Y246484D01*
X89304Y246382D01*
X89344Y246279D01*
X89380Y246174D01*
X89412Y246068D01*
X89441Y245961D01*
X89466Y245853D01*
X89487Y245744D01*
X89504Y245635D01*
X89518Y245525D01*
X89527Y245414D01*
X89533Y245304D01*
X89535Y245193D01*
X89535Y242018D01*
X89535Y245828D02*
X94615Y248368D01*
X85725Y253365D02*
X83185Y256540D01*
X94615Y256540D01*
X94615Y253365D02*
X94615Y259715D01*
X19504Y190808D02*
X8074Y190808D01*
X19504Y197158D01*
X8074Y197158D01*
X8074Y205032D02*
X19504Y205032D01*
X8074Y201857D02*
X8074Y208207D01*
X19504Y215027D02*
X19504Y217567D01*
X19504Y215027D02*
X19502Y214927D01*
X19496Y214828D01*
X19486Y214728D01*
X19473Y214630D01*
X19455Y214531D01*
X19434Y214434D01*
X19409Y214338D01*
X19380Y214242D01*
X19347Y214148D01*
X19311Y214055D01*
X19271Y213964D01*
X19227Y213874D01*
X19180Y213786D01*
X19130Y213700D01*
X19076Y213616D01*
X19019Y213534D01*
X18959Y213455D01*
X18895Y213377D01*
X18829Y213303D01*
X18760Y213231D01*
X18688Y213162D01*
X18614Y213096D01*
X18536Y213032D01*
X18457Y212972D01*
X18375Y212915D01*
X18291Y212861D01*
X18205Y212811D01*
X18117Y212764D01*
X18027Y212720D01*
X17936Y212680D01*
X17843Y212644D01*
X17749Y212611D01*
X17653Y212582D01*
X17557Y212557D01*
X17460Y212536D01*
X17361Y212518D01*
X17263Y212505D01*
X17163Y212495D01*
X17064Y212489D01*
X16964Y212487D01*
X10614Y212487D01*
X10514Y212489D01*
X10415Y212495D01*
X10315Y212505D01*
X10217Y212518D01*
X10118Y212536D01*
X10021Y212557D01*
X9925Y212582D01*
X9829Y212611D01*
X9735Y212644D01*
X9642Y212680D01*
X9551Y212720D01*
X9461Y212764D01*
X9373Y212811D01*
X9287Y212861D01*
X9203Y212915D01*
X9121Y212972D01*
X9042Y213032D01*
X8964Y213096D01*
X8890Y213162D01*
X8818Y213231D01*
X8749Y213303D01*
X8683Y213377D01*
X8619Y213455D01*
X8559Y213534D01*
X8502Y213616D01*
X8448Y213700D01*
X8398Y213786D01*
X8351Y213874D01*
X8307Y213964D01*
X8267Y214055D01*
X8231Y214148D01*
X8198Y214242D01*
X8169Y214338D01*
X8144Y214434D01*
X8123Y214531D01*
X8105Y214630D01*
X8092Y214728D01*
X8082Y214828D01*
X8076Y214927D01*
X8074Y215027D01*
X8074Y217567D01*
X15059Y222177D02*
X15059Y229797D01*
X19504Y235385D02*
X8074Y235385D01*
X8074Y238560D01*
X8076Y238671D01*
X8082Y238781D01*
X8091Y238892D01*
X8105Y239002D01*
X8122Y239111D01*
X8143Y239220D01*
X8168Y239328D01*
X8197Y239435D01*
X8229Y239541D01*
X8265Y239646D01*
X8305Y239749D01*
X8348Y239851D01*
X8395Y239952D01*
X8446Y240051D01*
X8499Y240148D01*
X8556Y240242D01*
X8617Y240335D01*
X8680Y240426D01*
X8747Y240515D01*
X8817Y240601D01*
X8890Y240684D01*
X8965Y240766D01*
X9043Y240844D01*
X9125Y240919D01*
X9208Y240992D01*
X9294Y241062D01*
X9383Y241129D01*
X9474Y241192D01*
X9567Y241253D01*
X9661Y241310D01*
X9758Y241363D01*
X9857Y241414D01*
X9958Y241461D01*
X10060Y241504D01*
X10163Y241544D01*
X10268Y241580D01*
X10374Y241612D01*
X10481Y241641D01*
X10589Y241666D01*
X10698Y241687D01*
X10807Y241704D01*
X10917Y241718D01*
X11028Y241727D01*
X11138Y241733D01*
X11249Y241735D01*
X16329Y241735D01*
X16440Y241733D01*
X16550Y241727D01*
X16661Y241718D01*
X16771Y241704D01*
X16880Y241687D01*
X16989Y241666D01*
X17097Y241641D01*
X17204Y241612D01*
X17310Y241580D01*
X17415Y241544D01*
X17518Y241504D01*
X17620Y241461D01*
X17721Y241414D01*
X17820Y241363D01*
X17917Y241310D01*
X18011Y241253D01*
X18104Y241192D01*
X18195Y241129D01*
X18284Y241062D01*
X18370Y240992D01*
X18453Y240919D01*
X18535Y240844D01*
X18613Y240766D01*
X18688Y240684D01*
X18761Y240601D01*
X18831Y240515D01*
X18898Y240426D01*
X18961Y240335D01*
X19022Y240242D01*
X19079Y240148D01*
X19132Y240051D01*
X19183Y239952D01*
X19230Y239851D01*
X19273Y239749D01*
X19313Y239646D01*
X19349Y239541D01*
X19381Y239435D01*
X19410Y239328D01*
X19435Y239220D01*
X19456Y239111D01*
X19473Y239002D01*
X19487Y238892D01*
X19496Y238781D01*
X19502Y238671D01*
X19504Y238560D01*
X19504Y235385D01*
X10614Y247196D02*
X8074Y250371D01*
X19504Y250371D01*
X19504Y247196D02*
X19504Y253546D01*
X10932Y264976D02*
X10828Y264974D01*
X10723Y264968D01*
X10619Y264959D01*
X10516Y264946D01*
X10413Y264928D01*
X10311Y264908D01*
X10209Y264883D01*
X10109Y264855D01*
X10009Y264823D01*
X9911Y264787D01*
X9814Y264748D01*
X9719Y264706D01*
X9625Y264660D01*
X9533Y264610D01*
X9443Y264558D01*
X9355Y264502D01*
X9269Y264442D01*
X9185Y264380D01*
X9104Y264315D01*
X9025Y264247D01*
X8948Y264175D01*
X8875Y264102D01*
X8803Y264025D01*
X8735Y263946D01*
X8670Y263865D01*
X8608Y263781D01*
X8548Y263695D01*
X8492Y263607D01*
X8440Y263517D01*
X8390Y263425D01*
X8344Y263331D01*
X8302Y263236D01*
X8263Y263139D01*
X8227Y263041D01*
X8195Y262941D01*
X8167Y262841D01*
X8142Y262739D01*
X8122Y262637D01*
X8104Y262534D01*
X8091Y262431D01*
X8082Y262327D01*
X8076Y262222D01*
X8074Y262118D01*
X8075Y262118D02*
X8077Y262000D01*
X8083Y261881D01*
X8092Y261763D01*
X8105Y261646D01*
X8123Y261529D01*
X8143Y261412D01*
X8168Y261296D01*
X8196Y261181D01*
X8229Y261068D01*
X8264Y260955D01*
X8304Y260843D01*
X8346Y260733D01*
X8393Y260624D01*
X8443Y260516D01*
X8496Y260411D01*
X8553Y260307D01*
X8613Y260205D01*
X8676Y260105D01*
X8743Y260007D01*
X8812Y259911D01*
X8885Y259818D01*
X8961Y259727D01*
X9039Y259638D01*
X9121Y259552D01*
X9205Y259469D01*
X9291Y259388D01*
X9381Y259311D01*
X9472Y259236D01*
X9566Y259164D01*
X9663Y259095D01*
X9761Y259030D01*
X9862Y258967D01*
X9965Y258908D01*
X10069Y258852D01*
X10175Y258800D01*
X10283Y258751D01*
X10392Y258706D01*
X10503Y258664D01*
X10615Y258626D01*
X13154Y264023D02*
X13079Y264099D01*
X13000Y264174D01*
X12919Y264245D01*
X12835Y264314D01*
X12749Y264379D01*
X12661Y264441D01*
X12571Y264501D01*
X12479Y264557D01*
X12384Y264610D01*
X12288Y264659D01*
X12190Y264705D01*
X12091Y264748D01*
X11990Y264787D01*
X11888Y264822D01*
X11785Y264854D01*
X11681Y264882D01*
X11576Y264907D01*
X11469Y264928D01*
X11363Y264945D01*
X11256Y264958D01*
X11148Y264967D01*
X11040Y264973D01*
X10932Y264975D01*
X13154Y264023D02*
X19504Y258626D01*
X19504Y264976D01*
X617900Y65350D02*
X662200Y65350D01*
X662399Y65346D01*
X662599Y65347D01*
X662798Y65353D01*
X662997Y65364D01*
X663196Y65380D01*
X663395Y65400D01*
X663593Y65425D01*
X663790Y65455D01*
X663986Y65490D01*
X664182Y65530D01*
X664376Y65574D01*
X664570Y65623D01*
X664762Y65676D01*
X664952Y65734D01*
X665142Y65797D01*
X665330Y65865D01*
X665516Y65936D01*
X665700Y66013D01*
X665882Y66093D01*
X666063Y66179D01*
X666241Y66268D01*
X666417Y66362D01*
X666591Y66460D01*
X666762Y66562D01*
X666931Y66668D01*
X667097Y66778D01*
X667261Y66893D01*
X667421Y67011D01*
X667579Y67133D01*
X667734Y67259D01*
X667885Y67388D01*
X668034Y67522D01*
X668179Y67658D01*
X668321Y67798D01*
X668460Y67942D01*
X668595Y68089D01*
X668726Y68239D01*
X668854Y68392D01*
X668978Y68548D01*
X669098Y68708D01*
X669214Y68870D01*
X669326Y69034D01*
X669435Y69202D01*
X669539Y69372D01*
X669639Y69545D01*
X669735Y69719D01*
X669827Y69897D01*
X669914Y70076D01*
X669997Y70257D01*
X670075Y70441D01*
X670150Y70626D01*
X670219Y70813D01*
X670284Y71001D01*
X670345Y71191D01*
X670401Y71383D01*
X670452Y71576D01*
X670498Y71770D01*
X670540Y71965D01*
X670578Y72161D01*
X670610Y72357D01*
X670638Y72555D01*
X670660Y72753D01*
X670678Y72952D01*
X670692Y73151D01*
X670700Y73350D01*
X670700Y114150D01*
X658350Y114150D01*
X658192Y114148D01*
X658033Y114142D01*
X657875Y114132D01*
X657718Y114118D01*
X657560Y114101D01*
X657404Y114079D01*
X657247Y114054D01*
X657092Y114024D01*
X656937Y113991D01*
X656783Y113954D01*
X656630Y113913D01*
X656478Y113868D01*
X656328Y113819D01*
X656178Y113767D01*
X656030Y113711D01*
X655883Y113651D01*
X655738Y113588D01*
X655595Y113521D01*
X655453Y113451D01*
X655313Y113377D01*
X655175Y113299D01*
X655039Y113218D01*
X654905Y113134D01*
X654773Y113047D01*
X654643Y112956D01*
X654516Y112862D01*
X654391Y112765D01*
X654268Y112664D01*
X654148Y112561D01*
X654031Y112455D01*
X653916Y112346D01*
X653804Y112234D01*
X653695Y112119D01*
X653589Y112002D01*
X653486Y111882D01*
X653385Y111759D01*
X653288Y111634D01*
X653194Y111507D01*
X653103Y111377D01*
X653016Y111245D01*
X652932Y111111D01*
X652851Y110975D01*
X652773Y110837D01*
X652699Y110697D01*
X652629Y110555D01*
X652562Y110412D01*
X652499Y110267D01*
X652439Y110120D01*
X652383Y109972D01*
X652331Y109822D01*
X652282Y109672D01*
X652237Y109520D01*
X652196Y109367D01*
X652159Y109213D01*
X652126Y109058D01*
X652096Y108903D01*
X652071Y108746D01*
X652049Y108590D01*
X652032Y108432D01*
X652018Y108275D01*
X652008Y108117D01*
X652002Y107958D01*
X652000Y107800D01*
X474300Y290250D02*
X430000Y290250D01*
X429801Y290254D01*
X429601Y290253D01*
X429402Y290247D01*
X429203Y290236D01*
X429004Y290220D01*
X428805Y290200D01*
X428607Y290175D01*
X428410Y290145D01*
X428214Y290110D01*
X428018Y290070D01*
X427824Y290026D01*
X427630Y289977D01*
X427438Y289924D01*
X427248Y289866D01*
X427058Y289803D01*
X426870Y289735D01*
X426684Y289664D01*
X426500Y289587D01*
X426318Y289507D01*
X426137Y289421D01*
X425959Y289332D01*
X425783Y289238D01*
X425609Y289140D01*
X425438Y289038D01*
X425269Y288932D01*
X425103Y288822D01*
X424939Y288707D01*
X424779Y288589D01*
X424621Y288467D01*
X424466Y288341D01*
X424315Y288212D01*
X424166Y288078D01*
X424021Y287942D01*
X423879Y287802D01*
X423740Y287658D01*
X423605Y287511D01*
X423474Y287361D01*
X423346Y287208D01*
X423222Y287052D01*
X423102Y286892D01*
X422986Y286730D01*
X422874Y286566D01*
X422765Y286398D01*
X422661Y286228D01*
X422561Y286055D01*
X422465Y285881D01*
X422373Y285703D01*
X422286Y285524D01*
X422203Y285343D01*
X422125Y285159D01*
X422050Y284974D01*
X421981Y284787D01*
X421916Y284599D01*
X421855Y284409D01*
X421799Y284217D01*
X421748Y284024D01*
X421702Y283830D01*
X421660Y283635D01*
X421622Y283439D01*
X421590Y283243D01*
X421562Y283045D01*
X421540Y282847D01*
X421522Y282648D01*
X421508Y282449D01*
X421500Y282250D01*
X421500Y241450D01*
X433850Y241450D01*
X434008Y241452D01*
X434167Y241458D01*
X434325Y241468D01*
X434482Y241482D01*
X434640Y241499D01*
X434796Y241521D01*
X434953Y241546D01*
X435108Y241576D01*
X435263Y241609D01*
X435417Y241646D01*
X435570Y241687D01*
X435722Y241732D01*
X435872Y241781D01*
X436022Y241833D01*
X436170Y241889D01*
X436317Y241949D01*
X436462Y242012D01*
X436605Y242079D01*
X436747Y242149D01*
X436887Y242223D01*
X437025Y242301D01*
X437161Y242382D01*
X437295Y242466D01*
X437427Y242553D01*
X437557Y242644D01*
X437684Y242738D01*
X437809Y242835D01*
X437932Y242936D01*
X438052Y243039D01*
X438169Y243145D01*
X438284Y243254D01*
X438396Y243366D01*
X438505Y243481D01*
X438611Y243598D01*
X438714Y243718D01*
X438815Y243841D01*
X438912Y243966D01*
X439006Y244093D01*
X439097Y244223D01*
X439184Y244355D01*
X439268Y244489D01*
X439349Y244625D01*
X439427Y244763D01*
X439501Y244903D01*
X439571Y245045D01*
X439638Y245188D01*
X439701Y245333D01*
X439761Y245480D01*
X439817Y245628D01*
X439869Y245778D01*
X439918Y245928D01*
X439963Y246080D01*
X440004Y246233D01*
X440041Y246387D01*
X440074Y246542D01*
X440104Y246697D01*
X440129Y246854D01*
X440151Y247010D01*
X440168Y247168D01*
X440182Y247325D01*
X440192Y247483D01*
X440198Y247642D01*
X440200Y247800D01*
D16*
X25400Y88900D02*
X25400Y12700D01*
X25400Y88900D02*
X25400Y165100D01*
D17*
X50800Y165100D01*
X127000Y165100D01*
X152400Y165100D01*
D16*
X152400Y88900D01*
X152400Y12700D01*
D17*
X127000Y12700D01*
X50800Y12700D01*
X25400Y12700D01*
X25400Y88900D02*
X152400Y88900D01*
D18*
X60502Y50800D02*
X60511Y51497D01*
X60536Y52193D01*
X60579Y52889D01*
X60639Y53583D01*
X60716Y54276D01*
X60809Y54967D01*
X60920Y55655D01*
X61048Y56340D01*
X61192Y57022D01*
X61353Y57700D01*
X61531Y58374D01*
X61725Y59044D01*
X61935Y59708D01*
X62162Y60367D01*
X62405Y61020D01*
X62664Y61667D01*
X62938Y62308D01*
X63229Y62942D01*
X63534Y63568D01*
X63855Y64187D01*
X64191Y64797D01*
X64542Y65399D01*
X64908Y65993D01*
X65288Y66577D01*
X65682Y67152D01*
X66091Y67717D01*
X66513Y68271D01*
X66948Y68816D01*
X67397Y69349D01*
X67858Y69871D01*
X68333Y70382D01*
X68820Y70880D01*
X69318Y71367D01*
X69829Y71842D01*
X70351Y72303D01*
X70884Y72752D01*
X71429Y73187D01*
X71983Y73609D01*
X72548Y74018D01*
X73123Y74412D01*
X73707Y74792D01*
X74301Y75158D01*
X74903Y75509D01*
X75513Y75845D01*
X76132Y76166D01*
X76758Y76471D01*
X77392Y76762D01*
X78033Y77036D01*
X78680Y77295D01*
X79333Y77538D01*
X79992Y77765D01*
X80656Y77975D01*
X81326Y78169D01*
X82000Y78347D01*
X82678Y78508D01*
X83360Y78652D01*
X84045Y78780D01*
X84733Y78891D01*
X85424Y78984D01*
X86117Y79061D01*
X86811Y79121D01*
X87507Y79164D01*
X88203Y79189D01*
X88900Y79198D01*
X89597Y79189D01*
X90293Y79164D01*
X90989Y79121D01*
X91683Y79061D01*
X92376Y78984D01*
X93067Y78891D01*
X93755Y78780D01*
X94440Y78652D01*
X95122Y78508D01*
X95800Y78347D01*
X96474Y78169D01*
X97144Y77975D01*
X97808Y77765D01*
X98467Y77538D01*
X99120Y77295D01*
X99767Y77036D01*
X100408Y76762D01*
X101042Y76471D01*
X101668Y76166D01*
X102287Y75845D01*
X102897Y75509D01*
X103499Y75158D01*
X104093Y74792D01*
X104677Y74412D01*
X105252Y74018D01*
X105817Y73609D01*
X106371Y73187D01*
X106916Y72752D01*
X107449Y72303D01*
X107971Y71842D01*
X108482Y71367D01*
X108980Y70880D01*
X109467Y70382D01*
X109942Y69871D01*
X110403Y69349D01*
X110852Y68816D01*
X111287Y68271D01*
X111709Y67717D01*
X112118Y67152D01*
X112512Y66577D01*
X112892Y65993D01*
X113258Y65399D01*
X113609Y64797D01*
X113945Y64187D01*
X114266Y63568D01*
X114571Y62942D01*
X114862Y62308D01*
X115136Y61667D01*
X115395Y61020D01*
X115638Y60367D01*
X115865Y59708D01*
X116075Y59044D01*
X116269Y58374D01*
X116447Y57700D01*
X116608Y57022D01*
X116752Y56340D01*
X116880Y55655D01*
X116991Y54967D01*
X117084Y54276D01*
X117161Y53583D01*
X117221Y52889D01*
X117264Y52193D01*
X117289Y51497D01*
X117298Y50800D01*
X117289Y50103D01*
X117264Y49407D01*
X117221Y48711D01*
X117161Y48017D01*
X117084Y47324D01*
X116991Y46633D01*
X116880Y45945D01*
X116752Y45260D01*
X116608Y44578D01*
X116447Y43900D01*
X116269Y43226D01*
X116075Y42556D01*
X115865Y41892D01*
X115638Y41233D01*
X115395Y40580D01*
X115136Y39933D01*
X114862Y39292D01*
X114571Y38658D01*
X114266Y38032D01*
X113945Y37413D01*
X113609Y36803D01*
X113258Y36201D01*
X112892Y35607D01*
X112512Y35023D01*
X112118Y34448D01*
X111709Y33883D01*
X111287Y33329D01*
X110852Y32784D01*
X110403Y32251D01*
X109942Y31729D01*
X109467Y31218D01*
X108980Y30720D01*
X108482Y30233D01*
X107971Y29758D01*
X107449Y29297D01*
X106916Y28848D01*
X106371Y28413D01*
X105817Y27991D01*
X105252Y27582D01*
X104677Y27188D01*
X104093Y26808D01*
X103499Y26442D01*
X102897Y26091D01*
X102287Y25755D01*
X101668Y25434D01*
X101042Y25129D01*
X100408Y24838D01*
X99767Y24564D01*
X99120Y24305D01*
X98467Y24062D01*
X97808Y23835D01*
X97144Y23625D01*
X96474Y23431D01*
X95800Y23253D01*
X95122Y23092D01*
X94440Y22948D01*
X93755Y22820D01*
X93067Y22709D01*
X92376Y22616D01*
X91683Y22539D01*
X90989Y22479D01*
X90293Y22436D01*
X89597Y22411D01*
X88900Y22402D01*
X88203Y22411D01*
X87507Y22436D01*
X86811Y22479D01*
X86117Y22539D01*
X85424Y22616D01*
X84733Y22709D01*
X84045Y22820D01*
X83360Y22948D01*
X82678Y23092D01*
X82000Y23253D01*
X81326Y23431D01*
X80656Y23625D01*
X79992Y23835D01*
X79333Y24062D01*
X78680Y24305D01*
X78033Y24564D01*
X77392Y24838D01*
X76758Y25129D01*
X76132Y25434D01*
X75513Y25755D01*
X74903Y26091D01*
X74301Y26442D01*
X73707Y26808D01*
X73123Y27188D01*
X72548Y27582D01*
X71983Y27991D01*
X71429Y28413D01*
X70884Y28848D01*
X70351Y29297D01*
X69829Y29758D01*
X69318Y30233D01*
X68820Y30720D01*
X68333Y31218D01*
X67858Y31729D01*
X67397Y32251D01*
X66948Y32784D01*
X66513Y33329D01*
X66091Y33883D01*
X65682Y34448D01*
X65288Y35023D01*
X64908Y35607D01*
X64542Y36201D01*
X64191Y36803D01*
X63855Y37413D01*
X63534Y38032D01*
X63229Y38658D01*
X62938Y39292D01*
X62664Y39933D01*
X62405Y40580D01*
X62162Y41233D01*
X61935Y41892D01*
X61725Y42556D01*
X61531Y43226D01*
X61353Y43900D01*
X61192Y44578D01*
X61048Y45260D01*
X60920Y45945D01*
X60809Y46633D01*
X60716Y47324D01*
X60639Y48017D01*
X60579Y48711D01*
X60536Y49407D01*
X60511Y50103D01*
X60502Y50800D01*
X60502Y127000D02*
X60511Y127697D01*
X60536Y128393D01*
X60579Y129089D01*
X60639Y129783D01*
X60716Y130476D01*
X60809Y131167D01*
X60920Y131855D01*
X61048Y132540D01*
X61192Y133222D01*
X61353Y133900D01*
X61531Y134574D01*
X61725Y135244D01*
X61935Y135908D01*
X62162Y136567D01*
X62405Y137220D01*
X62664Y137867D01*
X62938Y138508D01*
X63229Y139142D01*
X63534Y139768D01*
X63855Y140387D01*
X64191Y140997D01*
X64542Y141599D01*
X64908Y142193D01*
X65288Y142777D01*
X65682Y143352D01*
X66091Y143917D01*
X66513Y144471D01*
X66948Y145016D01*
X67397Y145549D01*
X67858Y146071D01*
X68333Y146582D01*
X68820Y147080D01*
X69318Y147567D01*
X69829Y148042D01*
X70351Y148503D01*
X70884Y148952D01*
X71429Y149387D01*
X71983Y149809D01*
X72548Y150218D01*
X73123Y150612D01*
X73707Y150992D01*
X74301Y151358D01*
X74903Y151709D01*
X75513Y152045D01*
X76132Y152366D01*
X76758Y152671D01*
X77392Y152962D01*
X78033Y153236D01*
X78680Y153495D01*
X79333Y153738D01*
X79992Y153965D01*
X80656Y154175D01*
X81326Y154369D01*
X82000Y154547D01*
X82678Y154708D01*
X83360Y154852D01*
X84045Y154980D01*
X84733Y155091D01*
X85424Y155184D01*
X86117Y155261D01*
X86811Y155321D01*
X87507Y155364D01*
X88203Y155389D01*
X88900Y155398D01*
X89597Y155389D01*
X90293Y155364D01*
X90989Y155321D01*
X91683Y155261D01*
X92376Y155184D01*
X93067Y155091D01*
X93755Y154980D01*
X94440Y154852D01*
X95122Y154708D01*
X95800Y154547D01*
X96474Y154369D01*
X97144Y154175D01*
X97808Y153965D01*
X98467Y153738D01*
X99120Y153495D01*
X99767Y153236D01*
X100408Y152962D01*
X101042Y152671D01*
X101668Y152366D01*
X102287Y152045D01*
X102897Y151709D01*
X103499Y151358D01*
X104093Y150992D01*
X104677Y150612D01*
X105252Y150218D01*
X105817Y149809D01*
X106371Y149387D01*
X106916Y148952D01*
X107449Y148503D01*
X107971Y148042D01*
X108482Y147567D01*
X108980Y147080D01*
X109467Y146582D01*
X109942Y146071D01*
X110403Y145549D01*
X110852Y145016D01*
X111287Y144471D01*
X111709Y143917D01*
X112118Y143352D01*
X112512Y142777D01*
X112892Y142193D01*
X113258Y141599D01*
X113609Y140997D01*
X113945Y140387D01*
X114266Y139768D01*
X114571Y139142D01*
X114862Y138508D01*
X115136Y137867D01*
X115395Y137220D01*
X115638Y136567D01*
X115865Y135908D01*
X116075Y135244D01*
X116269Y134574D01*
X116447Y133900D01*
X116608Y133222D01*
X116752Y132540D01*
X116880Y131855D01*
X116991Y131167D01*
X117084Y130476D01*
X117161Y129783D01*
X117221Y129089D01*
X117264Y128393D01*
X117289Y127697D01*
X117298Y127000D01*
X117289Y126303D01*
X117264Y125607D01*
X117221Y124911D01*
X117161Y124217D01*
X117084Y123524D01*
X116991Y122833D01*
X116880Y122145D01*
X116752Y121460D01*
X116608Y120778D01*
X116447Y120100D01*
X116269Y119426D01*
X116075Y118756D01*
X115865Y118092D01*
X115638Y117433D01*
X115395Y116780D01*
X115136Y116133D01*
X114862Y115492D01*
X114571Y114858D01*
X114266Y114232D01*
X113945Y113613D01*
X113609Y113003D01*
X113258Y112401D01*
X112892Y111807D01*
X112512Y111223D01*
X112118Y110648D01*
X111709Y110083D01*
X111287Y109529D01*
X110852Y108984D01*
X110403Y108451D01*
X109942Y107929D01*
X109467Y107418D01*
X108980Y106920D01*
X108482Y106433D01*
X107971Y105958D01*
X107449Y105497D01*
X106916Y105048D01*
X106371Y104613D01*
X105817Y104191D01*
X105252Y103782D01*
X104677Y103388D01*
X104093Y103008D01*
X103499Y102642D01*
X102897Y102291D01*
X102287Y101955D01*
X101668Y101634D01*
X101042Y101329D01*
X100408Y101038D01*
X99767Y100764D01*
X99120Y100505D01*
X98467Y100262D01*
X97808Y100035D01*
X97144Y99825D01*
X96474Y99631D01*
X95800Y99453D01*
X95122Y99292D01*
X94440Y99148D01*
X93755Y99020D01*
X93067Y98909D01*
X92376Y98816D01*
X91683Y98739D01*
X90989Y98679D01*
X90293Y98636D01*
X89597Y98611D01*
X88900Y98602D01*
X88203Y98611D01*
X87507Y98636D01*
X86811Y98679D01*
X86117Y98739D01*
X85424Y98816D01*
X84733Y98909D01*
X84045Y99020D01*
X83360Y99148D01*
X82678Y99292D01*
X82000Y99453D01*
X81326Y99631D01*
X80656Y99825D01*
X79992Y100035D01*
X79333Y100262D01*
X78680Y100505D01*
X78033Y100764D01*
X77392Y101038D01*
X76758Y101329D01*
X76132Y101634D01*
X75513Y101955D01*
X74903Y102291D01*
X74301Y102642D01*
X73707Y103008D01*
X73123Y103388D01*
X72548Y103782D01*
X71983Y104191D01*
X71429Y104613D01*
X70884Y105048D01*
X70351Y105497D01*
X69829Y105958D01*
X69318Y106433D01*
X68820Y106920D01*
X68333Y107418D01*
X67858Y107929D01*
X67397Y108451D01*
X66948Y108984D01*
X66513Y109529D01*
X66091Y110083D01*
X65682Y110648D01*
X65288Y111223D01*
X64908Y111807D01*
X64542Y112401D01*
X64191Y113003D01*
X63855Y113613D01*
X63534Y114232D01*
X63229Y114858D01*
X62938Y115492D01*
X62664Y116133D01*
X62405Y116780D01*
X62162Y117433D01*
X61935Y118092D01*
X61725Y118756D01*
X61531Y119426D01*
X61353Y120100D01*
X61192Y120778D01*
X61048Y121460D01*
X60920Y122145D01*
X60809Y122833D01*
X60716Y123524D01*
X60639Y124217D01*
X60579Y124911D01*
X60536Y125607D01*
X60511Y126303D01*
X60502Y127000D01*
X101600Y76200D02*
X76200Y25400D01*
X76200Y101600D02*
X101600Y152400D01*
X127000Y165100D02*
X127000Y12700D01*
X50800Y12700D02*
X50800Y165100D01*
D19*
X708058Y144936D02*
X719742Y137147D01*
X719742Y144936D02*
X708058Y137147D01*
X708058Y152796D02*
X708060Y152903D01*
X708066Y153009D01*
X708076Y153115D01*
X708089Y153221D01*
X708107Y153327D01*
X708128Y153431D01*
X708153Y153535D01*
X708182Y153638D01*
X708214Y153739D01*
X708251Y153839D01*
X708291Y153938D01*
X708334Y154036D01*
X708381Y154132D01*
X708432Y154226D01*
X708486Y154318D01*
X708543Y154408D01*
X708603Y154496D01*
X708667Y154581D01*
X708734Y154664D01*
X708804Y154745D01*
X708876Y154823D01*
X708952Y154899D01*
X709030Y154971D01*
X709111Y155041D01*
X709194Y155108D01*
X709279Y155172D01*
X709367Y155232D01*
X709457Y155289D01*
X709549Y155343D01*
X709643Y155394D01*
X709739Y155441D01*
X709837Y155484D01*
X709936Y155524D01*
X710036Y155561D01*
X710137Y155593D01*
X710240Y155622D01*
X710344Y155647D01*
X710448Y155668D01*
X710554Y155686D01*
X710660Y155699D01*
X710766Y155709D01*
X710872Y155715D01*
X710979Y155717D01*
X708058Y152796D02*
X708060Y152675D01*
X708066Y152554D01*
X708076Y152434D01*
X708089Y152313D01*
X708107Y152194D01*
X708128Y152074D01*
X708153Y151956D01*
X708182Y151839D01*
X708215Y151722D01*
X708251Y151607D01*
X708292Y151493D01*
X708335Y151380D01*
X708383Y151268D01*
X708434Y151159D01*
X708489Y151051D01*
X708547Y150944D01*
X708608Y150840D01*
X708673Y150738D01*
X708741Y150638D01*
X708812Y150540D01*
X708886Y150444D01*
X708963Y150351D01*
X709044Y150261D01*
X709127Y150173D01*
X709213Y150088D01*
X709302Y150005D01*
X709393Y149926D01*
X709487Y149849D01*
X709583Y149776D01*
X709681Y149706D01*
X709782Y149639D01*
X709885Y149575D01*
X709990Y149515D01*
X710097Y149457D01*
X710205Y149404D01*
X710315Y149354D01*
X710427Y149308D01*
X710540Y149265D01*
X710655Y149226D01*
X713251Y154743D02*
X713173Y154822D01*
X713093Y154898D01*
X713010Y154971D01*
X712924Y155041D01*
X712837Y155108D01*
X712746Y155172D01*
X712654Y155232D01*
X712560Y155290D01*
X712463Y155344D01*
X712365Y155394D01*
X712265Y155441D01*
X712164Y155485D01*
X712061Y155525D01*
X711956Y155561D01*
X711851Y155593D01*
X711744Y155622D01*
X711637Y155647D01*
X711528Y155669D01*
X711419Y155686D01*
X711310Y155700D01*
X711200Y155709D01*
X711089Y155715D01*
X710979Y155717D01*
X713251Y154744D02*
X719742Y149226D01*
X719742Y155717D01*
D12*
X724700Y132050D02*
X724700Y287050D01*
X804700Y287050D01*
X814700Y287050D01*
X814700Y132050D01*
X804700Y132050D01*
X724700Y132050D01*
X804700Y132050D02*
X804700Y287050D01*
X734700Y159550D02*
X734702Y159691D01*
X734708Y159832D01*
X734718Y159972D01*
X734732Y160112D01*
X734750Y160252D01*
X734771Y160391D01*
X734797Y160530D01*
X734826Y160668D01*
X734860Y160804D01*
X734897Y160940D01*
X734938Y161075D01*
X734983Y161209D01*
X735032Y161341D01*
X735084Y161472D01*
X735140Y161601D01*
X735200Y161728D01*
X735263Y161854D01*
X735329Y161978D01*
X735400Y162101D01*
X735473Y162221D01*
X735550Y162339D01*
X735630Y162455D01*
X735714Y162568D01*
X735800Y162679D01*
X735890Y162788D01*
X735983Y162894D01*
X736078Y162997D01*
X736177Y163098D01*
X736278Y163196D01*
X736382Y163291D01*
X736489Y163383D01*
X736598Y163472D01*
X736710Y163557D01*
X736824Y163640D01*
X736940Y163720D01*
X737059Y163796D01*
X737180Y163868D01*
X737302Y163938D01*
X737427Y164003D01*
X737553Y164066D01*
X737681Y164124D01*
X737811Y164179D01*
X737942Y164231D01*
X738075Y164278D01*
X738209Y164322D01*
X738344Y164363D01*
X738480Y164399D01*
X738617Y164431D01*
X738755Y164460D01*
X738893Y164485D01*
X739033Y164505D01*
X739173Y164522D01*
X739313Y164535D01*
X739454Y164544D01*
X739594Y164549D01*
X739735Y164550D01*
X739876Y164547D01*
X740017Y164540D01*
X740157Y164529D01*
X740297Y164514D01*
X740437Y164495D01*
X740576Y164473D01*
X740714Y164446D01*
X740852Y164416D01*
X740988Y164381D01*
X741124Y164343D01*
X741258Y164301D01*
X741392Y164255D01*
X741524Y164206D01*
X741654Y164152D01*
X741783Y164095D01*
X741910Y164035D01*
X742036Y163971D01*
X742159Y163903D01*
X742281Y163832D01*
X742401Y163758D01*
X742518Y163680D01*
X742633Y163599D01*
X742746Y163515D01*
X742857Y163428D01*
X742965Y163337D01*
X743070Y163244D01*
X743173Y163147D01*
X743273Y163048D01*
X743370Y162946D01*
X743464Y162841D01*
X743555Y162734D01*
X743643Y162624D01*
X743728Y162512D01*
X743810Y162397D01*
X743889Y162280D01*
X743964Y162161D01*
X744036Y162040D01*
X744104Y161917D01*
X744169Y161792D01*
X744231Y161665D01*
X744288Y161536D01*
X744343Y161406D01*
X744393Y161275D01*
X744440Y161142D01*
X744483Y161008D01*
X744522Y160872D01*
X744557Y160736D01*
X744589Y160599D01*
X744616Y160461D01*
X744640Y160322D01*
X744660Y160182D01*
X744676Y160042D01*
X744688Y159902D01*
X744696Y159761D01*
X744700Y159620D01*
X744700Y159480D01*
X744696Y159339D01*
X744688Y159198D01*
X744676Y159058D01*
X744660Y158918D01*
X744640Y158778D01*
X744616Y158639D01*
X744589Y158501D01*
X744557Y158364D01*
X744522Y158228D01*
X744483Y158092D01*
X744440Y157958D01*
X744393Y157825D01*
X744343Y157694D01*
X744288Y157564D01*
X744231Y157435D01*
X744169Y157308D01*
X744104Y157183D01*
X744036Y157060D01*
X743964Y156939D01*
X743889Y156820D01*
X743810Y156703D01*
X743728Y156588D01*
X743643Y156476D01*
X743555Y156366D01*
X743464Y156259D01*
X743370Y156154D01*
X743273Y156052D01*
X743173Y155953D01*
X743070Y155856D01*
X742965Y155763D01*
X742857Y155672D01*
X742746Y155585D01*
X742633Y155501D01*
X742518Y155420D01*
X742401Y155342D01*
X742281Y155268D01*
X742159Y155197D01*
X742036Y155129D01*
X741910Y155065D01*
X741783Y155005D01*
X741654Y154948D01*
X741524Y154894D01*
X741392Y154845D01*
X741258Y154799D01*
X741124Y154757D01*
X740988Y154719D01*
X740852Y154684D01*
X740714Y154654D01*
X740576Y154627D01*
X740437Y154605D01*
X740297Y154586D01*
X740157Y154571D01*
X740017Y154560D01*
X739876Y154553D01*
X739735Y154550D01*
X739594Y154551D01*
X739454Y154556D01*
X739313Y154565D01*
X739173Y154578D01*
X739033Y154595D01*
X738893Y154615D01*
X738755Y154640D01*
X738617Y154669D01*
X738480Y154701D01*
X738344Y154737D01*
X738209Y154778D01*
X738075Y154822D01*
X737942Y154869D01*
X737811Y154921D01*
X737681Y154976D01*
X737553Y155034D01*
X737427Y155097D01*
X737302Y155162D01*
X737180Y155232D01*
X737059Y155304D01*
X736940Y155380D01*
X736824Y155460D01*
X736710Y155543D01*
X736598Y155628D01*
X736489Y155717D01*
X736382Y155809D01*
X736278Y155904D01*
X736177Y156002D01*
X736078Y156103D01*
X735983Y156206D01*
X735890Y156312D01*
X735800Y156421D01*
X735714Y156532D01*
X735630Y156645D01*
X735550Y156761D01*
X735473Y156879D01*
X735400Y156999D01*
X735329Y157122D01*
X735263Y157246D01*
X735200Y157372D01*
X735140Y157499D01*
X735084Y157628D01*
X735032Y157759D01*
X734983Y157891D01*
X734938Y158025D01*
X734897Y158160D01*
X734860Y158296D01*
X734826Y158432D01*
X734797Y158570D01*
X734771Y158709D01*
X734750Y158848D01*
X734732Y158988D01*
X734718Y159128D01*
X734708Y159268D01*
X734702Y159409D01*
X734700Y159550D01*
X734700Y209550D02*
X734702Y209691D01*
X734708Y209832D01*
X734718Y209972D01*
X734732Y210112D01*
X734750Y210252D01*
X734771Y210391D01*
X734797Y210530D01*
X734826Y210668D01*
X734860Y210804D01*
X734897Y210940D01*
X734938Y211075D01*
X734983Y211209D01*
X735032Y211341D01*
X735084Y211472D01*
X735140Y211601D01*
X735200Y211728D01*
X735263Y211854D01*
X735329Y211978D01*
X735400Y212101D01*
X735473Y212221D01*
X735550Y212339D01*
X735630Y212455D01*
X735714Y212568D01*
X735800Y212679D01*
X735890Y212788D01*
X735983Y212894D01*
X736078Y212997D01*
X736177Y213098D01*
X736278Y213196D01*
X736382Y213291D01*
X736489Y213383D01*
X736598Y213472D01*
X736710Y213557D01*
X736824Y213640D01*
X736940Y213720D01*
X737059Y213796D01*
X737180Y213868D01*
X737302Y213938D01*
X737427Y214003D01*
X737553Y214066D01*
X737681Y214124D01*
X737811Y214179D01*
X737942Y214231D01*
X738075Y214278D01*
X738209Y214322D01*
X738344Y214363D01*
X738480Y214399D01*
X738617Y214431D01*
X738755Y214460D01*
X738893Y214485D01*
X739033Y214505D01*
X739173Y214522D01*
X739313Y214535D01*
X739454Y214544D01*
X739594Y214549D01*
X739735Y214550D01*
X739876Y214547D01*
X740017Y214540D01*
X740157Y214529D01*
X740297Y214514D01*
X740437Y214495D01*
X740576Y214473D01*
X740714Y214446D01*
X740852Y214416D01*
X740988Y214381D01*
X741124Y214343D01*
X741258Y214301D01*
X741392Y214255D01*
X741524Y214206D01*
X741654Y214152D01*
X741783Y214095D01*
X741910Y214035D01*
X742036Y213971D01*
X742159Y213903D01*
X742281Y213832D01*
X742401Y213758D01*
X742518Y213680D01*
X742633Y213599D01*
X742746Y213515D01*
X742857Y213428D01*
X742965Y213337D01*
X743070Y213244D01*
X743173Y213147D01*
X743273Y213048D01*
X743370Y212946D01*
X743464Y212841D01*
X743555Y212734D01*
X743643Y212624D01*
X743728Y212512D01*
X743810Y212397D01*
X743889Y212280D01*
X743964Y212161D01*
X744036Y212040D01*
X744104Y211917D01*
X744169Y211792D01*
X744231Y211665D01*
X744288Y211536D01*
X744343Y211406D01*
X744393Y211275D01*
X744440Y211142D01*
X744483Y211008D01*
X744522Y210872D01*
X744557Y210736D01*
X744589Y210599D01*
X744616Y210461D01*
X744640Y210322D01*
X744660Y210182D01*
X744676Y210042D01*
X744688Y209902D01*
X744696Y209761D01*
X744700Y209620D01*
X744700Y209480D01*
X744696Y209339D01*
X744688Y209198D01*
X744676Y209058D01*
X744660Y208918D01*
X744640Y208778D01*
X744616Y208639D01*
X744589Y208501D01*
X744557Y208364D01*
X744522Y208228D01*
X744483Y208092D01*
X744440Y207958D01*
X744393Y207825D01*
X744343Y207694D01*
X744288Y207564D01*
X744231Y207435D01*
X744169Y207308D01*
X744104Y207183D01*
X744036Y207060D01*
X743964Y206939D01*
X743889Y206820D01*
X743810Y206703D01*
X743728Y206588D01*
X743643Y206476D01*
X743555Y206366D01*
X743464Y206259D01*
X743370Y206154D01*
X743273Y206052D01*
X743173Y205953D01*
X743070Y205856D01*
X742965Y205763D01*
X742857Y205672D01*
X742746Y205585D01*
X742633Y205501D01*
X742518Y205420D01*
X742401Y205342D01*
X742281Y205268D01*
X742159Y205197D01*
X742036Y205129D01*
X741910Y205065D01*
X741783Y205005D01*
X741654Y204948D01*
X741524Y204894D01*
X741392Y204845D01*
X741258Y204799D01*
X741124Y204757D01*
X740988Y204719D01*
X740852Y204684D01*
X740714Y204654D01*
X740576Y204627D01*
X740437Y204605D01*
X740297Y204586D01*
X740157Y204571D01*
X740017Y204560D01*
X739876Y204553D01*
X739735Y204550D01*
X739594Y204551D01*
X739454Y204556D01*
X739313Y204565D01*
X739173Y204578D01*
X739033Y204595D01*
X738893Y204615D01*
X738755Y204640D01*
X738617Y204669D01*
X738480Y204701D01*
X738344Y204737D01*
X738209Y204778D01*
X738075Y204822D01*
X737942Y204869D01*
X737811Y204921D01*
X737681Y204976D01*
X737553Y205034D01*
X737427Y205097D01*
X737302Y205162D01*
X737180Y205232D01*
X737059Y205304D01*
X736940Y205380D01*
X736824Y205460D01*
X736710Y205543D01*
X736598Y205628D01*
X736489Y205717D01*
X736382Y205809D01*
X736278Y205904D01*
X736177Y206002D01*
X736078Y206103D01*
X735983Y206206D01*
X735890Y206312D01*
X735800Y206421D01*
X735714Y206532D01*
X735630Y206645D01*
X735550Y206761D01*
X735473Y206879D01*
X735400Y206999D01*
X735329Y207122D01*
X735263Y207246D01*
X735200Y207372D01*
X735140Y207499D01*
X735084Y207628D01*
X735032Y207759D01*
X734983Y207891D01*
X734938Y208025D01*
X734897Y208160D01*
X734860Y208296D01*
X734826Y208432D01*
X734797Y208570D01*
X734771Y208709D01*
X734750Y208848D01*
X734732Y208988D01*
X734718Y209128D01*
X734708Y209268D01*
X734702Y209409D01*
X734700Y209550D01*
X734700Y259550D02*
X734702Y259691D01*
X734708Y259832D01*
X734718Y259972D01*
X734732Y260112D01*
X734750Y260252D01*
X734771Y260391D01*
X734797Y260530D01*
X734826Y260668D01*
X734860Y260804D01*
X734897Y260940D01*
X734938Y261075D01*
X734983Y261209D01*
X735032Y261341D01*
X735084Y261472D01*
X735140Y261601D01*
X735200Y261728D01*
X735263Y261854D01*
X735329Y261978D01*
X735400Y262101D01*
X735473Y262221D01*
X735550Y262339D01*
X735630Y262455D01*
X735714Y262568D01*
X735800Y262679D01*
X735890Y262788D01*
X735983Y262894D01*
X736078Y262997D01*
X736177Y263098D01*
X736278Y263196D01*
X736382Y263291D01*
X736489Y263383D01*
X736598Y263472D01*
X736710Y263557D01*
X736824Y263640D01*
X736940Y263720D01*
X737059Y263796D01*
X737180Y263868D01*
X737302Y263938D01*
X737427Y264003D01*
X737553Y264066D01*
X737681Y264124D01*
X737811Y264179D01*
X737942Y264231D01*
X738075Y264278D01*
X738209Y264322D01*
X738344Y264363D01*
X738480Y264399D01*
X738617Y264431D01*
X738755Y264460D01*
X738893Y264485D01*
X739033Y264505D01*
X739173Y264522D01*
X739313Y264535D01*
X739454Y264544D01*
X739594Y264549D01*
X739735Y264550D01*
X739876Y264547D01*
X740017Y264540D01*
X740157Y264529D01*
X740297Y264514D01*
X740437Y264495D01*
X740576Y264473D01*
X740714Y264446D01*
X740852Y264416D01*
X740988Y264381D01*
X741124Y264343D01*
X741258Y264301D01*
X741392Y264255D01*
X741524Y264206D01*
X741654Y264152D01*
X741783Y264095D01*
X741910Y264035D01*
X742036Y263971D01*
X742159Y263903D01*
X742281Y263832D01*
X742401Y263758D01*
X742518Y263680D01*
X742633Y263599D01*
X742746Y263515D01*
X742857Y263428D01*
X742965Y263337D01*
X743070Y263244D01*
X743173Y263147D01*
X743273Y263048D01*
X743370Y262946D01*
X743464Y262841D01*
X743555Y262734D01*
X743643Y262624D01*
X743728Y262512D01*
X743810Y262397D01*
X743889Y262280D01*
X743964Y262161D01*
X744036Y262040D01*
X744104Y261917D01*
X744169Y261792D01*
X744231Y261665D01*
X744288Y261536D01*
X744343Y261406D01*
X744393Y261275D01*
X744440Y261142D01*
X744483Y261008D01*
X744522Y260872D01*
X744557Y260736D01*
X744589Y260599D01*
X744616Y260461D01*
X744640Y260322D01*
X744660Y260182D01*
X744676Y260042D01*
X744688Y259902D01*
X744696Y259761D01*
X744700Y259620D01*
X744700Y259480D01*
X744696Y259339D01*
X744688Y259198D01*
X744676Y259058D01*
X744660Y258918D01*
X744640Y258778D01*
X744616Y258639D01*
X744589Y258501D01*
X744557Y258364D01*
X744522Y258228D01*
X744483Y258092D01*
X744440Y257958D01*
X744393Y257825D01*
X744343Y257694D01*
X744288Y257564D01*
X744231Y257435D01*
X744169Y257308D01*
X744104Y257183D01*
X744036Y257060D01*
X743964Y256939D01*
X743889Y256820D01*
X743810Y256703D01*
X743728Y256588D01*
X743643Y256476D01*
X743555Y256366D01*
X743464Y256259D01*
X743370Y256154D01*
X743273Y256052D01*
X743173Y255953D01*
X743070Y255856D01*
X742965Y255763D01*
X742857Y255672D01*
X742746Y255585D01*
X742633Y255501D01*
X742518Y255420D01*
X742401Y255342D01*
X742281Y255268D01*
X742159Y255197D01*
X742036Y255129D01*
X741910Y255065D01*
X741783Y255005D01*
X741654Y254948D01*
X741524Y254894D01*
X741392Y254845D01*
X741258Y254799D01*
X741124Y254757D01*
X740988Y254719D01*
X740852Y254684D01*
X740714Y254654D01*
X740576Y254627D01*
X740437Y254605D01*
X740297Y254586D01*
X740157Y254571D01*
X740017Y254560D01*
X739876Y254553D01*
X739735Y254550D01*
X739594Y254551D01*
X739454Y254556D01*
X739313Y254565D01*
X739173Y254578D01*
X739033Y254595D01*
X738893Y254615D01*
X738755Y254640D01*
X738617Y254669D01*
X738480Y254701D01*
X738344Y254737D01*
X738209Y254778D01*
X738075Y254822D01*
X737942Y254869D01*
X737811Y254921D01*
X737681Y254976D01*
X737553Y255034D01*
X737427Y255097D01*
X737302Y255162D01*
X737180Y255232D01*
X737059Y255304D01*
X736940Y255380D01*
X736824Y255460D01*
X736710Y255543D01*
X736598Y255628D01*
X736489Y255717D01*
X736382Y255809D01*
X736278Y255904D01*
X736177Y256002D01*
X736078Y256103D01*
X735983Y256206D01*
X735890Y256312D01*
X735800Y256421D01*
X735714Y256532D01*
X735630Y256645D01*
X735550Y256761D01*
X735473Y256879D01*
X735400Y256999D01*
X735329Y257122D01*
X735263Y257246D01*
X735200Y257372D01*
X735140Y257499D01*
X735084Y257628D01*
X735032Y257759D01*
X734983Y257891D01*
X734938Y258025D01*
X734897Y258160D01*
X734860Y258296D01*
X734826Y258432D01*
X734797Y258570D01*
X734771Y258709D01*
X734750Y258848D01*
X734732Y258988D01*
X734718Y259128D01*
X734708Y259268D01*
X734702Y259409D01*
X734700Y259550D01*
M02*
