  0
SECTION
  2
HEADER
  9
$ACADVER
  1
AC1009
  9
$FILLMODE
 70
0
  9
$EXTMIN
 10
-11.1969
 20
-0.5080
 30
0.0000
  9
$EXTMAX
 10
137.1833
 20
87.0874
 30
0.0000
  0
ENDSEC
  0
SECTION
  2
TABLES
  0
TABLE
  2
LTYPE
 70
1
  0
LTYPE
  2
CONTINUOUS
 70
64
  3
Solid line
 72
65
 73
0
 40
0
  0
ENDTAB
  0
TABLE
  2
LAYER
 70
255
  0
LAYER
  2
17
 70
64
 62
82
  6
CONTINUOUS
  0
LAYER
  2
20
 70
64
 62
7
  6
CONTINUOUS
  0
LAYER
  2
45
 70
64
 62
253
  6
CONTINUOUS
  0
LAYER
  2
200
 70
64
 62
175
  6
CONTINUOUS
  0
ENDTAB
  0
ENDSEC
  0
SECTION
  2
BLOCKS
  0
BLOCK
  8
0
  2
RECT
 70
64
 10
0.0000
 20
0.0000
 30
0.0000
  3
RECT
  0
SOLID
  8
0
 10
-0.5000
 20
-0.5000
 30
0.0000
 11
0.5000
 21
-0.5000
 31
0.0000
 12
-0.5000
 22
0.5000
 32
0.0000
 13
0.5000
 23
0.5000
 33
0.0000
  0
ENDBLK
  8
0
  0
BLOCK
  8
0
  2
PIE
 70
64
 10
0.0000
 20
0.0000
 30
0.0000
  3
PIE
  0
CIRCLE
  8
0
 10
0.0000
 20
0.0000
 30
0.0000
 40
0.5000
  0
ENDBLK
  8
0
  0
BLOCK
  8
0
  2
OCTAGONP
 70
64
 10
0.0000
 20
0.0000
 30
0.0000
  3
OCTAGONP
  0
POLYLINE
  8
0
 66
1
 10
0.0000
 20
0.0000
 30
0.0000
 40
0.0000
 41
0.0000
 70
1
  0
VERTEX
  8
0
 10
-0.5000
 20
-0.2071
 30
0.0000
  0
VERTEX
  8
0
 10
-0.5000
 20
0.2071
 30
0.0000
  0
VERTEX
  8
0
 10
-0.2071
 20
0.5000
 30
0.0000
  0
VERTEX
  8
0
 10
0.2071
 20
0.5000
 30
0.0000
  0
VERTEX
  8
0
 10
0.5000
 20
0.2071
 30
0.0000
  0
VERTEX
  8
0
 10
0.5000
 20
-0.2071
 30
0.0000
  0
VERTEX
  8
0
 10
0.2071
 20
-0.5000
 30
0.0000
  0
VERTEX
  8
0
 10
-0.2071
 20
-0.5000
 30
0.0000
  0
SEQEND
  8
0
  0
ENDBLK
  8
0
  0
BLOCK
  8
0
  2
SQUAREP
 70
64
 10
0.0000
 20
0.0000
 30
0.0000
  3
SQUAREP
  0
SOLID
  8
0
 10
-0.5000
 20
-0.5000
 30
0.0000
 11
0.5000
 21
-0.5000
 31
0.0000
 12
-0.5000
 22
0.5000
 32
0.0000
 13
0.5000
 23
0.5000
 33
0.0000
  0
ENDBLK
  8
0
  0
BLOCK
  8
0
  2
ROUNDP
 70
64
 10
0.0000
 20
0.0000
 30
0.0000
  3
ROUNDP
  0
CIRCLE
  8
0
 10
0.0000
 20
0.0000
 30
0.0000
 40
0.5000
  0
ENDBLK
  8
0
  0
BLOCK
  8
0
  2
ANNULUSP
 70
64
 10
0.0000
 20
0.0000
 30
0.0000
  3
ANNULUSP
  0
CIRCLE
  8
0
 10
0.0000
 20
0.0000
 30
0.0000
 40
0.5000
  0
ENDBLK
  8
0
  0
BLOCK
  8
0
  2
THERMALP
 70
64
 10
0.0000
 20
0.0000
 30
0.0000
  3
THERMALP
  0
POLYLINE
  8
0
 66
1
 10
0.0000
 20
0.0000
 30
0.0000
 40
0.0000
 41
0.0000
 70
1
  0
VERTEX
  8
0
 10
-0.2379
 20
0.4000
 30
0.0000
  0
VERTEX
  8
0
 10
0.2379
 20
0.4000
 30
0.0000
 42
1.0000
  0
VERTEX
  8
0
 10
0.2379
 20
0.5000
 30
0.0000
  0
VERTEX
  8
0
 10
-0.2379
 20
0.5000
 30
0.0000
 42
1.0000
  0
SEQEND
  8
0
  0
POLYLINE
  8
0
 66
1
 10
0.0000
 20
0.0000
 30
0.0000
 40
0.0000
 41
0.0000
 70
1
  0
VERTEX
  8
0
 10
0.4000
 20
0.2379
 30
0.0000
  0
VERTEX
  8
0
 10
0.4000
 20
-0.2379
 30
0.0000
 42
1.0000
  0
VERTEX
  8
0
 10
0.5000
 20
-0.2379
 30
0.0000
  0
VERTEX
  8
0
 10
0.5000
 20
0.2379
 30
0.0000
 42
1.0000
  0
SEQEND
  8
0
  0
POLYLINE
  8
0
 66
1
 10
0.0000
 20
0.0000
 30
0.0000
 40
0.0000
 41
0.0000
 70
1
  0
VERTEX
  8
0
 10
0.2379
 20
-0.4000
 30
0.0000
  0
VERTEX
  8
0
 10
-0.2379
 20
-0.4000
 30
0.0000
 42
1.0000
  0
VERTEX
  8
0
 10
-0.2379
 20
-0.5000
 30
0.0000
  0
VERTEX
  8
0
 10
0.2379
 20
-0.5000
 30
0.0000
 42
1.0000
  0
SEQEND
  8
0
  0
POLYLINE
  8
0
 66
1
 10
0.0000
 20
0.0000
 30
0.0000
 40
0.0000
 41
0.0000
 70
1
  0
VERTEX
  8
0
 10
-0.4000
 20
-0.2379
 30
0.0000
  0
VERTEX
  8
0
 10
-0.4000
 20
0.2379
 30
0.0000
 42
1.0000
  0
VERTEX
  8
0
 10
-0.5000
 20
0.2379
 30
0.0000
  0
VERTEX
  8
0
 10
-0.5000
 20
-0.2379
 30
0.0000
 42
1.0000
  0
SEQEND
  8
0
  0
ENDBLK
  8
0
  0
BLOCK
  8
0
  2
OCTAGONV
 70
64
 10
0.0000
 20
0.0000
 30
0.0000
  3
OCTAGONV
  0
POLYLINE
  8
0
 66
1
 10
0.0000
 20
0.0000
 30
0.0000
 40
0.0000
 41
0.0000
 70
1
  0
VERTEX
  8
0
 10
-0.5000
 20
-0.2071
 30
0.0000
  0
VERTEX
  8
0
 10
-0.5000
 20
0.2071
 30
0.0000
  0
VERTEX
  8
0
 10
-0.2071
 20
0.5000
 30
0.0000
  0
VERTEX
  8
0
 10
0.2071
 20
0.5000
 30
0.0000
  0
VERTEX
  8
0
 10
0.5000
 20
0.2071
 30
0.0000
  0
VERTEX
  8
0
 10
0.5000
 20
-0.2071
 30
0.0000
  0
VERTEX
  8
0
 10
0.2071
 20
-0.5000
 30
0.0000
  0
VERTEX
  8
0
 10
-0.2071
 20
-0.5000
 30
0.0000
  0
SEQEND
  8
0
  0
ENDBLK
  8
0
  0
BLOCK
  8
0
  2
SQUAREV
 70
64
 10
0.0000
 20
0.0000
 30
0.0000
  3
SQUAREV
  0
SOLID
  8
0
 10
-0.5000
 20
-0.5000
 30
0.0000
 11
0.5000
 21
-0.5000
 31
0.0000
 12
-0.5000
 22
0.5000
 32
0.0000
 13
0.5000
 23
0.5000
 33
0.0000
  0
ENDBLK
  8
0
  0
BLOCK
  8
0
  2
ROUNDV
 70
64
 10
0.0000
 20
0.0000
 30
0.0000
  3
ROUNDV
  0
CIRCLE
  8
0
 10
0.0000
 20
0.0000
 30
0.0000
 40
0.5000
  0
ENDBLK
  8
0
  0
BLOCK
  8
0
  2
ANNULUSV
 70
64
 10
0.0000
 20
0.0000
 30
0.0000
  3
ANNULUSV
  0
CIRCLE
  8
0
 10
0.0000
 20
0.0000
 30
0.0000
 40
0.5000
  0
ENDBLK
  8
0
  0
BLOCK
  8
0
  2
THERMALV
 70
64
 10
0.0000
 20
0.0000
 30
0.0000
  3
THERMALV
  0
POLYLINE
  8
0
 66
1
 10
0.0000
 20
0.0000
 30
0.0000
 40
0.0000
 41
0.0000
 70
1
  0
VERTEX
  8
0
 10
-0.2379
 20
0.4000
 30
0.0000
  0
VERTEX
  8
0
 10
0.2379
 20
0.4000
 30
0.0000
 42
1.0000
  0
VERTEX
  8
0
 10
0.2379
 20
0.5000
 30
0.0000
  0
VERTEX
  8
0
 10
-0.2379
 20
0.5000
 30
0.0000
 42
1.0000
  0
SEQEND
  8
0
  0
POLYLINE
  8
0
 66
1
 10
0.0000
 20
0.0000
 30
0.0000
 40
0.0000
 41
0.0000
 70
1
  0
VERTEX
  8
0
 10
0.4000
 20
0.2379
 30
0.0000
  0
VERTEX
  8
0
 10
0.4000
 20
-0.2379
 30
0.0000
 42
1.0000
  0
VERTEX
  8
0
 10
0.5000
 20
-0.2379
 30
0.0000
  0
VERTEX
  8
0
 10
0.5000
 20
0.2379
 30
0.0000
 42
1.0000
  0
SEQEND
  8
0
  0
POLYLINE
  8
0
 66
1
 10
0.0000
 20
0.0000
 30
0.0000
 40
0.0000
 41
0.0000
 70
1
  0
VERTEX
  8
0
 10
0.2379
 20
-0.4000
 30
0.0000
  0
VERTEX
  8
0
 10
-0.2379
 20
-0.4000
 30
0.0000
 42
1.0000
  0
VERTEX
  8
0
 10
-0.2379
 20
-0.5000
 30
0.0000
  0
VERTEX
  8
0
 10
0.2379
 20
-0.5000
 30
0.0000
 42
1.0000
  0
SEQEND
  8
0
  0
POLYLINE
  8
0
 66
1
 10
0.0000
 20
0.0000
 30
0.0000
 40
0.0000
 41
0.0000
 70
1
  0
VERTEX
  8
0
 10
-0.4000
 20
-0.2379
 30
0.0000
  0
VERTEX
  8
0
 10
-0.4000
 20
0.2379
 30
0.0000
 42
1.0000
  0
VERTEX
  8
0
 10
-0.5000
 20
0.2379
 30
0.0000
  0
VERTEX
  8
0
 10
-0.5000
 20
-0.2379
 30
0.0000
 42
1.0000
  0
SEQEND
  8
0
  0
ENDBLK
  8
0
  0
BLOCK
  8
0
  2
LONGP100
 70
64
 10
0.0000
 20
0.0000
 30
0.0000
  3
LONGP100
  0
POLYLINE
  8
0
 66
1
 10
0.0000
 20
0.0000
 30
0.0000
 40
0.0000
 41
0.0000
 70
1
  0
VERTEX
  8
0
 10
-0.5000
 20
-0.5000
 30
0.0000
  0
VERTEX
  8
0
 10
0.5000
 20
-0.5000
 30
0.0000
 42
1.0000
  0
VERTEX
  8
0
 10
0.5000
 20
0.5000
 30
0.0000
  0
VERTEX
  8
0
 10
-0.5000
 20
0.5000
 30
0.0000
 42
1.0000
  0
SEQEND
  8
0
  0
ENDBLK
  8
0
  0
BLOCK
  8
0
  2
OFFSETP100
 70
64
 10
0.0000
 20
0.0000
 30
0.0000
  3
OFFSETP100
  0
POLYLINE
  8
0
 66
1
 10
0.0000
 20
0.0000
 30
0.0000
 40
0.0000
 41
0.0000
 70
1
  0
VERTEX
  8
0
 10
0.0000
 20
-0.5000
 30
0.0000
  0
VERTEX
  8
0
 10
1.0000
 20
-0.5000
 30
0.0000
 42
1.0000
  0
VERTEX
  8
0
 10
1.0000
 20
0.5000
 30
0.0000
  0
VERTEX
  8
0
 10
0.0000
 20
0.5000
 30
0.0000
 42
1.0000
  0
SEQEND
  8
0
  0
ENDBLK
  8
0
  0
ENDSEC
  0
SECTION
  2
ENTITIES
  0
POLYLINE
  8
20
 66
1
 10
0.0000
 20
0.0000
 30
0.0000
 40
0.0000
 41
0.0000
 70
1
  0
VERTEX
  8
20
 10
0.0000
 20
-0.1270
 30
0.0000
  0
VERTEX
  8
20
 10
135.8700
 20
-0.1270
 30
0.0000
 42
1.0000
  0
VERTEX
  8
20
 10
135.8700
 20
0.1270
 30
0.0000
  0
VERTEX
  8
20
 10
0.0000
 20
0.1270
 30
0.0000
 42
1.0000
  0
SEQEND
  8
0
  0
POLYLINE
  8
20
 66
1
 10
0.0000
 20
0.0000
 30
0.0000
 40
0.0000
 41
0.0000
 70
1
  0
VERTEX
  8
20
 10
135.9970
 20
0.0000
 30
0.0000
  0
VERTEX
  8
20
 10
135.9970
 20
86.0300
 30
0.0000
 42
1.0000
  0
VERTEX
  8
20
 10
135.7430
 20
86.0300
 30
0.0000
  0
VERTEX
  8
20
 10
135.7430
 20
0.0000
 30
0.0000
 42
1.0000
  0
SEQEND
  8
0
  0
POLYLINE
  8
20
 66
1
 10
0.0000
 20
0.0000
 30
0.0000
 40
0.0000
 41
0.0000
 70
1
  0
VERTEX
  8
20
 10
135.8700
 20
86.1570
 30
0.0000
  0
VERTEX
  8
20
 10
0.0000
 20
86.1570
 30
0.0000
 42
1.0000
  0
VERTEX
  8
20
 10
0.0000
 20
85.9030
 30
0.0000
  0
VERTEX
  8
20
 10
135.8700
 20
85.9030
 30
0.0000
 42
1.0000
  0
SEQEND
  8
0
  0
POLYLINE
  8
20
 66
1
 10
0.0000
 20
0.0000
 30
0.0000
 40
0.0000
 41
0.0000
 70
1
  0
VERTEX
  8
20
 10
-0.1270
 20
86.0300
 30
0.0000
  0
VERTEX
  8
20
 10
-0.1270
 20
0.0000
 30
0.0000
 42
1.0000
  0
VERTEX
  8
20
 10
0.1270
 20
0.0000
 30
0.0000
  0
VERTEX
  8
20
 10
0.1270
 20
86.0300
 30
0.0000
 42
1.0000
  0
SEQEND
  8
0
  0
CIRCLE
  8
20
 10
13.9700
 20
62.2300
 30
0.0000
 40
1.6000
  0
CIRCLE
  8
20
 10
130.8100
 20
82.5500
 30
0.0000
 40
1.6000
  0
CIRCLE
  8
20
 10
52.7050
 20
11.4300
 30
0.0000
 40
1.6000
  0
INSERT
  8
17
  2
LONGP100
 10
19.0500
 20
17.7800
 30
0.0000
 41
2.5400
 42
2.5400
 43
1.0000
 50
270.0000
  0
INSERT
  8
17
  2
LONGP100
 10
19.0500
 20
17.7800
 30
0.0000
 41
2.5400
 42
2.5400
 43
1.0000
 50
270.0000
  0
INSERT
  8
17
  2
LONGP100
 10
3.8100
 20
17.7800
 30
0.0000
 41
2.5400
 42
2.5400
 43
1.0000
 50
270.0000
  0
INSERT
  8
17
  2
LONGP100
 10
3.8100
 20
17.7800
 30
0.0000
 41
2.5400
 42
2.5400
 43
1.0000
 50
270.0000
  0
INSERT
  8
17
  2
LONGP100
 10
8.8900
 20
17.7800
 30
0.0000
 41
2.5400
 42
2.5400
 43
1.0000
 50
270.0000
  0
INSERT
  8
17
  2
LONGP100
 10
8.8900
 20
17.7800
 30
0.0000
 41
2.5400
 42
2.5400
 43
1.0000
 50
270.0000
  0
INSERT
  8
17
  2
LONGP100
 10
13.9700
 20
17.7800
 30
0.0000
 41
2.5400
 42
2.5400
 43
1.0000
 50
270.0000
  0
INSERT
  8
17
  2
LONGP100
 10
13.9700
 20
17.7800
 30
0.0000
 41
2.5400
 42
2.5400
 43
1.0000
 50
270.0000
  0
INSERT
  8
17
  2
ROUNDP
 10
38.1000
 20
21.5900
 30
0.0000
 41
4.5974
 42
4.5974
 43
1.0000
 50
90.0000
  0
INSERT
  8
17
  2
ROUNDP
 10
38.1000
 20
21.5900
 30
0.0000
 41
4.5974
 42
4.5974
 43
1.0000
 50
90.0000
  0
INSERT
  8
17
  2
OCTAGONP
 10
38.1000
 20
31.7500
 30
0.0000
 41
4.5974
 42
4.5974
 43
1.0000
 50
90.0000
  0
INSERT
  8
17
  2
OCTAGONP
 10
38.1000
 20
31.7500
 30
0.0000
 41
4.5974
 42
4.5974
 43
1.0000
 50
90.0000
  0
INSERT
  8
17
  2
OCTAGONP
 10
43.3070
 20
5.0800
 30
0.0000
 41
1.7780
 42
1.7780
 43
1.0000
 50
0.0000
  0
INSERT
  8
17
  2
OCTAGONP
 10
43.3070
 20
5.0800
 30
0.0000
 41
1.7780
 42
1.7780
 43
1.0000
 50
0.0000
  0
INSERT
  8
17
  2
OCTAGONP
 10
65.9130
 20
5.0800
 30
0.0000
 41
1.7780
 42
1.7780
 43
1.0000
 50
0.0000
  0
INSERT
  8
17
  2
OCTAGONP
 10
65.9130
 20
5.0800
 30
0.0000
 41
1.7780
 42
1.7780
 43
1.0000
 50
0.0000
  0
INSERT
  8
17
  2
OCTAGONP
 10
62.2300
 20
11.5570
 30
0.0000
 41
1.7780
 42
1.7780
 43
1.0000
 50
90.0000
  0
INSERT
  8
17
  2
OCTAGONP
 10
62.2300
 20
11.5570
 30
0.0000
 41
1.7780
 42
1.7780
 43
1.0000
 50
90.0000
  0
INSERT
  8
17
  2
OCTAGONP
 10
62.2300
 20
34.1630
 30
0.0000
 41
1.7780
 42
1.7780
 43
1.0000
 50
90.0000
  0
INSERT
  8
17
  2
OCTAGONP
 10
62.2300
 20
34.1630
 30
0.0000
 41
1.7780
 42
1.7780
 43
1.0000
 50
90.0000
  0
INSERT
  8
17
  2
OCTAGONP
 10
10.1600
 20
45.7200
 30
0.0000
 41
1.6764
 42
1.6764
 43
1.0000
 50
0.0000
  0
INSERT
  8
17
  2
OCTAGONP
 10
10.1600
 20
45.7200
 30
0.0000
 41
1.6764
 42
1.6764
 43
1.0000
 50
0.0000
  0
INSERT
  8
17
  2
SQUAREP
 10
12.7000
 20
45.7200
 30
0.0000
 41
1.6764
 42
1.6764
 43
1.0000
 50
0.0000
  0
INSERT
  8
17
  2
SQUAREP
 10
12.7000
 20
45.7200
 30
0.0000
 41
1.6764
 42
1.6764
 43
1.0000
 50
0.0000
  0
INSERT
  8
17
  2
OCTAGONP
 10
82.5500
 20
36.8300
 30
0.0000
 41
1.6764
 42
1.6764
 43
1.0000
 50
0.0000
  0
INSERT
  8
17
  2
OCTAGONP
 10
82.5500
 20
36.8300
 30
0.0000
 41
1.6764
 42
1.6764
 43
1.0000
 50
0.0000
  0
INSERT
  8
17
  2
SQUAREP
 10
85.0900
 20
36.8300
 30
0.0000
 41
1.6764
 42
1.6764
 43
1.0000
 50
0.0000
  0
INSERT
  8
17
  2
SQUAREP
 10
85.0900
 20
36.8300
 30
0.0000
 41
1.6764
 42
1.6764
 43
1.0000
 50
0.0000
  0
INSERT
  8
17
  2
OCTAGONP
 10
18.4150
 20
50.1650
 30
0.0000
 41
1.6764
 42
1.6764
 43
1.0000
 50
270.0000
  0
INSERT
  8
17
  2
OCTAGONP
 10
18.4150
 20
50.1650
 30
0.0000
 41
1.6764
 42
1.6764
 43
1.0000
 50
270.0000
  0
INSERT
  8
17
  2
SQUAREP
 10
18.4150
 20
47.6250
 30
0.0000
 41
1.6764
 42
1.6764
 43
1.0000
 50
270.0000
  0
INSERT
  8
17
  2
SQUAREP
 10
18.4150
 20
47.6250
 30
0.0000
 41
1.6764
 42
1.6764
 43
1.0000
 50
270.0000
  0
INSERT
  8
17
  2
OCTAGONP
 10
86.3600
 20
22.8600
 30
0.0000
 41
1.7780
 42
1.7780
 43
1.0000
 50
90.0000
  0
INSERT
  8
17
  2
OCTAGONP
 10
86.3600
 20
22.8600
 30
0.0000
 41
1.7780
 42
1.7780
 43
1.0000
 50
90.0000
  0
INSERT
  8
17
  2
OCTAGONP
 10
86.3600
 20
27.9400
 30
0.0000
 41
1.7780
 42
1.7780
 43
1.0000
 50
90.0000
  0
INSERT
  8
17
  2
OCTAGONP
 10
86.3600
 20
27.9400
 30
0.0000
 41
1.7780
 42
1.7780
 43
1.0000
 50
90.0000
  0
INSERT
  8
17
  2
ROUNDP
 10
58.4200
 20
80.0100
 30
0.0000
 41
3.1496
 42
3.1496
 43
1.0000
 50
270.0000
  0
INSERT
  8
17
  2
ROUNDP
 10
58.4200
 20
80.0100
 30
0.0000
 41
3.1496
 42
3.1496
 43
1.0000
 50
270.0000
  0
INSERT
  8
17
  2
OCTAGONP
 10
58.4200
 20
72.3900
 30
0.0000
 41
3.1496
 42
3.1496
 43
1.0000
 50
270.0000
  0
INSERT
  8
17
  2
OCTAGONP
 10
58.4200
 20
72.3900
 30
0.0000
 41
3.1496
 42
3.1496
 43
1.0000
 50
270.0000
  0
INSERT
  8
17
  2
ROUNDP
 10
74.9300
 20
64.7700
 30
0.0000
 41
3.1496
 42
3.1496
 43
1.0000
 50
90.0000
  0
INSERT
  8
17
  2
ROUNDP
 10
74.9300
 20
64.7700
 30
0.0000
 41
3.1496
 42
3.1496
 43
1.0000
 50
90.0000
  0
INSERT
  8
17
  2
OCTAGONP
 10
74.9300
 20
72.3900
 30
0.0000
 41
3.1496
 42
3.1496
 43
1.0000
 50
90.0000
  0
INSERT
  8
17
  2
OCTAGONP
 10
74.9300
 20
72.3900
 30
0.0000
 41
3.1496
 42
3.1496
 43
1.0000
 50
90.0000
  0
INSERT
  8
17
  2
ROUNDP
 10
40.6400
 20
80.0100
 30
0.0000
 41
3.1496
 42
3.1496
 43
1.0000
 50
270.0000
  0
INSERT
  8
17
  2
ROUNDP
 10
40.6400
 20
80.0100
 30
0.0000
 41
3.1496
 42
3.1496
 43
1.0000
 50
270.0000
  0
INSERT
  8
17
  2
OCTAGONP
 10
40.6400
 20
72.3900
 30
0.0000
 41
3.1496
 42
3.1496
 43
1.0000
 50
270.0000
  0
INSERT
  8
17
  2
OCTAGONP
 10
40.6400
 20
72.3900
 30
0.0000
 41
3.1496
 42
3.1496
 43
1.0000
 50
270.0000
  0
INSERT
  8
17
  2
OCTAGONP
 10
95.2500
 20
49.5300
 30
0.0000
 41
1.7780
 42
1.7780
 43
1.0000
 50
0.0000
  0
INSERT
  8
17
  2
OCTAGONP
 10
95.2500
 20
49.5300
 30
0.0000
 41
1.7780
 42
1.7780
 43
1.0000
 50
0.0000
  0
INSERT
  8
17
  2
OCTAGONP
 10
105.4100
 20
49.5300
 30
0.0000
 41
1.7780
 42
1.7780
 43
1.0000
 50
0.0000
  0
INSERT
  8
17
  2
OCTAGONP
 10
105.4100
 20
49.5300
 30
0.0000
 41
1.7780
 42
1.7780
 43
1.0000
 50
0.0000
  0
INSERT
  8
17
  2
LONGP100
 10
109.2200
 20
71.1200
 30
0.0000
 41
1.6764
 42
1.6764
 43
1.0000
 50
90.0000
  0
INSERT
  8
17
  2
LONGP100
 10
109.2200
 20
71.1200
 30
0.0000
 41
1.6764
 42
1.6764
 43
1.0000
 50
90.0000
  0
INSERT
  8
17
  2
LONGP100
 10
104.1400
 20
71.1200
 30
0.0000
 41
1.6764
 42
1.6764
 43
1.0000
 50
90.0000
  0
INSERT
  8
17
  2
LONGP100
 10
104.1400
 20
71.1200
 30
0.0000
 41
1.6764
 42
1.6764
 43
1.0000
 50
90.0000
  0
INSERT
  8
17
  2
LONGP100
 10
109.2200
 20
58.4200
 30
0.0000
 41
1.6764
 42
1.6764
 43
1.0000
 50
90.0000
  0
INSERT
  8
17
  2
LONGP100
 10
109.2200
 20
58.4200
 30
0.0000
 41
1.6764
 42
1.6764
 43
1.0000
 50
90.0000
  0
INSERT
  8
17
  2
LONGP100
 10
104.1400
 20
58.4200
 30
0.0000
 41
1.6764
 42
1.6764
 43
1.0000
 50
90.0000
  0
INSERT
  8
17
  2
LONGP100
 10
104.1400
 20
58.4200
 30
0.0000
 41
1.6764
 42
1.6764
 43
1.0000
 50
90.0000
  0
INSERT
  8
17
  2
LONGP100
 10
128.2700
 20
71.1200
 30
0.0000
 41
1.6764
 42
1.6764
 43
1.0000
 50
90.0000
  0
INSERT
  8
17
  2
LONGP100
 10
128.2700
 20
71.1200
 30
0.0000
 41
1.6764
 42
1.6764
 43
1.0000
 50
90.0000
  0
INSERT
  8
17
  2
LONGP100
 10
123.1900
 20
71.1200
 30
0.0000
 41
1.6764
 42
1.6764
 43
1.0000
 50
90.0000
  0
INSERT
  8
17
  2
LONGP100
 10
123.1900
 20
71.1200
 30
0.0000
 41
1.6764
 42
1.6764
 43
1.0000
 50
90.0000
  0
INSERT
  8
17
  2
LONGP100
 10
128.2700
 20
58.4200
 30
0.0000
 41
1.6764
 42
1.6764
 43
1.0000
 50
90.0000
  0
INSERT
  8
17
  2
LONGP100
 10
128.2700
 20
58.4200
 30
0.0000
 41
1.6764
 42
1.6764
 43
1.0000
 50
90.0000
  0
INSERT
  8
17
  2
LONGP100
 10
123.1900
 20
58.4200
 30
0.0000
 41
1.6764
 42
1.6764
 43
1.0000
 50
90.0000
  0
INSERT
  8
17
  2
LONGP100
 10
123.1900
 20
58.4200
 30
0.0000
 41
1.6764
 42
1.6764
 43
1.0000
 50
90.0000
  0
INSERT
  8
17
  2
ROUNDP
 10
25.4000
 20
66.0400
 30
0.0000
 41
1.6764
 42
1.6764
 43
1.0000
 50
270.0000
  0
INSERT
  8
17
  2
ROUNDP
 10
25.4000
 20
66.0400
 30
0.0000
 41
1.6764
 42
1.6764
 43
1.0000
 50
270.0000
  0
INSERT
  8
17
  2
ROUNDP
 10
25.4000
 20
76.2000
 30
0.0000
 41
1.6764
 42
1.6764
 43
1.0000
 50
270.0000
  0
INSERT
  8
17
  2
ROUNDP
 10
25.4000
 20
76.2000
 30
0.0000
 41
1.6764
 42
1.6764
 43
1.0000
 50
270.0000
  0
INSERT
  8
17
  2
ROUNDP
 10
27.1781
 20
75.7467
 30
0.0000
 41
1.6764
 42
1.6764
 43
1.0000
 50
240.0000
  0
INSERT
  8
17
  2
ROUNDP
 10
27.1781
 20
75.7467
 30
0.0000
 41
1.6764
 42
1.6764
 43
1.0000
 50
240.0000
  0
INSERT
  8
17
  2
ROUNDP
 10
32.2581
 20
84.5456
 30
0.0000
 41
1.6764
 42
1.6764
 43
1.0000
 50
240.0000
  0
INSERT
  8
17
  2
ROUNDP
 10
32.2581
 20
84.5456
 30
0.0000
 41
1.6764
 42
1.6764
 43
1.0000
 50
240.0000
  0
INSERT
  8
17
  2
LONGP100
 10
25.2222
 20
3.8100
 30
0.0000
 41
2.5400
 42
2.5400
 43
1.0000
 50
270.0000
  0
INSERT
  8
17
  2
LONGP100
 10
25.2222
 20
3.8100
 30
0.0000
 41
2.5400
 42
2.5400
 43
1.0000
 50
270.0000
  0
INSERT
  8
17
  2
LONGP100
 10
2.7178
 20
3.8100
 30
0.0000
 41
2.5400
 42
2.5400
 43
1.0000
 50
270.0000
  0
INSERT
  8
17
  2
LONGP100
 10
2.7178
 20
3.8100
 30
0.0000
 41
2.5400
 42
2.5400
 43
1.0000
 50
270.0000
  0
INSERT
  8
17
  2
OCTAGONP
 10
21.5900
 20
74.9300
 30
0.0000
 41
1.6764
 42
1.6764
 43
1.0000
 50
0.0000
  0
INSERT
  8
17
  2
OCTAGONP
 10
21.5900
 20
74.9300
 30
0.0000
 41
1.6764
 42
1.6764
 43
1.0000
 50
0.0000
  0
INSERT
  8
17
  2
OCTAGONP
 10
21.5900
 20
72.3900
 30
0.0000
 41
1.6764
 42
1.6764
 43
1.0000
 50
0.0000
  0
INSERT
  8
17
  2
OCTAGONP
 10
21.5900
 20
72.3900
 30
0.0000
 41
1.6764
 42
1.6764
 43
1.0000
 50
0.0000
  0
INSERT
  8
17
  2
OCTAGONP
 10
85.0900
 20
48.2600
 30
0.0000
 41
1.6764
 42
1.6764
 43
1.0000
 50
90.0000
  0
INSERT
  8
17
  2
OCTAGONP
 10
85.0900
 20
48.2600
 30
0.0000
 41
1.6764
 42
1.6764
 43
1.0000
 50
90.0000
  0
INSERT
  8
17
  2
OCTAGONP
 10
87.6300
 20
48.2600
 30
0.0000
 41
1.6764
 42
1.6764
 43
1.0000
 50
90.0000
  0
INSERT
  8
17
  2
OCTAGONP
 10
87.6300
 20
48.2600
 30
0.0000
 41
1.6764
 42
1.6764
 43
1.0000
 50
90.0000
  0
INSERT
  8
17
  2
LONGP100
 10
95.1738
 20
63.6270
 30
0.0000
 41
2.1000
 42
2.1000
 43
1.0000
 50
270.0000
  0
INSERT
  8
17
  2
LONGP100
 10
95.1738
 20
63.6270
 30
0.0000
 41
2.1000
 42
2.1000
 43
1.0000
 50
270.0000
  0
INSERT
  8
17
  2
LONGP100
 10
95.1738
 20
78.6130
 30
0.0000
 41
2.1000
 42
2.1000
 43
1.0000
 50
270.0000
  0
INSERT
  8
17
  2
LONGP100
 10
95.1738
 20
78.6130
 30
0.0000
 41
2.1000
 42
2.1000
 43
1.0000
 50
270.0000
  0
INSERT
  8
17
  2
LONGP100
 10
85.1662
 20
78.6130
 30
0.0000
 41
2.1000
 42
2.1000
 43
1.0000
 50
270.0000
  0
INSERT
  8
17
  2
LONGP100
 10
85.1662
 20
78.6130
 30
0.0000
 41
2.1000
 42
2.1000
 43
1.0000
 50
270.0000
  0
INSERT
  8
17
  2
LONGP100
 10
85.1662
 20
63.6270
 30
0.0000
 41
2.1000
 42
2.1000
 43
1.0000
 50
270.0000
  0
INSERT
  8
17
  2
LONGP100
 10
85.1662
 20
63.6270
 30
0.0000
 41
2.1000
 42
2.1000
 43
1.0000
 50
270.0000
  0
INSERT
  8
17
  2
OFFSETP100
 10
49.5300
 20
60.9600
 30
0.0000
 41
1.3080
 42
1.3080
 43
1.0000
 50
90.0000
  0
INSERT
  8
17
  2
OFFSETP100
 10
49.5300
 20
60.9600
 30
0.0000
 41
1.3080
 42
1.3080
 43
1.0000
 50
90.0000
  0
INSERT
  8
17
  2
OFFSETP100
 10
46.9900
 20
60.9600
 30
0.0000
 41
1.3080
 42
1.3080
 43
1.0000
 50
90.0000
  0
INSERT
  8
17
  2
OFFSETP100
 10
46.9900
 20
60.9600
 30
0.0000
 41
1.3080
 42
1.3080
 43
1.0000
 50
90.0000
  0
INSERT
  8
17
  2
OFFSETP100
 10
46.9900
 20
53.3400
 30
0.0000
 41
1.3080
 42
1.3080
 43
1.0000
 50
270.0000
  0
INSERT
  8
17
  2
OFFSETP100
 10
46.9900
 20
53.3400
 30
0.0000
 41
1.3080
 42
1.3080
 43
1.0000
 50
270.0000
  0
INSERT
  8
17
  2
OFFSETP100
 10
49.5300
 20
53.3400
 30
0.0000
 41
1.3080
 42
1.3080
 43
1.0000
 50
270.0000
  0
INSERT
  8
17
  2
OFFSETP100
 10
49.5300
 20
53.3400
 30
0.0000
 41
1.3080
 42
1.3080
 43
1.0000
 50
270.0000
  0
INSERT
  8
17
  2
LONGP100
 10
71.1200
 20
13.9700
 30
0.0000
 41
1.5080
 42
1.5080
 43
1.0000
 50
0.0000
  0
INSERT
  8
17
  2
LONGP100
 10
71.1200
 20
13.9700
 30
0.0000
 41
1.5080
 42
1.5080
 43
1.0000
 50
0.0000
  0
INSERT
  8
17
  2
LONGP100
 10
71.1200
 20
16.5100
 30
0.0000
 41
1.5080
 42
1.5080
 43
1.0000
 50
0.0000
  0
INSERT
  8
17
  2
LONGP100
 10
71.1200
 20
16.5100
 30
0.0000
 41
1.5080
 42
1.5080
 43
1.0000
 50
0.0000
  0
INSERT
  8
17
  2
LONGP100
 10
71.1200
 20
11.4300
 30
0.0000
 41
1.5080
 42
1.5080
 43
1.0000
 50
0.0000
  0
INSERT
  8
17
  2
LONGP100
 10
71.1200
 20
11.4300
 30
0.0000
 41
1.5080
 42
1.5080
 43
1.0000
 50
0.0000
  0
INSERT
  8
17
  2
LONGP100
 10
71.1200
 20
33.0200
 30
0.0000
 41
1.5080
 42
1.5080
 43
1.0000
 50
0.0000
  0
INSERT
  8
17
  2
LONGP100
 10
71.1200
 20
33.0200
 30
0.0000
 41
1.5080
 42
1.5080
 43
1.0000
 50
0.0000
  0
INSERT
  8
17
  2
LONGP100
 10
71.1200
 20
35.5600
 30
0.0000
 41
1.5080
 42
1.5080
 43
1.0000
 50
0.0000
  0
INSERT
  8
17
  2
LONGP100
 10
71.1200
 20
35.5600
 30
0.0000
 41
1.5080
 42
1.5080
 43
1.0000
 50
0.0000
  0
INSERT
  8
17
  2
LONGP100
 10
71.1200
 20
30.4800
 30
0.0000
 41
1.5080
 42
1.5080
 43
1.0000
 50
0.0000
  0
INSERT
  8
17
  2
LONGP100
 10
71.1200
 20
30.4800
 30
0.0000
 41
1.5080
 42
1.5080
 43
1.0000
 50
0.0000
  0
INSERT
  8
17
  2
OCTAGONP
 10
8.8900
 20
10.1600
 30
0.0000
 41
1.6764
 42
1.6764
 43
1.0000
 50
270.0000
  0
INSERT
  8
17
  2
OCTAGONP
 10
8.8900
 20
10.1600
 30
0.0000
 41
1.6764
 42
1.6764
 43
1.0000
 50
270.0000
  0
INSERT
  8
17
  2
OCTAGONP
 10
3.8100
 20
10.1600
 30
0.0000
 41
1.6764
 42
1.6764
 43
1.0000
 50
270.0000
  0
INSERT
  8
17
  2
OCTAGONP
 10
3.8100
 20
10.1600
 30
0.0000
 41
1.6764
 42
1.6764
 43
1.0000
 50
270.0000
  0
INSERT
  8
17
  2
OCTAGONP
 10
57.1500
 20
20.3200
 30
0.0000
 41
1.9304
 42
1.9304
 43
1.0000
 50
270.0000
  0
INSERT
  8
17
  2
OCTAGONP
 10
57.1500
 20
20.3200
 30
0.0000
 41
1.9304
 42
1.9304
 43
1.0000
 50
270.0000
  0
INSERT
  8
17
  2
OCTAGONP
 10
57.1500
 20
10.1600
 30
0.0000
 41
1.9304
 42
1.9304
 43
1.0000
 50
270.0000
  0
INSERT
  8
17
  2
OCTAGONP
 10
57.1500
 20
10.1600
 30
0.0000
 41
1.9304
 42
1.9304
 43
1.0000
 50
270.0000
  0
INSERT
  8
17
  2
OCTAGONP
 10
11.4300
 20
40.6400
 30
0.0000
 41
1.7780
 42
1.7780
 43
1.0000
 50
270.0000
  0
INSERT
  8
17
  2
OCTAGONP
 10
11.4300
 20
40.6400
 30
0.0000
 41
1.7780
 42
1.7780
 43
1.0000
 50
270.0000
  0
INSERT
  8
17
  2
OCTAGONP
 10
11.4300
 20
22.8600
 30
0.0000
 41
1.7780
 42
1.7780
 43
1.0000
 50
270.0000
  0
INSERT
  8
17
  2
OCTAGONP
 10
11.4300
 20
22.8600
 30
0.0000
 41
1.7780
 42
1.7780
 43
1.0000
 50
270.0000
  0
INSERT
  8
17
  2
OCTAGONP
 10
5.0800
 20
45.7200
 30
0.0000
 41
1.7780
 42
1.7780
 43
1.0000
 50
270.0000
  0
INSERT
  8
17
  2
OCTAGONP
 10
5.0800
 20
45.7200
 30
0.0000
 41
1.7780
 42
1.7780
 43
1.0000
 50
270.0000
  0
INSERT
  8
17
  2
OCTAGONP
 10
5.0800
 20
27.9400
 30
0.0000
 41
1.7780
 42
1.7780
 43
1.0000
 50
270.0000
  0
INSERT
  8
17
  2
OCTAGONP
 10
5.0800
 20
27.9400
 30
0.0000
 41
1.7780
 42
1.7780
 43
1.0000
 50
270.0000
  0
INSERT
  8
17
  2
OCTAGONP
 10
83.8200
 20
21.5900
 30
0.0000
 41
1.7780
 42
1.7780
 43
1.0000
 50
270.0000
  0
INSERT
  8
17
  2
OCTAGONP
 10
83.8200
 20
21.5900
 30
0.0000
 41
1.7780
 42
1.7780
 43
1.0000
 50
270.0000
  0
INSERT
  8
17
  2
OCTAGONP
 10
83.8200
 20
3.8100
 30
0.0000
 41
1.7780
 42
1.7780
 43
1.0000
 50
270.0000
  0
INSERT
  8
17
  2
OCTAGONP
 10
83.8200
 20
3.8100
 30
0.0000
 41
1.7780
 42
1.7780
 43
1.0000
 50
270.0000
  0
INSERT
  8
17
  2
OCTAGONP
 10
57.1500
 20
33.0200
 30
0.0000
 41
1.9304
 42
1.9304
 43
1.0000
 50
270.0000
  0
INSERT
  8
17
  2
OCTAGONP
 10
57.1500
 20
33.0200
 30
0.0000
 41
1.9304
 42
1.9304
 43
1.0000
 50
270.0000
  0
INSERT
  8
17
  2
OCTAGONP
 10
57.1500
 20
22.8600
 30
0.0000
 41
1.9304
 42
1.9304
 43
1.0000
 50
270.0000
  0
INSERT
  8
17
  2
OCTAGONP
 10
57.1500
 20
22.8600
 30
0.0000
 41
1.9304
 42
1.9304
 43
1.0000
 50
270.0000
  0
INSERT
  8
17
  2
OCTAGONP
 10
96.5200
 20
41.9100
 30
0.0000
 41
2.5400
 42
2.5400
 43
1.0000
 50
270.0000
  0
INSERT
  8
17
  2
OCTAGONP
 10
96.5200
 20
41.9100
 30
0.0000
 41
2.5400
 42
2.5400
 43
1.0000
 50
270.0000
  0
INSERT
  8
17
  2
OCTAGONP
 10
96.5200
 20
36.8300
 30
0.0000
 41
2.5400
 42
2.5400
 43
1.0000
 50
270.0000
  0
INSERT
  8
17
  2
OCTAGONP
 10
96.5200
 20
36.8300
 30
0.0000
 41
2.5400
 42
2.5400
 43
1.0000
 50
270.0000
  0
INSERT
  8
17
  2
OCTAGONP
 10
96.5200
 20
31.7500
 30
0.0000
 41
2.5400
 42
2.5400
 43
1.0000
 50
270.0000
  0
INSERT
  8
17
  2
OCTAGONP
 10
96.5200
 20
31.7500
 30
0.0000
 41
2.5400
 42
2.5400
 43
1.0000
 50
270.0000
  0
INSERT
  8
17
  2
OCTAGONP
 10
96.5200
 20
26.6700
 30
0.0000
 41
2.5400
 42
2.5400
 43
1.0000
 50
270.0000
  0
INSERT
  8
17
  2
OCTAGONP
 10
96.5200
 20
26.6700
 30
0.0000
 41
2.5400
 42
2.5400
 43
1.0000
 50
270.0000
  0
INSERT
  8
17
  2
OCTAGONP
 10
96.5200
 20
21.5900
 30
0.0000
 41
2.5400
 42
2.5400
 43
1.0000
 50
270.0000
  0
INSERT
  8
17
  2
OCTAGONP
 10
96.5200
 20
21.5900
 30
0.0000
 41
2.5400
 42
2.5400
 43
1.0000
 50
270.0000
  0
INSERT
  8
17
  2
OCTAGONP
 10
96.5200
 20
16.5100
 30
0.0000
 41
2.5400
 42
2.5400
 43
1.0000
 50
270.0000
  0
INSERT
  8
17
  2
OCTAGONP
 10
96.5200
 20
16.5100
 30
0.0000
 41
2.5400
 42
2.5400
 43
1.0000
 50
270.0000
  0
INSERT
  8
17
  2
OCTAGONP
 10
96.5200
 20
11.4300
 30
0.0000
 41
2.5400
 42
2.5400
 43
1.0000
 50
270.0000
  0
INSERT
  8
17
  2
OCTAGONP
 10
96.5200
 20
11.4300
 30
0.0000
 41
2.5400
 42
2.5400
 43
1.0000
 50
270.0000
  0
INSERT
  8
17
  2
OCTAGONP
 10
96.5200
 20
6.3500
 30
0.0000
 41
2.5400
 42
2.5400
 43
1.0000
 50
270.0000
  0
INSERT
  8
17
  2
OCTAGONP
 10
96.5200
 20
6.3500
 30
0.0000
 41
2.5400
 42
2.5400
 43
1.0000
 50
270.0000
  0
INSERT
  8
17
  2
OCTAGONP
 10
127.0000
 20
6.3500
 30
0.0000
 41
2.5400
 42
2.5400
 43
1.0000
 50
90.0000
  0
INSERT
  8
17
  2
OCTAGONP
 10
127.0000
 20
6.3500
 30
0.0000
 41
2.5400
 42
2.5400
 43
1.0000
 50
90.0000
  0
INSERT
  8
17
  2
OCTAGONP
 10
127.0000
 20
11.4300
 30
0.0000
 41
2.5400
 42
2.5400
 43
1.0000
 50
90.0000
  0
INSERT
  8
17
  2
OCTAGONP
 10
127.0000
 20
11.4300
 30
0.0000
 41
2.5400
 42
2.5400
 43
1.0000
 50
90.0000
  0
INSERT
  8
17
  2
OCTAGONP
 10
127.0000
 20
16.5100
 30
0.0000
 41
2.5400
 42
2.5400
 43
1.0000
 50
90.0000
  0
INSERT
  8
17
  2
OCTAGONP
 10
127.0000
 20
16.5100
 30
0.0000
 41
2.5400
 42
2.5400
 43
1.0000
 50
90.0000
  0
INSERT
  8
17
  2
OCTAGONP
 10
127.0000
 20
21.5900
 30
0.0000
 41
2.5400
 42
2.5400
 43
1.0000
 50
90.0000
  0
INSERT
  8
17
  2
OCTAGONP
 10
127.0000
 20
21.5900
 30
0.0000
 41
2.5400
 42
2.5400
 43
1.0000
 50
90.0000
  0
INSERT
  8
17
  2
OCTAGONP
 10
127.0000
 20
26.6700
 30
0.0000
 41
2.5400
 42
2.5400
 43
1.0000
 50
90.0000
  0
INSERT
  8
17
  2
OCTAGONP
 10
127.0000
 20
26.6700
 30
0.0000
 41
2.5400
 42
2.5400
 43
1.0000
 50
90.0000
  0
INSERT
  8
17
  2
OCTAGONP
 10
127.0000
 20
31.7500
 30
0.0000
 41
2.5400
 42
2.5400
 43
1.0000
 50
90.0000
  0
INSERT
  8
17
  2
OCTAGONP
 10
127.0000
 20
31.7500
 30
0.0000
 41
2.5400
 42
2.5400
 43
1.0000
 50
90.0000
  0
INSERT
  8
17
  2
OCTAGONP
 10
127.0000
 20
36.8300
 30
0.0000
 41
2.5400
 42
2.5400
 43
1.0000
 50
90.0000
  0
INSERT
  8
17
  2
OCTAGONP
 10
127.0000
 20
36.8300
 30
0.0000
 41
2.5400
 42
2.5400
 43
1.0000
 50
90.0000
  0
INSERT
  8
17
  2
OCTAGONP
 10
127.0000
 20
41.9100
 30
0.0000
 41
2.5400
 42
2.5400
 43
1.0000
 50
90.0000
  0
INSERT
  8
17
  2
OCTAGONP
 10
127.0000
 20
41.9100
 30
0.0000
 41
2.5400
 42
2.5400
 43
1.0000
 50
90.0000
  0
CIRCLE
  8
20
 10
76.2000
 20
13.9700
 30
0.0000
 40
0.7500
  0
CIRCLE
  8
20
 10
76.2000
 20
33.0200
 30
0.0000
 40
0.7500
  0
CIRCLE
  8
20
 10
125.7300
 20
63.5000
 30
0.0000
 40
0.7500
  0
CIRCLE
  8
20
 10
125.7300
 20
76.2000
 30
0.0000
 40
0.7500
  0
CIRCLE
  8
20
 10
106.6800
 20
76.2000
 30
0.0000
 40
0.7500
  0
CIRCLE
  8
20
 10
106.6800
 20
63.5000
 30
0.0000
 40
0.7500
  0
INSERT
  8
17
  2
SQUAREP
 10
41.9100
 20
53.3400
 30
0.0000
 41
1.6764
 42
1.6764
 43
1.0000
 50
270.0000
  0
INSERT
  8
17
  2
SQUAREP
 10
41.9100
 20
53.3400
 30
0.0000
 41
1.6764
 42
1.6764
 43
1.0000
 50
270.0000
  0
INSERT
  8
17
  2
ROUNDP
 10
39.3700
 20
53.3400
 30
0.0000
 41
1.6764
 42
1.6764
 43
1.0000
 50
270.0000
  0
INSERT
  8
17
  2
ROUNDP
 10
39.3700
 20
53.3400
 30
0.0000
 41
1.6764
 42
1.6764
 43
1.0000
 50
270.0000
  0
INSERT
  8
17
  2
ROUNDP
 10
36.8300
 20
53.3400
 30
0.0000
 41
1.6764
 42
1.6764
 43
1.0000
 50
270.0000
  0
INSERT
  8
17
  2
ROUNDP
 10
36.8300
 20
53.3400
 30
0.0000
 41
1.6764
 42
1.6764
 43
1.0000
 50
270.0000
  0
INSERT
  8
17
  2
ROUNDP
 10
34.2900
 20
53.3400
 30
0.0000
 41
1.6764
 42
1.6764
 43
1.0000
 50
270.0000
  0
INSERT
  8
17
  2
ROUNDP
 10
34.2900
 20
53.3400
 30
0.0000
 41
1.6764
 42
1.6764
 43
1.0000
 50
270.0000
  0
INSERT
  8
17
  2
ROUNDP
 10
31.7500
 20
53.3400
 30
0.0000
 41
1.6764
 42
1.6764
 43
1.0000
 50
270.0000
  0
INSERT
  8
17
  2
ROUNDP
 10
31.7500
 20
53.3400
 30
0.0000
 41
1.6764
 42
1.6764
 43
1.0000
 50
270.0000
  0
INSERT
  8
17
  2
ROUNDP
 10
29.2100
 20
53.3400
 30
0.0000
 41
1.6764
 42
1.6764
 43
1.0000
 50
270.0000
  0
INSERT
  8
17
  2
ROUNDP
 10
29.2100
 20
53.3400
 30
0.0000
 41
1.6764
 42
1.6764
 43
1.0000
 50
270.0000
  0
INSERT
  8
17
  2
ROUNDP
 10
26.6700
 20
53.3400
 30
0.0000
 41
1.6764
 42
1.6764
 43
1.0000
 50
270.0000
  0
INSERT
  8
17
  2
ROUNDP
 10
26.6700
 20
53.3400
 30
0.0000
 41
1.6764
 42
1.6764
 43
1.0000
 50
270.0000
  0
INSERT
  8
17
  2
ROUNDP
 10
24.1300
 20
53.3400
 30
0.0000
 41
1.6764
 42
1.6764
 43
1.0000
 50
270.0000
  0
INSERT
  8
17
  2
ROUNDP
 10
24.1300
 20
53.3400
 30
0.0000
 41
1.6764
 42
1.6764
 43
1.0000
 50
270.0000
  0
INSERT
  8
17
  2
ROUNDP
 10
24.1300
 20
45.7200
 30
0.0000
 41
1.6764
 42
1.6764
 43
1.0000
 50
270.0000
  0
INSERT
  8
17
  2
ROUNDP
 10
24.1300
 20
45.7200
 30
0.0000
 41
1.6764
 42
1.6764
 43
1.0000
 50
270.0000
  0
INSERT
  8
17
  2
ROUNDP
 10
26.6700
 20
45.7200
 30
0.0000
 41
1.6764
 42
1.6764
 43
1.0000
 50
270.0000
  0
INSERT
  8
17
  2
ROUNDP
 10
26.6700
 20
45.7200
 30
0.0000
 41
1.6764
 42
1.6764
 43
1.0000
 50
270.0000
  0
INSERT
  8
17
  2
ROUNDP
 10
29.2100
 20
45.7200
 30
0.0000
 41
1.6764
 42
1.6764
 43
1.0000
 50
270.0000
  0
INSERT
  8
17
  2
ROUNDP
 10
29.2100
 20
45.7200
 30
0.0000
 41
1.6764
 42
1.6764
 43
1.0000
 50
270.0000
  0
INSERT
  8
17
  2
ROUNDP
 10
31.7500
 20
45.7200
 30
0.0000
 41
1.6764
 42
1.6764
 43
1.0000
 50
270.0000
  0
INSERT
  8
17
  2
ROUNDP
 10
31.7500
 20
45.7200
 30
0.0000
 41
1.6764
 42
1.6764
 43
1.0000
 50
270.0000
  0
INSERT
  8
17
  2
ROUNDP
 10
34.2900
 20
45.7200
 30
0.0000
 41
1.6764
 42
1.6764
 43
1.0000
 50
270.0000
  0
INSERT
  8
17
  2
ROUNDP
 10
34.2900
 20
45.7200
 30
0.0000
 41
1.6764
 42
1.6764
 43
1.0000
 50
270.0000
  0
INSERT
  8
17
  2
ROUNDP
 10
36.8300
 20
45.7200
 30
0.0000
 41
1.6764
 42
1.6764
 43
1.0000
 50
270.0000
  0
INSERT
  8
17
  2
ROUNDP
 10
36.8300
 20
45.7200
 30
0.0000
 41
1.6764
 42
1.6764
 43
1.0000
 50
270.0000
  0
INSERT
  8
17
  2
ROUNDP
 10
39.3700
 20
45.7200
 30
0.0000
 41
1.6764
 42
1.6764
 43
1.0000
 50
270.0000
  0
INSERT
  8
17
  2
ROUNDP
 10
39.3700
 20
45.7200
 30
0.0000
 41
1.6764
 42
1.6764
 43
1.0000
 50
270.0000
  0
INSERT
  8
17
  2
ROUNDP
 10
41.9100
 20
45.7200
 30
0.0000
 41
1.6764
 42
1.6764
 43
1.0000
 50
270.0000
  0
INSERT
  8
17
  2
ROUNDP
 10
41.9100
 20
45.7200
 30
0.0000
 41
1.6764
 42
1.6764
 43
1.0000
 50
270.0000
  0
INSERT
  8
17
  2
OCTAGONP
 10
29.1889
 20
3.8350
 30
0.0000
 41
3.8100
 42
3.8100
 43
1.0000
 50
0.0000
  0
INSERT
  8
17
  2
OCTAGONP
 10
29.1889
 20
3.8350
 30
0.0000
 41
3.8100
 42
3.8100
 43
1.0000
 50
0.0000
  0
INSERT
  8
17
  2
OCTAGONP
 10
34.2689
 20
3.8350
 30
0.0000
 41
3.8100
 42
3.8100
 43
1.0000
 50
0.0000
  0
INSERT
  8
17
  2
OCTAGONP
 10
34.2689
 20
3.8350
 30
0.0000
 41
3.8100
 42
3.8100
 43
1.0000
 50
0.0000
  0
INSERT
  8
17
  2
OCTAGONP
 10
63.5211
 20
62.2050
 30
0.0000
 41
3.8100
 42
3.8100
 43
1.0000
 50
180.0000
  0
INSERT
  8
17
  2
OCTAGONP
 10
63.5211
 20
62.2050
 30
0.0000
 41
3.8100
 42
3.8100
 43
1.0000
 50
180.0000
  0
INSERT
  8
17
  2
OCTAGONP
 10
58.4411
 20
62.2050
 30
0.0000
 41
3.8100
 42
3.8100
 43
1.0000
 50
180.0000
  0
INSERT
  8
17
  2
OCTAGONP
 10
58.4411
 20
62.2050
 30
0.0000
 41
3.8100
 42
3.8100
 43
1.0000
 50
180.0000
  0
INSERT
  8
17
  2
OCTAGONP
 10
16.5311
 20
79.9850
 30
0.0000
 41
3.8100
 42
3.8100
 43
1.0000
 50
180.0000
  0
INSERT
  8
17
  2
OCTAGONP
 10
16.5311
 20
79.9850
 30
0.0000
 41
3.8100
 42
3.8100
 43
1.0000
 50
180.0000
  0
INSERT
  8
17
  2
OCTAGONP
 10
11.4511
 20
79.9850
 30
0.0000
 41
3.8100
 42
3.8100
 43
1.0000
 50
180.0000
  0
INSERT
  8
17
  2
OCTAGONP
 10
11.4511
 20
79.9850
 30
0.0000
 41
3.8100
 42
3.8100
 43
1.0000
 50
180.0000
  0
ENDSEC
  0
EOF
