  0
SECTION
  2
HEADER
  9
$ACADVER
  1
AC1009
  9
$FILLMODE
 70
1
  9
$EXTMIN
 10
-7.8232
 20
-1.6087
 30
0.0000
  9
$EXTMAX
 10
170.9772
 20
87.0783
 30
0.0000
  0
ENDSEC
  0
SECTION
  2
TABLES
  0
TABLE
  2
LTYPE
 70
1
  0
LTYPE
  2
CONTINUOUS
 70
64
  3
Solid line
 72
65
 73
0
 40
0
  0
ENDTAB
  0
TABLE
  2
LAYER
 70
255
  0
LAYER
  2
17
 70
64
 62
82
  6
CONTINUOUS
  0
LAYER
  2
18
 70
64
 62
82
  6
CONTINUOUS
  0
LAYER
  2
20
 70
64
 62
7
  6
CONTINUOUS
  0
LAYER
  2
44
 70
64
 62
253
  6
CONTINUOUS
  0
LAYER
  2
45
 70
64
 62
253
  6
CONTINUOUS
  0
LAYER
  2
46
 70
64
 62
140
  6
CONTINUOUS
  0
ENDTAB
  0
ENDSEC
  0
SECTION
  2
BLOCKS
  0
BLOCK
  8
0
  2
RECT
 70
64
 10
0.0000
 20
0.0000
 30
0.0000
  3
RECT
  0
SOLID
  8
0
 10
-0.5000
 20
-0.5000
 30
0.0000
 11
0.5000
 21
-0.5000
 31
0.0000
 12
-0.5000
 22
0.5000
 32
0.0000
 13
0.5000
 23
0.5000
 33
0.0000
  0
ENDBLK
  8
0
  0
BLOCK
  8
0
  2
PIE
 70
64
 10
0.0000
 20
0.0000
 30
0.0000
  3
PIE
  0
POLYLINE
  8
0
 66
1
 10
0.0000
 20
0.0000
 30
0.0000
 40
0.5000
 41
0.5000
 70
0
  0
VERTEX
  8
0
 10
0.0000
 20
-0.2500
 30
0.0000
 42
1.0000
  0
VERTEX
  8
0
 10
0.0000
 20
0.2500
 30
0.0000
 42
1.0000
  0
VERTEX
  8
0
 10
0.0000
 20
-0.2500
 30
0.0000
  0
SEQEND
  8
0
  0
ENDBLK
  8
0
  0
BLOCK
  8
0
  2
OCTAGONP
 70
64
 10
0.0000
 20
0.0000
 30
0.0000
  3
OCTAGONP
  0
POLYLINE
  8
0
 66
1
 10
0.0000
 20
0.0000
 30
0.0000
 40
0.5000
 41
0.5000
 70
0
  0
VERTEX
  8
0
 10
-0.2500
 20
-0.1036
 30
0.0000
  0
VERTEX
  8
0
 10
-0.2500
 20
0.1036
 30
0.0000
  0
VERTEX
  8
0
 10
-0.1036
 20
0.2500
 30
0.0000
  0
VERTEX
  8
0
 10
0.1036
 20
0.2500
 30
0.0000
  0
VERTEX
  8
0
 10
0.2500
 20
0.1036
 30
0.0000
  0
VERTEX
  8
0
 10
0.2500
 20
-0.1036
 30
0.0000
  0
VERTEX
  8
0
 10
0.1036
 20
-0.2500
 30
0.0000
  0
VERTEX
  8
0
 10
-0.1036
 20
-0.2500
 30
0.0000
  0
VERTEX
  8
0
 10
-0.2500
 20
-0.1036
 30
0.0000
  0
VERTEX
  8
0
 10
-0.2500
 20
0.1036
 30
0.0000
  0
SEQEND
  8
0
  0
ENDBLK
  8
0
  0
BLOCK
  8
0
  2
SQUAREP
 70
64
 10
0.0000
 20
0.0000
 30
0.0000
  3
SQUAREP
  0
SOLID
  8
0
 10
-0.5000
 20
-0.5000
 30
0.0000
 11
0.5000
 21
-0.5000
 31
0.0000
 12
-0.5000
 22
0.5000
 32
0.0000
 13
0.5000
 23
0.5000
 33
0.0000
  0
ENDBLK
  8
0
  0
BLOCK
  8
0
  2
ROUNDP
 70
64
 10
0.0000
 20
0.0000
 30
0.0000
  3
ROUNDP
  0
POLYLINE
  8
0
 66
1
 10
0.0000
 20
0.0000
 30
0.0000
 40
0.5000
 41
0.5000
 70
0
  0
VERTEX
  8
0
 10
0.0000
 20
-0.2500
 30
0.0000
 42
1.0000
  0
VERTEX
  8
0
 10
0.0000
 20
0.2500
 30
0.0000
 42
1.0000
  0
VERTEX
  8
0
 10
0.0000
 20
-0.2500
 30
0.0000
  0
SEQEND
  8
0
  0
ENDBLK
  8
0
  0
BLOCK
  8
0
  2
ANNULUSP
 70
64
 10
0.0000
 20
0.0000
 30
0.0000
  3
ANNULUSP
  0
POLYLINE
  8
0
 66
1
 10
0.0000
 20
0.0000
 30
0.0000
 40
0.5000
 41
0.5000
 70
0
  0
VERTEX
  8
0
 10
0.0000
 20
-0.2500
 30
0.0000
 42
1.0000
  0
VERTEX
  8
0
 10
0.0000
 20
0.2500
 30
0.0000
 42
1.0000
  0
VERTEX
  8
0
 10
0.0000
 20
-0.2500
 30
0.0000
  0
SEQEND
  8
0
  0
ENDBLK
  8
0
  0
BLOCK
  8
0
  2
THERMALP
 70
64
 10
0.0000
 20
0.0000
 30
0.0000
  3
THERMALP
  0
POLYLINE
  8
0
 66
1
 10
0.0000
 20
0.0000
 30
0.0000
 40
0.1000
 41
0.1000
 70
0
  0
VERTEX
  8
0
 10
-0.2379
 20
0.4500
 30
0.0000
  0
VERTEX
  8
0
 10
0.2379
 20
0.4500
 30
0.0000
  0
SEQEND
  8
0
  0
POLYLINE
  8
0
 66
1
 10
0.0000
 20
0.0000
 30
0.0000
 40
0.0500
 41
0.0500
 70
0
  0
VERTEX
  8
0
 10
0.2379
 20
0.4250
 30
0.0000
 42
1.0000
  0
VERTEX
  8
0
 10
0.2379
 20
0.4750
 30
0.0000
  0
SEQEND
  8
0
  0
POLYLINE
  8
0
 66
1
 10
0.0000
 20
0.0000
 30
0.0000
 40
0.0500
 41
0.0500
 70
0
  0
VERTEX
  8
0
 10
-0.2379
 20
0.4750
 30
0.0000
 42
1.0000
  0
VERTEX
  8
0
 10
-0.2379
 20
0.4250
 30
0.0000
  0
SEQEND
  8
0
  0
POLYLINE
  8
0
 66
1
 10
0.0000
 20
0.0000
 30
0.0000
 40
0.1000
 41
0.1000
 70
0
  0
VERTEX
  8
0
 10
0.4500
 20
0.2379
 30
0.0000
  0
VERTEX
  8
0
 10
0.4500
 20
-0.2379
 30
0.0000
  0
SEQEND
  8
0
  0
POLYLINE
  8
0
 66
1
 10
0.0000
 20
0.0000
 30
0.0000
 40
0.0500
 41
0.0500
 70
0
  0
VERTEX
  8
0
 10
0.4250
 20
-0.2379
 30
0.0000
 42
1.0000
  0
VERTEX
  8
0
 10
0.4750
 20
-0.2379
 30
0.0000
  0
SEQEND
  8
0
  0
POLYLINE
  8
0
 66
1
 10
0.0000
 20
0.0000
 30
0.0000
 40
0.0500
 41
0.0500
 70
0
  0
VERTEX
  8
0
 10
0.4750
 20
0.2379
 30
0.0000
 42
1.0000
  0
VERTEX
  8
0
 10
0.4250
 20
0.2379
 30
0.0000
  0
SEQEND
  8
0
  0
POLYLINE
  8
0
 66
1
 10
0.0000
 20
0.0000
 30
0.0000
 40
0.1000
 41
0.1000
 70
0
  0
VERTEX
  8
0
 10
0.2379
 20
-0.4500
 30
0.0000
  0
VERTEX
  8
0
 10
-0.2379
 20
-0.4500
 30
0.0000
  0
SEQEND
  8
0
  0
POLYLINE
  8
0
 66
1
 10
0.0000
 20
0.0000
 30
0.0000
 40
0.0500
 41
0.0500
 70
0
  0
VERTEX
  8
0
 10
-0.2379
 20
-0.4250
 30
0.0000
 42
1.0000
  0
VERTEX
  8
0
 10
-0.2379
 20
-0.4750
 30
0.0000
  0
SEQEND
  8
0
  0
POLYLINE
  8
0
 66
1
 10
0.0000
 20
0.0000
 30
0.0000
 40
0.0500
 41
0.0500
 70
0
  0
VERTEX
  8
0
 10
0.2379
 20
-0.4750
 30
0.0000
 42
1.0000
  0
VERTEX
  8
0
 10
0.2379
 20
-0.4250
 30
0.0000
  0
SEQEND
  8
0
  0
POLYLINE
  8
0
 66
1
 10
0.0000
 20
0.0000
 30
0.0000
 40
0.1000
 41
0.1000
 70
0
  0
VERTEX
  8
0
 10
-0.4500
 20
-0.2379
 30
0.0000
  0
VERTEX
  8
0
 10
-0.4500
 20
0.2379
 30
0.0000
  0
SEQEND
  8
0
  0
POLYLINE
  8
0
 66
1
 10
0.0000
 20
0.0000
 30
0.0000
 40
0.0500
 41
0.0500
 70
0
  0
VERTEX
  8
0
 10
-0.4250
 20
0.2379
 30
0.0000
 42
1.0000
  0
VERTEX
  8
0
 10
-0.4750
 20
0.2379
 30
0.0000
  0
SEQEND
  8
0
  0
POLYLINE
  8
0
 66
1
 10
0.0000
 20
0.0000
 30
0.0000
 40
0.0500
 41
0.0500
 70
0
  0
VERTEX
  8
0
 10
-0.4750
 20
-0.2379
 30
0.0000
 42
1.0000
  0
VERTEX
  8
0
 10
-0.4250
 20
-0.2379
 30
0.0000
  0
SEQEND
  8
0
  0
ENDBLK
  8
0
  0
BLOCK
  8
0
  2
OCTAGONV
 70
64
 10
0.0000
 20
0.0000
 30
0.0000
  3
OCTAGONV
  0
POLYLINE
  8
0
 66
1
 10
0.0000
 20
0.0000
 30
0.0000
 40
0.5000
 41
0.5000
 70
0
  0
VERTEX
  8
0
 10
-0.2500
 20
-0.1036
 30
0.0000
  0
VERTEX
  8
0
 10
-0.2500
 20
0.1036
 30
0.0000
  0
VERTEX
  8
0
 10
-0.1036
 20
0.2500
 30
0.0000
  0
VERTEX
  8
0
 10
0.1036
 20
0.2500
 30
0.0000
  0
VERTEX
  8
0
 10
0.2500
 20
0.1036
 30
0.0000
  0
VERTEX
  8
0
 10
0.2500
 20
-0.1036
 30
0.0000
  0
VERTEX
  8
0
 10
0.1036
 20
-0.2500
 30
0.0000
  0
VERTEX
  8
0
 10
-0.1036
 20
-0.2500
 30
0.0000
  0
VERTEX
  8
0
 10
-0.2500
 20
-0.1036
 30
0.0000
  0
VERTEX
  8
0
 10
-0.2500
 20
0.1036
 30
0.0000
  0
SEQEND
  8
0
  0
ENDBLK
  8
0
  0
BLOCK
  8
0
  2
SQUAREV
 70
64
 10
0.0000
 20
0.0000
 30
0.0000
  3
SQUAREV
  0
SOLID
  8
0
 10
-0.5000
 20
-0.5000
 30
0.0000
 11
0.5000
 21
-0.5000
 31
0.0000
 12
-0.5000
 22
0.5000
 32
0.0000
 13
0.5000
 23
0.5000
 33
0.0000
  0
ENDBLK
  8
0
  0
BLOCK
  8
0
  2
ROUNDV
 70
64
 10
0.0000
 20
0.0000
 30
0.0000
  3
ROUNDV
  0
POLYLINE
  8
0
 66
1
 10
0.0000
 20
0.0000
 30
0.0000
 40
0.5000
 41
0.5000
 70
0
  0
VERTEX
  8
0
 10
0.0000
 20
-0.2500
 30
0.0000
 42
1.0000
  0
VERTEX
  8
0
 10
0.0000
 20
0.2500
 30
0.0000
 42
1.0000
  0
VERTEX
  8
0
 10
0.0000
 20
-0.2500
 30
0.0000
  0
SEQEND
  8
0
  0
ENDBLK
  8
0
  0
BLOCK
  8
0
  2
ANNULUSV
 70
64
 10
0.0000
 20
0.0000
 30
0.0000
  3
ANNULUSV
  0
POLYLINE
  8
0
 66
1
 10
0.0000
 20
0.0000
 30
0.0000
 40
0.5000
 41
0.5000
 70
0
  0
VERTEX
  8
0
 10
0.0000
 20
-0.2500
 30
0.0000
 42
1.0000
  0
VERTEX
  8
0
 10
0.0000
 20
0.2500
 30
0.0000
 42
1.0000
  0
VERTEX
  8
0
 10
0.0000
 20
-0.2500
 30
0.0000
  0
SEQEND
  8
0
  0
ENDBLK
  8
0
  0
BLOCK
  8
0
  2
THERMALV
 70
64
 10
0.0000
 20
0.0000
 30
0.0000
  3
THERMALV
  0
POLYLINE
  8
0
 66
1
 10
0.0000
 20
0.0000
 30
0.0000
 40
0.1000
 41
0.1000
 70
0
  0
VERTEX
  8
0
 10
-0.2379
 20
0.4500
 30
0.0000
  0
VERTEX
  8
0
 10
0.2379
 20
0.4500
 30
0.0000
  0
SEQEND
  8
0
  0
POLYLINE
  8
0
 66
1
 10
0.0000
 20
0.0000
 30
0.0000
 40
0.0500
 41
0.0500
 70
0
  0
VERTEX
  8
0
 10
0.2379
 20
0.4250
 30
0.0000
 42
1.0000
  0
VERTEX
  8
0
 10
0.2379
 20
0.4750
 30
0.0000
  0
SEQEND
  8
0
  0
POLYLINE
  8
0
 66
1
 10
0.0000
 20
0.0000
 30
0.0000
 40
0.0500
 41
0.0500
 70
0
  0
VERTEX
  8
0
 10
-0.2379
 20
0.4750
 30
0.0000
 42
1.0000
  0
VERTEX
  8
0
 10
-0.2379
 20
0.4250
 30
0.0000
  0
SEQEND
  8
0
  0
POLYLINE
  8
0
 66
1
 10
0.0000
 20
0.0000
 30
0.0000
 40
0.1000
 41
0.1000
 70
0
  0
VERTEX
  8
0
 10
0.4500
 20
0.2379
 30
0.0000
  0
VERTEX
  8
0
 10
0.4500
 20
-0.2379
 30
0.0000
  0
SEQEND
  8
0
  0
POLYLINE
  8
0
 66
1
 10
0.0000
 20
0.0000
 30
0.0000
 40
0.0500
 41
0.0500
 70
0
  0
VERTEX
  8
0
 10
0.4250
 20
-0.2379
 30
0.0000
 42
1.0000
  0
VERTEX
  8
0
 10
0.4750
 20
-0.2379
 30
0.0000
  0
SEQEND
  8
0
  0
POLYLINE
  8
0
 66
1
 10
0.0000
 20
0.0000
 30
0.0000
 40
0.0500
 41
0.0500
 70
0
  0
VERTEX
  8
0
 10
0.4750
 20
0.2379
 30
0.0000
 42
1.0000
  0
VERTEX
  8
0
 10
0.4250
 20
0.2379
 30
0.0000
  0
SEQEND
  8
0
  0
POLYLINE
  8
0
 66
1
 10
0.0000
 20
0.0000
 30
0.0000
 40
0.1000
 41
0.1000
 70
0
  0
VERTEX
  8
0
 10
0.2379
 20
-0.4500
 30
0.0000
  0
VERTEX
  8
0
 10
-0.2379
 20
-0.4500
 30
0.0000
  0
SEQEND
  8
0
  0
POLYLINE
  8
0
 66
1
 10
0.0000
 20
0.0000
 30
0.0000
 40
0.0500
 41
0.0500
 70
0
  0
VERTEX
  8
0
 10
-0.2379
 20
-0.4250
 30
0.0000
 42
1.0000
  0
VERTEX
  8
0
 10
-0.2379
 20
-0.4750
 30
0.0000
  0
SEQEND
  8
0
  0
POLYLINE
  8
0
 66
1
 10
0.0000
 20
0.0000
 30
0.0000
 40
0.0500
 41
0.0500
 70
0
  0
VERTEX
  8
0
 10
0.2379
 20
-0.4750
 30
0.0000
 42
1.0000
  0
VERTEX
  8
0
 10
0.2379
 20
-0.4250
 30
0.0000
  0
SEQEND
  8
0
  0
POLYLINE
  8
0
 66
1
 10
0.0000
 20
0.0000
 30
0.0000
 40
0.1000
 41
0.1000
 70
0
  0
VERTEX
  8
0
 10
-0.4500
 20
-0.2379
 30
0.0000
  0
VERTEX
  8
0
 10
-0.4500
 20
0.2379
 30
0.0000
  0
SEQEND
  8
0
  0
POLYLINE
  8
0
 66
1
 10
0.0000
 20
0.0000
 30
0.0000
 40
0.0500
 41
0.0500
 70
0
  0
VERTEX
  8
0
 10
-0.4250
 20
0.2379
 30
0.0000
 42
1.0000
  0
VERTEX
  8
0
 10
-0.4750
 20
0.2379
 30
0.0000
  0
SEQEND
  8
0
  0
POLYLINE
  8
0
 66
1
 10
0.0000
 20
0.0000
 30
0.0000
 40
0.0500
 41
0.0500
 70
0
  0
VERTEX
  8
0
 10
-0.4750
 20
-0.2379
 30
0.0000
 42
1.0000
  0
VERTEX
  8
0
 10
-0.4250
 20
-0.2379
 30
0.0000
  0
SEQEND
  8
0
  0
ENDBLK
  8
0
  0
BLOCK
  8
0
  2
LONGP100
 70
64
 10
0.0000
 20
0.0000
 30
0.0000
  3
LONGP100
  0
POLYLINE
  8
0
 66
1
 10
0.0000
 20
0.0000
 30
0.0000
 40
1.0000
 41
1.0000
 70
0
  0
VERTEX
  8
0
 10
-0.5000
 20
0.0000
 30
0.0000
  0
VERTEX
  8
0
 10
0.5000
 20
0.0000
 30
0.0000
  0
SEQEND
  8
0
  0
POLYLINE
  8
0
 66
1
 10
0.0000
 20
0.0000
 30
0.0000
 40
0.5000
 41
0.5000
 70
0
  0
VERTEX
  8
0
 10
0.5000
 20
-0.2500
 30
0.0000
 42
1.0000
  0
VERTEX
  8
0
 10
0.5000
 20
0.2500
 30
0.0000
  0
SEQEND
  8
0
  0
POLYLINE
  8
0
 66
1
 10
0.0000
 20
0.0000
 30
0.0000
 40
0.5000
 41
0.5000
 70
0
  0
VERTEX
  8
0
 10
-0.5000
 20
0.2500
 30
0.0000
 42
1.0000
  0
VERTEX
  8
0
 10
-0.5000
 20
-0.2500
 30
0.0000
  0
SEQEND
  8
0
  0
ENDBLK
  8
0
  0
BLOCK
  8
0
  2
OFFSETP100
 70
64
 10
0.0000
 20
0.0000
 30
0.0000
  3
OFFSETP100
  0
POLYLINE
  8
0
 66
1
 10
0.0000
 20
0.0000
 30
0.0000
 40
1.0000
 41
1.0000
 70
0
  0
VERTEX
  8
0
 10
0.0000
 20
0.0000
 30
0.0000
  0
VERTEX
  8
0
 10
1.0000
 20
0.0000
 30
0.0000
  0
SEQEND
  8
0
  0
POLYLINE
  8
0
 66
1
 10
0.0000
 20
0.0000
 30
0.0000
 40
0.5000
 41
0.5000
 70
0
  0
VERTEX
  8
0
 10
1.0000
 20
-0.2500
 30
0.0000
 42
1.0000
  0
VERTEX
  8
0
 10
1.0000
 20
0.2500
 30
0.0000
  0
SEQEND
  8
0
  0
POLYLINE
  8
0
 66
1
 10
0.0000
 20
0.0000
 30
0.0000
 40
0.5000
 41
0.5000
 70
0
  0
VERTEX
  8
0
 10
0.0000
 20
0.2500
 30
0.0000
 42
1.0000
  0
VERTEX
  8
0
 10
0.0000
 20
-0.2500
 30
0.0000
  0
SEQEND
  8
0
  0
ENDBLK
  8
0
  0
ENDSEC
  0
SECTION
  2
ENTITIES
  0
POLYLINE
  8
46
 66
1
 10
0.0000
 20
0.0000
 30
0.0000
 40
0.2540
 41
0.2540
 70
0
  0
VERTEX
  8
46
 10
160.1000
 20
0.0000
 30
0.0000
  0
VERTEX
  8
46
 10
-2.6000
 20
0.0000
 30
0.0000
  0
SEQEND
  8
0
  0
POLYLINE
  8
46
 66
1
 10
0.0000
 20
0.0000
 30
0.0000
 40
0.1270
 41
0.1270
 70
0
  0
VERTEX
  8
46
 10
-2.6000
 20
0.0635
 30
0.0000
 42
1.0000
  0
VERTEX
  8
46
 10
-2.6000
 20
-0.0635
 30
0.0000
  0
SEQEND
  8
0
  0
POLYLINE
  8
46
 66
1
 10
0.0000
 20
0.0000
 30
0.0000
 40
0.1270
 41
0.1270
 70
0
  0
VERTEX
  8
46
 10
160.1000
 20
-0.0635
 30
0.0000
 42
1.0000
  0
VERTEX
  8
46
 10
160.1000
 20
0.0635
 30
0.0000
  0
SEQEND
  8
0
  0
POLYLINE
  8
46
 66
1
 10
0.0000
 20
0.0000
 30
0.0000
 40
0.2540
 41
0.2540
 70
0
  0
VERTEX
  8
46
 10
-2.6000
 20
0.0000
 30
0.0000
  0
VERTEX
  8
46
 10
-7.6000
 20
5.0000
 30
0.0000
  0
SEQEND
  8
0
  0
POLYLINE
  8
46
 66
1
 10
0.0000
 20
0.0000
 30
0.0000
 40
0.1270
 41
0.1270
 70
0
  0
VERTEX
  8
46
 10
-7.5551
 20
5.0449
 30
0.0000
 42
1.0000
  0
VERTEX
  8
46
 10
-7.6449
 20
4.9551
 30
0.0000
  0
SEQEND
  8
0
  0
POLYLINE
  8
46
 66
1
 10
0.0000
 20
0.0000
 30
0.0000
 40
0.1270
 41
0.1270
 70
0
  0
VERTEX
  8
46
 10
-2.6449
 20
-0.0449
 30
0.0000
 42
1.0000
  0
VERTEX
  8
46
 10
-2.5551
 20
0.0449
 30
0.0000
  0
SEQEND
  8
0
  0
POLYLINE
  8
46
 66
1
 10
0.0000
 20
0.0000
 30
0.0000
 40
0.2540
 41
0.2540
 70
0
  0
VERTEX
  8
46
 10
-7.6000
 20
5.0000
 30
0.0000
  0
VERTEX
  8
46
 10
-7.6000
 20
81.0300
 30
0.0000
  0
SEQEND
  8
0
  0
POLYLINE
  8
46
 66
1
 10
0.0000
 20
0.0000
 30
0.0000
 40
0.1270
 41
0.1270
 70
0
  0
VERTEX
  8
46
 10
-7.5365
 20
81.0300
 30
0.0000
 42
1.0000
  0
VERTEX
  8
46
 10
-7.6635
 20
81.0300
 30
0.0000
  0
SEQEND
  8
0
  0
POLYLINE
  8
46
 66
1
 10
0.0000
 20
0.0000
 30
0.0000
 40
0.1270
 41
0.1270
 70
0
  0
VERTEX
  8
46
 10
-7.6635
 20
5.0000
 30
0.0000
 42
1.0000
  0
VERTEX
  8
46
 10
-7.5365
 20
5.0000
 30
0.0000
  0
SEQEND
  8
0
  0
POLYLINE
  8
46
 66
1
 10
0.0000
 20
0.0000
 30
0.0000
 40
0.2540
 41
0.2540
 70
0
  0
VERTEX
  8
46
 10
-7.6000
 20
81.0300
 30
0.0000
  0
VERTEX
  8
46
 10
-2.6000
 20
86.0300
 30
0.0000
  0
SEQEND
  8
0
  0
POLYLINE
  8
46
 66
1
 10
0.0000
 20
0.0000
 30
0.0000
 40
0.1270
 41
0.1270
 70
0
  0
VERTEX
  8
46
 10
-2.5551
 20
85.9851
 30
0.0000
 42
1.0000
  0
VERTEX
  8
46
 10
-2.6449
 20
86.0749
 30
0.0000
  0
SEQEND
  8
0
  0
POLYLINE
  8
46
 66
1
 10
0.0000
 20
0.0000
 30
0.0000
 40
0.1270
 41
0.1270
 70
0
  0
VERTEX
  8
46
 10
-7.6449
 20
81.0749
 30
0.0000
 42
1.0000
  0
VERTEX
  8
46
 10
-7.5551
 20
80.9851
 30
0.0000
  0
SEQEND
  8
0
  0
POLYLINE
  8
46
 66
1
 10
0.0000
 20
0.0000
 30
0.0000
 40
0.2540
 41
0.2540
 70
0
  0
VERTEX
  8
46
 10
-2.6000
 20
86.0300
 30
0.0000
  0
VERTEX
  8
46
 10
160.1000
 20
86.0300
 30
0.0000
  0
SEQEND
  8
0
  0
POLYLINE
  8
46
 66
1
 10
0.0000
 20
0.0000
 30
0.0000
 40
0.1270
 41
0.1270
 70
0
  0
VERTEX
  8
46
 10
160.1000
 20
85.9665
 30
0.0000
 42
1.0000
  0
VERTEX
  8
46
 10
160.1000
 20
86.0935
 30
0.0000
  0
SEQEND
  8
0
  0
POLYLINE
  8
46
 66
1
 10
0.0000
 20
0.0000
 30
0.0000
 40
0.1270
 41
0.1270
 70
0
  0
VERTEX
  8
46
 10
-2.6000
 20
86.0935
 30
0.0000
 42
1.0000
  0
VERTEX
  8
46
 10
-2.6000
 20
85.9665
 30
0.0000
  0
SEQEND
  8
0
  0
POLYLINE
  8
46
 66
1
 10
0.0000
 20
0.0000
 30
0.0000
 40
0.2540
 41
0.2540
 70
0
  0
VERTEX
  8
46
 10
160.1000
 20
86.0300
 30
0.0000
  0
VERTEX
  8
46
 10
165.1000
 20
81.0300
 30
0.0000
  0
SEQEND
  8
0
  0
POLYLINE
  8
46
 66
1
 10
0.0000
 20
0.0000
 30
0.0000
 40
0.1270
 41
0.1270
 70
0
  0
VERTEX
  8
46
 10
165.0551
 20
80.9851
 30
0.0000
 42
1.0000
  0
VERTEX
  8
46
 10
165.1449
 20
81.0749
 30
0.0000
  0
SEQEND
  8
0
  0
POLYLINE
  8
46
 66
1
 10
0.0000
 20
0.0000
 30
0.0000
 40
0.1270
 41
0.1270
 70
0
  0
VERTEX
  8
46
 10
160.1449
 20
86.0749
 30
0.0000
 42
1.0000
  0
VERTEX
  8
46
 10
160.0551
 20
85.9851
 30
0.0000
  0
SEQEND
  8
0
  0
POLYLINE
  8
46
 66
1
 10
0.0000
 20
0.0000
 30
0.0000
 40
0.2540
 41
0.2540
 70
0
  0
VERTEX
  8
46
 10
165.1000
 20
81.0300
 30
0.0000
  0
VERTEX
  8
46
 10
165.1000
 20
5.0000
 30
0.0000
  0
SEQEND
  8
0
  0
POLYLINE
  8
46
 66
1
 10
0.0000
 20
0.0000
 30
0.0000
 40
0.1270
 41
0.1270
 70
0
  0
VERTEX
  8
46
 10
165.0365
 20
5.0000
 30
0.0000
 42
1.0000
  0
VERTEX
  8
46
 10
165.1635
 20
5.0000
 30
0.0000
  0
SEQEND
  8
0
  0
POLYLINE
  8
46
 66
1
 10
0.0000
 20
0.0000
 30
0.0000
 40
0.1270
 41
0.1270
 70
0
  0
VERTEX
  8
46
 10
165.1635
 20
81.0300
 30
0.0000
 42
1.0000
  0
VERTEX
  8
46
 10
165.0365
 20
81.0300
 30
0.0000
  0
SEQEND
  8
0
  0
POLYLINE
  8
46
 66
1
 10
0.0000
 20
0.0000
 30
0.0000
 40
0.2540
 41
0.2540
 70
0
  0
VERTEX
  8
46
 10
165.1000
 20
5.0000
 30
0.0000
  0
VERTEX
  8
46
 10
160.1000
 20
0.0000
 30
0.0000
  0
SEQEND
  8
0
  0
POLYLINE
  8
46
 66
1
 10
0.0000
 20
0.0000
 30
0.0000
 40
0.1270
 41
0.1270
 70
0
  0
VERTEX
  8
46
 10
160.0551
 20
0.0449
 30
0.0000
 42
1.0000
  0
VERTEX
  8
46
 10
160.1449
 20
-0.0449
 30
0.0000
  0
SEQEND
  8
0
  0
POLYLINE
  8
46
 66
1
 10
0.0000
 20
0.0000
 30
0.0000
 40
0.1270
 41
0.1270
 70
0
  0
VERTEX
  8
46
 10
165.1449
 20
4.9551
 30
0.0000
 42
1.0000
  0
VERTEX
  8
46
 10
165.0551
 20
5.0449
 30
0.0000
  0
SEQEND
  8
0
  0
CIRCLE
  8
20
 10
-2.5400
 20
81.2800
 30
0.0000
 40
1.6000
  0
CIRCLE
  8
20
 10
-1.2700
 20
5.0800
 30
0.0000
 40
1.6000
  0
CIRCLE
  8
20
 10
160.0200
 20
5.0800
 30
0.0000
 40
1.6000
  0
CIRCLE
  8
20
 10
160.0200
 20
81.2800
 30
0.0000
 40
1.6000
  0
INSERT
  8
17
  2
LONGP100
 10
128.2700
 20
21.5900
 30
0.0000
 41
2.5400
 42
2.5400
 43
1.0000
 50
0.0000
  0
INSERT
  8
17
  2
LONGP100
 10
128.2700
 20
21.5900
 30
0.0000
 41
2.5400
 42
2.5400
 43
1.0000
 50
0.0000
  0
CIRCLE
  8
44
 10
128.2700
 20
21.5900
 30
0.0000
 40
0.7500
  0
INSERT
  8
17
  2
LONGP100
 10
128.2700
 20
36.8300
 30
0.0000
 41
2.5400
 42
2.5400
 43
1.0000
 50
0.0000
  0
INSERT
  8
17
  2
LONGP100
 10
128.2700
 20
36.8300
 30
0.0000
 41
2.5400
 42
2.5400
 43
1.0000
 50
0.0000
  0
CIRCLE
  8
44
 10
128.2700
 20
36.8300
 30
0.0000
 40
0.7500
  0
INSERT
  8
17
  2
LONGP100
 10
128.2700
 20
31.7500
 30
0.0000
 41
2.5400
 42
2.5400
 43
1.0000
 50
0.0000
  0
INSERT
  8
17
  2
LONGP100
 10
128.2700
 20
31.7500
 30
0.0000
 41
2.5400
 42
2.5400
 43
1.0000
 50
0.0000
  0
CIRCLE
  8
44
 10
128.2700
 20
31.7500
 30
0.0000
 40
0.7500
  0
INSERT
  8
17
  2
LONGP100
 10
128.2700
 20
26.6700
 30
0.0000
 41
2.5400
 42
2.5400
 43
1.0000
 50
0.0000
  0
INSERT
  8
17
  2
LONGP100
 10
128.2700
 20
26.6700
 30
0.0000
 41
2.5400
 42
2.5400
 43
1.0000
 50
0.0000
  0
CIRCLE
  8
44
 10
128.2700
 20
26.6700
 30
0.0000
 40
0.7500
  0
INSERT
  8
17
  2
ROUNDP
 10
160.0200
 20
39.3700
 30
0.0000
 41
2.1844
 42
2.1844
 43
1.0000
 50
90.0000
  0
INSERT
  8
17
  2
ROUNDP
 10
160.0200
 20
39.3700
 30
0.0000
 41
2.1844
 42
2.1844
 43
1.0000
 50
90.0000
  0
CIRCLE
  8
44
 10
160.0200
 20
39.3700
 30
0.0000
 40
0.4500
  0
INSERT
  8
17
  2
SQUAREP
 10
154.9400
 20
44.4500
 30
0.0000
 41
2.1844
 42
2.1844
 43
1.0000
 50
90.0000
  0
INSERT
  8
17
  2
SQUAREP
 10
154.9400
 20
44.4500
 30
0.0000
 41
2.1844
 42
2.1844
 43
1.0000
 50
90.0000
  0
CIRCLE
  8
44
 10
154.9400
 20
44.4500
 30
0.0000
 40
0.4500
  0
INSERT
  8
17
  2
OCTAGONP
 10
160.0200
 20
44.4500
 30
0.0000
 41
2.1844
 42
2.1844
 43
1.0000
 50
90.0000
  0
INSERT
  8
17
  2
OCTAGONP
 10
160.0200
 20
44.4500
 30
0.0000
 41
2.1844
 42
2.1844
 43
1.0000
 50
90.0000
  0
CIRCLE
  8
44
 10
160.0200
 20
44.4500
 30
0.0000
 40
0.4500
  0
INSERT
  8
17
  2
OCTAGONP
 10
154.9400
 20
39.3700
 30
0.0000
 41
2.1844
 42
2.1844
 43
1.0000
 50
90.0000
  0
INSERT
  8
17
  2
OCTAGONP
 10
154.9400
 20
39.3700
 30
0.0000
 41
2.1844
 42
2.1844
 43
1.0000
 50
90.0000
  0
CIRCLE
  8
44
 10
154.9400
 20
39.3700
 30
0.0000
 40
0.4500
  0
INSERT
  8
17
  2
ROUNDP
 10
104.1400
 20
20.3200
 30
0.0000
 41
4.5974
 42
4.5974
 43
1.0000
 50
90.0000
  0
INSERT
  8
17
  2
ROUNDP
 10
104.1400
 20
20.3200
 30
0.0000
 41
4.5974
 42
4.5974
 43
1.0000
 50
90.0000
  0
CIRCLE
  8
44
 10
104.1400
 20
20.3200
 30
0.0000
 40
1.0033
  0
INSERT
  8
17
  2
OCTAGONP
 10
104.1400
 20
30.4800
 30
0.0000
 41
4.5974
 42
4.5974
 43
1.0000
 50
90.0000
  0
INSERT
  8
17
  2
OCTAGONP
 10
104.1400
 20
30.4800
 30
0.0000
 41
4.5974
 42
4.5974
 43
1.0000
 50
90.0000
  0
CIRCLE
  8
44
 10
104.1400
 20
30.4800
 30
0.0000
 40
1.0033
  0
INSERT
  8
17
  2
OCTAGONP
 10
123.0630
 20
3.8100
 30
0.0000
 41
2.1844
 42
2.1844
 43
1.0000
 50
180.0000
  0
INSERT
  8
17
  2
OCTAGONP
 10
123.0630
 20
3.8100
 30
0.0000
 41
2.1844
 42
2.1844
 43
1.0000
 50
180.0000
  0
CIRCLE
  8
44
 10
123.0630
 20
3.8100
 30
0.0000
 40
0.5500
  0
INSERT
  8
17
  2
OCTAGONP
 10
100.4570
 20
3.8100
 30
0.0000
 41
2.1844
 42
2.1844
 43
1.0000
 50
180.0000
  0
INSERT
  8
17
  2
OCTAGONP
 10
100.4570
 20
3.8100
 30
0.0000
 41
2.1844
 42
2.1844
 43
1.0000
 50
180.0000
  0
CIRCLE
  8
44
 10
100.4570
 20
3.8100
 30
0.0000
 40
0.5500
  0
INSERT
  8
17
  2
OCTAGONP
 10
82.5500
 20
11.5570
 30
0.0000
 41
2.1844
 42
2.1844
 43
1.0000
 50
90.0000
  0
INSERT
  8
17
  2
OCTAGONP
 10
82.5500
 20
11.5570
 30
0.0000
 41
2.1844
 42
2.1844
 43
1.0000
 50
90.0000
  0
CIRCLE
  8
44
 10
82.5500
 20
11.5570
 30
0.0000
 40
0.5500
  0
INSERT
  8
17
  2
OCTAGONP
 10
82.5500
 20
34.1630
 30
0.0000
 41
2.1844
 42
2.1844
 43
1.0000
 50
90.0000
  0
INSERT
  8
17
  2
OCTAGONP
 10
82.5500
 20
34.1630
 30
0.0000
 41
2.1844
 42
2.1844
 43
1.0000
 50
90.0000
  0
CIRCLE
  8
44
 10
82.5500
 20
34.1630
 30
0.0000
 40
0.5500
  0
INSERT
  8
17
  2
OCTAGONP
 10
95.1230
 20
3.8100
 30
0.0000
 41
2.1844
 42
2.1844
 43
1.0000
 50
180.0000
  0
INSERT
  8
17
  2
OCTAGONP
 10
95.1230
 20
3.8100
 30
0.0000
 41
2.1844
 42
2.1844
 43
1.0000
 50
180.0000
  0
CIRCLE
  8
44
 10
95.1230
 20
3.8100
 30
0.0000
 40
0.5500
  0
INSERT
  8
17
  2
OCTAGONP
 10
72.5170
 20
3.8100
 30
0.0000
 41
2.1844
 42
2.1844
 43
1.0000
 50
180.0000
  0
INSERT
  8
17
  2
OCTAGONP
 10
72.5170
 20
3.8100
 30
0.0000
 41
2.1844
 42
2.1844
 43
1.0000
 50
180.0000
  0
CIRCLE
  8
44
 10
72.5170
 20
3.8100
 30
0.0000
 40
0.5500
  0
INSERT
  8
17
  2
OCTAGONP
 10
116.8400
 20
73.6600
 30
0.0000
 41
1.6764
 42
1.6764
 43
1.0000
 50
0.0000
  0
INSERT
  8
17
  2
OCTAGONP
 10
116.8400
 20
73.6600
 30
0.0000
 41
1.6764
 42
1.6764
 43
1.0000
 50
0.0000
  0
CIRCLE
  8
44
 10
116.8400
 20
73.6600
 30
0.0000
 40
0.4500
  0
INSERT
  8
17
  2
SQUAREP
 10
119.3800
 20
73.6600
 30
0.0000
 41
1.6764
 42
1.6764
 43
1.0000
 50
0.0000
  0
INSERT
  8
17
  2
SQUAREP
 10
119.3800
 20
73.6600
 30
0.0000
 41
1.6764
 42
1.6764
 43
1.0000
 50
0.0000
  0
CIRCLE
  8
44
 10
119.3800
 20
73.6600
 30
0.0000
 40
0.4500
  0
INSERT
  8
17
  2
OCTAGONP
 10
125.0950
 20
43.8150
 30
0.0000
 41
1.6764
 42
1.6764
 43
1.0000
 50
0.0000
  0
INSERT
  8
17
  2
OCTAGONP
 10
125.0950
 20
43.8150
 30
0.0000
 41
1.6764
 42
1.6764
 43
1.0000
 50
0.0000
  0
CIRCLE
  8
44
 10
125.0950
 20
43.8150
 30
0.0000
 40
0.4500
  0
INSERT
  8
17
  2
SQUAREP
 10
127.6350
 20
43.8150
 30
0.0000
 41
1.6764
 42
1.6764
 43
1.0000
 50
0.0000
  0
INSERT
  8
17
  2
SQUAREP
 10
127.6350
 20
43.8150
 30
0.0000
 41
1.6764
 42
1.6764
 43
1.0000
 50
0.0000
  0
CIRCLE
  8
44
 10
127.6350
 20
43.8150
 30
0.0000
 40
0.4500
  0
INSERT
  8
17
  2
OCTAGONP
 10
59.6900
 20
22.8600
 30
0.0000
 41
1.7780
 42
1.7780
 43
1.0000
 50
90.0000
  0
INSERT
  8
17
  2
OCTAGONP
 10
59.6900
 20
22.8600
 30
0.0000
 41
1.7780
 42
1.7780
 43
1.0000
 50
90.0000
  0
CIRCLE
  8
44
 10
59.6900
 20
22.8600
 30
0.0000
 40
0.5500
  0
INSERT
  8
17
  2
OCTAGONP
 10
59.6900
 20
27.9400
 30
0.0000
 41
1.7780
 42
1.7780
 43
1.0000
 50
90.0000
  0
INSERT
  8
17
  2
OCTAGONP
 10
59.6900
 20
27.9400
 30
0.0000
 41
1.7780
 42
1.7780
 43
1.0000
 50
90.0000
  0
CIRCLE
  8
44
 10
59.6900
 20
27.9400
 30
0.0000
 40
0.5500
  0
INSERT
  8
17
  2
ROUNDP
 10
74.9300
 20
81.2800
 30
0.0000
 41
3.1496
 42
3.1496
 43
1.0000
 50
270.0000
  0
INSERT
  8
17
  2
ROUNDP
 10
74.9300
 20
81.2800
 30
0.0000
 41
3.1496
 42
3.1496
 43
1.0000
 50
270.0000
  0
CIRCLE
  8
44
 10
74.9300
 20
81.2800
 30
0.0000
 40
0.5500
  0
INSERT
  8
17
  2
OCTAGONP
 10
74.9300
 20
73.6600
 30
0.0000
 41
3.1496
 42
3.1496
 43
1.0000
 50
270.0000
  0
INSERT
  8
17
  2
OCTAGONP
 10
74.9300
 20
73.6600
 30
0.0000
 41
3.1496
 42
3.1496
 43
1.0000
 50
270.0000
  0
CIRCLE
  8
44
 10
74.9300
 20
73.6600
 30
0.0000
 40
0.5500
  0
INSERT
  8
17
  2
ROUNDP
 10
38.1000
 20
66.0400
 30
0.0000
 41
3.1496
 42
3.1496
 43
1.0000
 50
90.0000
  0
INSERT
  8
17
  2
ROUNDP
 10
38.1000
 20
66.0400
 30
0.0000
 41
3.1496
 42
3.1496
 43
1.0000
 50
90.0000
  0
CIRCLE
  8
44
 10
38.1000
 20
66.0400
 30
0.0000
 40
0.5500
  0
INSERT
  8
17
  2
OCTAGONP
 10
38.1000
 20
73.6600
 30
0.0000
 41
3.1496
 42
3.1496
 43
1.0000
 50
90.0000
  0
INSERT
  8
17
  2
OCTAGONP
 10
38.1000
 20
73.6600
 30
0.0000
 41
3.1496
 42
3.1496
 43
1.0000
 50
90.0000
  0
CIRCLE
  8
44
 10
38.1000
 20
73.6600
 30
0.0000
 40
0.5500
  0
INSERT
  8
17
  2
ROUNDP
 10
55.8800
 20
81.2800
 30
0.0000
 41
3.1496
 42
3.1496
 43
1.0000
 50
270.0000
  0
INSERT
  8
17
  2
ROUNDP
 10
55.8800
 20
81.2800
 30
0.0000
 41
3.1496
 42
3.1496
 43
1.0000
 50
270.0000
  0
CIRCLE
  8
44
 10
55.8800
 20
81.2800
 30
0.0000
 40
0.5500
  0
INSERT
  8
17
  2
OCTAGONP
 10
55.8800
 20
73.6600
 30
0.0000
 41
3.1496
 42
3.1496
 43
1.0000
 50
270.0000
  0
INSERT
  8
17
  2
OCTAGONP
 10
55.8800
 20
73.6600
 30
0.0000
 41
3.1496
 42
3.1496
 43
1.0000
 50
270.0000
  0
CIRCLE
  8
44
 10
55.8800
 20
73.6600
 30
0.0000
 40
0.5500
  0
INSERT
  8
17
  2
ROUNDP
 10
159.3850
 20
54.6100
 30
0.0000
 41
2.5400
 42
2.5400
 43
1.0000
 50
180.0000
  0
INSERT
  8
17
  2
ROUNDP
 10
159.3850
 20
54.6100
 30
0.0000
 41
2.5400
 42
2.5400
 43
1.0000
 50
180.0000
  0
CIRCLE
  8
44
 10
159.3850
 20
54.6100
 30
0.0000
 40
0.4500
  0
INSERT
  8
17
  2
SQUAREP
 10
154.3050
 20
54.6100
 30
0.0000
 41
2.5400
 42
2.5400
 43
1.0000
 50
180.0000
  0
INSERT
  8
17
  2
SQUAREP
 10
154.3050
 20
54.6100
 30
0.0000
 41
2.5400
 42
2.5400
 43
1.0000
 50
180.0000
  0
CIRCLE
  8
44
 10
154.3050
 20
54.6100
 30
0.0000
 40
0.4500
  0
INSERT
  8
17
  2
OCTAGONP
 10
149.8600
 20
80.0100
 30
0.0000
 41
1.6764
 42
1.6764
 43
1.0000
 50
180.0000
  0
INSERT
  8
17
  2
OCTAGONP
 10
149.8600
 20
80.0100
 30
0.0000
 41
1.6764
 42
1.6764
 43
1.0000
 50
180.0000
  0
CIRCLE
  8
44
 10
149.8600
 20
80.0100
 30
0.0000
 40
0.4500
  0
INSERT
  8
17
  2
SQUAREP
 10
147.3200
 20
80.0100
 30
0.0000
 41
1.6764
 42
1.6764
 43
1.0000
 50
180.0000
  0
INSERT
  8
17
  2
SQUAREP
 10
147.3200
 20
80.0100
 30
0.0000
 41
1.6764
 42
1.6764
 43
1.0000
 50
180.0000
  0
CIRCLE
  8
44
 10
147.3200
 20
80.0100
 30
0.0000
 40
0.4500
  0
INSERT
  8
17
  2
OCTAGONP
 10
152.4000
 20
15.2400
 30
0.0000
 41
1.6764
 42
1.6764
 43
1.0000
 50
180.0000
  0
INSERT
  8
17
  2
OCTAGONP
 10
152.4000
 20
15.2400
 30
0.0000
 41
1.6764
 42
1.6764
 43
1.0000
 50
180.0000
  0
CIRCLE
  8
44
 10
152.4000
 20
15.2400
 30
0.0000
 40
0.4500
  0
INSERT
  8
17
  2
OCTAGONP
 10
137.1600
 20
15.2400
 30
0.0000
 41
1.6764
 42
1.6764
 43
1.0000
 50
180.0000
  0
INSERT
  8
17
  2
OCTAGONP
 10
137.1600
 20
15.2400
 30
0.0000
 41
1.6764
 42
1.6764
 43
1.0000
 50
180.0000
  0
CIRCLE
  8
44
 10
137.1600
 20
15.2400
 30
0.0000
 40
0.4500
  0
INSERT
  8
17
  2
OCTAGONP
 10
60.9600
 20
31.7500
 30
0.0000
 41
1.7780
 42
1.7780
 43
1.0000
 50
90.0000
  0
INSERT
  8
17
  2
OCTAGONP
 10
60.9600
 20
31.7500
 30
0.0000
 41
1.7780
 42
1.7780
 43
1.0000
 50
90.0000
  0
CIRCLE
  8
44
 10
60.9600
 20
31.7500
 30
0.0000
 40
0.5500
  0
INSERT
  8
17
  2
OCTAGONP
 10
60.9600
 20
41.9100
 30
0.0000
 41
1.7780
 42
1.7780
 43
1.0000
 50
90.0000
  0
INSERT
  8
17
  2
OCTAGONP
 10
60.9600
 20
41.9100
 30
0.0000
 41
1.7780
 42
1.7780
 43
1.0000
 50
90.0000
  0
CIRCLE
  8
44
 10
60.9600
 20
41.9100
 30
0.0000
 40
0.5500
  0
INSERT
  8
17
  2
LONGP100
 10
150.4950
 20
59.6900
 30
0.0000
 41
1.6764
 42
1.6764
 43
1.0000
 50
0.0000
  0
INSERT
  8
17
  2
LONGP100
 10
150.4950
 20
59.6900
 30
0.0000
 41
1.6764
 42
1.6764
 43
1.0000
 50
0.0000
  0
CIRCLE
  8
44
 10
150.4950
 20
59.6900
 30
0.0000
 40
0.5500
  0
INSERT
  8
17
  2
LONGP100
 10
140.3350
 20
59.6900
 30
0.0000
 41
1.6764
 42
1.6764
 43
1.0000
 50
0.0000
  0
INSERT
  8
17
  2
LONGP100
 10
140.3350
 20
59.6900
 30
0.0000
 41
1.6764
 42
1.6764
 43
1.0000
 50
0.0000
  0
CIRCLE
  8
44
 10
140.3350
 20
59.6900
 30
0.0000
 40
0.5500
  0
INSERT
  8
17
  2
LONGP100
 10
19.0500
 20
52.0700
 30
0.0000
 41
1.6764
 42
1.6764
 43
1.0000
 50
90.0000
  0
INSERT
  8
17
  2
LONGP100
 10
19.0500
 20
52.0700
 30
0.0000
 41
1.6764
 42
1.6764
 43
1.0000
 50
90.0000
  0
CIRCLE
  8
44
 10
19.0500
 20
52.0700
 30
0.0000
 40
0.5500
  0
INSERT
  8
17
  2
LONGP100
 10
24.1300
 20
52.0700
 30
0.0000
 41
1.6764
 42
1.6764
 43
1.0000
 50
90.0000
  0
INSERT
  8
17
  2
LONGP100
 10
24.1300
 20
52.0700
 30
0.0000
 41
1.6764
 42
1.6764
 43
1.0000
 50
90.0000
  0
CIRCLE
  8
44
 10
24.1300
 20
52.0700
 30
0.0000
 40
0.5500
  0
INSERT
  8
17
  2
LONGP100
 10
0.0000
 20
52.0700
 30
0.0000
 41
1.6764
 42
1.6764
 43
1.0000
 50
90.0000
  0
INSERT
  8
17
  2
LONGP100
 10
0.0000
 20
52.0700
 30
0.0000
 41
1.6764
 42
1.6764
 43
1.0000
 50
90.0000
  0
CIRCLE
  8
44
 10
0.0000
 20
52.0700
 30
0.0000
 40
0.5500
  0
INSERT
  8
17
  2
LONGP100
 10
5.0800
 20
52.0700
 30
0.0000
 41
1.6764
 42
1.6764
 43
1.0000
 50
90.0000
  0
INSERT
  8
17
  2
LONGP100
 10
5.0800
 20
52.0700
 30
0.0000
 41
1.6764
 42
1.6764
 43
1.0000
 50
90.0000
  0
CIRCLE
  8
44
 10
5.0800
 20
52.0700
 30
0.0000
 40
0.5500
  0
INSERT
  8
17
  2
LONGP100
 10
2.5400
 20
15.2400
 30
0.0000
 41
1.6764
 42
1.6764
 43
1.0000
 50
180.0000
  0
INSERT
  8
17
  2
LONGP100
 10
2.5400
 20
15.2400
 30
0.0000
 41
1.6764
 42
1.6764
 43
1.0000
 50
180.0000
  0
CIRCLE
  8
44
 10
2.5400
 20
15.2400
 30
0.0000
 40
0.5500
  0
INSERT
  8
17
  2
LONGP100
 10
2.5400
 20
20.3200
 30
0.0000
 41
1.6764
 42
1.6764
 43
1.0000
 50
180.0000
  0
INSERT
  8
17
  2
LONGP100
 10
2.5400
 20
20.3200
 30
0.0000
 41
1.6764
 42
1.6764
 43
1.0000
 50
180.0000
  0
CIRCLE
  8
44
 10
2.5400
 20
20.3200
 30
0.0000
 40
0.5500
  0
INSERT
  8
17
  2
LONGP100
 10
2.5400
 20
35.5600
 30
0.0000
 41
1.6764
 42
1.6764
 43
1.0000
 50
180.0000
  0
INSERT
  8
17
  2
LONGP100
 10
2.5400
 20
35.5600
 30
0.0000
 41
1.6764
 42
1.6764
 43
1.0000
 50
180.0000
  0
CIRCLE
  8
44
 10
2.5400
 20
35.5600
 30
0.0000
 40
0.5500
  0
INSERT
  8
17
  2
LONGP100
 10
2.5400
 20
40.6400
 30
0.0000
 41
1.6764
 42
1.6764
 43
1.0000
 50
180.0000
  0
INSERT
  8
17
  2
LONGP100
 10
2.5400
 20
40.6400
 30
0.0000
 41
1.6764
 42
1.6764
 43
1.0000
 50
180.0000
  0
CIRCLE
  8
44
 10
2.5400
 20
40.6400
 30
0.0000
 40
0.5500
  0
INSERT
  8
17
  2
ROUNDP
 10
102.8700
 20
63.5000
 30
0.0000
 41
1.7780
 42
1.7780
 43
1.0000
 50
0.0000
  0
INSERT
  8
17
  2
ROUNDP
 10
102.8700
 20
63.5000
 30
0.0000
 41
1.7780
 42
1.7780
 43
1.0000
 50
0.0000
  0
CIRCLE
  8
44
 10
102.8700
 20
63.5000
 30
0.0000
 40
0.5500
  0
INSERT
  8
17
  2
ROUNDP
 10
92.7100
 20
63.5000
 30
0.0000
 41
1.7780
 42
1.7780
 43
1.0000
 50
0.0000
  0
INSERT
  8
17
  2
ROUNDP
 10
92.7100
 20
63.5000
 30
0.0000
 41
1.7780
 42
1.7780
 43
1.0000
 50
0.0000
  0
CIRCLE
  8
44
 10
92.7100
 20
63.5000
 30
0.0000
 40
0.5500
  0
INSERT
  8
17
  2
ROUNDP
 10
90.1700
 20
68.5800
 30
0.0000
 41
1.7780
 42
1.7780
 43
1.0000
 50
270.0000
  0
INSERT
  8
17
  2
ROUNDP
 10
90.1700
 20
68.5800
 30
0.0000
 41
1.7780
 42
1.7780
 43
1.0000
 50
270.0000
  0
CIRCLE
  8
44
 10
90.1700
 20
68.5800
 30
0.0000
 40
0.5500
  0
INSERT
  8
17
  2
ROUNDP
 10
90.1700
 20
78.7400
 30
0.0000
 41
1.7780
 42
1.7780
 43
1.0000
 50
270.0000
  0
INSERT
  8
17
  2
ROUNDP
 10
90.1700
 20
78.7400
 30
0.0000
 41
1.7780
 42
1.7780
 43
1.0000
 50
270.0000
  0
CIRCLE
  8
44
 10
90.1700
 20
78.7400
 30
0.0000
 40
0.5500
  0
INSERT
  8
17
  2
LONGP100
 10
102.8700
 20
77.4700
 30
0.0000
 41
1.6764
 42
1.6764
 43
1.0000
 50
180.0000
  0
INSERT
  8
17
  2
LONGP100
 10
102.8700
 20
77.4700
 30
0.0000
 41
1.6764
 42
1.6764
 43
1.0000
 50
180.0000
  0
CIRCLE
  8
44
 10
102.8700
 20
77.4700
 30
0.0000
 40
0.5500
  0
INSERT
  8
17
  2
LONGP100
 10
102.8700
 20
82.5500
 30
0.0000
 41
1.6764
 42
1.6764
 43
1.0000
 50
180.0000
  0
INSERT
  8
17
  2
LONGP100
 10
102.8700
 20
82.5500
 30
0.0000
 41
1.6764
 42
1.6764
 43
1.0000
 50
180.0000
  0
CIRCLE
  8
44
 10
102.8700
 20
82.5500
 30
0.0000
 40
0.5500
  0
INSERT
  8
17
  2
ROUNDP
 10
135.8900
 20
77.4700
 30
0.0000
 41
1.7780
 42
1.7780
 43
1.0000
 50
180.0000
  0
INSERT
  8
17
  2
ROUNDP
 10
135.8900
 20
77.4700
 30
0.0000
 41
1.7780
 42
1.7780
 43
1.0000
 50
180.0000
  0
CIRCLE
  8
44
 10
135.8900
 20
77.4700
 30
0.0000
 40
0.5500
  0
INSERT
  8
17
  2
ROUNDP
 10
146.0500
 20
77.4700
 30
0.0000
 41
1.7780
 42
1.7780
 43
1.0000
 50
180.0000
  0
INSERT
  8
17
  2
ROUNDP
 10
146.0500
 20
77.4700
 30
0.0000
 41
1.7780
 42
1.7780
 43
1.0000
 50
180.0000
  0
CIRCLE
  8
44
 10
146.0500
 20
77.4700
 30
0.0000
 40
0.5500
  0
INSERT
  8
17
  2
LONGP100
 10
153.4922
 20
5.0800
 30
0.0000
 41
2.5400
 42
2.5400
 43
1.0000
 50
90.0000
  0
INSERT
  8
17
  2
LONGP100
 10
153.4922
 20
5.0800
 30
0.0000
 41
2.5400
 42
2.5400
 43
1.0000
 50
90.0000
  0
CIRCLE
  8
44
 10
153.4922
 20
5.0800
 30
0.0000
 40
0.5500
  0
INSERT
  8
17
  2
LONGP100
 10
130.9878
 20
5.0800
 30
0.0000
 41
2.5400
 42
2.5400
 43
1.0000
 50
90.0000
  0
INSERT
  8
17
  2
LONGP100
 10
130.9878
 20
5.0800
 30
0.0000
 41
2.5400
 42
2.5400
 43
1.0000
 50
90.0000
  0
CIRCLE
  8
44
 10
130.9878
 20
5.0800
 30
0.0000
 40
0.5500
  0
INSERT
  8
17
  2
LONGP100
 10
139.7000
 20
44.4500
 30
0.0000
 41
1.4080
 42
1.4080
 43
1.0000
 50
0.0000
  0
INSERT
  8
17
  2
LONGP100
 10
139.7000
 20
44.4500
 30
0.0000
 41
1.4080
 42
1.4080
 43
1.0000
 50
0.0000
  0
CIRCLE
  8
44
 10
139.7000
 20
44.4500
 30
0.0000
 40
0.4500
  0
INSERT
  8
17
  2
LONGP100
 10
139.7000
 20
46.9900
 30
0.0000
 41
1.4080
 42
1.4080
 43
1.0000
 50
0.0000
  0
INSERT
  8
17
  2
LONGP100
 10
139.7000
 20
46.9900
 30
0.0000
 41
1.4080
 42
1.4080
 43
1.0000
 50
0.0000
  0
CIRCLE
  8
44
 10
139.7000
 20
46.9900
 30
0.0000
 40
0.4500
  0
INSERT
  8
17
  2
LONGP100
 10
139.7000
 20
49.5300
 30
0.0000
 41
1.4080
 42
1.4080
 43
1.0000
 50
0.0000
  0
INSERT
  8
17
  2
LONGP100
 10
139.7000
 20
49.5300
 30
0.0000
 41
1.4080
 42
1.4080
 43
1.0000
 50
0.0000
  0
CIRCLE
  8
44
 10
139.7000
 20
49.5300
 30
0.0000
 40
0.4500
  0
INSERT
  8
17
  2
LONGP100
 10
139.7000
 20
52.0700
 30
0.0000
 41
1.4080
 42
1.4080
 43
1.0000
 50
0.0000
  0
INSERT
  8
17
  2
LONGP100
 10
139.7000
 20
52.0700
 30
0.0000
 41
1.4080
 42
1.4080
 43
1.0000
 50
0.0000
  0
CIRCLE
  8
44
 10
139.7000
 20
52.0700
 30
0.0000
 40
0.4500
  0
INSERT
  8
17
  2
LONGP100
 10
147.3200
 20
52.0700
 30
0.0000
 41
1.4080
 42
1.4080
 43
1.0000
 50
0.0000
  0
INSERT
  8
17
  2
LONGP100
 10
147.3200
 20
52.0700
 30
0.0000
 41
1.4080
 42
1.4080
 43
1.0000
 50
0.0000
  0
CIRCLE
  8
44
 10
147.3200
 20
52.0700
 30
0.0000
 40
0.4500
  0
INSERT
  8
17
  2
LONGP100
 10
147.3200
 20
46.9900
 30
0.0000
 41
1.4080
 42
1.4080
 43
1.0000
 50
0.0000
  0
INSERT
  8
17
  2
LONGP100
 10
147.3200
 20
46.9900
 30
0.0000
 41
1.4080
 42
1.4080
 43
1.0000
 50
0.0000
  0
CIRCLE
  8
44
 10
147.3200
 20
46.9900
 30
0.0000
 40
0.4500
  0
INSERT
  8
17
  2
LONGP100
 10
147.3200
 20
44.4500
 30
0.0000
 41
1.4080
 42
1.4080
 43
1.0000
 50
0.0000
  0
INSERT
  8
17
  2
LONGP100
 10
147.3200
 20
44.4500
 30
0.0000
 41
1.4080
 42
1.4080
 43
1.0000
 50
0.0000
  0
CIRCLE
  8
44
 10
147.3200
 20
44.4500
 30
0.0000
 40
0.4500
  0
INSERT
  8
17
  2
OCTAGONP
 10
86.3600
 20
74.9300
 30
0.0000
 41
1.7780
 42
1.7780
 43
1.0000
 50
180.0000
  0
INSERT
  8
17
  2
OCTAGONP
 10
86.3600
 20
74.9300
 30
0.0000
 41
1.7780
 42
1.7780
 43
1.0000
 50
180.0000
  0
CIRCLE
  8
44
 10
86.3600
 20
74.9300
 30
0.0000
 40
0.5500
  0
INSERT
  8
17
  2
OCTAGONP
 10
86.3600
 20
72.3900
 30
0.0000
 41
1.7780
 42
1.7780
 43
1.0000
 50
180.0000
  0
INSERT
  8
17
  2
OCTAGONP
 10
86.3600
 20
72.3900
 30
0.0000
 41
1.7780
 42
1.7780
 43
1.0000
 50
180.0000
  0
CIRCLE
  8
44
 10
86.3600
 20
72.3900
 30
0.0000
 40
0.5500
  0
INSERT
  8
17
  2
OCTAGONP
 10
137.1600
 20
82.5500
 30
0.0000
 41
1.7780
 42
1.7780
 43
1.0000
 50
180.0000
  0
INSERT
  8
17
  2
OCTAGONP
 10
137.1600
 20
82.5500
 30
0.0000
 41
1.7780
 42
1.7780
 43
1.0000
 50
180.0000
  0
CIRCLE
  8
44
 10
137.1600
 20
82.5500
 30
0.0000
 40
0.5500
  0
INSERT
  8
17
  2
OCTAGONP
 10
137.1600
 20
80.0100
 30
0.0000
 41
1.7780
 42
1.7780
 43
1.0000
 50
180.0000
  0
INSERT
  8
17
  2
OCTAGONP
 10
137.1600
 20
80.0100
 30
0.0000
 41
1.7780
 42
1.7780
 43
1.0000
 50
180.0000
  0
CIRCLE
  8
44
 10
137.1600
 20
80.0100
 30
0.0000
 40
0.5500
  0
INSERT
  8
17
  2
LONGP100
 10
18.9230
 20
67.3862
 30
0.0000
 41
2.2500
 42
2.2500
 43
1.0000
 50
0.0000
  0
INSERT
  8
17
  2
LONGP100
 10
18.9230
 20
67.3862
 30
0.0000
 41
2.2500
 42
2.2500
 43
1.0000
 50
0.0000
  0
CIRCLE
  8
44
 10
18.9230
 20
67.3862
 30
0.0000
 40
0.7500
  0
INSERT
  8
17
  2
LONGP100
 10
3.9370
 20
67.3862
 30
0.0000
 41
2.2500
 42
2.2500
 43
1.0000
 50
0.0000
  0
INSERT
  8
17
  2
LONGP100
 10
3.9370
 20
67.3862
 30
0.0000
 41
2.2500
 42
2.2500
 43
1.0000
 50
0.0000
  0
CIRCLE
  8
44
 10
3.9370
 20
67.3862
 30
0.0000
 40
0.7500
  0
INSERT
  8
17
  2
LONGP100
 10
3.9370
 20
77.3938
 30
0.0000
 41
2.2500
 42
2.2500
 43
1.0000
 50
0.0000
  0
INSERT
  8
17
  2
LONGP100
 10
3.9370
 20
77.3938
 30
0.0000
 41
2.2500
 42
2.2500
 43
1.0000
 50
0.0000
  0
CIRCLE
  8
44
 10
3.9370
 20
77.3938
 30
0.0000
 40
0.7500
  0
INSERT
  8
17
  2
LONGP100
 10
18.9230
 20
77.3938
 30
0.0000
 41
2.2500
 42
2.2500
 43
1.0000
 50
0.0000
  0
INSERT
  8
17
  2
LONGP100
 10
18.9230
 20
77.3938
 30
0.0000
 41
2.2500
 42
2.2500
 43
1.0000
 50
0.0000
  0
CIRCLE
  8
44
 10
18.9230
 20
77.3938
 30
0.0000
 40
0.7500
  0
INSERT
  8
17
  2
LONGP100
 10
156.0830
 20
22.9362
 30
0.0000
 41
2.2500
 42
2.2500
 43
1.0000
 50
0.0000
  0
INSERT
  8
17
  2
LONGP100
 10
156.0830
 20
22.9362
 30
0.0000
 41
2.2500
 42
2.2500
 43
1.0000
 50
0.0000
  0
CIRCLE
  8
44
 10
156.0830
 20
22.9362
 30
0.0000
 40
0.7500
  0
INSERT
  8
17
  2
LONGP100
 10
141.0970
 20
22.9362
 30
0.0000
 41
2.2500
 42
2.2500
 43
1.0000
 50
0.0000
  0
INSERT
  8
17
  2
LONGP100
 10
141.0970
 20
22.9362
 30
0.0000
 41
2.2500
 42
2.2500
 43
1.0000
 50
0.0000
  0
CIRCLE
  8
44
 10
141.0970
 20
22.9362
 30
0.0000
 40
0.7500
  0
INSERT
  8
17
  2
LONGP100
 10
141.0970
 20
32.9438
 30
0.0000
 41
2.2500
 42
2.2500
 43
1.0000
 50
0.0000
  0
INSERT
  8
17
  2
LONGP100
 10
141.0970
 20
32.9438
 30
0.0000
 41
2.2500
 42
2.2500
 43
1.0000
 50
0.0000
  0
CIRCLE
  8
44
 10
141.0970
 20
32.9438
 30
0.0000
 40
0.7500
  0
INSERT
  8
17
  2
LONGP100
 10
156.0830
 20
32.9438
 30
0.0000
 41
2.2500
 42
2.2500
 43
1.0000
 50
0.0000
  0
INSERT
  8
17
  2
LONGP100
 10
156.0830
 20
32.9438
 30
0.0000
 41
2.2500
 42
2.2500
 43
1.0000
 50
0.0000
  0
CIRCLE
  8
44
 10
156.0830
 20
32.9438
 30
0.0000
 40
0.7500
  0
INSERT
  8
17
  2
OFFSETP100
 10
105.4100
 20
67.3100
 30
0.0000
 41
1.4080
 42
1.4080
 43
1.0000
 50
180.0000
  0
INSERT
  8
17
  2
OFFSETP100
 10
105.4100
 20
67.3100
 30
0.0000
 41
1.4080
 42
1.4080
 43
1.0000
 50
180.0000
  0
CIRCLE
  8
44
 10
105.4100
 20
67.3100
 30
0.0000
 40
0.4500
  0
INSERT
  8
17
  2
OFFSETP100
 10
105.4100
 20
69.8500
 30
0.0000
 41
1.4080
 42
1.4080
 43
1.0000
 50
180.0000
  0
INSERT
  8
17
  2
OFFSETP100
 10
105.4100
 20
69.8500
 30
0.0000
 41
1.4080
 42
1.4080
 43
1.0000
 50
180.0000
  0
CIRCLE
  8
44
 10
105.4100
 20
69.8500
 30
0.0000
 40
0.4500
  0
INSERT
  8
17
  2
OFFSETP100
 10
113.0300
 20
69.8500
 30
0.0000
 41
1.4080
 42
1.4080
 43
1.0000
 50
0.0000
  0
INSERT
  8
17
  2
OFFSETP100
 10
113.0300
 20
69.8500
 30
0.0000
 41
1.4080
 42
1.4080
 43
1.0000
 50
0.0000
  0
CIRCLE
  8
44
 10
113.0300
 20
69.8500
 30
0.0000
 40
0.4500
  0
INSERT
  8
17
  2
OFFSETP100
 10
113.0300
 20
67.3100
 30
0.0000
 41
1.4080
 42
1.4080
 43
1.0000
 50
0.0000
  0
INSERT
  8
17
  2
OFFSETP100
 10
113.0300
 20
67.3100
 30
0.0000
 41
1.4080
 42
1.4080
 43
1.0000
 50
0.0000
  0
CIRCLE
  8
44
 10
113.0300
 20
67.3100
 30
0.0000
 40
0.4500
  0
INSERT
  8
17
  2
OFFSETP100
 10
134.6200
 20
72.3900
 30
0.0000
 41
1.4080
 42
1.4080
 43
1.0000
 50
90.0000
  0
INSERT
  8
17
  2
OFFSETP100
 10
134.6200
 20
72.3900
 30
0.0000
 41
1.4080
 42
1.4080
 43
1.0000
 50
90.0000
  0
CIRCLE
  8
44
 10
134.6200
 20
72.3900
 30
0.0000
 40
0.4500
  0
INSERT
  8
17
  2
OFFSETP100
 10
137.1600
 20
72.3900
 30
0.0000
 41
1.4080
 42
1.4080
 43
1.0000
 50
90.0000
  0
INSERT
  8
17
  2
OFFSETP100
 10
137.1600
 20
72.3900
 30
0.0000
 41
1.4080
 42
1.4080
 43
1.0000
 50
90.0000
  0
CIRCLE
  8
44
 10
137.1600
 20
72.3900
 30
0.0000
 40
0.4500
  0
INSERT
  8
17
  2
OFFSETP100
 10
137.1600
 20
64.7700
 30
0.0000
 41
1.4080
 42
1.4080
 43
1.0000
 50
270.0000
  0
INSERT
  8
17
  2
OFFSETP100
 10
137.1600
 20
64.7700
 30
0.0000
 41
1.4080
 42
1.4080
 43
1.0000
 50
270.0000
  0
CIRCLE
  8
44
 10
137.1600
 20
64.7700
 30
0.0000
 40
0.4500
  0
INSERT
  8
17
  2
OFFSETP100
 10
134.6200
 20
64.7700
 30
0.0000
 41
1.4080
 42
1.4080
 43
1.0000
 50
270.0000
  0
INSERT
  8
17
  2
OFFSETP100
 10
134.6200
 20
64.7700
 30
0.0000
 41
1.4080
 42
1.4080
 43
1.0000
 50
270.0000
  0
CIRCLE
  8
44
 10
134.6200
 20
64.7700
 30
0.0000
 40
0.4500
  0
INSERT
  8
17
  2
LONGP100
 10
72.3900
 20
16.5100
 30
0.0000
 41
1.6500
 42
1.6500
 43
1.0000
 50
180.0000
  0
INSERT
  8
17
  2
LONGP100
 10
72.3900
 20
16.5100
 30
0.0000
 41
1.6500
 42
1.6500
 43
1.0000
 50
180.0000
  0
CIRCLE
  8
44
 10
72.3900
 20
16.5100
 30
0.0000
 40
0.5500
  0
INSERT
  8
17
  2
LONGP100
 10
72.3900
 20
19.0500
 30
0.0000
 41
1.6500
 42
1.6500
 43
1.0000
 50
180.0000
  0
INSERT
  8
17
  2
LONGP100
 10
72.3900
 20
19.0500
 30
0.0000
 41
1.6500
 42
1.6500
 43
1.0000
 50
180.0000
  0
CIRCLE
  8
44
 10
72.3900
 20
19.0500
 30
0.0000
 40
0.5500
  0
INSERT
  8
17
  2
LONGP100
 10
72.3900
 20
13.9700
 30
0.0000
 41
1.6500
 42
1.6500
 43
1.0000
 50
180.0000
  0
INSERT
  8
17
  2
LONGP100
 10
72.3900
 20
13.9700
 30
0.0000
 41
1.6500
 42
1.6500
 43
1.0000
 50
180.0000
  0
CIRCLE
  8
44
 10
72.3900
 20
13.9700
 30
0.0000
 40
0.5500
  0
INSERT
  8
17
  2
LONGP100
 10
72.3900
 20
34.2900
 30
0.0000
 41
1.6500
 42
1.6500
 43
1.0000
 50
180.0000
  0
INSERT
  8
17
  2
LONGP100
 10
72.3900
 20
34.2900
 30
0.0000
 41
1.6500
 42
1.6500
 43
1.0000
 50
180.0000
  0
CIRCLE
  8
44
 10
72.3900
 20
34.2900
 30
0.0000
 40
0.5500
  0
INSERT
  8
17
  2
LONGP100
 10
72.3900
 20
36.8300
 30
0.0000
 41
1.6500
 42
1.6500
 43
1.0000
 50
180.0000
  0
INSERT
  8
17
  2
LONGP100
 10
72.3900
 20
36.8300
 30
0.0000
 41
1.6500
 42
1.6500
 43
1.0000
 50
180.0000
  0
CIRCLE
  8
44
 10
72.3900
 20
36.8300
 30
0.0000
 40
0.5500
  0
INSERT
  8
17
  2
LONGP100
 10
72.3900
 20
31.7500
 30
0.0000
 41
1.6500
 42
1.6500
 43
1.0000
 50
180.0000
  0
INSERT
  8
17
  2
LONGP100
 10
72.3900
 20
31.7500
 30
0.0000
 41
1.6500
 42
1.6500
 43
1.0000
 50
180.0000
  0
CIRCLE
  8
44
 10
72.3900
 20
31.7500
 30
0.0000
 40
0.5500
  0
INSERT
  8
17
  2
OCTAGONP
 10
133.5041
 20
16.6641
 30
0.0000
 41
1.6764
 42
1.6764
 43
1.0000
 50
135.0000
  0
INSERT
  8
17
  2
OCTAGONP
 10
133.5041
 20
16.6641
 30
0.0000
 41
1.6764
 42
1.6764
 43
1.0000
 50
135.0000
  0
CIRCLE
  8
44
 10
133.5041
 20
16.6641
 30
0.0000
 40
0.5500
  0
INSERT
  8
17
  2
OCTAGONP
 10
128.1159
 20
11.2759
 30
0.0000
 41
1.6764
 42
1.6764
 43
1.0000
 50
135.0000
  0
INSERT
  8
17
  2
OCTAGONP
 10
128.1159
 20
11.2759
 30
0.0000
 41
1.6764
 42
1.6764
 43
1.0000
 50
135.0000
  0
CIRCLE
  8
44
 10
128.1159
 20
11.2759
 30
0.0000
 40
0.5500
  0
INSERT
  8
17
  2
OCTAGONP
 10
123.1900
 20
24.1300
 30
0.0000
 41
1.9304
 42
1.9304
 43
1.0000
 50
270.0000
  0
INSERT
  8
17
  2
OCTAGONP
 10
123.1900
 20
24.1300
 30
0.0000
 41
1.9304
 42
1.9304
 43
1.0000
 50
270.0000
  0
CIRCLE
  8
44
 10
123.1900
 20
24.1300
 30
0.0000
 40
0.4500
  0
INSERT
  8
17
  2
OCTAGONP
 10
123.1900
 20
13.9700
 30
0.0000
 41
1.9304
 42
1.9304
 43
1.0000
 50
270.0000
  0
INSERT
  8
17
  2
OCTAGONP
 10
123.1900
 20
13.9700
 30
0.0000
 41
1.9304
 42
1.9304
 43
1.0000
 50
270.0000
  0
CIRCLE
  8
44
 10
123.1900
 20
13.9700
 30
0.0000
 40
0.4500
  0
INSERT
  8
17
  2
OCTAGONP
 10
153.6700
 20
36.8300
 30
0.0000
 41
1.6764
 42
1.6764
 43
1.0000
 50
180.0000
  0
INSERT
  8
17
  2
OCTAGONP
 10
153.6700
 20
36.8300
 30
0.0000
 41
1.6764
 42
1.6764
 43
1.0000
 50
180.0000
  0
CIRCLE
  8
44
 10
153.6700
 20
36.8300
 30
0.0000
 40
0.4500
  0
INSERT
  8
17
  2
OCTAGONP
 10
143.5100
 20
36.8300
 30
0.0000
 41
1.6764
 42
1.6764
 43
1.0000
 50
180.0000
  0
INSERT
  8
17
  2
OCTAGONP
 10
143.5100
 20
36.8300
 30
0.0000
 41
1.6764
 42
1.6764
 43
1.0000
 50
180.0000
  0
CIRCLE
  8
44
 10
143.5100
 20
36.8300
 30
0.0000
 40
0.4500
  0
INSERT
  8
17
  2
OCTAGONP
 10
33.0200
 20
53.3400
 30
0.0000
 41
2.5400
 42
2.5400
 43
1.0000
 50
0.0000
  0
INSERT
  8
17
  2
OCTAGONP
 10
33.0200
 20
53.3400
 30
0.0000
 41
2.5400
 42
2.5400
 43
1.0000
 50
0.0000
  0
CIRCLE
  8
44
 10
33.0200
 20
53.3400
 30
0.0000
 40
0.5500
  0
INSERT
  8
17
  2
OCTAGONP
 10
60.9600
 20
53.3400
 30
0.0000
 41
2.5400
 42
2.5400
 43
1.0000
 50
0.0000
  0
INSERT
  8
17
  2
OCTAGONP
 10
60.9600
 20
53.3400
 30
0.0000
 41
2.5400
 42
2.5400
 43
1.0000
 50
0.0000
  0
CIRCLE
  8
44
 10
60.9600
 20
53.3400
 30
0.0000
 40
0.5500
  0
INSERT
  8
17
  2
OCTAGONP
 10
77.4700
 20
39.3700
 30
0.0000
 41
1.6764
 42
1.6764
 43
1.0000
 50
270.0000
  0
INSERT
  8
17
  2
OCTAGONP
 10
77.4700
 20
39.3700
 30
0.0000
 41
1.6764
 42
1.6764
 43
1.0000
 50
270.0000
  0
CIRCLE
  8
44
 10
77.4700
 20
39.3700
 30
0.0000
 40
0.4500
  0
INSERT
  8
17
  2
OCTAGONP
 10
77.4700
 20
26.6700
 30
0.0000
 41
1.6764
 42
1.6764
 43
1.0000
 50
270.0000
  0
INSERT
  8
17
  2
OCTAGONP
 10
77.4700
 20
26.6700
 30
0.0000
 41
1.6764
 42
1.6764
 43
1.0000
 50
270.0000
  0
CIRCLE
  8
44
 10
77.4700
 20
26.6700
 30
0.0000
 40
0.4500
  0
INSERT
  8
17
  2
OCTAGONP
 10
84.1282
 20
53.0131
 30
0.0000
 41
1.6764
 42
1.6764
 43
1.0000
 50
225.0000
  0
INSERT
  8
17
  2
OCTAGONP
 10
84.1282
 20
53.0131
 30
0.0000
 41
1.6764
 42
1.6764
 43
1.0000
 50
225.0000
  0
CIRCLE
  8
44
 10
84.1282
 20
53.0131
 30
0.0000
 40
0.4500
  0
INSERT
  8
17
  2
OCTAGONP
 10
75.1479
 20
44.0329
 30
0.0000
 41
1.6764
 42
1.6764
 43
1.0000
 50
225.0000
  0
INSERT
  8
17
  2
OCTAGONP
 10
75.1479
 20
44.0329
 30
0.0000
 41
1.6764
 42
1.6764
 43
1.0000
 50
225.0000
  0
CIRCLE
  8
44
 10
75.1479
 20
44.0329
 30
0.0000
 40
0.4500
  0
INSERT
  8
17
  2
OCTAGONP
 10
59.6900
 20
20.3200
 30
0.0000
 41
1.7780
 42
1.7780
 43
1.0000
 50
270.0000
  0
INSERT
  8
17
  2
OCTAGONP
 10
59.6900
 20
20.3200
 30
0.0000
 41
1.7780
 42
1.7780
 43
1.0000
 50
270.0000
  0
CIRCLE
  8
44
 10
59.6900
 20
20.3200
 30
0.0000
 40
0.5500
  0
INSERT
  8
17
  2
OCTAGONP
 10
59.6900
 20
2.5400
 30
0.0000
 41
1.7780
 42
1.7780
 43
1.0000
 50
270.0000
  0
INSERT
  8
17
  2
OCTAGONP
 10
59.6900
 20
2.5400
 30
0.0000
 41
1.7780
 42
1.7780
 43
1.0000
 50
270.0000
  0
CIRCLE
  8
44
 10
59.6900
 20
2.5400
 30
0.0000
 40
0.5500
  0
INSERT
  8
17
  2
OCTAGONP
 10
123.1900
 20
36.8300
 30
0.0000
 41
1.9304
 42
1.9304
 43
1.0000
 50
270.0000
  0
INSERT
  8
17
  2
OCTAGONP
 10
123.1900
 20
36.8300
 30
0.0000
 41
1.9304
 42
1.9304
 43
1.0000
 50
270.0000
  0
CIRCLE
  8
44
 10
123.1900
 20
36.8300
 30
0.0000
 40
0.4500
  0
INSERT
  8
17
  2
OCTAGONP
 10
123.1900
 20
26.6700
 30
0.0000
 41
1.9304
 42
1.9304
 43
1.0000
 50
270.0000
  0
INSERT
  8
17
  2
OCTAGONP
 10
123.1900
 20
26.6700
 30
0.0000
 41
1.9304
 42
1.9304
 43
1.0000
 50
270.0000
  0
CIRCLE
  8
44
 10
123.1900
 20
26.6700
 30
0.0000
 40
0.4500
  0
INSERT
  8
17
  2
OCTAGONP
 10
46.9900
 20
40.6400
 30
0.0000
 41
2.5400
 42
2.5400
 43
1.0000
 50
270.0000
  0
INSERT
  8
17
  2
OCTAGONP
 10
46.9900
 20
40.6400
 30
0.0000
 41
2.5400
 42
2.5400
 43
1.0000
 50
270.0000
  0
CIRCLE
  8
44
 10
46.9900
 20
40.6400
 30
0.0000
 40
0.6000
  0
INSERT
  8
17
  2
OCTAGONP
 10
46.9900
 20
35.5600
 30
0.0000
 41
2.5400
 42
2.5400
 43
1.0000
 50
270.0000
  0
INSERT
  8
17
  2
OCTAGONP
 10
46.9900
 20
35.5600
 30
0.0000
 41
2.5400
 42
2.5400
 43
1.0000
 50
270.0000
  0
CIRCLE
  8
44
 10
46.9900
 20
35.5600
 30
0.0000
 40
0.6000
  0
INSERT
  8
17
  2
OCTAGONP
 10
46.9900
 20
30.4800
 30
0.0000
 41
2.5400
 42
2.5400
 43
1.0000
 50
270.0000
  0
INSERT
  8
17
  2
OCTAGONP
 10
46.9900
 20
30.4800
 30
0.0000
 41
2.5400
 42
2.5400
 43
1.0000
 50
270.0000
  0
CIRCLE
  8
44
 10
46.9900
 20
30.4800
 30
0.0000
 40
0.6000
  0
INSERT
  8
17
  2
OCTAGONP
 10
46.9900
 20
25.4000
 30
0.0000
 41
2.5400
 42
2.5400
 43
1.0000
 50
270.0000
  0
INSERT
  8
17
  2
OCTAGONP
 10
46.9900
 20
25.4000
 30
0.0000
 41
2.5400
 42
2.5400
 43
1.0000
 50
270.0000
  0
CIRCLE
  8
44
 10
46.9900
 20
25.4000
 30
0.0000
 40
0.6000
  0
INSERT
  8
17
  2
OCTAGONP
 10
46.9900
 20
20.3200
 30
0.0000
 41
2.5400
 42
2.5400
 43
1.0000
 50
270.0000
  0
INSERT
  8
17
  2
OCTAGONP
 10
46.9900
 20
20.3200
 30
0.0000
 41
2.5400
 42
2.5400
 43
1.0000
 50
270.0000
  0
CIRCLE
  8
44
 10
46.9900
 20
20.3200
 30
0.0000
 40
0.6000
  0
INSERT
  8
17
  2
OCTAGONP
 10
46.9900
 20
15.2400
 30
0.0000
 41
2.5400
 42
2.5400
 43
1.0000
 50
270.0000
  0
INSERT
  8
17
  2
OCTAGONP
 10
46.9900
 20
15.2400
 30
0.0000
 41
2.5400
 42
2.5400
 43
1.0000
 50
270.0000
  0
CIRCLE
  8
44
 10
46.9900
 20
15.2400
 30
0.0000
 40
0.6000
  0
INSERT
  8
17
  2
OCTAGONP
 10
46.9900
 20
10.1600
 30
0.0000
 41
2.5400
 42
2.5400
 43
1.0000
 50
270.0000
  0
INSERT
  8
17
  2
OCTAGONP
 10
46.9900
 20
10.1600
 30
0.0000
 41
2.5400
 42
2.5400
 43
1.0000
 50
270.0000
  0
CIRCLE
  8
44
 10
46.9900
 20
10.1600
 30
0.0000
 40
0.6000
  0
INSERT
  8
17
  2
OCTAGONP
 10
46.9900
 20
5.0800
 30
0.0000
 41
2.5400
 42
2.5400
 43
1.0000
 50
270.0000
  0
INSERT
  8
17
  2
OCTAGONP
 10
46.9900
 20
5.0800
 30
0.0000
 41
2.5400
 42
2.5400
 43
1.0000
 50
270.0000
  0
CIRCLE
  8
44
 10
46.9900
 20
5.0800
 30
0.0000
 40
0.6000
  0
INSERT
  8
17
  2
OCTAGONP
 10
16.5100
 20
5.0800
 30
0.0000
 41
2.5400
 42
2.5400
 43
1.0000
 50
90.0000
  0
INSERT
  8
17
  2
OCTAGONP
 10
16.5100
 20
5.0800
 30
0.0000
 41
2.5400
 42
2.5400
 43
1.0000
 50
90.0000
  0
CIRCLE
  8
44
 10
16.5100
 20
5.0800
 30
0.0000
 40
0.6000
  0
INSERT
  8
17
  2
OCTAGONP
 10
16.5100
 20
10.1600
 30
0.0000
 41
2.5400
 42
2.5400
 43
1.0000
 50
90.0000
  0
INSERT
  8
17
  2
OCTAGONP
 10
16.5100
 20
10.1600
 30
0.0000
 41
2.5400
 42
2.5400
 43
1.0000
 50
90.0000
  0
CIRCLE
  8
44
 10
16.5100
 20
10.1600
 30
0.0000
 40
0.6000
  0
INSERT
  8
17
  2
OCTAGONP
 10
16.5100
 20
15.2400
 30
0.0000
 41
2.5400
 42
2.5400
 43
1.0000
 50
90.0000
  0
INSERT
  8
17
  2
OCTAGONP
 10
16.5100
 20
15.2400
 30
0.0000
 41
2.5400
 42
2.5400
 43
1.0000
 50
90.0000
  0
CIRCLE
  8
44
 10
16.5100
 20
15.2400
 30
0.0000
 40
0.6000
  0
INSERT
  8
17
  2
OCTAGONP
 10
16.5100
 20
20.3200
 30
0.0000
 41
2.5400
 42
2.5400
 43
1.0000
 50
90.0000
  0
INSERT
  8
17
  2
OCTAGONP
 10
16.5100
 20
20.3200
 30
0.0000
 41
2.5400
 42
2.5400
 43
1.0000
 50
90.0000
  0
CIRCLE
  8
44
 10
16.5100
 20
20.3200
 30
0.0000
 40
0.6000
  0
INSERT
  8
17
  2
OCTAGONP
 10
16.5100
 20
25.4000
 30
0.0000
 41
2.5400
 42
2.5400
 43
1.0000
 50
90.0000
  0
INSERT
  8
17
  2
OCTAGONP
 10
16.5100
 20
25.4000
 30
0.0000
 41
2.5400
 42
2.5400
 43
1.0000
 50
90.0000
  0
CIRCLE
  8
44
 10
16.5100
 20
25.4000
 30
0.0000
 40
0.6000
  0
INSERT
  8
17
  2
OCTAGONP
 10
16.5100
 20
30.4800
 30
0.0000
 41
2.5400
 42
2.5400
 43
1.0000
 50
90.0000
  0
INSERT
  8
17
  2
OCTAGONP
 10
16.5100
 20
30.4800
 30
0.0000
 41
2.5400
 42
2.5400
 43
1.0000
 50
90.0000
  0
CIRCLE
  8
44
 10
16.5100
 20
30.4800
 30
0.0000
 40
0.6000
  0
INSERT
  8
17
  2
OCTAGONP
 10
16.5100
 20
35.5600
 30
0.0000
 41
2.5400
 42
2.5400
 43
1.0000
 50
90.0000
  0
INSERT
  8
17
  2
OCTAGONP
 10
16.5100
 20
35.5600
 30
0.0000
 41
2.5400
 42
2.5400
 43
1.0000
 50
90.0000
  0
CIRCLE
  8
44
 10
16.5100
 20
35.5600
 30
0.0000
 40
0.6000
  0
INSERT
  8
17
  2
OCTAGONP
 10
16.5100
 20
40.6400
 30
0.0000
 41
2.5400
 42
2.5400
 43
1.0000
 50
90.0000
  0
INSERT
  8
17
  2
OCTAGONP
 10
16.5100
 20
40.6400
 30
0.0000
 41
2.5400
 42
2.5400
 43
1.0000
 50
90.0000
  0
CIRCLE
  8
44
 10
16.5100
 20
40.6400
 30
0.0000
 40
0.6000
  0
CIRCLE
  8
20
 10
66.6750
 20
16.5100
 30
0.0000
 40
0.8500
  0
CIRCLE
  8
20
 10
66.6750
 20
34.2900
 30
0.0000
 40
0.8500
  0
CIRCLE
  8
20
 10
-3.1750
 20
17.7800
 30
0.0000
 40
0.8500
  0
CIRCLE
  8
20
 10
-3.1750
 20
38.1000
 30
0.0000
 40
0.8500
  0
CIRCLE
  8
20
 10
21.5900
 20
57.7850
 30
0.0000
 40
0.8500
  0
CIRCLE
  8
20
 10
2.5400
 20
57.7850
 30
0.0000
 40
0.8500
  0
INSERT
  8
17
  2
OCTAGONP
 10
143.5100
 20
64.1350
 30
0.0000
 41
2.5400
 42
2.5400
 43
1.0000
 50
0.0000
  0
INSERT
  8
17
  2
OCTAGONP
 10
143.5100
 20
64.1350
 30
0.0000
 41
2.5400
 42
2.5400
 43
1.0000
 50
0.0000
  0
CIRCLE
  8
44
 10
143.5100
 20
64.1350
 30
0.0000
 40
0.5500
  0
INSERT
  8
17
  2
OCTAGONP
 10
158.7500
 20
64.1350
 30
0.0000
 41
2.5400
 42
2.5400
 43
1.0000
 50
0.0000
  0
INSERT
  8
17
  2
OCTAGONP
 10
158.7500
 20
64.1350
 30
0.0000
 41
2.5400
 42
2.5400
 43
1.0000
 50
0.0000
  0
CIRCLE
  8
44
 10
158.7500
 20
64.1350
 30
0.0000
 40
0.5500
  0
INSERT
  8
17
  2
OCTAGONP
 10
158.7500
 20
74.2950
 30
0.0000
 41
2.5400
 42
2.5400
 43
1.0000
 50
0.0000
  0
INSERT
  8
17
  2
OCTAGONP
 10
158.7500
 20
74.2950
 30
0.0000
 41
2.5400
 42
2.5400
 43
1.0000
 50
0.0000
  0
CIRCLE
  8
44
 10
158.7500
 20
74.2950
 30
0.0000
 40
0.5500
  0
INSERT
  8
17
  2
OCTAGONP
 10
143.5100
 20
74.2950
 30
0.0000
 41
2.5400
 42
2.5400
 43
1.0000
 50
0.0000
  0
INSERT
  8
17
  2
OCTAGONP
 10
143.5100
 20
74.2950
 30
0.0000
 41
2.5400
 42
2.5400
 43
1.0000
 50
0.0000
  0
CIRCLE
  8
44
 10
143.5100
 20
74.2950
 30
0.0000
 40
0.5500
  0
INSERT
  8
17
  2
LONGP100
 10
120.6500
 20
62.2300
 30
0.0000
 41
1.6764
 42
1.6764
 43
1.0000
 50
180.0000
  0
INSERT
  8
17
  2
LONGP100
 10
120.6500
 20
62.2300
 30
0.0000
 41
1.6764
 42
1.6764
 43
1.0000
 50
180.0000
  0
CIRCLE
  8
44
 10
120.6500
 20
62.2300
 30
0.0000
 40
0.4500
  0
INSERT
  8
17
  2
LONGP100
 10
120.6500
 20
59.6900
 30
0.0000
 41
1.6764
 42
1.6764
 43
1.0000
 50
180.0000
  0
INSERT
  8
17
  2
LONGP100
 10
120.6500
 20
59.6900
 30
0.0000
 41
1.6764
 42
1.6764
 43
1.0000
 50
180.0000
  0
CIRCLE
  8
44
 10
120.6500
 20
59.6900
 30
0.0000
 40
0.4500
  0
INSERT
  8
17
  2
LONGP100
 10
120.6500
 20
57.1500
 30
0.0000
 41
1.6764
 42
1.6764
 43
1.0000
 50
180.0000
  0
INSERT
  8
17
  2
LONGP100
 10
120.6500
 20
57.1500
 30
0.0000
 41
1.6764
 42
1.6764
 43
1.0000
 50
180.0000
  0
CIRCLE
  8
44
 10
120.6500
 20
57.1500
 30
0.0000
 40
0.4500
  0
INSERT
  8
17
  2
LONGP100
 10
120.6500
 20
54.6100
 30
0.0000
 41
1.6764
 42
1.6764
 43
1.0000
 50
180.0000
  0
INSERT
  8
17
  2
LONGP100
 10
120.6500
 20
54.6100
 30
0.0000
 41
1.6764
 42
1.6764
 43
1.0000
 50
180.0000
  0
CIRCLE
  8
44
 10
120.6500
 20
54.6100
 30
0.0000
 40
0.4500
  0
INSERT
  8
17
  2
LONGP100
 10
120.6500
 20
52.0700
 30
0.0000
 41
1.6764
 42
1.6764
 43
1.0000
 50
180.0000
  0
INSERT
  8
17
  2
LONGP100
 10
120.6500
 20
52.0700
 30
0.0000
 41
1.6764
 42
1.6764
 43
1.0000
 50
180.0000
  0
CIRCLE
  8
44
 10
120.6500
 20
52.0700
 30
0.0000
 40
0.4500
  0
INSERT
  8
17
  2
LONGP100
 10
120.6500
 20
49.5300
 30
0.0000
 41
1.6764
 42
1.6764
 43
1.0000
 50
180.0000
  0
INSERT
  8
17
  2
LONGP100
 10
120.6500
 20
49.5300
 30
0.0000
 41
1.6764
 42
1.6764
 43
1.0000
 50
180.0000
  0
CIRCLE
  8
44
 10
120.6500
 20
49.5300
 30
0.0000
 40
0.4500
  0
INSERT
  8
17
  2
LONGP100
 10
120.6500
 20
46.9900
 30
0.0000
 41
1.6764
 42
1.6764
 43
1.0000
 50
180.0000
  0
INSERT
  8
17
  2
LONGP100
 10
120.6500
 20
46.9900
 30
0.0000
 41
1.6764
 42
1.6764
 43
1.0000
 50
180.0000
  0
CIRCLE
  8
44
 10
120.6500
 20
46.9900
 30
0.0000
 40
0.4500
  0
INSERT
  8
17
  2
LONGP100
 10
120.6500
 20
44.4500
 30
0.0000
 41
1.6764
 42
1.6764
 43
1.0000
 50
180.0000
  0
INSERT
  8
17
  2
LONGP100
 10
120.6500
 20
44.4500
 30
0.0000
 41
1.6764
 42
1.6764
 43
1.0000
 50
180.0000
  0
CIRCLE
  8
44
 10
120.6500
 20
44.4500
 30
0.0000
 40
0.4500
  0
INSERT
  8
17
  2
LONGP100
 10
113.0300
 20
44.4500
 30
0.0000
 41
1.6764
 42
1.6764
 43
1.0000
 50
180.0000
  0
INSERT
  8
17
  2
LONGP100
 10
113.0300
 20
44.4500
 30
0.0000
 41
1.6764
 42
1.6764
 43
1.0000
 50
180.0000
  0
CIRCLE
  8
44
 10
113.0300
 20
44.4500
 30
0.0000
 40
0.4500
  0
INSERT
  8
17
  2
LONGP100
 10
113.0300
 20
46.9900
 30
0.0000
 41
1.6764
 42
1.6764
 43
1.0000
 50
180.0000
  0
INSERT
  8
17
  2
LONGP100
 10
113.0300
 20
46.9900
 30
0.0000
 41
1.6764
 42
1.6764
 43
1.0000
 50
180.0000
  0
CIRCLE
  8
44
 10
113.0300
 20
46.9900
 30
0.0000
 40
0.4500
  0
INSERT
  8
17
  2
LONGP100
 10
113.0300
 20
49.5300
 30
0.0000
 41
1.6764
 42
1.6764
 43
1.0000
 50
180.0000
  0
INSERT
  8
17
  2
LONGP100
 10
113.0300
 20
49.5300
 30
0.0000
 41
1.6764
 42
1.6764
 43
1.0000
 50
180.0000
  0
CIRCLE
  8
44
 10
113.0300
 20
49.5300
 30
0.0000
 40
0.4500
  0
INSERT
  8
17
  2
LONGP100
 10
113.0300
 20
52.0700
 30
0.0000
 41
1.6764
 42
1.6764
 43
1.0000
 50
180.0000
  0
INSERT
  8
17
  2
LONGP100
 10
113.0300
 20
52.0700
 30
0.0000
 41
1.6764
 42
1.6764
 43
1.0000
 50
180.0000
  0
CIRCLE
  8
44
 10
113.0300
 20
52.0700
 30
0.0000
 40
0.4500
  0
INSERT
  8
17
  2
LONGP100
 10
113.0300
 20
54.6100
 30
0.0000
 41
1.6764
 42
1.6764
 43
1.0000
 50
180.0000
  0
INSERT
  8
17
  2
LONGP100
 10
113.0300
 20
54.6100
 30
0.0000
 41
1.6764
 42
1.6764
 43
1.0000
 50
180.0000
  0
CIRCLE
  8
44
 10
113.0300
 20
54.6100
 30
0.0000
 40
0.4500
  0
INSERT
  8
17
  2
LONGP100
 10
113.0300
 20
57.1500
 30
0.0000
 41
1.6764
 42
1.6764
 43
1.0000
 50
180.0000
  0
INSERT
  8
17
  2
LONGP100
 10
113.0300
 20
57.1500
 30
0.0000
 41
1.6764
 42
1.6764
 43
1.0000
 50
180.0000
  0
CIRCLE
  8
44
 10
113.0300
 20
57.1500
 30
0.0000
 40
0.4500
  0
INSERT
  8
17
  2
LONGP100
 10
113.0300
 20
59.6900
 30
0.0000
 41
1.6764
 42
1.6764
 43
1.0000
 50
180.0000
  0
INSERT
  8
17
  2
LONGP100
 10
113.0300
 20
59.6900
 30
0.0000
 41
1.6764
 42
1.6764
 43
1.0000
 50
180.0000
  0
CIRCLE
  8
44
 10
113.0300
 20
59.6900
 30
0.0000
 40
0.4500
  0
INSERT
  8
17
  2
LONGP100
 10
113.0300
 20
62.2300
 30
0.0000
 41
1.6764
 42
1.6764
 43
1.0000
 50
180.0000
  0
INSERT
  8
17
  2
LONGP100
 10
113.0300
 20
62.2300
 30
0.0000
 41
1.6764
 42
1.6764
 43
1.0000
 50
180.0000
  0
CIRCLE
  8
44
 10
113.0300
 20
62.2300
 30
0.0000
 40
0.4500
  0
INSERT
  8
17
  2
OCTAGONP
 10
160.0450
 20
12.6789
 30
0.0000
 41
3.8100
 42
3.8100
 43
1.0000
 50
90.0000
  0
INSERT
  8
17
  2
OCTAGONP
 10
160.0450
 20
12.6789
 30
0.0000
 41
3.8100
 42
3.8100
 43
1.0000
 50
90.0000
  0
CIRCLE
  8
44
 10
160.0450
 20
12.6789
 30
0.0000
 40
0.7500
  0
INSERT
  8
17
  2
OCTAGONP
 10
160.0450
 20
17.7589
 30
0.0000
 41
3.8100
 42
3.8100
 43
1.0000
 50
90.0000
  0
INSERT
  8
17
  2
OCTAGONP
 10
160.0450
 20
17.7589
 30
0.0000
 41
3.8100
 42
3.8100
 43
1.0000
 50
90.0000
  0
CIRCLE
  8
44
 10
160.0450
 20
17.7589
 30
0.0000
 40
0.7500
  0
INSERT
  8
17
  2
ROUNDP
 10
50.7000
 20
61.7500
 30
0.0000
 41
2.5400
 42
2.5400
 43
1.0000
 50
0.0000
  0
INSERT
  8
17
  2
ROUNDP
 10
50.7000
 20
61.7500
 30
0.0000
 41
2.5400
 42
2.5400
 43
1.0000
 50
0.0000
  0
CIRCLE
  8
44
 10
50.7000
 20
61.7500
 30
0.0000
 40
0.7500
  0
INSERT
  8
17
  2
ROUNDP
 10
50.7000
 20
65.2500
 30
0.0000
 41
2.5400
 42
2.5400
 43
1.0000
 50
0.0000
  0
INSERT
  8
17
  2
ROUNDP
 10
50.7000
 20
65.2500
 30
0.0000
 41
2.5400
 42
2.5400
 43
1.0000
 50
0.0000
  0
CIRCLE
  8
44
 10
50.7000
 20
65.2500
 30
0.0000
 40
0.7500
  0
INSERT
  8
17
  2
ROUNDP
 10
95.3500
 20
83.0300
 30
0.0000
 41
2.5400
 42
2.5400
 43
1.0000
 50
180.0000
  0
INSERT
  8
17
  2
ROUNDP
 10
95.3500
 20
83.0300
 30
0.0000
 41
2.5400
 42
2.5400
 43
1.0000
 50
180.0000
  0
CIRCLE
  8
44
 10
95.3500
 20
83.0300
 30
0.0000
 40
0.7500
  0
INSERT
  8
17
  2
ROUNDP
 10
95.3500
 20
79.5300
 30
0.0000
 41
2.5400
 42
2.5400
 43
1.0000
 50
180.0000
  0
INSERT
  8
17
  2
ROUNDP
 10
95.3500
 20
79.5300
 30
0.0000
 41
2.5400
 42
2.5400
 43
1.0000
 50
180.0000
  0
CIRCLE
  8
44
 10
95.3500
 20
79.5300
 30
0.0000
 40
0.7500
  0
ENDSEC
  0
EOF
