  0
SECTION
  2
HEADER
  9
$ACADVER
  1
AC1006
  9
$DWGCODEPAGE
  3
ansi_1251
  9
$INSBASE
 10
0.0
 20
0.0
 30
0.0
  9
$EXTMIN
 10
-1.72127
 20
-7.26046
  9
$EXTMAX
 10
1.76811
 20
7.29079
  9
$LIMMIN
 10
0.0
 20
0.0
  9
$LIMMAX
 10
12.0
 20
9.0
  9
$ORTHOMODE
 70
     0
  9
$REGENMODE
 70
     1
  9
$FILLMODE
 70
     1
  9
$QTEXTMODE
 70
     0
  9
$MIRRTEXT
 70
     1
  9
$DRAGMODE
 70
     2
  9
$LTSCALE
 40
1.0
  9
$OSMODE
 70
    37
  9
$ATTMODE
 70
     1
  9
$TEXTSIZE
 40
0.2
  9
$TRACEWID
 40
0.05
  9
$TEXTSTYLE
  7
STANDARD
  9
$CLAYER
  8
0
  9
$CELTYPE
  6
BYLAYER
  9
$CECOLOR
 62
   256
  9
$DIMSCALE
 40
1.0
  9
$DIMASZ
 40
0.18
  9
$DIMEXO
 40
0.0625
  9
$DIMDLI
 40
0.38
  9
$DIMRND
 40
0.0
  9
$DIMDLE
 40
0.0
  9
$DIMEXE
 40
0.18
  9
$DIMTP
 40
0.0
  9
$DIMTM
 40
0.0
  9
$DIMTXT
 40
0.18
  9
$DIMCEN
 40
0.09
  9
$DIMTSZ
 40
0.0
  9
$DIMTOL
 70
     0
  9
$DIMLIM
 70
     0
  9
$DIMTIH
 70
     1
  9
$DIMTOH
 70
     1
  9
$DIMSE1
 70
     0
  9
$DIMSE2
 70
     0
  9
$DIMTAD
 70
     0
  9
$DIMZIN
 70
     0
  9
$DIMBLK
  1

  9
$DIMASO
 70
     1
  9
$DIMSHO
 70
     1
  9
$DIMPOST
  1

  9
$DIMAPOST
  1

  9
$DIMALT
 70
     0
  9
$DIMALTD
 70
     2
  9
$DIMALTF
 40
25.4
  9
$DIMLFAC
 40
1.0
  9
$DIMTOFL
 70
     0
  9
$DIMTVP
 40
0.0
  9
$DIMTIX
 70
     0
  9
$DIMSOXD
 70
     0
  9
$DIMSAH
 70
     0
  9
$DIMBLK1
  1

  9
$DIMBLK2
  1

  9
$LUNITS
 70
     2
  9
$LUPREC
 70
     4
  9
$SKETCHINC
 40
0.1
  9
$FILLETRAD
 40
0.5
  9
$AUNITS
 70
     0
  9
$AUPREC
 70
     0
  9
$MENU
  1
.
  9
$ELEVATION
 40
0.0
  9
$THICKNESS
 40
0.0
  9
$LIMCHECK
 70
     0
  9
$CHAMFERA
 40
0.0
  9
$CHAMFERB
 40
0.0
  9
$SKPOLY
 70
     0
  9
$TDCREATE
 40
2457482.563928079
  9
$TDUPDATE
 40
2457482.563928819
  9
$TDINDWG
 40
0.0000000116
  9
$TDUSRTIMER
 40
0.0000000116
  9
$USRTIMER
 70
     1
  9
$ANGBASE
 50
0.0
  9
$ANGDIR
 70
     0
  9
$PDMODE
 70
     0
  9
$PDSIZE
 40
0.0
  9
$PLINEWID
 40
0.0
  9
$COORDS
 70
     1
  9
$SPLFRAME
 70
     0
  9
$SPLINETYPE
 70
     6
  9
$SPLINESEGS
 70
     8
  9
$ATTDIA
 70
     0
  9
$ATTREQ
 70
     1
  9
$HANDLING
 70
     1
  9
$HANDSEED
  5
278
  9
$SURFTAB1
 70
     6
  9
$SURFTAB2
 70
     6
  9
$SURFTYPE
 70
     6
  9
$SURFU
 70
     6
  9
$SURFV
 70
     6
  9
$UCSNAME
  2

  9
$UCSORG
 10
0.0
 20
0.0
 30
0.0
  9
$UCSXDIR
 10
1.0
 20
0.0
 30
0.0
  9
$UCSYDIR
 10
0.0
 20
1.0
 30
0.0
  9
$USERI1
 70
     0
  9
$USERI2
 70
     0
  9
$USERI3
 70
     0
  9
$USERI4
 70
     0
  9
$USERI5
 70
     0
  9
$USERR1
 40
0.0
  9
$USERR2
 40
0.0
  9
$USERR3
 40
0.0
  9
$USERR4
 40
0.0
  9
$USERR5
 40
0.0
  9
$WORLDVIEW
 70
     1
  0
ENDSEC
  0
SECTION
  2
TABLES
  0
TABLE
  2
VPORT
 70
     1
  0
VPORT
  2
*ACTIVE
 70
     0
 10
0.0
 20
0.0
 11
1.0
 21
1.0
 12
10.42990654205607
 22
4.5
 13
0.0
 23
0.0
 14
0.5
 24
0.5
 15
0.5
 25
0.5
 16
0.0
 26
0.0
 36
1.0
 17
0.0
 27
0.0
 37
0.0
 40
9.0
 41
1.972972972850329
 42
50.0
 43
0.0
 44
0.0
 50
0.0
 51
0.0
 71
     0
 72
   100
 73
     1
 74
     3
 75
     0
 76
     0
 77
     0
 78
     0
  0
ENDTAB
  0
TABLE
  2
LTYPE
 70
     1
  0
LTYPE
  2
CONTINUOUS
 70
     0
  3
Solid line
 72
    65
 73
     0
 40
0.0
  0
ENDTAB
  0
TABLE
  2
LAYER
 70
     2
  0
LAYER
  2
0
 70
     0
 62
     7
  6
CONTINUOUS
  0
LAYER
  2
LAYER_1
 70
     0
 62
     7
  6
CONTINUOUS
  0
ENDTAB
  0
TABLE
  2
STYLE
 70
     1
  0
STYLE
  2
STANDARD
 70
     0
 40
0.0
 41
1.0
 50
0.0
 71
     0
 42
0.2
  3
txt
  4

  0
ENDTAB
  0
TABLE
  2
VIEW
 70
     0
  0
ENDTAB
  0
TABLE
  2
UCS
 70
     0
  0
ENDTAB
  0
ENDSEC
  0
SECTION
  2
BLOCKS
  0
ENDSEC
  0
SECTION
  2
ENTITIES
  0
POLYLINE
  5
70
  8
LAYER_1
 62
   114
 66
     1
 10
0.0
 20
0.0
 30
0.0
 70
     1
  0
VERTEX
  5
B0
  8
LAYER_1
 62
   114
 10
-1.42098
 20
-6.93034
 30
0.0
  0
VERTEX
  5
B1
  8
LAYER_1
 62
   114
 10
-1.440489032201613
 20
-6.932261471959677
 30
0.0
  0
VERTEX
  5
B2
  8
LAYER_1
 62
   114
 10
-1.459248343236509
 20
-6.937952046748872
 30
0.0
  0
VERTEX
  5
B3
  8
LAYER_1
 62
   114
 10
-1.47653702330196
 20
-6.947193038769745
 30
0.0
  0
VERTEX
  5
B4
  8
LAYER_1
 62
   114
 10
-1.491690678118655
 20
-6.959629321881345
 30
0.0
  0
VERTEX
  5
B5
  8
LAYER_1
 62
   114
 10
-1.504126961230254
 20
-6.974782976698039
 30
0.0
  0
VERTEX
  5
B6
  8
LAYER_1
 62
   114
 10
-1.513367953251129
 20
-6.992071656763491
 30
0.0
  0
VERTEX
  5
B7
  8
LAYER_1
 62
   114
 10
-1.519058528040323
 20
-7.010830967798387
 30
0.0
  0
VERTEX
  5
B8
  8
LAYER_1
 62
   114
 10
-1.52098
 20
-7.03034
 30
0.0
  0
VERTEX
  5
B9
  8
LAYER_1
 62
   114
 10
-1.519058528040323
 20
-7.049849032201613
 30
0.0
  0
VERTEX
  5
BA
  8
LAYER_1
 62
   114
 10
-1.513367953251129
 20
-7.068608343236509
 30
0.0
  0
VERTEX
  5
BB
  8
LAYER_1
 62
   114
 10
-1.504126961230254
 20
-7.08589702330196
 30
0.0
  0
VERTEX
  5
BC
  8
LAYER_1
 62
   114
 10
-1.491690678118655
 20
-7.101050678118654
 30
0.0
  0
VERTEX
  5
BD
  8
LAYER_1
 62
   114
 10
-1.47653702330196
 20
-7.113486961230254
 30
0.0
  0
VERTEX
  5
BE
  8
LAYER_1
 62
   114
 10
-1.459248343236509
 20
-7.122727953251129
 30
0.0
  0
VERTEX
  5
BF
  8
LAYER_1
 62
   114
 10
-1.440489032201613
 20
-7.128418528040322
 30
0.0
  0
VERTEX
  5
C0
  8
LAYER_1
 62
   114
 10
-1.42098
 20
-7.130339999999999
 30
0.0
  0
VERTEX
  5
C1
  8
LAYER_1
 62
   114
 10
-1.401470967798387
 20
-7.128418528040322
 30
0.0
  0
VERTEX
  5
C2
  8
LAYER_1
 62
   114
 10
-1.382711656763491
 20
-7.122727953251128
 30
0.0
  0
VERTEX
  5
C3
  8
LAYER_1
 62
   114
 10
-1.365422976698039
 20
-7.113486961230254
 30
0.0
  0
VERTEX
  5
C4
  8
LAYER_1
 62
   114
 10
-1.350269321881345
 20
-7.101050678118654
 30
0.0
  0
VERTEX
  5
C5
  8
LAYER_1
 62
   114
 10
-1.337833038769745
 20
-7.08589702330196
 30
0.0
  0
VERTEX
  5
C6
  8
LAYER_1
 62
   114
 10
-1.328592046748871
 20
-7.068608343236509
 30
0.0
  0
VERTEX
  5
C7
  8
LAYER_1
 62
   114
 10
-1.322901471959677
 20
-7.049849032201612
 30
0.0
  0
VERTEX
  5
C8
  8
LAYER_1
 62
   114
 10
-1.32098
 20
-7.03034
 30
0.0
  0
VERTEX
  5
C9
  8
LAYER_1
 62
   114
 10
-1.322901471959677
 20
-7.010830967798387
 30
0.0
  0
VERTEX
  5
CA
  8
LAYER_1
 62
   114
 10
-1.328592046748871
 20
-6.992071656763491
 30
0.0
  0
VERTEX
  5
CB
  8
LAYER_1
 62
   114
 10
-1.337833038769745
 20
-6.974782976698039
 30
0.0
  0
VERTEX
  5
CC
  8
LAYER_1
 62
   114
 10
-1.350269321881345
 20
-6.959629321881345
 30
0.0
  0
VERTEX
  5
CD
  8
LAYER_1
 62
   114
 10
-1.36542297669804
 20
-6.947193038769745
 30
0.0
  0
VERTEX
  5
CE
  8
LAYER_1
 62
   114
 10
-1.382711656763491
 20
-6.937952046748871
 30
0.0
  0
VERTEX
  5
CF
  8
LAYER_1
 62
   114
 10
-1.401470967798387
 20
-6.932261471959677
 30
0.0
  0
SEQEND
  5
23F
  8
LAYER_1
 62
   114
  0
POLYLINE
  5
71
  8
LAYER_1
 62
   114
 66
     1
 10
0.0
 20
0.0
 30
0.0
 70
     1
  0
VERTEX
  5
D0
  8
LAYER_1
 62
   114
 10
1.45241
 20
-6.93034
 30
0.0
  0
VERTEX
  5
D1
  8
LAYER_1
 62
   114
 10
1.432900967798387
 20
-6.932261471959677
 30
0.0
  0
VERTEX
  5
D2
  8
LAYER_1
 62
   114
 10
1.414141656763491
 20
-6.937952046748872
 30
0.0
  0
VERTEX
  5
D3
  8
LAYER_1
 62
   114
 10
1.39685297669804
 20
-6.947193038769745
 30
0.0
  0
VERTEX
  5
D4
  8
LAYER_1
 62
   114
 10
1.381699321881345
 20
-6.959629321881345
 30
0.0
  0
VERTEX
  5
D5
  8
LAYER_1
 62
   114
 10
1.369263038769746
 20
-6.974782976698039
 30
0.0
  0
VERTEX
  5
D6
  8
LAYER_1
 62
   114
 10
1.360022046748871
 20
-6.992071656763491
 30
0.0
  0
VERTEX
  5
D7
  8
LAYER_1
 62
   114
 10
1.354331471959677
 20
-7.010830967798387
 30
0.0
  0
VERTEX
  5
D8
  8
LAYER_1
 62
   114
 10
1.35241
 20
-7.03034
 30
0.0
  0
VERTEX
  5
D9
  8
LAYER_1
 62
   114
 10
1.354331471959677
 20
-7.049849032201613
 30
0.0
  0
VERTEX
  5
DA
  8
LAYER_1
 62
   114
 10
1.360022046748871
 20
-7.068608343236509
 30
0.0
  0
VERTEX
  5
DB
  8
LAYER_1
 62
   114
 10
1.369263038769746
 20
-7.08589702330196
 30
0.0
  0
VERTEX
  5
DC
  8
LAYER_1
 62
   114
 10
1.381699321881345
 20
-7.101050678118654
 30
0.0
  0
VERTEX
  5
DD
  8
LAYER_1
 62
   114
 10
1.39685297669804
 20
-7.113486961230254
 30
0.0
  0
VERTEX
  5
DE
  8
LAYER_1
 62
   114
 10
1.414141656763491
 20
-7.122727953251129
 30
0.0
  0
VERTEX
  5
DF
  8
LAYER_1
 62
   114
 10
1.432900967798387
 20
-7.128418528040322
 30
0.0
  0
VERTEX
  5
E0
  8
LAYER_1
 62
   114
 10
1.45241
 20
-7.130339999999999
 30
0.0
  0
VERTEX
  5
E1
  8
LAYER_1
 62
   114
 10
1.471919032201613
 20
-7.128418528040322
 30
0.0
  0
VERTEX
  5
E2
  8
LAYER_1
 62
   114
 10
1.490678343236509
 20
-7.122727953251128
 30
0.0
  0
VERTEX
  5
E3
  8
LAYER_1
 62
   114
 10
1.50796702330196
 20
-7.113486961230254
 30
0.0
  0
VERTEX
  5
E4
  8
LAYER_1
 62
   114
 10
1.523120678118655
 20
-7.101050678118654
 30
0.0
  0
VERTEX
  5
E5
  8
LAYER_1
 62
   114
 10
1.535556961230255
 20
-7.08589702330196
 30
0.0
  0
VERTEX
  5
E6
  8
LAYER_1
 62
   114
 10
1.544797953251129
 20
-7.068608343236509
 30
0.0
  0
VERTEX
  5
E7
  8
LAYER_1
 62
   114
 10
1.550488528040323
 20
-7.049849032201612
 30
0.0
  0
VERTEX
  5
E8
  8
LAYER_1
 62
   114
 10
1.55241
 20
-7.03034
 30
0.0
  0
VERTEX
  5
E9
  8
LAYER_1
 62
   114
 10
1.550488528040323
 20
-7.010830967798387
 30
0.0
  0
VERTEX
  5
EA
  8
LAYER_1
 62
   114
 10
1.544797953251128
 20
-6.992071656763491
 30
0.0
  0
VERTEX
  5
EB
  8
LAYER_1
 62
   114
 10
1.535556961230254
 20
-6.974782976698039
 30
0.0
  0
VERTEX
  5
EC
  8
LAYER_1
 62
   114
 10
1.523120678118655
 20
-6.959629321881345
 30
0.0
  0
VERTEX
  5
ED
  8
LAYER_1
 62
   114
 10
1.50796702330196
 20
-6.947193038769745
 30
0.0
  0
VERTEX
  5
EE
  8
LAYER_1
 62
   114
 10
1.490678343236508
 20
-6.937952046748871
 30
0.0
  0
VERTEX
  5
EF
  8
LAYER_1
 62
   114
 10
1.471919032201612
 20
-6.932261471959677
 30
0.0
  0
SEQEND
  5
240
  8
LAYER_1
 62
   114
  0
POLYLINE
  5
72
  8
LAYER_1
 62
   114
 66
     1
 10
0.0
 20
0.0
 30
0.0
 70
     1
  0
VERTEX
  5
F0
  8
LAYER_1
 62
   114
 10
-1.49702
 20
-5.37487
 30
0.0
  0
VERTEX
  5
F1
  8
LAYER_1
 62
   114
 10
-1.24302
 20
-5.37487
 30
0.0
  0
VERTEX
  5
F2
  8
LAYER_1
 62
   114
 10
-1.24302
 20
-5.12087
 30
0.0
  0
VERTEX
  5
F3
  8
LAYER_1
 62
   114
 10
-1.49702
 20
-5.12087
 30
0.0
  0
VERTEX
  5
F4
  8
LAYER_1
 62
   114
 10
-1.49702
 20
-5.37487
 30
0.0
  0
SEQEND
  5
241
  8
LAYER_1
 62
   114
  0
POLYLINE
  5
73
  8
LAYER_1
 62
   114
 66
     1
 10
0.0
 20
0.0
 30
0.0
 70
     1
  0
VERTEX
  5
F5
  8
LAYER_1
 62
   114
 10
-0.5791
 20
-5.37487
 30
0.0
  0
VERTEX
  5
F6
  8
LAYER_1
 62
   114
 10
-0.3251
 20
-5.37487
 30
0.0
  0
VERTEX
  5
F7
  8
LAYER_1
 62
   114
 10
-0.3251
 20
-5.12087
 30
0.0
  0
VERTEX
  5
F8
  8
LAYER_1
 62
   114
 10
-0.5791
 20
-5.12087
 30
0.0
  0
VERTEX
  5
F9
  8
LAYER_1
 62
   114
 10
-0.5791
 20
-5.37487
 30
0.0
  0
SEQEND
  5
242
  8
LAYER_1
 62
   114
  0
POLYLINE
  5
74
  8
LAYER_1
 62
   114
 66
     1
 10
0.0
 20
0.0
 30
0.0
 70
     1
  0
VERTEX
  5
FA
  8
LAYER_1
 62
   114
 10
0.33882
 20
-5.37487
 30
0.0
  0
VERTEX
  5
FB
  8
LAYER_1
 62
   114
 10
0.59282
 20
-5.37487
 30
0.0
  0
VERTEX
  5
FC
  8
LAYER_1
 62
   114
 10
0.59282
 20
-5.12087
 30
0.0
  0
VERTEX
  5
FD
  8
LAYER_1
 62
   114
 10
0.33882
 20
-5.12087
 30
0.0
  0
VERTEX
  5
FE
  8
LAYER_1
 62
   114
 10
0.33882
 20
-5.37487
 30
0.0
  0
SEQEND
  5
243
  8
LAYER_1
 62
   114
  0
POLYLINE
  5
75
  8
LAYER_1
 62
   114
 66
     1
 10
0.0
 20
0.0
 30
0.0
 70
     1
  0
VERTEX
  5
FF
  8
LAYER_1
 62
   114
 10
1.25674
 20
-5.37487
 30
0.0
  0
VERTEX
  5
100
  8
LAYER_1
 62
   114
 10
1.51074
 20
-5.37487
 30
0.0
  0
VERTEX
  5
101
  8
LAYER_1
 62
   114
 10
1.51074
 20
-5.12087
 30
0.0
  0
VERTEX
  5
102
  8
LAYER_1
 62
   114
 10
1.25674
 20
-5.12087
 30
0.0
  0
VERTEX
  5
103
  8
LAYER_1
 62
   114
 10
1.25674
 20
-5.37487
 30
0.0
  0
SEQEND
  5
244
  8
LAYER_1
 62
   114
  0
POLYLINE
  5
76
  8
LAYER_1
 62
   114
 66
     1
 10
0.0
 20
0.0
 30
0.0
 70
     1
  0
VERTEX
  5
104
  8
LAYER_1
 62
   114
 10
-1.49702
 20
-4.54174
 30
0.0
  0
VERTEX
  5
105
  8
LAYER_1
 62
   114
 10
-1.24302
 20
-4.54174
 30
0.0
  0
VERTEX
  5
106
  8
LAYER_1
 62
   114
 10
-1.24302
 20
-4.28774
 30
0.0
  0
VERTEX
  5
107
  8
LAYER_1
 62
   114
 10
-1.49702
 20
-4.28774
 30
0.0
  0
VERTEX
  5
108
  8
LAYER_1
 62
   114
 10
-1.49702
 20
-4.54174
 30
0.0
  0
SEQEND
  5
245
  8
LAYER_1
 62
   114
  0
POLYLINE
  5
77
  8
LAYER_1
 62
   114
 66
     1
 10
0.0
 20
0.0
 30
0.0
 70
     1
  0
VERTEX
  5
109
  8
LAYER_1
 62
   114
 10
-0.5791
 20
-4.54174
 30
0.0
  0
VERTEX
  5
10A
  8
LAYER_1
 62
   114
 10
-0.3251
 20
-4.54174
 30
0.0
  0
VERTEX
  5
10B
  8
LAYER_1
 62
   114
 10
-0.3251
 20
-4.28774
 30
0.0
  0
VERTEX
  5
10C
  8
LAYER_1
 62
   114
 10
-0.5791
 20
-4.28774
 30
0.0
  0
VERTEX
  5
10D
  8
LAYER_1
 62
   114
 10
-0.5791
 20
-4.54174
 30
0.0
  0
SEQEND
  5
246
  8
LAYER_1
 62
   114
  0
POLYLINE
  5
78
  8
LAYER_1
 62
   114
 66
     1
 10
0.0
 20
0.0
 30
0.0
 70
     1
  0
VERTEX
  5
10E
  8
LAYER_1
 62
   114
 10
0.33882
 20
-4.54174
 30
0.0
  0
VERTEX
  5
10F
  8
LAYER_1
 62
   114
 10
0.59282
 20
-4.54174
 30
0.0
  0
VERTEX
  5
110
  8
LAYER_1
 62
   114
 10
0.59282
 20
-4.28774
 30
0.0
  0
VERTEX
  5
111
  8
LAYER_1
 62
   114
 10
0.33882
 20
-4.28774
 30
0.0
  0
VERTEX
  5
112
  8
LAYER_1
 62
   114
 10
0.33882
 20
-4.54174
 30
0.0
  0
SEQEND
  5
247
  8
LAYER_1
 62
   114
  0
POLYLINE
  5
79
  8
LAYER_1
 62
   114
 66
     1
 10
0.0
 20
0.0
 30
0.0
 70
     1
  0
VERTEX
  5
113
  8
LAYER_1
 62
   114
 10
1.25674
 20
-4.54174
 30
0.0
  0
VERTEX
  5
114
  8
LAYER_1
 62
   114
 10
1.51074
 20
-4.54174
 30
0.0
  0
VERTEX
  5
115
  8
LAYER_1
 62
   114
 10
1.51074
 20
-4.28774
 30
0.0
  0
VERTEX
  5
116
  8
LAYER_1
 62
   114
 10
1.25674
 20
-4.28774
 30
0.0
  0
VERTEX
  5
117
  8
LAYER_1
 62
   114
 10
1.25674
 20
-4.54174
 30
0.0
  0
SEQEND
  5
248
  8
LAYER_1
 62
   114
  0
POLYLINE
  5
7A
  8
LAYER_1
 62
   114
 66
     1
 10
0.0
 20
0.0
 30
0.0
 70
     1
  0
VERTEX
  5
118
  8
LAYER_1
 62
   114
 10
-1.49702
 20
-3.70861
 30
0.0
  0
VERTEX
  5
119
  8
LAYER_1
 62
   114
 10
-1.24302
 20
-3.70861
 30
0.0
  0
VERTEX
  5
11A
  8
LAYER_1
 62
   114
 10
-1.24302
 20
-3.45461
 30
0.0
  0
VERTEX
  5
11B
  8
LAYER_1
 62
   114
 10
-1.49702
 20
-3.45461
 30
0.0
  0
VERTEX
  5
11C
  8
LAYER_1
 62
   114
 10
-1.49702
 20
-3.70861
 30
0.0
  0
SEQEND
  5
249
  8
LAYER_1
 62
   114
  0
POLYLINE
  5
7B
  8
LAYER_1
 62
   114
 66
     1
 10
0.0
 20
0.0
 30
0.0
 70
     1
  0
VERTEX
  5
11D
  8
LAYER_1
 62
   114
 10
-0.5791
 20
-3.70861
 30
0.0
  0
VERTEX
  5
11E
  8
LAYER_1
 62
   114
 10
-0.3251
 20
-3.70861
 30
0.0
  0
VERTEX
  5
11F
  8
LAYER_1
 62
   114
 10
-0.3251
 20
-3.45461
 30
0.0
  0
VERTEX
  5
120
  8
LAYER_1
 62
   114
 10
-0.5791
 20
-3.45461
 30
0.0
  0
VERTEX
  5
121
  8
LAYER_1
 62
   114
 10
-0.5791
 20
-3.70861
 30
0.0
  0
SEQEND
  5
24A
  8
LAYER_1
 62
   114
  0
POLYLINE
  5
7C
  8
LAYER_1
 62
   114
 66
     1
 10
0.0
 20
0.0
 30
0.0
 70
     1
  0
VERTEX
  5
122
  8
LAYER_1
 62
   114
 10
0.33882
 20
-3.70861
 30
0.0
  0
VERTEX
  5
123
  8
LAYER_1
 62
   114
 10
0.59282
 20
-3.70861
 30
0.0
  0
VERTEX
  5
124
  8
LAYER_1
 62
   114
 10
0.59282
 20
-3.45461
 30
0.0
  0
VERTEX
  5
125
  8
LAYER_1
 62
   114
 10
0.33882
 20
-3.45461
 30
0.0
  0
VERTEX
  5
126
  8
LAYER_1
 62
   114
 10
0.33882
 20
-3.70861
 30
0.0
  0
SEQEND
  5
24B
  8
LAYER_1
 62
   114
  0
POLYLINE
  5
7D
  8
LAYER_1
 62
   114
 66
     1
 10
0.0
 20
0.0
 30
0.0
 70
     1
  0
VERTEX
  5
127
  8
LAYER_1
 62
   114
 10
1.25674
 20
-3.70861
 30
0.0
  0
VERTEX
  5
128
  8
LAYER_1
 62
   114
 10
1.51074
 20
-3.70861
 30
0.0
  0
VERTEX
  5
129
  8
LAYER_1
 62
   114
 10
1.51074
 20
-3.45461
 30
0.0
  0
VERTEX
  5
12A
  8
LAYER_1
 62
   114
 10
1.25674
 20
-3.45461
 30
0.0
  0
VERTEX
  5
12B
  8
LAYER_1
 62
   114
 10
1.25674
 20
-3.70861
 30
0.0
  0
SEQEND
  5
24C
  8
LAYER_1
 62
   114
  0
POLYLINE
  5
7E
  8
LAYER_1
 62
   114
 66
     1
 10
0.0
 20
0.0
 30
0.0
 70
     1
  0
VERTEX
  5
12C
  8
LAYER_1
 62
   114
 10
-1.49702
 20
-2.87548
 30
0.0
  0
VERTEX
  5
12D
  8
LAYER_1
 62
   114
 10
-1.24302
 20
-2.87548
 30
0.0
  0
VERTEX
  5
12E
  8
LAYER_1
 62
   114
 10
-1.24302
 20
-2.62148
 30
0.0
  0
VERTEX
  5
12F
  8
LAYER_1
 62
   114
 10
-1.49702
 20
-2.62148
 30
0.0
  0
VERTEX
  5
130
  8
LAYER_1
 62
   114
 10
-1.49702
 20
-2.87548
 30
0.0
  0
SEQEND
  5
24D
  8
LAYER_1
 62
   114
  0
POLYLINE
  5
7F
  8
LAYER_1
 62
   114
 66
     1
 10
0.0
 20
0.0
 30
0.0
 70
     1
  0
VERTEX
  5
131
  8
LAYER_1
 62
   114
 10
-0.5791
 20
-2.87548
 30
0.0
  0
VERTEX
  5
132
  8
LAYER_1
 62
   114
 10
-0.3251
 20
-2.87548
 30
0.0
  0
VERTEX
  5
133
  8
LAYER_1
 62
   114
 10
-0.3251
 20
-2.62148
 30
0.0
  0
VERTEX
  5
134
  8
LAYER_1
 62
   114
 10
-0.5791
 20
-2.62148
 30
0.0
  0
VERTEX
  5
135
  8
LAYER_1
 62
   114
 10
-0.5791
 20
-2.87548
 30
0.0
  0
SEQEND
  5
24E
  8
LAYER_1
 62
   114
  0
POLYLINE
  5
80
  8
LAYER_1
 62
   114
 66
     1
 10
0.0
 20
0.0
 30
0.0
 70
     1
  0
VERTEX
  5
136
  8
LAYER_1
 62
   114
 10
0.33882
 20
-2.87548
 30
0.0
  0
VERTEX
  5
137
  8
LAYER_1
 62
   114
 10
0.59282
 20
-2.87548
 30
0.0
  0
VERTEX
  5
138
  8
LAYER_1
 62
   114
 10
0.59282
 20
-2.62148
 30
0.0
  0
VERTEX
  5
139
  8
LAYER_1
 62
   114
 10
0.33882
 20
-2.62148
 30
0.0
  0
VERTEX
  5
13A
  8
LAYER_1
 62
   114
 10
0.33882
 20
-2.87548
 30
0.0
  0
SEQEND
  5
24F
  8
LAYER_1
 62
   114
  0
POLYLINE
  5
81
  8
LAYER_1
 62
   114
 66
     1
 10
0.0
 20
0.0
 30
0.0
 70
     1
  0
VERTEX
  5
13B
  8
LAYER_1
 62
   114
 10
1.25674
 20
-2.87548
 30
0.0
  0
VERTEX
  5
13C
  8
LAYER_1
 62
   114
 10
1.51074
 20
-2.87548
 30
0.0
  0
VERTEX
  5
13D
  8
LAYER_1
 62
   114
 10
1.51074
 20
-2.62148
 30
0.0
  0
VERTEX
  5
13E
  8
LAYER_1
 62
   114
 10
1.25674
 20
-2.62148
 30
0.0
  0
VERTEX
  5
13F
  8
LAYER_1
 62
   114
 10
1.25674
 20
-2.87548
 30
0.0
  0
SEQEND
  5
250
  8
LAYER_1
 62
   114
  0
POLYLINE
  5
82
  8
LAYER_1
 62
   114
 66
     1
 10
0.0
 20
0.0
 30
0.0
 70
     1
  0
VERTEX
  5
140
  8
LAYER_1
 62
   114
 10
-0.45178
 20
-1.39022
 30
0.0
  0
VERTEX
  5
141
  8
LAYER_1
 62
   114
 10
-0.19778
 20
-1.39022
 30
0.0
  0
VERTEX
  5
142
  8
LAYER_1
 62
   114
 10
-0.19778
 20
-1.13622
 30
0.0
  0
VERTEX
  5
143
  8
LAYER_1
 62
   114
 10
-0.45178
 20
-1.13622
 30
0.0
  0
VERTEX
  5
144
  8
LAYER_1
 62
   114
 10
-0.45178
 20
-1.39022
 30
0.0
  0
SEQEND
  5
251
  8
LAYER_1
 62
   114
  0
POLYLINE
  5
83
  8
LAYER_1
 62
   114
 66
     1
 10
0.0
 20
0.0
 30
0.0
 70
     1
  0
VERTEX
  5
145
  8
LAYER_1
 62
   114
 10
0.22471
 20
-1.39022
 30
0.0
  0
VERTEX
  5
146
  8
LAYER_1
 62
   114
 10
0.47871
 20
-1.39022
 30
0.0
  0
VERTEX
  5
147
  8
LAYER_1
 62
   114
 10
0.47871
 20
-1.13622
 30
0.0
  0
VERTEX
  5
148
  8
LAYER_1
 62
   114
 10
0.22471
 20
-1.13622
 30
0.0
  0
VERTEX
  5
149
  8
LAYER_1
 62
   114
 10
0.22471
 20
-1.39022
 30
0.0
  0
SEQEND
  5
252
  8
LAYER_1
 62
   114
  0
POLYLINE
  5
84
  8
LAYER_1
 62
   114
 66
     1
 10
0.0
 20
0.0
 30
0.0
 70
     1
  0
VERTEX
  5
14A
  8
LAYER_1
 62
   114
 10
-0.45178
 20
0.37424
 30
0.0
  0
VERTEX
  5
14B
  8
LAYER_1
 62
   114
 10
-0.19778
 20
0.37424
 30
0.0
  0
VERTEX
  5
14C
  8
LAYER_1
 62
   114
 10
-0.19778
 20
0.62824
 30
0.0
  0
VERTEX
  5
14D
  8
LAYER_1
 62
   114
 10
-0.45178
 20
0.62824
 30
0.0
  0
VERTEX
  5
14E
  8
LAYER_1
 62
   114
 10
-0.45178
 20
0.37424
 30
0.0
  0
SEQEND
  5
253
  8
LAYER_1
 62
   114
  0
POLYLINE
  5
85
  8
LAYER_1
 62
   114
 66
     1
 10
0.0
 20
0.0
 30
0.0
 70
     1
  0
VERTEX
  5
14F
  8
LAYER_1
 62
   114
 10
0.22471
 20
0.37424
 30
0.0
  0
VERTEX
  5
150
  8
LAYER_1
 62
   114
 10
0.47871
 20
0.37424
 30
0.0
  0
VERTEX
  5
151
  8
LAYER_1
 62
   114
 10
0.47871
 20
0.62824
 30
0.0
  0
VERTEX
  5
152
  8
LAYER_1
 62
   114
 10
0.22471
 20
0.62824
 30
0.0
  0
VERTEX
  5
153
  8
LAYER_1
 62
   114
 10
0.22471
 20
0.37424
 30
0.0
  0
SEQEND
  5
254
  8
LAYER_1
 62
   114
  0
POLYLINE
  5
86
  8
LAYER_1
 62
   114
 66
     1
 10
0.0
 20
0.0
 30
0.0
 70
     1
  0
VERTEX
  5
154
  8
LAYER_1
 62
   114
 10
-0.7215
 20
-0.84624
 30
0.0
  0
VERTEX
  5
155
  8
LAYER_1
 62
   114
 10
-0.7215
 20
-0.59224
 30
0.0
  0
VERTEX
  5
156
  8
LAYER_1
 62
   114
 10
-0.9755
 20
-0.59224
 30
0.0
  0
VERTEX
  5
157
  8
LAYER_1
 62
   114
 10
-0.9755
 20
-0.84624
 30
0.0
  0
VERTEX
  5
158
  8
LAYER_1
 62
   114
 10
-0.7215
 20
-0.84624
 30
0.0
  0
SEQEND
  5
255
  8
LAYER_1
 62
   114
  0
POLYLINE
  5
87
  8
LAYER_1
 62
   114
 66
     1
 10
0.0
 20
0.0
 30
0.0
 70
     1
  0
VERTEX
  5
159
  8
LAYER_1
 62
   114
 10
-0.7215
 20
-0.17975
 30
0.0
  0
VERTEX
  5
15A
  8
LAYER_1
 62
   114
 10
-0.7215
 20
0.07425
 30
0.0
  0
VERTEX
  5
15B
  8
LAYER_1
 62
   114
 10
-0.9755
 20
0.07425
 30
0.0
  0
VERTEX
  5
15C
  8
LAYER_1
 62
   114
 10
-0.9755
 20
-0.17975
 30
0.0
  0
VERTEX
  5
15D
  8
LAYER_1
 62
   114
 10
-0.7215
 20
-0.17975
 30
0.0
  0
SEQEND
  5
256
  8
LAYER_1
 62
   114
  0
POLYLINE
  5
88
  8
LAYER_1
 62
   114
 66
     1
 10
0.0
 20
0.0
 30
0.0
 70
     1
  0
VERTEX
  5
15E
  8
LAYER_1
 62
   114
 10
1.01978
 20
-0.84624
 30
0.0
  0
VERTEX
  5
15F
  8
LAYER_1
 62
   114
 10
1.01978
 20
-0.59224
 30
0.0
  0
VERTEX
  5
160
  8
LAYER_1
 62
   114
 10
0.76578
 20
-0.59224
 30
0.0
  0
VERTEX
  5
161
  8
LAYER_1
 62
   114
 10
0.76578
 20
-0.84624
 30
0.0
  0
VERTEX
  5
162
  8
LAYER_1
 62
   114
 10
1.01978
 20
-0.84624
 30
0.0
  0
SEQEND
  5
257
  8
LAYER_1
 62
   114
  0
POLYLINE
  5
89
  8
LAYER_1
 62
   114
 66
     1
 10
0.0
 20
0.0
 30
0.0
 70
     1
  0
VERTEX
  5
163
  8
LAYER_1
 62
   114
 10
1.01978
 20
-0.17975
 30
0.0
  0
VERTEX
  5
164
  8
LAYER_1
 62
   114
 10
1.01978
 20
0.07425
 30
0.0
  0
VERTEX
  5
165
  8
LAYER_1
 62
   114
 10
0.76578
 20
0.07425
 30
0.0
  0
VERTEX
  5
166
  8
LAYER_1
 62
   114
 10
0.76578
 20
-0.17975
 30
0.0
  0
VERTEX
  5
167
  8
LAYER_1
 62
   114
 10
1.01978
 20
-0.17975
 30
0.0
  0
SEQEND
  5
258
  8
LAYER_1
 62
   114
  0
POLYLINE
  5
8A
  8
LAYER_1
 62
   114
 66
     1
 10
0.0
 20
0.0
 30
0.0
 70
     1
  0
VERTEX
  5
168
  8
LAYER_1
 62
   114
 10
0.15852
 20
-0.48237
 30
0.0
  0
VERTEX
  5
169
  8
LAYER_1
 62
   114
 10
0.15852
 20
-0.22837
 30
0.0
  0
VERTEX
  5
16A
  8
LAYER_1
 62
   114
 10
-0.09548
 20
-0.22837
 30
0.0
  0
VERTEX
  5
16B
  8
LAYER_1
 62
   114
 10
-0.09548
 20
-0.48237
 30
0.0
  0
VERTEX
  5
16C
  8
LAYER_1
 62
   114
 10
0.15852
 20
-0.48237
 30
0.0
  0
SEQEND
  5
259
  8
LAYER_1
 62
   114
  0
POLYLINE
  5
8B
  8
LAYER_1
 62
   114
 66
     1
 10
0.0
 20
0.0
 30
0.0
 70
     1
  0
VERTEX
  5
16D
  8
LAYER_1
 62
   114
 10
-1.46702
 20
1.93922
 30
0.0
  0
VERTEX
  5
16E
  8
LAYER_1
 62
   114
 10
-1.21302
 20
1.93922
 30
0.0
  0
VERTEX
  5
16F
  8
LAYER_1
 62
   114
 10
-1.21302
 20
2.19322
 30
0.0
  0
VERTEX
  5
170
  8
LAYER_1
 62
   114
 10
-1.46702
 20
2.19322
 30
0.0
  0
VERTEX
  5
171
  8
LAYER_1
 62
   114
 10
-1.46702
 20
1.93922
 30
0.0
  0
SEQEND
  5
25A
  8
LAYER_1
 62
   114
  0
POLYLINE
  5
8C
  8
LAYER_1
 62
   114
 66
     1
 10
0.0
 20
0.0
 30
0.0
 70
     1
  0
VERTEX
  5
172
  8
LAYER_1
 62
   114
 10
-0.5491
 20
1.93922
 30
0.0
  0
VERTEX
  5
173
  8
LAYER_1
 62
   114
 10
-0.2951
 20
1.93922
 30
0.0
  0
VERTEX
  5
174
  8
LAYER_1
 62
   114
 10
-0.2951
 20
2.19322
 30
0.0
  0
VERTEX
  5
175
  8
LAYER_1
 62
   114
 10
-0.5491
 20
2.19322
 30
0.0
  0
VERTEX
  5
176
  8
LAYER_1
 62
   114
 10
-0.5491
 20
1.93922
 30
0.0
  0
SEQEND
  5
25B
  8
LAYER_1
 62
   114
  0
POLYLINE
  5
8D
  8
LAYER_1
 62
   114
 66
     1
 10
0.0
 20
0.0
 30
0.0
 70
     1
  0
VERTEX
  5
177
  8
LAYER_1
 62
   114
 10
0.36882
 20
1.93922
 30
0.0
  0
VERTEX
  5
178
  8
LAYER_1
 62
   114
 10
0.62282
 20
1.93922
 30
0.0
  0
VERTEX
  5
179
  8
LAYER_1
 62
   114
 10
0.62282
 20
2.19322
 30
0.0
  0
VERTEX
  5
17A
  8
LAYER_1
 62
   114
 10
0.36882
 20
2.19322
 30
0.0
  0
VERTEX
  5
17B
  8
LAYER_1
 62
   114
 10
0.36882
 20
1.93922
 30
0.0
  0
SEQEND
  5
25C
  8
LAYER_1
 62
   114
  0
POLYLINE
  5
8E
  8
LAYER_1
 62
   114
 66
     1
 10
0.0
 20
0.0
 30
0.0
 70
     1
  0
VERTEX
  5
17C
  8
LAYER_1
 62
   114
 10
1.28674
 20
1.93922
 30
0.0
  0
VERTEX
  5
17D
  8
LAYER_1
 62
   114
 10
1.54074
 20
1.93922
 30
0.0
  0
VERTEX
  5
17E
  8
LAYER_1
 62
   114
 10
1.54074
 20
2.19322
 30
0.0
  0
VERTEX
  5
17F
  8
LAYER_1
 62
   114
 10
1.28674
 20
2.19322
 30
0.0
  0
VERTEX
  5
180
  8
LAYER_1
 62
   114
 10
1.28674
 20
1.93922
 30
0.0
  0
SEQEND
  5
25D
  8
LAYER_1
 62
   114
  0
POLYLINE
  5
8F
  8
LAYER_1
 62
   114
 66
     1
 10
0.0
 20
0.0
 30
0.0
 70
     1
  0
VERTEX
  5
181
  8
LAYER_1
 62
   114
 10
-1.5361
 20
1.00484
 30
0.0
  0
VERTEX
  5
182
  8
LAYER_1
 62
   114
 10
-1.2821
 20
1.00484
 30
0.0
  0
VERTEX
  5
183
  8
LAYER_1
 62
   114
 10
-1.2821
 20
1.25884
 30
0.0
  0
VERTEX
  5
184
  8
LAYER_1
 62
   114
 10
-1.5361
 20
1.25884
 30
0.0
  0
VERTEX
  5
185
  8
LAYER_1
 62
   114
 10
-1.5361
 20
1.00484
 30
0.0
  0
SEQEND
  5
25E
  8
LAYER_1
 62
   114
  0
POLYLINE
  5
90
  8
LAYER_1
 62
   114
 66
     1
 10
0.0
 20
0.0
 30
0.0
 70
     1
  0
VERTEX
  5
186
  8
LAYER_1
 62
   114
 10
-0.84024
 20
1.00484
 30
0.0
  0
VERTEX
  5
187
  8
LAYER_1
 62
   114
 10
-0.58624
 20
1.00484
 30
0.0
  0
VERTEX
  5
188
  8
LAYER_1
 62
   114
 10
-0.58624
 20
1.25884
 30
0.0
  0
VERTEX
  5
189
  8
LAYER_1
 62
   114
 10
-0.84024
 20
1.25884
 30
0.0
  0
VERTEX
  5
18A
  8
LAYER_1
 62
   114
 10
-0.84024
 20
1.00484
 30
0.0
  0
SEQEND
  5
25F
  8
LAYER_1
 62
   114
  0
POLYLINE
  5
91
  8
LAYER_1
 62
   114
 66
     1
 10
0.0
 20
0.0
 30
0.0
 70
     1
  0
VERTEX
  5
18B
  8
LAYER_1
 62
   114
 10
0.62688
 20
1.00484
 30
0.0
  0
VERTEX
  5
18C
  8
LAYER_1
 62
   114
 10
0.88088
 20
1.00484
 30
0.0
  0
VERTEX
  5
18D
  8
LAYER_1
 62
   114
 10
0.88088
 20
1.25884
 30
0.0
  0
VERTEX
  5
18E
  8
LAYER_1
 62
   114
 10
0.62688
 20
1.25884
 30
0.0
  0
VERTEX
  5
18F
  8
LAYER_1
 62
   114
 10
0.62688
 20
1.00484
 30
0.0
  0
SEQEND
  5
260
  8
LAYER_1
 62
   114
  0
POLYLINE
  5
92
  8
LAYER_1
 62
   114
 66
     1
 10
0.0
 20
0.0
 30
0.0
 70
     1
  0
VERTEX
  5
190
  8
LAYER_1
 62
   114
 10
1.32274
 20
1.00484
 30
0.0
  0
VERTEX
  5
191
  8
LAYER_1
 62
   114
 10
1.57674
 20
1.00484
 30
0.0
  0
VERTEX
  5
192
  8
LAYER_1
 62
   114
 10
1.57674
 20
1.25884
 30
0.0
  0
VERTEX
  5
193
  8
LAYER_1
 62
   114
 10
1.32274
 20
1.25884
 30
0.0
  0
VERTEX
  5
194
  8
LAYER_1
 62
   114
 10
1.32274
 20
1.00484
 30
0.0
  0
SEQEND
  5
261
  8
LAYER_1
 62
   114
  0
POLYLINE
  5
93
  8
LAYER_1
 62
   114
 66
     1
 10
0.0
 20
0.0
 30
0.0
 70
     1
  0
VERTEX
  5
195
  8
LAYER_1
 62
   114
 10
-1.33936
 20
2.92281
 30
0.0
  0
VERTEX
  5
196
  8
LAYER_1
 62
   114
 10
-1.08536
 20
2.92281
 30
0.0
  0
VERTEX
  5
197
  8
LAYER_1
 62
   114
 10
-1.08536
 20
3.17681
 30
0.0
  0
VERTEX
  5
198
  8
LAYER_1
 62
   114
 10
-1.33936
 20
3.17681
 30
0.0
  0
VERTEX
  5
199
  8
LAYER_1
 62
   114
 10
-1.33936
 20
2.92281
 30
0.0
  0
SEQEND
  5
262
  8
LAYER_1
 62
   114
  0
POLYLINE
  5
94
  8
LAYER_1
 62
   114
 66
     1
 10
0.0
 20
0.0
 30
0.0
 70
     1
  0
VERTEX
  5
19A
  8
LAYER_1
 62
   114
 10
-0.10011
 20
2.92281
 30
0.0
  0
VERTEX
  5
19B
  8
LAYER_1
 62
   114
 10
0.15389
 20
2.92281
 30
0.0
  0
VERTEX
  5
19C
  8
LAYER_1
 62
   114
 10
0.15389
 20
3.17681
 30
0.0
  0
VERTEX
  5
19D
  8
LAYER_1
 62
   114
 10
-0.10011
 20
3.17681
 30
0.0
  0
VERTEX
  5
19E
  8
LAYER_1
 62
   114
 10
-0.10011
 20
2.92281
 30
0.0
  0
SEQEND
  5
263
  8
LAYER_1
 62
   114
  0
POLYLINE
  5
95
  8
LAYER_1
 62
   114
 66
     1
 10
0.0
 20
0.0
 30
0.0
 70
     1
  0
VERTEX
  5
19F
  8
LAYER_1
 62
   114
 10
1.13915
 20
2.92281
 30
0.0
  0
VERTEX
  5
1A0
  8
LAYER_1
 62
   114
 10
1.39315
 20
2.92281
 30
0.0
  0
VERTEX
  5
1A1
  8
LAYER_1
 62
   114
 10
1.39315
 20
3.17681
 30
0.0
  0
VERTEX
  5
1A2
  8
LAYER_1
 62
   114
 10
1.13915
 20
3.17681
 30
0.0
  0
VERTEX
  5
1A3
  8
LAYER_1
 62
   114
 10
1.13915
 20
2.92281
 30
0.0
  0
SEQEND
  5
264
  8
LAYER_1
 62
   114
  0
POLYLINE
  5
96
  8
LAYER_1
 62
   114
 66
     1
 10
0.0
 20
0.0
 30
0.0
 70
     1
  0
VERTEX
  5
1A4
  8
LAYER_1
 62
   114
 10
-1.33936
 20
3.83694
 30
0.0
  0
VERTEX
  5
1A5
  8
LAYER_1
 62
   114
 10
-1.08536
 20
3.83694
 30
0.0
  0
VERTEX
  5
1A6
  8
LAYER_1
 62
   114
 10
-1.08536
 20
4.09094
 30
0.0
  0
VERTEX
  5
1A7
  8
LAYER_1
 62
   114
 10
-1.33936
 20
4.09094
 30
0.0
  0
VERTEX
  5
1A8
  8
LAYER_1
 62
   114
 10
-1.33936
 20
3.83694
 30
0.0
  0
SEQEND
  5
265
  8
LAYER_1
 62
   114
  0
POLYLINE
  5
97
  8
LAYER_1
 62
   114
 66
     1
 10
0.0
 20
0.0
 30
0.0
 70
     1
  0
VERTEX
  5
1A9
  8
LAYER_1
 62
   114
 10
-0.10011
 20
3.83694
 30
0.0
  0
VERTEX
  5
1AA
  8
LAYER_1
 62
   114
 10
0.15389
 20
3.83694
 30
0.0
  0
VERTEX
  5
1AB
  8
LAYER_1
 62
   114
 10
0.15389
 20
4.09094
 30
0.0
  0
VERTEX
  5
1AC
  8
LAYER_1
 62
   114
 10
-0.10011
 20
4.09094
 30
0.0
  0
VERTEX
  5
1AD
  8
LAYER_1
 62
   114
 10
-0.10011
 20
3.83694
 30
0.0
  0
SEQEND
  5
266
  8
LAYER_1
 62
   114
  0
POLYLINE
  5
98
  8
LAYER_1
 62
   114
 66
     1
 10
0.0
 20
0.0
 30
0.0
 70
     1
  0
VERTEX
  5
1AE
  8
LAYER_1
 62
   114
 10
1.13915
 20
3.83694
 30
0.0
  0
VERTEX
  5
1AF
  8
LAYER_1
 62
   114
 10
1.39315
 20
3.83694
 30
0.0
  0
VERTEX
  5
1B0
  8
LAYER_1
 62
   114
 10
1.39315
 20
4.09094
 30
0.0
  0
VERTEX
  5
1B1
  8
LAYER_1
 62
   114
 10
1.13915
 20
4.09094
 30
0.0
  0
VERTEX
  5
1B2
  8
LAYER_1
 62
   114
 10
1.13915
 20
3.83694
 30
0.0
  0
SEQEND
  5
267
  8
LAYER_1
 62
   114
  0
POLYLINE
  5
99
  8
LAYER_1
 62
   114
 66
     1
 10
0.0
 20
0.0
 30
0.0
 70
     1
  0
VERTEX
  5
1B3
  8
LAYER_1
 62
   114
 10
-1.33936
 20
4.76825
 30
0.0
  0
VERTEX
  5
1B4
  8
LAYER_1
 62
   114
 10
-1.08536
 20
4.76825
 30
0.0
  0
VERTEX
  5
1B5
  8
LAYER_1
 62
   114
 10
-1.08536
 20
5.02225
 30
0.0
  0
VERTEX
  5
1B6
  8
LAYER_1
 62
   114
 10
-1.33936
 20
5.02225
 30
0.0
  0
VERTEX
  5
1B7
  8
LAYER_1
 62
   114
 10
-1.33936
 20
4.76825
 30
0.0
  0
SEQEND
  5
268
  8
LAYER_1
 62
   114
  0
POLYLINE
  5
9A
  8
LAYER_1
 62
   114
 66
     1
 10
0.0
 20
0.0
 30
0.0
 70
     1
  0
VERTEX
  5
1B8
  8
LAYER_1
 62
   114
 10
-0.10011
 20
4.76825
 30
0.0
  0
VERTEX
  5
1B9
  8
LAYER_1
 62
   114
 10
0.15389
 20
4.76825
 30
0.0
  0
VERTEX
  5
1BA
  8
LAYER_1
 62
   114
 10
0.15389
 20
5.02225
 30
0.0
  0
VERTEX
  5
1BB
  8
LAYER_1
 62
   114
 10
-0.10011
 20
5.02225
 30
0.0
  0
VERTEX
  5
1BC
  8
LAYER_1
 62
   114
 10
-0.10011
 20
4.76825
 30
0.0
  0
SEQEND
  5
269
  8
LAYER_1
 62
   114
  0
POLYLINE
  5
9B
  8
LAYER_1
 62
   114
 66
     1
 10
0.0
 20
0.0
 30
0.0
 70
     1
  0
VERTEX
  5
1BD
  8
LAYER_1
 62
   114
 10
1.13915
 20
4.76825
 30
0.0
  0
VERTEX
  5
1BE
  8
LAYER_1
 62
   114
 10
1.39315
 20
4.76825
 30
0.0
  0
VERTEX
  5
1BF
  8
LAYER_1
 62
   114
 10
1.39315
 20
5.02225
 30
0.0
  0
VERTEX
  5
1C0
  8
LAYER_1
 62
   114
 10
1.13915
 20
5.02225
 30
0.0
  0
VERTEX
  5
1C1
  8
LAYER_1
 62
   114
 10
1.13915
 20
4.76825
 30
0.0
  0
SEQEND
  5
26A
  8
LAYER_1
 62
   114
  0
POLYLINE
  5
9C
  8
LAYER_1
 62
   114
 66
     1
 10
0.0
 20
0.0
 30
0.0
 70
     1
  0
VERTEX
  5
1C2
  8
LAYER_1
 62
   114
 10
-1.33936
 20
5.69957
 30
0.0
  0
VERTEX
  5
1C3
  8
LAYER_1
 62
   114
 10
-1.08536
 20
5.69957
 30
0.0
  0
VERTEX
  5
1C4
  8
LAYER_1
 62
   114
 10
-1.08536
 20
5.95357
 30
0.0
  0
VERTEX
  5
1C5
  8
LAYER_1
 62
   114
 10
-1.33936
 20
5.95357
 30
0.0
  0
VERTEX
  5
1C6
  8
LAYER_1
 62
   114
 10
-1.33936
 20
5.69957
 30
0.0
  0
SEQEND
  5
26B
  8
LAYER_1
 62
   114
  0
POLYLINE
  5
9D
  8
LAYER_1
 62
   114
 66
     1
 10
0.0
 20
0.0
 30
0.0
 70
     1
  0
VERTEX
  5
1C7
  8
LAYER_1
 62
   114
 10
-0.10011
 20
5.69957
 30
0.0
  0
VERTEX
  5
1C8
  8
LAYER_1
 62
   114
 10
0.15389
 20
5.69957
 30
0.0
  0
VERTEX
  5
1C9
  8
LAYER_1
 62
   114
 10
0.15389
 20
5.95357
 30
0.0
  0
VERTEX
  5
1CA
  8
LAYER_1
 62
   114
 10
-0.10011
 20
5.95357
 30
0.0
  0
VERTEX
  5
1CB
  8
LAYER_1
 62
   114
 10
-0.10011
 20
5.69957
 30
0.0
  0
SEQEND
  5
26C
  8
LAYER_1
 62
   114
  0
POLYLINE
  5
9E
  8
LAYER_1
 62
   114
 66
     1
 10
0.0
 20
0.0
 30
0.0
 70
     1
  0
VERTEX
  5
1CC
  8
LAYER_1
 62
   114
 10
1.13915
 20
5.69957
 30
0.0
  0
VERTEX
  5
1CD
  8
LAYER_1
 62
   114
 10
1.39315
 20
5.69957
 30
0.0
  0
VERTEX
  5
1CE
  8
LAYER_1
 62
   114
 10
1.39315
 20
5.95357
 30
0.0
  0
VERTEX
  5
1CF
  8
LAYER_1
 62
   114
 10
1.13915
 20
5.95357
 30
0.0
  0
VERTEX
  5
1D0
  8
LAYER_1
 62
   114
 10
1.13915
 20
5.69957
 30
0.0
  0
SEQEND
  5
26D
  8
LAYER_1
 62
   114
  0
POLYLINE
  5
9F
  8
LAYER_1
 62
   114
 66
     1
 10
0.0
 20
0.0
 30
0.0
 70
     1
  0
VERTEX
  5
1D1
  8
LAYER_1
 62
   114
 10
-1.33936
 20
6.66265
 30
0.0
  0
VERTEX
  5
1D2
  8
LAYER_1
 62
   114
 10
-1.08536
 20
6.66265
 30
0.0
  0
VERTEX
  5
1D3
  8
LAYER_1
 62
   114
 10
-1.08536
 20
6.91665
 30
0.0
  0
VERTEX
  5
1D4
  8
LAYER_1
 62
   114
 10
-1.33936
 20
6.91665
 30
0.0
  0
VERTEX
  5
1D5
  8
LAYER_1
 62
   114
 10
-1.33936
 20
6.66265
 30
0.0
  0
SEQEND
  5
26E
  8
LAYER_1
 62
   114
  0
POLYLINE
  5
A0
  8
LAYER_1
 62
   114
 66
     1
 10
0.0
 20
0.0
 30
0.0
 70
     1
  0
VERTEX
  5
1D6
  8
LAYER_1
 62
   114
 10
0.36525
 20
6.66265
 30
0.0
  0
VERTEX
  5
1D7
  8
LAYER_1
 62
   114
 10
0.61925
 20
6.66265
 30
0.0
  0
VERTEX
  5
1D8
  8
LAYER_1
 62
   114
 10
0.61925
 20
6.91665
 30
0.0
  0
VERTEX
  5
1D9
  8
LAYER_1
 62
   114
 10
0.36525
 20
6.91665
 30
0.0
  0
VERTEX
  5
1DA
  8
LAYER_1
 62
   114
 10
0.36525
 20
6.66265
 30
0.0
  0
SEQEND
  5
26F
  8
LAYER_1
 62
   114
  0
POLYLINE
  5
A1
  8
LAYER_1
 62
   114
 66
     1
 10
0.0
 20
0.0
 30
0.0
 70
     1
  0
VERTEX
  5
1DB
  8
LAYER_1
 62
   114
 10
1.24234
 20
6.66265
 30
0.0
  0
VERTEX
  5
1DC
  8
LAYER_1
 62
   114
 10
1.49634
 20
6.66265
 30
0.0
  0
VERTEX
  5
1DD
  8
LAYER_1
 62
   114
 10
1.49634
 20
6.91665
 30
0.0
  0
VERTEX
  5
1DE
  8
LAYER_1
 62
   114
 10
1.24234
 20
6.91665
 30
0.0
  0
VERTEX
  5
1DF
  8
LAYER_1
 62
   114
 10
1.24234
 20
6.66265
 30
0.0
  0
SEQEND
  5
270
  8
LAYER_1
 62
   114
  0
POLYLINE
  5
A2
  8
LAYER_1
 62
   114
 66
     1
 10
0.0
 20
0.0
 30
0.0
 70
     1
  0
VERTEX
  5
1E0
  8
LAYER_1
 62
   114
 10
-0.12616
 20
6.340619999999999
 30
0.0
  0
VERTEX
  5
1E1
  8
LAYER_1
 62
   114
 10
-0.1456690322016128
 20
6.338698528040323
 30
0.0
  0
VERTEX
  5
1E2
  8
LAYER_1
 62
   114
 10
-0.164428343236509
 20
6.333007953251128
 30
0.0
  0
VERTEX
  5
1E3
  8
LAYER_1
 62
   114
 10
-0.1817170233019602
 20
6.323766961230255
 30
0.0
  0
VERTEX
  5
1E4
  8
LAYER_1
 62
   114
 10
-0.1968706781186548
 20
6.311330678118654
 30
0.0
  0
VERTEX
  5
1E5
  8
LAYER_1
 62
   114
 10
-0.2093069612302545
 20
6.29617702330196
 30
0.0
  0
VERTEX
  5
1E6
  8
LAYER_1
 62
   114
 10
-0.2185479532511287
 20
6.278888343236509
 30
0.0
  0
VERTEX
  5
1E7
  8
LAYER_1
 62
   114
 10
-0.224238528040323
 20
6.260129032201613
 30
0.0
  0
VERTEX
  5
1E8
  8
LAYER_1
 62
   114
 10
-0.22616
 20
6.24062
 30
0.0
  0
VERTEX
  5
1E9
  8
LAYER_1
 62
   114
 10
-0.224238528040323
 20
6.221110967798387
 30
0.0
  0
VERTEX
  5
1EA
  8
LAYER_1
 62
   114
 10
-0.2185479532511287
 20
6.202351656763491
 30
0.0
  0
VERTEX
  5
1EB
  8
LAYER_1
 62
   114
 10
-0.2093069612302546
 20
6.18506297669804
 30
0.0
  0
VERTEX
  5
1EC
  8
LAYER_1
 62
   114
 10
-0.1968706781186548
 20
6.169909321881345
 30
0.0
  0
VERTEX
  5
1ED
  8
LAYER_1
 62
   114
 10
-0.1817170233019602
 20
6.157473038769745
 30
0.0
  0
VERTEX
  5
1EE
  8
LAYER_1
 62
   114
 10
-0.164428343236509
 20
6.148232046748872
 30
0.0
  0
VERTEX
  5
1EF
  8
LAYER_1
 62
   114
 10
-0.1456690322016128
 20
6.142541471959677
 30
0.0
  0
VERTEX
  5
1F0
  8
LAYER_1
 62
   114
 10
-0.1261599999999999
 20
6.14062
 30
0.0
  0
VERTEX
  5
1F1
  8
LAYER_1
 62
   114
 10
-0.1066509677983871
 20
6.142541471959677
 30
0.0
  0
VERTEX
  5
1F2
  8
LAYER_1
 62
   114
 10
-0.0878916567634909
 20
6.148232046748872
 30
0.0
  0
VERTEX
  5
1F3
  8
LAYER_1
 62
   114
 10
-0.0706029766980397
 20
6.157473038769745
 30
0.0
  0
VERTEX
  5
1F4
  8
LAYER_1
 62
   114
 10
-0.0554493218813451
 20
6.169909321881345
 30
0.0
  0
VERTEX
  5
1F5
  8
LAYER_1
 62
   114
 10
-0.0430130387697454
 20
6.18506297669804
 30
0.0
  0
VERTEX
  5
1F6
  8
LAYER_1
 62
   114
 10
-0.0337720467488712
 20
6.202351656763491
 30
0.0
  0
VERTEX
  5
1F7
  8
LAYER_1
 62
   114
 10
-0.0280814719596769
 20
6.221110967798388
 30
0.0
  0
VERTEX
  5
1F8
  8
LAYER_1
 62
   114
 10
-0.02616
 20
6.24062
 30
0.0
  0
VERTEX
  5
1F9
  8
LAYER_1
 62
   114
 10
-0.028081471959677
 20
6.260129032201613
 30
0.0
  0
VERTEX
  5
1FA
  8
LAYER_1
 62
   114
 10
-0.0337720467488714
 20
6.278888343236509
 30
0.0
  0
VERTEX
  5
1FB
  8
LAYER_1
 62
   114
 10
-0.0430130387697456
 20
6.29617702330196
 30
0.0
  0
VERTEX
  5
1FC
  8
LAYER_1
 62
   114
 10
-0.0554493218813455
 20
6.311330678118654
 30
0.0
  0
VERTEX
  5
1FD
  8
LAYER_1
 62
   114
 10
-0.0706029766980401
 20
6.323766961230255
 30
0.0
  0
VERTEX
  5
1FE
  8
LAYER_1
 62
   114
 10
-0.0878916567634914
 20
6.333007953251129
 30
0.0
  0
VERTEX
  5
1FF
  8
LAYER_1
 62
   114
 10
-0.1066509677983876
 20
6.338698528040323
 30
0.0
  0
SEQEND
  5
271
  8
LAYER_1
 62
   114
  0
POLYLINE
  5
A3
  8
LAYER_1
 62
   114
 66
     1
 10
0.0
 20
0.0
 30
0.0
 70
     1
  0
VERTEX
  5
200
  8
LAYER_1
 62
   114
 10
0.12235
 20
6.340619999999999
 30
0.0
  0
VERTEX
  5
201
  8
LAYER_1
 62
   114
 10
0.1028409677983872
 20
6.338698528040323
 30
0.0
  0
VERTEX
  5
202
  8
LAYER_1
 62
   114
 10
0.084081656763491
 20
6.333007953251128
 30
0.0
  0
VERTEX
  5
203
  8
LAYER_1
 62
   114
 10
0.0667929766980398
 20
6.323766961230255
 30
0.0
  0
VERTEX
  5
204
  8
LAYER_1
 62
   114
 10
0.0516393218813452
 20
6.311330678118654
 30
0.0
  0
VERTEX
  5
205
  8
LAYER_1
 62
   114
 10
0.0392030387697455
 20
6.29617702330196
 30
0.0
  0
VERTEX
  5
206
  8
LAYER_1
 62
   114
 10
0.0299620467488713
 20
6.278888343236509
 30
0.0
  0
VERTEX
  5
207
  8
LAYER_1
 62
   114
 10
0.024271471959677
 20
6.260129032201613
 30
0.0
  0
VERTEX
  5
208
  8
LAYER_1
 62
   114
 10
0.02235
 20
6.24062
 30
0.0
  0
VERTEX
  5
209
  8
LAYER_1
 62
   114
 10
0.024271471959677
 20
6.221110967798387
 30
0.0
  0
VERTEX
  5
20A
  8
LAYER_1
 62
   114
 10
0.0299620467488713
 20
6.202351656763491
 30
0.0
  0
VERTEX
  5
20B
  8
LAYER_1
 62
   114
 10
0.0392030387697455
 20
6.18506297669804
 30
0.0
  0
VERTEX
  5
20C
  8
LAYER_1
 62
   114
 10
0.0516393218813452
 20
6.169909321881345
 30
0.0
  0
VERTEX
  5
20D
  8
LAYER_1
 62
   114
 10
0.0667929766980398
 20
6.157473038769745
 30
0.0
  0
VERTEX
  5
20E
  8
LAYER_1
 62
   114
 10
0.0840816567634911
 20
6.148232046748872
 30
0.0
  0
VERTEX
  5
20F
  8
LAYER_1
 62
   114
 10
0.1028409677983872
 20
6.142541471959677
 30
0.0
  0
VERTEX
  5
210
  8
LAYER_1
 62
   114
 10
0.1223500000000001
 20
6.14062
 30
0.0
  0
VERTEX
  5
211
  8
LAYER_1
 62
   114
 10
0.1418590322016129
 20
6.142541471959677
 30
0.0
  0
VERTEX
  5
212
  8
LAYER_1
 62
   114
 10
0.1606183432365091
 20
6.148232046748872
 30
0.0
  0
VERTEX
  5
213
  8
LAYER_1
 62
   114
 10
0.1779070233019603
 20
6.157473038769745
 30
0.0
  0
VERTEX
  5
214
  8
LAYER_1
 62
   114
 10
0.1930606781186549
 20
6.169909321881345
 30
0.0
  0
VERTEX
  5
215
  8
LAYER_1
 62
   114
 10
0.2054969612302546
 20
6.18506297669804
 30
0.0
  0
VERTEX
  5
216
  8
LAYER_1
 62
   114
 10
0.2147379532511288
 20
6.202351656763491
 30
0.0
  0
VERTEX
  5
217
  8
LAYER_1
 62
   114
 10
0.2204285280403231
 20
6.221110967798388
 30
0.0
  0
VERTEX
  5
218
  8
LAYER_1
 62
   114
 10
0.22235
 20
6.24062
 30
0.0
  0
VERTEX
  5
219
  8
LAYER_1
 62
   114
 10
0.220428528040323
 20
6.260129032201613
 30
0.0
  0
VERTEX
  5
21A
  8
LAYER_1
 62
   114
 10
0.2147379532511286
 20
6.278888343236509
 30
0.0
  0
VERTEX
  5
21B
  8
LAYER_1
 62
   114
 10
0.2054969612302543
 20
6.29617702330196
 30
0.0
  0
VERTEX
  5
21C
  8
LAYER_1
 62
   114
 10
0.1930606781186545
 20
6.311330678118654
 30
0.0
  0
VERTEX
  5
21D
  8
LAYER_1
 62
   114
 10
0.1779070233019599
 20
6.323766961230255
 30
0.0
  0
VERTEX
  5
21E
  8
LAYER_1
 62
   114
 10
0.1606183432365086
 20
6.333007953251129
 30
0.0
  0
VERTEX
  5
21F
  8
LAYER_1
 62
   114
 10
0.1418590322016124
 20
6.338698528040323
 30
0.0
  0
SEQEND
  5
272
  8
LAYER_1
 62
   114
  0
POLYLINE
  5
A4
  8
LAYER_1
 62
   114
 66
     1
 10
0.0
 20
0.0
 30
0.0
 70
     1
  0
VERTEX
  5
220
  8
LAYER_1
 62
   114
 10
-1.5461
 20
-1.99182
 30
0.0
  0
VERTEX
  5
221
  8
LAYER_1
 62
   114
 10
-1.2921
 20
-1.99182
 30
0.0
  0
VERTEX
  5
222
  8
LAYER_1
 62
   114
 10
-1.2921
 20
-1.73782
 30
0.0
  0
VERTEX
  5
223
  8
LAYER_1
 62
   114
 10
-1.5461
 20
-1.73782
 30
0.0
  0
VERTEX
  5
224
  8
LAYER_1
 62
   114
 10
-1.5461
 20
-1.99182
 30
0.0
  0
SEQEND
  5
273
  8
LAYER_1
 62
   114
  0
POLYLINE
  5
A5
  8
LAYER_1
 62
   114
 66
     1
 10
0.0
 20
0.0
 30
0.0
 70
     1
  0
VERTEX
  5
225
  8
LAYER_1
 62
   114
 10
-0.85024
 20
-1.99182
 30
0.0
  0
VERTEX
  5
226
  8
LAYER_1
 62
   114
 10
-0.59624
 20
-1.99182
 30
0.0
  0
VERTEX
  5
227
  8
LAYER_1
 62
   114
 10
-0.59624
 20
-1.73782
 30
0.0
  0
VERTEX
  5
228
  8
LAYER_1
 62
   114
 10
-0.85024
 20
-1.73782
 30
0.0
  0
VERTEX
  5
229
  8
LAYER_1
 62
   114
 10
-0.85024
 20
-1.99182
 30
0.0
  0
SEQEND
  5
274
  8
LAYER_1
 62
   114
  0
POLYLINE
  5
A6
  8
LAYER_1
 62
   114
 66
     1
 10
0.0
 20
0.0
 30
0.0
 70
     1
  0
VERTEX
  5
22A
  8
LAYER_1
 62
   114
 10
0.61688
 20
-1.99182
 30
0.0
  0
VERTEX
  5
22B
  8
LAYER_1
 62
   114
 10
0.87088
 20
-1.99182
 30
0.0
  0
VERTEX
  5
22C
  8
LAYER_1
 62
   114
 10
0.87088
 20
-1.73782
 30
0.0
  0
VERTEX
  5
22D
  8
LAYER_1
 62
   114
 10
0.61688
 20
-1.73782
 30
0.0
  0
VERTEX
  5
22E
  8
LAYER_1
 62
   114
 10
0.61688
 20
-1.99182
 30
0.0
  0
SEQEND
  5
275
  8
LAYER_1
 62
   114
  0
POLYLINE
  5
A7
  8
LAYER_1
 62
   114
 66
     1
 10
0.0
 20
0.0
 30
0.0
 70
     1
  0
VERTEX
  5
22F
  8
LAYER_1
 62
   114
 10
1.31274
 20
-1.99182
 30
0.0
  0
VERTEX
  5
230
  8
LAYER_1
 62
   114
 10
1.56674
 20
-1.99182
 30
0.0
  0
VERTEX
  5
231
  8
LAYER_1
 62
   114
 10
1.56674
 20
-1.73782
 30
0.0
  0
VERTEX
  5
232
  8
LAYER_1
 62
   114
 10
1.31274
 20
-1.73782
 30
0.0
  0
VERTEX
  5
233
  8
LAYER_1
 62
   114
 10
1.31274
 20
-1.99182
 30
0.0
  0
SEQEND
  5
276
  8
LAYER_1
 62
   114
  0
POLYLINE
  5
A8
  8
LAYER_1
 62
   250
 66
     1
 10
0.0
 20
0.0
 30
0.0
 70
     1
  0
VERTEX
  5
234
  8
LAYER_1
 62
   250
 10
-1.71746
 20
-7.25665
 30
0.0
  0
VERTEX
  5
235
  8
LAYER_1
 62
   250
 10
1.7643
 20
-7.25665
 30
0.0
  0
VERTEX
  5
236
  8
LAYER_1
 62
   250
 10
1.7643
 20
7.28698
 30
0.0
  0
VERTEX
  5
237
  8
LAYER_1
 62
   250
 10
0.34012
 20
7.28698
 30
0.0
  0
VERTEX
  5
238
  8
LAYER_1
 62
   250
 10
0.34012
 20
7.17981
 30
0.0
  0
VERTEX
  5
239
  8
LAYER_1
 62
   250
 10
-0.35309
 20
7.17981
 30
0.0
  0
VERTEX
  5
23A
  8
LAYER_1
 62
   250
 10
-0.35309
 20
7.28698
 30
0.0
  0
VERTEX
  5
23B
  8
LAYER_1
 62
   250
 10
-1.71746
 20
7.28698
 30
0.0
  0
VERTEX
  5
23C
  8
LAYER_1
 62
   250
 10
-1.71746
 20
-7.25665
 30
0.0
  0
SEQEND
  5
277
  8
LAYER_1
 62
   250
  0
ENDSEC
  0
EOF
