  0
SECTION
  2
HEADER
  9
$ACADVER
  1
AC1006
  9
$DWGCODEPAGE
  3
ansi_1251
  9
$INSBASE
 10
0.0
 20
0.0
 30
0.0
  9
$EXTMIN
 10
-17.2127
 20
-72.6046
  9
$EXTMAX
 10
17.6811
 20
72.9079
  9
$LIMMIN
 10
0.0
 20
0.0
  9
$LIMMAX
 10
12.0
 20
9.0
  9
$ORTHOMODE
 70
     0
  9
$REGENMODE
 70
     1
  9
$FILLMODE
 70
     1
  9
$QTEXTMODE
 70
     0
  9
$MIRRTEXT
 70
     1
  9
$DRAGMODE
 70
     2
  9
$LTSCALE
 40
1.0
  9
$OSMODE
 70
    37
  9
$ATTMODE
 70
     1
  9
$TEXTSIZE
 40
0.2
  9
$TRACEWID
 40
0.05
  9
$TEXTSTYLE
  7
STANDARD
  9
$CLAYER
  8
0
  9
$CELTYPE
  6
BYLAYER
  9
$CECOLOR
 62
   256
  9
$DIMSCALE
 40
1.0
  9
$DIMASZ
 40
0.18
  9
$DIMEXO
 40
0.0625
  9
$DIMDLI
 40
0.38
  9
$DIMRND
 40
0.0
  9
$DIMDLE
 40
0.0
  9
$DIMEXE
 40
0.18
  9
$DIMTP
 40
0.0
  9
$DIMTM
 40
0.0
  9
$DIMTXT
 40
0.18
  9
$DIMCEN
 40
0.09
  9
$DIMTSZ
 40
0.0
  9
$DIMTOL
 70
     0
  9
$DIMLIM
 70
     0
  9
$DIMTIH
 70
     1
  9
$DIMTOH
 70
     1
  9
$DIMSE1
 70
     0
  9
$DIMSE2
 70
     0
  9
$DIMTAD
 70
     0
  9
$DIMZIN
 70
     0
  9
$DIMBLK
  1

  9
$DIMASO
 70
     1
  9
$DIMSHO
 70
     1
  9
$DIMPOST
  1

  9
$DIMAPOST
  1

  9
$DIMALT
 70
     0
  9
$DIMALTD
 70
     2
  9
$DIMALTF
 40
25.4
  9
$DIMLFAC
 40
1.0
  9
$DIMTOFL
 70
     0
  9
$DIMTVP
 40
0.0
  9
$DIMTIX
 70
     0
  9
$DIMSOXD
 70
     0
  9
$DIMSAH
 70
     0
  9
$DIMBLK1
  1

  9
$DIMBLK2
  1

  9
$LUNITS
 70
     2
  9
$LUPREC
 70
     4
  9
$SKETCHINC
 40
0.1
  9
$FILLETRAD
 40
0.5
  9
$AUNITS
 70
     0
  9
$AUPREC
 70
     0
  9
$MENU
  1
.
  9
$ELEVATION
 40
0.0
  9
$THICKNESS
 40
0.0
  9
$LIMCHECK
 70
     0
  9
$CHAMFERA
 40
0.0
  9
$CHAMFERB
 40
0.0
  9
$SKPOLY
 70
     0
  9
$TDCREATE
 40
2457482.689552697
  9
$TDUPDATE
 40
2457482.68955272
  9
$TDINDWG
 40
0.0000000116
  9
$TDUSRTIMER
 40
0.0000000116
  9
$USRTIMER
 70
     1
  9
$ANGBASE
 50
0.0
  9
$ANGDIR
 70
     0
  9
$PDMODE
 70
     0
  9
$PDSIZE
 40
0.0
  9
$PLINEWID
 40
0.0
  9
$COORDS
 70
     1
  9
$SPLFRAME
 70
     0
  9
$SPLINETYPE
 70
     6
  9
$SPLINESEGS
 70
     8
  9
$ATTDIA
 70
     0
  9
$ATTREQ
 70
     1
  9
$HANDLING
 70
     1
  9
$HANDSEED
  5
10C
  9
$SURFTAB1
 70
     6
  9
$SURFTAB2
 70
     6
  9
$SURFTYPE
 70
     6
  9
$SURFU
 70
     6
  9
$SURFV
 70
     6
  9
$UCSNAME
  2

  9
$UCSORG
 10
0.0
 20
0.0
 30
0.0
  9
$UCSXDIR
 10
1.0
 20
0.0
 30
0.0
  9
$UCSYDIR
 10
0.0
 20
1.0
 30
0.0
  9
$USERI1
 70
     0
  9
$USERI2
 70
     0
  9
$USERI3
 70
     0
  9
$USERI4
 70
     0
  9
$USERI5
 70
     0
  9
$USERR1
 40
0.0
  9
$USERR2
 40
0.0
  9
$USERR3
 40
0.0
  9
$USERR4
 40
0.0
  9
$USERR5
 40
0.0
  9
$WORLDVIEW
 70
     1
  0
ENDSEC
  0
SECTION
  2
TABLES
  0
TABLE
  2
VPORT
 70
     1
  0
VPORT
  2
*ACTIVE
 70
     0
 10
0.0
 20
0.0
 11
1.0
 21
1.0
 12
10.42990654205607
 22
4.5
 13
0.0
 23
0.0
 14
0.5
 24
0.5
 15
0.5
 25
0.5
 16
0.0
 26
0.0
 36
1.0
 17
0.0
 27
0.0
 37
0.0
 40
9.0
 41
1.972972972850329
 42
50.0
 43
0.0
 44
0.0
 50
0.0
 51
0.0
 71
     0
 72
   100
 73
     1
 74
     3
 75
     0
 76
     0
 77
     0
 78
     0
  0
ENDTAB
  0
TABLE
  2
LTYPE
 70
     1
  0
LTYPE
  2
CONTINUOUS
 70
     0
  3
Solid line
 72
    65
 73
     0
 40
0.0
  0
ENDTAB
  0
TABLE
  2
LAYER
 70
     2
  0
LAYER
  2
0
 70
     0
 62
     7
  6
CONTINUOUS
  0
LAYER
  2
LAYER_1
 70
     0
 62
     7
  6
CONTINUOUS
  0
ENDTAB
  0
TABLE
  2
STYLE
 70
     1
  0
STYLE
  2
STANDARD
 70
     0
 40
0.0
 41
1.0
 50
0.0
 71
     0
 42
0.2
  3
txt
  4

  0
ENDTAB
  0
TABLE
  2
VIEW
 70
     0
  0
ENDTAB
  0
TABLE
  2
UCS
 70
     0
  0
ENDTAB
  0
ENDSEC
  0
SECTION
  2
BLOCKS
  0
ENDSEC
  0
SECTION
  2
ENTITIES
  0
POLYLINE
  5
70
  8
LAYER_1
 62
   114
 66
     1
 10
0.0
 20
0.0
 30
0.0
 70
     1
  0
VERTEX
  5
7C
  8
LAYER_1
 62
   114
 10
-17.1746
 20
-72.5665
 30
0.0
  0
VERTEX
  5
7D
  8
LAYER_1
 62
   114
 10
17.643
 20
-72.5665
 30
0.0
  0
VERTEX
  5
7E
  8
LAYER_1
 62
   114
 10
17.643
 20
72.8698
 30
0.0
  0
VERTEX
  5
7F
  8
LAYER_1
 62
   114
 10
3.4012
 20
72.8698
 30
0.0
  0
VERTEX
  5
80
  8
LAYER_1
 62
   114
 10
3.4012
 20
71.7981
 30
0.0
  0
VERTEX
  5
81
  8
LAYER_1
 62
   114
 10
-3.5309
 20
71.7981
 30
0.0
  0
VERTEX
  5
82
  8
LAYER_1
 62
   114
 10
-3.5309
 20
72.8698
 30
0.0
  0
VERTEX
  5
83
  8
LAYER_1
 62
   114
 10
-17.1746
 20
72.8698
 30
0.0
  0
VERTEX
  5
84
  8
LAYER_1
 62
   114
 10
-17.1746
 20
-72.5665
 30
0.0
  0
SEQEND
  5
107
  8
LAYER_1
 62
   114
  0
POLYLINE
  5
71
  8
LAYER_1
 62
   114
 66
     1
 10
0.0
 20
0.0
 30
0.0
 70
     1
  0
VERTEX
  5
85
  8
LAYER_1
 62
   114
 10
-5.2246
 20
54.621
 30
0.0
  0
VERTEX
  5
86
  8
LAYER_1
 62
   114
 10
-5.419690322016128
 20
54.60178528040323
 30
0.0
  0
VERTEX
  5
87
  8
LAYER_1
 62
   114
 10
-5.607283432365089
 20
54.54487953251129
 30
0.0
  0
VERTEX
  5
88
  8
LAYER_1
 62
   114
 10
-5.780170233019602
 20
54.45246961230255
 30
0.0
  0
VERTEX
  5
89
  8
LAYER_1
 62
   114
 10
-5.931706781186548
 20
54.32810678118655
 30
0.0
  0
VERTEX
  5
8A
  8
LAYER_1
 62
   114
 10
-6.056069612302545
 20
54.1765702330196
 30
0.0
  0
VERTEX
  5
8B
  8
LAYER_1
 62
   114
 10
-6.148479532511287
 20
54.00368343236509
 30
0.0
  0
VERTEX
  5
8C
  8
LAYER_1
 62
   114
 10
-6.20538528040323
 20
53.81609032201613
 30
0.0
  0
VERTEX
  5
8D
  8
LAYER_1
 62
   114
 10
-6.2246
 20
53.621
 30
0.0
  0
VERTEX
  5
8E
  8
LAYER_1
 62
   114
 10
-6.20538528040323
 20
53.42590967798387
 30
0.0
  0
VERTEX
  5
8F
  8
LAYER_1
 62
   114
 10
-6.148479532511287
 20
53.23831656763491
 30
0.0
  0
VERTEX
  5
90
  8
LAYER_1
 62
   114
 10
-6.056069612302545
 20
53.0654297669804
 30
0.0
  0
VERTEX
  5
91
  8
LAYER_1
 62
   114
 10
-5.931706781186548
 20
52.91389321881346
 30
0.0
  0
VERTEX
  5
92
  8
LAYER_1
 62
   114
 10
-5.780170233019602
 20
52.78953038769745
 30
0.0
  0
VERTEX
  5
93
  8
LAYER_1
 62
   114
 10
-5.607283432365089
 20
52.69712046748872
 30
0.0
  0
VERTEX
  5
94
  8
LAYER_1
 62
   114
 10
-5.419690322016128
 20
52.64021471959677
 30
0.0
  0
VERTEX
  5
95
  8
LAYER_1
 62
   114
 10
-5.224599999999999
 20
52.621
 30
0.0
  0
VERTEX
  5
96
  8
LAYER_1
 62
   114
 10
-5.029509677983871
 20
52.64021471959677
 30
0.0
  0
VERTEX
  5
97
  8
LAYER_1
 62
   114
 10
-4.841916567634909
 20
52.69712046748872
 30
0.0
  0
VERTEX
  5
98
  8
LAYER_1
 62
   114
 10
-4.669029766980397
 20
52.78953038769746
 30
0.0
  0
VERTEX
  5
99
  8
LAYER_1
 62
   114
 10
-4.517493218813451
 20
52.91389321881346
 30
0.0
  0
VERTEX
  5
9A
  8
LAYER_1
 62
   114
 10
-4.393130387697454
 20
53.0654297669804
 30
0.0
  0
VERTEX
  5
9B
  8
LAYER_1
 62
   114
 10
-4.300720467488712
 20
53.23831656763491
 30
0.0
  0
VERTEX
  5
9C
  8
LAYER_1
 62
   114
 10
-4.243814719596768
 20
53.42590967798387
 30
0.0
  0
VERTEX
  5
9D
  8
LAYER_1
 62
   114
 10
-4.2246
 20
53.621
 30
0.0
  0
VERTEX
  5
9E
  8
LAYER_1
 62
   114
 10
-4.24381471959677
 20
53.81609032201613
 30
0.0
  0
VERTEX
  5
9F
  8
LAYER_1
 62
   114
 10
-4.300720467488715
 20
54.00368343236509
 30
0.0
  0
VERTEX
  5
A0
  8
LAYER_1
 62
   114
 10
-4.393130387697457
 20
54.1765702330196
 30
0.0
  0
VERTEX
  5
A1
  8
LAYER_1
 62
   114
 10
-4.517493218813454
 20
54.32810678118656
 30
0.0
  0
VERTEX
  5
A2
  8
LAYER_1
 62
   114
 10
-4.6690297669804
 20
54.45246961230255
 30
0.0
  0
VERTEX
  5
A3
  8
LAYER_1
 62
   114
 10
-4.841916567634914
 20
54.54487953251129
 30
0.0
  0
VERTEX
  5
A4
  8
LAYER_1
 62
   114
 10
-5.029509677983875
 20
54.60178528040323
 30
0.0
  0
SEQEND
  5
108
  8
LAYER_1
 62
   114
  0
POLYLINE
  5
72
  8
LAYER_1
 62
   114
 66
     1
 10
0.0
 20
0.0
 30
0.0
 70
     1
  0
VERTEX
  5
A5
  8
LAYER_1
 62
   114
 10
7.0258
 20
54.621
 30
0.0
  0
VERTEX
  5
A6
  8
LAYER_1
 62
   114
 10
6.830709677983872
 20
54.60178528040323
 30
0.0
  0
VERTEX
  5
A7
  8
LAYER_1
 62
   114
 10
6.643116567634911
 20
54.54487953251129
 30
0.0
  0
VERTEX
  5
A8
  8
LAYER_1
 62
   114
 10
6.470229766980398
 20
54.45246961230255
 30
0.0
  0
VERTEX
  5
A9
  8
LAYER_1
 62
   114
 10
6.318693218813452
 20
54.32810678118655
 30
0.0
  0
VERTEX
  5
AA
  8
LAYER_1
 62
   114
 10
6.194330387697455
 20
54.1765702330196
 30
0.0
  0
VERTEX
  5
AB
  8
LAYER_1
 62
   114
 10
6.101920467488713
 20
54.00368343236509
 30
0.0
  0
VERTEX
  5
AC
  8
LAYER_1
 62
   114
 10
6.04501471959677
 20
53.81609032201613
 30
0.0
  0
VERTEX
  5
AD
  8
LAYER_1
 62
   114
 10
6.0258
 20
53.621
 30
0.0
  0
VERTEX
  5
AE
  8
LAYER_1
 62
   114
 10
6.04501471959677
 20
53.42590967798387
 30
0.0
  0
VERTEX
  5
AF
  8
LAYER_1
 62
   114
 10
6.101920467488713
 20
53.23831656763491
 30
0.0
  0
VERTEX
  5
B0
  8
LAYER_1
 62
   114
 10
6.194330387697455
 20
53.0654297669804
 30
0.0
  0
VERTEX
  5
B1
  8
LAYER_1
 62
   114
 10
6.318693218813452
 20
52.91389321881346
 30
0.0
  0
VERTEX
  5
B2
  8
LAYER_1
 62
   114
 10
6.470229766980398
 20
52.78953038769745
 30
0.0
  0
VERTEX
  5
B3
  8
LAYER_1
 62
   114
 10
6.643116567634911
 20
52.69712046748872
 30
0.0
  0
VERTEX
  5
B4
  8
LAYER_1
 62
   114
 10
6.830709677983872
 20
52.64021471959677
 30
0.0
  0
VERTEX
  5
B5
  8
LAYER_1
 62
   114
 10
7.025800000000001
 20
52.621
 30
0.0
  0
VERTEX
  5
B6
  8
LAYER_1
 62
   114
 10
7.220890322016129
 20
52.64021471959677
 30
0.0
  0
VERTEX
  5
B7
  8
LAYER_1
 62
   114
 10
7.408483432365091
 20
52.69712046748872
 30
0.0
  0
VERTEX
  5
B8
  8
LAYER_1
 62
   114
 10
7.581370233019603
 20
52.78953038769746
 30
0.0
  0
VERTEX
  5
B9
  8
LAYER_1
 62
   114
 10
7.732906781186549
 20
52.91389321881346
 30
0.0
  0
VERTEX
  5
BA
  8
LAYER_1
 62
   114
 10
7.857269612302547
 20
53.0654297669804
 30
0.0
  0
VERTEX
  5
BB
  8
LAYER_1
 62
   114
 10
7.949679532511288
 20
53.23831656763491
 30
0.0
  0
VERTEX
  5
BC
  8
LAYER_1
 62
   114
 10
8.00658528040323
 20
53.42590967798387
 30
0.0
  0
VERTEX
  5
BD
  8
LAYER_1
 62
   114
 10
8.0258
 20
53.621
 30
0.0
  0
VERTEX
  5
BE
  8
LAYER_1
 62
   114
 10
8.00658528040323
 20
53.81609032201613
 30
0.0
  0
VERTEX
  5
BF
  8
LAYER_1
 62
   114
 10
7.949679532511286
 20
54.00368343236509
 30
0.0
  0
VERTEX
  5
C0
  8
LAYER_1
 62
   114
 10
7.857269612302543
 20
54.1765702330196
 30
0.0
  0
VERTEX
  5
C1
  8
LAYER_1
 62
   114
 10
7.732906781186546
 20
54.32810678118656
 30
0.0
  0
VERTEX
  5
C2
  8
LAYER_1
 62
   114
 10
7.5813702330196
 20
54.45246961230255
 30
0.0
  0
VERTEX
  5
C3
  8
LAYER_1
 62
   114
 10
7.408483432365086
 20
54.54487953251129
 30
0.0
  0
VERTEX
  5
C4
  8
LAYER_1
 62
   114
 10
7.220890322016125
 20
54.60178528040323
 30
0.0
  0
SEQEND
  5
109
  8
LAYER_1
 62
   114
  0
POLYLINE
  5
73
  8
LAYER_1
 62
   114
 66
     1
 10
0.0
 20
0.0
 30
0.0
 70
     1
  0
VERTEX
  5
C5
  8
LAYER_1
 62
   114
 10
-8.7435
 20
-47.1645
 30
0.0
  0
VERTEX
  5
C6
  8
LAYER_1
 62
   114
 10
-8.938590322016127
 20
-47.18371471959676
 30
0.0
  0
VERTEX
  5
C7
  8
LAYER_1
 62
   114
 10
-9.126183432365089
 20
-47.24062046748871
 30
0.0
  0
VERTEX
  5
C8
  8
LAYER_1
 62
   114
 10
-9.299070233019602
 20
-47.33303038769745
 30
0.0
  0
VERTEX
  5
C9
  8
LAYER_1
 62
   114
 10
-9.450606781186547
 20
-47.45739321881345
 30
0.0
  0
VERTEX
  5
CA
  8
LAYER_1
 62
   114
 10
-9.574969612302544
 20
-47.6089297669804
 30
0.0
  0
VERTEX
  5
CB
  8
LAYER_1
 62
   114
 10
-9.667379532511285
 20
-47.78181656763491
 30
0.0
  0
VERTEX
  5
CC
  8
LAYER_1
 62
   114
 10
-9.72428528040323
 20
-47.96940967798387
 30
0.0
  0
VERTEX
  5
CD
  8
LAYER_1
 62
   114
 10
-9.7435
 20
-48.1645
 30
0.0
  0
VERTEX
  5
CE
  8
LAYER_1
 62
   114
 10
-9.72428528040323
 20
-48.35959032201612
 30
0.0
  0
VERTEX
  5
CF
  8
LAYER_1
 62
   114
 10
-9.667379532511285
 20
-48.54718343236509
 30
0.0
  0
VERTEX
  5
D0
  8
LAYER_1
 62
   114
 10
-9.574969612302544
 20
-48.7200702330196
 30
0.0
  0
VERTEX
  5
D1
  8
LAYER_1
 62
   114
 10
-9.450606781186547
 20
-48.87160678118654
 30
0.0
  0
VERTEX
  5
D2
  8
LAYER_1
 62
   114
 10
-9.299070233019602
 20
-48.99596961230255
 30
0.0
  0
VERTEX
  5
D3
  8
LAYER_1
 62
   114
 10
-9.126183432365089
 20
-49.08837953251128
 30
0.0
  0
VERTEX
  5
D4
  8
LAYER_1
 62
   114
 10
-8.938590322016127
 20
-49.14528528040323
 30
0.0
  0
VERTEX
  5
D5
  8
LAYER_1
 62
   114
 10
-8.7435
 20
-49.1645
 30
0.0
  0
VERTEX
  5
D6
  8
LAYER_1
 62
   114
 10
-8.54840967798387
 20
-49.14528528040323
 30
0.0
  0
VERTEX
  5
D7
  8
LAYER_1
 62
   114
 10
-8.360816567634908
 20
-49.08837953251128
 30
0.0
  0
VERTEX
  5
D8
  8
LAYER_1
 62
   114
 10
-8.187929766980396
 20
-48.99596961230254
 30
0.0
  0
VERTEX
  5
D9
  8
LAYER_1
 62
   114
 10
-8.036393218813451
 20
-48.87160678118654
 30
0.0
  0
VERTEX
  5
DA
  8
LAYER_1
 62
   114
 10
-7.912030387697452
 20
-48.7200702330196
 30
0.0
  0
VERTEX
  5
DB
  8
LAYER_1
 62
   114
 10
-7.819620467488711
 20
-48.54718343236509
 30
0.0
  0
VERTEX
  5
DC
  8
LAYER_1
 62
   114
 10
-7.762714719596769
 20
-48.35959032201612
 30
0.0
  0
VERTEX
  5
DD
  8
LAYER_1
 62
   114
 10
-7.743499999999999
 20
-48.1645
 30
0.0
  0
VERTEX
  5
DE
  8
LAYER_1
 62
   114
 10
-7.76271471959677
 20
-47.96940967798387
 30
0.0
  0
VERTEX
  5
DF
  8
LAYER_1
 62
   114
 10
-7.819620467488713
 20
-47.78181656763491
 30
0.0
  0
VERTEX
  5
E0
  8
LAYER_1
 62
   114
 10
-7.912030387697456
 20
-47.6089297669804
 30
0.0
  0
VERTEX
  5
E1
  8
LAYER_1
 62
   114
 10
-8.036393218813455
 20
-47.45739321881344
 30
0.0
  0
VERTEX
  5
E2
  8
LAYER_1
 62
   114
 10
-8.1879297669804
 20
-47.33303038769745
 30
0.0
  0
VERTEX
  5
E3
  8
LAYER_1
 62
   114
 10
-8.360816567634913
 20
-47.24062046748871
 30
0.0
  0
VERTEX
  5
E4
  8
LAYER_1
 62
   114
 10
-8.548409677983875
 20
-47.18371471959676
 30
0.0
  0
SEQEND
  5
10A
  8
LAYER_1
 62
   114
  0
POLYLINE
  5
74
  8
LAYER_1
 62
   114
 66
     1
 10
0.0
 20
0.0
 30
0.0
 70
     1
  0
VERTEX
  5
E5
  8
LAYER_1
 62
   114
 10
9.857
 20
-47.1645
 30
0.0
  0
VERTEX
  5
E6
  8
LAYER_1
 62
   114
 10
9.661909677983871
 20
-47.18371471959676
 30
0.0
  0
VERTEX
  5
E7
  8
LAYER_1
 62
   114
 10
9.47431656763491
 20
-47.24062046748871
 30
0.0
  0
VERTEX
  5
E8
  8
LAYER_1
 62
   114
 10
9.301429766980398
 20
-47.33303038769745
 30
0.0
  0
VERTEX
  5
E9
  8
LAYER_1
 62
   114
 10
9.149893218813451
 20
-47.45739321881345
 30
0.0
  0
VERTEX
  5
EA
  8
LAYER_1
 62
   114
 10
9.025530387697454
 20
-47.6089297669804
 30
0.0
  0
VERTEX
  5
EB
  8
LAYER_1
 62
   114
 10
8.933120467488713
 20
-47.78181656763491
 30
0.0
  0
VERTEX
  5
EC
  8
LAYER_1
 62
   114
 10
8.876214719596769
 20
-47.96940967798387
 30
0.0
  0
VERTEX
  5
ED
  8
LAYER_1
 62
   114
 10
8.857
 20
-48.1645
 30
0.0
  0
VERTEX
  5
EE
  8
LAYER_1
 62
   114
 10
8.876214719596769
 20
-48.35959032201612
 30
0.0
  0
VERTEX
  5
EF
  8
LAYER_1
 62
   114
 10
8.933120467488713
 20
-48.54718343236509
 30
0.0
  0
VERTEX
  5
F0
  8
LAYER_1
 62
   114
 10
9.025530387697454
 20
-48.7200702330196
 30
0.0
  0
VERTEX
  5
F1
  8
LAYER_1
 62
   114
 10
9.149893218813451
 20
-48.87160678118654
 30
0.0
  0
VERTEX
  5
F2
  8
LAYER_1
 62
   114
 10
9.301429766980398
 20
-48.99596961230255
 30
0.0
  0
VERTEX
  5
F3
  8
LAYER_1
 62
   114
 10
9.47431656763491
 20
-49.08837953251128
 30
0.0
  0
VERTEX
  5
F4
  8
LAYER_1
 62
   114
 10
9.661909677983871
 20
-49.14528528040323
 30
0.0
  0
VERTEX
  5
F5
  8
LAYER_1
 62
   114
 10
9.857
 20
-49.1645
 30
0.0
  0
VERTEX
  5
F6
  8
LAYER_1
 62
   114
 10
10.05209032201613
 20
-49.14528528040323
 30
0.0
  0
VERTEX
  5
F7
  8
LAYER_1
 62
   114
 10
10.23968343236509
 20
-49.08837953251128
 30
0.0
  0
VERTEX
  5
F8
  8
LAYER_1
 62
   114
 10
10.4125702330196
 20
-48.99596961230254
 30
0.0
  0
VERTEX
  5
F9
  8
LAYER_1
 62
   114
 10
10.56410678118655
 20
-48.87160678118654
 30
0.0
  0
VERTEX
  5
FA
  8
LAYER_1
 62
   114
 10
10.68846961230255
 20
-48.7200702330196
 30
0.0
  0
VERTEX
  5
FB
  8
LAYER_1
 62
   114
 10
10.78087953251129
 20
-48.54718343236509
 30
0.0
  0
VERTEX
  5
FC
  8
LAYER_1
 62
   114
 10
10.83778528040323
 20
-48.35959032201612
 30
0.0
  0
VERTEX
  5
FD
  8
LAYER_1
 62
   114
 10
10.857
 20
-48.1645
 30
0.0
  0
VERTEX
  5
FE
  8
LAYER_1
 62
   114
 10
10.83778528040323
 20
-47.96940967798387
 30
0.0
  0
VERTEX
  5
FF
  8
LAYER_1
 62
   114
 10
10.78087953251129
 20
-47.78181656763491
 30
0.0
  0
VERTEX
  5
100
  8
LAYER_1
 62
   114
 10
10.68846961230254
 20
-47.6089297669804
 30
0.0
  0
VERTEX
  5
101
  8
LAYER_1
 62
   114
 10
10.56410678118654
 20
-47.45739321881344
 30
0.0
  0
VERTEX
  5
102
  8
LAYER_1
 62
   114
 10
10.4125702330196
 20
-47.33303038769745
 30
0.0
  0
VERTEX
  5
103
  8
LAYER_1
 62
   114
 10
10.23968343236509
 20
-47.24062046748871
 30
0.0
  0
VERTEX
  5
104
  8
LAYER_1
 62
   114
 10
10.05209032201612
 20
-47.18371471959676
 30
0.0
  0
SEQEND
  5
10B
  8
LAYER_1
 62
   114
  0
ENDSEC
  0
EOF
