  0
SECTION
  2
HEADER
  9
$ACADVER
  1
AC1009
  9
$FILLMODE
 70
1
  9
$EXTMIN
 10
-8.5075
 20
-3.8100
 30
0.0000
  9
$EXTMAX
 10
113.3475
 20
158.5022
 30
0.0000
  0
ENDSEC
  0
SECTION
  2
TABLES
  0
TABLE
  2
LTYPE
 70
1
  0
LTYPE
  2
CONTINUOUS
 70
64
  3
Solid line
 72
65
 73
0
 40
0
  0
ENDTAB
  0
TABLE
  2
LAYER
 70
255
  0
LAYER
  2
17
 70
64
 62
82
  6
CONTINUOUS
  0
LAYER
  2
18
 70
64
 62
82
  6
CONTINUOUS
  0
LAYER
  2
20
 70
64
 62
7
  6
CONTINUOUS
  0
LAYER
  2
44
 70
64
 62
253
  6
CONTINUOUS
  0
LAYER
  2
45
 70
64
 62
253
  6
CONTINUOUS
  0
LAYER
  2
46
 70
64
 62
140
  6
CONTINUOUS
  0
ENDTAB
  0
ENDSEC
  0
SECTION
  2
BLOCKS
  0
BLOCK
  8
0
  2
RECT
 70
64
 10
0.0000
 20
0.0000
 30
0.0000
  3
RECT
  0
SOLID
  8
0
 10
-0.5000
 20
-0.5000
 30
0.0000
 11
0.5000
 21
-0.5000
 31
0.0000
 12
-0.5000
 22
0.5000
 32
0.0000
 13
0.5000
 23
0.5000
 33
0.0000
  0
ENDBLK
  8
0
  0
BLOCK
  8
0
  2
PIE
 70
64
 10
0.0000
 20
0.0000
 30
0.0000
  3
PIE
  0
POLYLINE
  8
0
 66
1
 10
0.0000
 20
0.0000
 30
0.0000
 40
0.5000
 41
0.5000
 70
0
  0
VERTEX
  8
0
 10
0.0000
 20
-0.2500
 30
0.0000
 42
1.0000
  0
VERTEX
  8
0
 10
0.0000
 20
0.2500
 30
0.0000
 42
1.0000
  0
VERTEX
  8
0
 10
0.0000
 20
-0.2500
 30
0.0000
  0
SEQEND
  8
0
  0
ENDBLK
  8
0
  0
BLOCK
  8
0
  2
OCTAGONP
 70
64
 10
0.0000
 20
0.0000
 30
0.0000
  3
OCTAGONP
  0
POLYLINE
  8
0
 66
1
 10
0.0000
 20
0.0000
 30
0.0000
 40
0.5000
 41
0.5000
 70
0
  0
VERTEX
  8
0
 10
-0.2500
 20
-0.1036
 30
0.0000
  0
VERTEX
  8
0
 10
-0.2500
 20
0.1036
 30
0.0000
  0
VERTEX
  8
0
 10
-0.1036
 20
0.2500
 30
0.0000
  0
VERTEX
  8
0
 10
0.1036
 20
0.2500
 30
0.0000
  0
VERTEX
  8
0
 10
0.2500
 20
0.1036
 30
0.0000
  0
VERTEX
  8
0
 10
0.2500
 20
-0.1036
 30
0.0000
  0
VERTEX
  8
0
 10
0.1036
 20
-0.2500
 30
0.0000
  0
VERTEX
  8
0
 10
-0.1036
 20
-0.2500
 30
0.0000
  0
VERTEX
  8
0
 10
-0.2500
 20
-0.1036
 30
0.0000
  0
VERTEX
  8
0
 10
-0.2500
 20
0.1036
 30
0.0000
  0
SEQEND
  8
0
  0
ENDBLK
  8
0
  0
BLOCK
  8
0
  2
SQUAREP
 70
64
 10
0.0000
 20
0.0000
 30
0.0000
  3
SQUAREP
  0
SOLID
  8
0
 10
-0.5000
 20
-0.5000
 30
0.0000
 11
0.5000
 21
-0.5000
 31
0.0000
 12
-0.5000
 22
0.5000
 32
0.0000
 13
0.5000
 23
0.5000
 33
0.0000
  0
ENDBLK
  8
0
  0
BLOCK
  8
0
  2
ROUNDP
 70
64
 10
0.0000
 20
0.0000
 30
0.0000
  3
ROUNDP
  0
POLYLINE
  8
0
 66
1
 10
0.0000
 20
0.0000
 30
0.0000
 40
0.5000
 41
0.5000
 70
0
  0
VERTEX
  8
0
 10
0.0000
 20
-0.2500
 30
0.0000
 42
1.0000
  0
VERTEX
  8
0
 10
0.0000
 20
0.2500
 30
0.0000
 42
1.0000
  0
VERTEX
  8
0
 10
0.0000
 20
-0.2500
 30
0.0000
  0
SEQEND
  8
0
  0
ENDBLK
  8
0
  0
BLOCK
  8
0
  2
ANNULUSP
 70
64
 10
0.0000
 20
0.0000
 30
0.0000
  3
ANNULUSP
  0
POLYLINE
  8
0
 66
1
 10
0.0000
 20
0.0000
 30
0.0000
 40
0.5000
 41
0.5000
 70
0
  0
VERTEX
  8
0
 10
0.0000
 20
-0.2500
 30
0.0000
 42
1.0000
  0
VERTEX
  8
0
 10
0.0000
 20
0.2500
 30
0.0000
 42
1.0000
  0
VERTEX
  8
0
 10
0.0000
 20
-0.2500
 30
0.0000
  0
SEQEND
  8
0
  0
ENDBLK
  8
0
  0
BLOCK
  8
0
  2
THERMALP
 70
64
 10
0.0000
 20
0.0000
 30
0.0000
  3
THERMALP
  0
POLYLINE
  8
0
 66
1
 10
0.0000
 20
0.0000
 30
0.0000
 40
0.1000
 41
0.1000
 70
0
  0
VERTEX
  8
0
 10
-0.2379
 20
0.4500
 30
0.0000
  0
VERTEX
  8
0
 10
0.2379
 20
0.4500
 30
0.0000
  0
SEQEND
  8
0
  0
POLYLINE
  8
0
 66
1
 10
0.0000
 20
0.0000
 30
0.0000
 40
0.0500
 41
0.0500
 70
0
  0
VERTEX
  8
0
 10
0.2379
 20
0.4250
 30
0.0000
 42
1.0000
  0
VERTEX
  8
0
 10
0.2379
 20
0.4750
 30
0.0000
  0
SEQEND
  8
0
  0
POLYLINE
  8
0
 66
1
 10
0.0000
 20
0.0000
 30
0.0000
 40
0.0500
 41
0.0500
 70
0
  0
VERTEX
  8
0
 10
-0.2379
 20
0.4750
 30
0.0000
 42
1.0000
  0
VERTEX
  8
0
 10
-0.2379
 20
0.4250
 30
0.0000
  0
SEQEND
  8
0
  0
POLYLINE
  8
0
 66
1
 10
0.0000
 20
0.0000
 30
0.0000
 40
0.1000
 41
0.1000
 70
0
  0
VERTEX
  8
0
 10
0.4500
 20
0.2379
 30
0.0000
  0
VERTEX
  8
0
 10
0.4500
 20
-0.2379
 30
0.0000
  0
SEQEND
  8
0
  0
POLYLINE
  8
0
 66
1
 10
0.0000
 20
0.0000
 30
0.0000
 40
0.0500
 41
0.0500
 70
0
  0
VERTEX
  8
0
 10
0.4250
 20
-0.2379
 30
0.0000
 42
1.0000
  0
VERTEX
  8
0
 10
0.4750
 20
-0.2379
 30
0.0000
  0
SEQEND
  8
0
  0
POLYLINE
  8
0
 66
1
 10
0.0000
 20
0.0000
 30
0.0000
 40
0.0500
 41
0.0500
 70
0
  0
VERTEX
  8
0
 10
0.4750
 20
0.2379
 30
0.0000
 42
1.0000
  0
VERTEX
  8
0
 10
0.4250
 20
0.2379
 30
0.0000
  0
SEQEND
  8
0
  0
POLYLINE
  8
0
 66
1
 10
0.0000
 20
0.0000
 30
0.0000
 40
0.1000
 41
0.1000
 70
0
  0
VERTEX
  8
0
 10
0.2379
 20
-0.4500
 30
0.0000
  0
VERTEX
  8
0
 10
-0.2379
 20
-0.4500
 30
0.0000
  0
SEQEND
  8
0
  0
POLYLINE
  8
0
 66
1
 10
0.0000
 20
0.0000
 30
0.0000
 40
0.0500
 41
0.0500
 70
0
  0
VERTEX
  8
0
 10
-0.2379
 20
-0.4250
 30
0.0000
 42
1.0000
  0
VERTEX
  8
0
 10
-0.2379
 20
-0.4750
 30
0.0000
  0
SEQEND
  8
0
  0
POLYLINE
  8
0
 66
1
 10
0.0000
 20
0.0000
 30
0.0000
 40
0.0500
 41
0.0500
 70
0
  0
VERTEX
  8
0
 10
0.2379
 20
-0.4750
 30
0.0000
 42
1.0000
  0
VERTEX
  8
0
 10
0.2379
 20
-0.4250
 30
0.0000
  0
SEQEND
  8
0
  0
POLYLINE
  8
0
 66
1
 10
0.0000
 20
0.0000
 30
0.0000
 40
0.1000
 41
0.1000
 70
0
  0
VERTEX
  8
0
 10
-0.4500
 20
-0.2379
 30
0.0000
  0
VERTEX
  8
0
 10
-0.4500
 20
0.2379
 30
0.0000
  0
SEQEND
  8
0
  0
POLYLINE
  8
0
 66
1
 10
0.0000
 20
0.0000
 30
0.0000
 40
0.0500
 41
0.0500
 70
0
  0
VERTEX
  8
0
 10
-0.4250
 20
0.2379
 30
0.0000
 42
1.0000
  0
VERTEX
  8
0
 10
-0.4750
 20
0.2379
 30
0.0000
  0
SEQEND
  8
0
  0
POLYLINE
  8
0
 66
1
 10
0.0000
 20
0.0000
 30
0.0000
 40
0.0500
 41
0.0500
 70
0
  0
VERTEX
  8
0
 10
-0.4750
 20
-0.2379
 30
0.0000
 42
1.0000
  0
VERTEX
  8
0
 10
-0.4250
 20
-0.2379
 30
0.0000
  0
SEQEND
  8
0
  0
ENDBLK
  8
0
  0
BLOCK
  8
0
  2
OCTAGONV
 70
64
 10
0.0000
 20
0.0000
 30
0.0000
  3
OCTAGONV
  0
POLYLINE
  8
0
 66
1
 10
0.0000
 20
0.0000
 30
0.0000
 40
0.5000
 41
0.5000
 70
0
  0
VERTEX
  8
0
 10
-0.2500
 20
-0.1036
 30
0.0000
  0
VERTEX
  8
0
 10
-0.2500
 20
0.1036
 30
0.0000
  0
VERTEX
  8
0
 10
-0.1036
 20
0.2500
 30
0.0000
  0
VERTEX
  8
0
 10
0.1036
 20
0.2500
 30
0.0000
  0
VERTEX
  8
0
 10
0.2500
 20
0.1036
 30
0.0000
  0
VERTEX
  8
0
 10
0.2500
 20
-0.1036
 30
0.0000
  0
VERTEX
  8
0
 10
0.1036
 20
-0.2500
 30
0.0000
  0
VERTEX
  8
0
 10
-0.1036
 20
-0.2500
 30
0.0000
  0
VERTEX
  8
0
 10
-0.2500
 20
-0.1036
 30
0.0000
  0
VERTEX
  8
0
 10
-0.2500
 20
0.1036
 30
0.0000
  0
SEQEND
  8
0
  0
ENDBLK
  8
0
  0
BLOCK
  8
0
  2
SQUAREV
 70
64
 10
0.0000
 20
0.0000
 30
0.0000
  3
SQUAREV
  0
SOLID
  8
0
 10
-0.5000
 20
-0.5000
 30
0.0000
 11
0.5000
 21
-0.5000
 31
0.0000
 12
-0.5000
 22
0.5000
 32
0.0000
 13
0.5000
 23
0.5000
 33
0.0000
  0
ENDBLK
  8
0
  0
BLOCK
  8
0
  2
ROUNDV
 70
64
 10
0.0000
 20
0.0000
 30
0.0000
  3
ROUNDV
  0
POLYLINE
  8
0
 66
1
 10
0.0000
 20
0.0000
 30
0.0000
 40
0.5000
 41
0.5000
 70
0
  0
VERTEX
  8
0
 10
0.0000
 20
-0.2500
 30
0.0000
 42
1.0000
  0
VERTEX
  8
0
 10
0.0000
 20
0.2500
 30
0.0000
 42
1.0000
  0
VERTEX
  8
0
 10
0.0000
 20
-0.2500
 30
0.0000
  0
SEQEND
  8
0
  0
ENDBLK
  8
0
  0
BLOCK
  8
0
  2
ANNULUSV
 70
64
 10
0.0000
 20
0.0000
 30
0.0000
  3
ANNULUSV
  0
POLYLINE
  8
0
 66
1
 10
0.0000
 20
0.0000
 30
0.0000
 40
0.5000
 41
0.5000
 70
0
  0
VERTEX
  8
0
 10
0.0000
 20
-0.2500
 30
0.0000
 42
1.0000
  0
VERTEX
  8
0
 10
0.0000
 20
0.2500
 30
0.0000
 42
1.0000
  0
VERTEX
  8
0
 10
0.0000
 20
-0.2500
 30
0.0000
  0
SEQEND
  8
0
  0
ENDBLK
  8
0
  0
BLOCK
  8
0
  2
THERMALV
 70
64
 10
0.0000
 20
0.0000
 30
0.0000
  3
THERMALV
  0
POLYLINE
  8
0
 66
1
 10
0.0000
 20
0.0000
 30
0.0000
 40
0.1000
 41
0.1000
 70
0
  0
VERTEX
  8
0
 10
-0.2379
 20
0.4500
 30
0.0000
  0
VERTEX
  8
0
 10
0.2379
 20
0.4500
 30
0.0000
  0
SEQEND
  8
0
  0
POLYLINE
  8
0
 66
1
 10
0.0000
 20
0.0000
 30
0.0000
 40
0.0500
 41
0.0500
 70
0
  0
VERTEX
  8
0
 10
0.2379
 20
0.4250
 30
0.0000
 42
1.0000
  0
VERTEX
  8
0
 10
0.2379
 20
0.4750
 30
0.0000
  0
SEQEND
  8
0
  0
POLYLINE
  8
0
 66
1
 10
0.0000
 20
0.0000
 30
0.0000
 40
0.0500
 41
0.0500
 70
0
  0
VERTEX
  8
0
 10
-0.2379
 20
0.4750
 30
0.0000
 42
1.0000
  0
VERTEX
  8
0
 10
-0.2379
 20
0.4250
 30
0.0000
  0
SEQEND
  8
0
  0
POLYLINE
  8
0
 66
1
 10
0.0000
 20
0.0000
 30
0.0000
 40
0.1000
 41
0.1000
 70
0
  0
VERTEX
  8
0
 10
0.4500
 20
0.2379
 30
0.0000
  0
VERTEX
  8
0
 10
0.4500
 20
-0.2379
 30
0.0000
  0
SEQEND
  8
0
  0
POLYLINE
  8
0
 66
1
 10
0.0000
 20
0.0000
 30
0.0000
 40
0.0500
 41
0.0500
 70
0
  0
VERTEX
  8
0
 10
0.4250
 20
-0.2379
 30
0.0000
 42
1.0000
  0
VERTEX
  8
0
 10
0.4750
 20
-0.2379
 30
0.0000
  0
SEQEND
  8
0
  0
POLYLINE
  8
0
 66
1
 10
0.0000
 20
0.0000
 30
0.0000
 40
0.0500
 41
0.0500
 70
0
  0
VERTEX
  8
0
 10
0.4750
 20
0.2379
 30
0.0000
 42
1.0000
  0
VERTEX
  8
0
 10
0.4250
 20
0.2379
 30
0.0000
  0
SEQEND
  8
0
  0
POLYLINE
  8
0
 66
1
 10
0.0000
 20
0.0000
 30
0.0000
 40
0.1000
 41
0.1000
 70
0
  0
VERTEX
  8
0
 10
0.2379
 20
-0.4500
 30
0.0000
  0
VERTEX
  8
0
 10
-0.2379
 20
-0.4500
 30
0.0000
  0
SEQEND
  8
0
  0
POLYLINE
  8
0
 66
1
 10
0.0000
 20
0.0000
 30
0.0000
 40
0.0500
 41
0.0500
 70
0
  0
VERTEX
  8
0
 10
-0.2379
 20
-0.4250
 30
0.0000
 42
1.0000
  0
VERTEX
  8
0
 10
-0.2379
 20
-0.4750
 30
0.0000
  0
SEQEND
  8
0
  0
POLYLINE
  8
0
 66
1
 10
0.0000
 20
0.0000
 30
0.0000
 40
0.0500
 41
0.0500
 70
0
  0
VERTEX
  8
0
 10
0.2379
 20
-0.4750
 30
0.0000
 42
1.0000
  0
VERTEX
  8
0
 10
0.2379
 20
-0.4250
 30
0.0000
  0
SEQEND
  8
0
  0
POLYLINE
  8
0
 66
1
 10
0.0000
 20
0.0000
 30
0.0000
 40
0.1000
 41
0.1000
 70
0
  0
VERTEX
  8
0
 10
-0.4500
 20
-0.2379
 30
0.0000
  0
VERTEX
  8
0
 10
-0.4500
 20
0.2379
 30
0.0000
  0
SEQEND
  8
0
  0
POLYLINE
  8
0
 66
1
 10
0.0000
 20
0.0000
 30
0.0000
 40
0.0500
 41
0.0500
 70
0
  0
VERTEX
  8
0
 10
-0.4250
 20
0.2379
 30
0.0000
 42
1.0000
  0
VERTEX
  8
0
 10
-0.4750
 20
0.2379
 30
0.0000
  0
SEQEND
  8
0
  0
POLYLINE
  8
0
 66
1
 10
0.0000
 20
0.0000
 30
0.0000
 40
0.0500
 41
0.0500
 70
0
  0
VERTEX
  8
0
 10
-0.4750
 20
-0.2379
 30
0.0000
 42
1.0000
  0
VERTEX
  8
0
 10
-0.4250
 20
-0.2379
 30
0.0000
  0
SEQEND
  8
0
  0
ENDBLK
  8
0
  0
BLOCK
  8
0
  2
LONGP100
 70
64
 10
0.0000
 20
0.0000
 30
0.0000
  3
LONGP100
  0
POLYLINE
  8
0
 66
1
 10
0.0000
 20
0.0000
 30
0.0000
 40
1.0000
 41
1.0000
 70
0
  0
VERTEX
  8
0
 10
-0.5000
 20
0.0000
 30
0.0000
  0
VERTEX
  8
0
 10
0.5000
 20
0.0000
 30
0.0000
  0
SEQEND
  8
0
  0
POLYLINE
  8
0
 66
1
 10
0.0000
 20
0.0000
 30
0.0000
 40
0.5000
 41
0.5000
 70
0
  0
VERTEX
  8
0
 10
0.5000
 20
-0.2500
 30
0.0000
 42
1.0000
  0
VERTEX
  8
0
 10
0.5000
 20
0.2500
 30
0.0000
  0
SEQEND
  8
0
  0
POLYLINE
  8
0
 66
1
 10
0.0000
 20
0.0000
 30
0.0000
 40
0.5000
 41
0.5000
 70
0
  0
VERTEX
  8
0
 10
-0.5000
 20
0.2500
 30
0.0000
 42
1.0000
  0
VERTEX
  8
0
 10
-0.5000
 20
-0.2500
 30
0.0000
  0
SEQEND
  8
0
  0
ENDBLK
  8
0
  0
ENDSEC
  0
SECTION
  2
ENTITIES
  0
LINE
  8
20
 10
100.9525
 20
2.3375
 30
0.0000
 11
100.9525
 21
123.4125
 31
0.0000
  0
LINE
  8
20
 10
100.9525
 20
123.4125
 30
0.0000
 11
98.9525
 21
125.4125
 31
0.0000
  0
LINE
  8
20
 10
98.9525
 20
125.4125
 30
0.0000
 11
2.3175
 21
125.4125
 31
0.0000
  0
LINE
  8
20
 10
2.3175
 20
125.4125
 30
0.0000
 11
0.3175
 21
123.4125
 31
0.0000
  0
LINE
  8
20
 10
0.3175
 20
123.4125
 30
0.0000
 11
0.3175
 21
2.3375
 31
0.0000
  0
LINE
  8
20
 10
0.3175
 20
2.3375
 30
0.0000
 11
2.3175
 21
0.3375
 31
0.0000
  0
LINE
  8
20
 10
2.3175
 20
0.3375
 30
0.0000
 11
98.9525
 21
0.3375
 31
0.0000
  0
LINE
  8
20
 10
98.9525
 20
0.3375
 30
0.0000
 11
100.9525
 21
2.3375
 31
0.0000
  0
CIRCLE
  8
20
 10
97.1550
 20
85.0900
 30
0.0000
 40
1.6000
  0
CIRCLE
  8
20
 10
97.1550
 20
24.1300
 30
0.0000
 40
1.6000
  0
CIRCLE
  8
20
 10
14.2875
 20
112.3950
 30
0.0000
 40
1.6000
  0
CIRCLE
  8
20
 10
32.0675
 20
14.9225
 30
0.0000
 40
1.6000
  0
INSERT
  8
17
  2
ROUNDP
 10
82.3595
 20
101.6000
 30
0.0000
 41
1.6002
 42
1.6002
 43
1.0000
 50
0.0000
  0
INSERT
  8
17
  2
ROUNDP
 10
82.3595
 20
101.6000
 30
0.0000
 41
1.6002
 42
1.6002
 43
1.0000
 50
0.0000
  0
CIRCLE
  8
44
 10
82.3595
 20
101.6000
 30
0.0000
 40
0.4500
  0
INSERT
  8
17
  2
OCTAGONP
 10
85.9155
 20
101.6000
 30
0.0000
 41
1.6002
 42
1.6002
 43
1.0000
 50
0.0000
  0
INSERT
  8
17
  2
OCTAGONP
 10
85.9155
 20
101.6000
 30
0.0000
 41
1.6002
 42
1.6002
 43
1.0000
 50
0.0000
  0
CIRCLE
  8
44
 10
85.9155
 20
101.6000
 30
0.0000
 40
0.4500
  0
INSERT
  8
17
  2
ROUNDP
 10
82.3595
 20
81.2800
 30
0.0000
 41
1.6002
 42
1.6002
 43
1.0000
 50
0.0000
  0
INSERT
  8
17
  2
ROUNDP
 10
82.3595
 20
81.2800
 30
0.0000
 41
1.6002
 42
1.6002
 43
1.0000
 50
0.0000
  0
CIRCLE
  8
44
 10
82.3595
 20
81.2800
 30
0.0000
 40
0.4500
  0
INSERT
  8
17
  2
OCTAGONP
 10
85.9155
 20
81.2800
 30
0.0000
 41
1.6002
 42
1.6002
 43
1.0000
 50
0.0000
  0
INSERT
  8
17
  2
OCTAGONP
 10
85.9155
 20
81.2800
 30
0.0000
 41
1.6002
 42
1.6002
 43
1.0000
 50
0.0000
  0
CIRCLE
  8
44
 10
85.9155
 20
81.2800
 30
0.0000
 40
0.4500
  0
INSERT
  8
17
  2
ROUNDP
 10
82.3595
 20
60.9600
 30
0.0000
 41
1.6002
 42
1.6002
 43
1.0000
 50
0.0000
  0
INSERT
  8
17
  2
ROUNDP
 10
82.3595
 20
60.9600
 30
0.0000
 41
1.6002
 42
1.6002
 43
1.0000
 50
0.0000
  0
CIRCLE
  8
44
 10
82.3595
 20
60.9600
 30
0.0000
 40
0.4500
  0
INSERT
  8
17
  2
OCTAGONP
 10
85.9155
 20
60.9600
 30
0.0000
 41
1.6002
 42
1.6002
 43
1.0000
 50
0.0000
  0
INSERT
  8
17
  2
OCTAGONP
 10
85.9155
 20
60.9600
 30
0.0000
 41
1.6002
 42
1.6002
 43
1.0000
 50
0.0000
  0
CIRCLE
  8
44
 10
85.9155
 20
60.9600
 30
0.0000
 40
0.4500
  0
INSERT
  8
17
  2
ROUNDP
 10
82.3595
 20
40.6400
 30
0.0000
 41
1.6002
 42
1.6002
 43
1.0000
 50
0.0000
  0
INSERT
  8
17
  2
ROUNDP
 10
82.3595
 20
40.6400
 30
0.0000
 41
1.6002
 42
1.6002
 43
1.0000
 50
0.0000
  0
CIRCLE
  8
44
 10
82.3595
 20
40.6400
 30
0.0000
 40
0.4500
  0
INSERT
  8
17
  2
OCTAGONP
 10
85.9155
 20
40.6400
 30
0.0000
 41
1.6002
 42
1.6002
 43
1.0000
 50
0.0000
  0
INSERT
  8
17
  2
OCTAGONP
 10
85.9155
 20
40.6400
 30
0.0000
 41
1.6002
 42
1.6002
 43
1.0000
 50
0.0000
  0
CIRCLE
  8
44
 10
85.9155
 20
40.6400
 30
0.0000
 40
0.4500
  0
INSERT
  8
17
  2
ROUNDP
 10
82.3595
 20
20.3200
 30
0.0000
 41
1.6002
 42
1.6002
 43
1.0000
 50
0.0000
  0
INSERT
  8
17
  2
ROUNDP
 10
82.3595
 20
20.3200
 30
0.0000
 41
1.6002
 42
1.6002
 43
1.0000
 50
0.0000
  0
CIRCLE
  8
44
 10
82.3595
 20
20.3200
 30
0.0000
 40
0.4500
  0
INSERT
  8
17
  2
OCTAGONP
 10
85.9155
 20
20.3200
 30
0.0000
 41
1.6002
 42
1.6002
 43
1.0000
 50
0.0000
  0
INSERT
  8
17
  2
OCTAGONP
 10
85.9155
 20
20.3200
 30
0.0000
 41
1.6002
 42
1.6002
 43
1.0000
 50
0.0000
  0
CIRCLE
  8
44
 10
85.9155
 20
20.3200
 30
0.0000
 40
0.4500
  0
INSERT
  8
17
  2
ROUNDP
 10
78.1050
 20
104.1400
 30
0.0000
 41
1.7780
 42
1.7780
 43
1.0000
 50
270.0000
  0
INSERT
  8
17
  2
ROUNDP
 10
78.1050
 20
104.1400
 30
0.0000
 41
1.7780
 42
1.7780
 43
1.0000
 50
270.0000
  0
CIRCLE
  8
44
 10
78.1050
 20
104.1400
 30
0.0000
 40
0.4500
  0
INSERT
  8
17
  2
ROUNDP
 10
78.1050
 20
101.6000
 30
0.0000
 41
1.7780
 42
1.7780
 43
1.0000
 50
270.0000
  0
INSERT
  8
17
  2
ROUNDP
 10
78.1050
 20
101.6000
 30
0.0000
 41
1.7780
 42
1.7780
 43
1.0000
 50
270.0000
  0
CIRCLE
  8
44
 10
78.1050
 20
101.6000
 30
0.0000
 40
0.4500
  0
INSERT
  8
17
  2
ROUNDP
 10
78.1050
 20
99.0600
 30
0.0000
 41
1.7780
 42
1.7780
 43
1.0000
 50
270.0000
  0
INSERT
  8
17
  2
ROUNDP
 10
78.1050
 20
99.0600
 30
0.0000
 41
1.7780
 42
1.7780
 43
1.0000
 50
270.0000
  0
CIRCLE
  8
44
 10
78.1050
 20
99.0600
 30
0.0000
 40
0.4500
  0
INSERT
  8
17
  2
ROUNDP
 10
78.1050
 20
96.5200
 30
0.0000
 41
1.7780
 42
1.7780
 43
1.0000
 50
270.0000
  0
INSERT
  8
17
  2
ROUNDP
 10
78.1050
 20
96.5200
 30
0.0000
 41
1.7780
 42
1.7780
 43
1.0000
 50
270.0000
  0
CIRCLE
  8
44
 10
78.1050
 20
96.5200
 30
0.0000
 40
0.4500
  0
INSERT
  8
17
  2
ROUNDP
 10
78.1050
 20
93.9800
 30
0.0000
 41
1.7780
 42
1.7780
 43
1.0000
 50
270.0000
  0
INSERT
  8
17
  2
ROUNDP
 10
78.1050
 20
93.9800
 30
0.0000
 41
1.7780
 42
1.7780
 43
1.0000
 50
270.0000
  0
CIRCLE
  8
44
 10
78.1050
 20
93.9800
 30
0.0000
 40
0.4500
  0
INSERT
  8
17
  2
ROUNDP
 10
78.1050
 20
91.4400
 30
0.0000
 41
1.7780
 42
1.7780
 43
1.0000
 50
270.0000
  0
INSERT
  8
17
  2
ROUNDP
 10
78.1050
 20
91.4400
 30
0.0000
 41
1.7780
 42
1.7780
 43
1.0000
 50
270.0000
  0
CIRCLE
  8
44
 10
78.1050
 20
91.4400
 30
0.0000
 40
0.4500
  0
INSERT
  8
17
  2
ROUNDP
 10
78.1050
 20
88.9000
 30
0.0000
 41
1.7780
 42
1.7780
 43
1.0000
 50
270.0000
  0
INSERT
  8
17
  2
ROUNDP
 10
78.1050
 20
88.9000
 30
0.0000
 41
1.7780
 42
1.7780
 43
1.0000
 50
270.0000
  0
CIRCLE
  8
44
 10
78.1050
 20
88.9000
 30
0.0000
 40
0.4500
  0
INSERT
  8
17
  2
ROUNDP
 10
78.1050
 20
86.3600
 30
0.0000
 41
1.7780
 42
1.7780
 43
1.0000
 50
270.0000
  0
INSERT
  8
17
  2
ROUNDP
 10
78.1050
 20
86.3600
 30
0.0000
 41
1.7780
 42
1.7780
 43
1.0000
 50
270.0000
  0
CIRCLE
  8
44
 10
78.1050
 20
86.3600
 30
0.0000
 40
0.4500
  0
INSERT
  8
17
  2
ROUNDP
 10
90.8050
 20
86.3600
 30
0.0000
 41
1.7780
 42
1.7780
 43
1.0000
 50
270.0000
  0
INSERT
  8
17
  2
ROUNDP
 10
90.8050
 20
86.3600
 30
0.0000
 41
1.7780
 42
1.7780
 43
1.0000
 50
270.0000
  0
CIRCLE
  8
44
 10
90.8050
 20
86.3600
 30
0.0000
 40
0.4500
  0
INSERT
  8
17
  2
ROUNDP
 10
90.8050
 20
88.9000
 30
0.0000
 41
1.7780
 42
1.7780
 43
1.0000
 50
270.0000
  0
INSERT
  8
17
  2
ROUNDP
 10
90.8050
 20
88.9000
 30
0.0000
 41
1.7780
 42
1.7780
 43
1.0000
 50
270.0000
  0
CIRCLE
  8
44
 10
90.8050
 20
88.9000
 30
0.0000
 40
0.4500
  0
INSERT
  8
17
  2
ROUNDP
 10
90.8050
 20
91.4400
 30
0.0000
 41
1.7780
 42
1.7780
 43
1.0000
 50
270.0000
  0
INSERT
  8
17
  2
ROUNDP
 10
90.8050
 20
91.4400
 30
0.0000
 41
1.7780
 42
1.7780
 43
1.0000
 50
270.0000
  0
CIRCLE
  8
44
 10
90.8050
 20
91.4400
 30
0.0000
 40
0.4500
  0
INSERT
  8
17
  2
ROUNDP
 10
90.8050
 20
93.9800
 30
0.0000
 41
1.7780
 42
1.7780
 43
1.0000
 50
270.0000
  0
INSERT
  8
17
  2
ROUNDP
 10
90.8050
 20
93.9800
 30
0.0000
 41
1.7780
 42
1.7780
 43
1.0000
 50
270.0000
  0
CIRCLE
  8
44
 10
90.8050
 20
93.9800
 30
0.0000
 40
0.4500
  0
INSERT
  8
17
  2
ROUNDP
 10
90.8050
 20
96.5200
 30
0.0000
 41
1.7780
 42
1.7780
 43
1.0000
 50
270.0000
  0
INSERT
  8
17
  2
ROUNDP
 10
90.8050
 20
96.5200
 30
0.0000
 41
1.7780
 42
1.7780
 43
1.0000
 50
270.0000
  0
CIRCLE
  8
44
 10
90.8050
 20
96.5200
 30
0.0000
 40
0.4500
  0
INSERT
  8
17
  2
ROUNDP
 10
90.8050
 20
99.0600
 30
0.0000
 41
1.7780
 42
1.7780
 43
1.0000
 50
270.0000
  0
INSERT
  8
17
  2
ROUNDP
 10
90.8050
 20
99.0600
 30
0.0000
 41
1.7780
 42
1.7780
 43
1.0000
 50
270.0000
  0
CIRCLE
  8
44
 10
90.8050
 20
99.0600
 30
0.0000
 40
0.4500
  0
INSERT
  8
17
  2
ROUNDP
 10
90.8050
 20
101.6000
 30
0.0000
 41
1.7780
 42
1.7780
 43
1.0000
 50
270.0000
  0
INSERT
  8
17
  2
ROUNDP
 10
90.8050
 20
101.6000
 30
0.0000
 41
1.7780
 42
1.7780
 43
1.0000
 50
270.0000
  0
CIRCLE
  8
44
 10
90.8050
 20
101.6000
 30
0.0000
 40
0.4500
  0
INSERT
  8
17
  2
ROUNDP
 10
90.8050
 20
104.1400
 30
0.0000
 41
1.7780
 42
1.7780
 43
1.0000
 50
270.0000
  0
INSERT
  8
17
  2
ROUNDP
 10
90.8050
 20
104.1400
 30
0.0000
 41
1.7780
 42
1.7780
 43
1.0000
 50
270.0000
  0
CIRCLE
  8
44
 10
90.8050
 20
104.1400
 30
0.0000
 40
0.4500
  0
INSERT
  8
17
  2
ROUNDP
 10
78.1050
 20
83.8200
 30
0.0000
 41
1.7780
 42
1.7780
 43
1.0000
 50
270.0000
  0
INSERT
  8
17
  2
ROUNDP
 10
78.1050
 20
83.8200
 30
0.0000
 41
1.7780
 42
1.7780
 43
1.0000
 50
270.0000
  0
CIRCLE
  8
44
 10
78.1050
 20
83.8200
 30
0.0000
 40
0.4500
  0
INSERT
  8
17
  2
ROUNDP
 10
78.1050
 20
81.2800
 30
0.0000
 41
1.7780
 42
1.7780
 43
1.0000
 50
270.0000
  0
INSERT
  8
17
  2
ROUNDP
 10
78.1050
 20
81.2800
 30
0.0000
 41
1.7780
 42
1.7780
 43
1.0000
 50
270.0000
  0
CIRCLE
  8
44
 10
78.1050
 20
81.2800
 30
0.0000
 40
0.4500
  0
INSERT
  8
17
  2
ROUNDP
 10
78.1050
 20
78.7400
 30
0.0000
 41
1.7780
 42
1.7780
 43
1.0000
 50
270.0000
  0
INSERT
  8
17
  2
ROUNDP
 10
78.1050
 20
78.7400
 30
0.0000
 41
1.7780
 42
1.7780
 43
1.0000
 50
270.0000
  0
CIRCLE
  8
44
 10
78.1050
 20
78.7400
 30
0.0000
 40
0.4500
  0
INSERT
  8
17
  2
ROUNDP
 10
78.1050
 20
76.2000
 30
0.0000
 41
1.7780
 42
1.7780
 43
1.0000
 50
270.0000
  0
INSERT
  8
17
  2
ROUNDP
 10
78.1050
 20
76.2000
 30
0.0000
 41
1.7780
 42
1.7780
 43
1.0000
 50
270.0000
  0
CIRCLE
  8
44
 10
78.1050
 20
76.2000
 30
0.0000
 40
0.4500
  0
INSERT
  8
17
  2
ROUNDP
 10
78.1050
 20
73.6600
 30
0.0000
 41
1.7780
 42
1.7780
 43
1.0000
 50
270.0000
  0
INSERT
  8
17
  2
ROUNDP
 10
78.1050
 20
73.6600
 30
0.0000
 41
1.7780
 42
1.7780
 43
1.0000
 50
270.0000
  0
CIRCLE
  8
44
 10
78.1050
 20
73.6600
 30
0.0000
 40
0.4500
  0
INSERT
  8
17
  2
ROUNDP
 10
78.1050
 20
71.1200
 30
0.0000
 41
1.7780
 42
1.7780
 43
1.0000
 50
270.0000
  0
INSERT
  8
17
  2
ROUNDP
 10
78.1050
 20
71.1200
 30
0.0000
 41
1.7780
 42
1.7780
 43
1.0000
 50
270.0000
  0
CIRCLE
  8
44
 10
78.1050
 20
71.1200
 30
0.0000
 40
0.4500
  0
INSERT
  8
17
  2
ROUNDP
 10
78.1050
 20
68.5800
 30
0.0000
 41
1.7780
 42
1.7780
 43
1.0000
 50
270.0000
  0
INSERT
  8
17
  2
ROUNDP
 10
78.1050
 20
68.5800
 30
0.0000
 41
1.7780
 42
1.7780
 43
1.0000
 50
270.0000
  0
CIRCLE
  8
44
 10
78.1050
 20
68.5800
 30
0.0000
 40
0.4500
  0
INSERT
  8
17
  2
ROUNDP
 10
78.1050
 20
66.0400
 30
0.0000
 41
1.7780
 42
1.7780
 43
1.0000
 50
270.0000
  0
INSERT
  8
17
  2
ROUNDP
 10
78.1050
 20
66.0400
 30
0.0000
 41
1.7780
 42
1.7780
 43
1.0000
 50
270.0000
  0
CIRCLE
  8
44
 10
78.1050
 20
66.0400
 30
0.0000
 40
0.4500
  0
INSERT
  8
17
  2
ROUNDP
 10
90.8050
 20
66.0400
 30
0.0000
 41
1.7780
 42
1.7780
 43
1.0000
 50
270.0000
  0
INSERT
  8
17
  2
ROUNDP
 10
90.8050
 20
66.0400
 30
0.0000
 41
1.7780
 42
1.7780
 43
1.0000
 50
270.0000
  0
CIRCLE
  8
44
 10
90.8050
 20
66.0400
 30
0.0000
 40
0.4500
  0
INSERT
  8
17
  2
ROUNDP
 10
90.8050
 20
68.5800
 30
0.0000
 41
1.7780
 42
1.7780
 43
1.0000
 50
270.0000
  0
INSERT
  8
17
  2
ROUNDP
 10
90.8050
 20
68.5800
 30
0.0000
 41
1.7780
 42
1.7780
 43
1.0000
 50
270.0000
  0
CIRCLE
  8
44
 10
90.8050
 20
68.5800
 30
0.0000
 40
0.4500
  0
INSERT
  8
17
  2
ROUNDP
 10
90.8050
 20
71.1200
 30
0.0000
 41
1.7780
 42
1.7780
 43
1.0000
 50
270.0000
  0
INSERT
  8
17
  2
ROUNDP
 10
90.8050
 20
71.1200
 30
0.0000
 41
1.7780
 42
1.7780
 43
1.0000
 50
270.0000
  0
CIRCLE
  8
44
 10
90.8050
 20
71.1200
 30
0.0000
 40
0.4500
  0
INSERT
  8
17
  2
ROUNDP
 10
90.8050
 20
73.6600
 30
0.0000
 41
1.7780
 42
1.7780
 43
1.0000
 50
270.0000
  0
INSERT
  8
17
  2
ROUNDP
 10
90.8050
 20
73.6600
 30
0.0000
 41
1.7780
 42
1.7780
 43
1.0000
 50
270.0000
  0
CIRCLE
  8
44
 10
90.8050
 20
73.6600
 30
0.0000
 40
0.4500
  0
INSERT
  8
17
  2
ROUNDP
 10
90.8050
 20
76.2000
 30
0.0000
 41
1.7780
 42
1.7780
 43
1.0000
 50
270.0000
  0
INSERT
  8
17
  2
ROUNDP
 10
90.8050
 20
76.2000
 30
0.0000
 41
1.7780
 42
1.7780
 43
1.0000
 50
270.0000
  0
CIRCLE
  8
44
 10
90.8050
 20
76.2000
 30
0.0000
 40
0.4500
  0
INSERT
  8
17
  2
ROUNDP
 10
90.8050
 20
78.7400
 30
0.0000
 41
1.7780
 42
1.7780
 43
1.0000
 50
270.0000
  0
INSERT
  8
17
  2
ROUNDP
 10
90.8050
 20
78.7400
 30
0.0000
 41
1.7780
 42
1.7780
 43
1.0000
 50
270.0000
  0
CIRCLE
  8
44
 10
90.8050
 20
78.7400
 30
0.0000
 40
0.4500
  0
INSERT
  8
17
  2
ROUNDP
 10
90.8050
 20
81.2800
 30
0.0000
 41
1.7780
 42
1.7780
 43
1.0000
 50
270.0000
  0
INSERT
  8
17
  2
ROUNDP
 10
90.8050
 20
81.2800
 30
0.0000
 41
1.7780
 42
1.7780
 43
1.0000
 50
270.0000
  0
CIRCLE
  8
44
 10
90.8050
 20
81.2800
 30
0.0000
 40
0.4500
  0
INSERT
  8
17
  2
ROUNDP
 10
90.8050
 20
83.8200
 30
0.0000
 41
1.7780
 42
1.7780
 43
1.0000
 50
270.0000
  0
INSERT
  8
17
  2
ROUNDP
 10
90.8050
 20
83.8200
 30
0.0000
 41
1.7780
 42
1.7780
 43
1.0000
 50
270.0000
  0
CIRCLE
  8
44
 10
90.8050
 20
83.8200
 30
0.0000
 40
0.4500
  0
INSERT
  8
17
  2
ROUNDP
 10
78.1050
 20
63.5000
 30
0.0000
 41
1.7780
 42
1.7780
 43
1.0000
 50
270.0000
  0
INSERT
  8
17
  2
ROUNDP
 10
78.1050
 20
63.5000
 30
0.0000
 41
1.7780
 42
1.7780
 43
1.0000
 50
270.0000
  0
CIRCLE
  8
44
 10
78.1050
 20
63.5000
 30
0.0000
 40
0.4500
  0
INSERT
  8
17
  2
ROUNDP
 10
78.1050
 20
60.9600
 30
0.0000
 41
1.7780
 42
1.7780
 43
1.0000
 50
270.0000
  0
INSERT
  8
17
  2
ROUNDP
 10
78.1050
 20
60.9600
 30
0.0000
 41
1.7780
 42
1.7780
 43
1.0000
 50
270.0000
  0
CIRCLE
  8
44
 10
78.1050
 20
60.9600
 30
0.0000
 40
0.4500
  0
INSERT
  8
17
  2
ROUNDP
 10
78.1050
 20
58.4200
 30
0.0000
 41
1.7780
 42
1.7780
 43
1.0000
 50
270.0000
  0
INSERT
  8
17
  2
ROUNDP
 10
78.1050
 20
58.4200
 30
0.0000
 41
1.7780
 42
1.7780
 43
1.0000
 50
270.0000
  0
CIRCLE
  8
44
 10
78.1050
 20
58.4200
 30
0.0000
 40
0.4500
  0
INSERT
  8
17
  2
ROUNDP
 10
78.1050
 20
55.8800
 30
0.0000
 41
1.7780
 42
1.7780
 43
1.0000
 50
270.0000
  0
INSERT
  8
17
  2
ROUNDP
 10
78.1050
 20
55.8800
 30
0.0000
 41
1.7780
 42
1.7780
 43
1.0000
 50
270.0000
  0
CIRCLE
  8
44
 10
78.1050
 20
55.8800
 30
0.0000
 40
0.4500
  0
INSERT
  8
17
  2
ROUNDP
 10
78.1050
 20
53.3400
 30
0.0000
 41
1.7780
 42
1.7780
 43
1.0000
 50
270.0000
  0
INSERT
  8
17
  2
ROUNDP
 10
78.1050
 20
53.3400
 30
0.0000
 41
1.7780
 42
1.7780
 43
1.0000
 50
270.0000
  0
CIRCLE
  8
44
 10
78.1050
 20
53.3400
 30
0.0000
 40
0.4500
  0
INSERT
  8
17
  2
ROUNDP
 10
78.1050
 20
50.8000
 30
0.0000
 41
1.7780
 42
1.7780
 43
1.0000
 50
270.0000
  0
INSERT
  8
17
  2
ROUNDP
 10
78.1050
 20
50.8000
 30
0.0000
 41
1.7780
 42
1.7780
 43
1.0000
 50
270.0000
  0
CIRCLE
  8
44
 10
78.1050
 20
50.8000
 30
0.0000
 40
0.4500
  0
INSERT
  8
17
  2
ROUNDP
 10
78.1050
 20
48.2600
 30
0.0000
 41
1.7780
 42
1.7780
 43
1.0000
 50
270.0000
  0
INSERT
  8
17
  2
ROUNDP
 10
78.1050
 20
48.2600
 30
0.0000
 41
1.7780
 42
1.7780
 43
1.0000
 50
270.0000
  0
CIRCLE
  8
44
 10
78.1050
 20
48.2600
 30
0.0000
 40
0.4500
  0
INSERT
  8
17
  2
ROUNDP
 10
78.1050
 20
45.7200
 30
0.0000
 41
1.7780
 42
1.7780
 43
1.0000
 50
270.0000
  0
INSERT
  8
17
  2
ROUNDP
 10
78.1050
 20
45.7200
 30
0.0000
 41
1.7780
 42
1.7780
 43
1.0000
 50
270.0000
  0
CIRCLE
  8
44
 10
78.1050
 20
45.7200
 30
0.0000
 40
0.4500
  0
INSERT
  8
17
  2
ROUNDP
 10
90.8050
 20
45.7200
 30
0.0000
 41
1.7780
 42
1.7780
 43
1.0000
 50
270.0000
  0
INSERT
  8
17
  2
ROUNDP
 10
90.8050
 20
45.7200
 30
0.0000
 41
1.7780
 42
1.7780
 43
1.0000
 50
270.0000
  0
CIRCLE
  8
44
 10
90.8050
 20
45.7200
 30
0.0000
 40
0.4500
  0
INSERT
  8
17
  2
ROUNDP
 10
90.8050
 20
48.2600
 30
0.0000
 41
1.7780
 42
1.7780
 43
1.0000
 50
270.0000
  0
INSERT
  8
17
  2
ROUNDP
 10
90.8050
 20
48.2600
 30
0.0000
 41
1.7780
 42
1.7780
 43
1.0000
 50
270.0000
  0
CIRCLE
  8
44
 10
90.8050
 20
48.2600
 30
0.0000
 40
0.4500
  0
INSERT
  8
17
  2
ROUNDP
 10
90.8050
 20
50.8000
 30
0.0000
 41
1.7780
 42
1.7780
 43
1.0000
 50
270.0000
  0
INSERT
  8
17
  2
ROUNDP
 10
90.8050
 20
50.8000
 30
0.0000
 41
1.7780
 42
1.7780
 43
1.0000
 50
270.0000
  0
CIRCLE
  8
44
 10
90.8050
 20
50.8000
 30
0.0000
 40
0.4500
  0
INSERT
  8
17
  2
ROUNDP
 10
90.8050
 20
53.3400
 30
0.0000
 41
1.7780
 42
1.7780
 43
1.0000
 50
270.0000
  0
INSERT
  8
17
  2
ROUNDP
 10
90.8050
 20
53.3400
 30
0.0000
 41
1.7780
 42
1.7780
 43
1.0000
 50
270.0000
  0
CIRCLE
  8
44
 10
90.8050
 20
53.3400
 30
0.0000
 40
0.4500
  0
INSERT
  8
17
  2
ROUNDP
 10
90.8050
 20
55.8800
 30
0.0000
 41
1.7780
 42
1.7780
 43
1.0000
 50
270.0000
  0
INSERT
  8
17
  2
ROUNDP
 10
90.8050
 20
55.8800
 30
0.0000
 41
1.7780
 42
1.7780
 43
1.0000
 50
270.0000
  0
CIRCLE
  8
44
 10
90.8050
 20
55.8800
 30
0.0000
 40
0.4500
  0
INSERT
  8
17
  2
ROUNDP
 10
90.8050
 20
58.4200
 30
0.0000
 41
1.7780
 42
1.7780
 43
1.0000
 50
270.0000
  0
INSERT
  8
17
  2
ROUNDP
 10
90.8050
 20
58.4200
 30
0.0000
 41
1.7780
 42
1.7780
 43
1.0000
 50
270.0000
  0
CIRCLE
  8
44
 10
90.8050
 20
58.4200
 30
0.0000
 40
0.4500
  0
INSERT
  8
17
  2
ROUNDP
 10
90.8050
 20
60.9600
 30
0.0000
 41
1.7780
 42
1.7780
 43
1.0000
 50
270.0000
  0
INSERT
  8
17
  2
ROUNDP
 10
90.8050
 20
60.9600
 30
0.0000
 41
1.7780
 42
1.7780
 43
1.0000
 50
270.0000
  0
CIRCLE
  8
44
 10
90.8050
 20
60.9600
 30
0.0000
 40
0.4500
  0
INSERT
  8
17
  2
ROUNDP
 10
90.8050
 20
63.5000
 30
0.0000
 41
1.7780
 42
1.7780
 43
1.0000
 50
270.0000
  0
INSERT
  8
17
  2
ROUNDP
 10
90.8050
 20
63.5000
 30
0.0000
 41
1.7780
 42
1.7780
 43
1.0000
 50
270.0000
  0
CIRCLE
  8
44
 10
90.8050
 20
63.5000
 30
0.0000
 40
0.4500
  0
INSERT
  8
17
  2
ROUNDP
 10
78.1050
 20
43.1800
 30
0.0000
 41
1.7780
 42
1.7780
 43
1.0000
 50
270.0000
  0
INSERT
  8
17
  2
ROUNDP
 10
78.1050
 20
43.1800
 30
0.0000
 41
1.7780
 42
1.7780
 43
1.0000
 50
270.0000
  0
CIRCLE
  8
44
 10
78.1050
 20
43.1800
 30
0.0000
 40
0.4500
  0
INSERT
  8
17
  2
ROUNDP
 10
78.1050
 20
40.6400
 30
0.0000
 41
1.7780
 42
1.7780
 43
1.0000
 50
270.0000
  0
INSERT
  8
17
  2
ROUNDP
 10
78.1050
 20
40.6400
 30
0.0000
 41
1.7780
 42
1.7780
 43
1.0000
 50
270.0000
  0
CIRCLE
  8
44
 10
78.1050
 20
40.6400
 30
0.0000
 40
0.4500
  0
INSERT
  8
17
  2
ROUNDP
 10
78.1050
 20
38.1000
 30
0.0000
 41
1.7780
 42
1.7780
 43
1.0000
 50
270.0000
  0
INSERT
  8
17
  2
ROUNDP
 10
78.1050
 20
38.1000
 30
0.0000
 41
1.7780
 42
1.7780
 43
1.0000
 50
270.0000
  0
CIRCLE
  8
44
 10
78.1050
 20
38.1000
 30
0.0000
 40
0.4500
  0
INSERT
  8
17
  2
ROUNDP
 10
78.1050
 20
35.5600
 30
0.0000
 41
1.7780
 42
1.7780
 43
1.0000
 50
270.0000
  0
INSERT
  8
17
  2
ROUNDP
 10
78.1050
 20
35.5600
 30
0.0000
 41
1.7780
 42
1.7780
 43
1.0000
 50
270.0000
  0
CIRCLE
  8
44
 10
78.1050
 20
35.5600
 30
0.0000
 40
0.4500
  0
INSERT
  8
17
  2
ROUNDP
 10
78.1050
 20
33.0200
 30
0.0000
 41
1.7780
 42
1.7780
 43
1.0000
 50
270.0000
  0
INSERT
  8
17
  2
ROUNDP
 10
78.1050
 20
33.0200
 30
0.0000
 41
1.7780
 42
1.7780
 43
1.0000
 50
270.0000
  0
CIRCLE
  8
44
 10
78.1050
 20
33.0200
 30
0.0000
 40
0.4500
  0
INSERT
  8
17
  2
ROUNDP
 10
78.1050
 20
30.4800
 30
0.0000
 41
1.7780
 42
1.7780
 43
1.0000
 50
270.0000
  0
INSERT
  8
17
  2
ROUNDP
 10
78.1050
 20
30.4800
 30
0.0000
 41
1.7780
 42
1.7780
 43
1.0000
 50
270.0000
  0
CIRCLE
  8
44
 10
78.1050
 20
30.4800
 30
0.0000
 40
0.4500
  0
INSERT
  8
17
  2
ROUNDP
 10
78.1050
 20
27.9400
 30
0.0000
 41
1.7780
 42
1.7780
 43
1.0000
 50
270.0000
  0
INSERT
  8
17
  2
ROUNDP
 10
78.1050
 20
27.9400
 30
0.0000
 41
1.7780
 42
1.7780
 43
1.0000
 50
270.0000
  0
CIRCLE
  8
44
 10
78.1050
 20
27.9400
 30
0.0000
 40
0.4500
  0
INSERT
  8
17
  2
ROUNDP
 10
78.1050
 20
25.4000
 30
0.0000
 41
1.7780
 42
1.7780
 43
1.0000
 50
270.0000
  0
INSERT
  8
17
  2
ROUNDP
 10
78.1050
 20
25.4000
 30
0.0000
 41
1.7780
 42
1.7780
 43
1.0000
 50
270.0000
  0
CIRCLE
  8
44
 10
78.1050
 20
25.4000
 30
0.0000
 40
0.4500
  0
INSERT
  8
17
  2
ROUNDP
 10
90.8050
 20
25.4000
 30
0.0000
 41
1.7780
 42
1.7780
 43
1.0000
 50
270.0000
  0
INSERT
  8
17
  2
ROUNDP
 10
90.8050
 20
25.4000
 30
0.0000
 41
1.7780
 42
1.7780
 43
1.0000
 50
270.0000
  0
CIRCLE
  8
44
 10
90.8050
 20
25.4000
 30
0.0000
 40
0.4500
  0
INSERT
  8
17
  2
ROUNDP
 10
90.8050
 20
27.9400
 30
0.0000
 41
1.7780
 42
1.7780
 43
1.0000
 50
270.0000
  0
INSERT
  8
17
  2
ROUNDP
 10
90.8050
 20
27.9400
 30
0.0000
 41
1.7780
 42
1.7780
 43
1.0000
 50
270.0000
  0
CIRCLE
  8
44
 10
90.8050
 20
27.9400
 30
0.0000
 40
0.4500
  0
INSERT
  8
17
  2
ROUNDP
 10
90.8050
 20
30.4800
 30
0.0000
 41
1.7780
 42
1.7780
 43
1.0000
 50
270.0000
  0
INSERT
  8
17
  2
ROUNDP
 10
90.8050
 20
30.4800
 30
0.0000
 41
1.7780
 42
1.7780
 43
1.0000
 50
270.0000
  0
CIRCLE
  8
44
 10
90.8050
 20
30.4800
 30
0.0000
 40
0.4500
  0
INSERT
  8
17
  2
ROUNDP
 10
90.8050
 20
33.0200
 30
0.0000
 41
1.7780
 42
1.7780
 43
1.0000
 50
270.0000
  0
INSERT
  8
17
  2
ROUNDP
 10
90.8050
 20
33.0200
 30
0.0000
 41
1.7780
 42
1.7780
 43
1.0000
 50
270.0000
  0
CIRCLE
  8
44
 10
90.8050
 20
33.0200
 30
0.0000
 40
0.4500
  0
INSERT
  8
17
  2
ROUNDP
 10
90.8050
 20
35.5600
 30
0.0000
 41
1.7780
 42
1.7780
 43
1.0000
 50
270.0000
  0
INSERT
  8
17
  2
ROUNDP
 10
90.8050
 20
35.5600
 30
0.0000
 41
1.7780
 42
1.7780
 43
1.0000
 50
270.0000
  0
CIRCLE
  8
44
 10
90.8050
 20
35.5600
 30
0.0000
 40
0.4500
  0
INSERT
  8
17
  2
ROUNDP
 10
90.8050
 20
38.1000
 30
0.0000
 41
1.7780
 42
1.7780
 43
1.0000
 50
270.0000
  0
INSERT
  8
17
  2
ROUNDP
 10
90.8050
 20
38.1000
 30
0.0000
 41
1.7780
 42
1.7780
 43
1.0000
 50
270.0000
  0
CIRCLE
  8
44
 10
90.8050
 20
38.1000
 30
0.0000
 40
0.4500
  0
INSERT
  8
17
  2
ROUNDP
 10
90.8050
 20
40.6400
 30
0.0000
 41
1.7780
 42
1.7780
 43
1.0000
 50
270.0000
  0
INSERT
  8
17
  2
ROUNDP
 10
90.8050
 20
40.6400
 30
0.0000
 41
1.7780
 42
1.7780
 43
1.0000
 50
270.0000
  0
CIRCLE
  8
44
 10
90.8050
 20
40.6400
 30
0.0000
 40
0.4500
  0
INSERT
  8
17
  2
ROUNDP
 10
90.8050
 20
43.1800
 30
0.0000
 41
1.7780
 42
1.7780
 43
1.0000
 50
270.0000
  0
INSERT
  8
17
  2
ROUNDP
 10
90.8050
 20
43.1800
 30
0.0000
 41
1.7780
 42
1.7780
 43
1.0000
 50
270.0000
  0
CIRCLE
  8
44
 10
90.8050
 20
43.1800
 30
0.0000
 40
0.4500
  0
INSERT
  8
17
  2
ROUNDP
 10
78.1050
 20
22.8600
 30
0.0000
 41
1.7780
 42
1.7780
 43
1.0000
 50
270.0000
  0
INSERT
  8
17
  2
ROUNDP
 10
78.1050
 20
22.8600
 30
0.0000
 41
1.7780
 42
1.7780
 43
1.0000
 50
270.0000
  0
CIRCLE
  8
44
 10
78.1050
 20
22.8600
 30
0.0000
 40
0.4500
  0
INSERT
  8
17
  2
ROUNDP
 10
78.1050
 20
20.3200
 30
0.0000
 41
1.7780
 42
1.7780
 43
1.0000
 50
270.0000
  0
INSERT
  8
17
  2
ROUNDP
 10
78.1050
 20
20.3200
 30
0.0000
 41
1.7780
 42
1.7780
 43
1.0000
 50
270.0000
  0
CIRCLE
  8
44
 10
78.1050
 20
20.3200
 30
0.0000
 40
0.4500
  0
INSERT
  8
17
  2
ROUNDP
 10
78.1050
 20
17.7800
 30
0.0000
 41
1.7780
 42
1.7780
 43
1.0000
 50
270.0000
  0
INSERT
  8
17
  2
ROUNDP
 10
78.1050
 20
17.7800
 30
0.0000
 41
1.7780
 42
1.7780
 43
1.0000
 50
270.0000
  0
CIRCLE
  8
44
 10
78.1050
 20
17.7800
 30
0.0000
 40
0.4500
  0
INSERT
  8
17
  2
ROUNDP
 10
78.1050
 20
15.2400
 30
0.0000
 41
1.7780
 42
1.7780
 43
1.0000
 50
270.0000
  0
INSERT
  8
17
  2
ROUNDP
 10
78.1050
 20
15.2400
 30
0.0000
 41
1.7780
 42
1.7780
 43
1.0000
 50
270.0000
  0
CIRCLE
  8
44
 10
78.1050
 20
15.2400
 30
0.0000
 40
0.4500
  0
INSERT
  8
17
  2
ROUNDP
 10
78.1050
 20
12.7000
 30
0.0000
 41
1.7780
 42
1.7780
 43
1.0000
 50
270.0000
  0
INSERT
  8
17
  2
ROUNDP
 10
78.1050
 20
12.7000
 30
0.0000
 41
1.7780
 42
1.7780
 43
1.0000
 50
270.0000
  0
CIRCLE
  8
44
 10
78.1050
 20
12.7000
 30
0.0000
 40
0.4500
  0
INSERT
  8
17
  2
ROUNDP
 10
78.1050
 20
10.1600
 30
0.0000
 41
1.7780
 42
1.7780
 43
1.0000
 50
270.0000
  0
INSERT
  8
17
  2
ROUNDP
 10
78.1050
 20
10.1600
 30
0.0000
 41
1.7780
 42
1.7780
 43
1.0000
 50
270.0000
  0
CIRCLE
  8
44
 10
78.1050
 20
10.1600
 30
0.0000
 40
0.4500
  0
INSERT
  8
17
  2
ROUNDP
 10
78.1050
 20
7.6200
 30
0.0000
 41
1.7780
 42
1.7780
 43
1.0000
 50
270.0000
  0
INSERT
  8
17
  2
ROUNDP
 10
78.1050
 20
7.6200
 30
0.0000
 41
1.7780
 42
1.7780
 43
1.0000
 50
270.0000
  0
CIRCLE
  8
44
 10
78.1050
 20
7.6200
 30
0.0000
 40
0.4500
  0
INSERT
  8
17
  2
ROUNDP
 10
78.1050
 20
5.0800
 30
0.0000
 41
1.7780
 42
1.7780
 43
1.0000
 50
270.0000
  0
INSERT
  8
17
  2
ROUNDP
 10
78.1050
 20
5.0800
 30
0.0000
 41
1.7780
 42
1.7780
 43
1.0000
 50
270.0000
  0
CIRCLE
  8
44
 10
78.1050
 20
5.0800
 30
0.0000
 40
0.4500
  0
INSERT
  8
17
  2
ROUNDP
 10
90.8050
 20
5.0800
 30
0.0000
 41
1.7780
 42
1.7780
 43
1.0000
 50
270.0000
  0
INSERT
  8
17
  2
ROUNDP
 10
90.8050
 20
5.0800
 30
0.0000
 41
1.7780
 42
1.7780
 43
1.0000
 50
270.0000
  0
CIRCLE
  8
44
 10
90.8050
 20
5.0800
 30
0.0000
 40
0.4500
  0
INSERT
  8
17
  2
ROUNDP
 10
90.8050
 20
7.6200
 30
0.0000
 41
1.7780
 42
1.7780
 43
1.0000
 50
270.0000
  0
INSERT
  8
17
  2
ROUNDP
 10
90.8050
 20
7.6200
 30
0.0000
 41
1.7780
 42
1.7780
 43
1.0000
 50
270.0000
  0
CIRCLE
  8
44
 10
90.8050
 20
7.6200
 30
0.0000
 40
0.4500
  0
INSERT
  8
17
  2
ROUNDP
 10
90.8050
 20
10.1600
 30
0.0000
 41
1.7780
 42
1.7780
 43
1.0000
 50
270.0000
  0
INSERT
  8
17
  2
ROUNDP
 10
90.8050
 20
10.1600
 30
0.0000
 41
1.7780
 42
1.7780
 43
1.0000
 50
270.0000
  0
CIRCLE
  8
44
 10
90.8050
 20
10.1600
 30
0.0000
 40
0.4500
  0
INSERT
  8
17
  2
ROUNDP
 10
90.8050
 20
12.7000
 30
0.0000
 41
1.7780
 42
1.7780
 43
1.0000
 50
270.0000
  0
INSERT
  8
17
  2
ROUNDP
 10
90.8050
 20
12.7000
 30
0.0000
 41
1.7780
 42
1.7780
 43
1.0000
 50
270.0000
  0
CIRCLE
  8
44
 10
90.8050
 20
12.7000
 30
0.0000
 40
0.4500
  0
INSERT
  8
17
  2
ROUNDP
 10
90.8050
 20
15.2400
 30
0.0000
 41
1.7780
 42
1.7780
 43
1.0000
 50
270.0000
  0
INSERT
  8
17
  2
ROUNDP
 10
90.8050
 20
15.2400
 30
0.0000
 41
1.7780
 42
1.7780
 43
1.0000
 50
270.0000
  0
CIRCLE
  8
44
 10
90.8050
 20
15.2400
 30
0.0000
 40
0.4500
  0
INSERT
  8
17
  2
ROUNDP
 10
90.8050
 20
17.7800
 30
0.0000
 41
1.7780
 42
1.7780
 43
1.0000
 50
270.0000
  0
INSERT
  8
17
  2
ROUNDP
 10
90.8050
 20
17.7800
 30
0.0000
 41
1.7780
 42
1.7780
 43
1.0000
 50
270.0000
  0
CIRCLE
  8
44
 10
90.8050
 20
17.7800
 30
0.0000
 40
0.4500
  0
INSERT
  8
17
  2
ROUNDP
 10
90.8050
 20
20.3200
 30
0.0000
 41
1.7780
 42
1.7780
 43
1.0000
 50
270.0000
  0
INSERT
  8
17
  2
ROUNDP
 10
90.8050
 20
20.3200
 30
0.0000
 41
1.7780
 42
1.7780
 43
1.0000
 50
270.0000
  0
CIRCLE
  8
44
 10
90.8050
 20
20.3200
 30
0.0000
 40
0.4500
  0
INSERT
  8
17
  2
ROUNDP
 10
90.8050
 20
22.8600
 30
0.0000
 41
1.7780
 42
1.7780
 43
1.0000
 50
270.0000
  0
INSERT
  8
17
  2
ROUNDP
 10
90.8050
 20
22.8600
 30
0.0000
 41
1.7780
 42
1.7780
 43
1.0000
 50
270.0000
  0
CIRCLE
  8
44
 10
90.8050
 20
22.8600
 30
0.0000
 40
0.4500
  0
INSERT
  8
17
  2
OCTAGONP
 10
95.2500
 20
58.4200
 30
0.0000
 41
1.6764
 42
1.6764
 43
1.0000
 50
270.0000
  0
INSERT
  8
17
  2
OCTAGONP
 10
95.2500
 20
58.4200
 30
0.0000
 41
1.6764
 42
1.6764
 43
1.0000
 50
270.0000
  0
CIRCLE
  8
44
 10
95.2500
 20
58.4200
 30
0.0000
 40
0.5500
  0
INSERT
  8
17
  2
OCTAGONP
 10
97.7900
 20
58.4200
 30
0.0000
 41
1.6764
 42
1.6764
 43
1.0000
 50
270.0000
  0
INSERT
  8
17
  2
OCTAGONP
 10
97.7900
 20
58.4200
 30
0.0000
 41
1.6764
 42
1.6764
 43
1.0000
 50
270.0000
  0
CIRCLE
  8
44
 10
97.7900
 20
58.4200
 30
0.0000
 40
0.5500
  0
INSERT
  8
17
  2
OCTAGONP
 10
95.2500
 20
55.8800
 30
0.0000
 41
1.6764
 42
1.6764
 43
1.0000
 50
270.0000
  0
INSERT
  8
17
  2
OCTAGONP
 10
95.2500
 20
55.8800
 30
0.0000
 41
1.6764
 42
1.6764
 43
1.0000
 50
270.0000
  0
CIRCLE
  8
44
 10
95.2500
 20
55.8800
 30
0.0000
 40
0.5500
  0
INSERT
  8
17
  2
OCTAGONP
 10
97.7900
 20
55.8800
 30
0.0000
 41
1.6764
 42
1.6764
 43
1.0000
 50
270.0000
  0
INSERT
  8
17
  2
OCTAGONP
 10
97.7900
 20
55.8800
 30
0.0000
 41
1.6764
 42
1.6764
 43
1.0000
 50
270.0000
  0
CIRCLE
  8
44
 10
97.7900
 20
55.8800
 30
0.0000
 40
0.5500
  0
INSERT
  8
17
  2
OCTAGONP
 10
95.2500
 20
53.3400
 30
0.0000
 41
1.6764
 42
1.6764
 43
1.0000
 50
270.0000
  0
INSERT
  8
17
  2
OCTAGONP
 10
95.2500
 20
53.3400
 30
0.0000
 41
1.6764
 42
1.6764
 43
1.0000
 50
270.0000
  0
CIRCLE
  8
44
 10
95.2500
 20
53.3400
 30
0.0000
 40
0.5500
  0
INSERT
  8
17
  2
OCTAGONP
 10
97.7900
 20
53.3400
 30
0.0000
 41
1.6764
 42
1.6764
 43
1.0000
 50
270.0000
  0
INSERT
  8
17
  2
OCTAGONP
 10
97.7900
 20
53.3400
 30
0.0000
 41
1.6764
 42
1.6764
 43
1.0000
 50
270.0000
  0
CIRCLE
  8
44
 10
97.7900
 20
53.3400
 30
0.0000
 40
0.5500
  0
INSERT
  8
17
  2
OCTAGONP
 10
95.2500
 20
50.8000
 30
0.0000
 41
1.6764
 42
1.6764
 43
1.0000
 50
270.0000
  0
INSERT
  8
17
  2
OCTAGONP
 10
95.2500
 20
50.8000
 30
0.0000
 41
1.6764
 42
1.6764
 43
1.0000
 50
270.0000
  0
CIRCLE
  8
44
 10
95.2500
 20
50.8000
 30
0.0000
 40
0.5500
  0
INSERT
  8
17
  2
OCTAGONP
 10
97.7900
 20
50.8000
 30
0.0000
 41
1.6764
 42
1.6764
 43
1.0000
 50
270.0000
  0
INSERT
  8
17
  2
OCTAGONP
 10
97.7900
 20
50.8000
 30
0.0000
 41
1.6764
 42
1.6764
 43
1.0000
 50
270.0000
  0
CIRCLE
  8
44
 10
97.7900
 20
50.8000
 30
0.0000
 40
0.5500
  0
INSERT
  8
17
  2
OCTAGONP
 10
9.8425
 20
39.0525
 30
0.0000
 41
1.6764
 42
1.6764
 43
1.0000
 50
90.0000
  0
INSERT
  8
17
  2
OCTAGONP
 10
9.8425
 20
39.0525
 30
0.0000
 41
1.6764
 42
1.6764
 43
1.0000
 50
90.0000
  0
CIRCLE
  8
44
 10
9.8425
 20
39.0525
 30
0.0000
 40
0.5500
  0
INSERT
  8
17
  2
OCTAGONP
 10
7.3025
 20
39.0525
 30
0.0000
 41
1.6764
 42
1.6764
 43
1.0000
 50
90.0000
  0
INSERT
  8
17
  2
OCTAGONP
 10
7.3025
 20
39.0525
 30
0.0000
 41
1.6764
 42
1.6764
 43
1.0000
 50
90.0000
  0
CIRCLE
  8
44
 10
7.3025
 20
39.0525
 30
0.0000
 40
0.5500
  0
INSERT
  8
17
  2
OCTAGONP
 10
9.8425
 20
41.5925
 30
0.0000
 41
1.6764
 42
1.6764
 43
1.0000
 50
90.0000
  0
INSERT
  8
17
  2
OCTAGONP
 10
9.8425
 20
41.5925
 30
0.0000
 41
1.6764
 42
1.6764
 43
1.0000
 50
90.0000
  0
CIRCLE
  8
44
 10
9.8425
 20
41.5925
 30
0.0000
 40
0.5500
  0
INSERT
  8
17
  2
OCTAGONP
 10
7.3025
 20
41.5925
 30
0.0000
 41
1.6764
 42
1.6764
 43
1.0000
 50
90.0000
  0
INSERT
  8
17
  2
OCTAGONP
 10
7.3025
 20
41.5925
 30
0.0000
 41
1.6764
 42
1.6764
 43
1.0000
 50
90.0000
  0
CIRCLE
  8
44
 10
7.3025
 20
41.5925
 30
0.0000
 40
0.5500
  0
INSERT
  8
17
  2
OCTAGONP
 10
9.8425
 20
44.1325
 30
0.0000
 41
1.6764
 42
1.6764
 43
1.0000
 50
90.0000
  0
INSERT
  8
17
  2
OCTAGONP
 10
9.8425
 20
44.1325
 30
0.0000
 41
1.6764
 42
1.6764
 43
1.0000
 50
90.0000
  0
CIRCLE
  8
44
 10
9.8425
 20
44.1325
 30
0.0000
 40
0.5500
  0
INSERT
  8
17
  2
OCTAGONP
 10
7.3025
 20
44.1325
 30
0.0000
 41
1.6764
 42
1.6764
 43
1.0000
 50
90.0000
  0
INSERT
  8
17
  2
OCTAGONP
 10
7.3025
 20
44.1325
 30
0.0000
 41
1.6764
 42
1.6764
 43
1.0000
 50
90.0000
  0
CIRCLE
  8
44
 10
7.3025
 20
44.1325
 30
0.0000
 40
0.5500
  0
INSERT
  8
17
  2
OCTAGONP
 10
9.8425
 20
46.6725
 30
0.0000
 41
1.6764
 42
1.6764
 43
1.0000
 50
90.0000
  0
INSERT
  8
17
  2
OCTAGONP
 10
9.8425
 20
46.6725
 30
0.0000
 41
1.6764
 42
1.6764
 43
1.0000
 50
90.0000
  0
CIRCLE
  8
44
 10
9.8425
 20
46.6725
 30
0.0000
 40
0.5500
  0
INSERT
  8
17
  2
OCTAGONP
 10
7.3025
 20
46.6725
 30
0.0000
 41
1.6764
 42
1.6764
 43
1.0000
 50
90.0000
  0
INSERT
  8
17
  2
OCTAGONP
 10
7.3025
 20
46.6725
 30
0.0000
 41
1.6764
 42
1.6764
 43
1.0000
 50
90.0000
  0
CIRCLE
  8
44
 10
7.3025
 20
46.6725
 30
0.0000
 40
0.5500
  0
INSERT
  8
17
  2
OCTAGONP
 10
9.8425
 20
49.2125
 30
0.0000
 41
1.6764
 42
1.6764
 43
1.0000
 50
90.0000
  0
INSERT
  8
17
  2
OCTAGONP
 10
9.8425
 20
49.2125
 30
0.0000
 41
1.6764
 42
1.6764
 43
1.0000
 50
90.0000
  0
CIRCLE
  8
44
 10
9.8425
 20
49.2125
 30
0.0000
 40
0.5500
  0
INSERT
  8
17
  2
OCTAGONP
 10
7.3025
 20
49.2125
 30
0.0000
 41
1.6764
 42
1.6764
 43
1.0000
 50
90.0000
  0
INSERT
  8
17
  2
OCTAGONP
 10
7.3025
 20
49.2125
 30
0.0000
 41
1.6764
 42
1.6764
 43
1.0000
 50
90.0000
  0
CIRCLE
  8
44
 10
7.3025
 20
49.2125
 30
0.0000
 40
0.5500
  0
INSERT
  8
17
  2
LONGP100
 10
22.2250
 20
23.8125
 30
0.0000
 41
1.4080
 42
1.4080
 43
1.0000
 50
90.0000
  0
INSERT
  8
17
  2
LONGP100
 10
22.2250
 20
23.8125
 30
0.0000
 41
1.4080
 42
1.4080
 43
1.0000
 50
90.0000
  0
CIRCLE
  8
44
 10
22.2250
 20
23.8125
 30
0.0000
 40
0.4500
  0
INSERT
  8
17
  2
LONGP100
 10
17.1450
 20
23.8125
 30
0.0000
 41
1.4080
 42
1.4080
 43
1.0000
 50
90.0000
  0
INSERT
  8
17
  2
LONGP100
 10
17.1450
 20
23.8125
 30
0.0000
 41
1.4080
 42
1.4080
 43
1.0000
 50
90.0000
  0
CIRCLE
  8
44
 10
17.1450
 20
23.8125
 30
0.0000
 40
0.4500
  0
INSERT
  8
17
  2
LONGP100
 10
19.6850
 20
23.8125
 30
0.0000
 41
1.4080
 42
1.4080
 43
1.0000
 50
90.0000
  0
INSERT
  8
17
  2
LONGP100
 10
19.6850
 20
23.8125
 30
0.0000
 41
1.4080
 42
1.4080
 43
1.0000
 50
90.0000
  0
CIRCLE
  8
44
 10
19.6850
 20
23.8125
 30
0.0000
 40
0.4500
  0
INSERT
  8
17
  2
LONGP100
 10
67.3100
 20
101.6000
 30
0.0000
 41
1.4080
 42
1.4080
 43
1.0000
 50
0.0000
  0
INSERT
  8
17
  2
LONGP100
 10
67.3100
 20
101.6000
 30
0.0000
 41
1.4080
 42
1.4080
 43
1.0000
 50
0.0000
  0
CIRCLE
  8
44
 10
67.3100
 20
101.6000
 30
0.0000
 40
0.4500
  0
INSERT
  8
17
  2
LONGP100
 10
67.3100
 20
99.0600
 30
0.0000
 41
1.4080
 42
1.4080
 43
1.0000
 50
0.0000
  0
INSERT
  8
17
  2
LONGP100
 10
67.3100
 20
99.0600
 30
0.0000
 41
1.4080
 42
1.4080
 43
1.0000
 50
0.0000
  0
CIRCLE
  8
44
 10
67.3100
 20
99.0600
 30
0.0000
 40
0.4500
  0
INSERT
  8
17
  2
LONGP100
 10
67.3100
 20
96.5200
 30
0.0000
 41
1.4080
 42
1.4080
 43
1.0000
 50
0.0000
  0
INSERT
  8
17
  2
LONGP100
 10
67.3100
 20
96.5200
 30
0.0000
 41
1.4080
 42
1.4080
 43
1.0000
 50
0.0000
  0
CIRCLE
  8
44
 10
67.3100
 20
96.5200
 30
0.0000
 40
0.4500
  0
INSERT
  8
17
  2
LONGP100
 10
74.9300
 20
96.5200
 30
0.0000
 41
1.4080
 42
1.4080
 43
1.0000
 50
0.0000
  0
INSERT
  8
17
  2
LONGP100
 10
74.9300
 20
96.5200
 30
0.0000
 41
1.4080
 42
1.4080
 43
1.0000
 50
0.0000
  0
CIRCLE
  8
44
 10
74.9300
 20
96.5200
 30
0.0000
 40
0.4500
  0
INSERT
  8
17
  2
LONGP100
 10
74.9300
 20
99.0600
 30
0.0000
 41
1.4080
 42
1.4080
 43
1.0000
 50
0.0000
  0
INSERT
  8
17
  2
LONGP100
 10
74.9300
 20
99.0600
 30
0.0000
 41
1.4080
 42
1.4080
 43
1.0000
 50
0.0000
  0
CIRCLE
  8
44
 10
74.9300
 20
99.0600
 30
0.0000
 40
0.4500
  0
INSERT
  8
17
  2
LONGP100
 10
74.9300
 20
101.6000
 30
0.0000
 41
1.4080
 42
1.4080
 43
1.0000
 50
0.0000
  0
INSERT
  8
17
  2
LONGP100
 10
74.9300
 20
101.6000
 30
0.0000
 41
1.4080
 42
1.4080
 43
1.0000
 50
0.0000
  0
CIRCLE
  8
44
 10
74.9300
 20
101.6000
 30
0.0000
 40
0.4500
  0
INSERT
  8
17
  2
LONGP100
 10
67.3100
 20
81.2800
 30
0.0000
 41
1.4080
 42
1.4080
 43
1.0000
 50
0.0000
  0
INSERT
  8
17
  2
LONGP100
 10
67.3100
 20
81.2800
 30
0.0000
 41
1.4080
 42
1.4080
 43
1.0000
 50
0.0000
  0
CIRCLE
  8
44
 10
67.3100
 20
81.2800
 30
0.0000
 40
0.4500
  0
INSERT
  8
17
  2
LONGP100
 10
67.3100
 20
78.7400
 30
0.0000
 41
1.4080
 42
1.4080
 43
1.0000
 50
0.0000
  0
INSERT
  8
17
  2
LONGP100
 10
67.3100
 20
78.7400
 30
0.0000
 41
1.4080
 42
1.4080
 43
1.0000
 50
0.0000
  0
CIRCLE
  8
44
 10
67.3100
 20
78.7400
 30
0.0000
 40
0.4500
  0
INSERT
  8
17
  2
LONGP100
 10
67.3100
 20
76.2000
 30
0.0000
 41
1.4080
 42
1.4080
 43
1.0000
 50
0.0000
  0
INSERT
  8
17
  2
LONGP100
 10
67.3100
 20
76.2000
 30
0.0000
 41
1.4080
 42
1.4080
 43
1.0000
 50
0.0000
  0
CIRCLE
  8
44
 10
67.3100
 20
76.2000
 30
0.0000
 40
0.4500
  0
INSERT
  8
17
  2
LONGP100
 10
74.9300
 20
76.2000
 30
0.0000
 41
1.4080
 42
1.4080
 43
1.0000
 50
0.0000
  0
INSERT
  8
17
  2
LONGP100
 10
74.9300
 20
76.2000
 30
0.0000
 41
1.4080
 42
1.4080
 43
1.0000
 50
0.0000
  0
CIRCLE
  8
44
 10
74.9300
 20
76.2000
 30
0.0000
 40
0.4500
  0
INSERT
  8
17
  2
LONGP100
 10
74.9300
 20
78.7400
 30
0.0000
 41
1.4080
 42
1.4080
 43
1.0000
 50
0.0000
  0
INSERT
  8
17
  2
LONGP100
 10
74.9300
 20
78.7400
 30
0.0000
 41
1.4080
 42
1.4080
 43
1.0000
 50
0.0000
  0
CIRCLE
  8
44
 10
74.9300
 20
78.7400
 30
0.0000
 40
0.4500
  0
INSERT
  8
17
  2
LONGP100
 10
74.9300
 20
81.2800
 30
0.0000
 41
1.4080
 42
1.4080
 43
1.0000
 50
0.0000
  0
INSERT
  8
17
  2
LONGP100
 10
74.9300
 20
81.2800
 30
0.0000
 41
1.4080
 42
1.4080
 43
1.0000
 50
0.0000
  0
CIRCLE
  8
44
 10
74.9300
 20
81.2800
 30
0.0000
 40
0.4500
  0
INSERT
  8
17
  2
LONGP100
 10
67.3100
 20
60.9600
 30
0.0000
 41
1.4080
 42
1.4080
 43
1.0000
 50
0.0000
  0
INSERT
  8
17
  2
LONGP100
 10
67.3100
 20
60.9600
 30
0.0000
 41
1.4080
 42
1.4080
 43
1.0000
 50
0.0000
  0
CIRCLE
  8
44
 10
67.3100
 20
60.9600
 30
0.0000
 40
0.4500
  0
INSERT
  8
17
  2
LONGP100
 10
67.3100
 20
58.4200
 30
0.0000
 41
1.4080
 42
1.4080
 43
1.0000
 50
0.0000
  0
INSERT
  8
17
  2
LONGP100
 10
67.3100
 20
58.4200
 30
0.0000
 41
1.4080
 42
1.4080
 43
1.0000
 50
0.0000
  0
CIRCLE
  8
44
 10
67.3100
 20
58.4200
 30
0.0000
 40
0.4500
  0
INSERT
  8
17
  2
LONGP100
 10
67.3100
 20
55.8800
 30
0.0000
 41
1.4080
 42
1.4080
 43
1.0000
 50
0.0000
  0
INSERT
  8
17
  2
LONGP100
 10
67.3100
 20
55.8800
 30
0.0000
 41
1.4080
 42
1.4080
 43
1.0000
 50
0.0000
  0
CIRCLE
  8
44
 10
67.3100
 20
55.8800
 30
0.0000
 40
0.4500
  0
INSERT
  8
17
  2
LONGP100
 10
74.9300
 20
55.8800
 30
0.0000
 41
1.4080
 42
1.4080
 43
1.0000
 50
0.0000
  0
INSERT
  8
17
  2
LONGP100
 10
74.9300
 20
55.8800
 30
0.0000
 41
1.4080
 42
1.4080
 43
1.0000
 50
0.0000
  0
CIRCLE
  8
44
 10
74.9300
 20
55.8800
 30
0.0000
 40
0.4500
  0
INSERT
  8
17
  2
LONGP100
 10
74.9300
 20
58.4200
 30
0.0000
 41
1.4080
 42
1.4080
 43
1.0000
 50
0.0000
  0
INSERT
  8
17
  2
LONGP100
 10
74.9300
 20
58.4200
 30
0.0000
 41
1.4080
 42
1.4080
 43
1.0000
 50
0.0000
  0
CIRCLE
  8
44
 10
74.9300
 20
58.4200
 30
0.0000
 40
0.4500
  0
INSERT
  8
17
  2
LONGP100
 10
74.9300
 20
60.9600
 30
0.0000
 41
1.4080
 42
1.4080
 43
1.0000
 50
0.0000
  0
INSERT
  8
17
  2
LONGP100
 10
74.9300
 20
60.9600
 30
0.0000
 41
1.4080
 42
1.4080
 43
1.0000
 50
0.0000
  0
CIRCLE
  8
44
 10
74.9300
 20
60.9600
 30
0.0000
 40
0.4500
  0
INSERT
  8
17
  2
LONGP100
 10
67.3100
 20
40.6400
 30
0.0000
 41
1.4080
 42
1.4080
 43
1.0000
 50
0.0000
  0
INSERT
  8
17
  2
LONGP100
 10
67.3100
 20
40.6400
 30
0.0000
 41
1.4080
 42
1.4080
 43
1.0000
 50
0.0000
  0
CIRCLE
  8
44
 10
67.3100
 20
40.6400
 30
0.0000
 40
0.4500
  0
INSERT
  8
17
  2
LONGP100
 10
67.3100
 20
38.1000
 30
0.0000
 41
1.4080
 42
1.4080
 43
1.0000
 50
0.0000
  0
INSERT
  8
17
  2
LONGP100
 10
67.3100
 20
38.1000
 30
0.0000
 41
1.4080
 42
1.4080
 43
1.0000
 50
0.0000
  0
CIRCLE
  8
44
 10
67.3100
 20
38.1000
 30
0.0000
 40
0.4500
  0
INSERT
  8
17
  2
LONGP100
 10
67.3100
 20
35.5600
 30
0.0000
 41
1.4080
 42
1.4080
 43
1.0000
 50
0.0000
  0
INSERT
  8
17
  2
LONGP100
 10
67.3100
 20
35.5600
 30
0.0000
 41
1.4080
 42
1.4080
 43
1.0000
 50
0.0000
  0
CIRCLE
  8
44
 10
67.3100
 20
35.5600
 30
0.0000
 40
0.4500
  0
INSERT
  8
17
  2
LONGP100
 10
74.9300
 20
35.5600
 30
0.0000
 41
1.4080
 42
1.4080
 43
1.0000
 50
0.0000
  0
INSERT
  8
17
  2
LONGP100
 10
74.9300
 20
35.5600
 30
0.0000
 41
1.4080
 42
1.4080
 43
1.0000
 50
0.0000
  0
CIRCLE
  8
44
 10
74.9300
 20
35.5600
 30
0.0000
 40
0.4500
  0
INSERT
  8
17
  2
LONGP100
 10
74.9300
 20
38.1000
 30
0.0000
 41
1.4080
 42
1.4080
 43
1.0000
 50
0.0000
  0
INSERT
  8
17
  2
LONGP100
 10
74.9300
 20
38.1000
 30
0.0000
 41
1.4080
 42
1.4080
 43
1.0000
 50
0.0000
  0
CIRCLE
  8
44
 10
74.9300
 20
38.1000
 30
0.0000
 40
0.4500
  0
INSERT
  8
17
  2
LONGP100
 10
74.9300
 20
40.6400
 30
0.0000
 41
1.4080
 42
1.4080
 43
1.0000
 50
0.0000
  0
INSERT
  8
17
  2
LONGP100
 10
74.9300
 20
40.6400
 30
0.0000
 41
1.4080
 42
1.4080
 43
1.0000
 50
0.0000
  0
CIRCLE
  8
44
 10
74.9300
 20
40.6400
 30
0.0000
 40
0.4500
  0
INSERT
  8
17
  2
LONGP100
 10
67.3100
 20
20.3200
 30
0.0000
 41
1.4080
 42
1.4080
 43
1.0000
 50
0.0000
  0
INSERT
  8
17
  2
LONGP100
 10
67.3100
 20
20.3200
 30
0.0000
 41
1.4080
 42
1.4080
 43
1.0000
 50
0.0000
  0
CIRCLE
  8
44
 10
67.3100
 20
20.3200
 30
0.0000
 40
0.4500
  0
INSERT
  8
17
  2
LONGP100
 10
67.3100
 20
17.7800
 30
0.0000
 41
1.4080
 42
1.4080
 43
1.0000
 50
0.0000
  0
INSERT
  8
17
  2
LONGP100
 10
67.3100
 20
17.7800
 30
0.0000
 41
1.4080
 42
1.4080
 43
1.0000
 50
0.0000
  0
CIRCLE
  8
44
 10
67.3100
 20
17.7800
 30
0.0000
 40
0.4500
  0
INSERT
  8
17
  2
LONGP100
 10
67.3100
 20
15.2400
 30
0.0000
 41
1.4080
 42
1.4080
 43
1.0000
 50
0.0000
  0
INSERT
  8
17
  2
LONGP100
 10
67.3100
 20
15.2400
 30
0.0000
 41
1.4080
 42
1.4080
 43
1.0000
 50
0.0000
  0
CIRCLE
  8
44
 10
67.3100
 20
15.2400
 30
0.0000
 40
0.4500
  0
INSERT
  8
17
  2
LONGP100
 10
74.9300
 20
15.2400
 30
0.0000
 41
1.4080
 42
1.4080
 43
1.0000
 50
0.0000
  0
INSERT
  8
17
  2
LONGP100
 10
74.9300
 20
15.2400
 30
0.0000
 41
1.4080
 42
1.4080
 43
1.0000
 50
0.0000
  0
CIRCLE
  8
44
 10
74.9300
 20
15.2400
 30
0.0000
 40
0.4500
  0
INSERT
  8
17
  2
LONGP100
 10
74.9300
 20
17.7800
 30
0.0000
 41
1.4080
 42
1.4080
 43
1.0000
 50
0.0000
  0
INSERT
  8
17
  2
LONGP100
 10
74.9300
 20
17.7800
 30
0.0000
 41
1.4080
 42
1.4080
 43
1.0000
 50
0.0000
  0
CIRCLE
  8
44
 10
74.9300
 20
17.7800
 30
0.0000
 40
0.4500
  0
INSERT
  8
17
  2
LONGP100
 10
74.9300
 20
20.3200
 30
0.0000
 41
1.4080
 42
1.4080
 43
1.0000
 50
0.0000
  0
INSERT
  8
17
  2
LONGP100
 10
74.9300
 20
20.3200
 30
0.0000
 41
1.4080
 42
1.4080
 43
1.0000
 50
0.0000
  0
CIRCLE
  8
44
 10
74.9300
 20
20.3200
 30
0.0000
 40
0.4500
  0
INSERT
  8
17
  2
OCTAGONP
 10
13.2825
 20
64.4725
 30
0.0000
 41
1.6500
 42
1.6500
 43
1.0000
 50
270.0000
  0
INSERT
  8
17
  2
OCTAGONP
 10
13.2825
 20
64.4725
 30
0.0000
 41
1.6500
 42
1.6500
 43
1.0000
 50
270.0000
  0
CIRCLE
  8
44
 10
13.2825
 20
64.4725
 30
0.0000
 40
0.5500
  0
INSERT
  8
17
  2
OCTAGONP
 10
13.2825
 20
66.9725
 30
0.0000
 41
1.6500
 42
1.6500
 43
1.0000
 50
270.0000
  0
INSERT
  8
17
  2
OCTAGONP
 10
13.2825
 20
66.9725
 30
0.0000
 41
1.6500
 42
1.6500
 43
1.0000
 50
270.0000
  0
CIRCLE
  8
44
 10
13.2825
 20
66.9725
 30
0.0000
 40
0.5500
  0
INSERT
  8
17
  2
OCTAGONP
 10
11.2825
 20
66.9725
 30
0.0000
 41
1.6500
 42
1.6500
 43
1.0000
 50
270.0000
  0
INSERT
  8
17
  2
OCTAGONP
 10
11.2825
 20
66.9725
 30
0.0000
 41
1.6500
 42
1.6500
 43
1.0000
 50
270.0000
  0
CIRCLE
  8
44
 10
11.2825
 20
66.9725
 30
0.0000
 40
0.5500
  0
INSERT
  8
17
  2
OCTAGONP
 10
11.2825
 20
64.4725
 30
0.0000
 41
1.6500
 42
1.6500
 43
1.0000
 50
270.0000
  0
INSERT
  8
17
  2
OCTAGONP
 10
11.2825
 20
64.4725
 30
0.0000
 41
1.6500
 42
1.6500
 43
1.0000
 50
270.0000
  0
CIRCLE
  8
44
 10
11.2825
 20
64.4725
 30
0.0000
 40
0.5500
  0
INSERT
  8
17
  2
ROUNDP
 10
8.5725
 20
71.7425
 30
0.0000
 41
3.4160
 42
3.4160
 43
1.0000
 50
270.0000
  0
INSERT
  8
17
  2
ROUNDP
 10
8.5725
 20
71.7425
 30
0.0000
 41
3.4160
 42
3.4160
 43
1.0000
 50
270.0000
  0
CIRCLE
  8
44
 10
8.5725
 20
71.7425
 30
0.0000
 40
1.2000
  0
INSERT
  8
17
  2
ROUNDP
 10
8.5725
 20
59.7025
 30
0.0000
 41
3.4160
 42
3.4160
 43
1.0000
 50
270.0000
  0
INSERT
  8
17
  2
ROUNDP
 10
8.5725
 20
59.7025
 30
0.0000
 41
3.4160
 42
3.4160
 43
1.0000
 50
270.0000
  0
CIRCLE
  8
44
 10
8.5725
 20
59.7025
 30
0.0000
 40
1.2000
  0
INSERT
  8
17
  2
OCTAGONP
 10
32.6225
 20
117.7925
 30
0.0000
 41
3.0000
 42
3.0000
 43
1.0000
 50
180.0000
  0
INSERT
  8
17
  2
OCTAGONP
 10
32.6225
 20
117.7925
 30
0.0000
 41
3.0000
 42
3.0000
 43
1.0000
 50
180.0000
  0
CIRCLE
  8
44
 10
32.6225
 20
117.7925
 30
0.0000
 40
0.7500
  0
INSERT
  8
17
  2
OCTAGONP
 10
27.6225
 20
117.7925
 30
0.0000
 41
3.0000
 42
3.0000
 43
1.0000
 50
180.0000
  0
INSERT
  8
17
  2
OCTAGONP
 10
27.6225
 20
117.7925
 30
0.0000
 41
3.0000
 42
3.0000
 43
1.0000
 50
180.0000
  0
CIRCLE
  8
44
 10
27.6225
 20
117.7925
 30
0.0000
 40
0.7500
  0
INSERT
  8
17
  2
OCTAGONP
 10
22.6225
 20
117.7925
 30
0.0000
 41
3.0000
 42
3.0000
 43
1.0000
 50
180.0000
  0
INSERT
  8
17
  2
OCTAGONP
 10
22.6225
 20
117.7925
 30
0.0000
 41
3.0000
 42
3.0000
 43
1.0000
 50
180.0000
  0
CIRCLE
  8
44
 10
22.6225
 20
117.7925
 30
0.0000
 40
0.7500
  0
INSERT
  8
17
  2
OCTAGONP
 10
47.7037
 20
117.7925
 30
0.0000
 41
3.0000
 42
3.0000
 43
1.0000
 50
180.0000
  0
INSERT
  8
17
  2
OCTAGONP
 10
47.7037
 20
117.7925
 30
0.0000
 41
3.0000
 42
3.0000
 43
1.0000
 50
180.0000
  0
CIRCLE
  8
44
 10
47.7037
 20
117.7925
 30
0.0000
 40
0.7500
  0
INSERT
  8
17
  2
OCTAGONP
 10
42.7037
 20
117.7925
 30
0.0000
 41
3.0000
 42
3.0000
 43
1.0000
 50
180.0000
  0
INSERT
  8
17
  2
OCTAGONP
 10
42.7037
 20
117.7925
 30
0.0000
 41
3.0000
 42
3.0000
 43
1.0000
 50
180.0000
  0
CIRCLE
  8
44
 10
42.7037
 20
117.7925
 30
0.0000
 40
0.7500
  0
INSERT
  8
17
  2
OCTAGONP
 10
37.7037
 20
117.7925
 30
0.0000
 41
3.0000
 42
3.0000
 43
1.0000
 50
180.0000
  0
INSERT
  8
17
  2
OCTAGONP
 10
37.7037
 20
117.7925
 30
0.0000
 41
3.0000
 42
3.0000
 43
1.0000
 50
180.0000
  0
CIRCLE
  8
44
 10
37.7037
 20
117.7925
 30
0.0000
 40
0.7500
  0
INSERT
  8
17
  2
OCTAGONP
 10
94.2975
 20
120.0150
 30
0.0000
 41
3.8100
 42
3.8100
 43
1.0000
 50
270.0000
  0
INSERT
  8
17
  2
OCTAGONP
 10
94.2975
 20
120.0150
 30
0.0000
 41
3.8100
 42
3.8100
 43
1.0000
 50
270.0000
  0
CIRCLE
  8
44
 10
94.2975
 20
120.0150
 30
0.0000
 40
0.7500
  0
INSERT
  8
17
  2
OCTAGONP
 10
94.2975
 20
112.3950
 30
0.0000
 41
3.8100
 42
3.8100
 43
1.0000
 50
270.0000
  0
INSERT
  8
17
  2
OCTAGONP
 10
94.2975
 20
112.3950
 30
0.0000
 41
3.8100
 42
3.8100
 43
1.0000
 50
270.0000
  0
CIRCLE
  8
44
 10
94.2975
 20
112.3950
 30
0.0000
 40
0.7500
  0
INSERT
  8
17
  2
LONGP100
 10
96.3612
 20
99.0600
 30
0.0000
 41
1.6500
 42
1.6500
 43
1.0000
 50
0.0000
  0
INSERT
  8
17
  2
LONGP100
 10
96.3612
 20
99.0600
 30
0.0000
 41
1.6500
 42
1.6500
 43
1.0000
 50
0.0000
  0
CIRCLE
  8
44
 10
96.3612
 20
99.0600
 30
0.0000
 40
0.5500
  0
INSERT
  8
17
  2
LONGP100
 10
96.3612
 20
96.5200
 30
0.0000
 41
1.6500
 42
1.6500
 43
1.0000
 50
0.0000
  0
INSERT
  8
17
  2
LONGP100
 10
96.3612
 20
96.5200
 30
0.0000
 41
1.6500
 42
1.6500
 43
1.0000
 50
0.0000
  0
CIRCLE
  8
44
 10
96.3612
 20
96.5200
 30
0.0000
 40
0.5500
  0
INSERT
  8
17
  2
LONGP100
 10
96.3612
 20
93.9800
 30
0.0000
 41
1.6500
 42
1.6500
 43
1.0000
 50
0.0000
  0
INSERT
  8
17
  2
LONGP100
 10
96.3612
 20
93.9800
 30
0.0000
 41
1.6500
 42
1.6500
 43
1.0000
 50
0.0000
  0
CIRCLE
  8
44
 10
96.3612
 20
93.9800
 30
0.0000
 40
0.5500
  0
INSERT
  8
17
  2
LONGP100
 10
96.3612
 20
91.4400
 30
0.0000
 41
1.6500
 42
1.6500
 43
1.0000
 50
0.0000
  0
INSERT
  8
17
  2
LONGP100
 10
96.3612
 20
91.4400
 30
0.0000
 41
1.6500
 42
1.6500
 43
1.0000
 50
0.0000
  0
CIRCLE
  8
44
 10
96.3612
 20
91.4400
 30
0.0000
 40
0.5500
  0
INSERT
  8
17
  2
LONGP100
 10
96.3612
 20
78.7400
 30
0.0000
 41
1.6500
 42
1.6500
 43
1.0000
 50
0.0000
  0
INSERT
  8
17
  2
LONGP100
 10
96.3612
 20
78.7400
 30
0.0000
 41
1.6500
 42
1.6500
 43
1.0000
 50
0.0000
  0
CIRCLE
  8
44
 10
96.3612
 20
78.7400
 30
0.0000
 40
0.5500
  0
INSERT
  8
17
  2
LONGP100
 10
96.3612
 20
76.2000
 30
0.0000
 41
1.6500
 42
1.6500
 43
1.0000
 50
0.0000
  0
INSERT
  8
17
  2
LONGP100
 10
96.3612
 20
76.2000
 30
0.0000
 41
1.6500
 42
1.6500
 43
1.0000
 50
0.0000
  0
CIRCLE
  8
44
 10
96.3612
 20
76.2000
 30
0.0000
 40
0.5500
  0
INSERT
  8
17
  2
LONGP100
 10
96.3612
 20
73.6600
 30
0.0000
 41
1.6500
 42
1.6500
 43
1.0000
 50
0.0000
  0
INSERT
  8
17
  2
LONGP100
 10
96.3612
 20
73.6600
 30
0.0000
 41
1.6500
 42
1.6500
 43
1.0000
 50
0.0000
  0
CIRCLE
  8
44
 10
96.3612
 20
73.6600
 30
0.0000
 40
0.5500
  0
INSERT
  8
17
  2
LONGP100
 10
96.3612
 20
71.1200
 30
0.0000
 41
1.6500
 42
1.6500
 43
1.0000
 50
0.0000
  0
INSERT
  8
17
  2
LONGP100
 10
96.3612
 20
71.1200
 30
0.0000
 41
1.6500
 42
1.6500
 43
1.0000
 50
0.0000
  0
CIRCLE
  8
44
 10
96.3612
 20
71.1200
 30
0.0000
 40
0.5500
  0
INSERT
  8
17
  2
LONGP100
 10
96.3612
 20
38.1000
 30
0.0000
 41
1.6500
 42
1.6500
 43
1.0000
 50
0.0000
  0
INSERT
  8
17
  2
LONGP100
 10
96.3612
 20
38.1000
 30
0.0000
 41
1.6500
 42
1.6500
 43
1.0000
 50
0.0000
  0
CIRCLE
  8
44
 10
96.3612
 20
38.1000
 30
0.0000
 40
0.5500
  0
INSERT
  8
17
  2
LONGP100
 10
96.3612
 20
35.5600
 30
0.0000
 41
1.6500
 42
1.6500
 43
1.0000
 50
0.0000
  0
INSERT
  8
17
  2
LONGP100
 10
96.3612
 20
35.5600
 30
0.0000
 41
1.6500
 42
1.6500
 43
1.0000
 50
0.0000
  0
CIRCLE
  8
44
 10
96.3612
 20
35.5600
 30
0.0000
 40
0.5500
  0
INSERT
  8
17
  2
LONGP100
 10
96.3612
 20
33.0200
 30
0.0000
 41
1.6500
 42
1.6500
 43
1.0000
 50
0.0000
  0
INSERT
  8
17
  2
LONGP100
 10
96.3612
 20
33.0200
 30
0.0000
 41
1.6500
 42
1.6500
 43
1.0000
 50
0.0000
  0
CIRCLE
  8
44
 10
96.3612
 20
33.0200
 30
0.0000
 40
0.5500
  0
INSERT
  8
17
  2
LONGP100
 10
96.3612
 20
30.4800
 30
0.0000
 41
1.6500
 42
1.6500
 43
1.0000
 50
0.0000
  0
INSERT
  8
17
  2
LONGP100
 10
96.3612
 20
30.4800
 30
0.0000
 41
1.6500
 42
1.6500
 43
1.0000
 50
0.0000
  0
CIRCLE
  8
44
 10
96.3612
 20
30.4800
 30
0.0000
 40
0.5500
  0
INSERT
  8
17
  2
LONGP100
 10
96.3612
 20
17.7800
 30
0.0000
 41
1.6500
 42
1.6500
 43
1.0000
 50
0.0000
  0
INSERT
  8
17
  2
LONGP100
 10
96.3612
 20
17.7800
 30
0.0000
 41
1.6500
 42
1.6500
 43
1.0000
 50
0.0000
  0
CIRCLE
  8
44
 10
96.3612
 20
17.7800
 30
0.0000
 40
0.5500
  0
INSERT
  8
17
  2
LONGP100
 10
96.3612
 20
15.2400
 30
0.0000
 41
1.6500
 42
1.6500
 43
1.0000
 50
0.0000
  0
INSERT
  8
17
  2
LONGP100
 10
96.3612
 20
15.2400
 30
0.0000
 41
1.6500
 42
1.6500
 43
1.0000
 50
0.0000
  0
CIRCLE
  8
44
 10
96.3612
 20
15.2400
 30
0.0000
 40
0.5500
  0
INSERT
  8
17
  2
LONGP100
 10
96.3612
 20
12.7000
 30
0.0000
 41
1.6500
 42
1.6500
 43
1.0000
 50
0.0000
  0
INSERT
  8
17
  2
LONGP100
 10
96.3612
 20
12.7000
 30
0.0000
 41
1.6500
 42
1.6500
 43
1.0000
 50
0.0000
  0
CIRCLE
  8
44
 10
96.3612
 20
12.7000
 30
0.0000
 40
0.5500
  0
INSERT
  8
17
  2
LONGP100
 10
96.3612
 20
10.1600
 30
0.0000
 41
1.6500
 42
1.6500
 43
1.0000
 50
0.0000
  0
INSERT
  8
17
  2
LONGP100
 10
96.3612
 20
10.1600
 30
0.0000
 41
1.6500
 42
1.6500
 43
1.0000
 50
0.0000
  0
CIRCLE
  8
44
 10
96.3612
 20
10.1600
 30
0.0000
 40
0.5500
  0
INSERT
  8
17
  2
LONGP100
 10
59.3725
 20
120.6500
 30
0.0000
 41
1.6500
 42
1.6500
 43
1.0000
 50
0.0000
  0
INSERT
  8
17
  2
LONGP100
 10
59.3725
 20
120.6500
 30
0.0000
 41
1.6500
 42
1.6500
 43
1.0000
 50
0.0000
  0
CIRCLE
  8
44
 10
59.3725
 20
120.6500
 30
0.0000
 40
0.5500
  0
INSERT
  8
17
  2
LONGP100
 10
59.3725
 20
118.1100
 30
0.0000
 41
1.6500
 42
1.6500
 43
1.0000
 50
0.0000
  0
INSERT
  8
17
  2
LONGP100
 10
59.3725
 20
118.1100
 30
0.0000
 41
1.6500
 42
1.6500
 43
1.0000
 50
0.0000
  0
CIRCLE
  8
44
 10
59.3725
 20
118.1100
 30
0.0000
 40
0.5500
  0
INSERT
  8
17
  2
OCTAGONP
 10
20.9550
 20
32.0675
 30
0.0000
 41
1.6764
 42
1.6764
 43
1.0000
 50
90.0000
  0
INSERT
  8
17
  2
OCTAGONP
 10
20.9550
 20
32.0675
 30
0.0000
 41
1.6764
 42
1.6764
 43
1.0000
 50
90.0000
  0
CIRCLE
  8
44
 10
20.9550
 20
32.0675
 30
0.0000
 40
0.5500
  0
INSERT
  8
17
  2
OCTAGONP
 10
18.4150
 20
32.0675
 30
0.0000
 41
1.6764
 42
1.6764
 43
1.0000
 50
90.0000
  0
INSERT
  8
17
  2
OCTAGONP
 10
18.4150
 20
32.0675
 30
0.0000
 41
1.6764
 42
1.6764
 43
1.0000
 50
90.0000
  0
CIRCLE
  8
44
 10
18.4150
 20
32.0675
 30
0.0000
 40
0.5500
  0
INSERT
  8
17
  2
OCTAGONP
 10
20.9550
 20
34.6075
 30
0.0000
 41
1.6764
 42
1.6764
 43
1.0000
 50
90.0000
  0
INSERT
  8
17
  2
OCTAGONP
 10
20.9550
 20
34.6075
 30
0.0000
 41
1.6764
 42
1.6764
 43
1.0000
 50
90.0000
  0
CIRCLE
  8
44
 10
20.9550
 20
34.6075
 30
0.0000
 40
0.5500
  0
INSERT
  8
17
  2
OCTAGONP
 10
18.4150
 20
34.6075
 30
0.0000
 41
1.6764
 42
1.6764
 43
1.0000
 50
90.0000
  0
INSERT
  8
17
  2
OCTAGONP
 10
18.4150
 20
34.6075
 30
0.0000
 41
1.6764
 42
1.6764
 43
1.0000
 50
90.0000
  0
CIRCLE
  8
44
 10
18.4150
 20
34.6075
 30
0.0000
 40
0.5500
  0
INSERT
  8
17
  2
OCTAGONP
 10
20.9550
 20
37.1475
 30
0.0000
 41
1.6764
 42
1.6764
 43
1.0000
 50
90.0000
  0
INSERT
  8
17
  2
OCTAGONP
 10
20.9550
 20
37.1475
 30
0.0000
 41
1.6764
 42
1.6764
 43
1.0000
 50
90.0000
  0
CIRCLE
  8
44
 10
20.9550
 20
37.1475
 30
0.0000
 40
0.5500
  0
INSERT
  8
17
  2
OCTAGONP
 10
18.4150
 20
37.1475
 30
0.0000
 41
1.6764
 42
1.6764
 43
1.0000
 50
90.0000
  0
INSERT
  8
17
  2
OCTAGONP
 10
18.4150
 20
37.1475
 30
0.0000
 41
1.6764
 42
1.6764
 43
1.0000
 50
90.0000
  0
CIRCLE
  8
44
 10
18.4150
 20
37.1475
 30
0.0000
 40
0.5500
  0
INSERT
  8
17
  2
OCTAGONP
 10
20.9550
 20
39.6875
 30
0.0000
 41
1.6764
 42
1.6764
 43
1.0000
 50
90.0000
  0
INSERT
  8
17
  2
OCTAGONP
 10
20.9550
 20
39.6875
 30
0.0000
 41
1.6764
 42
1.6764
 43
1.0000
 50
90.0000
  0
CIRCLE
  8
44
 10
20.9550
 20
39.6875
 30
0.0000
 40
0.5500
  0
INSERT
  8
17
  2
OCTAGONP
 10
18.4150
 20
39.6875
 30
0.0000
 41
1.6764
 42
1.6764
 43
1.0000
 50
90.0000
  0
INSERT
  8
17
  2
OCTAGONP
 10
18.4150
 20
39.6875
 30
0.0000
 41
1.6764
 42
1.6764
 43
1.0000
 50
90.0000
  0
CIRCLE
  8
44
 10
18.4150
 20
39.6875
 30
0.0000
 40
0.5500
  0
INSERT
  8
17
  2
OCTAGONP
 10
20.9550
 20
42.2275
 30
0.0000
 41
1.6764
 42
1.6764
 43
1.0000
 50
90.0000
  0
INSERT
  8
17
  2
OCTAGONP
 10
20.9550
 20
42.2275
 30
0.0000
 41
1.6764
 42
1.6764
 43
1.0000
 50
90.0000
  0
CIRCLE
  8
44
 10
20.9550
 20
42.2275
 30
0.0000
 40
0.5500
  0
INSERT
  8
17
  2
OCTAGONP
 10
18.4150
 20
42.2275
 30
0.0000
 41
1.6764
 42
1.6764
 43
1.0000
 50
90.0000
  0
INSERT
  8
17
  2
OCTAGONP
 10
18.4150
 20
42.2275
 30
0.0000
 41
1.6764
 42
1.6764
 43
1.0000
 50
90.0000
  0
CIRCLE
  8
44
 10
18.4150
 20
42.2275
 30
0.0000
 40
0.5500
  0
INSERT
  8
17
  2
OCTAGONP
 10
20.9550
 20
44.7675
 30
0.0000
 41
1.6764
 42
1.6764
 43
1.0000
 50
90.0000
  0
INSERT
  8
17
  2
OCTAGONP
 10
20.9550
 20
44.7675
 30
0.0000
 41
1.6764
 42
1.6764
 43
1.0000
 50
90.0000
  0
CIRCLE
  8
44
 10
20.9550
 20
44.7675
 30
0.0000
 40
0.5500
  0
INSERT
  8
17
  2
OCTAGONP
 10
18.4150
 20
44.7675
 30
0.0000
 41
1.6764
 42
1.6764
 43
1.0000
 50
90.0000
  0
INSERT
  8
17
  2
OCTAGONP
 10
18.4150
 20
44.7675
 30
0.0000
 41
1.6764
 42
1.6764
 43
1.0000
 50
90.0000
  0
CIRCLE
  8
44
 10
18.4150
 20
44.7675
 30
0.0000
 40
0.5500
  0
INSERT
  8
17
  2
LONGP100
 10
33.3375
 20
9.8425
 30
0.0000
 41
1.6500
 42
1.6500
 43
1.0000
 50
0.0000
  0
INSERT
  8
17
  2
LONGP100
 10
33.3375
 20
9.8425
 30
0.0000
 41
1.6500
 42
1.6500
 43
1.0000
 50
0.0000
  0
CIRCLE
  8
44
 10
33.3375
 20
9.8425
 30
0.0000
 40
0.5500
  0
INSERT
  8
17
  2
LONGP100
 10
33.3375
 20
7.3025
 30
0.0000
 41
1.6500
 42
1.6500
 43
1.0000
 50
0.0000
  0
INSERT
  8
17
  2
LONGP100
 10
33.3375
 20
7.3025
 30
0.0000
 41
1.6500
 42
1.6500
 43
1.0000
 50
0.0000
  0
CIRCLE
  8
44
 10
33.3375
 20
7.3025
 30
0.0000
 40
0.5500
  0
INSERT
  8
17
  2
LONGP100
 10
33.3375
 20
4.7625
 30
0.0000
 41
1.6500
 42
1.6500
 43
1.0000
 50
0.0000
  0
INSERT
  8
17
  2
LONGP100
 10
33.3375
 20
4.7625
 30
0.0000
 41
1.6500
 42
1.6500
 43
1.0000
 50
0.0000
  0
CIRCLE
  8
44
 10
33.3375
 20
4.7625
 30
0.0000
 40
0.5500
  0
INSERT
  8
17
  2
LONGP100
 10
40.6400
 20
9.8425
 30
0.0000
 41
1.6500
 42
1.6500
 43
1.0000
 50
0.0000
  0
INSERT
  8
17
  2
LONGP100
 10
40.6400
 20
9.8425
 30
0.0000
 41
1.6500
 42
1.6500
 43
1.0000
 50
0.0000
  0
CIRCLE
  8
44
 10
40.6400
 20
9.8425
 30
0.0000
 40
0.5500
  0
INSERT
  8
17
  2
LONGP100
 10
40.6400
 20
7.3025
 30
0.0000
 41
1.6500
 42
1.6500
 43
1.0000
 50
0.0000
  0
INSERT
  8
17
  2
LONGP100
 10
40.6400
 20
7.3025
 30
0.0000
 41
1.6500
 42
1.6500
 43
1.0000
 50
0.0000
  0
CIRCLE
  8
44
 10
40.6400
 20
7.3025
 30
0.0000
 40
0.5500
  0
INSERT
  8
17
  2
LONGP100
 10
40.6400
 20
4.7625
 30
0.0000
 41
1.6500
 42
1.6500
 43
1.0000
 50
0.0000
  0
INSERT
  8
17
  2
LONGP100
 10
40.6400
 20
4.7625
 30
0.0000
 41
1.6500
 42
1.6500
 43
1.0000
 50
0.0000
  0
CIRCLE
  8
44
 10
40.6400
 20
4.7625
 30
0.0000
 40
0.5500
  0
INSERT
  8
17
  2
OCTAGONP
 10
10.7950
 20
93.9800
 30
0.0000
 41
1.6764
 42
1.6764
 43
1.0000
 50
270.0000
  0
INSERT
  8
17
  2
OCTAGONP
 10
10.7950
 20
93.9800
 30
0.0000
 41
1.6764
 42
1.6764
 43
1.0000
 50
270.0000
  0
CIRCLE
  8
44
 10
10.7950
 20
93.9800
 30
0.0000
 40
0.5500
  0
INSERT
  8
17
  2
OCTAGONP
 10
13.3350
 20
93.9800
 30
0.0000
 41
1.6764
 42
1.6764
 43
1.0000
 50
270.0000
  0
INSERT
  8
17
  2
OCTAGONP
 10
13.3350
 20
93.9800
 30
0.0000
 41
1.6764
 42
1.6764
 43
1.0000
 50
270.0000
  0
CIRCLE
  8
44
 10
13.3350
 20
93.9800
 30
0.0000
 40
0.5500
  0
INSERT
  8
17
  2
OCTAGONP
 10
10.7950
 20
91.4400
 30
0.0000
 41
1.6764
 42
1.6764
 43
1.0000
 50
270.0000
  0
INSERT
  8
17
  2
OCTAGONP
 10
10.7950
 20
91.4400
 30
0.0000
 41
1.6764
 42
1.6764
 43
1.0000
 50
270.0000
  0
CIRCLE
  8
44
 10
10.7950
 20
91.4400
 30
0.0000
 40
0.5500
  0
INSERT
  8
17
  2
OCTAGONP
 10
13.3350
 20
91.4400
 30
0.0000
 41
1.6764
 42
1.6764
 43
1.0000
 50
270.0000
  0
INSERT
  8
17
  2
OCTAGONP
 10
13.3350
 20
91.4400
 30
0.0000
 41
1.6764
 42
1.6764
 43
1.0000
 50
270.0000
  0
CIRCLE
  8
44
 10
13.3350
 20
91.4400
 30
0.0000
 40
0.5500
  0
INSERT
  8
17
  2
OCTAGONP
 10
10.7950
 20
88.9000
 30
0.0000
 41
1.6764
 42
1.6764
 43
1.0000
 50
270.0000
  0
INSERT
  8
17
  2
OCTAGONP
 10
10.7950
 20
88.9000
 30
0.0000
 41
1.6764
 42
1.6764
 43
1.0000
 50
270.0000
  0
CIRCLE
  8
44
 10
10.7950
 20
88.9000
 30
0.0000
 40
0.5500
  0
INSERT
  8
17
  2
OCTAGONP
 10
13.3350
 20
88.9000
 30
0.0000
 41
1.6764
 42
1.6764
 43
1.0000
 50
270.0000
  0
INSERT
  8
17
  2
OCTAGONP
 10
13.3350
 20
88.9000
 30
0.0000
 41
1.6764
 42
1.6764
 43
1.0000
 50
270.0000
  0
CIRCLE
  8
44
 10
13.3350
 20
88.9000
 30
0.0000
 40
0.5500
  0
INSERT
  8
17
  2
OCTAGONP
 10
10.7950
 20
86.3600
 30
0.0000
 41
1.6764
 42
1.6764
 43
1.0000
 50
270.0000
  0
INSERT
  8
17
  2
OCTAGONP
 10
10.7950
 20
86.3600
 30
0.0000
 41
1.6764
 42
1.6764
 43
1.0000
 50
270.0000
  0
CIRCLE
  8
44
 10
10.7950
 20
86.3600
 30
0.0000
 40
0.5500
  0
INSERT
  8
17
  2
OCTAGONP
 10
13.3350
 20
86.3600
 30
0.0000
 41
1.6764
 42
1.6764
 43
1.0000
 50
270.0000
  0
INSERT
  8
17
  2
OCTAGONP
 10
13.3350
 20
86.3600
 30
0.0000
 41
1.6764
 42
1.6764
 43
1.0000
 50
270.0000
  0
CIRCLE
  8
44
 10
13.3350
 20
86.3600
 30
0.0000
 40
0.5500
  0
INSERT
  8
17
  2
LONGP100
 10
47.9425
 20
9.8425
 30
0.0000
 41
1.6500
 42
1.6500
 43
1.0000
 50
0.0000
  0
INSERT
  8
17
  2
LONGP100
 10
47.9425
 20
9.8425
 30
0.0000
 41
1.6500
 42
1.6500
 43
1.0000
 50
0.0000
  0
CIRCLE
  8
44
 10
47.9425
 20
9.8425
 30
0.0000
 40
0.5500
  0
INSERT
  8
17
  2
LONGP100
 10
47.9425
 20
7.3025
 30
0.0000
 41
1.6500
 42
1.6500
 43
1.0000
 50
0.0000
  0
INSERT
  8
17
  2
LONGP100
 10
47.9425
 20
7.3025
 30
0.0000
 41
1.6500
 42
1.6500
 43
1.0000
 50
0.0000
  0
CIRCLE
  8
44
 10
47.9425
 20
7.3025
 30
0.0000
 40
0.5500
  0
INSERT
  8
17
  2
LONGP100
 10
47.9425
 20
4.7625
 30
0.0000
 41
1.6500
 42
1.6500
 43
1.0000
 50
0.0000
  0
INSERT
  8
17
  2
LONGP100
 10
47.9425
 20
4.7625
 30
0.0000
 41
1.6500
 42
1.6500
 43
1.0000
 50
0.0000
  0
CIRCLE
  8
44
 10
47.9425
 20
4.7625
 30
0.0000
 40
0.5500
  0
INSERT
  8
17
  2
LONGP100
 10
56.1975
 20
59.0550
 30
0.0000
 41
1.6500
 42
1.6500
 43
1.0000
 50
90.0000
  0
INSERT
  8
17
  2
LONGP100
 10
56.1975
 20
59.0550
 30
0.0000
 41
1.6500
 42
1.6500
 43
1.0000
 50
90.0000
  0
CIRCLE
  8
44
 10
56.1975
 20
59.0550
 30
0.0000
 40
0.5500
  0
INSERT
  8
17
  2
LONGP100
 10
58.7375
 20
59.0550
 30
0.0000
 41
1.6500
 42
1.6500
 43
1.0000
 50
90.0000
  0
INSERT
  8
17
  2
LONGP100
 10
58.7375
 20
59.0550
 30
0.0000
 41
1.6500
 42
1.6500
 43
1.0000
 50
90.0000
  0
CIRCLE
  8
44
 10
58.7375
 20
59.0550
 30
0.0000
 40
0.5500
  0
INSERT
  8
17
  2
LONGP100
 10
56.1975
 20
51.4350
 30
0.0000
 41
1.6500
 42
1.6500
 43
1.0000
 50
90.0000
  0
INSERT
  8
17
  2
LONGP100
 10
56.1975
 20
51.4350
 30
0.0000
 41
1.6500
 42
1.6500
 43
1.0000
 50
90.0000
  0
CIRCLE
  8
44
 10
56.1975
 20
51.4350
 30
0.0000
 40
0.5500
  0
INSERT
  8
17
  2
LONGP100
 10
58.7375
 20
51.4350
 30
0.0000
 41
1.6500
 42
1.6500
 43
1.0000
 50
90.0000
  0
INSERT
  8
17
  2
LONGP100
 10
58.7375
 20
51.4350
 30
0.0000
 41
1.6500
 42
1.6500
 43
1.0000
 50
90.0000
  0
CIRCLE
  8
44
 10
58.7375
 20
51.4350
 30
0.0000
 40
0.5500
  0
INSERT
  8
17
  2
LONGP100
 10
56.1975
 20
43.8150
 30
0.0000
 41
1.6500
 42
1.6500
 43
1.0000
 50
90.0000
  0
INSERT
  8
17
  2
LONGP100
 10
56.1975
 20
43.8150
 30
0.0000
 41
1.6500
 42
1.6500
 43
1.0000
 50
90.0000
  0
CIRCLE
  8
44
 10
56.1975
 20
43.8150
 30
0.0000
 40
0.5500
  0
INSERT
  8
17
  2
LONGP100
 10
58.7375
 20
43.8150
 30
0.0000
 41
1.6500
 42
1.6500
 43
1.0000
 50
90.0000
  0
INSERT
  8
17
  2
LONGP100
 10
58.7375
 20
43.8150
 30
0.0000
 41
1.6500
 42
1.6500
 43
1.0000
 50
90.0000
  0
CIRCLE
  8
44
 10
58.7375
 20
43.8150
 30
0.0000
 40
0.5500
  0
INSERT
  8
18
  2
SQUAREV
 10
68.8975
 20
106.6800
 30
0.0000
 41
1.1064
 42
1.1064
 43
1.0000
 50
0.0000
  0
CIRCLE
  8
44
 10
68.8975
 20
106.6800
 30
0.0000
 40
0.3500
  0
INSERT
  8
18
  2
SQUAREV
 10
30.1625
 20
77.1525
 30
0.0000
 41
1.1064
 42
1.1064
 43
1.0000
 50
0.0000
  0
CIRCLE
  8
44
 10
30.1625
 20
77.1525
 30
0.0000
 40
0.3500
  0
INSERT
  8
18
  2
SQUAREV
 10
42.5450
 20
81.2800
 30
0.0000
 41
1.1064
 42
1.1064
 43
1.0000
 50
0.0000
  0
CIRCLE
  8
44
 10
42.5450
 20
81.2800
 30
0.0000
 40
0.3500
  0
INSERT
  8
18
  2
SQUAREV
 10
36.1950
 20
73.9775
 30
0.0000
 41
1.1064
 42
1.1064
 43
1.0000
 50
0.0000
  0
CIRCLE
  8
44
 10
36.1950
 20
73.9775
 30
0.0000
 40
0.3500
  0
INSERT
  8
18
  2
SQUAREV
 10
36.1950
 20
71.7550
 30
0.0000
 41
1.1064
 42
1.1064
 43
1.0000
 50
0.0000
  0
CIRCLE
  8
44
 10
36.1950
 20
71.7550
 30
0.0000
 40
0.3500
  0
INSERT
  8
18
  2
SQUAREV
 10
52.3875
 20
60.6425
 30
0.0000
 41
1.1064
 42
1.1064
 43
1.0000
 50
0.0000
  0
CIRCLE
  8
44
 10
52.3875
 20
60.6425
 30
0.0000
 40
0.3500
  0
INSERT
  8
18
  2
SQUAREV
 10
50.4825
 20
10.7950
 30
0.0000
 41
1.1064
 42
1.1064
 43
1.0000
 50
0.0000
  0
CIRCLE
  8
44
 10
50.4825
 20
10.7950
 30
0.0000
 40
0.3500
  0
INSERT
  8
18
  2
SQUAREV
 10
40.6400
 20
57.4675
 30
0.0000
 41
1.1064
 42
1.1064
 43
1.0000
 50
0.0000
  0
CIRCLE
  8
44
 10
40.6400
 20
57.4675
 30
0.0000
 40
0.3500
  0
INSERT
  8
18
  2
SQUAREV
 10
49.2125
 20
57.4675
 30
0.0000
 41
1.1064
 42
1.1064
 43
1.0000
 50
0.0000
  0
CIRCLE
  8
44
 10
49.2125
 20
57.4675
 30
0.0000
 40
0.3500
  0
INSERT
  8
18
  2
SQUAREV
 10
14.9225
 20
58.7375
 30
0.0000
 41
1.1064
 42
1.1064
 43
1.0000
 50
0.0000
  0
CIRCLE
  8
44
 10
14.9225
 20
58.7375
 30
0.0000
 40
0.3500
  0
INSERT
  8
18
  2
SQUAREV
 10
29.5275
 20
44.7675
 30
0.0000
 41
1.1064
 42
1.1064
 43
1.0000
 50
0.0000
  0
CIRCLE
  8
44
 10
29.5275
 20
44.7675
 30
0.0000
 40
0.3500
  0
INSERT
  8
18
  2
SQUAREV
 10
29.5275
 20
46.3550
 30
0.0000
 41
1.1064
 42
1.1064
 43
1.0000
 50
0.0000
  0
CIRCLE
  8
44
 10
29.5275
 20
46.3550
 30
0.0000
 40
0.3500
  0
INSERT
  8
18
  2
SQUAREV
 10
29.5275
 20
47.9425
 30
0.0000
 41
1.1064
 42
1.1064
 43
1.0000
 50
0.0000
  0
CIRCLE
  8
44
 10
29.5275
 20
47.9425
 30
0.0000
 40
0.3500
  0
INSERT
  8
18
  2
SQUAREV
 10
29.5275
 20
49.5300
 30
0.0000
 41
1.1064
 42
1.1064
 43
1.0000
 50
0.0000
  0
CIRCLE
  8
44
 10
29.5275
 20
49.5300
 30
0.0000
 40
0.3500
  0
INSERT
  8
18
  2
SQUAREV
 10
37.7825
 20
75.5650
 30
0.0000
 41
1.1064
 42
1.1064
 43
1.0000
 50
0.0000
  0
CIRCLE
  8
44
 10
37.7825
 20
75.5650
 30
0.0000
 40
0.3500
  0
INSERT
  8
18
  2
SQUAREV
 10
40.0050
 20
74.6125
 30
0.0000
 41
1.1064
 42
1.1064
 43
1.0000
 50
0.0000
  0
CIRCLE
  8
44
 10
40.0050
 20
74.6125
 30
0.0000
 40
0.3500
  0
INSERT
  8
18
  2
SQUAREV
 10
44.6088
 20
53.3400
 30
0.0000
 41
1.1064
 42
1.1064
 43
1.0000
 50
0.0000
  0
CIRCLE
  8
44
 10
44.6088
 20
53.3400
 30
0.0000
 40
0.3500
  0
INSERT
  8
18
  2
SQUAREV
 10
49.2125
 20
60.0075
 30
0.0000
 41
1.1064
 42
1.1064
 43
1.0000
 50
0.0000
  0
CIRCLE
  8
44
 10
49.2125
 20
60.0075
 30
0.0000
 40
0.3500
  0
INSERT
  8
18
  2
SQUAREV
 10
45.7200
 20
50.8000
 30
0.0000
 41
1.1064
 42
1.1064
 43
1.0000
 50
0.0000
  0
CIRCLE
  8
44
 10
45.7200
 20
50.8000
 30
0.0000
 40
0.3500
  0
INSERT
  8
18
  2
SQUAREV
 10
36.1950
 20
56.1975
 30
0.0000
 41
1.1064
 42
1.1064
 43
1.0000
 50
0.0000
  0
CIRCLE
  8
44
 10
36.1950
 20
56.1975
 30
0.0000
 40
0.3500
  0
INSERT
  8
18
  2
SQUAREV
 10
39.6875
 20
54.2925
 30
0.0000
 41
1.1064
 42
1.1064
 43
1.0000
 50
0.0000
  0
CIRCLE
  8
44
 10
39.6875
 20
54.2925
 30
0.0000
 40
0.3500
  0
INSERT
  8
18
  2
SQUAREV
 10
35.2425
 20
58.1025
 30
0.0000
 41
1.1064
 42
1.1064
 43
1.0000
 50
0.0000
  0
CIRCLE
  8
44
 10
35.2425
 20
58.1025
 30
0.0000
 40
0.3500
  0
INSERT
  8
18
  2
SQUAREV
 10
18.0975
 20
55.2450
 30
0.0000
 41
1.1064
 42
1.1064
 43
1.0000
 50
0.0000
  0
CIRCLE
  8
44
 10
18.0975
 20
55.2450
 30
0.0000
 40
0.3500
  0
INSERT
  8
18
  2
SQUAREV
 10
20.0025
 20
53.9750
 30
0.0000
 41
1.1064
 42
1.1064
 43
1.0000
 50
0.0000
  0
CIRCLE
  8
44
 10
20.0025
 20
53.9750
 30
0.0000
 40
0.3500
  0
INSERT
  8
18
  2
SQUAREV
 10
15.8750
 20
54.9275
 30
0.0000
 41
1.1064
 42
1.1064
 43
1.0000
 50
0.0000
  0
CIRCLE
  8
44
 10
15.8750
 20
54.9275
 30
0.0000
 40
0.3500
  0
INSERT
  8
18
  2
SQUAREV
 10
42.2275
 20
95.5675
 30
0.0000
 41
1.1064
 42
1.1064
 43
1.0000
 50
0.0000
  0
CIRCLE
  8
44
 10
42.2275
 20
95.5675
 30
0.0000
 40
0.3500
  0
INSERT
  8
18
  2
SQUAREV
 10
38.4175
 20
97.1550
 30
0.0000
 41
1.1064
 42
1.1064
 43
1.0000
 50
0.0000
  0
CIRCLE
  8
44
 10
38.4175
 20
97.1550
 30
0.0000
 40
0.3500
  0
INSERT
  8
18
  2
SQUAREV
 10
38.4175
 20
95.5675
 30
0.0000
 41
1.1064
 42
1.1064
 43
1.0000
 50
0.0000
  0
CIRCLE
  8
44
 10
38.4175
 20
95.5675
 30
0.0000
 40
0.3500
  0
INSERT
  8
18
  2
SQUAREV
 10
39.6875
 20
95.5675
 30
0.0000
 41
1.1064
 42
1.1064
 43
1.0000
 50
0.0000
  0
CIRCLE
  8
44
 10
39.6875
 20
95.5675
 30
0.0000
 40
0.3500
  0
INSERT
  8
18
  2
SQUAREV
 10
40.9575
 20
95.5675
 30
0.0000
 41
1.1064
 42
1.1064
 43
1.0000
 50
0.0000
  0
CIRCLE
  8
44
 10
40.9575
 20
95.5675
 30
0.0000
 40
0.3500
  0
INSERT
  8
18
  2
SQUAREV
 10
47.9425
 20
97.1550
 30
0.0000
 41
1.1064
 42
1.1064
 43
1.0000
 50
0.0000
  0
CIRCLE
  8
44
 10
47.9425
 20
97.1550
 30
0.0000
 40
0.3500
  0
INSERT
  8
18
  2
SQUAREV
 10
47.9425
 20
95.5675
 30
0.0000
 41
1.1064
 42
1.1064
 43
1.0000
 50
0.0000
  0
CIRCLE
  8
44
 10
47.9425
 20
95.5675
 30
0.0000
 40
0.3500
  0
INSERT
  8
18
  2
SQUAREV
 10
49.2125
 20
95.5675
 30
0.0000
 41
1.1064
 42
1.1064
 43
1.0000
 50
0.0000
  0
CIRCLE
  8
44
 10
49.2125
 20
95.5675
 30
0.0000
 40
0.3500
  0
INSERT
  8
18
  2
SQUAREV
 10
50.4825
 20
95.5675
 30
0.0000
 41
1.1064
 42
1.1064
 43
1.0000
 50
0.0000
  0
CIRCLE
  8
44
 10
50.4825
 20
95.5675
 30
0.0000
 40
0.3500
  0
INSERT
  8
18
  2
SQUAREV
 10
51.7525
 20
95.5675
 30
0.0000
 41
1.1064
 42
1.1064
 43
1.0000
 50
0.0000
  0
CIRCLE
  8
44
 10
51.7525
 20
95.5675
 30
0.0000
 40
0.3500
  0
INSERT
  8
18
  2
SQUAREV
 10
58.7375
 20
103.5050
 30
0.0000
 41
1.1064
 42
1.1064
 43
1.0000
 50
0.0000
  0
CIRCLE
  8
44
 10
58.7375
 20
103.5050
 30
0.0000
 40
0.3500
  0
INSERT
  8
18
  2
SQUAREV
 10
60.0075
 20
103.5050
 30
0.0000
 41
1.1064
 42
1.1064
 43
1.0000
 50
0.0000
  0
CIRCLE
  8
44
 10
60.0075
 20
103.5050
 30
0.0000
 40
0.3500
  0
INSERT
  8
18
  2
SQUAREV
 10
61.2775
 20
103.5050
 30
0.0000
 41
1.1064
 42
1.1064
 43
1.0000
 50
0.0000
  0
CIRCLE
  8
44
 10
61.2775
 20
103.5050
 30
0.0000
 40
0.3500
  0
INSERT
  8
18
  2
SQUAREV
 10
32.3850
 20
100.3300
 30
0.0000
 41
1.1064
 42
1.1064
 43
1.0000
 50
0.0000
  0
CIRCLE
  8
44
 10
32.3850
 20
100.3300
 30
0.0000
 40
0.3500
  0
INSERT
  8
18
  2
SQUAREV
 10
31.1150
 20
100.3300
 30
0.0000
 41
1.1064
 42
1.1064
 43
1.0000
 50
0.0000
  0
CIRCLE
  8
44
 10
31.1150
 20
100.3300
 30
0.0000
 40
0.3500
  0
INSERT
  8
18
  2
SQUAREV
 10
29.8450
 20
100.3300
 30
0.0000
 41
1.1064
 42
1.1064
 43
1.0000
 50
0.0000
  0
CIRCLE
  8
44
 10
29.8450
 20
100.3300
 30
0.0000
 40
0.3500
  0
INSERT
  8
18
  2
SQUAREV
 10
28.5750
 20
100.3300
 30
0.0000
 41
1.1064
 42
1.1064
 43
1.0000
 50
0.0000
  0
CIRCLE
  8
44
 10
28.5750
 20
100.3300
 30
0.0000
 40
0.3500
  0
INSERT
  8
18
  2
SQUAREV
 10
28.5750
 20
101.9175
 30
0.0000
 41
1.1064
 42
1.1064
 43
1.0000
 50
0.0000
  0
CIRCLE
  8
44
 10
28.5750
 20
101.9175
 30
0.0000
 40
0.3500
  0
INSERT
  8
18
  2
SQUAREV
 10
22.8600
 20
100.3300
 30
0.0000
 41
1.1064
 42
1.1064
 43
1.0000
 50
0.0000
  0
CIRCLE
  8
44
 10
22.8600
 20
100.3300
 30
0.0000
 40
0.3500
  0
INSERT
  8
18
  2
SQUAREV
 10
21.5900
 20
100.3300
 30
0.0000
 41
1.1064
 42
1.1064
 43
1.0000
 50
0.0000
  0
CIRCLE
  8
44
 10
21.5900
 20
100.3300
 30
0.0000
 40
0.3500
  0
INSERT
  8
18
  2
SQUAREV
 10
20.3200
 20
100.3300
 30
0.0000
 41
1.1064
 42
1.1064
 43
1.0000
 50
0.0000
  0
CIRCLE
  8
44
 10
20.3200
 20
100.3300
 30
0.0000
 40
0.3500
  0
INSERT
  8
18
  2
SQUAREV
 10
19.0500
 20
100.3300
 30
0.0000
 41
1.1064
 42
1.1064
 43
1.0000
 50
0.0000
  0
CIRCLE
  8
44
 10
19.0500
 20
100.3300
 30
0.0000
 40
0.3500
  0
INSERT
  8
18
  2
SQUAREV
 10
19.0500
 20
101.9175
 30
0.0000
 41
1.1064
 42
1.1064
 43
1.0000
 50
0.0000
  0
CIRCLE
  8
44
 10
19.0500
 20
101.9175
 30
0.0000
 40
0.3500
  0
INSERT
  8
18
  2
SQUAREV
 10
25.4000
 20
66.6750
 30
0.0000
 41
1.1064
 42
1.1064
 43
1.0000
 50
0.0000
  0
CIRCLE
  8
44
 10
25.4000
 20
66.6750
 30
0.0000
 40
0.3500
  0
INSERT
  8
18
  2
SQUAREV
 10
23.8125
 20
60.0075
 30
0.0000
 41
1.1064
 42
1.1064
 43
1.0000
 50
0.0000
  0
CIRCLE
  8
44
 10
23.8125
 20
60.0075
 30
0.0000
 40
0.3500
  0
INSERT
  8
18
  2
SQUAREV
 10
46.9900
 20
81.2800
 30
0.0000
 41
1.1064
 42
1.1064
 43
1.0000
 50
0.0000
  0
CIRCLE
  8
44
 10
46.9900
 20
81.2800
 30
0.0000
 40
0.3500
  0
INSERT
  8
18
  2
SQUAREV
 10
22.2250
 20
66.3575
 30
0.0000
 41
1.1064
 42
1.1064
 43
1.0000
 50
0.0000
  0
CIRCLE
  8
44
 10
22.2250
 20
66.3575
 30
0.0000
 40
0.3500
  0
INSERT
  8
18
  2
SQUAREV
 10
31.7500
 20
86.6775
 30
0.0000
 41
1.1064
 42
1.1064
 43
1.0000
 50
0.0000
  0
CIRCLE
  8
44
 10
31.7500
 20
86.6775
 30
0.0000
 40
0.3500
  0
INSERT
  8
18
  2
SQUAREV
 10
27.6225
 20
93.3450
 30
0.0000
 41
1.1064
 42
1.1064
 43
1.0000
 50
0.0000
  0
CIRCLE
  8
44
 10
27.6225
 20
93.3450
 30
0.0000
 40
0.3500
  0
INSERT
  8
18
  2
SQUAREV
 10
34.6075
 20
87.9475
 30
0.0000
 41
1.1064
 42
1.1064
 43
1.0000
 50
0.0000
  0
CIRCLE
  8
44
 10
34.6075
 20
87.9475
 30
0.0000
 40
0.3500
  0
INSERT
  8
18
  2
SQUAREV
 10
34.6075
 20
90.4875
 30
0.0000
 41
1.1064
 42
1.1064
 43
1.0000
 50
0.0000
  0
CIRCLE
  8
44
 10
34.6075
 20
90.4875
 30
0.0000
 40
0.3500
  0
INSERT
  8
18
  2
SQUAREV
 10
55.8800
 20
66.9925
 30
0.0000
 41
1.1064
 42
1.1064
 43
1.0000
 50
0.0000
  0
CIRCLE
  8
44
 10
55.8800
 20
66.9925
 30
0.0000
 40
0.3500
  0
INSERT
  8
18
  2
SQUAREV
 10
54.6100
 20
47.6250
 30
0.0000
 41
1.1064
 42
1.1064
 43
1.0000
 50
0.0000
  0
CIRCLE
  8
44
 10
54.6100
 20
47.6250
 30
0.0000
 40
0.3500
  0
INSERT
  8
18
  2
SQUAREV
 10
54.6100
 20
55.2450
 30
0.0000
 41
1.1064
 42
1.1064
 43
1.0000
 50
0.0000
  0
CIRCLE
  8
44
 10
54.6100
 20
55.2450
 30
0.0000
 40
0.3500
  0
INSERT
  8
18
  2
SQUAREV
 10
45.4025
 20
81.2800
 30
0.0000
 41
1.1064
 42
1.1064
 43
1.0000
 50
0.0000
  0
CIRCLE
  8
44
 10
45.4025
 20
81.2800
 30
0.0000
 40
0.3500
  0
INSERT
  8
18
  2
SQUAREV
 10
22.2250
 20
64.4525
 30
0.0000
 41
1.1064
 42
1.1064
 43
1.0000
 50
0.0000
  0
CIRCLE
  8
44
 10
22.2250
 20
64.4525
 30
0.0000
 40
0.3500
  0
INSERT
  8
18
  2
ROUNDV
 10
90.4875
 20
123.1900
 30
0.0000
 41
1.1064
 42
1.1064
 43
1.0000
 50
0.0000
  0
CIRCLE
  8
44
 10
90.4875
 20
123.1900
 30
0.0000
 40
0.3500
  0
INSERT
  8
18
  2
ROUNDV
 10
91.7575
 20
123.1900
 30
0.0000
 41
1.1064
 42
1.1064
 43
1.0000
 50
0.0000
  0
CIRCLE
  8
44
 10
91.7575
 20
123.1900
 30
0.0000
 40
0.3500
  0
INSERT
  8
18
  2
SQUAREV
 10
56.1975
 20
75.5650
 30
0.0000
 41
1.1064
 42
1.1064
 43
1.0000
 50
0.0000
  0
CIRCLE
  8
44
 10
56.1975
 20
75.5650
 30
0.0000
 40
0.3500
  0
INSERT
  8
18
  2
SQUAREV
 10
38.4175
 20
70.4850
 30
0.0000
 41
1.1064
 42
1.1064
 43
1.0000
 50
0.0000
  0
CIRCLE
  8
44
 10
38.4175
 20
70.4850
 30
0.0000
 40
0.3500
  0
INSERT
  8
18
  2
SQUAREV
 10
43.8150
 20
80.0100
 30
0.0000
 41
1.1064
 42
1.1064
 43
1.0000
 50
0.0000
  0
CIRCLE
  8
44
 10
43.8150
 20
80.0100
 30
0.0000
 40
0.3500
  0
INSERT
  8
18
  2
SQUAREV
 10
29.8450
 20
39.3700
 30
0.0000
 41
1.1064
 42
1.1064
 43
1.0000
 50
0.0000
  0
CIRCLE
  8
44
 10
29.8450
 20
39.3700
 30
0.0000
 40
0.3500
  0
INSERT
  8
18
  2
SQUAREV
 10
44.7675
 20
7.3025
 30
0.0000
 41
1.1064
 42
1.1064
 43
1.0000
 50
0.0000
  0
CIRCLE
  8
44
 10
44.7675
 20
7.3025
 30
0.0000
 40
0.3500
  0
INSERT
  8
18
  2
SQUAREV
 10
56.1975
 20
77.1525
 30
0.0000
 41
1.1064
 42
1.1064
 43
1.0000
 50
0.0000
  0
CIRCLE
  8
44
 10
56.1975
 20
77.1525
 30
0.0000
 40
0.3500
  0
INSERT
  8
18
  2
SQUAREV
 10
56.1975
 20
70.8025
 30
0.0000
 41
1.1064
 42
1.1064
 43
1.0000
 50
0.0000
  0
CIRCLE
  8
44
 10
56.1975
 20
70.8025
 30
0.0000
 40
0.3500
  0
INSERT
  8
18
  2
SQUAREV
 10
56.1975
 20
73.9775
 30
0.0000
 41
1.1064
 42
1.1064
 43
1.0000
 50
0.0000
  0
CIRCLE
  8
44
 10
56.1975
 20
73.9775
 30
0.0000
 40
0.3500
  0
INSERT
  8
18
  2
SQUAREV
 10
38.1000
 20
7.3025
 30
0.0000
 41
1.1064
 42
1.1064
 43
1.0000
 50
0.0000
  0
CIRCLE
  8
44
 10
38.1000
 20
7.3025
 30
0.0000
 40
0.3500
  0
INSERT
  8
18
  2
SQUAREV
 10
56.1975
 20
72.3900
 30
0.0000
 41
1.1064
 42
1.1064
 43
1.0000
 50
0.0000
  0
CIRCLE
  8
44
 10
56.1975
 20
72.3900
 30
0.0000
 40
0.3500
  0
INSERT
  8
18
  2
SQUAREV
 10
36.8300
 20
67.9450
 30
0.0000
 41
1.1064
 42
1.1064
 43
1.0000
 50
0.0000
  0
CIRCLE
  8
44
 10
36.8300
 20
67.9450
 30
0.0000
 40
0.3500
  0
INSERT
  8
18
  2
SQUAREV
 10
56.1975
 20
69.2150
 30
0.0000
 41
1.1064
 42
1.1064
 43
1.0000
 50
0.0000
  0
CIRCLE
  8
44
 10
56.1975
 20
69.2150
 30
0.0000
 40
0.3500
  0
INSERT
  8
18
  2
SQUAREV
 10
25.7175
 20
62.8650
 30
0.0000
 41
1.1064
 42
1.1064
 43
1.0000
 50
0.0000
  0
CIRCLE
  8
44
 10
25.7175
 20
62.8650
 30
0.0000
 40
0.3500
  0
INSERT
  8
18
  2
SQUAREV
 10
25.7175
 20
50.8000
 30
0.0000
 41
1.1064
 42
1.1064
 43
1.0000
 50
0.0000
  0
CIRCLE
  8
44
 10
25.7175
 20
50.8000
 30
0.0000
 40
0.3500
  0
INSERT
  8
18
  2
SQUAREV
 10
30.7975
 20
7.3025
 30
0.0000
 41
1.1064
 42
1.1064
 43
1.0000
 50
0.0000
  0
CIRCLE
  8
44
 10
30.7975
 20
7.3025
 30
0.0000
 40
0.3500
  0
INSERT
  8
18
  2
SQUAREV
 10
35.2425
 20
69.2150
 30
0.0000
 41
1.1064
 42
1.1064
 43
1.0000
 50
0.0000
  0
CIRCLE
  8
44
 10
35.2425
 20
69.2150
 30
0.0000
 40
0.3500
  0
ENDSEC
  0
EOF
